<svg id="Layer_1" data-name="Layer 1" xmlns="http://www.w3.org/2000/svg" viewBox="0 0 140 140"><defs><style>.cls-1,.cls-3{fill:#2c2c2c;}.cls-2{fill:none;}.cls-2,.cls-3{stroke:#2c2c2c;stroke-miterlimit:10;stroke-width:5px;}.cls-4{fill:#fff;}</style></defs><title>brain</title><path class="cls-1" d="M67.49,51.58H93.54c3.86,0,3.87-6,0-6H67.49c-3.86,0-3.86,6,0,6Z"/><path class="cls-1" d="M95.66,50.7l9.77-12.37c2.37-3-1.85-7.28-4.24-4.25L91.42,46.46c-2.37,3,1.85,7.27,4.24,4.24Z"/><path class="cls-1" d="M67.49,97.81H93.54c3.86,0,3.87-6,0-6H67.49c-3.86,0-3.86,6,0,6Z"/><path class="cls-1" d="M91.42,96.94l9.77,12.37c2.39,3,6.61-1.24,4.24-4.24L95.66,92.69c-2.39-3-6.61,1.25-4.24,4.25Z"/><path class="cls-1" d="M67.49,75h38.39c3.86,0,3.87-6,0-6H67.49c-3.86,0-3.86,6,0,6Z"/><circle class="cls-2" cx="105.26" cy="33.6" r="7.16"/><circle class="cls-2" cx="108.19" cy="71.7" r="7.16"/><circle class="cls-2" cx="104.18" cy="108.29" r="7.16"/><path class="cls-3" d="M64.29,22.91a9.81,9.81,0,0,0-16.78,7v2.45a10.23,10.23,0,0,0-6.62,18A16.7,16.7,0,0,0,24.64,67.19a16.88,16.88,0,0,0,8.52,14.73,10.24,10.24,0,0,0,4.12,17.53c0,.12,0,.24,0,.36a10.23,10.23,0,0,0,10.24,10.24v.09a9.84,9.84,0,1,0,19.67,0V29.86A9.77,9.77,0,0,0,64.29,22.91Z"/><path class="cls-4" d="M57.24,28.3c-.06,3-1.73,5.41-3.37,7.75-.56.8.74,1.55,1.29.76,1.81-2.58,3.52-5.26,3.58-8.51a.75.75,0,0,0-1.5,0Z"/><path class="cls-4" d="M48.91,99.69a6.31,6.31,0,0,1,7.48,4c.31.91,1.75.52,1.45-.4a7.85,7.85,0,0,0-9.33-5.09.75.75,0,0,0,.4,1.45Z"/><path class="cls-4" d="M40.31,72.6A10.16,10.16,0,0,1,52,82.65a.75.75,0,0,0,1.5,0A11.62,11.62,0,0,0,40.31,71.1c-1,.12-1,1.62,0,1.5Z"/><path class="cls-4" d="M54.13,51.79a7.22,7.22,0,0,1-2.21,6.28c-.69.67.37,1.73,1.06,1.06a8.77,8.77,0,0,0,2.6-7.74c-.14-1-1.58-.54-1.45.4Z"/></svg>