<svg id="Layer_1" data-name="Layer 1" xmlns="http://www.w3.org/2000/svg" viewBox="0 0 140 140"><defs><style>.cls-1{fill:#2c2c2c;}</style></defs><title>speak</title><path class="cls-1" d="M35,87.64a2.61,2.61,0,0,0-2.36,2.8L38.4,130.1h62.66l6.2-39.66c.47-1.42-1-2.8-2.36-2.8Z"/><path class="cls-1" d="M122.26,78.8H17.74l3,3c0-3.1,0-6,3.74-6.45a46.38,46.38,0,0,1,5.53,0h77.7c2.39,0,4.87-.19,7.25,0,.4,0,.84-.07,1.23,0,3.53.67,3.07,3.75,3.07,6.45,0,3.86,6,3.87,6,0,0-5.12-.75-10.33-6.47-12a19.32,19.32,0,0,0-5.58-.41H28.75c-1.64,0-3.31-.09-4.95,0-7.28.42-9.06,6.25-9.06,12.45a3,3,0,0,0,3,3H122.26C126.12,84.8,126.13,78.8,122.26,78.8Z"/><path class="cls-1" d="M58.2,42.48a20.66,20.66,0,0,0,4.28,8c.47,2.83-2.8,4.71-2.8,4.71-9.44,1.42-18,6.17-19.91,11.36h60.46c-1.89-5.19-10.47-9.94-19.91-11.36,0,0-4.25-.94-2.36-4.71a33.87,33.87,0,0,0,4.28-7.52s3.83-2.86,3.83-6.64C86.07,32,85,32,85,32c1.41-4.24,1.89-20.17-9.44-18.28-.7-2.12-4.07-3.83-8-3.83a12.38,12.38,0,0,0-10.91,6.19C53.9,20.81,53,26.82,55.4,32c0,.48-1-.44-1,1.92-.47,2.36,1,5.66,1.92,7.08.47.47,1.44,1,1.91,1.47"/><path class="cls-1" d="M116.09,72.69h-.15a25.26,25.26,0,0,0-2.21-10,18.56,18.56,0,0,0-2.8-4.13,7.37,7.37,0,0,0,.44-2.36,7.06,7.06,0,1,0-3.39,6,12.29,12.29,0,0,1,1.62,2.5,20.5,20.5,0,0,1,1.62,8l-87.79.07"/></svg>