<?xml version="1.0" standalone="no"?>
<!DOCTYPE svg PUBLIC "-//W3C//DTD SVG 1.1//EN" "http://www.w3.org/Graphics/SVG/1.1/DTD/svg11.dtd" >
<svg xmlns="http://www.w3.org/2000/svg" xmlns:xlink="http://www.w3.org/1999/xlink" version="1.1">
<metadata>
Created by FontForge 20170910 at Fri May 21 11:51:34 2010
 By Jimmy Wärting
Copyright (c) 2010 Linotype GmbH, www.linotype.com. All rights reserved. This font software may not be reproduced, modified, disclosed or transferred without the express written approval of Linotype GmbH.
</metadata>
<defs>
<font id="DINNextW1G-UltraLight" horiz-adv-x="522" >
  <font-face 
    font-family="DIN Next W1G UltraLight"
    font-weight="250"
    font-stretch="normal"
    units-per-em="1000"
    panose-1="2 11 2 3 2 2 3 5 2 3"
    ascent="750"
    descent="-250"
    x-height="474"
    cap-height="680"
    bbox="-139.177 -216 987 912"
    underline-thickness="50"
    underline-position="-100"
    stemh="26"
    stemv="30"
    unicode-range="U+000D-FB04"
  />
<missing-glyph horiz-adv-x="464" 
d="M0 10v660c0 6 4 10 10 10h444c6 0 10 -4 10 -10v-660c0 -6 -4 -10 -10 -10h-444c-6 0 -10 4 -10 10zM30 34c0 -4 2 -6 6 -6h392c4 0 6 2 6 6v612c0 4 -2 6 -6 6h-392c-4 0 -6 -2 -6 -6v-612zM221 217c-6 0 -10 4 -10 10v25c0 32 6 50 24 72l31 37c37 44 43 62 43 94
c0 50 -35 80 -82 80c-43 0 -75 -23 -87 -77c-1 -6 -5 -9 -12 -8l-7 1c-6 1 -9 5 -8 11c10 58 54 99 114 99c68 0 110 -46 110 -106c0 -43 -13 -67 -44 -104l-31 -37c-21 -26 -23 -35 -23 -62v-25c0 -6 -4 -10 -10 -10h-8zM205 123v28c0 6 4 10 10 10h19c6 0 10 -4 10 -10
v-28c0 -6 -4 -10 -10 -10h-19c-6 0 -10 4 -10 10z" />
    <glyph glyph-name="napostrophe" unicode="&#x22;n" horiz-adv-x="538" 
d="M434 0h-10c-6 0 -10 4 -10 10v284c0 112 -46 162 -139 162c-79 0 -145 -54 -145 -147v-299c0 -6 -4 -10 -10 -10h-10c-6 0 -10 4 -10 10v454c0 6 4 10 10 10h10c6 0 10 -4 10 -10v-67h1c24 55 78 87 146 87c107 0 167 -61 167 -183v-291c0 -6 -4 -10 -10 -10zM63 552
c-6 0 -7 3 -7 9v109c0 6 3 10 9 10h11c6 0 9 -4 9 -10v-64c0 -10 -1 -18 -5 -28l-7 -19c-2 -4 -5 -7 -10 -7z" />
    <glyph glyph-name="IJ" unicode="IJ" horiz-adv-x="695" 
d="M102 10v660c0 6 4 10 10 10h11c6 0 10 -4 10 -10v-660c0 -6 -4 -10 -10 -10h-11c-6 0 -10 4 -10 10zM282 34c-5 3 -6 9 -3 14l8 9c4 4 10 4 15 1c27 -20 69 -39 114 -39c92 0 153 47 153 173v478c0 6 4 10 10 10h11c6 0 10 -4 10 -10v-479c0 -141 -73 -201 -184 -201
c-52 0 -101 19 -134 44z" />
    <glyph glyph-name="fi" unicode="fi" horiz-adv-x="529" 
d="M136 0h-10c-6 0 -10 4 -10 10v430c0 4 -2 6 -6 6h-58c-6 0 -10 4 -10 10v8c0 6 4 10 10 10h58c4 0 6 2 6 6v61c0 116 29 139 122 139h21c6 0 10 -4 10 -10v-8c0 -6 -4 -10 -10 -10h-17c-82 0 -96 -16 -96 -101v-71c0 -4 2 -6 6 -6h107c6 0 10 -4 10 -10v-8
c0 -6 -4 -10 -10 -10h-107c-4 0 -6 -2 -6 -6v-430c0 -6 -4 -10 -10 -10zM426 620h-24c-6 0 -10 4 -10 10v40c0 6 4 10 10 10h24c6 0 10 -4 10 -10v-40c0 -6 -4 -10 -10 -10zM419 0h-10c-6 0 -10 4 -10 10v454c0 6 4 10 10 10h10c6 0 10 -4 10 -10v-454c0 -6 -4 -10 -10 -10z
" />
    <glyph glyph-name="fl" unicode="fl" horiz-adv-x="548" 
d="M136 0h-10c-6 0 -10 4 -10 10v430c0 4 -2 6 -6 6h-58c-6 0 -10 4 -10 10v8c0 6 4 10 10 10h58c4 0 6 2 6 6v61c0 116 29 139 122 139h21c6 0 10 -4 10 -10v-8c0 -6 -4 -10 -10 -10h-17c-82 0 -96 -16 -96 -101v-71c0 -4 2 -6 6 -6h107c6 0 10 -4 10 -10v-8
c0 -6 -4 -10 -10 -10h-107c-4 0 -6 -2 -6 -6v-430c0 -6 -4 -10 -10 -10zM498 -2h-15c-62 0 -85 28 -85 99v573c0 6 4 10 10 10h10c6 0 10 -4 10 -10v-573c0 -54 15 -71 55 -71h15c6 0 10 -4 10 -10v-8c0 -6 -4 -10 -10 -10z" />
    <glyph glyph-name="ij" unicode="ij" horiz-adv-x="460" 
d="M127 620h-24c-6 0 -10 4 -10 10v40c0 6 4 10 10 10h24c6 0 10 -4 10 -10v-40c0 -6 -4 -10 -10 -10zM120 0h-10c-6 0 -10 4 -10 10v454c0 6 4 10 10 10h10c6 0 10 -4 10 -10v-454c0 -6 -4 -10 -10 -10zM357 620h-24c-6 0 -10 4 -10 10v40c0 6 4 10 10 10h24
c6 0 10 -4 10 -10v-40c0 -6 -4 -10 -10 -10zM253 -180h-4c-6 0 -10 4 -10 10v8c0 6 4 10 10 10h4c60 0 77 14 77 81v535c0 6 4 10 10 10h10c6 0 10 -4 10 -10v-535c0 -84 -26 -109 -107 -109z" />
    <glyph glyph-name="f_f_l" unicode="ffl" horiz-adv-x="847" 
d="M136 0h-10c-6 0 -10 4 -10 10v430c0 4 -2 6 -6 6h-58c-6 0 -10 4 -10 10v8c0 6 4 10 10 10h58c4 0 6 2 6 6v61c0 116 29 139 122 139h21c6 0 10 -4 10 -10v-8c0 -6 -4 -10 -10 -10h-17c-82 0 -96 -16 -96 -101v-71c0 -4 2 -6 6 -6h107c6 0 10 -4 10 -10v-8
c0 -6 -4 -10 -10 -10h-107c-4 0 -6 -2 -6 -6v-430c0 -6 -4 -10 -10 -10zM435 0h-10c-6 0 -10 4 -10 10v430c0 4 -2 6 -6 6h-58c-6 0 -10 4 -10 10v8c0 6 4 10 10 10h58c4 0 6 2 6 6v61c0 116 29 139 122 139h21c6 0 10 -4 10 -10v-8c0 -6 -4 -10 -10 -10h-17
c-82 0 -96 -16 -96 -101v-71c0 -4 2 -6 6 -6h107c6 0 10 -4 10 -10v-8c0 -6 -4 -10 -10 -10h-107c-4 0 -6 -2 -6 -6v-430c0 -6 -4 -10 -10 -10zM797 -2h-15c-62 0 -85 28 -85 99v573c0 6 4 10 10 10h10c6 0 10 -4 10 -10v-573c0 -54 15 -71 55 -71h15c6 0 10 -4 10 -10v-8
c0 -6 -4 -10 -10 -10z" />
    <glyph glyph-name="f_f_i" unicode="ffi" horiz-adv-x="828" 
d="M136 0h-10c-6 0 -10 4 -10 10v430c0 4 -2 6 -6 6h-58c-6 0 -10 4 -10 10v8c0 6 4 10 10 10h58c4 0 6 2 6 6v61c0 116 29 139 122 139h21c6 0 10 -4 10 -10v-8c0 -6 -4 -10 -10 -10h-17c-82 0 -96 -16 -96 -101v-71c0 -4 2 -6 6 -6h107c6 0 10 -4 10 -10v-8
c0 -6 -4 -10 -10 -10h-107c-4 0 -6 -2 -6 -6v-430c0 -6 -4 -10 -10 -10zM435 0h-10c-6 0 -10 4 -10 10v430c0 4 -2 6 -6 6h-58c-6 0 -10 4 -10 10v8c0 6 4 10 10 10h58c4 0 6 2 6 6v61c0 116 29 139 122 139h21c6 0 10 -4 10 -10v-8c0 -6 -4 -10 -10 -10h-17
c-82 0 -96 -16 -96 -101v-71c0 -4 2 -6 6 -6h107c6 0 10 -4 10 -10v-8c0 -6 -4 -10 -10 -10h-107c-4 0 -6 -2 -6 -6v-430c0 -6 -4 -10 -10 -10zM725 620h-24c-6 0 -10 4 -10 10v40c0 6 4 10 10 10h24c6 0 10 -4 10 -10v-40c0 -6 -4 -10 -10 -10zM718 0h-10
c-6 0 -10 4 -10 10v454c0 6 4 10 10 10h10c6 0 10 -4 10 -10v-454c0 -6 -4 -10 -10 -10z" />
    <glyph glyph-name="f_f" unicode="ff" horiz-adv-x="598" 
d="M136 0h-10c-6 0 -10 4 -10 10v430c0 4 -2 6 -6 6h-58c-6 0 -10 4 -10 10v8c0 6 4 10 10 10h58c4 0 6 2 6 6v61c0 116 29 139 122 139h21c6 0 10 -4 10 -10v-8c0 -6 -4 -10 -10 -10h-17c-82 0 -96 -16 -96 -101v-71c0 -4 2 -6 6 -6h107c6 0 10 -4 10 -10v-8
c0 -6 -4 -10 -10 -10h-107c-4 0 -6 -2 -6 -6v-430c0 -6 -4 -10 -10 -10zM435 0h-10c-6 0 -10 4 -10 10v430c0 4 -2 6 -6 6h-58c-6 0 -10 4 -10 10v8c0 6 4 10 10 10h58c4 0 6 2 6 6v61c0 116 29 139 122 139h21c6 0 10 -4 10 -10v-8c0 -6 -4 -10 -10 -10h-17
c-82 0 -96 -16 -96 -101v-71c0 -4 2 -6 6 -6h107c6 0 10 -4 10 -10v-8c0 -6 -4 -10 -10 -10h-107c-4 0 -6 -2 -6 -6v-430c0 -6 -4 -10 -10 -10z" />
    <glyph glyph-name=".notdef" horiz-adv-x="464" 
d="M0 10v660c0 6 4 10 10 10h444c6 0 10 -4 10 -10v-660c0 -6 -4 -10 -10 -10h-444c-6 0 -10 4 -10 10zM30 34c0 -4 2 -6 6 -6h392c4 0 6 2 6 6v612c0 4 -2 6 -6 6h-392c-4 0 -6 -2 -6 -6v-612zM221 217c-6 0 -10 4 -10 10v25c0 32 6 50 24 72l31 37c37 44 43 62 43 94
c0 50 -35 80 -82 80c-43 0 -75 -23 -87 -77c-1 -6 -5 -9 -12 -8l-7 1c-6 1 -9 5 -8 11c10 58 54 99 114 99c68 0 110 -46 110 -106c0 -43 -13 -67 -44 -104l-31 -37c-21 -26 -23 -35 -23 -62v-25c0 -6 -4 -10 -10 -10h-8zM205 123v28c0 6 4 10 10 10h19c6 0 10 -4 10 -10
v-28c0 -6 -4 -10 -10 -10h-19c-6 0 -10 4 -10 10z" />
    <glyph glyph-name=".null" horiz-adv-x="500" 
 />
    <glyph glyph-name=".null" horiz-adv-x="500" 
 />
    <glyph glyph-name="CR" unicode="&#xd;" horiz-adv-x="0" 
 />
    <glyph glyph-name="space" unicode=" " horiz-adv-x="250" 
 />
    <glyph glyph-name="exclam" unicode="!" horiz-adv-x="248" 
d="M121 170c-6 0 -10 4 -10 10l-2 490c0 6 4 10 10 10h12c6 0 10 -4 10 -10l-2 -490c0 -6 -4 -10 -10 -10h-8zM100 10v50c0 6 4 10 10 10h28c6 0 10 -4 10 -10v-50c0 -6 -4 -10 -10 -10h-28c-6 0 -10 4 -10 10z" />
    <glyph glyph-name="quotedbl" unicode="&#x22;" horiz-adv-x="300" 
d="M200 536c-6 0 -10 4 -10 10v124c0 6 4 10 10 10h10c6 0 10 -4 10 -10v-124c0 -6 -4 -10 -10 -10h-10zM90 536c-6 0 -10 4 -10 10v124c0 6 4 10 10 10h10c6 0 10 -4 10 -10v-124c0 -6 -4 -10 -10 -10h-10z" />
    <glyph glyph-name="numbersign" unicode="#" 
d="M99 10l29 213h-87c-6 0 -10 4 -10 10v7c0 6 4 10 10 10h90l27 197h-93c-6 0 -10 4 -10 10v7c0 6 4 10 10 10h97l27 196c1 6 4 10 11 10h10c7 0 10 -4 9 -10l-27 -196h167l27 196c1 6 4 10 11 10h10c7 0 10 -4 9 -10l-27 -196h92c6 0 10 -4 10 -10v-7c0 -6 -4 -10 -10 -10
h-96l-27 -197h99c6 0 10 -4 10 -10v-7c0 -6 -4 -10 -10 -10h-102l-29 -213c-1 -6 -4 -10 -11 -10h-10c-7 0 -10 4 -9 10l29 213h-167l-29 -213c-1 -6 -4 -10 -11 -10h-10c-7 0 -10 4 -9 10zM161 250h167l27 197h-167z" />
    <glyph glyph-name="dollar" unicode="$" 
d="M62 44c-4 3 -5 10 -1 14l7 8c4 5 9 4 14 1c42 -26 97 -47 165 -49v313c-121 18 -171 85 -171 176c0 109 69 176 171 182v52c0 6 4 10 10 10h8c6 0 10 -4 10 -10v-51c55 -3 105 -20 143 -42c5 -3 7 -8 3 -14l-5 -7c-4 -5 -9 -5 -14 -2c-46 23 -82 35 -127 37v-306
c128 -19 179 -80 179 -175c0 -106 -63 -181 -179 -190v-52c0 -6 -4 -10 -10 -10h-8c-6 0 -10 4 -10 10v51c-73 1 -143 27 -185 54zM247 360v301c-87 -5 -141 -64 -141 -151c0 -78 37 -134 141 -150zM275 18c90 7 149 64 149 160c0 83 -37 132 -149 149v-309z" />
    <glyph glyph-name="percent" unicode="%" horiz-adv-x="786" 
d="M180 0l393 680c4 7 7 10 14 10h10c6 0 9 -4 6 -10l-393 -680c-4 -7 -7 -10 -14 -10h-10c-6 0 -9 4 -6 10zM210 330c-52 0 -88 26 -102 71c-4 13 -8 31 -8 108s4 95 8 108c14 45 50 71 102 71s88 -26 102 -71c4 -13 8 -31 8 -108s-4 -95 -8 -108c-14 -45 -50 -71 -102 -71
zM210 356c37 0 63 16 74 50c5 15 8 27 8 103s-3 88 -8 103c-11 34 -37 50 -74 50s-63 -16 -74 -50c-5 -15 -8 -27 -8 -103s3 -88 8 -103c11 -34 37 -50 74 -50zM474 63c-4 13 -8 31 -8 108s4 95 8 108c14 45 50 71 102 71s88 -26 102 -71c4 -13 8 -31 8 -108s-4 -95 -8 -108
c-14 -45 -50 -71 -102 -71s-88 26 -102 71zM502 68c11 -34 37 -50 74 -50s63 16 74 50c5 15 8 27 8 103s-3 88 -8 103c-11 34 -37 50 -74 50s-63 -16 -74 -50c-5 -15 -8 -27 -8 -103s3 -88 8 -103z" />
    <glyph glyph-name="ampersand" unicode="&#x26;" horiz-adv-x="606" 
d="M83 157c0 82 56 150 145 223c-79 102 -100 138 -100 182c0 75 56 128 134 128s134 -53 134 -128c0 -57 -25 -103 -128 -187l172 -227l73 94c4 5 9 6 14 2l6 -4c6 -4 6 -9 2 -14l-78 -101l57 -75c13 -17 22 -22 37 -22h16c6 0 10 -4 10 -10v-8c0 -6 -4 -10 -10 -10h-17
c-29 0 -42 8 -61 33l-51 67c-62 -74 -118 -110 -190 -110c-101 0 -165 67 -165 167zM251 398c102 84 115 120 115 164c0 59 -43 100 -104 100s-104 -42 -104 -100c0 -36 18 -63 93 -164zM113 157c0 -83 50 -139 135 -139c66 0 113 34 173 105l-176 234
c-81 -66 -132 -125 -132 -200z" />
    <glyph glyph-name="quotesingle" unicode="'" horiz-adv-x="190" 
d="M90 536c-6 0 -10 4 -10 10v124c0 6 4 10 10 10h10c6 0 10 -4 10 -10v-124c0 -6 -4 -10 -10 -10h-10z" />
    <glyph glyph-name="parenleft" unicode="(" horiz-adv-x="269" 
d="M188 -74c-65 120 -103 265 -103 402s38 282 103 402c3 6 7 10 13 10h9c6 0 10 -4 7 -10c-63 -120 -102 -265 -102 -402s39 -282 102 -402c3 -6 -1 -10 -7 -10h-9c-6 0 -10 4 -13 10z" />
    <glyph glyph-name="parenright" unicode=")" horiz-adv-x="269" 
d="M52 -74c63 120 102 265 102 402s-39 282 -102 402c-3 6 1 10 7 10h9c6 0 10 -4 13 -10c65 -120 103 -265 103 -402s-38 -282 -103 -402c-3 -6 -7 -10 -13 -10h-9c-6 0 -10 4 -7 10z" />
    <glyph glyph-name="asterisk" unicode="*" horiz-adv-x="356" 
d="M175 406c-6 0 -10 4 -10 10v104l-90 -51c-6 -4 -11 -2 -14 3l-3 5c-3 5 -2 11 4 14l89 52l-89 52c-6 3 -7 9 -4 14l3 5c3 5 8 7 14 3l90 -52v105c0 6 4 10 10 10h6c6 0 10 -4 10 -10v-105l90 52c6 4 11 2 14 -3l3 -5c3 -5 2 -11 -4 -14l-90 -52l90 -52c6 -3 7 -9 4 -14
l-3 -5c-3 -5 -8 -7 -14 -3l-90 51v-104c0 -6 -4 -10 -10 -10h-6z" />
    <glyph glyph-name="plus" unicode="+" 
d="M246 94v162c0 4 -2 6 -6 6h-161c-6 0 -10 4 -10 10v8c0 6 4 10 10 10h161c4 0 6 2 6 6v162c0 6 4 10 10 10h10c6 0 10 -4 10 -10v-162c0 -4 2 -6 6 -6h161c6 0 10 -4 10 -10v-8c0 -6 -4 -10 -10 -10h-161c-4 0 -6 -2 -6 -6v-162c0 -6 -4 -10 -10 -10h-10
c-6 0 -10 4 -10 10z" />
    <glyph glyph-name="comma" unicode="," horiz-adv-x="198" 
d="M78 60c0 6 4 10 10 10h22c6 0 10 -4 10 -10v-58c0 -10 -1 -14 -4 -23l-21 -73c-2 -6 -5 -8 -10 -8s-7 3 -7 8v154z" />
    <glyph glyph-name="hyphen" unicode="-" horiz-adv-x="368" 
d="M60 253c-6 0 -10 4 -10 10v8c0 6 4 10 10 10h248c6 0 10 -4 10 -10v-8c0 -6 -4 -10 -10 -10h-248z" />
    <glyph glyph-name="period" unicode="." horiz-adv-x="204" 
d="M78 10v50c0 6 4 10 10 10h28c6 0 10 -4 10 -10v-50c0 -6 -4 -10 -10 -10h-28c-6 0 -10 4 -10 10z" />
    <glyph glyph-name="slash" unicode="/" horiz-adv-x="399" 
d="M74 0l221 680c2 6 6 10 13 10h10c6 0 9 -4 7 -10l-221 -680c-2 -6 -6 -10 -13 -10h-10c-6 0 -9 4 -7 10z" />
    <glyph glyph-name="zero" unicode="0" 
d="M95 107c-7 22 -17 68 -17 233s10 211 17 233c25 77 82 117 166 117s141 -40 166 -117c7 -22 17 -68 17 -233s-10 -211 -17 -233c-25 -77 -82 -117 -166 -117s-141 40 -166 117zM124 114c21 -63 66 -96 137 -96s116 33 137 96c7 22 16 66 16 226s-9 204 -16 226
c-21 63 -66 96 -137 96s-116 -33 -137 -96c-7 -22 -16 -66 -16 -226s9 -204 16 -226z" />
    <glyph glyph-name="one" unicode="1" 
d="M272 10v629h-2l-131 -95c-5 -4 -11 -2 -11 6v12c0 7 2 11 7 15l133 97c5 4 8 6 14 6h10c6 0 10 -4 10 -10v-660c0 -6 -4 -10 -10 -10h-10c-6 0 -10 4 -10 10z" />
    <glyph glyph-name="two" unicode="2" 
d="M87 10v2c0 5 1 8 4 12l256 344c37 50 59 98 59 148c0 86 -59 146 -145 146c-84 0 -133 -53 -146 -134c-1 -5 -6 -9 -13 -7l-7 2c-6 2 -9 5 -8 11c12 84 73 156 174 156c103 0 175 -71 175 -174c0 -59 -26 -110 -70 -170l-236 -317v-1h296c6 0 10 -4 10 -10v-8
c0 -6 -4 -10 -10 -10h-329c-6 0 -10 4 -10 10z" />
    <glyph glyph-name="three" unicode="3" 
d="M75 128c-2 6 0 10 7 12l9 2c7 2 11 -1 13 -7c14 -52 55 -117 156 -117c95 0 154 68 154 162c0 91 -61 162 -155 162h-31c-6 0 -10 4 -10 10v8c0 6 4 10 10 10h31c84 0 142 61 142 147c0 85 -55 145 -145 145s-132 -57 -143 -112c-1 -6 -6 -9 -11 -8l-10 2
c-6 1 -9 6 -8 12c11 64 67 134 172 134s175 -73 175 -173c0 -92 -57 -139 -98 -159v-2c48 -20 111 -74 111 -176c0 -110 -73 -190 -184 -190c-117 0 -170 78 -185 138z" />
    <glyph glyph-name="four" unicode="4" 
d="M71 152c-6 0 -10 4 -10 10v6c0 4 1 7 2 10l222 494c3 6 6 8 13 8h12c7 0 8 -4 6 -9l-219 -490v-1h233c4 0 6 2 6 6v194c0 6 4 10 10 10h10c6 0 10 -4 10 -10v-194c0 -4 2 -6 6 -6h85c6 0 10 -4 10 -10v-8c0 -6 -4 -10 -10 -10h-85c-4 0 -6 -2 -6 -6v-136
c0 -6 -4 -10 -10 -10h-10c-6 0 -10 4 -10 10v136c0 4 -2 6 -6 6h-259z" />
    <glyph glyph-name="five" unicode="5" 
d="M101 136c-1 6 1 11 7 12l9 2c7 2 12 -2 13 -8c9 -71 59 -124 147 -124c62 0 111 30 131 89c8 24 12 60 12 110c0 52 -6 87 -14 112c-18 57 -62 87 -126 87c-73 0 -122 -46 -136 -99c-2 -6 -4 -10 -10 -10h-10c-6 0 -10 4 -10 10v353c0 6 4 10 10 10h303c6 0 10 -4 10 -10
v-8c0 -6 -4 -10 -10 -10h-277c-4 0 -6 -2 -6 -6v-276h1c18 37 67 74 135 74c76 0 131 -35 154 -105c9 -28 16 -67 16 -122c0 -54 -5 -90 -14 -117c-23 -71 -81 -110 -159 -110c-105 0 -166 64 -176 146z" />
    <glyph glyph-name="six" unicode="6" 
d="M70 193c0 54 20 105 44 152l165 327c3 6 6 8 13 8h12c7 0 8 -5 6 -9l-154 -306l2 -1c20 19 57 32 103 32c113 0 191 -82 191 -203s-78 -203 -191 -203s-191 82 -191 203zM100 193c0 -103 66 -175 161 -175s161 72 161 175s-66 175 -161 175s-161 -72 -161 -175z" />
    <glyph glyph-name="seven" unicode="7" 
d="M165 11l252 638v3h-281c-4 0 -6 -2 -6 -6v-101c0 -6 -4 -10 -10 -10h-10c-6 0 -10 4 -10 10v125c0 6 4 10 10 10h329c6 0 10 -4 10 -10v-14c0 -4 -1 -7 -2 -10l-252 -637c-3 -7 -5 -9 -13 -9h-12c-6 0 -8 4 -5 11z" />
    <glyph glyph-name="eight" unicode="8" 
d="M69 181c0 86 47 150 118 177v2c-61 27 -99 83 -99 157c0 101 72 173 173 173s173 -72 173 -173c0 -74 -38 -130 -99 -157v-2c71 -27 118 -91 118 -177c0 -112 -80 -191 -192 -191s-192 79 -192 191zM261 372c87 0 143 62 143 145c0 85 -58 145 -143 145
s-143 -60 -143 -145c0 -83 56 -145 143 -145zM99 181c0 -93 67 -163 162 -163s162 70 162 163c0 92 -65 163 -162 163s-162 -71 -162 -163z" />
    <glyph glyph-name="nine" unicode="9" 
d="M212 9l154 306l-2 1c-20 -19 -57 -32 -103 -32c-113 0 -191 82 -191 203s78 203 191 203s191 -82 191 -203c0 -54 -20 -105 -44 -152l-165 -327c-3 -6 -6 -8 -13 -8h-12c-7 0 -8 5 -6 9zM261 312c95 0 161 72 161 175s-66 175 -161 175s-161 -72 -161 -175
s66 -175 161 -175z" />
    <glyph glyph-name="colon" unicode=":" horiz-adv-x="212" 
d="M92 404c-6 0 -10 4 -10 10v50c0 6 4 10 10 10h28c6 0 10 -4 10 -10v-50c0 -6 -4 -10 -10 -10h-28zM82 10v50c0 6 4 10 10 10h28c6 0 10 -4 10 -10v-50c0 -6 -4 -10 -10 -10h-28c-6 0 -10 4 -10 10z" />
    <glyph glyph-name="semicolon" unicode=";" horiz-adv-x="212" 
d="M92 404c-6 0 -10 4 -10 10v50c0 6 4 10 10 10h28c6 0 10 -4 10 -10v-50c0 -6 -4 -10 -10 -10h-28zM85 60c0 6 4 10 10 10h22c6 0 10 -4 10 -10v-58c0 -10 -1 -14 -4 -23l-21 -73c-2 -6 -5 -8 -10 -8s-7 3 -7 8v154z" />
    <glyph glyph-name="less" unicode="&#x3c;" 
d="M79 261c-8 3 -10 5 -10 12v6c0 7 2 9 10 12l364 147c6 2 10 -1 10 -7v-8c0 -7 -3 -10 -10 -13l-329 -133v-2l329 -133c7 -3 10 -6 10 -13v-8c0 -6 -4 -9 -10 -7z" />
    <glyph glyph-name="equal" unicode="=" 
d="M79 358c-6 0 -10 4 -10 10v8c0 6 4 10 10 10h364c6 0 10 -4 10 -10v-8c0 -6 -4 -10 -10 -10h-364zM79 166c-6 0 -10 4 -10 10v8c0 6 4 10 10 10h364c6 0 10 -4 10 -10v-8c0 -6 -4 -10 -10 -10h-364z" />
    <glyph glyph-name="greater" unicode="&#x3e;" 
d="M79 114c-6 -2 -10 1 -10 7v8c0 7 3 10 10 13l329 133v2l-329 133c-7 3 -10 6 -10 13v8c0 6 4 9 10 7l364 -147c8 -3 10 -5 10 -12v-6c0 -7 -2 -9 -10 -12z" />
    <glyph glyph-name="question" unicode="?" horiz-adv-x="439" 
d="M203 176v38c0 42 7 69 35 104l45 56c61 75 72 106 72 155c0 87 -60 133 -135 133c-74 0 -125 -46 -140 -128c-1 -6 -5 -9 -12 -8l-9 2c-6 1 -9 5 -8 11c13 86 75 151 169 151c100 0 165 -68 165 -161c0 -59 -19 -96 -69 -158l-45 -56c-33 -41 -38 -59 -38 -101v-38
c0 -6 -4 -10 -10 -10h-10c-6 0 -10 4 -10 10zM194 10v50c0 6 4 10 10 10h28c6 0 10 -4 10 -10v-50c0 -6 -4 -10 -10 -10h-28c-6 0 -10 4 -10 10z" />
    <glyph glyph-name="at" unicode="@" horiz-adv-x="881" 
d="M51 267c0 233 162 393 392 393s392 -160 392 -393c0 -151 -65 -210 -148 -210c-55 0 -100 33 -116 85h-1c-25 -58 -77 -85 -140 -85c-68 0 -117 32 -139 100c-8 26 -13 56 -13 104s5 78 13 104c22 68 71 100 139 100c69 0 107 -27 128 -62h2v43c0 6 4 10 10 10h10
c6 0 10 -4 10 -10v-244c0 -80 49 -117 99 -117c61 0 116 44 116 182c0 218 -147 365 -362 365s-362 -147 -362 -365c0 -220 147 -367 362 -367c102 0 170 21 220 49c5 3 10 1 13 -4l4 -7c3 -5 1 -10 -4 -13c-56 -32 -128 -53 -233 -53c-230 0 -392 160 -392 395zM320 164
c18 -55 56 -79 114 -79s96 24 114 79c8 24 12 54 12 97s-4 73 -12 97c-18 55 -56 79 -114 79s-96 -24 -114 -79c-8 -24 -12 -54 -12 -97s4 -73 12 -97z" />
    <glyph glyph-name="A" unicode="A" horiz-adv-x="587" 
d="M37 10l240 660c2 6 5 10 11 10h13c6 0 9 -4 11 -10l238 -660c2 -6 -1 -10 -7 -10h-14c-6 0 -10 2 -13 10l-66 185h-313l-67 -185c-3 -8 -7 -10 -13 -10h-13c-6 0 -9 4 -7 10zM147 224h292l-144 403h-2z" />
    <glyph glyph-name="B" unicode="B" horiz-adv-x="599" 
d="M102 10v660c0 6 4 10 10 10h218c122 0 191 -67 191 -174c0 -85 -45 -140 -116 -157v-2c54 -7 127 -59 127 -167s-71 -180 -198 -180h-222c-6 0 -10 4 -10 10zM139 361h191c105 0 160 60 160 145c0 90 -55 145 -160 145h-191c-4 0 -6 -2 -6 -6v-278c0 -4 2 -6 6 -6z
M133 35c0 -4 2 -6 6 -6h195c111 0 167 59 167 151s-56 152 -167 152h-195c-4 0 -6 -2 -6 -6v-291z" />
    <glyph glyph-name="C" unicode="C" horiz-adv-x="548" 
d="M88 135c-10 30 -18 81 -18 205s8 175 18 205c32 98 102 145 205 145c86 0 155 -37 194 -116c3 -5 3 -10 -2 -13l-10 -5c-5 -3 -10 -1 -13 4c-35 64 -88 101 -169 101c-91 0 -147 -40 -175 -124c-9 -27 -17 -76 -17 -197s8 -170 17 -197c28 -84 84 -124 175 -124
c81 0 134 37 169 101c3 5 8 7 13 4l10 -5c5 -3 5 -8 2 -13c-39 -79 -108 -116 -194 -116c-103 0 -173 47 -205 145z" />
    <glyph glyph-name="D" unicode="D" horiz-adv-x="622" 
d="M102 10v660c0 6 4 10 10 10h200c111 0 184 -42 213 -132c14 -43 19 -81 19 -208s-5 -165 -19 -208c-29 -90 -102 -132 -213 -132h-200c-6 0 -10 4 -10 10zM133 35c0 -4 2 -6 6 -6h173c94 0 158 33 183 110c13 40 18 78 18 201s-5 161 -18 201c-25 77 -89 110 -183 110
h-173c-4 0 -6 -2 -6 -6v-610z" />
    <glyph glyph-name="E" unicode="E" horiz-adv-x="550" 
d="M102 10v660c0 6 4 10 10 10h374c6 0 10 -4 10 -10v-9c0 -6 -4 -10 -10 -10h-347c-4 0 -6 -2 -6 -6v-279c0 -4 2 -6 6 -6h300c6 0 10 -4 10 -10v-9c0 -6 -4 -10 -10 -10h-300c-4 0 -6 -2 -6 -6v-290c0 -4 2 -6 6 -6h347c6 0 10 -4 10 -10v-9c0 -6 -4 -10 -10 -10h-374
c-6 0 -10 4 -10 10z" />
    <glyph glyph-name="F" unicode="F" horiz-adv-x="546" 
d="M102 10v660c0 6 4 10 10 10h374c6 0 10 -4 10 -10v-9c0 -6 -4 -10 -10 -10h-347c-4 0 -6 -2 -6 -6v-286c0 -4 2 -6 6 -6h300c6 0 10 -4 10 -10v-9c0 -6 -4 -10 -10 -10h-300c-4 0 -6 -2 -6 -6v-308c0 -6 -4 -10 -10 -10h-11c-6 0 -10 4 -10 10z" />
    <glyph glyph-name="G" unicode="G" horiz-adv-x="602" 
d="M89 138c-10 30 -19 78 -19 202s9 172 19 202c32 98 106 148 212 148c104 0 170 -50 202 -115c3 -6 4 -12 -2 -15l-9 -5c-4 -2 -10 -2 -13 3c-36 66 -91 103 -178 103c-91 0 -154 -43 -182 -127c-9 -27 -18 -73 -18 -194s9 -167 18 -194c28 -84 91 -127 182 -127
s154 43 182 127c9 27 18 73 18 151c0 4 -2 6 -6 6h-173c-6 0 -10 4 -10 10v9c0 6 4 10 10 10h200c6 0 10 -4 10 -10v-32c0 -74 -9 -122 -19 -152c-32 -98 -106 -148 -212 -148s-180 50 -212 148z" />
    <glyph glyph-name="H" unicode="H" horiz-adv-x="647" 
d="M102 10v660c0 6 4 10 10 10h11c6 0 10 -4 10 -10v-304c0 -4 2 -6 6 -6h369c4 0 6 2 6 6v304c0 6 4 10 10 10h11c6 0 10 -4 10 -10v-660c0 -6 -4 -10 -10 -10h-11c-6 0 -10 4 -10 10v315c0 4 -2 6 -6 6h-369c-4 0 -6 -2 -6 -6v-315c0 -6 -4 -10 -10 -10h-11
c-6 0 -10 4 -10 10z" />
    <glyph glyph-name="I" unicode="I" horiz-adv-x="235" 
d="M102 10v660c0 6 4 10 10 10h11c6 0 10 -4 10 -10v-660c0 -6 -4 -10 -10 -10h-11c-6 0 -10 4 -10 10z" />
    <glyph glyph-name="J" unicode="J" horiz-adv-x="460" 
d="M47 34c-5 3 -6 9 -3 14l8 9c4 4 10 4 15 1c27 -20 69 -39 114 -39c92 0 153 47 153 173v478c0 6 4 10 10 10h11c6 0 10 -4 10 -10v-479c0 -141 -73 -201 -184 -201c-52 0 -101 19 -134 44z" />
    <glyph glyph-name="K" unicode="K" horiz-adv-x="582" 
d="M102 10v660c0 6 4 10 10 10h11c6 0 10 -4 10 -10v-421l353 421c6 7 10 10 17 10h18c6 0 9 -5 5 -10l-217 -258l231 -402c3 -5 1 -10 -5 -10h-17c-6 0 -10 3 -14 10l-217 377l-154 -184v-193c0 -6 -4 -10 -10 -10h-11c-6 0 -10 4 -10 10z" />
    <glyph glyph-name="L" unicode="L" horiz-adv-x="524" 
d="M102 10v660c0 6 4 10 10 10h11c6 0 10 -4 10 -10v-635c0 -4 2 -6 6 -6h347c6 0 10 -4 10 -10v-9c0 -6 -4 -10 -10 -10h-374c-6 0 -10 4 -10 10z" />
    <glyph glyph-name="M" unicode="M" horiz-adv-x="754" 
d="M102 10v660c0 6 4 10 10 10h14c5 0 10 -3 13 -10l237 -522h3l236 522c3 7 8 10 13 10h14c6 0 10 -4 10 -10v-660c0 -6 -4 -10 -10 -10h-11c-6 0 -10 4 -10 10v590h-3l-222 -486c-4 -8 -7 -10 -17 -10h-4c-10 0 -13 2 -17 10l-222 486h-3v-590c0 -6 -4 -10 -10 -10h-11
c-6 0 -10 4 -10 10z" />
    <glyph glyph-name="N" unicode="N" horiz-adv-x="648" 
d="M102 10v660c0 6 4 10 10 10h9c6 0 12 -1 17 -10l374 -603h3v603c0 6 4 10 10 10h11c6 0 10 -4 10 -10v-660c0 -6 -4 -10 -10 -10h-9c-6 0 -12 1 -17 10l-374 603h-3v-603c0 -6 -4 -10 -10 -10h-11c-6 0 -10 4 -10 10z" />
    <glyph glyph-name="O" unicode="O" horiz-adv-x="602" 
d="M301 -10c-107 0 -179 50 -211 148c-10 30 -20 78 -20 202s10 172 20 202c32 98 104 148 211 148s179 -50 211 -148c10 -30 20 -78 20 -202s-10 -172 -20 -202c-32 -98 -104 -148 -211 -148zM301 19c92 0 153 43 181 127c9 27 19 73 19 194s-10 167 -19 194
c-28 84 -89 127 -181 127s-153 -43 -181 -127c-9 -27 -19 -73 -19 -194s10 -167 19 -194c28 -84 89 -127 181 -127z" />
    <glyph glyph-name="P" unicode="P" horiz-adv-x="579" 
d="M123 0h-11c-6 0 -10 4 -10 10v660c0 6 4 10 10 10h215c129 0 203 -69 203 -184s-74 -184 -203 -184h-188c-4 0 -6 -2 -6 -6v-296c0 -6 -4 -10 -10 -10zM327 341c113 0 172 56 172 155s-59 155 -172 155h-188c-4 0 -6 -2 -6 -6v-298c0 -4 2 -6 6 -6h188z" />
    <glyph glyph-name="Q" unicode="Q" horiz-adv-x="602" 
d="M542 -23l-7 -6c-5 -4 -10 -4 -14 1l-65 73c-38 -37 -90 -55 -155 -55c-107 0 -179 50 -211 148c-10 30 -20 78 -20 202s10 172 20 202c32 98 104 148 211 148s179 -50 211 -148c10 -30 20 -78 20 -202s-10 -172 -20 -202c-9 -28 -22 -52 -37 -72l67 -75c4 -5 4 -10 0 -14
zM301 19c57 0 102 16 134 49l-84 94c-4 5 -4 10 0 14l7 6c5 4 10 3 14 -1l82 -92c11 16 21 35 28 57c9 27 19 73 19 194s-10 167 -19 194c-28 84 -89 127 -181 127s-153 -43 -181 -127c-9 -27 -19 -73 -19 -194s10 -167 19 -194c28 -84 89 -127 181 -127z" />
    <glyph glyph-name="R" unicode="R" horiz-adv-x="613" 
d="M530 0h-17c-6 0 -9 2 -12 9l-149 310c-9 -1 -18 -1 -27 -1h-186c-4 0 -6 -2 -6 -6v-302c0 -6 -4 -10 -10 -10h-11c-6 0 -10 4 -10 10v660c0 6 4 10 10 10h213c129 0 203 -66 203 -181c0 -96 -52 -158 -145 -176l152 -313c3 -5 1 -10 -5 -10zM325 347
c113 0 172 53 172 152s-59 152 -172 152h-186c-4 0 -6 -2 -6 -6v-292c0 -4 2 -6 6 -6h186z" />
    <glyph glyph-name="S" unicode="S" horiz-adv-x="600" 
d="M291 -10c-85 0 -171 37 -214 74c-4 4 -5 10 -1 14l8 9c4 5 9 5 14 1c46 -36 119 -69 199 -69c121 0 195 62 195 159c0 76 -39 132 -177 150l-30 4c-135 18 -192 81 -192 173c0 116 81 185 206 185c71 0 139 -22 183 -52c5 -3 6 -9 2 -14l-7 -9c-4 -5 -9 -5 -14 -2
c-54 32 -108 48 -166 48c-110 0 -173 -62 -173 -153c0 -80 47 -132 178 -149l30 -4c135 -18 191 -79 191 -174c0 -113 -79 -191 -232 -191z" />
    <glyph glyph-name="T" unicode="T" horiz-adv-x="513" 
d="M262 0h-11c-6 0 -10 4 -10 10v635c0 4 -2 6 -6 6h-203c-6 0 -10 4 -10 10v9c0 6 4 10 10 10h449c6 0 10 -4 10 -10v-9c0 -6 -4 -10 -10 -10h-203c-4 0 -6 -2 -6 -6v-635c0 -6 -4 -10 -10 -10z" />
    <glyph glyph-name="U" unicode="U" horiz-adv-x="632" 
d="M316 -10c-143 0 -222 78 -222 243v437c0 6 4 10 10 10h11c6 0 10 -4 10 -10v-438c0 -143 68 -213 191 -213c124 0 191 70 191 213v438c0 6 4 10 10 10h11c6 0 10 -4 10 -10v-437c0 -163 -79 -243 -222 -243z" />
    <glyph glyph-name="V" unicode="V" horiz-adv-x="557" 
d="M286 0h-13c-6 0 -9 4 -11 10l-230 654c-4 11 0 16 7 16h9c9 0 12 -2 15 -10l217 -622h1l212 622c3 8 6 10 15 10h10c7 0 11 -5 7 -16l-228 -654c-2 -6 -5 -10 -11 -10z" />
    <glyph glyph-name="W" unicode="W" horiz-adv-x="813" 
d="M604 0h-14c-6 0 -9 3 -11 10l-171 604h-2l-172 -604c-2 -7 -5 -10 -11 -10h-14c-6 0 -10 4 -11 10l-159 659c-2 7 1 11 8 11h11c9 0 12 -2 14 -10l145 -611h2l169 611c2 7 5 10 12 10h13c7 0 10 -3 12 -10l171 -611h2l143 611c2 8 5 10 14 10h11c7 0 10 -4 8 -11
l-159 -659c-1 -6 -5 -10 -11 -10z" />
    <glyph glyph-name="X" unicode="X" horiz-adv-x="533" 
d="M488 0h-18c-6 0 -9 3 -12 8l-191 322h-1l-192 -322c-3 -5 -6 -8 -12 -8h-17c-6 0 -8 5 -5 10l209 349l-186 311c-3 5 -1 10 5 10h18c6 0 9 -3 12 -8l168 -284h1l169 284c3 5 6 8 12 8h17c6 0 8 -5 5 -10l-186 -311l209 -349c3 -5 1 -10 -5 -10z" />
    <glyph glyph-name="Y" unicode="Y" horiz-adv-x="506" 
d="M259 0h-11c-6 0 -10 4 -10 10v269l-207 389c-3 6 0 12 7 12h12c8 0 11 -2 15 -10l189 -352h2l185 352c4 8 7 10 15 10h12c7 0 10 -6 7 -12l-206 -389v-269c0 -6 -4 -10 -10 -10z" />
    <glyph glyph-name="Z" unicode="Z" horiz-adv-x="543" 
d="M475 0h-408c-6 0 -10 4 -10 10v9c0 5 2 9 6 15l383 616v1h-365c-6 0 -10 4 -10 10v9c0 6 4 10 10 10h394c6 0 10 -4 10 -10v-9c0 -5 -1 -8 -5 -14l-384 -617v-1h379c6 0 10 -4 10 -10v-9c0 -6 -4 -10 -10 -10z" />
    <glyph glyph-name="bracketleft" unicode="[" horiz-adv-x="284" 
d="M224 -84h-98c-6 0 -10 4 -10 10v804c0 6 4 10 10 10h98c6 0 10 -4 10 -10v-8c0 -6 -4 -10 -10 -10h-72c-4 0 -6 -2 -6 -6v-756c0 -4 2 -6 6 -6h72c6 0 10 -4 10 -10v-8c0 -6 -4 -10 -10 -10z" />
    <glyph glyph-name="backslash" unicode="\" horiz-adv-x="399" 
d="M318 -10h-10c-7 0 -11 4 -13 10l-221 680c-2 6 1 10 7 10h10c7 0 11 -4 13 -10l221 -680c2 -6 -1 -10 -7 -10z" />
    <glyph glyph-name="bracketright" unicode="]" horiz-adv-x="284" 
d="M158 -84h-98c-6 0 -10 4 -10 10v8c0 6 4 10 10 10h72c4 0 6 2 6 6v756c0 4 -2 6 -6 6h-72c-6 0 -10 4 -10 10v8c0 6 4 10 10 10h98c6 0 10 -4 10 -10v-804c0 -6 -4 -10 -10 -10z" />
    <glyph glyph-name="asciicircum" unicode="^" 
d="M444 292h-9c-6 0 -10 3 -13 10l-160 342h-2l-160 -342c-3 -7 -7 -10 -13 -10h-9c-6 0 -10 4 -7 10l172 368c3 6 7 10 14 10h8c7 0 11 -4 14 -10l172 -368c3 -6 -1 -10 -7 -10z" />
    <glyph glyph-name="underscore" unicode="_" horiz-adv-x="445" 
d="M445 -116h-445v28h445v-28z" />
    <glyph glyph-name="grave" unicode="`" horiz-adv-x="420" 
d="M262 560h-7c-8 0 -11 2 -17 10l-85 120c-4 5 -1 10 5 10h15c8 0 12 -3 16 -10l78 -120c4 -6 1 -10 -5 -10z" />
    <glyph glyph-name="a" unicode="a" horiz-adv-x="509" 
d="M405 0h-10c-6 0 -10 4 -10 10v57h-1c-17 -43 -70 -77 -153 -77c-99 0 -159 49 -159 138c0 90 62 136 176 136h131c4 0 6 2 6 6v61c0 90 -28 125 -132 125c-64 0 -99 -14 -124 -38c-5 -5 -10 -5 -14 -2l-7 6c-6 5 -5 10 -1 14c29 30 77 48 146 48c114 0 162 -36 162 -153
v-321c0 -6 -4 -10 -10 -10zM235 18c88 0 150 51 150 122v90c0 4 -2 6 -6 6h-129c-104 0 -148 -36 -148 -108c0 -70 48 -110 133 -110z" />
    <glyph glyph-name="b" unicode="b" horiz-adv-x="525" 
d="M282 -10c-85 0 -128 38 -151 89h-1v-69c0 -6 -4 -10 -10 -10h-10c-6 0 -10 4 -10 10v660c0 6 4 10 10 10h10c6 0 10 -4 10 -10v-275h1c23 51 66 89 151 89s137 -38 161 -113c13 -40 17 -86 17 -134s-4 -94 -17 -134c-24 -75 -76 -113 -161 -113zM280 18
c69 0 115 34 135 95c11 34 15 82 15 124s-4 90 -15 124c-20 61 -66 95 -135 95c-66 0 -116 -31 -137 -95c-9 -28 -13 -68 -13 -124s4 -96 13 -124c21 -64 71 -95 137 -95z" />
    <glyph glyph-name="c" unicode="c" horiz-adv-x="468" 
d="M249 -10c-83 0 -144 45 -168 120c-9 29 -16 68 -16 127s7 98 16 127c24 75 85 120 168 120c75 0 128 -35 157 -96c3 -6 1 -11 -5 -14l-7 -3c-5 -2 -10 -1 -13 4c-28 56 -69 81 -132 81c-69 0 -118 -36 -139 -103c-9 -27 -15 -62 -15 -116s6 -89 15 -116
c21 -67 70 -103 139 -103c63 0 104 25 132 81c3 5 8 6 13 4l7 -3c6 -3 8 -8 5 -14c-29 -61 -82 -96 -157 -96z" />
    <glyph glyph-name="d" unicode="d" horiz-adv-x="525" 
d="M415 0h-10c-6 0 -10 4 -10 10v69h-1c-23 -51 -66 -89 -151 -89s-137 38 -161 113c-13 40 -17 86 -17 134s4 94 17 134c24 75 76 113 161 113s128 -38 151 -89h1v275c0 6 4 10 10 10h10c6 0 10 -4 10 -10v-660c0 -6 -4 -10 -10 -10zM245 18c66 0 116 31 137 95
c9 28 13 68 13 124s-4 96 -13 124c-21 64 -71 95 -137 95c-69 0 -115 -34 -135 -95c-11 -34 -15 -82 -15 -124s4 -90 15 -124c20 -61 66 -95 135 -95z" />
    <glyph glyph-name="e" unicode="e" horiz-adv-x="494" 
d="M253 -10c-88 0 -148 41 -174 122c-9 28 -14 60 -14 126c0 65 5 99 14 126c26 79 87 120 168 120s142 -40 168 -120c9 -27 14 -58 14 -118c0 -6 -4 -10 -11 -10h-317c-4 0 -6 -3 -6 -7c0 -53 4 -81 12 -107c24 -72 76 -104 146 -104c66 0 114 29 143 69c4 5 9 6 14 2l6 -5
c5 -4 5 -9 1 -14c-33 -47 -89 -80 -164 -80zM101 264h292c4 0 6 2 6 6c0 34 -4 60 -11 83c-22 69 -72 103 -141 103s-119 -34 -141 -103c-7 -23 -11 -49 -11 -83c0 -4 2 -6 6 -6z" />
    <glyph glyph-name="f" unicode="f" horiz-adv-x="299" 
d="M136 0h-10c-6 0 -10 4 -10 10v430c0 4 -2 6 -6 6h-58c-6 0 -10 4 -10 10v8c0 6 4 10 10 10h58c4 0 6 2 6 6v61c0 116 29 139 122 139h21c6 0 10 -4 10 -10v-8c0 -6 -4 -10 -10 -10h-17c-82 0 -96 -16 -96 -101v-71c0 -4 2 -6 6 -6h107c6 0 10 -4 10 -10v-8
c0 -6 -4 -10 -10 -10h-107c-4 0 -6 -2 -6 -6v-430c0 -6 -4 -10 -10 -10z" />
    <glyph glyph-name="g" unicode="g" horiz-adv-x="517" 
d="M239 -190c-69 0 -127 31 -150 68c-3 5 -3 11 2 14l8 5c5 3 10 2 14 -3c27 -35 69 -56 126 -56c90 0 148 44 148 161v80h-1c-23 -53 -65 -89 -148 -89c-80 0 -134 42 -157 113c-11 33 -16 75 -16 134s5 101 16 134c23 71 77 113 157 113c83 0 125 -36 148 -89h1v69
c0 6 4 10 10 10h10c6 0 10 -4 10 -10v-465c0 -131 -71 -189 -178 -189zM241 18c59 0 110 25 133 95c10 29 13 65 13 124s-3 95 -13 124c-23 70 -74 95 -133 95c-65 0 -110 -32 -131 -94c-10 -30 -15 -70 -15 -125s5 -95 15 -125c21 -62 66 -94 131 -94z" />
    <glyph glyph-name="h" unicode="h" horiz-adv-x="538" 
d="M434 0h-10c-6 0 -10 4 -10 10v284c0 112 -46 162 -139 162c-79 0 -145 -54 -145 -147v-299c0 -6 -4 -10 -10 -10h-10c-6 0 -10 4 -10 10v660c0 6 4 10 10 10h10c6 0 10 -4 10 -10v-273h1c24 55 78 87 146 87c107 0 167 -61 167 -183v-291c0 -6 -4 -10 -10 -10z" />
    <glyph glyph-name="i" unicode="i" horiz-adv-x="230" 
d="M127 620h-24c-6 0 -10 4 -10 10v40c0 6 4 10 10 10h24c6 0 10 -4 10 -10v-40c0 -6 -4 -10 -10 -10zM120 0h-10c-6 0 -10 4 -10 10v454c0 6 4 10 10 10h10c6 0 10 -4 10 -10v-454c0 -6 -4 -10 -10 -10z" />
    <glyph glyph-name="j" unicode="j" horiz-adv-x="230" 
d="M127 620h-24c-6 0 -10 4 -10 10v40c0 6 4 10 10 10h24c6 0 10 -4 10 -10v-40c0 -6 -4 -10 -10 -10zM23 -180h-4c-6 0 -10 4 -10 10v8c0 6 4 10 10 10h4c60 0 77 14 77 81v535c0 6 4 10 10 10h10c6 0 10 -4 10 -10v-535c0 -84 -26 -109 -107 -109z" />
    <glyph glyph-name="k" unicode="k" horiz-adv-x="490" 
d="M440 0h-13c-7 0 -10 2 -15 10l-165 269l-117 -140v-129c0 -6 -4 -10 -10 -10h-10c-6 0 -10 4 -10 10v660c0 6 4 10 10 10h10c6 0 10 -4 10 -10v-488l237 283c6 7 9 9 16 9h15c6 0 9 -5 5 -10l-136 -162l179 -292c3 -5 0 -10 -6 -10z" />
    <glyph glyph-name="l" unicode="l" horiz-adv-x="249" 
d="M199 -2h-15c-62 0 -85 28 -85 99v573c0 6 4 10 10 10h10c6 0 10 -4 10 -10v-573c0 -54 15 -71 55 -71h15c6 0 10 -4 10 -10v-8c0 -6 -4 -10 -10 -10z" />
    <glyph glyph-name="m" unicode="m" horiz-adv-x="852" 
d="M748 0h-10c-6 0 -10 4 -10 10v284c0 112 -46 162 -139 162c-79 0 -145 -54 -145 -147v-299c0 -6 -4 -10 -10 -10h-10c-6 0 -10 4 -10 10v284c0 112 -46 162 -139 162c-79 0 -145 -54 -145 -147v-299c0 -6 -4 -10 -10 -10h-10c-6 0 -10 4 -10 10v454c0 6 4 10 10 10h10
c6 0 10 -4 10 -10v-67h1c24 55 78 87 146 87c81 0 134 -35 156 -102h1c24 63 75 102 157 102c107 0 167 -61 167 -183v-291c0 -6 -4 -10 -10 -10z" />
    <glyph glyph-name="n" unicode="n" horiz-adv-x="538" 
d="M434 0h-10c-6 0 -10 4 -10 10v284c0 112 -46 162 -139 162c-79 0 -145 -54 -145 -147v-299c0 -6 -4 -10 -10 -10h-10c-6 0 -10 4 -10 10v454c0 6 4 10 10 10h10c6 0 10 -4 10 -10v-67h1c24 55 78 87 146 87c107 0 167 -61 167 -183v-291c0 -6 -4 -10 -10 -10z" />
    <glyph glyph-name="o" unicode="o" horiz-adv-x="502" 
d="M251 -10c-84 0 -145 44 -170 120c-10 31 -16 67 -16 127s6 96 16 127c25 76 86 120 170 120s145 -44 170 -120c10 -31 16 -67 16 -127s-6 -96 -16 -127c-25 -76 -86 -120 -170 -120zM251 18c69 0 121 37 142 102c9 28 14 61 14 117s-5 89 -14 117
c-21 65 -73 102 -142 102s-121 -37 -142 -102c-9 -28 -14 -61 -14 -117s5 -89 14 -117c21 -65 73 -102 142 -102z" />
    <glyph glyph-name="p" unicode="p" horiz-adv-x="525" 
d="M120 -180h-10c-6 0 -10 4 -10 10v634c0 6 4 10 10 10h10c6 0 10 -4 10 -10v-69h1c23 51 66 89 151 89s137 -38 161 -113c13 -40 17 -86 17 -134s-4 -94 -17 -134c-24 -75 -76 -113 -161 -113s-128 38 -151 89h-1v-249c0 -6 -4 -10 -10 -10zM280 18c69 0 115 34 135 95
c11 34 15 82 15 124s-4 90 -15 124c-20 61 -66 95 -135 95c-66 0 -116 -31 -137 -95c-9 -28 -13 -68 -13 -124s4 -96 13 -124c21 -64 71 -95 137 -95z" />
    <glyph glyph-name="q" unicode="q" horiz-adv-x="525" 
d="M415 -180h-10c-6 0 -10 4 -10 10v249h-1c-23 -51 -66 -89 -151 -89s-137 38 -161 113c-13 40 -17 86 -17 134s4 94 17 134c24 75 76 113 161 113s128 -38 151 -89h1v69c0 6 4 10 10 10h10c6 0 10 -4 10 -10v-634c0 -6 -4 -10 -10 -10zM245 18c66 0 116 31 137 95
c9 28 13 68 13 124s-4 96 -13 124c-21 64 -71 95 -137 95c-69 0 -115 -34 -135 -95c-11 -34 -15 -82 -15 -124s4 -90 15 -124c20 -61 66 -95 135 -95z" />
    <glyph glyph-name="r" unicode="r" horiz-adv-x="384" 
d="M120 0h-10c-6 0 -10 4 -10 10v454c0 6 4 10 10 10h10c6 0 10 -4 10 -10v-71h1c15 53 59 91 129 91c37 0 71 -12 94 -29c4 -3 5 -8 2 -13l-6 -8c-4 -5 -10 -5 -15 -2c-23 14 -48 24 -79 24c-93 0 -126 -87 -126 -181v-265c0 -6 -4 -10 -10 -10z" />
    <glyph glyph-name="s" unicode="s" horiz-adv-x="475" 
d="M239 -10c-82 0 -143 35 -178 63c-4 4 -4 10 0 14l7 7c4 4 10 3 14 0c38 -29 90 -56 162 -56c93 0 139 44 139 109c0 58 -23 89 -122 100l-47 5c-85 9 -134 48 -134 119c0 85 61 133 160 133c60 0 112 -19 148 -40c5 -3 6 -9 2 -14l-4 -6c-3 -5 -9 -6 -14 -3
c-32 16 -83 35 -135 35c-83 0 -127 -38 -127 -102c0 -57 34 -86 123 -95l47 -5c89 -9 133 -51 133 -122c0 -88 -61 -142 -174 -142z" />
    <glyph glyph-name="t" unicode="t" horiz-adv-x="306" 
d="M252 -2h-17c-86 0 -119 29 -119 124v318c0 4 -2 6 -6 6h-58c-6 0 -10 4 -10 10v8c0 6 4 10 10 10h58c4 0 6 2 6 6v140c0 6 4 10 10 10h10c6 0 10 -4 10 -10v-140c0 -4 2 -6 6 -6h100c6 0 10 -4 10 -10v-8c0 -6 -4 -10 -10 -10h-100c-4 0 -6 -2 -6 -6v-316
c0 -79 24 -98 90 -98h16c6 0 10 -4 10 -10v-8c0 -6 -4 -10 -10 -10z" />
    <glyph glyph-name="u" unicode="u" horiz-adv-x="531" 
d="M421 0h-10c-6 0 -10 4 -10 10v67h-1c-23 -55 -78 -87 -144 -87c-107 0 -165 61 -165 183v291c0 6 4 10 10 10h10c6 0 10 -4 10 -10v-284c0 -112 44 -162 137 -162c78 0 143 54 143 147v299c0 6 4 10 10 10h10c6 0 10 -4 10 -10v-454c0 -6 -4 -10 -10 -10z" />
    <glyph glyph-name="v" unicode="v" horiz-adv-x="460" 
d="M236 0h-12c-6 0 -9 4 -11 10l-174 454c-2 6 0 10 7 10h12c7 0 10 -2 13 -10l160 -416h1l157 416c3 8 6 10 13 10h12c7 0 9 -4 7 -10l-174 -454c-2 -6 -5 -10 -11 -10z" />
    <glyph glyph-name="w" unicode="w" horiz-adv-x="728" 
d="M523 0h-8c-7 0 -10 3 -12 10l-138 417h-1l-139 -417c-2 -7 -5 -10 -12 -10h-8c-7 0 -10 3 -12 10l-148 454c-2 6 0 10 7 10h10c7 0 10 -2 13 -10l135 -412h1l136 412c2 7 5 10 12 10h10c7 0 10 -3 12 -10l139 -412h1l132 412c3 8 6 10 13 10h10c7 0 9 -4 7 -10l-148 -454
c-2 -7 -5 -10 -12 -10z" />
    <glyph glyph-name="x" unicode="x" horiz-adv-x="449" 
d="M400 0h-15c-6 0 -9 1 -13 7l-147 218h-1l-148 -218c-4 -6 -7 -7 -13 -7h-14c-6 0 -8 5 -5 10l164 240l-146 214c-3 5 -1 10 5 10h14c6 0 9 -1 13 -7l130 -192h1l131 192c4 6 7 7 13 7h13c6 0 8 -5 5 -10l-146 -214l164 -240c3 -5 1 -10 -5 -10z" />
    <glyph glyph-name="y" unicode="y" horiz-adv-x="460" 
d="M95 -180h-16c-6 0 -10 4 -10 10v8c0 6 4 10 10 10h18c42 0 65 17 98 105l20 53l-176 458c-2 6 0 10 7 10h12c7 0 10 -2 13 -10l160 -416h1l157 416c3 8 6 10 13 10h12c7 0 9 -4 7 -10l-199 -519c-41 -107 -73 -125 -127 -125z" />
    <glyph glyph-name="z" unicode="z" horiz-adv-x="460" 
d="M392 0h-322c-6 0 -10 4 -10 10v8c0 5 2 9 6 15l299 412v1h-282c-6 0 -10 4 -10 10v8c0 6 4 10 10 10h309c6 0 10 -4 10 -10v-8c0 -5 -2 -9 -6 -15l-299 -412v-1h295c6 0 10 -4 10 -10v-8c0 -6 -4 -10 -10 -10z" />
    <glyph glyph-name="braceleft" unicode="{" horiz-adv-x="306" 
d="M246 -84h-23c-58 0 -82 25 -82 97v216c0 66 -22 84 -51 87c-6 1 -10 4 -10 10v8c0 6 4 9 10 10c29 3 51 21 51 87v212c0 72 24 97 82 97h23c6 0 10 -4 10 -10v-8c0 -6 -4 -10 -10 -10h-24c-35 0 -51 -17 -51 -63v-207c0 -77 -13 -98 -43 -111v-2c30 -13 43 -34 43 -111
v-211c0 -46 16 -63 51 -63h24c6 0 10 -4 10 -10v-8c0 -6 -4 -10 -10 -10z" />
    <glyph glyph-name="bar" unicode="|" horiz-adv-x="210" 
d="M110 -84h-10c-6 0 -10 4 -10 10v804c0 6 4 10 10 10h10c6 0 10 -4 10 -10v-804c0 -6 -4 -10 -10 -10z" />
    <glyph glyph-name="braceright" unicode="}" horiz-adv-x="306" 
d="M83 -84h-23c-6 0 -10 4 -10 10v8c0 6 4 10 10 10h24c35 0 51 17 51 63v211c0 77 13 98 43 111v2c-30 13 -43 34 -43 111v207c0 46 -16 63 -51 63h-24c-6 0 -10 4 -10 10v8c0 6 4 10 10 10h23c58 0 82 -25 82 -97v-212c0 -66 22 -84 51 -87c6 -1 10 -4 10 -10v-8
c0 -6 -4 -9 -10 -10c-29 -3 -51 -21 -51 -87v-216c0 -72 -24 -97 -82 -97z" />
    <glyph glyph-name="asciitilde" unicode="~" 
d="M347 224c-42 0 -69 21 -95 41c-23 17 -46 34 -78 34c-35 0 -59 -16 -86 -59c-3 -5 -8 -6 -14 -2l-5 3c-6 4 -7 7 -3 14c24 44 63 71 109 71c42 0 69 -21 95 -41c23 -17 46 -34 78 -34c35 0 59 16 86 59c3 5 8 6 14 2l5 -3c6 -4 7 -7 3 -14c-24 -44 -63 -71 -109 -71z" />
    <glyph glyph-name="uni00A0" unicode="&#xa0;" horiz-adv-x="250" 
 />
    <glyph glyph-name="Agrave" unicode="&#xc0;" horiz-adv-x="587" 
d="M37 10l240 660c2 6 5 10 11 10h13c6 0 9 -4 11 -10l238 -660c2 -6 -1 -10 -7 -10h-14c-6 0 -10 2 -13 10l-66 185h-313l-67 -185c-3 -8 -7 -10 -13 -10h-13c-6 0 -9 4 -7 10zM147 224h292l-144 403h-2zM302 765h-7c-8 0 -10 1 -18 10l-87 103c-4 5 -2 10 4 10h15
c7 0 10 -2 17 -10l80 -103c5 -6 2 -10 -4 -10z" />
    <glyph glyph-name="Aacute" unicode="&#xc1;" horiz-adv-x="587" 
d="M37 10l240 660c2 6 5 10 11 10h13c6 0 9 -4 11 -10l238 -660c2 -6 -1 -10 -7 -10h-14c-6 0 -10 2 -13 10l-66 185h-313l-67 -185c-3 -8 -7 -10 -13 -10h-13c-6 0 -9 4 -7 10zM147 224h292l-144 403h-2zM291 765h-7c-6 0 -9 4 -4 10l80 103c7 8 10 10 17 10h15
c6 0 8 -5 4 -10l-87 -103c-8 -9 -10 -10 -18 -10z" />
    <glyph glyph-name="Acircumflex" unicode="&#xc2;" horiz-adv-x="587" 
d="M37 10l240 660c2 6 5 10 11 10h13c6 0 9 -4 11 -10l238 -660c2 -6 -1 -10 -7 -10h-14c-6 0 -10 2 -13 10l-66 185h-313l-67 -185c-3 -8 -7 -10 -13 -10h-13c-6 0 -9 4 -7 10zM147 224h292l-144 403h-2zM394 755h-8c-7 0 -10 2 -16 10l-76 98h-2l-76 -98
c-6 -8 -9 -10 -16 -10h-8c-6 0 -8 5 -4 10l87 121c5 7 8 9 14 9h8c6 0 9 -2 14 -9l87 -121c4 -5 2 -10 -4 -10z" />
    <glyph glyph-name="Atilde" unicode="&#xc3;" horiz-adv-x="587" 
d="M37 10l240 660c2 6 5 10 11 10h13c6 0 9 -4 11 -10l238 -660c2 -6 -1 -10 -7 -10h-14c-6 0 -10 2 -13 10l-66 185h-313l-67 -185c-3 -8 -7 -10 -13 -10h-13c-6 0 -9 4 -7 10zM147 224h292l-144 403h-2zM344 794c-23 0 -41 11 -57 21c-14 9 -29 18 -46 18
c-20 0 -36 -13 -55 -34c-4 -4 -8 -2 -8 3v15c0 5 1 8 7 14c15 16 34 28 57 28s42 -11 57 -21s29 -18 46 -18c20 0 36 13 55 34c4 4 8 2 8 -3v-15c0 -5 -1 -8 -7 -14c-15 -16 -34 -28 -57 -28z" />
    <glyph glyph-name="Adieresis" unicode="&#xc4;" horiz-adv-x="587" 
d="M37 10l240 660c2 6 5 10 11 10h13c6 0 9 -4 11 -10l238 -660c2 -6 -1 -10 -7 -10h-14c-6 0 -10 2 -13 10l-66 185h-313l-67 -185c-3 -8 -7 -10 -13 -10h-13c-6 0 -9 4 -7 10zM147 224h292l-144 403h-2zM405 795h-24c-6 0 -10 4 -10 10v40c0 6 4 10 10 10h24
c6 0 10 -4 10 -10v-40c0 -6 -4 -10 -10 -10zM205 795h-24c-6 0 -10 4 -10 10v40c0 6 4 10 10 10h24c6 0 10 -4 10 -10v-40c0 -6 -4 -10 -10 -10z" />
    <glyph glyph-name="Amacron" unicode="&#x100;" horiz-adv-x="587" 
d="M37 10l240 660c2 6 5 10 11 10h13c6 0 9 -4 11 -10l238 -660c2 -6 -1 -10 -7 -10h-14c-6 0 -10 2 -13 10l-66 185h-313l-67 -185c-3 -8 -7 -10 -13 -10h-13c-6 0 -9 4 -7 10zM147 224h292l-144 403h-2zM409 810h-232c-6 0 -10 4 -10 10v8c0 6 4 10 10 10h232
c6 0 10 -4 10 -10v-8c0 -6 -4 -10 -10 -10z" />
    <glyph glyph-name="Abreve" unicode="&#x102;" horiz-adv-x="587" 
d="M37 10l240 660c2 6 5 10 11 10h13c6 0 9 -4 11 -10l238 -660c2 -6 -1 -10 -7 -10h-14c-6 0 -10 2 -13 10l-66 185h-313l-67 -185c-3 -8 -7 -10 -13 -10h-13c-6 0 -9 4 -7 10zM147 224h292l-144 403h-2zM293 775c-61 0 -106 38 -116 94c-1 6 3 10 9 10h7c7 0 9 -4 11 -10
c12 -43 43 -67 89 -67s78 24 90 67c2 6 4 10 11 10h6c6 0 10 -4 9 -10c-10 -56 -55 -94 -116 -94z" />
    <glyph glyph-name="Aring" unicode="&#xc5;" horiz-adv-x="587" 
d="M37 10l240 660c2 6 5 10 11 10h13c6 0 9 -4 11 -10l238 -660c2 -6 -1 -10 -7 -10h-14c-6 0 -10 2 -13 10l-66 185h-313l-67 -185c-3 -8 -7 -10 -13 -10h-13c-6 0 -9 4 -7 10zM147 224h292l-144 403h-2zM293 746c-48 0 -83 35 -83 83s35 83 83 83s83 -35 83 -83
s-35 -83 -83 -83zM293 772c33 0 56 24 56 57s-23 57 -56 57s-56 -24 -56 -57s23 -57 56 -57z" />
    <glyph glyph-name="Aogonek" unicode="&#x104;" horiz-adv-x="587" 
d="M493 -162c-37 0 -59 21 -59 57c0 29 17 62 83 111l-67 189h-313l-67 -185c-3 -8 -7 -10 -13 -10h-13c-6 0 -9 4 -7 10l240 660c2 6 5 10 11 10h13c6 0 9 -4 11 -10l238 -660c2 -5 0 -8 -3 -10c-74 -59 -83 -82 -83 -103c0 -19 12 -31 31 -31c10 0 20 5 30 11
c5 3 11 2 14 -3l3 -5c3 -5 2 -10 -3 -14c-9 -8 -28 -17 -46 -17zM293 627l-146 -403h292l-144 403h-2z" />
    <glyph glyph-name="AE" unicode="&#xc6;" horiz-adv-x="948" 
d="M884 0h-374c-6 0 -10 4 -10 10v179c0 4 -2 6 -6 6h-298l-123 -185c-5 -8 -9 -10 -15 -10h-15c-6 0 -8 5 -5 10l438 662c4 6 8 8 15 8h393c6 0 10 -4 10 -10v-9c0 -6 -4 -10 -10 -10h-347c-4 0 -6 -2 -6 -6v-279c0 -4 2 -6 6 -6h300c6 0 10 -4 10 -10v-9
c0 -6 -4 -10 -10 -10h-300c-4 0 -6 -2 -6 -6v-290c0 -4 2 -6 6 -6h347c6 0 10 -4 10 -10v-9c0 -6 -4 -10 -10 -10zM497 648l-282 -424h279c4 0 6 2 6 6v418h-3z" />
    <glyph glyph-name="Cacute" unicode="&#x106;" horiz-adv-x="548" 
d="M88 135c-10 30 -18 81 -18 205s8 175 18 205c32 98 102 145 205 145c86 0 155 -37 194 -116c3 -5 3 -10 -2 -13l-10 -5c-5 -3 -10 -1 -13 4c-35 64 -88 101 -169 101c-91 0 -147 -40 -175 -124c-9 -27 -17 -76 -17 -197s8 -170 17 -197c28 -84 84 -124 175 -124
c81 0 134 37 169 101c3 5 8 7 13 4l10 -5c5 -3 5 -8 2 -13c-39 -79 -108 -116 -194 -116c-103 0 -173 47 -205 145zM275 765h-7c-6 0 -9 4 -4 10l80 103c7 8 10 10 17 10h15c6 0 8 -5 4 -10l-87 -103c-8 -9 -10 -10 -18 -10z" />
    <glyph glyph-name="Ccircumflex" unicode="&#x108;" horiz-adv-x="548" 
d="M88 135c-10 30 -18 81 -18 205s8 175 18 205c32 98 102 145 205 145c86 0 155 -37 194 -116c3 -5 3 -10 -2 -13l-10 -5c-5 -3 -10 -1 -13 4c-35 64 -88 101 -169 101c-91 0 -147 -40 -175 -124c-9 -27 -17 -76 -17 -197s8 -170 17 -197c28 -84 84 -124 175 -124
c81 0 134 37 169 101c3 5 8 7 13 4l10 -5c5 -3 5 -8 2 -13c-39 -79 -108 -116 -194 -116c-103 0 -173 47 -205 145zM391 755h-8c-7 0 -10 2 -16 10l-76 98h-2l-76 -98c-6 -8 -9 -10 -16 -10h-8c-6 0 -8 5 -4 10l87 121c5 7 8 9 14 9h8c6 0 9 -2 14 -9l87 -121
c4 -5 2 -10 -4 -10z" />
    <glyph glyph-name="Ccaron" unicode="&#x10c;" horiz-adv-x="548" 
d="M88 135c-10 30 -18 81 -18 205s8 175 18 205c32 98 102 145 205 145c86 0 155 -37 194 -116c3 -5 3 -10 -2 -13l-10 -5c-5 -3 -10 -1 -13 4c-35 64 -88 101 -169 101c-91 0 -147 -40 -175 -124c-9 -27 -17 -76 -17 -197s8 -170 17 -197c28 -84 84 -124 175 -124
c81 0 134 37 169 101c3 5 8 7 13 4l10 -5c5 -3 5 -8 2 -13c-39 -79 -108 -116 -194 -116c-103 0 -173 47 -205 145zM294 755h-8c-6 0 -9 2 -14 9l-87 121c-4 5 -2 10 4 10h8c7 0 10 -2 16 -10l76 -98h2l76 98c6 8 9 10 16 10h8c6 0 8 -5 4 -10l-87 -121c-5 -7 -8 -9 -14 -9z
" />
    <glyph glyph-name="Cdotaccent" unicode="&#x10a;" horiz-adv-x="548" 
d="M88 135c-10 30 -18 81 -18 205s8 175 18 205c32 98 102 145 205 145c86 0 155 -37 194 -116c3 -5 3 -10 -2 -13l-10 -5c-5 -3 -10 -1 -13 4c-35 64 -88 101 -169 101c-91 0 -147 -40 -175 -124c-9 -27 -17 -76 -17 -197s8 -170 17 -197c28 -84 84 -124 175 -124
c81 0 134 37 169 101c3 5 8 7 13 4l10 -5c5 -3 5 -8 2 -13c-39 -79 -108 -116 -194 -116c-103 0 -173 47 -205 145zM302 795h-24c-6 0 -10 4 -10 10v40c0 6 4 10 10 10h24c6 0 10 -4 10 -10v-40c0 -6 -4 -10 -10 -10z" />
    <glyph glyph-name="Ccedilla" unicode="&#xc7;" horiz-adv-x="548" 
d="M252 -145h-11c-6 0 -9 4 -7 10l48 125c-97 4 -163 50 -194 145c-10 30 -18 81 -18 205s8 175 18 205c32 98 102 145 205 145c86 0 155 -37 194 -116c3 -5 3 -10 -2 -13l-10 -5c-5 -3 -10 -1 -13 4c-35 64 -88 101 -169 101c-91 0 -147 -40 -175 -124
c-9 -27 -17 -76 -17 -197s8 -170 17 -197c28 -84 84 -124 175 -124c81 0 134 37 169 101c3 5 8 7 13 4l10 -5c5 -3 5 -8 2 -13c-37 -74 -99 -110 -177 -115l-42 -126c-3 -8 -7 -10 -16 -10z" />
    <glyph glyph-name="Dcaron" unicode="&#x10e;" horiz-adv-x="622" 
d="M102 10v660c0 6 4 10 10 10h200c111 0 184 -42 213 -132c14 -43 19 -81 19 -208s-5 -165 -19 -208c-29 -90 -102 -132 -213 -132h-200c-6 0 -10 4 -10 10zM133 35c0 -4 2 -6 6 -6h173c94 0 158 33 183 110c13 40 18 78 18 201s-5 161 -18 201c-25 77 -89 110 -183 110
h-173c-4 0 -6 -2 -6 -6v-610zM303 755h-8c-6 0 -9 2 -14 9l-87 121c-4 5 -2 10 4 10h8c7 0 10 -2 16 -10l76 -98h2l76 98c6 8 9 10 16 10h8c6 0 8 -5 4 -10l-87 -121c-5 -7 -8 -9 -14 -9z" />
    <glyph glyph-name="Dcroat" unicode="&#x110;" horiz-adv-x="622" 
d="M312 0h-200c-6 0 -10 4 -10 10v315c0 4 -2 6 -6 6h-46c-6 0 -10 4 -10 10v8c0 6 4 10 10 10h46c4 0 6 2 6 6v305c0 6 4 10 10 10h200c111 0 184 -42 213 -132c14 -43 19 -81 19 -208s-5 -165 -19 -208c-29 -90 -102 -132 -213 -132zM312 29c94 0 158 33 183 110
c13 40 18 78 18 201s-5 161 -18 201c-25 77 -89 110 -183 110h-173c-4 0 -6 -2 -6 -6v-280c0 -4 2 -6 6 -6h145c6 0 10 -4 10 -10v-8c0 -6 -4 -10 -10 -10h-145c-4 0 -6 -2 -6 -6v-290c0 -4 2 -6 6 -6h173z" />
    <glyph glyph-name="Eth" unicode="&#xd0;" horiz-adv-x="622" 
d="M312 0h-200c-6 0 -10 4 -10 10v315c0 4 -2 6 -6 6h-46c-6 0 -10 4 -10 10v8c0 6 4 10 10 10h46c4 0 6 2 6 6v305c0 6 4 10 10 10h200c111 0 184 -42 213 -132c14 -43 19 -81 19 -208s-5 -165 -19 -208c-29 -90 -102 -132 -213 -132zM312 29c94 0 158 33 183 110
c13 40 18 78 18 201s-5 161 -18 201c-25 77 -89 110 -183 110h-173c-4 0 -6 -2 -6 -6v-280c0 -4 2 -6 6 -6h145c6 0 10 -4 10 -10v-8c0 -6 -4 -10 -10 -10h-145c-4 0 -6 -2 -6 -6v-290c0 -4 2 -6 6 -6h173z" />
    <glyph glyph-name="Egrave" unicode="&#xc8;" horiz-adv-x="550" 
d="M102 10v660c0 6 4 10 10 10h374c6 0 10 -4 10 -10v-9c0 -6 -4 -10 -10 -10h-347c-4 0 -6 -2 -6 -6v-279c0 -4 2 -6 6 -6h300c6 0 10 -4 10 -10v-9c0 -6 -4 -10 -10 -10h-300c-4 0 -6 -2 -6 -6v-290c0 -4 2 -6 6 -6h347c6 0 10 -4 10 -10v-9c0 -6 -4 -10 -10 -10h-374
c-6 0 -10 4 -10 10zM318 765h-7c-8 0 -10 1 -18 10l-87 103c-4 5 -2 10 4 10h15c7 0 10 -2 17 -10l80 -103c5 -6 2 -10 -4 -10z" />
    <glyph glyph-name="Eacute" unicode="&#xc9;" horiz-adv-x="550" 
d="M102 10v660c0 6 4 10 10 10h374c6 0 10 -4 10 -10v-9c0 -6 -4 -10 -10 -10h-347c-4 0 -6 -2 -6 -6v-279c0 -4 2 -6 6 -6h300c6 0 10 -4 10 -10v-9c0 -6 -4 -10 -10 -10h-300c-4 0 -6 -2 -6 -6v-290c0 -4 2 -6 6 -6h347c6 0 10 -4 10 -10v-9c0 -6 -4 -10 -10 -10h-374
c-6 0 -10 4 -10 10zM274 765h-7c-6 0 -9 4 -4 10l80 103c7 8 10 10 17 10h15c6 0 8 -5 4 -10l-87 -103c-8 -9 -10 -10 -18 -10z" />
    <glyph glyph-name="Ecircumflex" unicode="&#xca;" horiz-adv-x="550" 
d="M102 10v660c0 6 4 10 10 10h374c6 0 10 -4 10 -10v-9c0 -6 -4 -10 -10 -10h-347c-4 0 -6 -2 -6 -6v-279c0 -4 2 -6 6 -6h300c6 0 10 -4 10 -10v-9c0 -6 -4 -10 -10 -10h-300c-4 0 -6 -2 -6 -6v-290c0 -4 2 -6 6 -6h347c6 0 10 -4 10 -10v-9c0 -6 -4 -10 -10 -10h-374
c-6 0 -10 4 -10 10zM399 755h-8c-7 0 -10 2 -16 10l-76 98h-2l-76 -98c-6 -8 -9 -10 -16 -10h-8c-6 0 -8 5 -4 10l87 121c5 7 8 9 14 9h8c6 0 9 -2 14 -9l87 -121c4 -5 2 -10 -4 -10z" />
    <glyph glyph-name="Ecaron" unicode="&#x11a;" horiz-adv-x="550" 
d="M102 10v660c0 6 4 10 10 10h374c6 0 10 -4 10 -10v-9c0 -6 -4 -10 -10 -10h-347c-4 0 -6 -2 -6 -6v-279c0 -4 2 -6 6 -6h300c6 0 10 -4 10 -10v-9c0 -6 -4 -10 -10 -10h-300c-4 0 -6 -2 -6 -6v-290c0 -4 2 -6 6 -6h347c6 0 10 -4 10 -10v-9c0 -6 -4 -10 -10 -10h-374
c-6 0 -10 4 -10 10zM302 755h-8c-6 0 -9 2 -14 9l-87 121c-4 5 -2 10 4 10h8c7 0 10 -2 16 -10l76 -98h2l76 98c6 8 9 10 16 10h8c6 0 8 -5 4 -10l-87 -121c-5 -7 -8 -9 -14 -9z" />
    <glyph glyph-name="Edieresis" unicode="&#xcb;" horiz-adv-x="550" 
d="M102 10v660c0 6 4 10 10 10h374c6 0 10 -4 10 -10v-9c0 -6 -4 -10 -10 -10h-347c-4 0 -6 -2 -6 -6v-279c0 -4 2 -6 6 -6h300c6 0 10 -4 10 -10v-9c0 -6 -4 -10 -10 -10h-300c-4 0 -6 -2 -6 -6v-290c0 -4 2 -6 6 -6h347c6 0 10 -4 10 -10v-9c0 -6 -4 -10 -10 -10h-374
c-6 0 -10 4 -10 10zM405 795h-24c-6 0 -10 4 -10 10v40c0 6 4 10 10 10h24c6 0 10 -4 10 -10v-40c0 -6 -4 -10 -10 -10zM205 795h-24c-6 0 -10 4 -10 10v40c0 6 4 10 10 10h24c6 0 10 -4 10 -10v-40c0 -6 -4 -10 -10 -10z" />
    <glyph glyph-name="Emacron" unicode="&#x112;" horiz-adv-x="550" 
d="M102 10v660c0 6 4 10 10 10h374c6 0 10 -4 10 -10v-9c0 -6 -4 -10 -10 -10h-347c-4 0 -6 -2 -6 -6v-279c0 -4 2 -6 6 -6h300c6 0 10 -4 10 -10v-9c0 -6 -4 -10 -10 -10h-300c-4 0 -6 -2 -6 -6v-290c0 -4 2 -6 6 -6h347c6 0 10 -4 10 -10v-9c0 -6 -4 -10 -10 -10h-374
c-6 0 -10 4 -10 10zM409 810h-232c-6 0 -10 4 -10 10v8c0 6 4 10 10 10h232c6 0 10 -4 10 -10v-8c0 -6 -4 -10 -10 -10z" />
    <glyph glyph-name="Ebreve" unicode="&#x114;" horiz-adv-x="550" 
d="M102 10v660c0 6 4 10 10 10h374c6 0 10 -4 10 -10v-9c0 -6 -4 -10 -10 -10h-347c-4 0 -6 -2 -6 -6v-279c0 -4 2 -6 6 -6h300c6 0 10 -4 10 -10v-9c0 -6 -4 -10 -10 -10h-300c-4 0 -6 -2 -6 -6v-290c0 -4 2 -6 6 -6h347c6 0 10 -4 10 -10v-9c0 -6 -4 -10 -10 -10h-374
c-6 0 -10 4 -10 10zM295 775c-61 0 -106 38 -116 94c-1 6 3 10 9 10h7c7 0 9 -4 11 -10c12 -43 43 -67 89 -67s78 24 90 67c2 6 4 10 11 10h6c6 0 10 -4 9 -10c-10 -56 -55 -94 -116 -94z" />
    <glyph glyph-name="Edotaccent" unicode="&#x116;" horiz-adv-x="550" 
d="M102 10v660c0 6 4 10 10 10h374c6 0 10 -4 10 -10v-9c0 -6 -4 -10 -10 -10h-347c-4 0 -6 -2 -6 -6v-279c0 -4 2 -6 6 -6h300c6 0 10 -4 10 -10v-9c0 -6 -4 -10 -10 -10h-300c-4 0 -6 -2 -6 -6v-290c0 -4 2 -6 6 -6h347c6 0 10 -4 10 -10v-9c0 -6 -4 -10 -10 -10h-374
c-6 0 -10 4 -10 10zM311 795h-24c-6 0 -10 4 -10 10v40c0 6 4 10 10 10h24c6 0 10 -4 10 -10v-40c0 -6 -4 -10 -10 -10z" />
    <glyph glyph-name="Eogonek" unicode="&#x118;" horiz-adv-x="550" 
d="M424 -162c-37 0 -59 21 -59 57c0 29 15 58 75 105h-328c-6 0 -10 4 -10 10v660c0 6 4 10 10 10h374c6 0 10 -4 10 -10v-9c0 -6 -4 -10 -10 -10h-347c-4 0 -6 -2 -6 -6v-279c0 -4 2 -6 6 -6h300c6 0 10 -4 10 -10v-9c0 -6 -4 -10 -10 -10h-300c-4 0 -6 -2 -6 -6v-290
c0 -4 2 -6 6 -6h347c6 0 10 -4 10 -10v-9c0 -6 -4 -10 -10 -10h-9c-74 -59 -82 -82 -82 -103c0 -19 12 -31 31 -31c10 0 20 5 30 11c5 3 11 2 14 -3l3 -5c3 -5 2 -10 -3 -14c-9 -8 -28 -17 -46 -17z" />
    <glyph glyph-name="Gcircumflex" unicode="&#x11c;" horiz-adv-x="602" 
d="M89 138c-10 30 -19 78 -19 202s9 172 19 202c32 98 106 148 212 148c104 0 170 -50 202 -115c3 -6 4 -12 -2 -15l-9 -5c-4 -2 -10 -2 -13 3c-36 66 -91 103 -178 103c-91 0 -154 -43 -182 -127c-9 -27 -18 -73 -18 -194s9 -167 18 -194c28 -84 91 -127 182 -127
s154 43 182 127c9 27 18 73 18 151c0 4 -2 6 -6 6h-173c-6 0 -10 4 -10 10v9c0 6 4 10 10 10h200c6 0 10 -4 10 -10v-32c0 -74 -9 -122 -19 -152c-32 -98 -106 -148 -212 -148s-180 50 -212 148zM402 755h-8c-7 0 -10 2 -16 10l-76 98h-2l-76 -98c-6 -8 -9 -10 -16 -10h-8
c-6 0 -8 5 -4 10l87 121c5 7 8 9 14 9h8c6 0 9 -2 14 -9l87 -121c4 -5 2 -10 -4 -10z" />
    <glyph glyph-name="Gbreve" unicode="&#x11e;" horiz-adv-x="602" 
d="M89 138c-10 30 -19 78 -19 202s9 172 19 202c32 98 106 148 212 148c104 0 170 -50 202 -115c3 -6 4 -12 -2 -15l-9 -5c-4 -2 -10 -2 -13 3c-36 66 -91 103 -178 103c-91 0 -154 -43 -182 -127c-9 -27 -18 -73 -18 -194s9 -167 18 -194c28 -84 91 -127 182 -127
s154 43 182 127c9 27 18 73 18 151c0 4 -2 6 -6 6h-173c-6 0 -10 4 -10 10v9c0 6 4 10 10 10h200c6 0 10 -4 10 -10v-32c0 -74 -9 -122 -19 -152c-32 -98 -106 -148 -212 -148s-180 50 -212 148zM301 775c-61 0 -106 38 -116 94c-1 6 3 10 9 10h7c7 0 9 -4 11 -10
c12 -43 43 -67 89 -67s78 24 90 67c2 6 4 10 11 10h6c6 0 10 -4 9 -10c-10 -56 -55 -94 -116 -94z" />
    <glyph glyph-name="Gdotaccent" unicode="&#x120;" horiz-adv-x="602" 
d="M89 138c-10 30 -19 78 -19 202s9 172 19 202c32 98 106 148 212 148c104 0 170 -50 202 -115c3 -6 4 -12 -2 -15l-9 -5c-4 -2 -10 -2 -13 3c-36 66 -91 103 -178 103c-91 0 -154 -43 -182 -127c-9 -27 -18 -73 -18 -194s9 -167 18 -194c28 -84 91 -127 182 -127
s154 43 182 127c9 27 18 73 18 151c0 4 -2 6 -6 6h-173c-6 0 -10 4 -10 10v9c0 6 4 10 10 10h200c6 0 10 -4 10 -10v-32c0 -74 -9 -122 -19 -152c-32 -98 -106 -148 -212 -148s-180 50 -212 148zM313 795h-24c-6 0 -10 4 -10 10v40c0 6 4 10 10 10h24c6 0 10 -4 10 -10v-40
c0 -6 -4 -10 -10 -10z" />
    <glyph glyph-name="Gcommaaccent" unicode="&#x122;" horiz-adv-x="602" 
d="M89 138c-10 30 -19 78 -19 202s9 172 19 202c32 98 106 148 212 148c104 0 170 -50 202 -115c3 -6 4 -12 -2 -15l-9 -5c-4 -2 -10 -2 -13 3c-36 66 -91 103 -178 103c-91 0 -154 -43 -182 -127c-9 -27 -18 -73 -18 -194s9 -167 18 -194c28 -84 91 -127 182 -127
s154 43 182 127c9 27 18 73 18 151c0 4 -2 6 -6 6h-173c-6 0 -10 4 -10 10v9c0 6 4 10 10 10h200c6 0 10 -4 10 -10v-32c0 -74 -9 -122 -19 -152c-32 -98 -106 -148 -212 -148s-180 50 -212 148zM293 -183c-6 0 -7 3 -7 9v109c0 6 3 10 9 10h11c6 0 9 -4 9 -10v-64
c0 -10 -1 -18 -5 -28l-7 -19c-2 -4 -5 -7 -10 -7z" />
    <glyph glyph-name="Hcircumflex" unicode="&#x124;" horiz-adv-x="647" 
d="M102 10v660c0 6 4 10 10 10h11c6 0 10 -4 10 -10v-304c0 -4 2 -6 6 -6h369c4 0 6 2 6 6v304c0 6 4 10 10 10h11c6 0 10 -4 10 -10v-660c0 -6 -4 -10 -10 -10h-11c-6 0 -10 4 -10 10v315c0 4 -2 6 -6 6h-369c-4 0 -6 -2 -6 -6v-315c0 -6 -4 -10 -10 -10h-11
c-6 0 -10 4 -10 10zM424 755h-8c-7 0 -10 2 -16 10l-76 98h-2l-76 -98c-6 -8 -9 -10 -16 -10h-8c-6 0 -8 5 -4 10l87 121c5 7 8 9 14 9h8c6 0 9 -2 14 -9l87 -121c4 -5 2 -10 -4 -10z" />
    <glyph glyph-name="Hbar" unicode="&#x126;" horiz-adv-x="647" 
d="M535 0h-11c-6 0 -10 4 -10 10v315c0 4 -2 6 -6 6h-369c-4 0 -6 -2 -6 -6v-315c0 -6 -4 -10 -10 -10h-11c-6 0 -10 4 -10 10v487c0 4 -2 6 -6 6h-42c-6 0 -10 4 -10 10v7c0 6 4 10 10 10h42c4 0 6 2 6 6v134c0 6 4 10 10 10h11c6 0 10 -4 10 -10v-134c0 -4 2 -6 6 -6h369
c4 0 6 2 6 6v134c0 6 4 10 10 10h11c6 0 10 -4 10 -10v-134c0 -4 2 -6 6 -6h42c6 0 10 -4 10 -10v-7c0 -6 -4 -10 -10 -10h-42c-4 0 -6 -2 -6 -6v-487c0 -6 -4 -10 -10 -10zM508 360c4 0 6 2 6 6v131c0 4 -2 6 -6 6h-369c-4 0 -6 -2 -6 -6v-131c0 -4 2 -6 6 -6h369z" />
    <glyph glyph-name="Igrave" unicode="&#xcc;" horiz-adv-x="235" 
d="M102 10v660c0 6 4 10 10 10h11c6 0 10 -4 10 -10v-660c0 -6 -4 -10 -10 -10h-11c-6 0 -10 4 -10 10zM130 765h-7c-8 0 -10 1 -18 10l-87 103c-4 5 -2 10 4 10h15c7 0 10 -2 17 -10l80 -103c5 -6 2 -10 -4 -10z" />
    <glyph glyph-name="Iacute" unicode="&#xcd;" horiz-adv-x="235" 
d="M102 10v660c0 6 4 10 10 10h11c6 0 10 -4 10 -10v-660c0 -6 -4 -10 -10 -10h-11c-6 0 -10 4 -10 10zM113 765h-7c-6 0 -9 4 -4 10l80 103c7 8 10 10 17 10h15c6 0 8 -5 4 -10l-87 -103c-8 -9 -10 -10 -18 -10z" />
    <glyph glyph-name="Icircumflex" unicode="&#xce;" horiz-adv-x="235" 
d="M102 10v660c0 6 4 10 10 10h11c6 0 10 -4 10 -10v-660c0 -6 -4 -10 -10 -10h-11c-6 0 -10 4 -10 10zM218 755h-8c-7 0 -10 2 -16 10l-76 98h-2l-76 -98c-6 -8 -9 -10 -16 -10h-8c-6 0 -8 5 -4 10l87 121c5 7 8 9 14 9h8c6 0 9 -2 14 -9l87 -121c4 -5 2 -10 -4 -10z" />
    <glyph glyph-name="Itilde" unicode="&#x128;" horiz-adv-x="235" 
d="M102 10v660c0 6 4 10 10 10h11c6 0 10 -4 10 -10v-660c0 -6 -4 -10 -10 -10h-11c-6 0 -10 4 -10 10zM169 794c-23 0 -41 11 -57 21c-14 9 -29 18 -46 18c-20 0 -36 -13 -55 -34c-4 -4 -8 -2 -8 3v15c0 5 1 8 7 14c15 16 34 28 57 28s42 -11 57 -21s29 -18 46 -18
c20 0 36 13 55 34c4 4 8 2 8 -3v-15c0 -5 -1 -8 -7 -14c-15 -16 -34 -28 -57 -28z" />
    <glyph glyph-name="Idieresis" unicode="&#xcf;" horiz-adv-x="235" 
d="M102 10v660c0 6 4 10 10 10h11c6 0 10 -4 10 -10v-660c0 -6 -4 -10 -10 -10h-11c-6 0 -10 4 -10 10zM229 795h-24c-6 0 -10 4 -10 10v40c0 6 4 10 10 10h24c6 0 10 -4 10 -10v-40c0 -6 -4 -10 -10 -10zM29 795h-24c-6 0 -10 4 -10 10v40c0 6 4 10 10 10h24
c6 0 10 -4 10 -10v-40c0 -6 -4 -10 -10 -10z" />
    <glyph glyph-name="Imacron" unicode="&#x12a;" horiz-adv-x="235" 
d="M102 10v660c0 6 4 10 10 10h11c6 0 10 -4 10 -10v-660c0 -6 -4 -10 -10 -10h-11c-6 0 -10 4 -10 10zM234 810h-232c-6 0 -10 4 -10 10v8c0 6 4 10 10 10h232c6 0 10 -4 10 -10v-8c0 -6 -4 -10 -10 -10z" />
    <glyph glyph-name="Idotaccent" unicode="&#x130;" horiz-adv-x="235" 
d="M102 10v660c0 6 4 10 10 10h11c6 0 10 -4 10 -10v-660c0 -6 -4 -10 -10 -10h-11c-6 0 -10 4 -10 10zM130 795h-24c-6 0 -10 4 -10 10v40c0 6 4 10 10 10h24c6 0 10 -4 10 -10v-40c0 -6 -4 -10 -10 -10z" />
    <glyph glyph-name="Ibreve" unicode="&#x12c;" horiz-adv-x="235" 
d="M102 10v660c0 6 4 10 10 10h11c6 0 10 -4 10 -10v-660c0 -6 -4 -10 -10 -10h-11c-6 0 -10 4 -10 10zM118 775c-61 0 -106 38 -116 94c-1 6 3 10 9 10h7c7 0 9 -4 11 -10c12 -43 43 -67 89 -67s78 24 90 67c2 6 4 10 11 10h6c6 0 10 -4 9 -10c-10 -56 -55 -94 -116 -94z
" />
    <glyph glyph-name="Iogonek" unicode="&#x12e;" horiz-adv-x="235" 
d="M96 -162c-37 0 -59 21 -59 57c0 27 12 53 65 112v663c0 6 4 10 10 10h11c6 0 10 -4 10 -10v-659c0 -4 -1 -7 -4 -10c-55 -63 -62 -82 -62 -104c0 -19 12 -31 31 -31c10 0 20 5 30 11c5 3 11 2 14 -3l3 -5c3 -5 2 -10 -3 -14c-9 -8 -28 -17 -46 -17z" />
    <glyph glyph-name="Jcircumflex" unicode="&#x134;" horiz-adv-x="460" 
d="M47 34c-5 3 -6 9 -3 14l8 9c4 4 10 4 15 1c27 -20 69 -39 114 -39c92 0 153 47 153 173v478c0 6 4 10 10 10h11c6 0 10 -4 10 -10v-479c0 -141 -73 -201 -184 -201c-52 0 -101 19 -134 44zM448 755h-8c-7 0 -10 2 -16 10l-76 98h-2l-76 -98c-6 -8 -9 -10 -16 -10h-8
c-6 0 -8 5 -4 10l87 121c5 7 8 9 14 9h8c6 0 9 -2 14 -9l87 -121c4 -5 2 -10 -4 -10z" />
    <glyph glyph-name="Kcommaaccent" unicode="&#x136;" horiz-adv-x="582" 
d="M102 10v660c0 6 4 10 10 10h11c6 0 10 -4 10 -10v-421l353 421c6 7 10 10 17 10h18c6 0 9 -5 5 -10l-217 -258l231 -402c3 -5 1 -10 -5 -10h-17c-6 0 -10 3 -14 10l-217 377l-154 -184v-193c0 -6 -4 -10 -10 -10h-11c-6 0 -10 4 -10 10zM283 -183c-6 0 -7 3 -7 9v109
c0 6 3 10 9 10h11c6 0 9 -4 9 -10v-64c0 -10 -1 -18 -5 -28l-7 -19c-2 -4 -5 -7 -10 -7z" />
    <glyph glyph-name="Lacute" unicode="&#x139;" horiz-adv-x="524" 
d="M102 10v660c0 6 4 10 10 10h11c6 0 10 -4 10 -10v-635c0 -4 2 -6 6 -6h347c6 0 10 -4 10 -10v-9c0 -6 -4 -10 -10 -10h-374c-6 0 -10 4 -10 10zM111 765h-7c-6 0 -9 4 -4 10l80 103c7 8 10 10 17 10h15c6 0 8 -5 4 -10l-87 -103c-8 -9 -10 -10 -18 -10z" />
    <glyph glyph-name="Lcaron" unicode="&#x13d;" horiz-adv-x="524" 
d="M102 10v660c0 6 4 10 10 10h11c6 0 10 -4 10 -10v-635c0 -4 2 -6 6 -6h347c6 0 10 -4 10 -10v-9c0 -6 -4 -10 -10 -10h-374c-6 0 -10 4 -10 10zM255 552c-6 0 -7 3 -7 9v109c0 6 3 10 9 10h11c6 0 9 -4 9 -10v-64c0 -10 -1 -18 -5 -28l-7 -19c-2 -4 -5 -7 -10 -7z" />
    <glyph glyph-name="Lcommaaccent" unicode="&#x13b;" horiz-adv-x="524" 
d="M102 10v660c0 6 4 10 10 10h11c6 0 10 -4 10 -10v-635c0 -4 2 -6 6 -6h347c6 0 10 -4 10 -10v-9c0 -6 -4 -10 -10 -10h-374c-6 0 -10 4 -10 10zM297 -183c-6 0 -7 3 -7 9v109c0 6 3 10 9 10h11c6 0 9 -4 9 -10v-64c0 -10 -1 -18 -5 -28l-7 -19c-2 -4 -5 -7 -10 -7z" />
    <glyph glyph-name="Lslash" unicode="&#x141;" horiz-adv-x="524" 
d="M486 0h-374c-6 0 -10 4 -10 10v297l-59 -30c-6 -3 -10 0 -10 6v12c0 6 2 10 10 14l59 30v331c0 6 4 10 10 10h11c6 0 10 -4 10 -10v-315l171 87c6 3 10 0 10 -6v-12c0 -6 -2 -10 -10 -14l-171 -87v-288c0 -4 2 -6 6 -6h347c6 0 10 -4 10 -10v-9c0 -6 -4 -10 -10 -10z" />
    <glyph glyph-name="Ldot" unicode="&#x13f;" horiz-adv-x="524" 
d="M102 10v660c0 6 4 10 10 10h11c6 0 10 -4 10 -10v-635c0 -4 2 -6 6 -6h347c6 0 10 -4 10 -10v-9c0 -6 -4 -10 -10 -10h-374c-6 0 -10 4 -10 10zM393 292h-28c-6 0 -10 4 -10 10v50c0 6 4 10 10 10h28c6 0 10 -4 10 -10v-50c0 -6 -4 -10 -10 -10z" />
    <glyph glyph-name="Nacute" unicode="&#x143;" horiz-adv-x="648" 
d="M102 10v660c0 6 4 10 10 10h9c6 0 12 -1 17 -10l374 -603h3v603c0 6 4 10 10 10h11c6 0 10 -4 10 -10v-660c0 -6 -4 -10 -10 -10h-9c-6 0 -12 1 -17 10l-374 603h-3v-603c0 -6 -4 -10 -10 -10h-11c-6 0 -10 4 -10 10zM298 765h-7c-6 0 -9 4 -4 10l80 103c7 8 10 10 17 10
h15c6 0 8 -5 4 -10l-87 -103c-8 -9 -10 -10 -18 -10z" />
    <glyph glyph-name="Ncaron" unicode="&#x147;" horiz-adv-x="648" 
d="M102 10v660c0 6 4 10 10 10h9c6 0 12 -1 17 -10l374 -603h3v603c0 6 4 10 10 10h11c6 0 10 -4 10 -10v-660c0 -6 -4 -10 -10 -10h-9c-6 0 -12 1 -17 10l-374 603h-3v-603c0 -6 -4 -10 -10 -10h-11c-6 0 -10 4 -10 10zM328 755h-8c-6 0 -9 2 -14 9l-87 121
c-4 5 -2 10 4 10h8c7 0 10 -2 16 -10l76 -98h2l76 98c6 8 9 10 16 10h8c6 0 8 -5 4 -10l-87 -121c-5 -7 -8 -9 -14 -9z" />
    <glyph glyph-name="Ntilde" unicode="&#xd1;" horiz-adv-x="648" 
d="M102 10v660c0 6 4 10 10 10h9c6 0 12 -1 17 -10l374 -603h3v603c0 6 4 10 10 10h11c6 0 10 -4 10 -10v-660c0 -6 -4 -10 -10 -10h-9c-6 0 -12 1 -17 10l-374 603h-3v-603c0 -6 -4 -10 -10 -10h-11c-6 0 -10 4 -10 10zM375 794c-23 0 -41 11 -57 21c-14 9 -29 18 -46 18
c-20 0 -36 -13 -55 -34c-4 -4 -8 -2 -8 3v15c0 5 1 8 7 14c15 16 34 28 57 28s42 -11 57 -21s29 -18 46 -18c20 0 36 13 55 34c4 4 8 2 8 -3v-15c0 -5 -1 -8 -7 -14c-15 -16 -34 -28 -57 -28z" />
    <glyph glyph-name="Ncommaaccent" unicode="&#x145;" horiz-adv-x="648" 
d="M102 10v660c0 6 4 10 10 10h9c6 0 12 -1 17 -10l374 -603h3v603c0 6 4 10 10 10h11c6 0 10 -4 10 -10v-660c0 -6 -4 -10 -10 -10h-9c-6 0 -12 1 -17 10l-374 603h-3v-603c0 -6 -4 -10 -10 -10h-11c-6 0 -10 4 -10 10zM326 -183c-6 0 -7 3 -7 9v109c0 6 3 10 9 10h11
c6 0 9 -4 9 -10v-64c0 -10 -1 -18 -5 -28l-7 -19c-2 -4 -5 -7 -10 -7z" />
    <glyph glyph-name="Eng" unicode="&#x14a;" horiz-adv-x="648" 
d="M415 -180h-7c-6 0 -10 4 -10 10v9c0 6 4 10 10 10h7c69 0 100 27 100 105v47l-379 612h-3v-603c0 -6 -4 -10 -10 -10h-11c-6 0 -10 4 -10 10v660c0 6 4 10 10 10h10c6 0 12 -1 17 -10l373 -603h3v603c0 6 4 10 10 10h11c6 0 10 -4 10 -10v-714c0 -96 -40 -136 -131 -136z
" />
    <glyph glyph-name="Ograve" unicode="&#xd2;" horiz-adv-x="602" 
d="M301 -10c-107 0 -179 50 -211 148c-10 30 -20 78 -20 202s10 172 20 202c32 98 104 148 211 148s179 -50 211 -148c10 -30 20 -78 20 -202s-10 -172 -20 -202c-32 -98 -104 -148 -211 -148zM301 19c92 0 153 43 181 127c9 27 19 73 19 194s-10 167 -19 194
c-28 84 -89 127 -181 127s-153 -43 -181 -127c-9 -27 -19 -73 -19 -194s10 -167 19 -194c28 -84 89 -127 181 -127zM322 765h-7c-8 0 -10 1 -18 10l-87 103c-4 5 -2 10 4 10h15c7 0 10 -2 17 -10l80 -103c5 -6 2 -10 -4 -10z" />
    <glyph glyph-name="Oacute" unicode="&#xd3;" horiz-adv-x="602" 
d="M301 -10c-107 0 -179 50 -211 148c-10 30 -20 78 -20 202s10 172 20 202c32 98 104 148 211 148s179 -50 211 -148c10 -30 20 -78 20 -202s-10 -172 -20 -202c-32 -98 -104 -148 -211 -148zM301 19c92 0 153 43 181 127c9 27 19 73 19 194s-10 167 -19 194
c-28 84 -89 127 -181 127s-153 -43 -181 -127c-9 -27 -19 -73 -19 -194s10 -167 19 -194c28 -84 89 -127 181 -127zM287 765h-7c-6 0 -9 4 -4 10l80 103c7 8 10 10 17 10h15c6 0 8 -5 4 -10l-87 -103c-8 -9 -10 -10 -18 -10z" />
    <glyph glyph-name="Ocircumflex" unicode="&#xd4;" horiz-adv-x="602" 
d="M301 -10c-107 0 -179 50 -211 148c-10 30 -20 78 -20 202s10 172 20 202c32 98 104 148 211 148s179 -50 211 -148c10 -30 20 -78 20 -202s-10 -172 -20 -202c-32 -98 -104 -148 -211 -148zM301 19c92 0 153 43 181 127c9 27 19 73 19 194s-10 167 -19 194
c-28 84 -89 127 -181 127s-153 -43 -181 -127c-9 -27 -19 -73 -19 -194s10 -167 19 -194c28 -84 89 -127 181 -127zM402 755h-8c-7 0 -10 2 -16 10l-76 98h-2l-76 -98c-6 -8 -9 -10 -16 -10h-8c-6 0 -8 5 -4 10l87 121c5 7 8 9 14 9h8c6 0 9 -2 14 -9l87 -121
c4 -5 2 -10 -4 -10z" />
    <glyph glyph-name="Otilde" unicode="&#xd5;" horiz-adv-x="602" 
d="M301 -10c-107 0 -179 50 -211 148c-10 30 -20 78 -20 202s10 172 20 202c32 98 104 148 211 148s179 -50 211 -148c10 -30 20 -78 20 -202s-10 -172 -20 -202c-32 -98 -104 -148 -211 -148zM301 19c92 0 153 43 181 127c9 27 19 73 19 194s-10 167 -19 194
c-28 84 -89 127 -181 127s-153 -43 -181 -127c-9 -27 -19 -73 -19 -194s10 -167 19 -194c28 -84 89 -127 181 -127zM352 794c-23 0 -41 11 -57 21c-14 9 -29 18 -46 18c-20 0 -36 -13 -55 -34c-4 -4 -8 -2 -8 3v15c0 5 1 8 7 14c15 16 34 28 57 28s42 -11 57 -21
s29 -18 46 -18c20 0 36 13 55 34c4 4 8 2 8 -3v-15c0 -5 -1 -8 -7 -14c-15 -16 -34 -28 -57 -28z" />
    <glyph glyph-name="Odieresis" unicode="&#xd6;" horiz-adv-x="602" 
d="M301 -10c-107 0 -179 50 -211 148c-10 30 -20 78 -20 202s10 172 20 202c32 98 104 148 211 148s179 -50 211 -148c10 -30 20 -78 20 -202s-10 -172 -20 -202c-32 -98 -104 -148 -211 -148zM301 19c92 0 153 43 181 127c9 27 19 73 19 194s-10 167 -19 194
c-28 84 -89 127 -181 127s-153 -43 -181 -127c-9 -27 -19 -73 -19 -194s10 -167 19 -194c28 -84 89 -127 181 -127zM413 795h-24c-6 0 -10 4 -10 10v40c0 6 4 10 10 10h24c6 0 10 -4 10 -10v-40c0 -6 -4 -10 -10 -10zM213 795h-24c-6 0 -10 4 -10 10v40c0 6 4 10 10 10h24
c6 0 10 -4 10 -10v-40c0 -6 -4 -10 -10 -10z" />
    <glyph glyph-name="Omacron" unicode="&#x14c;" horiz-adv-x="602" 
d="M301 -10c-107 0 -179 50 -211 148c-10 30 -20 78 -20 202s10 172 20 202c32 98 104 148 211 148s179 -50 211 -148c10 -30 20 -78 20 -202s-10 -172 -20 -202c-32 -98 -104 -148 -211 -148zM301 19c92 0 153 43 181 127c9 27 19 73 19 194s-10 167 -19 194
c-28 84 -89 127 -181 127s-153 -43 -181 -127c-9 -27 -19 -73 -19 -194s10 -167 19 -194c28 -84 89 -127 181 -127zM417 810h-232c-6 0 -10 4 -10 10v8c0 6 4 10 10 10h232c6 0 10 -4 10 -10v-8c0 -6 -4 -10 -10 -10z" />
    <glyph glyph-name="Obreve" unicode="&#x14e;" horiz-adv-x="602" 
d="M301 -10c-107 0 -179 50 -211 148c-10 30 -20 78 -20 202s10 172 20 202c32 98 104 148 211 148s179 -50 211 -148c10 -30 20 -78 20 -202s-10 -172 -20 -202c-32 -98 -104 -148 -211 -148zM301 19c92 0 153 43 181 127c9 27 19 73 19 194s-10 167 -19 194
c-28 84 -89 127 -181 127s-153 -43 -181 -127c-9 -27 -19 -73 -19 -194s10 -167 19 -194c28 -84 89 -127 181 -127zM301 775c-61 0 -106 38 -116 94c-1 6 3 10 9 10h7c7 0 9 -4 11 -10c12 -43 43 -67 89 -67s78 24 90 67c2 6 4 10 11 10h6c6 0 10 -4 9 -10
c-10 -56 -55 -94 -116 -94z" />
    <glyph glyph-name="Ohungarumlaut" unicode="&#x150;" horiz-adv-x="602" 
d="M301 -10c-107 0 -179 50 -211 148c-10 30 -20 78 -20 202s10 172 20 202c32 98 104 148 211 148s179 -50 211 -148c10 -30 20 -78 20 -202s-10 -172 -20 -202c-32 -98 -104 -148 -211 -148zM301 19c92 0 153 43 181 127c9 27 19 73 19 194s-10 167 -19 194
c-28 84 -89 127 -181 127s-153 -43 -181 -127c-9 -27 -19 -73 -19 -194s10 -167 19 -194c28 -84 89 -127 181 -127zM363 765h-8c-6 0 -8 4 -4 10l68 103c5 7 8 10 16 10h14c6 0 8 -5 4 -10l-75 -104c-5 -7 -8 -9 -15 -9zM253 765h-8c-6 0 -8 4 -4 10l68 103c5 7 8 10 16 10
h14c6 0 8 -5 4 -10l-75 -104c-5 -7 -8 -9 -15 -9z" />
    <glyph glyph-name="Oslash" unicode="&#xd8;" horiz-adv-x="602" 
d="M100 -30h-10c-6 0 -9 4 -6 10l46 82c-17 21 -31 46 -40 76c-10 30 -20 78 -20 202s10 172 20 202c32 98 104 148 211 148c63 0 114 -18 152 -52l35 62c3 6 7 10 14 10h10c6 0 9 -4 6 -10l-46 -82c17 -21 30 -47 40 -76c10 -30 20 -78 20 -202s-10 -172 -20 -202
c-32 -98 -104 -148 -211 -148c-64 0 -114 17 -152 52l-35 -62c-3 -6 -7 -10 -14 -10zM120 146c7 -21 15 -40 26 -55l291 519c-33 34 -78 51 -136 51c-92 0 -153 -43 -181 -127c-9 -27 -19 -73 -19 -194s10 -167 19 -194zM301 19c92 0 153 43 181 127c9 27 19 73 19 194
s-10 167 -19 194c-7 20 -16 39 -27 54l-291 -518c33 -34 79 -51 137 -51z" />
    <glyph glyph-name="OE" unicode="&#x152;" horiz-adv-x="949" 
d="M885 0h-374c-6 0 -10 4 -10 10v106h-1c-36 -87 -109 -126 -199 -126c-107 0 -179 50 -211 148c-10 30 -20 78 -20 202s10 172 20 202c32 98 104 148 211 148c90 0 163 -39 199 -126h1v106c0 6 4 10 10 10h374c6 0 10 -4 10 -10v-9c0 -6 -4 -10 -10 -10h-347
c-4 0 -6 -2 -6 -6v-279c0 -4 2 -6 6 -6h300c6 0 10 -4 10 -10v-9c0 -6 -4 -10 -10 -10h-300c-4 0 -6 -2 -6 -6v-290c0 -4 2 -6 6 -6h347c6 0 10 -4 10 -10v-9c0 -6 -4 -10 -10 -10zM301 19c92 0 153 43 181 127c9 27 19 73 19 194s-10 167 -19 194c-28 84 -89 127 -181 127
s-153 -43 -181 -127c-9 -27 -19 -73 -19 -194s10 -167 19 -194c28 -84 89 -127 181 -127z" />
    <glyph glyph-name="Racute" unicode="&#x154;" horiz-adv-x="613" 
d="M530 0h-17c-6 0 -9 2 -12 9l-149 310c-9 -1 -18 -1 -27 -1h-186c-4 0 -6 -2 -6 -6v-302c0 -6 -4 -10 -10 -10h-11c-6 0 -10 4 -10 10v660c0 6 4 10 10 10h213c129 0 203 -66 203 -181c0 -96 -52 -158 -145 -176l152 -313c3 -5 1 -10 -5 -10zM325 347
c113 0 172 53 172 152s-59 152 -172 152h-186c-4 0 -6 -2 -6 -6v-292c0 -4 2 -6 6 -6h186zM270 765h-7c-6 0 -9 4 -4 10l80 103c7 8 10 10 17 10h15c6 0 8 -5 4 -10l-87 -103c-8 -9 -10 -10 -18 -10z" />
    <glyph glyph-name="Rcaron" unicode="&#x158;" horiz-adv-x="613" 
d="M530 0h-17c-6 0 -9 2 -12 9l-149 310c-9 -1 -18 -1 -27 -1h-186c-4 0 -6 -2 -6 -6v-302c0 -6 -4 -10 -10 -10h-11c-6 0 -10 4 -10 10v660c0 6 4 10 10 10h213c129 0 203 -66 203 -181c0 -96 -52 -158 -145 -176l152 -313c3 -5 1 -10 -5 -10zM325 347
c113 0 172 53 172 152s-59 152 -172 152h-186c-4 0 -6 -2 -6 -6v-292c0 -4 2 -6 6 -6h186zM290 755h-8c-6 0 -9 2 -14 9l-87 121c-4 5 -2 10 4 10h8c7 0 10 -2 16 -10l76 -98h2l76 98c6 8 9 10 16 10h8c6 0 8 -5 4 -10l-87 -121c-5 -7 -8 -9 -14 -9z" />
    <glyph glyph-name="Rcommaaccent" unicode="&#x156;" horiz-adv-x="613" 
d="M530 0h-17c-6 0 -9 2 -12 9l-149 310c-9 -1 -18 -1 -27 -1h-186c-4 0 -6 -2 -6 -6v-302c0 -6 -4 -10 -10 -10h-11c-6 0 -10 4 -10 10v660c0 6 4 10 10 10h213c129 0 203 -66 203 -181c0 -96 -52 -158 -145 -176l152 -313c3 -5 1 -10 -5 -10zM325 347
c113 0 172 53 172 152s-59 152 -172 152h-186c-4 0 -6 -2 -6 -6v-292c0 -4 2 -6 6 -6h186zM298 -183c-6 0 -7 3 -7 9v109c0 6 3 10 9 10h11c6 0 9 -4 9 -10v-64c0 -10 -1 -18 -5 -28l-7 -19c-2 -4 -5 -7 -10 -7z" />
    <glyph glyph-name="Sacute" unicode="&#x15a;" horiz-adv-x="600" 
d="M291 -10c-85 0 -171 37 -214 74c-4 4 -5 10 -1 14l8 9c4 5 9 5 14 1c46 -36 119 -69 199 -69c121 0 195 62 195 159c0 76 -39 132 -177 150l-30 4c-135 18 -192 81 -192 173c0 116 81 185 206 185c71 0 139 -22 183 -52c5 -3 6 -9 2 -14l-7 -9c-4 -5 -9 -5 -14 -2
c-54 32 -108 48 -166 48c-110 0 -173 -62 -173 -153c0 -80 47 -132 178 -149l30 -4c135 -18 191 -79 191 -174c0 -113 -79 -191 -232 -191zM281 765h-7c-6 0 -9 4 -4 10l80 103c7 8 10 10 17 10h15c6 0 8 -5 4 -10l-87 -103c-8 -9 -10 -10 -18 -10z" />
    <glyph glyph-name="Scircumflex" unicode="&#x15c;" horiz-adv-x="600" 
d="M291 -10c-85 0 -171 37 -214 74c-4 4 -5 10 -1 14l8 9c4 5 9 5 14 1c46 -36 119 -69 199 -69c121 0 195 62 195 159c0 76 -39 132 -177 150l-30 4c-135 18 -192 81 -192 173c0 116 81 185 206 185c71 0 139 -22 183 -52c5 -3 6 -9 2 -14l-7 -9c-4 -5 -9 -5 -14 -2
c-54 32 -108 48 -166 48c-110 0 -173 -62 -173 -153c0 -80 47 -132 178 -149l30 -4c135 -18 191 -79 191 -174c0 -113 -79 -191 -232 -191zM399 755h-8c-7 0 -10 2 -16 10l-76 98h-2l-76 -98c-6 -8 -9 -10 -16 -10h-8c-6 0 -8 5 -4 10l87 121c5 7 8 9 14 9h8c6 0 9 -2 14 -9
l87 -121c4 -5 2 -10 -4 -10z" />
    <glyph glyph-name="Scaron" unicode="&#x160;" horiz-adv-x="600" 
d="M291 -10c-85 0 -171 37 -214 74c-4 4 -5 10 -1 14l8 9c4 5 9 5 14 1c46 -36 119 -69 199 -69c121 0 195 62 195 159c0 76 -39 132 -177 150l-30 4c-135 18 -192 81 -192 173c0 116 81 185 206 185c71 0 139 -22 183 -52c5 -3 6 -9 2 -14l-7 -9c-4 -5 -9 -5 -14 -2
c-54 32 -108 48 -166 48c-110 0 -173 -62 -173 -153c0 -80 47 -132 178 -149l30 -4c135 -18 191 -79 191 -174c0 -113 -79 -191 -232 -191zM302 755h-8c-6 0 -9 2 -14 9l-87 121c-4 5 -2 10 4 10h8c7 0 10 -2 16 -10l76 -98h2l76 98c6 8 9 10 16 10h8c6 0 8 -5 4 -10
l-87 -121c-5 -7 -8 -9 -14 -9z" />
    <glyph glyph-name="Scedilla" unicode="&#x15e;" horiz-adv-x="600" 
d="M259 -145h-11c-6 0 -9 4 -7 10l48 125c-85 1 -170 37 -212 74c-4 4 -5 10 -1 14l8 9c4 5 9 5 14 1c46 -36 119 -69 199 -69c121 0 195 62 195 159c0 76 -39 132 -177 150l-30 4c-135 18 -192 81 -192 173c0 116 81 185 206 185c71 0 139 -22 183 -52c5 -3 6 -9 2 -14
l-7 -9c-4 -5 -9 -5 -14 -2c-54 32 -108 48 -166 48c-110 0 -173 -62 -173 -153c0 -80 47 -132 178 -149l30 -4c135 -18 191 -79 191 -174c0 -106 -70 -181 -205 -190l-43 -126c-3 -8 -7 -10 -16 -10z" />
    <glyph glyph-name="Scommaaccent" unicode="&#x218;" horiz-adv-x="600" 
d="M291 -10c-85 0 -171 37 -214 74c-4 4 -5 10 -1 14l8 9c4 5 9 5 14 1c46 -36 119 -69 199 -69c121 0 195 62 195 159c0 76 -39 132 -177 150l-30 4c-135 18 -192 81 -192 173c0 116 81 185 206 185c71 0 139 -22 183 -52c5 -3 6 -9 2 -14l-7 -9c-4 -5 -9 -5 -14 -2
c-54 32 -108 48 -166 48c-110 0 -173 -62 -173 -153c0 -80 47 -132 178 -149l30 -4c135 -18 191 -79 191 -174c0 -113 -79 -191 -232 -191zM293 -183c-6 0 -7 3 -7 9v109c0 6 3 10 9 10h11c6 0 9 -4 9 -10v-64c0 -10 -1 -18 -5 -28l-7 -19c-2 -4 -5 -7 -10 -7z" />
    <glyph glyph-name="Tcaron" unicode="&#x164;" horiz-adv-x="513" 
d="M262 0h-11c-6 0 -10 4 -10 10v635c0 4 -2 6 -6 6h-203c-6 0 -10 4 -10 10v9c0 6 4 10 10 10h449c6 0 10 -4 10 -10v-9c0 -6 -4 -10 -10 -10h-203c-4 0 -6 -2 -6 -6v-635c0 -6 -4 -10 -10 -10zM260 755h-8c-6 0 -9 2 -14 9l-87 121c-4 5 -2 10 4 10h8c7 0 10 -2 16 -10
l76 -98h2l76 98c6 8 9 10 16 10h8c6 0 8 -5 4 -10l-87 -121c-5 -7 -8 -9 -14 -9z" />
    <glyph glyph-name="uni0162" unicode="&#x162;" horiz-adv-x="513" 
d="M262 0h-11c-6 0 -10 4 -10 10v635c0 4 -2 6 -6 6h-203c-6 0 -10 4 -10 10v9c0 6 4 10 10 10h449c6 0 10 -4 10 -10v-9c0 -6 -4 -10 -10 -10h-203c-4 0 -6 -2 -6 -6v-635c0 -6 -4 -10 -10 -10zM248 -183c-6 0 -7 3 -7 9v109c0 6 3 10 9 10h11c6 0 9 -4 9 -10v-64
c0 -10 -1 -18 -5 -28l-7 -19c-2 -4 -5 -7 -10 -7z" />
    <glyph glyph-name="uni021A" unicode="&#x21a;" horiz-adv-x="513" 
d="M262 0h-11c-6 0 -10 4 -10 10v635c0 4 -2 6 -6 6h-203c-6 0 -10 4 -10 10v9c0 6 4 10 10 10h449c6 0 10 -4 10 -10v-9c0 -6 -4 -10 -10 -10h-203c-4 0 -6 -2 -6 -6v-635c0 -6 -4 -10 -10 -10zM248 -183c-6 0 -7 3 -7 9v109c0 6 3 10 9 10h11c6 0 9 -4 9 -10v-64
c0 -10 -1 -18 -5 -28l-7 -19c-2 -4 -5 -7 -10 -7z" />
    <glyph glyph-name="Tbar" unicode="&#x166;" horiz-adv-x="513" 
d="M262 0h-11c-6 0 -10 4 -10 10v415c0 4 -2 6 -6 6h-107c-6 0 -10 4 -10 10v8c0 6 4 10 10 10h107c4 0 6 2 6 6v180c0 4 -2 6 -6 6h-203c-6 0 -10 4 -10 10v9c0 6 4 10 10 10h449c6 0 10 -4 10 -10v-9c0 -6 -4 -10 -10 -10h-203c-4 0 -6 -2 -6 -6v-180c0 -4 2 -6 6 -6h107
c6 0 10 -4 10 -10v-8c0 -6 -4 -10 -10 -10h-107c-4 0 -6 -2 -6 -6v-415c0 -6 -4 -10 -10 -10z" />
    <glyph glyph-name="Thorn" unicode="&#xde;" horiz-adv-x="579" 
d="M123 0h-11c-6 0 -10 4 -10 10v660c0 6 4 10 10 10h11c6 0 10 -4 10 -10v-137c0 -4 2 -6 6 -6h188c129 0 203 -69 203 -184s-74 -184 -203 -184h-188c-4 0 -6 -2 -6 -6v-143c0 -6 -4 -10 -10 -10zM327 188c113 0 172 56 172 155s-59 155 -172 155h-188c-4 0 -6 -2 -6 -6
v-298c0 -4 2 -6 6 -6h188z" />
    <glyph glyph-name="Ugrave" unicode="&#xd9;" horiz-adv-x="632" 
d="M316 -10c-143 0 -222 78 -222 243v437c0 6 4 10 10 10h11c6 0 10 -4 10 -10v-438c0 -143 68 -213 191 -213c124 0 191 70 191 213v438c0 6 4 10 10 10h11c6 0 10 -4 10 -10v-437c0 -163 -79 -243 -222 -243zM336 765h-7c-8 0 -10 1 -18 10l-87 103c-4 5 -2 10 4 10h15
c7 0 10 -2 17 -10l80 -103c5 -6 2 -10 -4 -10z" />
    <glyph glyph-name="Uacute" unicode="&#xda;" horiz-adv-x="632" 
d="M316 -10c-143 0 -222 78 -222 243v437c0 6 4 10 10 10h11c6 0 10 -4 10 -10v-438c0 -143 68 -213 191 -213c124 0 191 70 191 213v438c0 6 4 10 10 10h11c6 0 10 -4 10 -10v-437c0 -163 -79 -243 -222 -243zM300 765h-7c-6 0 -9 4 -4 10l80 103c7 8 10 10 17 10h15
c6 0 8 -5 4 -10l-87 -103c-8 -9 -10 -10 -18 -10z" />
    <glyph glyph-name="Ucircumflex" unicode="&#xdb;" horiz-adv-x="632" 
d="M316 -10c-143 0 -222 78 -222 243v437c0 6 4 10 10 10h11c6 0 10 -4 10 -10v-438c0 -143 68 -213 191 -213c124 0 191 70 191 213v438c0 6 4 10 10 10h11c6 0 10 -4 10 -10v-437c0 -163 -79 -243 -222 -243zM417 755h-8c-7 0 -10 2 -16 10l-76 98h-2l-76 -98
c-6 -8 -9 -10 -16 -10h-8c-6 0 -8 5 -4 10l87 121c5 7 8 9 14 9h8c6 0 9 -2 14 -9l87 -121c4 -5 2 -10 -4 -10z" />
    <glyph glyph-name="Utilde" unicode="&#x168;" horiz-adv-x="632" 
d="M316 -10c-143 0 -222 78 -222 243v437c0 6 4 10 10 10h11c6 0 10 -4 10 -10v-438c0 -143 68 -213 191 -213c124 0 191 70 191 213v438c0 6 4 10 10 10h11c6 0 10 -4 10 -10v-437c0 -163 -79 -243 -222 -243zM367 794c-23 0 -41 11 -57 21c-14 9 -29 18 -46 18
c-20 0 -36 -13 -55 -34c-4 -4 -8 -2 -8 3v15c0 5 1 8 7 14c15 16 34 28 57 28s42 -11 57 -21s29 -18 46 -18c20 0 36 13 55 34c4 4 8 2 8 -3v-15c0 -5 -1 -8 -7 -14c-15 -16 -34 -28 -57 -28z" />
    <glyph glyph-name="Udieresis" unicode="&#xdc;" horiz-adv-x="632" 
d="M316 -10c-143 0 -222 78 -222 243v437c0 6 4 10 10 10h11c6 0 10 -4 10 -10v-438c0 -143 68 -213 191 -213c124 0 191 70 191 213v438c0 6 4 10 10 10h11c6 0 10 -4 10 -10v-437c0 -163 -79 -243 -222 -243zM428 795h-24c-6 0 -10 4 -10 10v40c0 6 4 10 10 10h24
c6 0 10 -4 10 -10v-40c0 -6 -4 -10 -10 -10zM228 795h-24c-6 0 -10 4 -10 10v40c0 6 4 10 10 10h24c6 0 10 -4 10 -10v-40c0 -6 -4 -10 -10 -10z" />
    <glyph glyph-name="Umacron" unicode="&#x16a;" horiz-adv-x="632" 
d="M316 -10c-143 0 -222 78 -222 243v437c0 6 4 10 10 10h11c6 0 10 -4 10 -10v-438c0 -143 68 -213 191 -213c124 0 191 70 191 213v438c0 6 4 10 10 10h11c6 0 10 -4 10 -10v-437c0 -163 -79 -243 -222 -243zM432 810h-232c-6 0 -10 4 -10 10v8c0 6 4 10 10 10h232
c6 0 10 -4 10 -10v-8c0 -6 -4 -10 -10 -10z" />
    <glyph glyph-name="Ubreve" unicode="&#x16c;" horiz-adv-x="632" 
d="M316 -10c-143 0 -222 78 -222 243v437c0 6 4 10 10 10h11c6 0 10 -4 10 -10v-438c0 -143 68 -213 191 -213c124 0 191 70 191 213v438c0 6 4 10 10 10h11c6 0 10 -4 10 -10v-437c0 -163 -79 -243 -222 -243zM316 775c-61 0 -106 38 -116 94c-1 6 3 10 9 10h7
c7 0 9 -4 11 -10c12 -43 43 -67 89 -67s78 24 90 67c2 6 4 10 11 10h6c6 0 10 -4 9 -10c-10 -56 -55 -94 -116 -94z" />
    <glyph glyph-name="Uring" unicode="&#x16e;" horiz-adv-x="632" 
d="M316 -10c-143 0 -222 78 -222 243v437c0 6 4 10 10 10h11c6 0 10 -4 10 -10v-438c0 -143 68 -213 191 -213c124 0 191 70 191 213v438c0 6 4 10 10 10h11c6 0 10 -4 10 -10v-437c0 -163 -79 -243 -222 -243zM316 746c-48 0 -83 35 -83 83s35 83 83 83s83 -35 83 -83
s-35 -83 -83 -83zM316 772c33 0 56 24 56 57s-23 57 -56 57s-56 -24 -56 -57s23 -57 56 -57z" />
    <glyph glyph-name="Uhungarumlaut" unicode="&#x170;" horiz-adv-x="632" 
d="M316 -10c-143 0 -222 78 -222 243v437c0 6 4 10 10 10h11c6 0 10 -4 10 -10v-438c0 -143 68 -213 191 -213c124 0 191 70 191 213v438c0 6 4 10 10 10h11c6 0 10 -4 10 -10v-437c0 -163 -79 -243 -222 -243zM369 765h-8c-6 0 -8 4 -4 10l68 103c5 7 8 10 16 10h14
c6 0 8 -5 4 -10l-75 -104c-5 -7 -8 -9 -15 -9zM259 765h-8c-6 0 -8 4 -4 10l68 103c5 7 8 10 16 10h14c6 0 8 -5 4 -10l-75 -104c-5 -7 -8 -9 -15 -9z" />
    <glyph glyph-name="Uogonek" unicode="&#x172;" horiz-adv-x="632" 
d="M317 -162c-37 0 -59 21 -59 57c0 24 9 48 50 95c-136 3 -214 78 -214 243v437c0 6 4 10 10 10h11c6 0 10 -4 10 -10v-438c0 -143 68 -213 191 -213c124 0 191 70 191 213v438c0 6 4 10 10 10h11c6 0 10 -4 10 -10v-437c0 -149 -66 -233 -197 -242
c-48 -56 -53 -73 -53 -94c0 -19 12 -31 31 -31c10 0 20 5 30 11c5 3 11 2 14 -3l3 -5c3 -5 2 -10 -3 -14c-9 -8 -28 -17 -46 -17z" />
    <glyph glyph-name="Wcircumflex" unicode="&#x174;" horiz-adv-x="813" 
d="M604 0h-14c-6 0 -9 3 -11 10l-171 604h-2l-172 -604c-2 -7 -5 -10 -11 -10h-14c-6 0 -10 4 -11 10l-159 659c-2 7 1 11 8 11h11c9 0 12 -2 14 -10l145 -611h2l169 611c2 7 5 10 12 10h13c7 0 10 -3 12 -10l171 -611h2l143 611c2 8 5 10 14 10h11c7 0 10 -4 8 -11
l-159 -659c-1 -6 -5 -10 -11 -10zM507 755h-8c-7 0 -10 2 -16 10l-76 98h-2l-76 -98c-6 -8 -9 -10 -16 -10h-8c-6 0 -8 5 -4 10l87 121c5 7 8 9 14 9h8c6 0 9 -2 14 -9l87 -121c4 -5 2 -10 -4 -10z" />
    <glyph glyph-name="Wacute" unicode="&#x1e82;" horiz-adv-x="813" 
d="M604 0h-14c-6 0 -9 3 -11 10l-171 604h-2l-172 -604c-2 -7 -5 -10 -11 -10h-14c-6 0 -10 4 -11 10l-159 659c-2 7 1 11 8 11h11c9 0 12 -2 14 -10l145 -611h2l169 611c2 7 5 10 12 10h13c7 0 10 -3 12 -10l171 -611h2l143 611c2 8 5 10 14 10h11c7 0 10 -4 8 -11
l-159 -659c-1 -6 -5 -10 -11 -10zM409 765h-7c-6 0 -9 4 -4 10l80 103c7 8 10 10 17 10h15c6 0 8 -5 4 -10l-87 -103c-8 -9 -10 -10 -18 -10z" />
    <glyph glyph-name="Wdieresis" unicode="&#x1e84;" horiz-adv-x="813" 
d="M604 0h-14c-6 0 -9 3 -11 10l-171 604h-2l-172 -604c-2 -7 -5 -10 -11 -10h-14c-6 0 -10 4 -11 10l-159 659c-2 7 1 11 8 11h11c9 0 12 -2 14 -10l145 -611h2l169 611c2 7 5 10 12 10h13c7 0 10 -3 12 -10l171 -611h2l143 611c2 8 5 10 14 10h11c7 0 10 -4 8 -11
l-159 -659c-1 -6 -5 -10 -11 -10zM518 795h-24c-6 0 -10 4 -10 10v40c0 6 4 10 10 10h24c6 0 10 -4 10 -10v-40c0 -6 -4 -10 -10 -10zM318 795h-24c-6 0 -10 4 -10 10v40c0 6 4 10 10 10h24c6 0 10 -4 10 -10v-40c0 -6 -4 -10 -10 -10z" />
    <glyph glyph-name="Wgrave" unicode="&#x1e80;" horiz-adv-x="813" 
d="M604 0h-14c-6 0 -9 3 -11 10l-171 604h-2l-172 -604c-2 -7 -5 -10 -11 -10h-14c-6 0 -10 4 -11 10l-159 659c-2 7 1 11 8 11h11c9 0 12 -2 14 -10l145 -611h2l169 611c2 7 5 10 12 10h13c7 0 10 -3 12 -10l171 -611h2l143 611c2 8 5 10 14 10h11c7 0 10 -4 8 -11
l-159 -659c-1 -6 -5 -10 -11 -10zM413 765h-7c-8 0 -10 1 -18 10l-87 103c-4 5 -2 10 4 10h15c7 0 10 -2 17 -10l80 -103c5 -6 2 -10 -4 -10z" />
    <glyph glyph-name="Yacute" unicode="&#xdd;" horiz-adv-x="506" 
d="M259 0h-11c-6 0 -10 4 -10 10v269l-207 389c-3 6 0 12 7 12h12c8 0 11 -2 15 -10l189 -352h2l185 352c4 8 7 10 15 10h12c7 0 10 -6 7 -12l-206 -389v-269c0 -6 -4 -10 -10 -10zM246 765h-7c-6 0 -9 4 -4 10l80 103c7 8 10 10 17 10h15c6 0 8 -5 4 -10l-87 -103
c-8 -9 -10 -10 -18 -10z" />
    <glyph glyph-name="Ycircumflex" unicode="&#x176;" horiz-adv-x="506" 
d="M259 0h-11c-6 0 -10 4 -10 10v269l-207 389c-3 6 0 12 7 12h12c8 0 11 -2 15 -10l189 -352h2l185 352c4 8 7 10 15 10h12c7 0 10 -6 7 -12l-206 -389v-269c0 -6 -4 -10 -10 -10zM354 755h-8c-7 0 -10 2 -16 10l-76 98h-2l-76 -98c-6 -8 -9 -10 -16 -10h-8
c-6 0 -8 5 -4 10l87 121c5 7 8 9 14 9h8c6 0 9 -2 14 -9l87 -121c4 -5 2 -10 -4 -10z" />
    <glyph glyph-name="Ydieresis" unicode="&#x178;" horiz-adv-x="506" 
d="M259 0h-11c-6 0 -10 4 -10 10v269l-207 389c-3 6 0 12 7 12h12c8 0 11 -2 15 -10l189 -352h2l185 352c4 8 7 10 15 10h12c7 0 10 -6 7 -12l-206 -389v-269c0 -6 -4 -10 -10 -10zM365 795h-24c-6 0 -10 4 -10 10v40c0 6 4 10 10 10h24c6 0 10 -4 10 -10v-40
c0 -6 -4 -10 -10 -10zM165 795h-24c-6 0 -10 4 -10 10v40c0 6 4 10 10 10h24c6 0 10 -4 10 -10v-40c0 -6 -4 -10 -10 -10z" />
    <glyph glyph-name="Ygrave" unicode="&#x1ef2;" horiz-adv-x="506" 
d="M259 0h-11c-6 0 -10 4 -10 10v269l-207 389c-3 6 0 12 7 12h12c8 0 11 -2 15 -10l189 -352h2l185 352c4 8 7 10 15 10h12c7 0 10 -6 7 -12l-206 -389v-269c0 -6 -4 -10 -10 -10zM273 765h-7c-8 0 -10 1 -18 10l-87 103c-4 5 -2 10 4 10h15c7 0 10 -2 17 -10l80 -103
c5 -6 2 -10 -4 -10z" />
    <glyph glyph-name="Zacute" unicode="&#x179;" horiz-adv-x="543" 
d="M475 0h-408c-6 0 -10 4 -10 10v9c0 5 2 9 6 15l383 616v1h-365c-6 0 -10 4 -10 10v9c0 6 4 10 10 10h394c6 0 10 -4 10 -10v-9c0 -5 -1 -8 -5 -14l-384 -617v-1h379c6 0 10 -4 10 -10v-9c0 -6 -4 -10 -10 -10zM257 765h-7c-6 0 -9 4 -4 10l80 103c7 8 10 10 17 10h15
c6 0 8 -5 4 -10l-87 -103c-8 -9 -10 -10 -18 -10z" />
    <glyph glyph-name="Zcaron" unicode="&#x17d;" horiz-adv-x="543" 
d="M475 0h-408c-6 0 -10 4 -10 10v9c0 5 2 9 6 15l383 616v1h-365c-6 0 -10 4 -10 10v9c0 6 4 10 10 10h394c6 0 10 -4 10 -10v-9c0 -5 -1 -8 -5 -14l-384 -617v-1h379c6 0 10 -4 10 -10v-9c0 -6 -4 -10 -10 -10zM279 755h-8c-6 0 -9 2 -14 9l-87 121c-4 5 -2 10 4 10h8
c7 0 10 -2 16 -10l76 -98h2l76 98c6 8 9 10 16 10h8c6 0 8 -5 4 -10l-87 -121c-5 -7 -8 -9 -14 -9z" />
    <glyph glyph-name="Zdotaccent" unicode="&#x17b;" horiz-adv-x="543" 
d="M475 0h-408c-6 0 -10 4 -10 10v9c0 5 2 9 6 15l383 616v1h-365c-6 0 -10 4 -10 10v9c0 6 4 10 10 10h394c6 0 10 -4 10 -10v-9c0 -5 -1 -8 -5 -14l-384 -617v-1h379c6 0 10 -4 10 -10v-9c0 -6 -4 -10 -10 -10zM287 795h-24c-6 0 -10 4 -10 10v40c0 6 4 10 10 10h24
c6 0 10 -4 10 -10v-40c0 -6 -4 -10 -10 -10z" />
    <glyph glyph-name="agrave" unicode="&#xe0;" horiz-adv-x="509" 
d="M405 0h-10c-6 0 -10 4 -10 10v57h-1c-17 -43 -70 -77 -153 -77c-99 0 -159 49 -159 138c0 90 62 136 176 136h131c4 0 6 2 6 6v61c0 90 -28 125 -132 125c-64 0 -99 -14 -124 -38c-5 -5 -10 -5 -14 -2l-7 6c-6 5 -5 10 -1 14c29 30 77 48 146 48c114 0 162 -36 162 -153
v-321c0 -6 -4 -10 -10 -10zM235 18c88 0 150 51 150 122v90c0 4 -2 6 -6 6h-129c-104 0 -148 -36 -148 -108c0 -70 48 -110 133 -110zM299 560h-7c-8 0 -11 2 -17 10l-85 120c-4 5 -1 10 5 10h15c8 0 12 -3 16 -10l78 -120c4 -6 1 -10 -5 -10z" />
    <glyph glyph-name="aacute" unicode="&#xe1;" horiz-adv-x="509" 
d="M405 0h-10c-6 0 -10 4 -10 10v57h-1c-17 -43 -70 -77 -153 -77c-99 0 -159 49 -159 138c0 90 62 136 176 136h131c4 0 6 2 6 6v61c0 90 -28 125 -132 125c-64 0 -99 -14 -124 -38c-5 -5 -10 -5 -14 -2l-7 6c-6 5 -5 10 -1 14c29 30 77 48 146 48c114 0 162 -36 162 -153
v-321c0 -6 -4 -10 -10 -10zM235 18c88 0 150 51 150 122v90c0 4 -2 6 -6 6h-129c-104 0 -148 -36 -148 -108c0 -70 48 -110 133 -110zM252 560h-7c-6 0 -9 4 -5 10l78 120c4 7 8 10 16 10h15c6 0 9 -5 5 -10l-85 -120c-6 -8 -9 -10 -17 -10z" />
    <glyph glyph-name="acircumflex" unicode="&#xe2;" horiz-adv-x="509" 
d="M405 0h-10c-6 0 -10 4 -10 10v57h-1c-17 -43 -70 -77 -153 -77c-99 0 -159 49 -159 138c0 90 62 136 176 136h131c4 0 6 2 6 6v61c0 90 -28 125 -132 125c-64 0 -99 -14 -124 -38c-5 -5 -10 -5 -14 -2l-7 6c-6 5 -5 10 -1 14c29 30 77 48 146 48c114 0 162 -36 162 -153
v-321c0 -6 -4 -10 -10 -10zM235 18c88 0 150 51 150 122v90c0 4 -2 6 -6 6h-129c-104 0 -148 -36 -148 -108c0 -70 48 -110 133 -110zM355 560h-8c-7 0 -10 2 -16 10l-76 98h-2l-76 -98c-6 -8 -9 -10 -16 -10h-8c-6 0 -8 5 -4 10l87 121c5 7 8 9 14 9h8c6 0 9 -2 14 -9
l87 -121c4 -5 2 -10 -4 -10z" />
    <glyph glyph-name="atilde" unicode="&#xe3;" horiz-adv-x="509" 
d="M405 0h-10c-6 0 -10 4 -10 10v57h-1c-17 -43 -70 -77 -153 -77c-99 0 -159 49 -159 138c0 90 62 136 176 136h131c4 0 6 2 6 6v61c0 90 -28 125 -132 125c-64 0 -99 -14 -124 -38c-5 -5 -10 -5 -14 -2l-7 6c-6 5 -5 10 -1 14c29 30 77 48 146 48c114 0 162 -36 162 -153
v-321c0 -6 -4 -10 -10 -10zM235 18c88 0 150 51 150 122v90c0 4 -2 6 -6 6h-129c-104 0 -148 -36 -148 -108c0 -70 48 -110 133 -110zM305 613c-23 0 -41 11 -57 21c-14 9 -29 18 -46 18c-20 0 -36 -13 -55 -34c-4 -4 -8 -2 -8 3v15c0 5 1 8 7 14c15 16 34 28 57 28
s42 -11 57 -21s29 -18 46 -18c20 0 36 13 55 34c4 4 8 2 8 -3v-15c0 -5 -1 -8 -7 -14c-15 -16 -34 -28 -57 -28z" />
    <glyph glyph-name="adieresis" unicode="&#xe4;" horiz-adv-x="509" 
d="M405 0h-10c-6 0 -10 4 -10 10v57h-1c-17 -43 -70 -77 -153 -77c-99 0 -159 49 -159 138c0 90 62 136 176 136h131c4 0 6 2 6 6v61c0 90 -28 125 -132 125c-64 0 -99 -14 -124 -38c-5 -5 -10 -5 -14 -2l-7 6c-6 5 -5 10 -1 14c29 30 77 48 146 48c114 0 162 -36 162 -153
v-321c0 -6 -4 -10 -10 -10zM235 18c88 0 150 51 150 122v90c0 4 -2 6 -6 6h-129c-104 0 -148 -36 -148 -108c0 -70 48 -110 133 -110zM366 620h-24c-6 0 -10 4 -10 10v40c0 6 4 10 10 10h24c6 0 10 -4 10 -10v-40c0 -6 -4 -10 -10 -10zM166 620h-24c-6 0 -10 4 -10 10v40
c0 6 4 10 10 10h24c6 0 10 -4 10 -10v-40c0 -6 -4 -10 -10 -10z" />
    <glyph glyph-name="amacron" unicode="&#x101;" horiz-adv-x="509" 
d="M405 0h-10c-6 0 -10 4 -10 10v57h-1c-17 -43 -70 -77 -153 -77c-99 0 -159 49 -159 138c0 90 62 136 176 136h131c4 0 6 2 6 6v61c0 90 -28 125 -132 125c-64 0 -99 -14 -124 -38c-5 -5 -10 -5 -14 -2l-7 6c-6 5 -5 10 -1 14c29 30 77 48 146 48c114 0 162 -36 162 -153
v-321c0 -6 -4 -10 -10 -10zM235 18c88 0 150 51 150 122v90c0 4 -2 6 -6 6h-129c-104 0 -148 -36 -148 -108c0 -70 48 -110 133 -110zM370 634h-232c-6 0 -10 4 -10 10v8c0 6 4 10 10 10h232c6 0 10 -4 10 -10v-8c0 -6 -4 -10 -10 -10z" />
    <glyph glyph-name="abreve" unicode="&#x103;" horiz-adv-x="509" 
d="M405 0h-10c-6 0 -10 4 -10 10v57h-1c-17 -43 -70 -77 -153 -77c-99 0 -159 49 -159 138c0 90 62 136 176 136h131c4 0 6 2 6 6v61c0 90 -28 125 -132 125c-64 0 -99 -14 -124 -38c-5 -5 -10 -5 -14 -2l-7 6c-6 5 -5 10 -1 14c29 30 77 48 146 48c114 0 162 -36 162 -153
v-321c0 -6 -4 -10 -10 -10zM235 18c88 0 150 51 150 122v90c0 4 -2 6 -6 6h-129c-104 0 -148 -36 -148 -108c0 -70 48 -110 133 -110zM254 579c-61 0 -106 38 -116 94c-1 6 3 10 9 10h7c7 0 9 -4 11 -10c12 -43 43 -67 89 -67s78 24 90 67c2 6 4 10 11 10h6c6 0 10 -4 9 -10
c-10 -56 -55 -94 -116 -94z" />
    <glyph glyph-name="aring" unicode="&#xe5;" horiz-adv-x="509" 
d="M405 0h-10c-6 0 -10 4 -10 10v57h-1c-17 -43 -70 -77 -153 -77c-99 0 -159 49 -159 138c0 90 62 136 176 136h131c4 0 6 2 6 6v61c0 90 -28 125 -132 125c-64 0 -99 -14 -124 -38c-5 -5 -10 -5 -14 -2l-7 6c-6 5 -5 10 -1 14c29 30 77 48 146 48c114 0 162 -36 162 -153
v-321c0 -6 -4 -10 -10 -10zM235 18c88 0 150 51 150 122v90c0 4 -2 6 -6 6h-129c-104 0 -148 -36 -148 -108c0 -70 48 -110 133 -110zM256 546c-48 0 -83 35 -83 83s35 83 83 83s83 -35 83 -83s-35 -83 -83 -83zM256 572c33 0 56 24 56 57s-23 57 -56 57s-56 -24 -56 -57
s23 -57 56 -57z" />
    <glyph glyph-name="aogonek" unicode="&#x105;" horiz-adv-x="509" 
d="M385 10v57h-1c-17 -43 -70 -77 -153 -77c-99 0 -159 49 -159 138c0 90 62 136 176 136h131c4 0 6 2 6 6v61c0 90 -28 125 -132 125c-64 0 -99 -14 -124 -38c-5 -5 -10 -5 -14 -2l-7 6c-6 5 -5 10 -1 14c29 30 77 48 146 48c114 0 162 -36 162 -153v-321
c0 -5 -1 -7 -5 -10c-74 -59 -83 -82 -83 -103c0 -19 12 -31 31 -31c10 0 20 5 30 11c5 3 11 2 14 -3l3 -5c3 -5 2 -10 -3 -14c-9 -8 -28 -17 -46 -17c-37 0 -59 21 -59 57c0 29 15 60 88 115zM235 18c88 0 150 51 150 122v90c0 4 -2 6 -6 6h-129c-104 0 -148 -36 -148 -108
c0 -70 48 -110 133 -110z" />
    <glyph glyph-name="ae" unicode="&#xe6;" horiz-adv-x="814" 
d="M573 -10c-90 0 -141 44 -167 103h-1c-23 -62 -76 -103 -174 -103c-99 0 -159 49 -159 138c0 90 62 136 176 136h131c4 0 6 2 6 6v61c0 90 -28 125 -132 125c-64 0 -99 -14 -124 -38c-5 -5 -10 -5 -14 -2l-7 6c-6 5 -5 10 -1 14c29 30 77 48 146 48c92 0 142 -25 156 -95
h1c31 64 84 95 157 95c81 0 142 -40 168 -120c9 -27 14 -58 14 -118c0 -6 -4 -10 -11 -10h-317c-4 0 -6 -3 -6 -7c0 -53 4 -81 12 -107c24 -72 76 -104 146 -104c66 0 114 29 143 69c4 5 9 6 14 2l6 -5c5 -4 5 -9 1 -14c-33 -47 -89 -80 -164 -80zM713 264c4 0 6 2 6 6
c0 34 -4 60 -11 83c-22 69 -72 103 -141 103s-119 -34 -141 -103c-7 -23 -11 -49 -11 -83c0 -4 2 -6 6 -6h292zM235 18c88 0 150 51 150 122v90c0 4 -2 6 -6 6h-129c-104 0 -148 -36 -148 -108c0 -70 48 -110 133 -110z" />
    <glyph glyph-name="cacute" unicode="&#x107;" horiz-adv-x="468" 
d="M249 -10c-83 0 -144 45 -168 120c-9 29 -16 68 -16 127s7 98 16 127c24 75 85 120 168 120c75 0 128 -35 157 -96c3 -6 1 -11 -5 -14l-7 -3c-5 -2 -10 -1 -13 4c-28 56 -69 81 -132 81c-69 0 -118 -36 -139 -103c-9 -27 -15 -62 -15 -116s6 -89 15 -116
c21 -67 70 -103 139 -103c63 0 104 25 132 81c3 5 8 6 13 4l7 -3c6 -3 8 -8 5 -14c-29 -61 -82 -96 -157 -96zM238 560h-7c-6 0 -9 4 -5 10l78 120c4 7 8 10 16 10h15c6 0 9 -5 5 -10l-85 -120c-6 -8 -9 -10 -17 -10z" />
    <glyph glyph-name="ccircumflex" unicode="&#x109;" horiz-adv-x="468" 
d="M249 -10c-83 0 -144 45 -168 120c-9 29 -16 68 -16 127s7 98 16 127c24 75 85 120 168 120c75 0 128 -35 157 -96c3 -6 1 -11 -5 -14l-7 -3c-5 -2 -10 -1 -13 4c-28 56 -69 81 -132 81c-69 0 -118 -36 -139 -103c-9 -27 -15 -62 -15 -116s6 -89 15 -116
c21 -67 70 -103 139 -103c63 0 104 25 132 81c3 5 8 6 13 4l7 -3c6 -3 8 -8 5 -14c-29 -61 -82 -96 -157 -96zM352 560h-8c-7 0 -10 2 -16 10l-76 98h-2l-76 -98c-6 -8 -9 -10 -16 -10h-8c-6 0 -8 5 -4 10l87 121c5 7 8 9 14 9h8c6 0 9 -2 14 -9l87 -121c4 -5 2 -10 -4 -10z
" />
    <glyph glyph-name="ccaron" unicode="&#x10d;" horiz-adv-x="468" 
d="M249 -10c-83 0 -144 45 -168 120c-9 29 -16 68 -16 127s7 98 16 127c24 75 85 120 168 120c75 0 128 -35 157 -96c3 -6 1 -11 -5 -14l-7 -3c-5 -2 -10 -1 -13 4c-28 56 -69 81 -132 81c-69 0 -118 -36 -139 -103c-9 -27 -15 -62 -15 -116s6 -89 15 -116
c21 -67 70 -103 139 -103c63 0 104 25 132 81c3 5 8 6 13 4l7 -3c6 -3 8 -8 5 -14c-29 -61 -82 -96 -157 -96zM254 560h-8c-6 0 -9 2 -14 9l-87 121c-4 5 -2 10 4 10h8c7 0 10 -2 16 -10l76 -98h2l76 98c6 8 9 10 16 10h8c6 0 8 -5 4 -10l-87 -121c-5 -7 -8 -9 -14 -9z" />
    <glyph glyph-name="cdotaccent" unicode="&#x10b;" horiz-adv-x="468" 
d="M249 -10c-83 0 -144 45 -168 120c-9 29 -16 68 -16 127s7 98 16 127c24 75 85 120 168 120c75 0 128 -35 157 -96c3 -6 1 -11 -5 -14l-7 -3c-5 -2 -10 -1 -13 4c-28 56 -69 81 -132 81c-69 0 -118 -36 -139 -103c-9 -27 -15 -62 -15 -116s6 -89 15 -116
c21 -67 70 -103 139 -103c63 0 104 25 132 81c3 5 8 6 13 4l7 -3c6 -3 8 -8 5 -14c-29 -61 -82 -96 -157 -96zM262 620h-24c-6 0 -10 4 -10 10v40c0 6 4 10 10 10h24c6 0 10 -4 10 -10v-40c0 -6 -4 -10 -10 -10z" />
    <glyph glyph-name="ccedilla" unicode="&#xe7;" horiz-adv-x="468" 
d="M212 -145h-11c-6 0 -9 4 -7 10l48 125c-80 3 -138 47 -161 120c-9 29 -16 68 -16 127s7 98 16 127c24 75 85 120 168 120c75 0 128 -35 157 -96c3 -6 1 -11 -5 -14l-7 -3c-5 -2 -10 -1 -13 4c-28 56 -69 81 -132 81c-69 0 -118 -36 -139 -103c-9 -27 -15 -62 -15 -116
s6 -89 15 -116c21 -67 70 -103 139 -103c63 0 104 25 132 81c3 5 8 6 13 4l7 -3c6 -3 8 -8 5 -14c-26 -55 -72 -89 -135 -95l-43 -126c-3 -8 -7 -10 -16 -10z" />
    <glyph glyph-name="dcaron" unicode="&#x10f;" horiz-adv-x="525" 
d="M415 0h-10c-6 0 -10 4 -10 10v69h-1c-23 -51 -66 -89 -151 -89s-137 38 -161 113c-13 40 -17 86 -17 134s4 94 17 134c24 75 76 113 161 113s128 -38 151 -89h1v275c0 6 4 10 10 10h10c6 0 10 -4 10 -10v-660c0 -6 -4 -10 -10 -10zM245 18c66 0 116 31 137 95
c9 28 13 68 13 124s-4 96 -13 124c-21 64 -71 95 -137 95c-69 0 -115 -34 -135 -95c-11 -34 -15 -82 -15 -124s4 -90 15 -124c20 -61 66 -95 135 -95zM487 552c-6 0 -7 3 -7 9v109c0 6 3 10 9 10h11c6 0 9 -4 9 -10v-64c0 -10 -1 -18 -5 -28l-7 -19c-2 -4 -5 -7 -10 -7z" />
    <glyph glyph-name="dcroat" unicode="&#x111;" horiz-adv-x="525" 
d="M415 0h-10c-6 0 -10 4 -10 10v69h-1c-23 -51 -66 -89 -151 -89s-137 38 -161 113c-13 40 -17 86 -17 134s4 94 17 134c24 75 76 113 161 113s128 -38 151 -89h1v171c0 4 -2 6 -6 6h-140c-6 0 -10 4 -10 10v7c0 6 4 10 10 10h140c4 0 6 2 6 6v65c0 6 4 10 10 10h10
c6 0 10 -4 10 -10v-65c0 -4 2 -6 6 -6h37c6 0 10 -4 10 -10v-7c0 -6 -4 -10 -10 -10h-37c-4 0 -6 -2 -6 -6v-556c0 -6 -4 -10 -10 -10zM245 18c66 0 116 31 137 95c9 28 13 68 13 124s-4 96 -13 124c-21 64 -71 95 -137 95c-69 0 -115 -34 -135 -95
c-11 -34 -15 -82 -15 -124s4 -90 15 -124c20 -61 66 -95 135 -95z" />
    <glyph glyph-name="eth" unicode="&#xf0;" horiz-adv-x="502" 
d="M358 606l-83 -25l43 -52c88 -105 119 -174 119 -282c0 -70 -6 -106 -16 -137c-25 -76 -86 -120 -170 -120s-145 44 -170 120c-10 31 -16 67 -16 127s6 96 16 127c25 76 86 120 163 120c39 0 66 -9 100 -33h1l-100 121l-96 -29c-7 -2 -13 2 -14 7l-1 6c-1 6 2 10 8 12
l85 25l-65 77c-4 5 -2 10 4 10h17c8 0 12 -4 17 -10l56 -68l95 28c7 2 12 -1 13 -6l1 -6c1 -6 -1 -10 -7 -12zM251 18c69 0 121 37 142 102c9 28 14 61 14 117s-5 86 -15 115c-21 65 -72 104 -141 104s-121 -37 -142 -102c-9 -28 -14 -61 -14 -117s5 -89 14 -117
c21 -65 73 -102 142 -102z" />
    <glyph glyph-name="egrave" unicode="&#xe8;" horiz-adv-x="494" 
d="M253 -10c-88 0 -148 41 -174 122c-9 28 -14 60 -14 126c0 65 5 99 14 126c26 79 87 120 168 120s142 -40 168 -120c9 -27 14 -58 14 -118c0 -6 -4 -10 -11 -10h-317c-4 0 -6 -3 -6 -7c0 -53 4 -81 12 -107c24 -72 76 -104 146 -104c66 0 114 29 143 69c4 5 9 6 14 2l6 -5
c5 -4 5 -9 1 -14c-33 -47 -89 -80 -164 -80zM101 264h292c4 0 6 2 6 6c0 34 -4 60 -11 83c-22 69 -72 103 -141 103s-119 -34 -141 -103c-7 -23 -11 -49 -11 -83c0 -4 2 -6 6 -6zM266 560h-7c-8 0 -11 2 -17 10l-85 120c-4 5 -1 10 5 10h15c8 0 12 -3 16 -10l78 -120
c4 -6 1 -10 -5 -10z" />
    <glyph glyph-name="eacute" unicode="&#xe9;" horiz-adv-x="494" 
d="M253 -10c-88 0 -148 41 -174 122c-9 28 -14 60 -14 126c0 65 5 99 14 126c26 79 87 120 168 120s142 -40 168 -120c9 -27 14 -58 14 -118c0 -6 -4 -10 -11 -10h-317c-4 0 -6 -3 -6 -7c0 -53 4 -81 12 -107c24 -72 76 -104 146 -104c66 0 114 29 143 69c4 5 9 6 14 2l6 -5
c5 -4 5 -9 1 -14c-33 -47 -89 -80 -164 -80zM101 264h292c4 0 6 2 6 6c0 34 -4 60 -11 83c-22 69 -72 103 -141 103s-119 -34 -141 -103c-7 -23 -11 -49 -11 -83c0 -4 2 -6 6 -6zM238 560h-7c-6 0 -9 4 -5 10l78 120c4 7 8 10 16 10h15c6 0 9 -5 5 -10l-85 -120
c-6 -8 -9 -10 -17 -10z" />
    <glyph glyph-name="ecircumflex" unicode="&#xea;" horiz-adv-x="494" 
d="M253 -10c-88 0 -148 41 -174 122c-9 28 -14 60 -14 126c0 65 5 99 14 126c26 79 87 120 168 120s142 -40 168 -120c9 -27 14 -58 14 -118c0 -6 -4 -10 -11 -10h-317c-4 0 -6 -3 -6 -7c0 -53 4 -81 12 -107c24 -72 76 -104 146 -104c66 0 114 29 143 69c4 5 9 6 14 2l6 -5
c5 -4 5 -9 1 -14c-33 -47 -89 -80 -164 -80zM101 264h292c4 0 6 2 6 6c0 34 -4 60 -11 83c-22 69 -72 103 -141 103s-119 -34 -141 -103c-7 -23 -11 -49 -11 -83c0 -4 2 -6 6 -6zM348 560h-8c-7 0 -10 2 -16 10l-76 98h-2l-76 -98c-6 -8 -9 -10 -16 -10h-8c-6 0 -8 5 -4 10
l87 121c5 7 8 9 14 9h8c6 0 9 -2 14 -9l87 -121c4 -5 2 -10 -4 -10z" />
    <glyph glyph-name="ecaron" unicode="&#x11b;" horiz-adv-x="494" 
d="M253 -10c-88 0 -148 41 -174 122c-9 28 -14 60 -14 126c0 65 5 99 14 126c26 79 87 120 168 120s142 -40 168 -120c9 -27 14 -58 14 -118c0 -6 -4 -10 -11 -10h-317c-4 0 -6 -3 -6 -7c0 -53 4 -81 12 -107c24 -72 76 -104 146 -104c66 0 114 29 143 69c4 5 9 6 14 2l6 -5
c5 -4 5 -9 1 -14c-33 -47 -89 -80 -164 -80zM101 264h292c4 0 6 2 6 6c0 34 -4 60 -11 83c-22 69 -72 103 -141 103s-119 -34 -141 -103c-7 -23 -11 -49 -11 -83c0 -4 2 -6 6 -6zM251 560h-8c-6 0 -9 2 -14 9l-87 121c-4 5 -2 10 4 10h8c7 0 10 -2 16 -10l76 -98h2l76 98
c6 8 9 10 16 10h8c6 0 8 -5 4 -10l-87 -121c-5 -7 -8 -9 -14 -9z" />
    <glyph glyph-name="edieresis" unicode="&#xeb;" horiz-adv-x="494" 
d="M253 -10c-88 0 -148 41 -174 122c-9 28 -14 60 -14 126c0 65 5 99 14 126c26 79 87 120 168 120s142 -40 168 -120c9 -27 14 -58 14 -118c0 -6 -4 -10 -11 -10h-317c-4 0 -6 -3 -6 -7c0 -53 4 -81 12 -107c24 -72 76 -104 146 -104c66 0 114 29 143 69c4 5 9 6 14 2l6 -5
c5 -4 5 -9 1 -14c-33 -47 -89 -80 -164 -80zM101 264h292c4 0 6 2 6 6c0 34 -4 60 -11 83c-22 69 -72 103 -141 103s-119 -34 -141 -103c-7 -23 -11 -49 -11 -83c0 -4 2 -6 6 -6zM359 620h-24c-6 0 -10 4 -10 10v40c0 6 4 10 10 10h24c6 0 10 -4 10 -10v-40
c0 -6 -4 -10 -10 -10zM159 620h-24c-6 0 -10 4 -10 10v40c0 6 4 10 10 10h24c6 0 10 -4 10 -10v-40c0 -6 -4 -10 -10 -10z" />
    <glyph glyph-name="emacron" unicode="&#x113;" horiz-adv-x="494" 
d="M253 -10c-88 0 -148 41 -174 122c-9 28 -14 60 -14 126c0 65 5 99 14 126c26 79 87 120 168 120s142 -40 168 -120c9 -27 14 -58 14 -118c0 -6 -4 -10 -11 -10h-317c-4 0 -6 -3 -6 -7c0 -53 4 -81 12 -107c24 -72 76 -104 146 -104c66 0 114 29 143 69c4 5 9 6 14 2l6 -5
c5 -4 5 -9 1 -14c-33 -47 -89 -80 -164 -80zM101 264h292c4 0 6 2 6 6c0 34 -4 60 -11 83c-22 69 -72 103 -141 103s-119 -34 -141 -103c-7 -23 -11 -49 -11 -83c0 -4 2 -6 6 -6zM363 634h-232c-6 0 -10 4 -10 10v8c0 6 4 10 10 10h232c6 0 10 -4 10 -10v-8
c0 -6 -4 -10 -10 -10z" />
    <glyph glyph-name="ebreve" unicode="&#x115;" horiz-adv-x="494" 
d="M253 -10c-88 0 -148 41 -174 122c-9 28 -14 60 -14 126c0 65 5 99 14 126c26 79 87 120 168 120s142 -40 168 -120c9 -27 14 -58 14 -118c0 -6 -4 -10 -11 -10h-317c-4 0 -6 -3 -6 -7c0 -53 4 -81 12 -107c24 -72 76 -104 146 -104c66 0 114 29 143 69c4 5 9 6 14 2l6 -5
c5 -4 5 -9 1 -14c-33 -47 -89 -80 -164 -80zM101 264h292c4 0 6 2 6 6c0 34 -4 60 -11 83c-22 69 -72 103 -141 103s-119 -34 -141 -103c-7 -23 -11 -49 -11 -83c0 -4 2 -6 6 -6zM247 579c-61 0 -106 38 -116 94c-1 6 3 10 9 10h7c7 0 9 -4 11 -10c12 -43 43 -67 89 -67
s78 24 90 67c2 6 4 10 11 10h6c6 0 10 -4 9 -10c-10 -56 -55 -94 -116 -94z" />
    <glyph glyph-name="edotaccent" unicode="&#x117;" horiz-adv-x="494" 
d="M253 -10c-88 0 -148 41 -174 122c-9 28 -14 60 -14 126c0 65 5 99 14 126c26 79 87 120 168 120s142 -40 168 -120c9 -27 14 -58 14 -118c0 -6 -4 -10 -11 -10h-317c-4 0 -6 -3 -6 -7c0 -53 4 -81 12 -107c24 -72 76 -104 146 -104c66 0 114 29 143 69c4 5 9 6 14 2l6 -5
c5 -4 5 -9 1 -14c-33 -47 -89 -80 -164 -80zM101 264h292c4 0 6 2 6 6c0 34 -4 60 -11 83c-22 69 -72 103 -141 103s-119 -34 -141 -103c-7 -23 -11 -49 -11 -83c0 -4 2 -6 6 -6zM259 620h-24c-6 0 -10 4 -10 10v40c0 6 4 10 10 10h24c6 0 10 -4 10 -10v-40
c0 -6 -4 -10 -10 -10z" />
    <glyph glyph-name="eogonek" unicode="&#x119;" horiz-adv-x="494" 
d="M330 -162c-37 0 -59 22 -59 57c0 32 16 62 54 106c-22 -7 -46 -11 -72 -11c-88 0 -148 41 -174 122c-9 28 -14 60 -14 126c0 65 5 99 14 126c26 79 87 120 168 120s142 -40 168 -120c9 -27 14 -58 14 -118c0 -6 -4 -10 -11 -10h-317c-4 0 -6 -3 -6 -7
c0 -53 4 -81 12 -107c24 -72 76 -104 146 -104c66 0 114 29 143 69c4 5 9 6 14 2l6 -5c5 -4 5 -9 1 -14c-9 -12 -18 -23 -29 -33c-77 -87 -87 -114 -87 -141c0 -19 12 -30 30 -30c10 0 21 5 31 11c5 3 11 2 14 -3l3 -5c3 -5 2 -10 -3 -14c-9 -8 -28 -17 -46 -17zM393 264
c4 0 6 2 6 6c0 34 -4 60 -11 83c-22 69 -72 103 -141 103s-119 -34 -141 -103c-7 -23 -11 -49 -11 -83c0 -4 2 -6 6 -6h292z" />
    <glyph glyph-name="gcircumflex" unicode="&#x11d;" horiz-adv-x="517" 
d="M239 -190c-69 0 -127 31 -150 68c-3 5 -3 11 2 14l8 5c5 3 10 2 14 -3c27 -35 69 -56 126 -56c90 0 148 44 148 161v80h-1c-23 -53 -65 -89 -148 -89c-80 0 -134 42 -157 113c-11 33 -16 75 -16 134s5 101 16 134c23 71 77 113 157 113c83 0 125 -36 148 -89h1v69
c0 6 4 10 10 10h10c6 0 10 -4 10 -10v-465c0 -131 -71 -189 -178 -189zM241 18c59 0 110 25 133 95c10 29 13 65 13 124s-3 95 -13 124c-23 70 -74 95 -133 95c-65 0 -110 -32 -131 -94c-10 -30 -15 -70 -15 -125s5 -95 15 -125c21 -62 66 -94 131 -94zM349 560h-8
c-7 0 -10 2 -16 10l-76 98h-2l-76 -98c-6 -8 -9 -10 -16 -10h-8c-6 0 -8 5 -4 10l87 121c5 7 8 9 14 9h8c6 0 9 -2 14 -9l87 -121c4 -5 2 -10 -4 -10z" />
    <glyph glyph-name="gbreve" unicode="&#x11f;" horiz-adv-x="517" 
d="M239 -190c-69 0 -127 31 -150 68c-3 5 -3 11 2 14l8 5c5 3 10 2 14 -3c27 -35 69 -56 126 -56c90 0 148 44 148 161v80h-1c-23 -53 -65 -89 -148 -89c-80 0 -134 42 -157 113c-11 33 -16 75 -16 134s5 101 16 134c23 71 77 113 157 113c83 0 125 -36 148 -89h1v69
c0 6 4 10 10 10h10c6 0 10 -4 10 -10v-465c0 -131 -71 -189 -178 -189zM241 18c59 0 110 25 133 95c10 29 13 65 13 124s-3 95 -13 124c-23 70 -74 95 -133 95c-65 0 -110 -32 -131 -94c-10 -30 -15 -70 -15 -125s5 -95 15 -125c21 -62 66 -94 131 -94zM252 579
c-61 0 -106 38 -116 94c-1 6 3 10 9 10h7c7 0 9 -4 11 -10c12 -43 43 -67 89 -67s78 24 90 67c2 6 4 10 11 10h6c6 0 10 -4 9 -10c-10 -56 -55 -94 -116 -94z" />
    <glyph glyph-name="gdotaccent" unicode="&#x121;" horiz-adv-x="517" 
d="M239 -190c-69 0 -127 31 -150 68c-3 5 -3 11 2 14l8 5c5 3 10 2 14 -3c27 -35 69 -56 126 -56c90 0 148 44 148 161v80h-1c-23 -53 -65 -89 -148 -89c-80 0 -134 42 -157 113c-11 33 -16 75 -16 134s5 101 16 134c23 71 77 113 157 113c83 0 125 -36 148 -89h1v69
c0 6 4 10 10 10h10c6 0 10 -4 10 -10v-465c0 -131 -71 -189 -178 -189zM241 18c59 0 110 25 133 95c10 29 13 65 13 124s-3 95 -13 124c-23 70 -74 95 -133 95c-65 0 -110 -32 -131 -94c-10 -30 -15 -70 -15 -125s5 -95 15 -125c21 -62 66 -94 131 -94zM265 620h-24
c-6 0 -10 4 -10 10v40c0 6 4 10 10 10h24c6 0 10 -4 10 -10v-40c0 -6 -4 -10 -10 -10z" />
    <glyph glyph-name="gcommaaccent" unicode="&#x123;" horiz-adv-x="517" 
d="M239 -190c-69 0 -127 31 -150 68c-3 5 -3 11 2 14l8 5c5 3 10 2 14 -3c27 -35 69 -56 126 -56c90 0 148 44 148 161v80h-1c-23 -53 -65 -89 -148 -89c-80 0 -134 42 -157 113c-11 33 -16 75 -16 134s5 101 16 134c23 71 77 113 157 113c83 0 125 -36 148 -89h1v69
c0 6 4 10 10 10h10c6 0 10 -4 10 -10v-465c0 -131 -71 -189 -178 -189zM241 18c59 0 110 25 133 95c10 29 13 65 13 124s-3 95 -13 124c-23 70 -74 95 -133 95c-65 0 -110 -32 -131 -94c-10 -30 -15 -70 -15 -125s5 -95 15 -125c21 -62 66 -94 131 -94zM257 700
c6 0 7 -3 7 -9v-109c0 -6 -3 -10 -9 -10h-11c-6 0 -9 4 -9 10v64c0 10 1 18 5 28l7 19c2 4 5 7 10 7z" />
    <glyph glyph-name="hcircumflex" unicode="&#x125;" horiz-adv-x="538" 
d="M434 0h-10c-6 0 -10 4 -10 10v284c0 112 -46 162 -139 162c-79 0 -145 -54 -145 -147v-299c0 -6 -4 -10 -10 -10h-10c-6 0 -10 4 -10 10v660c0 6 4 10 10 10h10c6 0 10 -4 10 -10v-273h1c24 55 78 87 146 87c107 0 167 -61 167 -183v-291c0 -6 -4 -10 -10 -10zM375 755
h-8c-7 0 -10 2 -16 10l-76 98h-2l-76 -98c-6 -8 -9 -10 -16 -10h-8c-6 0 -8 5 -4 10l87 121c5 7 8 9 14 9h8c6 0 9 -2 14 -9l87 -121c4 -5 2 -10 -4 -10z" />
    <glyph glyph-name="hbar" unicode="&#x127;" horiz-adv-x="538" 
d="M434 0h-10c-6 0 -10 4 -10 10v284c0 112 -46 162 -139 162c-79 0 -145 -54 -145 -147v-299c0 -6 -4 -10 -10 -10h-10c-6 0 -10 4 -10 10v556c0 4 -2 6 -6 6h-37c-6 0 -10 4 -10 10v7c0 6 4 10 10 10h37c4 0 6 2 6 6v65c0 6 4 10 10 10h10c6 0 10 -4 10 -10v-65
c0 -4 2 -6 6 -6h140c6 0 10 -4 10 -10v-7c0 -6 -4 -10 -10 -10h-140c-4 0 -6 -2 -6 -6v-169h1c24 55 78 87 146 87c107 0 167 -61 167 -183v-291c0 -6 -4 -10 -10 -10z" />
    <glyph glyph-name="dotlessi" unicode="&#x131;" horiz-adv-x="230" 
d="M120 0h-10c-6 0 -10 4 -10 10v454c0 6 4 10 10 10h10c6 0 10 -4 10 -10v-454c0 -6 -4 -10 -10 -10z" />
    <glyph glyph-name="igrave" unicode="&#xec;" horiz-adv-x="230" 
d="M120 0h-10c-6 0 -10 4 -10 10v454c0 6 4 10 10 10h10c6 0 10 -4 10 -10v-454c0 -6 -4 -10 -10 -10zM128 560h-7c-8 0 -11 2 -17 10l-85 120c-4 5 -1 10 5 10h15c8 0 12 -3 16 -10l78 -120c4 -6 1 -10 -5 -10z" />
    <glyph glyph-name="iacute" unicode="&#xed;" horiz-adv-x="230" 
d="M120 0h-10c-6 0 -10 4 -10 10v454c0 6 4 10 10 10h10c6 0 10 -4 10 -10v-454c0 -6 -4 -10 -10 -10zM109 560h-7c-6 0 -9 4 -5 10l78 120c4 7 8 10 16 10h15c6 0 9 -5 5 -10l-85 -120c-6 -8 -9 -10 -17 -10z" />
    <glyph glyph-name="icircumflex" unicode="&#xee;" horiz-adv-x="230" 
d="M120 0h-10c-6 0 -10 4 -10 10v454c0 6 4 10 10 10h10c6 0 10 -4 10 -10v-454c0 -6 -4 -10 -10 -10zM216 560h-8c-7 0 -10 2 -16 10l-76 98h-2l-76 -98c-6 -8 -9 -10 -16 -10h-8c-6 0 -8 5 -4 10l87 121c5 7 8 9 14 9h8c6 0 9 -2 14 -9l87 -121c4 -5 2 -10 -4 -10z" />
    <glyph glyph-name="itilde" unicode="&#x129;" horiz-adv-x="230" 
d="M120 0h-10c-6 0 -10 4 -10 10v454c0 6 4 10 10 10h10c6 0 10 -4 10 -10v-454c0 -6 -4 -10 -10 -10zM166 613c-23 0 -41 11 -57 21c-14 9 -29 18 -46 18c-20 0 -36 -13 -55 -34c-4 -4 -8 -2 -8 3v15c0 5 1 8 7 14c15 16 34 28 57 28s42 -11 57 -21s29 -18 46 -18
c20 0 36 13 55 34c4 4 8 2 8 -3v-15c0 -5 -1 -8 -7 -14c-15 -16 -34 -28 -57 -28z" />
    <glyph glyph-name="idieresis" unicode="&#xef;" horiz-adv-x="230" 
d="M120 0h-10c-6 0 -10 4 -10 10v454c0 6 4 10 10 10h10c6 0 10 -4 10 -10v-454c0 -6 -4 -10 -10 -10zM227 620h-24c-6 0 -10 4 -10 10v40c0 6 4 10 10 10h24c6 0 10 -4 10 -10v-40c0 -6 -4 -10 -10 -10zM27 620h-24c-6 0 -10 4 -10 10v40c0 6 4 10 10 10h24
c6 0 10 -4 10 -10v-40c0 -6 -4 -10 -10 -10z" />
    <glyph glyph-name="imacron" unicode="&#x12b;" horiz-adv-x="230" 
d="M120 0h-10c-6 0 -10 4 -10 10v454c0 6 4 10 10 10h10c6 0 10 -4 10 -10v-454c0 -6 -4 -10 -10 -10zM231 634h-232c-6 0 -10 4 -10 10v8c0 6 4 10 10 10h232c6 0 10 -4 10 -10v-8c0 -6 -4 -10 -10 -10z" />
    <glyph glyph-name="ibreve" unicode="&#x12d;" horiz-adv-x="230" 
d="M120 0h-10c-6 0 -10 4 -10 10v454c0 6 4 10 10 10h10c6 0 10 -4 10 -10v-454c0 -6 -4 -10 -10 -10zM115 579c-61 0 -106 38 -116 94c-1 6 3 10 9 10h7c7 0 9 -4 11 -10c12 -43 43 -67 89 -67s78 24 90 67c2 6 4 10 11 10h6c6 0 10 -4 9 -10c-10 -56 -55 -94 -116 -94z
" />
    <glyph glyph-name="iogonek" unicode="&#x12f;" horiz-adv-x="230" 
d="M127 620h-24c-6 0 -10 4 -10 10v40c0 6 4 10 10 10h24c6 0 10 -4 10 -10v-40c0 -6 -4 -10 -10 -10zM92 -162c-37 0 -59 21 -59 57c0 29 12 53 67 112v457c0 6 4 10 10 10h10c6 0 10 -4 10 -10v-454c0 -4 -1 -6 -4 -9c-58 -62 -63 -82 -63 -104c0 -19 12 -31 31 -31
c10 0 20 5 30 11c5 3 11 2 14 -3l3 -5c3 -5 2 -10 -3 -14c-9 -8 -28 -17 -46 -17z" />
    <glyph glyph-name="dotlessj" unicode="&#x237;" horiz-adv-x="230" 
d="M23 -180h-4c-6 0 -10 4 -10 10v8c0 6 4 10 10 10h4c60 0 77 14 77 81v535c0 6 4 10 10 10h10c6 0 10 -4 10 -10v-535c0 -84 -26 -109 -107 -109z" />
    <glyph glyph-name="jcircumflex" unicode="&#x135;" horiz-adv-x="230" 
d="M23 -180h-4c-6 0 -10 4 -10 10v8c0 6 4 10 10 10h4c60 0 77 14 77 81v535c0 6 4 10 10 10h10c6 0 10 -4 10 -10v-535c0 -84 -26 -109 -107 -109zM216 560h-8c-7 0 -10 2 -16 10l-76 98h-2l-76 -98c-6 -8 -9 -10 -16 -10h-8c-6 0 -8 5 -4 10l87 121c5 7 8 9 14 9h8
c6 0 9 -2 14 -9l87 -121c4 -5 2 -10 -4 -10z" />
    <glyph glyph-name="kcommaaccent" unicode="&#x137;" horiz-adv-x="490" 
d="M440 0h-13c-7 0 -10 2 -15 10l-165 269l-117 -140v-129c0 -6 -4 -10 -10 -10h-10c-6 0 -10 4 -10 10v660c0 6 4 10 10 10h10c6 0 10 -4 10 -10v-488l237 283c6 7 9 9 16 9h15c6 0 9 -5 5 -10l-136 -162l179 -292c3 -5 0 -10 -6 -10zM237 -183c-6 0 -7 3 -7 9v109
c0 6 3 10 9 10h11c6 0 9 -4 9 -10v-64c0 -10 -1 -18 -5 -28l-7 -19c-2 -4 -5 -7 -10 -7z" />
    <glyph glyph-name="kgreenlandic" unicode="&#x138;" horiz-adv-x="490" 
d="M440 0h-13c-7 0 -10 2 -15 10l-165 269l-117 -140v-129c0 -6 -4 -10 -10 -10h-10c-6 0 -10 4 -10 10v454c0 6 4 10 10 10h10c6 0 10 -4 10 -10v-282l237 283c6 7 9 9 16 9h15c6 0 9 -5 5 -10l-136 -162l179 -292c3 -5 0 -10 -6 -10z" />
    <glyph glyph-name="lacute" unicode="&#x13a;" horiz-adv-x="249" 
d="M199 -2h-15c-62 0 -85 28 -85 99v573c0 6 4 10 10 10h10c6 0 10 -4 10 -10v-573c0 -54 15 -71 55 -71h15c6 0 10 -4 10 -10v-8c0 -6 -4 -10 -10 -10zM120 765h-7c-6 0 -9 4 -4 10l80 103c7 8 10 10 17 10h15c6 0 8 -5 4 -10l-87 -103c-8 -9 -10 -10 -18 -10z" />
    <glyph glyph-name="lcaron" unicode="&#x13e;" horiz-adv-x="249" 
d="M199 -2h-15c-62 0 -85 28 -85 99v573c0 6 4 10 10 10h10c6 0 10 -4 10 -10v-573c0 -54 15 -71 55 -71h15c6 0 10 -4 10 -10v-8c0 -6 -4 -10 -10 -10zM192 552c-6 0 -7 3 -7 9v109c0 6 3 10 9 10h11c6 0 9 -4 9 -10v-64c0 -10 -1 -18 -5 -28l-7 -19c-2 -4 -5 -7 -10 -7z
" />
    <glyph glyph-name="lcommaaccent" unicode="&#x13c;" horiz-adv-x="249" 
d="M199 -2h-15c-62 0 -85 28 -85 99v573c0 6 4 10 10 10h10c6 0 10 -4 10 -10v-573c0 -54 15 -71 55 -71h15c6 0 10 -4 10 -10v-8c0 -6 -4 -10 -10 -10zM147 -183c-6 0 -7 3 -7 9v109c0 6 3 10 9 10h11c6 0 9 -4 9 -10v-64c0 -10 -1 -18 -5 -28l-7 -19c-2 -4 -5 -7 -10 -7z
" />
    <glyph glyph-name="lslash" unicode="&#x142;" horiz-adv-x="249" 
d="M199 392l-70 -36v-259c0 -54 15 -71 55 -71h15c6 0 10 -4 10 -10v-8c0 -6 -4 -10 -10 -10h-15c-62 0 -85 28 -85 99v244l-41 -21c-6 -3 -10 0 -10 6v12c0 6 2 10 10 14l41 21v297c0 6 4 10 10 10h10c6 0 10 -4 10 -10v-282l70 36c6 3 10 0 10 -6v-12c0 -6 -2 -10 -10 -14
z" />
    <glyph glyph-name="ldot" unicode="&#x140;" horiz-adv-x="249" 
d="M199 -2h-15c-62 0 -85 28 -85 99v573c0 6 4 10 10 10h10c6 0 10 -4 10 -10v-573c0 -54 15 -71 55 -71h15c6 0 10 -4 10 -10v-8c0 -6 -4 -10 -10 -10zM252 291h-28c-6 0 -10 4 -10 10v50c0 6 4 10 10 10h28c6 0 10 -4 10 -10v-50c0 -6 -4 -10 -10 -10z" />
    <glyph glyph-name="nacute" unicode="&#x144;" horiz-adv-x="538" 
d="M434 0h-10c-6 0 -10 4 -10 10v284c0 112 -46 162 -139 162c-79 0 -145 -54 -145 -147v-299c0 -6 -4 -10 -10 -10h-10c-6 0 -10 4 -10 10v454c0 6 4 10 10 10h10c6 0 10 -4 10 -10v-67h1c24 55 78 87 146 87c107 0 167 -61 167 -183v-291c0 -6 -4 -10 -10 -10zM239 560h-7
c-6 0 -9 4 -5 10l78 120c4 7 8 10 16 10h15c6 0 9 -5 5 -10l-85 -120c-6 -8 -9 -10 -17 -10z" />
    <glyph glyph-name="ncaron" unicode="&#x148;" horiz-adv-x="538" 
d="M434 0h-10c-6 0 -10 4 -10 10v284c0 112 -46 162 -139 162c-79 0 -145 -54 -145 -147v-299c0 -6 -4 -10 -10 -10h-10c-6 0 -10 4 -10 10v454c0 6 4 10 10 10h10c6 0 10 -4 10 -10v-67h1c24 55 78 87 146 87c107 0 167 -61 167 -183v-291c0 -6 -4 -10 -10 -10zM273 560h-8
c-6 0 -9 2 -14 9l-87 121c-4 5 -2 10 4 10h8c7 0 10 -2 16 -10l76 -98h2l76 98c6 8 9 10 16 10h8c6 0 8 -5 4 -10l-87 -121c-5 -7 -8 -9 -14 -9z" />
    <glyph glyph-name="ntilde" unicode="&#xf1;" horiz-adv-x="538" 
d="M434 0h-10c-6 0 -10 4 -10 10v284c0 112 -46 162 -139 162c-79 0 -145 -54 -145 -147v-299c0 -6 -4 -10 -10 -10h-10c-6 0 -10 4 -10 10v454c0 6 4 10 10 10h10c6 0 10 -4 10 -10v-67h1c24 55 78 87 146 87c107 0 167 -61 167 -183v-291c0 -6 -4 -10 -10 -10zM320 613
c-23 0 -41 11 -57 21c-14 9 -29 18 -46 18c-20 0 -36 -13 -55 -34c-4 -4 -8 -2 -8 3v15c0 5 1 8 7 14c15 16 34 28 57 28s42 -11 57 -21s29 -18 46 -18c20 0 36 13 55 34c4 4 8 2 8 -3v-15c0 -5 -1 -8 -7 -14c-15 -16 -34 -28 -57 -28z" />
    <glyph glyph-name="ncommaaccent" unicode="&#x146;" horiz-adv-x="538" 
d="M434 0h-10c-6 0 -10 4 -10 10v284c0 112 -46 162 -139 162c-79 0 -145 -54 -145 -147v-299c0 -6 -4 -10 -10 -10h-10c-6 0 -10 4 -10 10v454c0 6 4 10 10 10h10c6 0 10 -4 10 -10v-67h1c24 55 78 87 146 87c107 0 167 -61 167 -183v-291c0 -6 -4 -10 -10 -10zM261 -183
c-6 0 -7 3 -7 9v109c0 6 3 10 9 10h11c6 0 9 -4 9 -10v-64c0 -10 -1 -18 -5 -28l-7 -19c-2 -4 -5 -7 -10 -7z" />
    <glyph glyph-name="eng" unicode="&#x14b;" horiz-adv-x="538" 
d="M337 -180h-4c-6 0 -10 4 -10 10v8c0 6 4 10 10 10h4c60 0 77 14 77 81v365c0 112 -46 162 -139 162c-79 0 -145 -54 -145 -147v-299c0 -6 -4 -10 -10 -10h-10c-6 0 -10 4 -10 10v454c0 6 4 10 10 10h10c6 0 10 -4 10 -10v-67h1c24 55 78 87 146 87
c107 0 167 -61 167 -183v-372c0 -84 -26 -109 -107 -109z" />
    <glyph glyph-name="ograve" unicode="&#xf2;" horiz-adv-x="502" 
d="M251 -10c-84 0 -145 44 -170 120c-10 31 -16 67 -16 127s6 96 16 127c25 76 86 120 170 120s145 -44 170 -120c10 -31 16 -67 16 -127s-6 -96 -16 -127c-25 -76 -86 -120 -170 -120zM251 18c69 0 121 37 142 102c9 28 14 61 14 117s-5 89 -14 117
c-21 65 -73 102 -142 102s-121 -37 -142 -102c-9 -28 -14 -61 -14 -117s5 -89 14 -117c21 -65 73 -102 142 -102zM269 560h-7c-8 0 -11 2 -17 10l-85 120c-4 5 -1 10 5 10h15c8 0 12 -3 16 -10l78 -120c4 -6 1 -10 -5 -10z" />
    <glyph glyph-name="oacute" unicode="&#xf3;" horiz-adv-x="502" 
d="M251 -10c-84 0 -145 44 -170 120c-10 31 -16 67 -16 127s6 96 16 127c25 76 86 120 170 120s145 -44 170 -120c10 -31 16 -67 16 -127s-6 -96 -16 -127c-25 -76 -86 -120 -170 -120zM251 18c69 0 121 37 142 102c9 28 14 61 14 117s-5 89 -14 117
c-21 65 -73 102 -142 102s-121 -37 -142 -102c-9 -28 -14 -61 -14 -117s5 -89 14 -117c21 -65 73 -102 142 -102zM240 560h-7c-6 0 -9 4 -5 10l78 120c4 7 8 10 16 10h15c6 0 9 -5 5 -10l-85 -120c-6 -8 -9 -10 -17 -10z" />
    <glyph glyph-name="ocircumflex" unicode="&#xf4;" horiz-adv-x="502" 
d="M251 -10c-84 0 -145 44 -170 120c-10 31 -16 67 -16 127s6 96 16 127c25 76 86 120 170 120s145 -44 170 -120c10 -31 16 -67 16 -127s-6 -96 -16 -127c-25 -76 -86 -120 -170 -120zM251 18c69 0 121 37 142 102c9 28 14 61 14 117s-5 89 -14 117
c-21 65 -73 102 -142 102s-121 -37 -142 -102c-9 -28 -14 -61 -14 -117s5 -89 14 -117c21 -65 73 -102 142 -102zM352 560h-8c-7 0 -10 2 -16 10l-76 98h-2l-76 -98c-6 -8 -9 -10 -16 -10h-8c-6 0 -8 5 -4 10l87 121c5 7 8 9 14 9h8c6 0 9 -2 14 -9l87 -121
c4 -5 2 -10 -4 -10z" />
    <glyph glyph-name="otilde" unicode="&#xf5;" horiz-adv-x="502" 
d="M251 -10c-84 0 -145 44 -170 120c-10 31 -16 67 -16 127s6 96 16 127c25 76 86 120 170 120s145 -44 170 -120c10 -31 16 -67 16 -127s-6 -96 -16 -127c-25 -76 -86 -120 -170 -120zM251 18c69 0 121 37 142 102c9 28 14 61 14 117s-5 89 -14 117
c-21 65 -73 102 -142 102s-121 -37 -142 -102c-9 -28 -14 -61 -14 -117s5 -89 14 -117c21 -65 73 -102 142 -102zM302 613c-23 0 -41 11 -57 21c-14 9 -29 18 -46 18c-20 0 -36 -13 -55 -34c-4 -4 -8 -2 -8 3v15c0 5 1 8 7 14c15 16 34 28 57 28s42 -11 57 -21
s29 -18 46 -18c20 0 36 13 55 34c4 4 8 2 8 -3v-15c0 -5 -1 -8 -7 -14c-15 -16 -34 -28 -57 -28z" />
    <glyph glyph-name="odieresis" unicode="&#xf6;" horiz-adv-x="502" 
d="M251 -10c-84 0 -145 44 -170 120c-10 31 -16 67 -16 127s6 96 16 127c25 76 86 120 170 120s145 -44 170 -120c10 -31 16 -67 16 -127s-6 -96 -16 -127c-25 -76 -86 -120 -170 -120zM251 18c69 0 121 37 142 102c9 28 14 61 14 117s-5 89 -14 117
c-21 65 -73 102 -142 102s-121 -37 -142 -102c-9 -28 -14 -61 -14 -117s5 -89 14 -117c21 -65 73 -102 142 -102zM363 620h-24c-6 0 -10 4 -10 10v40c0 6 4 10 10 10h24c6 0 10 -4 10 -10v-40c0 -6 -4 -10 -10 -10zM163 620h-24c-6 0 -10 4 -10 10v40c0 6 4 10 10 10h24
c6 0 10 -4 10 -10v-40c0 -6 -4 -10 -10 -10z" />
    <glyph glyph-name="omacron" unicode="&#x14d;" horiz-adv-x="502" 
d="M251 -10c-84 0 -145 44 -170 120c-10 31 -16 67 -16 127s6 96 16 127c25 76 86 120 170 120s145 -44 170 -120c10 -31 16 -67 16 -127s-6 -96 -16 -127c-25 -76 -86 -120 -170 -120zM251 18c69 0 121 37 142 102c9 28 14 61 14 117s-5 89 -14 117
c-21 65 -73 102 -142 102s-121 -37 -142 -102c-9 -28 -14 -61 -14 -117s5 -89 14 -117c21 -65 73 -102 142 -102zM367 634h-232c-6 0 -10 4 -10 10v8c0 6 4 10 10 10h232c6 0 10 -4 10 -10v-8c0 -6 -4 -10 -10 -10z" />
    <glyph glyph-name="obreve" unicode="&#x14f;" horiz-adv-x="502" 
d="M251 -10c-84 0 -145 44 -170 120c-10 31 -16 67 -16 127s6 96 16 127c25 76 86 120 170 120s145 -44 170 -120c10 -31 16 -67 16 -127s-6 -96 -16 -127c-25 -76 -86 -120 -170 -120zM251 18c69 0 121 37 142 102c9 28 14 61 14 117s-5 89 -14 117
c-21 65 -73 102 -142 102s-121 -37 -142 -102c-9 -28 -14 -61 -14 -117s5 -89 14 -117c21 -65 73 -102 142 -102zM251 579c-61 0 -106 38 -116 94c-1 6 3 10 9 10h7c7 0 9 -4 11 -10c12 -43 43 -67 89 -67s78 24 90 67c2 6 4 10 11 10h6c6 0 10 -4 9 -10
c-10 -56 -55 -94 -116 -94z" />
    <glyph glyph-name="ohungarumlaut" unicode="&#x151;" horiz-adv-x="502" 
d="M251 -10c-84 0 -145 44 -170 120c-10 31 -16 67 -16 127s6 96 16 127c25 76 86 120 170 120s145 -44 170 -120c10 -31 16 -67 16 -127s-6 -96 -16 -127c-25 -76 -86 -120 -170 -120zM251 18c69 0 121 37 142 102c9 28 14 61 14 117s-5 89 -14 117
c-21 65 -73 102 -142 102s-121 -37 -142 -102c-9 -28 -14 -61 -14 -117s5 -89 14 -117c21 -65 73 -102 142 -102zM311 560h-7c-6 0 -8 4 -5 10l68 120c4 7 8 10 16 10h13c6 0 8 -5 5 -10l-76 -122c-4 -6 -6 -8 -14 -8zM201 560h-7c-6 0 -8 4 -5 10l68 120c4 7 8 10 16 10h13
c6 0 8 -5 5 -10l-76 -122c-4 -6 -6 -8 -14 -8z" />
    <glyph glyph-name="oslash" unicode="&#xf8;" horiz-adv-x="502" 
d="M81 -30h-9c-6 0 -8 5 -5 10l46 70c-14 17 -25 37 -32 60c-10 31 -16 67 -16 127s6 96 16 127c25 76 86 120 170 120c48 0 89 -15 119 -42l35 52c5 8 9 10 16 10h9c6 0 8 -5 5 -10l-46 -71c13 -16 24 -36 32 -59c10 -31 16 -67 16 -127s-6 -96 -16 -127
c-25 -76 -86 -120 -170 -120c-49 0 -90 14 -120 41l-34 -51c-5 -8 -9 -10 -16 -10zM109 120c5 -17 12 -31 21 -44l224 341c-26 25 -62 39 -103 39c-69 0 -121 -37 -142 -102c-9 -28 -14 -61 -14 -117s5 -89 14 -117zM251 18c69 0 121 37 142 102c9 28 14 61 14 117
s-5 89 -14 117c-5 16 -12 30 -21 43l-225 -341c26 -25 62 -38 104 -38z" />
    <glyph glyph-name="oe" unicode="&#x153;" horiz-adv-x="836" 
d="M595 -10c-85 0 -146 40 -173 118h-1c-25 -75 -86 -118 -170 -118s-145 44 -170 120c-10 31 -16 67 -16 127s6 96 16 127c25 76 86 120 170 120c83 0 145 -44 170 -119h1c27 77 87 119 167 119c81 0 142 -40 168 -120c9 -27 14 -58 14 -118c0 -6 -4 -10 -11 -10h-317
c-4 0 -6 -3 -6 -7c0 -53 4 -81 12 -107c24 -72 76 -104 146 -104c66 0 114 29 143 69c4 5 9 6 14 2l6 -5c5 -4 5 -9 1 -14c-33 -47 -89 -80 -164 -80zM735 264c4 0 6 2 6 6c0 34 -4 60 -11 83c-22 69 -72 103 -141 103s-119 -34 -141 -103c-7 -23 -11 -49 -11 -83
c0 -4 2 -6 6 -6h292zM251 18c69 0 121 37 142 102c9 28 14 61 14 117s-5 89 -14 117c-21 65 -73 102 -142 102s-121 -37 -142 -102c-9 -28 -14 -61 -14 -117s5 -89 14 -117c21 -65 73 -102 142 -102z" />
    <glyph glyph-name="racute" unicode="&#x155;" horiz-adv-x="384" 
d="M120 0h-10c-6 0 -10 4 -10 10v454c0 6 4 10 10 10h10c6 0 10 -4 10 -10v-71h1c15 53 59 91 129 91c37 0 71 -12 94 -29c4 -3 5 -8 2 -13l-6 -8c-4 -5 -10 -5 -15 -2c-23 14 -48 24 -79 24c-93 0 -126 -87 -126 -181v-265c0 -6 -4 -10 -10 -10zM189 560h-7
c-6 0 -9 4 -5 10l78 120c4 7 8 10 16 10h15c6 0 9 -5 5 -10l-85 -120c-6 -8 -9 -10 -17 -10z" />
    <glyph glyph-name="rcaron" unicode="&#x159;" horiz-adv-x="384" 
d="M120 0h-10c-6 0 -10 4 -10 10v454c0 6 4 10 10 10h10c6 0 10 -4 10 -10v-71h1c15 53 59 91 129 91c37 0 71 -12 94 -29c4 -3 5 -8 2 -13l-6 -8c-4 -5 -10 -5 -15 -2c-23 14 -48 24 -79 24c-93 0 -126 -87 -126 -181v-265c0 -6 -4 -10 -10 -10zM225 560h-8
c-6 0 -9 2 -14 9l-87 121c-4 5 -2 10 4 10h8c7 0 10 -2 16 -10l76 -98h2l76 98c6 8 9 10 16 10h8c6 0 8 -5 4 -10l-87 -121c-5 -7 -8 -9 -14 -9z" />
    <glyph glyph-name="rcommaaccent" unicode="&#x157;" horiz-adv-x="384" 
d="M120 0h-10c-6 0 -10 4 -10 10v454c0 6 4 10 10 10h10c6 0 10 -4 10 -10v-71h1c15 53 59 91 129 91c37 0 71 -12 94 -29c4 -3 5 -8 2 -13l-6 -8c-4 -5 -10 -5 -15 -2c-23 14 -48 24 -79 24c-93 0 -126 -87 -126 -181v-265c0 -6 -4 -10 -10 -10zM107 -183c-6 0 -7 3 -7 9
v109c0 6 3 10 9 10h11c6 0 9 -4 9 -10v-64c0 -10 -1 -18 -5 -28l-7 -19c-2 -4 -5 -7 -10 -7z" />
    <glyph glyph-name="sacute" unicode="&#x15b;" horiz-adv-x="475" 
d="M239 -10c-82 0 -143 35 -178 63c-4 4 -4 10 0 14l7 7c4 4 10 3 14 0c38 -29 90 -56 162 -56c93 0 139 44 139 109c0 58 -23 89 -122 100l-47 5c-85 9 -134 48 -134 119c0 85 61 133 160 133c60 0 112 -19 148 -40c5 -3 6 -9 2 -14l-4 -6c-3 -5 -9 -6 -14 -3
c-32 16 -83 35 -135 35c-83 0 -127 -38 -127 -102c0 -57 34 -86 123 -95l47 -5c89 -9 133 -51 133 -122c0 -88 -61 -142 -174 -142zM226 560h-7c-6 0 -9 4 -5 10l78 120c4 7 8 10 16 10h15c6 0 9 -5 5 -10l-85 -120c-6 -8 -9 -10 -17 -10z" />
    <glyph glyph-name="scircumflex" unicode="&#x15d;" horiz-adv-x="475" 
d="M239 -10c-82 0 -143 35 -178 63c-4 4 -4 10 0 14l7 7c4 4 10 3 14 0c38 -29 90 -56 162 -56c93 0 139 44 139 109c0 58 -23 89 -122 100l-47 5c-85 9 -134 48 -134 119c0 85 61 133 160 133c60 0 112 -19 148 -40c5 -3 6 -9 2 -14l-4 -6c-3 -5 -9 -6 -14 -3
c-32 16 -83 35 -135 35c-83 0 -127 -38 -127 -102c0 -57 34 -86 123 -95l47 -5c89 -9 133 -51 133 -122c0 -88 -61 -142 -174 -142zM341 560h-8c-7 0 -10 2 -16 10l-76 98h-2l-76 -98c-6 -8 -9 -10 -16 -10h-8c-6 0 -8 5 -4 10l87 121c5 7 8 9 14 9h8c6 0 9 -2 14 -9
l87 -121c4 -5 2 -10 -4 -10z" />
    <glyph glyph-name="scaron" unicode="&#x161;" horiz-adv-x="475" 
d="M239 -10c-82 0 -143 35 -178 63c-4 4 -4 10 0 14l7 7c4 4 10 3 14 0c38 -29 90 -56 162 -56c93 0 139 44 139 109c0 58 -23 89 -122 100l-47 5c-85 9 -134 48 -134 119c0 85 61 133 160 133c60 0 112 -19 148 -40c5 -3 6 -9 2 -14l-4 -6c-3 -5 -9 -6 -14 -3
c-32 16 -83 35 -135 35c-83 0 -127 -38 -127 -102c0 -57 34 -86 123 -95l47 -5c89 -9 133 -51 133 -122c0 -88 -61 -142 -174 -142zM243 560h-8c-6 0 -9 2 -14 9l-87 121c-4 5 -2 10 4 10h8c7 0 10 -2 16 -10l76 -98h2l76 98c6 8 9 10 16 10h8c6 0 8 -5 4 -10l-87 -121
c-5 -7 -8 -9 -14 -9z" />
    <glyph glyph-name="scedilla" unicode="&#x15f;" horiz-adv-x="475" 
d="M202 -145h-11c-6 0 -9 4 -7 10l48 125c-79 2 -137 36 -171 63c-4 4 -4 10 0 14l7 7c4 4 10 3 14 0c38 -29 90 -56 162 -56c93 0 139 44 139 109c0 58 -23 89 -122 100l-47 5c-85 9 -134 48 -134 119c0 85 61 133 160 133c60 0 112 -19 148 -40c5 -3 6 -9 2 -14l-4 -6
c-3 -5 -9 -6 -14 -3c-32 16 -83 35 -135 35c-83 0 -127 -38 -127 -102c0 -57 34 -86 123 -95l47 -5c89 -9 133 -51 133 -122c0 -82 -53 -134 -152 -141l-43 -126c-3 -8 -7 -10 -16 -10z" />
    <glyph glyph-name="scommaaccent" unicode="&#x219;" horiz-adv-x="475" 
d="M239 -10c-82 0 -143 35 -178 63c-4 4 -4 10 0 14l7 7c4 4 10 3 14 0c38 -29 90 -56 162 -56c93 0 139 44 139 109c0 58 -23 89 -122 100l-47 5c-85 9 -134 48 -134 119c0 85 61 133 160 133c60 0 112 -19 148 -40c5 -3 6 -9 2 -14l-4 -6c-3 -5 -9 -6 -14 -3
c-32 16 -83 35 -135 35c-83 0 -127 -38 -127 -102c0 -57 34 -86 123 -95l47 -5c89 -9 133 -51 133 -122c0 -88 -61 -142 -174 -142zM229 -183c-6 0 -7 3 -7 9v109c0 6 3 10 9 10h11c6 0 9 -4 9 -10v-64c0 -10 -1 -18 -5 -28l-7 -19c-2 -4 -5 -7 -10 -7z" />
    <glyph glyph-name="germandbls" unicode="&#xdf;" horiz-adv-x="536" 
d="M290 -6h-9c-6 0 -10 4 -10 10v8c0 6 4 10 10 10h9c71 0 113 21 131 76c7 21 10 45 10 121c0 77 -3 101 -10 123c-18 56 -63 73 -128 74h-12c-6 0 -10 4 -10 10v8c0 6 4 10 10 10h12c90 0 128 32 128 107c0 70 -47 111 -139 111c-111 0 -152 -47 -152 -165v-487
c0 -6 -4 -10 -10 -10h-10c-6 0 -10 4 -10 10v489c0 126 48 191 182 191c114 0 169 -56 169 -139c0 -70 -30 -105 -79 -120v-2c36 -12 64 -36 78 -79c8 -24 11 -50 11 -131c0 -80 -5 -112 -11 -131c-23 -70 -80 -94 -160 -94z" />
    <glyph glyph-name="tcaron" unicode="&#x165;" horiz-adv-x="306" 
d="M252 -2h-17c-86 0 -119 29 -119 124v318c0 4 -2 6 -6 6h-58c-6 0 -10 4 -10 10v8c0 6 4 10 10 10h58c4 0 6 2 6 6v140c0 6 4 10 10 10h10c6 0 10 -4 10 -10v-140c0 -4 2 -6 6 -6h100c6 0 10 -4 10 -10v-8c0 -6 -4 -10 -10 -10h-100c-4 0 -6 -2 -6 -6v-316
c0 -79 24 -98 90 -98h16c6 0 10 -4 10 -10v-8c0 -6 -4 -10 -10 -10zM235 552c-6 0 -7 3 -7 9v109c0 6 3 10 9 10h11c6 0 9 -4 9 -10v-64c0 -10 -1 -18 -5 -28l-7 -19c-2 -4 -5 -7 -10 -7z" />
    <glyph glyph-name="uni0163" unicode="&#x163;" horiz-adv-x="306" 
d="M252 -2h-17c-86 0 -119 29 -119 124v318c0 4 -2 6 -6 6h-58c-6 0 -10 4 -10 10v8c0 6 4 10 10 10h58c4 0 6 2 6 6v140c0 6 4 10 10 10h10c6 0 10 -4 10 -10v-140c0 -4 2 -6 6 -6h100c6 0 10 -4 10 -10v-8c0 -6 -4 -10 -10 -10h-100c-4 0 -6 -2 -6 -6v-316
c0 -79 24 -98 90 -98h16c6 0 10 -4 10 -10v-8c0 -6 -4 -10 -10 -10zM172 -183c-6 0 -7 3 -7 9v109c0 6 3 10 9 10h11c6 0 9 -4 9 -10v-64c0 -10 -1 -18 -5 -28l-7 -19c-2 -4 -5 -7 -10 -7z" />
    <glyph glyph-name="uni021B" unicode="&#x21b;" horiz-adv-x="306" 
d="M252 -2h-17c-86 0 -119 29 -119 124v318c0 4 -2 6 -6 6h-58c-6 0 -10 4 -10 10v8c0 6 4 10 10 10h58c4 0 6 2 6 6v140c0 6 4 10 10 10h10c6 0 10 -4 10 -10v-140c0 -4 2 -6 6 -6h100c6 0 10 -4 10 -10v-8c0 -6 -4 -10 -10 -10h-100c-4 0 -6 -2 -6 -6v-316
c0 -79 24 -98 90 -98h16c6 0 10 -4 10 -10v-8c0 -6 -4 -10 -10 -10zM172 -183c-6 0 -7 3 -7 9v109c0 6 3 10 9 10h11c6 0 9 -4 9 -10v-64c0 -10 -1 -18 -5 -28l-7 -19c-2 -4 -5 -7 -10 -7z" />
    <glyph glyph-name="tbar" unicode="&#x167;" horiz-adv-x="306" 
d="M252 -2h-17c-86 0 -119 29 -119 124v201c0 4 -2 6 -6 6h-48c-6 0 -10 4 -10 10v7c0 6 4 10 10 10h48c4 0 6 2 6 6v78c0 4 -2 6 -6 6h-58c-6 0 -10 4 -10 10v8c0 6 4 10 10 10h58c4 0 6 2 6 6v140c0 6 4 10 10 10h10c6 0 10 -4 10 -10v-140c0 -4 2 -6 6 -6h100
c6 0 10 -4 10 -10v-8c0 -6 -4 -10 -10 -10h-100c-4 0 -6 -2 -6 -6v-78c0 -4 2 -6 6 -6h86c6 0 10 -4 10 -10v-7c0 -6 -4 -10 -10 -10h-86c-4 0 -6 -2 -6 -6v-199c0 -79 24 -98 90 -98h16c6 0 10 -4 10 -10v-8c0 -6 -4 -10 -10 -10z" />
    <glyph glyph-name="thorn" unicode="&#xfe;" horiz-adv-x="525" 
d="M120 -180h-10c-6 0 -10 4 -10 10v840c0 6 4 10 10 10h10c6 0 10 -4 10 -10v-275h1c23 51 66 89 151 89s137 -38 161 -113c13 -40 17 -86 17 -134s-4 -94 -17 -134c-24 -75 -76 -113 -161 -113s-128 38 -151 89h-1v-249c0 -6 -4 -10 -10 -10zM280 18c69 0 115 34 135 95
c11 34 15 82 15 124s-4 90 -15 124c-20 61 -66 95 -135 95c-66 0 -116 -31 -137 -95c-9 -28 -13 -68 -13 -124s4 -96 13 -124c21 -64 71 -95 137 -95z" />
    <glyph glyph-name="ugrave" unicode="&#xf9;" horiz-adv-x="531" 
d="M421 0h-10c-6 0 -10 4 -10 10v67h-1c-23 -55 -78 -87 -144 -87c-107 0 -165 61 -165 183v291c0 6 4 10 10 10h10c6 0 10 -4 10 -10v-284c0 -112 44 -162 137 -162c78 0 143 54 143 147v299c0 6 4 10 10 10h10c6 0 10 -4 10 -10v-454c0 -6 -4 -10 -10 -10zM287 560h-7
c-8 0 -11 2 -17 10l-85 120c-4 5 -1 10 5 10h15c8 0 12 -3 16 -10l78 -120c4 -6 1 -10 -5 -10z" />
    <glyph glyph-name="uacute" unicode="&#xfa;" horiz-adv-x="531" 
d="M421 0h-10c-6 0 -10 4 -10 10v67h-1c-23 -55 -78 -87 -144 -87c-107 0 -165 61 -165 183v291c0 6 4 10 10 10h10c6 0 10 -4 10 -10v-284c0 -112 44 -162 137 -162c78 0 143 54 143 147v299c0 6 4 10 10 10h10c6 0 10 -4 10 -10v-454c0 -6 -4 -10 -10 -10zM250 560h-7
c-6 0 -9 4 -5 10l78 120c4 7 8 10 16 10h15c6 0 9 -5 5 -10l-85 -120c-6 -8 -9 -10 -17 -10z" />
    <glyph glyph-name="ucircumflex" unicode="&#xfb;" horiz-adv-x="531" 
d="M421 0h-10c-6 0 -10 4 -10 10v67h-1c-23 -55 -78 -87 -144 -87c-107 0 -165 61 -165 183v291c0 6 4 10 10 10h10c6 0 10 -4 10 -10v-284c0 -112 44 -162 137 -162c78 0 143 54 143 147v299c0 6 4 10 10 10h10c6 0 10 -4 10 -10v-454c0 -6 -4 -10 -10 -10zM366 560h-8
c-7 0 -10 2 -16 10l-76 98h-2l-76 -98c-6 -8 -9 -10 -16 -10h-8c-6 0 -8 5 -4 10l87 121c5 7 8 9 14 9h8c6 0 9 -2 14 -9l87 -121c4 -5 2 -10 -4 -10z" />
    <glyph glyph-name="utilde" unicode="&#x169;" horiz-adv-x="531" 
d="M421 0h-10c-6 0 -10 4 -10 10v67h-1c-23 -55 -78 -87 -144 -87c-107 0 -165 61 -165 183v291c0 6 4 10 10 10h10c6 0 10 -4 10 -10v-284c0 -112 44 -162 137 -162c78 0 143 54 143 147v299c0 6 4 10 10 10h10c6 0 10 -4 10 -10v-454c0 -6 -4 -10 -10 -10zM316 613
c-23 0 -41 11 -57 21c-14 9 -29 18 -46 18c-20 0 -36 -13 -55 -34c-4 -4 -8 -2 -8 3v15c0 5 1 8 7 14c15 16 34 28 57 28s42 -11 57 -21s29 -18 46 -18c20 0 36 13 55 34c4 4 8 2 8 -3v-15c0 -5 -1 -8 -7 -14c-15 -16 -34 -28 -57 -28z" />
    <glyph glyph-name="udieresis" unicode="&#xfc;" horiz-adv-x="531" 
d="M421 0h-10c-6 0 -10 4 -10 10v67h-1c-23 -55 -78 -87 -144 -87c-107 0 -165 61 -165 183v291c0 6 4 10 10 10h10c6 0 10 -4 10 -10v-284c0 -112 44 -162 137 -162c78 0 143 54 143 147v299c0 6 4 10 10 10h10c6 0 10 -4 10 -10v-454c0 -6 -4 -10 -10 -10zM377 620h-24
c-6 0 -10 4 -10 10v40c0 6 4 10 10 10h24c6 0 10 -4 10 -10v-40c0 -6 -4 -10 -10 -10zM177 620h-24c-6 0 -10 4 -10 10v40c0 6 4 10 10 10h24c6 0 10 -4 10 -10v-40c0 -6 -4 -10 -10 -10z" />
    <glyph glyph-name="umacron" unicode="&#x16b;" horiz-adv-x="531" 
d="M421 0h-10c-6 0 -10 4 -10 10v67h-1c-23 -55 -78 -87 -144 -87c-107 0 -165 61 -165 183v291c0 6 4 10 10 10h10c6 0 10 -4 10 -10v-284c0 -112 44 -162 137 -162c78 0 143 54 143 147v299c0 6 4 10 10 10h10c6 0 10 -4 10 -10v-454c0 -6 -4 -10 -10 -10zM381 634h-232
c-6 0 -10 4 -10 10v8c0 6 4 10 10 10h232c6 0 10 -4 10 -10v-8c0 -6 -4 -10 -10 -10z" />
    <glyph glyph-name="ubreve" unicode="&#x16d;" horiz-adv-x="531" 
d="M421 0h-10c-6 0 -10 4 -10 10v67h-1c-23 -55 -78 -87 -144 -87c-107 0 -165 61 -165 183v291c0 6 4 10 10 10h10c6 0 10 -4 10 -10v-284c0 -112 44 -162 137 -162c78 0 143 54 143 147v299c0 6 4 10 10 10h10c6 0 10 -4 10 -10v-454c0 -6 -4 -10 -10 -10zM265 579
c-61 0 -106 38 -116 94c-1 6 3 10 9 10h7c7 0 9 -4 11 -10c12 -43 43 -67 89 -67s78 24 90 67c2 6 4 10 11 10h6c6 0 10 -4 9 -10c-10 -56 -55 -94 -116 -94z" />
    <glyph glyph-name="uring" unicode="&#x16f;" horiz-adv-x="531" 
d="M421 0h-10c-6 0 -10 4 -10 10v67h-1c-23 -55 -78 -87 -144 -87c-107 0 -165 61 -165 183v291c0 6 4 10 10 10h10c6 0 10 -4 10 -10v-284c0 -112 44 -162 137 -162c78 0 143 54 143 147v299c0 6 4 10 10 10h10c6 0 10 -4 10 -10v-454c0 -6 -4 -10 -10 -10zM265 546
c-48 0 -83 35 -83 83s35 83 83 83s83 -35 83 -83s-35 -83 -83 -83zM265 572c33 0 56 24 56 57s-23 57 -56 57s-56 -24 -56 -57s23 -57 56 -57z" />
    <glyph glyph-name="uhungarumlaut" unicode="&#x171;" horiz-adv-x="531" 
d="M421 0h-10c-6 0 -10 4 -10 10v67h-1c-23 -55 -78 -87 -144 -87c-107 0 -165 61 -165 183v291c0 6 4 10 10 10h10c6 0 10 -4 10 -10v-284c0 -112 44 -162 137 -162c78 0 143 54 143 147v299c0 6 4 10 10 10h10c6 0 10 -4 10 -10v-454c0 -6 -4 -10 -10 -10zM311 560h-7
c-6 0 -8 4 -5 10l68 120c4 7 8 10 16 10h13c6 0 8 -5 5 -10l-76 -122c-4 -6 -6 -8 -14 -8zM201 560h-7c-6 0 -8 4 -5 10l68 120c4 7 8 10 16 10h13c6 0 8 -5 5 -10l-76 -122c-4 -6 -6 -8 -14 -8z" />
    <glyph glyph-name="uogonek" unicode="&#x173;" horiz-adv-x="531" 
d="M372 -162c-37 0 -59 21 -59 57c0 29 15 61 88 114v68h-1c-23 -55 -78 -87 -144 -87c-107 0 -165 61 -165 183v291c0 6 4 10 10 10h10c6 0 10 -4 10 -10v-284c0 -112 44 -162 137 -162c78 0 143 54 143 147v299c0 6 4 10 10 10h10c6 0 10 -4 10 -10v-454
c0 -5 -1 -7 -5 -10c-74 -59 -83 -82 -83 -103c0 -19 12 -31 31 -31c10 0 20 5 30 11c5 3 11 2 14 -3l3 -5c3 -5 2 -10 -3 -14c-9 -8 -28 -17 -46 -17z" />
    <glyph glyph-name="wcircumflex" unicode="&#x175;" horiz-adv-x="728" 
d="M523 0h-8c-7 0 -10 3 -12 10l-138 417h-1l-139 -417c-2 -7 -5 -10 -12 -10h-8c-7 0 -10 3 -12 10l-148 454c-2 6 0 10 7 10h10c7 0 10 -2 13 -10l135 -412h1l136 412c2 7 5 10 12 10h10c7 0 10 -3 12 -10l139 -412h1l132 412c3 8 6 10 13 10h10c7 0 9 -4 7 -10l-148 -454
c-2 -7 -5 -10 -12 -10zM465 560h-8c-7 0 -10 2 -16 10l-76 98h-2l-76 -98c-6 -8 -9 -10 -16 -10h-8c-6 0 -8 5 -4 10l87 121c5 7 8 9 14 9h8c6 0 9 -2 14 -9l87 -121c4 -5 2 -10 -4 -10z" />
    <glyph glyph-name="wacute" unicode="&#x1e83;" horiz-adv-x="728" 
d="M523 0h-8c-7 0 -10 3 -12 10l-138 417h-1l-139 -417c-2 -7 -5 -10 -12 -10h-8c-7 0 -10 3 -12 10l-148 454c-2 6 0 10 7 10h10c7 0 10 -2 13 -10l135 -412h1l136 412c2 7 5 10 12 10h10c7 0 10 -3 12 -10l139 -412h1l132 412c3 8 6 10 13 10h10c7 0 9 -4 7 -10l-148 -454
c-2 -7 -5 -10 -12 -10zM368 560h-7c-6 0 -9 4 -5 10l78 120c4 7 8 10 16 10h15c6 0 9 -5 5 -10l-85 -120c-6 -8 -9 -10 -17 -10z" />
    <glyph glyph-name="wdieresis" unicode="&#x1e85;" horiz-adv-x="728" 
d="M523 0h-8c-7 0 -10 3 -12 10l-138 417h-1l-139 -417c-2 -7 -5 -10 -12 -10h-8c-7 0 -10 3 -12 10l-148 454c-2 6 0 10 7 10h10c7 0 10 -2 13 -10l135 -412h1l136 412c2 7 5 10 12 10h10c7 0 10 -3 12 -10l139 -412h1l132 412c3 8 6 10 13 10h10c7 0 9 -4 7 -10l-148 -454
c-2 -7 -5 -10 -12 -10zM476 620h-24c-6 0 -10 4 -10 10v40c0 6 4 10 10 10h24c6 0 10 -4 10 -10v-40c0 -6 -4 -10 -10 -10zM276 620h-24c-6 0 -10 4 -10 10v40c0 6 4 10 10 10h24c6 0 10 -4 10 -10v-40c0 -6 -4 -10 -10 -10z" />
    <glyph glyph-name="wgrave" unicode="&#x1e81;" horiz-adv-x="728" 
d="M523 0h-8c-7 0 -10 3 -12 10l-138 417h-1l-139 -417c-2 -7 -5 -10 -12 -10h-8c-7 0 -10 3 -12 10l-148 454c-2 6 0 10 7 10h10c7 0 10 -2 13 -10l135 -412h1l136 412c2 7 5 10 12 10h10c7 0 10 -3 12 -10l139 -412h1l132 412c3 8 6 10 13 10h10c7 0 9 -4 7 -10l-148 -454
c-2 -7 -5 -10 -12 -10zM365 560h-7c-8 0 -11 2 -17 10l-85 120c-4 5 -1 10 5 10h15c8 0 12 -3 16 -10l78 -120c4 -6 1 -10 -5 -10z" />
    <glyph glyph-name="yacute" unicode="&#xfd;" horiz-adv-x="460" 
d="M95 -180h-16c-6 0 -10 4 -10 10v8c0 6 4 10 10 10h18c42 0 65 17 98 105l20 53l-176 458c-2 6 0 10 7 10h12c7 0 10 -2 13 -10l160 -416h1l157 416c3 8 6 10 13 10h12c7 0 9 -4 7 -10l-199 -519c-41 -107 -73 -125 -127 -125zM220 560h-7c-6 0 -9 4 -5 10l78 120
c4 7 8 10 16 10h15c6 0 9 -5 5 -10l-85 -120c-6 -8 -9 -10 -17 -10z" />
    <glyph glyph-name="ycircumflex" unicode="&#x177;" horiz-adv-x="460" 
d="M95 -180h-16c-6 0 -10 4 -10 10v8c0 6 4 10 10 10h18c42 0 65 17 98 105l20 53l-176 458c-2 6 0 10 7 10h12c7 0 10 -2 13 -10l160 -416h1l157 416c3 8 6 10 13 10h12c7 0 9 -4 7 -10l-199 -519c-41 -107 -73 -125 -127 -125zM331 560h-8c-7 0 -10 2 -16 10l-76 98h-2
l-76 -98c-6 -8 -9 -10 -16 -10h-8c-6 0 -8 5 -4 10l87 121c5 7 8 9 14 9h8c6 0 9 -2 14 -9l87 -121c4 -5 2 -10 -4 -10z" />
    <glyph glyph-name="ydieresis" unicode="&#xff;" horiz-adv-x="460" 
d="M95 -180h-16c-6 0 -10 4 -10 10v8c0 6 4 10 10 10h18c42 0 65 17 98 105l20 53l-176 458c-2 6 0 10 7 10h12c7 0 10 -2 13 -10l160 -416h1l157 416c3 8 6 10 13 10h12c7 0 9 -4 7 -10l-199 -519c-41 -107 -73 -125 -127 -125zM342 620h-24c-6 0 -10 4 -10 10v40
c0 6 4 10 10 10h24c6 0 10 -4 10 -10v-40c0 -6 -4 -10 -10 -10zM142 620h-24c-6 0 -10 4 -10 10v40c0 6 4 10 10 10h24c6 0 10 -4 10 -10v-40c0 -6 -4 -10 -10 -10z" />
    <glyph glyph-name="ygrave" unicode="&#x1ef3;" horiz-adv-x="460" 
d="M95 -180h-16c-6 0 -10 4 -10 10v8c0 6 4 10 10 10h18c42 0 65 17 98 105l20 53l-176 458c-2 6 0 10 7 10h12c7 0 10 -2 13 -10l160 -416h1l157 416c3 8 6 10 13 10h12c7 0 9 -4 7 -10l-199 -519c-41 -107 -73 -125 -127 -125zM260 560h-7c-8 0 -11 2 -17 10l-85 120
c-4 5 -1 10 5 10h15c8 0 12 -3 16 -10l78 -120c4 -6 1 -10 -5 -10z" />
    <glyph glyph-name="zacute" unicode="&#x17a;" horiz-adv-x="460" 
d="M392 0h-322c-6 0 -10 4 -10 10v8c0 5 2 9 6 15l299 412v1h-282c-6 0 -10 4 -10 10v8c0 6 4 10 10 10h309c6 0 10 -4 10 -10v-8c0 -5 -2 -9 -6 -15l-299 -412v-1h295c6 0 10 -4 10 -10v-8c0 -6 -4 -10 -10 -10zM216 560h-7c-6 0 -9 4 -5 10l78 120c4 7 8 10 16 10h15
c6 0 9 -5 5 -10l-85 -120c-6 -8 -9 -10 -17 -10z" />
    <glyph glyph-name="zcaron" unicode="&#x17e;" horiz-adv-x="460" 
d="M392 0h-322c-6 0 -10 4 -10 10v8c0 5 2 9 6 15l299 412v1h-282c-6 0 -10 4 -10 10v8c0 6 4 10 10 10h309c6 0 10 -4 10 -10v-8c0 -5 -2 -9 -6 -15l-299 -412v-1h295c6 0 10 -4 10 -10v-8c0 -6 -4 -10 -10 -10zM234 560h-8c-6 0 -9 2 -14 9l-87 121c-4 5 -2 10 4 10h8
c7 0 10 -2 16 -10l76 -98h2l76 98c6 8 9 10 16 10h8c6 0 8 -5 4 -10l-87 -121c-5 -7 -8 -9 -14 -9z" />
    <glyph glyph-name="zdotaccent" unicode="&#x17c;" horiz-adv-x="460" 
d="M392 0h-322c-6 0 -10 4 -10 10v8c0 5 2 9 6 15l299 412v1h-282c-6 0 -10 4 -10 10v8c0 6 4 10 10 10h309c6 0 10 -4 10 -10v-8c0 -5 -2 -9 -6 -15l-299 -412v-1h295c6 0 10 -4 10 -10v-8c0 -6 -4 -10 -10 -10zM244 620h-24c-6 0 -10 4 -10 10v40c0 6 4 10 10 10h24
c6 0 10 -4 10 -10v-40c0 -6 -4 -10 -10 -10z" />
    <glyph glyph-name="f_i" unicode="&#xf001;" horiz-adv-x="529" 
d="M136 0h-10c-6 0 -10 4 -10 10v430c0 4 -2 6 -6 6h-58c-6 0 -10 4 -10 10v8c0 6 4 10 10 10h58c4 0 6 2 6 6v61c0 116 29 139 122 139h21c6 0 10 -4 10 -10v-8c0 -6 -4 -10 -10 -10h-17c-82 0 -96 -16 -96 -101v-71c0 -4 2 -6 6 -6h107c6 0 10 -4 10 -10v-8
c0 -6 -4 -10 -10 -10h-107c-4 0 -6 -2 -6 -6v-430c0 -6 -4 -10 -10 -10zM426 620h-24c-6 0 -10 4 -10 10v40c0 6 4 10 10 10h24c6 0 10 -4 10 -10v-40c0 -6 -4 -10 -10 -10zM419 0h-10c-6 0 -10 4 -10 10v454c0 6 4 10 10 10h10c6 0 10 -4 10 -10v-454c0 -6 -4 -10 -10 -10z
" />
    <glyph glyph-name="f_l" unicode="&#xf002;" horiz-adv-x="548" 
d="M136 0h-10c-6 0 -10 4 -10 10v430c0 4 -2 6 -6 6h-58c-6 0 -10 4 -10 10v8c0 6 4 10 10 10h58c4 0 6 2 6 6v61c0 116 29 139 122 139h21c6 0 10 -4 10 -10v-8c0 -6 -4 -10 -10 -10h-17c-82 0 -96 -16 -96 -101v-71c0 -4 2 -6 6 -6h107c6 0 10 -4 10 -10v-8
c0 -6 -4 -10 -10 -10h-107c-4 0 -6 -2 -6 -6v-430c0 -6 -4 -10 -10 -10zM498 -2h-15c-62 0 -85 28 -85 99v573c0 6 4 10 10 10h10c6 0 10 -4 10 -10v-573c0 -54 15 -71 55 -71h15c6 0 10 -4 10 -10v-8c0 -6 -4 -10 -10 -10z" />
    <glyph glyph-name="grave.cap" horiz-adv-x="420" 
d="M264 765h-7c-8 0 -10 1 -18 10l-87 103c-4 5 -2 10 4 10h15c7 0 10 -2 17 -10l80 -103c5 -6 2 -10 -4 -10z" />
    <glyph glyph-name="acute" unicode="&#xb4;" horiz-adv-x="420" 
d="M165 560h-7c-6 0 -9 4 -5 10l78 120c4 7 8 10 16 10h15c6 0 9 -5 5 -10l-85 -120c-6 -8 -9 -10 -17 -10z" />
    <glyph glyph-name="acute.cap" horiz-adv-x="420" 
d="M163 765h-7c-6 0 -9 4 -4 10l80 103c7 8 10 10 17 10h15c6 0 8 -5 4 -10l-87 -103c-8 -9 -10 -10 -18 -10z" />
    <glyph glyph-name="circumflex" unicode="&#x2c6;" horiz-adv-x="420" 
d="M311 560h-8c-7 0 -10 2 -16 10l-76 98h-2l-76 -98c-6 -8 -9 -10 -16 -10h-8c-6 0 -8 5 -4 10l87 121c5 7 8 9 14 9h8c6 0 9 -2 14 -9l87 -121c4 -5 2 -10 -4 -10z" />
    <glyph glyph-name="circumflex.cap" horiz-adv-x="420" 
d="M311 755h-8c-7 0 -10 2 -16 10l-76 98h-2l-76 -98c-6 -8 -9 -10 -16 -10h-8c-6 0 -8 5 -4 10l87 121c5 7 8 9 14 9h8c6 0 9 -2 14 -9l87 -121c4 -5 2 -10 -4 -10z" />
    <glyph glyph-name="caron" unicode="&#x2c7;" horiz-adv-x="420" 
d="M214 560h-8c-6 0 -9 2 -14 9l-87 121c-4 5 -2 10 4 10h8c7 0 10 -2 16 -10l76 -98h2l76 98c6 8 9 10 16 10h8c6 0 8 -5 4 -10l-87 -121c-5 -7 -8 -9 -14 -9z" />
    <glyph glyph-name="caron.cap" horiz-adv-x="420" 
d="M214 755h-8c-6 0 -9 2 -14 9l-87 121c-4 5 -2 10 4 10h8c7 0 10 -2 16 -10l76 -98h2l76 98c6 8 9 10 16 10h8c6 0 8 -5 4 -10l-87 -121c-5 -7 -8 -9 -14 -9z" />
    <glyph glyph-name="caron.alt" horiz-adv-x="420" 
d="M203 552c-6 0 -7 3 -7 9v109c0 6 3 10 9 10h11c6 0 9 -4 9 -10v-64c0 -10 -1 -18 -5 -28l-7 -19c-2 -4 -5 -7 -10 -7z" />
    <glyph glyph-name="tilde" unicode="&#x2dc;" horiz-adv-x="420" 
d="M261 613c-23 0 -41 11 -57 21c-14 9 -29 18 -46 18c-20 0 -36 -13 -55 -34c-4 -4 -8 -2 -8 3v15c0 5 1 8 7 14c15 16 34 28 57 28s42 -11 57 -21s29 -18 46 -18c20 0 36 13 55 34c4 4 8 2 8 -3v-15c0 -5 -1 -8 -7 -14c-15 -16 -34 -28 -57 -28z" />
    <glyph glyph-name="tilde.cap" horiz-adv-x="420" 
d="M261 794c-23 0 -41 11 -57 21c-14 9 -29 18 -46 18c-20 0 -36 -13 -55 -34c-4 -4 -8 -2 -8 3v15c0 5 1 8 7 14c15 16 34 28 57 28s42 -11 57 -21s29 -18 46 -18c20 0 36 13 55 34c4 4 8 2 8 -3v-15c0 -5 -1 -8 -7 -14c-15 -16 -34 -28 -57 -28z" />
    <glyph glyph-name="dieresis" unicode="&#xa8;" horiz-adv-x="420" 
d="M322 620h-24c-6 0 -10 4 -10 10v40c0 6 4 10 10 10h24c6 0 10 -4 10 -10v-40c0 -6 -4 -10 -10 -10zM122 620h-24c-6 0 -10 4 -10 10v40c0 6 4 10 10 10h24c6 0 10 -4 10 -10v-40c0 -6 -4 -10 -10 -10z" />
    <glyph glyph-name="dieresis.cap" horiz-adv-x="420" 
d="M322 795h-24c-6 0 -10 4 -10 10v40c0 6 4 10 10 10h24c6 0 10 -4 10 -10v-40c0 -6 -4 -10 -10 -10zM122 795h-24c-6 0 -10 4 -10 10v40c0 6 4 10 10 10h24c6 0 10 -4 10 -10v-40c0 -6 -4 -10 -10 -10z" />
    <glyph glyph-name="macron" unicode="&#xaf;" horiz-adv-x="420" 
d="M326 634h-232c-6 0 -10 4 -10 10v8c0 6 4 10 10 10h232c6 0 10 -4 10 -10v-8c0 -6 -4 -10 -10 -10z" />
    <glyph glyph-name="macron.cap" horiz-adv-x="420" 
d="M326 810h-232c-6 0 -10 4 -10 10v8c0 6 4 10 10 10h232c6 0 10 -4 10 -10v-8c0 -6 -4 -10 -10 -10z" />
    <glyph glyph-name="uni02C9" unicode="&#x2c9;" horiz-adv-x="420" 
d="M326 810h-232c-6 0 -10 4 -10 10v8c0 6 4 10 10 10h232c6 0 10 -4 10 -10v-8c0 -6 -4 -10 -10 -10z" />
    <glyph glyph-name="breve" unicode="&#x2d8;" horiz-adv-x="420" 
d="M210 579c-61 0 -106 38 -116 94c-1 6 3 10 9 10h7c7 0 9 -4 11 -10c12 -43 43 -67 89 -67s78 24 90 67c2 6 4 10 11 10h6c6 0 10 -4 9 -10c-10 -56 -55 -94 -116 -94z" />
    <glyph glyph-name="breve.cap" horiz-adv-x="420" 
d="M210 775c-61 0 -106 38 -116 94c-1 6 3 10 9 10h7c7 0 9 -4 11 -10c12 -43 43 -67 89 -67s78 24 90 67c2 6 4 10 11 10h6c6 0 10 -4 9 -10c-10 -56 -55 -94 -116 -94z" />
    <glyph glyph-name="ring" unicode="&#x2da;" horiz-adv-x="420" 
d="M210 546c-48 0 -83 35 -83 83s35 83 83 83s83 -35 83 -83s-35 -83 -83 -83zM210 572c33 0 56 24 56 57s-23 57 -56 57s-56 -24 -56 -57s23 -57 56 -57z" />
    <glyph glyph-name="ring.cap" horiz-adv-x="420" 
d="M210 746c-48 0 -83 35 -83 83s35 83 83 83s83 -35 83 -83s-35 -83 -83 -83zM210 772c33 0 56 24 56 57s-23 57 -56 57s-56 -24 -56 -57s23 -57 56 -57z" />
    <glyph glyph-name="hungarumlaut" unicode="&#x2dd;" horiz-adv-x="420" 
d="M226 560h-7c-6 0 -8 4 -5 10l68 120c4 7 8 10 16 10h13c6 0 8 -5 5 -10l-76 -122c-4 -6 -6 -8 -14 -8zM116 560h-7c-6 0 -8 4 -5 10l68 120c4 7 8 10 16 10h13c6 0 8 -5 5 -10l-76 -122c-4 -6 -6 -8 -14 -8z" />
    <glyph glyph-name="hungarumlaut.cap" horiz-adv-x="420" 
d="M246 765h-8c-6 0 -8 4 -4 10l68 103c5 7 8 10 16 10h14c6 0 8 -5 4 -10l-75 -104c-5 -7 -8 -9 -15 -9zM136 765h-8c-6 0 -8 4 -4 10l68 103c5 7 8 10 16 10h14c6 0 8 -5 4 -10l-75 -104c-5 -7 -8 -9 -15 -9z" />
    <glyph glyph-name="dotaccent" unicode="&#x2d9;" horiz-adv-x="420" 
d="M222 620h-24c-6 0 -10 4 -10 10v40c0 6 4 10 10 10h24c6 0 10 -4 10 -10v-40c0 -6 -4 -10 -10 -10z" />
    <glyph glyph-name="dotaccent.cap" horiz-adv-x="420" 
d="M222 795h-24c-6 0 -10 4 -10 10v40c0 6 4 10 10 10h24c6 0 10 -4 10 -10v-40c0 -6 -4 -10 -10 -10z" />
    <glyph glyph-name="cedilla" unicode="&#xb8;" horiz-adv-x="420" 
d="M190 -145h-11c-6 0 -9 4 -7 10l52 135c3 7 6 10 13 10h8c6 0 9 -4 7 -10l-46 -135c-3 -8 -7 -10 -16 -10z" />
    <glyph glyph-name="ogonek" unicode="&#x2db;" horiz-adv-x="420" 
d="M215 -162c-37 0 -59 21 -59 57c0 29 15 58 74 105c10 8 16 10 23 10h14c6 0 7 -7 2 -10c-74 -59 -83 -82 -83 -103c0 -19 12 -31 31 -31c10 0 20 5 30 11c5 3 11 2 14 -3l3 -5c3 -5 2 -10 -3 -14c-9 -8 -28 -17 -46 -17z" />
    <glyph glyph-name="commaaccent" horiz-adv-x="420" 
d="M202 -183c-6 0 -7 3 -7 9v109c0 6 3 10 9 10h11c6 0 9 -4 9 -10v-64c0 -10 -1 -18 -5 -28l-7 -19c-2 -4 -5 -7 -10 -7z" />
    <glyph glyph-name="commaaccent.alt" horiz-adv-x="420" 
d="M217 700c6 0 7 -3 7 -9v-109c0 -6 -3 -10 -9 -10h-11c-6 0 -9 4 -9 10v64c0 10 1 18 5 28l7 19c2 4 5 7 10 7z" />
    <glyph glyph-name="ellipsis" unicode="&#x2026;" horiz-adv-x="612" 
d="M524 0h-28c-6 0 -10 4 -10 10v50c0 6 4 10 10 10h28c6 0 10 -4 10 -10v-50c0 -6 -4 -10 -10 -10zM320 0h-28c-6 0 -10 4 -10 10v50c0 6 4 10 10 10h28c6 0 10 -4 10 -10v-50c0 -6 -4 -10 -10 -10zM116 0h-28c-6 0 -10 4 -10 10v50c0 6 4 10 10 10h28c6 0 10 -4 10 -10
v-50c0 -6 -4 -10 -10 -10z" />
    <glyph glyph-name="uni00AD" unicode="&#xad;" horiz-adv-x="368" 
d="M308 253h-248c-6 0 -10 4 -10 10v8c0 6 4 10 10 10h248c6 0 10 -4 10 -10v-8c0 -6 -4 -10 -10 -10z" />
    <glyph glyph-name="exclamdown" unicode="&#xa1;" horiz-adv-x="248" 
d="M127 304c6 0 10 -4 10 -10l2 -490c0 -6 -4 -10 -10 -10h-12c-6 0 -10 4 -10 10l2 490c0 6 4 10 10 10h8zM148 464v-50c0 -6 -4 -10 -10 -10h-28c-6 0 -10 4 -10 10v50c0 6 4 10 10 10h28c6 0 10 -4 10 -10z" />
    <glyph glyph-name="questiondown" unicode="&#xbf;" horiz-adv-x="439" 
d="M236 298v-38c0 -42 -7 -69 -35 -104l-45 -56c-61 -75 -72 -106 -72 -155c0 -87 60 -133 135 -133c74 0 125 46 140 128c1 6 5 9 12 8l9 -2c6 -1 9 -5 8 -11c-13 -86 -75 -151 -169 -151c-100 0 -165 68 -165 161c0 59 19 96 69 158l45 56c33 41 38 59 38 101v38
c0 6 4 10 10 10h10c6 0 10 -4 10 -10zM245 464v-50c0 -6 -4 -10 -10 -10h-28c-6 0 -10 4 -10 10v50c0 6 4 10 10 10h28c6 0 10 -4 10 -10z" />
    <glyph glyph-name="quoteleft" unicode="&#x2018;" horiz-adv-x="200" 
d="M110 537h-20c-6 0 -10 4 -10 10v56c0 10 1 14 4 23l18 46c2 6 5 9 10 9s8 -3 8 -9v-125c0 -6 -4 -10 -10 -10z" />
    <glyph glyph-name="quoteright" unicode="&#x2019;" horiz-adv-x="200" 
d="M88 536c-5 0 -8 3 -8 9v125c0 6 4 10 10 10h20c6 0 10 -4 10 -10v-56c0 -10 -1 -14 -4 -23l-18 -46c-2 -6 -5 -9 -10 -9z" />
    <glyph glyph-name="quotedblleft" unicode="&#x201c;" horiz-adv-x="324" 
d="M234 537h-20c-6 0 -10 4 -10 10v56c0 10 1 14 4 23l18 46c2 6 5 9 10 9s8 -3 8 -9v-125c0 -6 -4 -10 -10 -10zM110 537h-20c-6 0 -10 4 -10 10v56c0 10 1 14 4 23l18 46c2 6 5 9 10 9s8 -3 8 -9v-125c0 -6 -4 -10 -10 -10z" />
    <glyph glyph-name="quotedblright" unicode="&#x201d;" horiz-adv-x="324" 
d="M212 536c-5 0 -8 3 -8 9v125c0 6 4 10 10 10h20c6 0 10 -4 10 -10v-56c0 -10 -1 -14 -4 -23l-18 -46c-2 -6 -5 -9 -10 -9zM88 536c-5 0 -8 3 -8 9v125c0 6 4 10 10 10h20c6 0 10 -4 10 -10v-56c0 -10 -1 -15 -4 -23l-18 -47c-2 -6 -6 -8 -10 -8z" />
    <glyph glyph-name="quotesinglbase" unicode="&#x201a;" horiz-adv-x="200" 
d="M88 -80c-5 0 -8 3 -8 9v125c0 6 4 10 10 10h20c6 0 10 -4 10 -10v-56c0 -10 -1 -15 -4 -23l-18 -46c-2 -6 -5 -9 -10 -9z" />
    <glyph glyph-name="quotedblbase" unicode="&#x201e;" horiz-adv-x="324" 
d="M212 -80c-5 0 -8 3 -8 9v125c0 6 4 10 10 10h20c6 0 10 -4 10 -10v-56c0 -10 -1 -14 -4 -23l-18 -46c-2 -6 -5 -9 -10 -9zM88 -80c-5 0 -8 3 -8 9v125c0 6 4 10 10 10h20c6 0 10 -4 10 -10v-56c0 -10 -1 -14 -4 -23l-18 -46c-2 -6 -5 -9 -10 -9z" />
    <glyph glyph-name="guilsinglleft" unicode="&#x2039;" horiz-adv-x="307" 
d="M217 96l-158 161c-4 4 -4 10 0 14l158 161c4 4 10 2 10 -4v-19c0 -7 -1 -11 -6 -16l-122 -125c-3 -3 -3 -5 0 -8l122 -125c5 -5 6 -9 6 -16v-19c0 -6 -6 -8 -10 -4z" />
    <glyph glyph-name="guilsinglright" unicode="&#x203a;" horiz-adv-x="307" 
d="M90 96c-4 -4 -10 -2 -10 4v19c0 7 1 11 6 16l122 125c3 3 3 5 0 8l-122 125c-5 5 -6 9 -6 16v19c0 6 6 8 10 4l158 -161c4 -4 4 -10 0 -14z" />
    <glyph glyph-name="guillemotleft" unicode="&#xab;" horiz-adv-x="498" 
d="M408 96l-158 161c-4 4 -4 10 0 14l158 161c4 4 10 2 10 -4v-19c0 -7 -1 -11 -6 -16l-122 -125c-3 -3 -3 -5 0 -8l122 -125c5 -5 6 -9 6 -16v-19c0 -6 -6 -8 -10 -4zM217 96l-158 161c-4 4 -4 10 0 14l158 161c4 4 10 2 10 -4v-19c0 -7 -1 -11 -6 -16l-122 -125
c-3 -3 -3 -5 0 -8l122 -125c5 -5 6 -9 6 -16v-19c0 -6 -6 -8 -10 -4z" />
    <glyph glyph-name="guillemotright" unicode="&#xbb;" horiz-adv-x="498" 
d="M281 96c-4 -4 -10 -2 -10 4v19c0 7 1 11 6 16l122 125c3 3 3 5 0 8l-122 125c-5 5 -6 9 -6 16v19c0 6 6 8 10 4l158 -161c4 -4 4 -10 0 -14zM90 96c-4 -4 -10 -2 -10 4v19c0 7 1 11 6 16l122 125c3 3 3 5 0 8l-122 125c-5 5 -6 9 -6 16v19c0 6 6 8 10 4l158 -161
c4 -4 4 -10 0 -14z" />
    <glyph glyph-name="endash" unicode="&#x2013;" horiz-adv-x="498" 
d="M458 253h-418c-6 0 -10 4 -10 10v8c0 6 4 10 10 10h418c6 0 10 -4 10 -10v-8c0 -6 -4 -10 -10 -10z" />
    <glyph glyph-name="emdash" unicode="&#x2014;" horiz-adv-x="814" 
d="M774 253h-734c-6 0 -10 4 -10 10v8c0 6 4 10 10 10h734c6 0 10 -4 10 -10v-8c0 -6 -4 -10 -10 -10z" />
    <glyph glyph-name="bullet" unicode="&#x2022;" horiz-adv-x="408" 
d="M204 204c-59 0 -104 45 -104 104s45 104 104 104s104 -45 104 -104s-45 -104 -104 -104z" />
    <glyph glyph-name="periodcentered" unicode="&#xb7;" horiz-adv-x="204" 
d="M116 231h-28c-6 0 -10 4 -10 10v50c0 6 4 10 10 10h28c6 0 10 -4 10 -10v-50c0 -6 -4 -10 -10 -10z" />
    <glyph glyph-name="uni2219" unicode="&#x2219;" horiz-adv-x="204" 
d="M116 231h-28c-6 0 -10 4 -10 10v50c0 6 4 10 10 10h28c6 0 10 -4 10 -10v-50c0 -6 -4 -10 -10 -10z" />
    <glyph glyph-name="dagger" unicode="&#x2020;" horiz-adv-x="410" 
d="M210 -180h-10c-6 0 -10 4 -10 10v554c0 4 -2 6 -6 6h-134c-6 0 -10 4 -10 10v8c0 6 4 10 10 10h134c4 0 6 2 6 6v246c0 6 4 10 10 10h10c6 0 10 -4 10 -10v-246c0 -4 2 -6 6 -6h134c6 0 10 -4 10 -10v-8c0 -6 -4 -10 -10 -10h-134c-4 0 -6 -2 -6 -6v-554
c0 -6 -4 -10 -10 -10z" />
    <glyph glyph-name="daggerdbl" unicode="&#x2021;" horiz-adv-x="410" 
d="M210 -180h-10c-6 0 -10 4 -10 10v220c0 4 -2 6 -6 6h-134c-6 0 -10 4 -10 10v8c0 6 4 10 10 10h134c4 0 6 2 6 6v323c0 4 -2 6 -6 6h-134c-6 0 -10 4 -10 10v8c0 6 4 10 10 10h134c4 0 6 2 6 6v217c0 6 4 10 10 10h10c6 0 10 -4 10 -10v-217c0 -4 2 -6 6 -6h134
c6 0 10 -4 10 -10v-8c0 -6 -4 -10 -10 -10h-134c-4 0 -6 -2 -6 -6v-323c0 -4 2 -6 6 -6h134c6 0 10 -4 10 -10v-8c0 -6 -4 -10 -10 -10h-134c-4 0 -6 -2 -6 -6v-220c0 -6 -4 -10 -10 -10z" />
    <glyph glyph-name="section" unicode="&#xa7;" 
d="M259 -192c-90 0 -151 51 -151 150c0 6 2 11 8 12l11 2c7 2 11 -2 11 -7c-2 -99 58 -129 121 -129c71 0 121 37 121 117c0 71 -42 107 -146 126c-97 18 -136 81 -136 174c0 77 34 148 117 166v1c-65 29 -95 66 -95 138c0 81 61 134 143 134c90 0 140 -60 140 -133
c0 -6 -2 -11 -8 -12l-10 -2c-7 -2 -11 2 -11 7c-1 69 -40 112 -111 112c-69 0 -113 -38 -113 -106c0 -69 32 -109 138 -131c93 -19 136 -77 136 -174c0 -80 -34 -144 -111 -165v-1c51 -17 97 -57 97 -134c0 -98 -69 -145 -151 -145zM261 108c77 0 133 50 133 145
s-56 145 -133 145s-133 -50 -133 -145s56 -145 133 -145z" />
    <glyph glyph-name="paragraph" unicode="&#xb6;" horiz-adv-x="542" 
d="M442 -180h-10c-6 0 -10 4 -10 10v816c0 4 -2 6 -6 6h-108c-4 0 -6 -2 -6 -6v-816c0 -6 -4 -10 -10 -10h-10c-6 0 -10 4 -10 10v440c-120 7 -192 91 -192 205c0 116 75 205 219 205h143c6 0 10 -4 10 -10v-840c0 -6 -4 -10 -10 -10z" />
    <glyph glyph-name="brokenbar" unicode="&#xa6;" horiz-adv-x="210" 
d="M110 388h-10c-6 0 -10 4 -10 10v332c0 6 4 10 10 10h10c6 0 10 -4 10 -10v-332c0 -6 -4 -10 -10 -10zM110 -84h-10c-6 0 -10 4 -10 10v336c0 6 4 10 10 10h10c6 0 10 -4 10 -10v-336c0 -6 -4 -10 -10 -10z" />
    <glyph glyph-name="copyright" unicode="&#xa9;" horiz-adv-x="832" 
d="M416 -10c-199 0 -350 151 -350 350s151 350 350 350s350 -151 350 -350s-151 -350 -350 -350zM416 16c184 0 322 138 322 324s-138 324 -322 324s-322 -138 -322 -324s138 -324 322 -324zM421 144c-66 0 -116 34 -137 99c-7 22 -11 46 -11 97s4 75 11 97
c21 65 71 99 137 99c65 0 109 -35 131 -78c3 -5 1 -10 -4 -12l-6 -3c-5 -2 -10 -1 -13 4c-22 37 -52 63 -108 63c-55 0 -93 -26 -111 -81c-7 -21 -10 -42 -10 -89s3 -68 10 -89c18 -55 56 -81 111 -81c56 0 86 26 108 63c3 5 8 6 13 4l6 -3c5 -2 7 -7 4 -12
c-22 -43 -66 -78 -131 -78z" />
    <glyph glyph-name="registered" unicode="&#xae;" horiz-adv-x="465" 
d="M232 300c-110 0 -192 82 -192 193c0 110 82 192 192 192c111 0 193 -82 193 -192c0 -111 -82 -193 -193 -193zM232 322c97 0 170 73 170 171c0 97 -73 170 -170 170s-169 -73 -169 -170c0 -98 72 -171 169 -171zM178 386h-4c-6 0 -9 3 -9 9v198c0 6 3 9 9 9h75
c41 0 64 -26 64 -60c0 -29 -16 -53 -44 -60l43 -86c3 -7 1 -10 -5 -10h-9c-5 0 -7 2 -10 7l-44 88h-54c-2 0 -3 -1 -3 -2v-84c0 -6 -3 -9 -9 -9zM249 502c29 0 42 16 42 40c0 23 -13 39 -42 39h-59c-2 0 -3 -1 -3 -2v-75c0 -1 1 -2 3 -2h59z" />
    <glyph glyph-name="trademark" unicode="&#x2122;" horiz-adv-x="804" 
d="M744 286h-7c-6 0 -10 4 -10 10v323h-2l-131 -270c-3 -6 -5 -8 -11 -8h-8c-6 0 -8 2 -11 8l-131 270h-2v-323c0 -6 -4 -10 -10 -10h-7c-6 0 -10 4 -10 10v374c0 6 4 10 10 10h11c6 0 9 -2 12 -8l142 -295h2l140 295c3 6 6 8 12 8h11c6 0 10 -4 10 -10v-374
c0 -6 -4 -10 -10 -10zM188 286h-7c-6 0 -10 4 -10 10v353c0 4 -2 6 -6 6h-115c-6 0 -10 4 -10 10v5c0 6 4 10 10 10h269c6 0 10 -4 10 -10v-5c0 -6 -4 -10 -10 -10h-115c-4 0 -6 -2 -6 -6v-353c0 -6 -4 -10 -10 -10z" />
    <glyph glyph-name="currency" unicode="&#xa4;" 
d="M468 120l-6 -6c-5 -5 -10 -4 -14 0l-68 67c-32 -26 -73 -41 -119 -41c-47 0 -88 15 -119 41l-68 -67c-4 -4 -9 -5 -14 0l-6 6c-5 5 -5 9 0 14l68 67c-28 32 -44 74 -44 122s16 90 44 122l-68 67c-4 4 -5 9 0 14l6 6c5 5 10 4 14 0l68 -67c31 26 72 41 119 41
c46 0 87 -15 119 -41l68 67c4 4 9 5 14 0l6 -6c5 -5 5 -9 0 -14l-68 -67c28 -32 44 -74 44 -122s-16 -90 -44 -122l68 -67c5 -5 5 -9 0 -14zM261 168c88 0 153 67 153 155s-65 155 -153 155s-153 -67 -153 -155s65 -155 153 -155z" />
    <glyph glyph-name="Euro" unicode="&#x20ac;" 
d="M296 -10c-88 0 -144 44 -169 119c-10 31 -14 57 -14 155c0 4 -2 6 -6 6h-51c-6 0 -10 4 -10 10v7c0 6 4 10 10 10h51c4 0 6 2 6 6v81c0 4 -2 6 -6 6h-51c-6 0 -10 4 -10 10v7c0 6 4 10 10 10h51c4 0 6 2 6 6c0 82 4 117 14 148c25 75 81 119 169 119
c93 0 146 -57 169 -115c2 -6 0 -11 -5 -13l-8 -4c-5 -2 -10 0 -13 6c-26 57 -70 98 -143 98c-71 0 -119 -35 -139 -97c-10 -29 -14 -61 -14 -142c0 -4 2 -6 6 -6h213c6 0 10 -4 10 -10v-7c0 -6 -4 -10 -10 -10h-213c-4 0 -6 -2 -6 -6v-81c0 -4 2 -6 6 -6h183
c6 0 10 -4 10 -10v-7c0 -6 -4 -10 -10 -10h-183c-4 0 -6 -2 -6 -6c0 -97 4 -120 14 -149c20 -62 68 -97 139 -97c73 0 117 41 143 98c3 6 8 8 13 6l8 -4c5 -2 7 -7 5 -13c-23 -58 -76 -115 -169 -115z" />
    <glyph glyph-name="cent" unicode="&#xa2;" 
d="M281 567v-83c75 -2 124 -37 153 -96c3 -6 1 -11 -5 -14l-7 -3c-5 -2 -10 -1 -13 4c-27 54 -66 79 -128 81v-438c62 1 101 27 128 81c3 5 8 6 13 4l7 -3c6 -3 8 -8 5 -14c-29 -60 -78 -94 -153 -96v-83c0 -6 -4 -10 -10 -10h-8c-6 0 -10 4 -10 10v84
c-75 7 -126 50 -148 119c-9 29 -16 68 -16 127s7 98 16 127c22 68 74 111 148 118v85c0 6 4 10 10 10h8c6 0 10 -4 10 -10zM119 237c0 -54 6 -89 15 -116c19 -60 59 -96 119 -102v436c-60 -7 -100 -42 -119 -102c-9 -27 -15 -62 -15 -116z" />
    <glyph glyph-name="sterling" unicode="&#xa3;" 
d="M424 0h-314c-6 0 -10 4 -10 10v8c0 4 2 7 5 10c35 36 42 57 42 107v167c0 4 -2 6 -6 6h-51c-6 0 -10 4 -10 10v8c0 6 4 10 10 10h51c4 0 6 2 6 6v185c0 106 57 163 141 163c73 0 121 -47 138 -118c1 -6 -1 -10 -7 -12l-9 -3c-6 -2 -11 1 -12 7c-15 64 -56 98 -110 98
c-64 0 -111 -39 -111 -134v-186c0 -4 2 -6 6 -6h143c6 0 10 -4 10 -10v-8c0 -6 -4 -10 -10 -10h-143c-4 0 -6 -2 -6 -6v-167c0 -49 -10 -79 -37 -106v-1h284c6 0 10 -4 10 -10v-8c0 -6 -4 -10 -10 -10z" />
    <glyph glyph-name="florin" unicode="&#x192;" 
d="M403 360h-110l-63 -407c-16 -102 -52 -133 -135 -133h-17c-6 0 -10 4 -10 10v8c0 6 4 10 10 10h25c59 0 84 25 96 102l64 410h-95c-6 0 -10 4 -10 10v8c0 6 4 10 10 10h99l25 159c16 102 52 133 135 133h17c6 0 10 -4 10 -10v-8c0 -6 -4 -10 -10 -10h-25
c-59 0 -84 -25 -96 -102l-25 -162h105c6 0 10 -4 10 -10v-8c0 -6 -4 -10 -10 -10z" />
    <glyph glyph-name="yen" unicode="&#xa5;" 
d="M266 0h-10c-6 0 -10 4 -10 10v157c0 4 -2 6 -6 6h-137c-6 0 -10 4 -10 10v7c0 6 4 10 10 10h137c4 0 6 2 6 6v70c0 4 -2 6 -6 6h-137c-6 0 -10 4 -10 10v7c0 6 4 10 10 10h128v1l-164 356c-4 8 -1 14 8 14h8c9 0 12 -2 16 -10l162 -352h2l160 352c4 8 7 10 16 10h8
c9 0 12 -6 8 -14l-164 -356v-1h128c6 0 10 -4 10 -10v-7c0 -6 -4 -10 -10 -10h-137c-4 0 -6 -2 -6 -6v-70c0 -4 2 -6 6 -6h137c6 0 10 -4 10 -10v-7c0 -6 -4 -10 -10 -10h-137c-4 0 -6 -2 -6 -6v-157c0 -6 -4 -10 -10 -10z" />
    <glyph glyph-name="ordfeminine" unicode="&#xaa;" horiz-adv-x="337" 
d="M267 392h-8c-6 0 -10 4 -10 10v24h-1c-16 -26 -51 -40 -97 -40c-60 0 -101 31 -101 86c0 60 43 87 117 87h76c4 0 6 2 6 6v27c0 50 -17 69 -82 69c-37 0 -60 -8 -79 -22c-5 -4 -11 -3 -14 1l-4 5c-3 4 -3 10 2 14c19 16 52 28 96 28c78 0 109 -23 109 -95v-190
c0 -6 -4 -10 -10 -10zM157 412c51 0 92 28 92 60v55c0 4 -2 6 -6 6h-73c-63 0 -92 -19 -92 -60c0 -39 30 -61 79 -61z" />
    <glyph glyph-name="ordmasculine" unicode="&#xba;" horiz-adv-x="342" 
d="M171 385c-57 0 -94 25 -111 77c-6 19 -10 40 -10 74s4 55 10 74c17 52 54 77 111 77s94 -25 111 -77c6 -19 10 -40 10 -74s-4 -55 -10 -74c-17 -52 -54 -77 -111 -77zM171 411c44 0 71 20 84 60c6 17 9 36 9 65s-3 48 -9 65c-13 40 -40 60 -84 60s-71 -20 -84 -60
c-6 -17 -9 -36 -9 -65s3 -48 9 -65c13 -40 40 -60 84 -60z" />
    <glyph glyph-name="fraction" unicode="&#x2044;" horiz-adv-x="147" 
d="M-122 -10h-10c-6 0 -9 4 -6 10l393 680c4 7 7 10 14 10h10c6 0 9 -4 6 -10l-393 -680c-4 -7 -7 -10 -14 -10z" />
    <glyph glyph-name="uni2215" unicode="&#x2215;" horiz-adv-x="147" 
d="M-122 -10h-10c-6 0 -9 4 -6 10l393 680c4 7 7 10 14 10h10c6 0 9 -4 6 -10l-393 -680c-4 -7 -7 -10 -14 -10z" />
    <glyph glyph-name="onequarter" unicode="&#xbc;" horiz-adv-x="823" 
d="M180 274h-8c-6 0 -10 4 -10 10v361h-1l-71 -50c-5 -3 -10 -1 -10 5v11c0 7 2 11 7 14l70 49c6 4 9 6 15 6h8c6 0 10 -4 10 -10v-386c0 -6 -4 -10 -10 -10zM652 0h-8c-6 0 -10 4 -10 10v68c0 4 -2 6 -6 6h-161c-6 0 -10 4 -10 10v6c0 6 1 10 4 15l137 281c3 7 7 10 13 10
h11c6 0 9 -5 6 -10l-138 -285v-1h138c4 0 6 2 6 6v107c0 6 4 10 10 10h8c6 0 10 -4 10 -10v-107c0 -4 2 -6 6 -6h45c6 0 10 -4 10 -10v-6c0 -6 -4 -10 -10 -10h-45c-4 0 -6 -2 -6 -6v-68c0 -6 -4 -10 -10 -10zM200 -10h-10c-6 0 -9 4 -6 10l393 680c4 7 7 10 14 10h10
c6 0 9 -4 6 -10l-393 -680c-4 -7 -7 -10 -14 -10z" />
    <glyph glyph-name="onehalf" unicode="&#xbd;" horiz-adv-x="849" 
d="M180 274h-8c-6 0 -10 4 -10 10v361h-1l-71 -50c-5 -3 -10 -1 -10 5v11c0 7 2 11 7 14l70 49c6 4 9 6 15 6h8c6 0 10 -4 10 -10v-386c0 -6 -4 -10 -10 -10zM739 0h-217c-6 0 -10 4 -10 10v6c0 5 2 9 7 14l161 192c24 29 37 56 37 84c0 46 -33 80 -82 80
c-46 0 -76 -27 -86 -69c-1 -6 -6 -9 -12 -8l-6 1c-6 1 -10 5 -9 12c10 50 51 90 113 90c71 0 110 -49 110 -106c0 -35 -15 -65 -45 -101l-149 -177v-2h188c6 0 10 -4 10 -10v-6c0 -6 -4 -10 -10 -10zM200 -10h-10c-6 0 -9 4 -6 10l393 680c4 7 7 10 14 10h10c6 0 9 -4 6 -10
l-393 -680c-4 -7 -7 -10 -14 -10z" />
    <glyph glyph-name="threequarters" unicode="&#xbe;" horiz-adv-x="890" 
d="M220 268c-69 0 -106 39 -119 79c-2 6 0 9 6 11l8 3c6 2 9 0 12 -6c13 -32 42 -61 93 -61c54 0 90 38 90 89s-37 90 -92 90h-16c-6 0 -10 4 -10 10v6c0 6 4 10 10 10h15c50 0 84 33 84 82c0 46 -32 79 -84 79c-51 0 -74 -27 -84 -56c-2 -6 -5 -9 -11 -8l-7 1
c-6 1 -9 5 -8 11c9 39 44 78 110 78c68 0 112 -45 112 -105c0 -50 -30 -79 -57 -93v-1c29 -12 66 -45 66 -104c0 -66 -48 -115 -118 -115zM719 0h-8c-6 0 -10 4 -10 10v68c0 4 -2 6 -6 6h-161c-6 0 -10 4 -10 10v6c0 6 1 10 4 15l137 281c3 7 7 10 13 10h11c6 0 9 -5 6 -10
l-138 -285v-1h138c4 0 6 2 6 6v107c0 6 4 10 10 10h8c6 0 10 -4 10 -10v-107c0 -4 2 -6 6 -6h45c6 0 10 -4 10 -10v-6c0 -6 -4 -10 -10 -10h-45c-4 0 -6 -2 -6 -6v-68c0 -6 -4 -10 -10 -10zM267 -10h-10c-6 0 -9 4 -6 10l393 680c4 7 7 10 14 10h10c6 0 9 -4 6 -10
l-393 -680c-4 -7 -7 -10 -14 -10z" />
    <glyph glyph-name="perthousand" unicode="&#x2030;" horiz-adv-x="1087" 
d="M196 -10h-10c-6 0 -9 4 -6 10l393 680c4 7 7 10 14 10h10c6 0 9 -4 6 -10l-393 -680c-4 -7 -7 -10 -14 -10zM210 330c-52 0 -88 26 -102 71c-4 13 -8 31 -8 108s4 95 8 108c14 45 50 71 102 71s88 -26 102 -71c4 -13 8 -31 8 -108s-4 -95 -8 -108
c-14 -45 -50 -71 -102 -71zM210 356c37 0 63 16 74 50c5 15 8 27 8 103s-3 88 -8 103c-11 34 -37 50 -74 50s-63 -16 -74 -50c-5 -15 -8 -27 -8 -103s3 -88 8 -103c11 -34 37 -50 74 -50zM877 -8c-52 0 -88 26 -102 71c-4 13 -8 31 -8 108s4 95 8 108c14 45 50 71 102 71
s88 -26 102 -71c4 -13 8 -31 8 -108s-4 -95 -8 -108c-14 -45 -50 -71 -102 -71zM576 -8c-52 0 -88 26 -102 71c-4 13 -8 31 -8 108s4 95 8 108c14 45 50 71 102 71s88 -26 102 -71c4 -13 8 -31 8 -108s-4 -95 -8 -108c-14 -45 -50 -71 -102 -71zM877 18c37 0 63 16 74 50
c5 15 8 27 8 103s-3 88 -8 103c-11 34 -37 50 -74 50s-63 -16 -74 -50c-5 -15 -8 -27 -8 -103s3 -88 8 -103c11 -34 37 -50 74 -50zM576 18c37 0 63 16 74 50c5 15 8 27 8 103s-3 88 -8 103c-11 34 -37 50 -74 50s-63 -16 -74 -50c-5 -15 -8 -27 -8 -103s3 -88 8 -103
c11 -34 37 -50 74 -50z" />
    <glyph glyph-name="minus" unicode="&#x2212;" 
d="M443 262h-364c-6 0 -10 4 -10 10v8c0 6 4 10 10 10h364c6 0 10 -4 10 -10v-8c0 -6 -4 -10 -10 -10z" />
    <glyph glyph-name="plusminus" unicode="&#xb1;" 
d="M266 84h-10c-6 0 -10 4 -10 10v162c0 4 -2 6 -6 6h-161c-6 0 -10 4 -10 10v8c0 6 4 10 10 10h161c4 0 6 2 6 6v162c0 6 4 10 10 10h10c6 0 10 -4 10 -10v-162c0 -4 2 -6 6 -6h161c6 0 10 -4 10 -10v-8c0 -6 -4 -10 -10 -10h-161c-4 0 -6 -2 -6 -6v-162
c0 -6 -4 -10 -10 -10zM443 0h-364c-6 0 -10 4 -10 10v8c0 6 4 10 10 10h364c6 0 10 -4 10 -10v-8c0 -6 -4 -10 -10 -10z" />
    <glyph glyph-name="multiply" unicode="&#xd7;" 
d="M417 126l-6 -6c-4 -4 -10 -4 -14 0l-132 132c-3 3 -5 3 -8 0l-132 -132c-4 -4 -10 -4 -14 0l-6 6c-4 4 -4 10 0 14l132 132c3 3 3 5 0 8l-132 132c-4 4 -4 10 0 14l6 6c4 4 10 4 14 0l132 -132c3 -3 5 -3 8 0l132 132c4 4 10 4 14 0l6 -6c4 -4 4 -10 0 -14l-132 -132
c-3 -3 -3 -5 0 -8l132 -132c4 -4 4 -10 0 -14z" />
    <glyph glyph-name="divide" unicode="&#xf7;" 
d="M261 375c-18 0 -33 15 -33 33s15 33 33 33s33 -15 33 -33s-15 -33 -33 -33zM443 262h-364c-6 0 -10 4 -10 10v8c0 6 4 10 10 10h364c6 0 10 -4 10 -10v-8c0 -6 -4 -10 -10 -10zM261 111c-18 0 -33 15 -33 33s15 33 33 33s33 -15 33 -33s-15 -33 -33 -33z" />
    <glyph glyph-name="notequal" unicode="&#x2260;" 
d="M135 55h-12c-6 0 -8 6 -5 11l60 100h-99c-6 0 -10 4 -10 10v8c0 6 4 10 10 10h116l100 164h-216c-6 0 -10 4 -10 10v8c0 6 4 10 10 10h233l61 101c4 7 8 10 14 10h12c6 0 8 -6 5 -11l-61 -100h100c6 0 10 -4 10 -10v-8c0 -6 -4 -10 -10 -10h-117l-99 -164h216
c6 0 10 -4 10 -10v-8c0 -6 -4 -10 -10 -10h-233l-61 -101c-4 -7 -8 -10 -14 -10z" />
    <glyph glyph-name="approxequal" unicode="&#x2248;" horiz-adv-x="534" 
d="M353 319c-42 0 -69 21 -95 41c-23 17 -46 34 -78 34c-35 0 -59 -16 -86 -59c-3 -5 -8 -6 -14 -2l-5 3c-6 4 -7 7 -3 14c24 44 63 71 109 71c42 0 69 -21 95 -41c23 -17 46 -34 78 -34c35 0 59 16 86 59c3 5 8 6 14 2l5 -3c6 -4 7 -7 3 -14c-24 -44 -63 -71 -109 -71z
M353 131c-42 0 -69 21 -95 41c-23 17 -46 34 -78 34c-35 0 -59 -16 -86 -59c-3 -5 -8 -6 -14 -2l-5 3c-6 4 -7 7 -3 14c24 44 63 71 109 71c42 0 69 -21 95 -41c23 -17 46 -34 78 -34c35 0 59 16 86 59c3 5 8 6 14 2l5 -3c6 -4 7 -7 3 -14c-24 -44 -63 -71 -109 -71z" />
    <glyph glyph-name="lessequal" unicode="&#x2264;" 
d="M443 114l-364 147c-8 3 -10 5 -10 12v6c0 7 2 9 10 12l364 147c6 2 10 -1 10 -7v-8c0 -7 -3 -10 -10 -13l-329 -133v-2l329 -133c7 -3 10 -6 10 -13v-8c0 -6 -4 -9 -10 -7zM443 0h-364c-6 0 -10 4 -10 10v8c0 6 4 10 10 10h364c6 0 10 -4 10 -10v-8c0 -6 -4 -10 -10 -10z
" />
    <glyph glyph-name="greaterequal" unicode="&#x2265;" 
d="M443 261l-364 -147c-6 -2 -10 1 -10 7v8c0 7 3 10 10 13l329 133v2l-329 133c-7 3 -10 6 -10 13v8c0 6 4 9 10 7l364 -147c8 -3 10 -5 10 -12v-6c0 -7 -2 -9 -10 -12zM443 0h-364c-6 0 -10 4 -10 10v8c0 6 4 10 10 10h364c6 0 10 -4 10 -10v-8c0 -6 -4 -10 -10 -10z" />
    <glyph glyph-name="logicalnot" unicode="&#xac;" 
d="M443 129h-10c-6 0 -10 4 -10 10v117c0 4 -2 6 -6 6h-338c-6 0 -10 4 -10 10v8c0 6 4 10 10 10h364c6 0 10 -4 10 -10v-141c0 -6 -4 -10 -10 -10z" />
    <glyph glyph-name="Delta" unicode="&#x2206;" horiz-adv-x="587" 
d="M543 0h-499c-6 0 -9 4 -7 10l240 660c2 6 5 10 11 10h12c6 0 9 -4 11 -10l239 -660c2 -6 -1 -10 -7 -10zM501 29c5 0 7 2 6 6l-212 592h-2l-214 -592c-1 -4 1 -6 6 -6h416z" />
    <glyph glyph-name="Omega" unicode="&#x2126;" horiz-adv-x="602" 
d="M510 0h-161c-6 0 -10 4 -10 10v12c0 6 4 8 10 10c122 48 152 102 152 308c0 121 -10 167 -19 194c-28 84 -89 127 -181 127s-153 -43 -181 -127c-9 -27 -19 -73 -19 -194c0 -206 30 -260 152 -308c6 -2 10 -4 10 -10v-12c0 -6 -4 -10 -10 -10h-161c-6 0 -10 4 -10 10v8
c0 6 4 10 10 10h96v2c-86 43 -118 113 -118 310c0 124 10 172 20 202c32 98 104 148 211 148s179 -50 211 -148c10 -30 20 -78 20 -202c0 -197 -32 -267 -118 -310v-2h96c6 0 10 -4 10 -10v-8c0 -6 -4 -10 -10 -10z" />
    <glyph glyph-name="mu" unicode="&#xb5;" horiz-adv-x="546" 
d="M110 -180c-6 0 -10 4 -10 10v634c0 6 4 10 10 10h10c6 0 10 -4 10 -10v-285c0 -107 41 -161 137 -161c79 0 143 54 143 147v299c0 6 4 10 10 10h10c6 0 10 -4 10 -10v-395c0 -34 11 -43 30 -43c9 0 11 -5 11 -10v-8c0 -8 -6 -10 -11 -10h-1c-37 0 -59 13 -59 67v12h-1
c-23 -55 -77 -87 -144 -87c-61 0 -106 20 -134 72h-1v-232c0 -6 -4 -10 -10 -10h-10z" />
    <glyph glyph-name="degree" unicode="&#xb0;" horiz-adv-x="442" 
d="M221 403c-81 0 -141 60 -141 141s60 141 141 141s141 -60 141 -141s-60 -141 -141 -141zM221 430c64 0 112 49 112 114s-47 114 -112 114s-112 -49 -112 -114s48 -114 112 -114z" />
    <glyph glyph-name="afii61289" unicode="&#x2113;" horiz-adv-x="339" 
d="M277 576c0 -83 -27 -149 -132 -278v-218c0 -42 18 -62 50 -62c23 0 42 10 62 31c5 5 10 4 14 0l5 -5c4 -4 4 -10 0 -14c-23 -25 -51 -40 -83 -40c-53 0 -78 34 -78 92v181l-24 -29c-5 -5 -10 -5 -14 -1l-7 6c-5 5 -5 10 -1 15l46 54v219c0 121 32 163 85 163
c45 0 77 -39 77 -114zM145 525v-182c78 99 102 158 102 233c0 55 -20 86 -48 86c-29 0 -54 -29 -54 -137z" />
    <glyph glyph-name="estimated" unicode="&#x212e;" horiz-adv-x="662" 
d="M330 -10c-140 0 -230 111 -230 248c0 138 90 246 230 246c139 0 231 -101 232 -246h-361v-163c34 -33 78 -51 129 -51c74 0 128 32 172 107l32 -20c-55 -84 -110 -121 -204 -121zM461 270v130c-38 35 -81 54 -131 54c-51 0 -95 -19 -129 -54v-130h260z" />
    <glyph glyph-name="infinity" unicode="&#x221e;" horiz-adv-x="771" 
d="M572 92c-66 0 -120 43 -187 130c-67 -84 -118 -130 -187 -130c-85 0 -148 63 -148 156c0 91 59 154 148 154c68 0 120 -47 187 -131c71 91 125 131 187 131c88 0 149 -60 149 -154c0 -91 -61 -156 -149 -156zM572 120c74 0 119 62 119 128c0 71 -42 126 -119 126
c-57 0 -99 -37 -168 -127c74 -94 111 -127 168 -127zM198 120c55 0 101 39 168 127c-69 90 -113 127 -168 127c-75 0 -118 -54 -118 -126c0 -73 52 -128 118 -128z" />
    <glyph glyph-name="partialdiff" unicode="&#x2202;" horiz-adv-x="532" 
d="M249 -10c-114 0 -184 91 -184 214c0 122 81 207 190 207c77 0 135 -34 181 -102h1c6 192 -53 353 -192 353c-44 0 -81 -14 -122 -46c-5 -4 -10 -2 -13 3l-4 6c-3 5 -2 10 3 14c36 29 83 51 136 51c163 0 222 -177 222 -346c0 -235 -77 -354 -218 -354zM251 18
c112 0 171 93 182 249c-42 77 -106 116 -172 116c-105 0 -166 -72 -166 -181s61 -184 156 -184z" />
    <glyph glyph-name="integral" unicode="&#x222b;" horiz-adv-x="356" 
d="M83 -180c-3 0 -17 0 -23 1s-10 4 -10 10v8c0 7 4 11 10 10c9 -1 16 -1 22 -1c54 0 81 36 81 126v603c0 115 34 161 110 164c3 0 17 0 23 -1s10 -4 10 -10v-8c0 -7 -4 -11 -10 -10c-9 1 -16 1 -22 1c-54 0 -81 -36 -81 -126v-603c0 -115 -34 -161 -110 -164z" />
    <glyph glyph-name="radical" unicode="&#x221a;" horiz-adv-x="606" 
d="M321 -180h-9c-6 0 -10 4 -12 10l-153 317c-2 4 -5 5 -9 3l-79 -38c-6 -3 -11 -1 -13 4l-4 9c-3 6 -1 11 4 13l103 50c6 3 11 2 14 -4l149 -311h3l241 857c2 6 6 10 12 10h9c6 0 10 -4 8 -10l-252 -900c-2 -6 -6 -10 -12 -10z" />
    <glyph glyph-name="summation" unicode="&#x2211;" horiz-adv-x="528" 
d="M468 -180h-388c-6 0 -10 4 -10 10v5c0 4 1 7 2 9l202 480l-197 386c-2 4 -3 7 -3 11v9c0 6 4 10 10 10h374c6 0 10 -4 10 -10v-9c0 -6 -4 -10 -10 -10h-348l196 -378c2 -5 2 -9 0 -14l-199 -470h361c6 0 10 -4 10 -10v-9c0 -6 -4 -10 -10 -10z" />
    <glyph glyph-name="product" unicode="&#x220f;" horiz-adv-x="623" 
d="M521 -180h-11c-6 0 -10 4 -10 10v875c0 4 -2 6 -6 6h-365c-4 0 -6 -2 -6 -6v-875c0 -6 -4 -10 -10 -10h-11c-6 0 -10 4 -10 10v900c0 6 4 10 10 10h419c6 0 10 -4 10 -10v-900c0 -6 -4 -10 -10 -10z" />
    <glyph glyph-name="lozenge" unicode="&#x25ca;" horiz-adv-x="554" 
d="M282 -52h-10c-6 0 -8 4 -11 10l-181 364c-2 5 -2 9 0 14l181 364c3 6 5 10 11 10h10c6 0 8 -4 11 -10l181 -364c2 -5 2 -9 0 -14l-181 -364c-3 -6 -5 -10 -11 -10zM279 -2l163 331l-164 331h-2l-164 -331l165 -331h2z" />
    <glyph glyph-name="uniF8FF" unicode="&#xf8ff;" horiz-adv-x="464" 
d="M454 0h-444c-6 0 -10 4 -10 10v660c0 6 4 10 10 10h444c6 0 10 -4 10 -10v-660c0 -6 -4 -10 -10 -10zM428 28c4 0 6 2 6 6v612c0 4 -2 6 -6 6h-392c-4 0 -6 -2 -6 -6v-612c0 -4 2 -6 6 -6h392zM229 217h-8c-6 0 -10 4 -10 10v25c0 32 6 50 24 72l31 37c37 44 43 62 43 94
c0 50 -35 80 -82 80c-43 0 -75 -23 -87 -77c-1 -6 -5 -9 -12 -8l-7 1c-6 1 -9 5 -8 11c10 58 54 99 114 99c68 0 110 -46 110 -106c0 -43 -13 -67 -44 -104l-31 -37c-21 -26 -23 -35 -23 -62v-25c0 -6 -4 -10 -10 -10zM234 113h-19c-6 0 -10 4 -10 10v28c0 6 4 10 10 10h19
c6 0 10 -4 10 -10v-28c0 -6 -4 -10 -10 -10z" />
    <glyph glyph-name="uni03A9" unicode="&#x3a9;" horiz-adv-x="602" 
d="M510 0h-161c-6 0 -10 4 -10 10v12c0 6 4 8 10 10c122 48 152 102 152 308c0 121 -10 167 -19 194c-28 84 -89 127 -181 127s-153 -43 -181 -127c-9 -27 -19 -73 -19 -194c0 -206 30 -260 152 -308c6 -2 10 -4 10 -10v-12c0 -6 -4 -10 -10 -10h-161c-6 0 -10 4 -10 10v8
c0 6 4 10 10 10h96v2c-86 43 -118 113 -118 310c0 124 10 172 20 202c32 98 104 148 211 148s179 -50 211 -148c10 -30 20 -78 20 -202c0 -197 -32 -267 -118 -310v-2h96c6 0 10 -4 10 -10v-8c0 -6 -4 -10 -10 -10z" />
    <glyph glyph-name="uni03BC" unicode="&#x3bc;" horiz-adv-x="546" 
d="M110 -180c-6 0 -10 4 -10 10v634c0 6 4 10 10 10h10c6 0 10 -4 10 -10v-285c0 -107 41 -161 137 -161c79 0 143 54 143 147v299c0 6 4 10 10 10h10c6 0 10 -4 10 -10v-395c0 -34 11 -43 30 -43c9 0 11 -5 11 -10v-8c0 -8 -6 -10 -11 -10h-1c-37 0 -59 13 -59 67v12h-1
c-23 -55 -77 -87 -144 -87c-61 0 -106 20 -134 72h-1v-232c0 -6 -4 -10 -10 -10h-10z" />
    <glyph glyph-name="pi" unicode="&#x3c0;" horiz-adv-x="570" 
d="M129 0c-6 0 -10 4 -10 10v428c0 4 -2 6 -6 6h-63c-6 0 -10 4 -10 10v10c0 6 4 10 10 10h460c6 0 10 -4 10 -10v-10c0 -6 -4 -10 -10 -10h-63c-4 0 -6 -2 -6 -6v-347c0 -52 22 -65 55 -65h3c7 0 10 -5 10 -10v-8c0 -7 -5 -10 -10 -10h-6c-56 0 -82 33 -82 89v351
c0 4 -2 6 -6 6h-250c-4 0 -6 -2 -6 -6v-428c0 -6 -4 -10 -10 -10h-10z" />
    <glyph glyph-name="uni0394" unicode="&#x394;" horiz-adv-x="587" 
d="M543 0h-499c-6 0 -9 4 -7 10l240 660c2 6 5 10 11 10h12c6 0 9 -4 11 -10l239 -660c2 -6 -1 -10 -7 -10zM501 29c5 0 7 2 6 6l-212 592h-2l-214 -592c-1 -4 1 -6 6 -6h416z" />
    <glyph glyph-name="zero.denominator" horiz-adv-x="324" 
d="M162 -6c-56 0 -94 27 -110 77c-6 18 -9 44 -9 132s3 114 9 132c16 50 54 77 110 77s94 -27 110 -77c6 -18 9 -44 9 -132s-3 -114 -9 -132c-16 -50 -54 -77 -110 -77zM162 20c40 0 70 19 83 59c5 16 8 40 8 124s-3 108 -8 124c-13 40 -43 59 -83 59s-70 -19 -83 -59
c-5 -16 -8 -40 -8 -124s3 -108 8 -124c13 -40 43 -59 83 -59z" />
    <glyph glyph-name="one.denominator" horiz-adv-x="324" 
d="M174 0h-8c-6 0 -10 4 -10 10v361h-1l-71 -50c-5 -3 -10 -1 -10 5v11c0 7 2 11 7 14l70 49c6 4 9 6 15 6h8c6 0 10 -4 10 -10v-386c0 -6 -4 -10 -10 -10z" />
    <glyph glyph-name="two.denominator" horiz-adv-x="324" 
d="M270 0h-217c-6 0 -10 4 -10 10v6c0 5 2 9 7 14l161 192c24 29 37 56 37 84c0 46 -33 80 -82 80c-46 0 -76 -27 -86 -69c-1 -6 -6 -9 -12 -8l-6 1c-6 1 -10 5 -9 12c10 50 51 90 113 90c71 0 110 -49 110 -106c0 -35 -15 -65 -45 -101l-149 -177v-2h188c6 0 10 -4 10 -10
v-6c0 -6 -4 -10 -10 -10z" />
    <glyph glyph-name="three.denominator" horiz-adv-x="324" 
d="M162 -6c-69 0 -106 39 -119 79c-2 6 0 9 6 11l8 3c6 2 9 0 12 -6c13 -32 42 -61 93 -61c54 0 90 38 90 89s-37 90 -92 90h-16c-6 0 -10 4 -10 10v6c0 6 4 10 10 10h15c50 0 84 33 84 82c0 46 -32 79 -84 79c-51 0 -74 -27 -84 -56c-2 -6 -5 -9 -11 -8l-7 1
c-6 1 -9 5 -8 11c9 39 44 78 110 78c68 0 112 -45 112 -105c0 -50 -30 -79 -57 -93v-1c29 -12 66 -45 66 -104c0 -66 -48 -115 -118 -115z" />
    <glyph glyph-name="four.denominator" horiz-adv-x="324" 
d="M225 0h-8c-6 0 -10 4 -10 10v68c0 4 -2 6 -6 6h-161c-6 0 -10 4 -10 10v6c0 6 1 10 4 15l137 281c3 7 7 10 13 10h11c6 0 9 -5 6 -10l-138 -285v-1h138c4 0 6 2 6 6v107c0 6 4 10 10 10h8c6 0 10 -4 10 -10v-107c0 -4 2 -6 6 -6h45c6 0 10 -4 10 -10v-6
c0 -6 -4 -10 -10 -10h-45c-4 0 -6 -2 -6 -6v-68c0 -6 -4 -10 -10 -10z" />
    <glyph glyph-name="five.denominator" horiz-adv-x="324" 
d="M170 -6c-72 0 -101 39 -112 80c-2 6 0 11 6 13l7 2c6 2 10 0 12 -5c13 -38 35 -64 87 -64c40 0 68 18 79 53c3 11 5 22 5 58c0 35 -1 47 -5 59c-11 33 -37 51 -78 51c-43 0 -68 -21 -78 -48c-2 -6 -5 -10 -11 -10h-8c-6 0 -10 4 -10 10v203c0 6 4 10 10 10h191
c6 0 10 -4 10 -10v-6c0 -6 -4 -10 -10 -10h-167c-4 0 -6 -2 -6 -6v-145h1c11 20 37 38 81 38c51 0 86 -20 101 -66c5 -14 7 -32 7 -70s-3 -55 -8 -70c-15 -44 -52 -67 -104 -67z" />
    <glyph glyph-name="six.denominator" horiz-adv-x="324" 
d="M162 -6c-72 0 -122 49 -122 122c0 32 11 63 27 91l105 191c3 5 6 8 12 8h11c6 0 9 -5 6 -10l-96 -174l1 -1c12 10 33 17 58 17c70 0 120 -49 120 -122s-50 -122 -122 -122zM162 20c56 0 94 39 94 96c0 58 -37 96 -94 96c-56 0 -94 -39 -94 -96s38 -96 94 -96z" />
    <glyph glyph-name="seven.denominator" horiz-adv-x="324" 
d="M112 0h-10c-6 0 -9 5 -6 11l156 368v1h-164c-4 0 -6 -2 -6 -6v-41c0 -6 -4 -10 -10 -10h-8c-6 0 -10 4 -10 10v63c0 6 4 10 10 10h208c6 0 10 -4 10 -10v-11c0 -6 -1 -9 -3 -14l-155 -363c-3 -6 -6 -8 -12 -8z" />
    <glyph glyph-name="eight.denominator" horiz-adv-x="324" 
d="M162 -6c-73 0 -124 45 -124 116c0 55 34 92 69 103v2c-31 13 -58 45 -58 91c0 63 50 106 113 106c62 0 113 -43 113 -106c0 -46 -27 -78 -58 -91v-2c35 -11 69 -48 69 -103c0 -71 -51 -116 -124 -116zM162 226c47 0 85 33 85 80s-38 80 -85 80s-85 -33 -85 -80
s38 -80 85 -80zM162 20c56 0 96 36 96 90s-40 90 -96 90s-96 -36 -96 -90s40 -90 96 -90z" />
    <glyph glyph-name="nine.denominator" horiz-adv-x="324" 
d="M140 0h-11c-6 0 -9 5 -6 10l96 174l-1 1c-12 -10 -33 -17 -58 -17c-70 0 -120 49 -120 122s50 122 122 122s122 -49 122 -122c0 -32 -11 -63 -27 -91l-105 -191c-3 -5 -6 -8 -12 -8zM162 194c56 0 94 39 94 96s-38 96 -94 96s-94 -39 -94 -96c0 -58 37 -96 94 -96z" />
    <glyph glyph-name="zero.inferior" unicode="&#x2080;" horiz-adv-x="324" 
d="M162 -162c-56 0 -94 27 -110 77c-6 18 -9 44 -9 132s3 114 9 132c16 50 54 77 110 77s94 -27 110 -77c6 -18 9 -44 9 -132s-3 -114 -9 -132c-16 -50 -54 -77 -110 -77zM162 -136c40 0 70 19 83 59c5 16 8 40 8 124s-3 108 -8 124c-13 40 -43 59 -83 59s-70 -19 -83 -59
c-5 -16 -8 -40 -8 -124s3 -108 8 -124c13 -40 43 -59 83 -59z" />
    <glyph glyph-name="one.inferior" unicode="&#x2081;" horiz-adv-x="324" 
d="M174 -156h-8c-6 0 -10 4 -10 10v361h-1l-71 -50c-5 -3 -10 -1 -10 5v11c0 7 2 11 7 14l70 49c6 4 9 6 15 6h8c6 0 10 -4 10 -10v-386c0 -6 -4 -10 -10 -10z" />
    <glyph glyph-name="two.inferior" unicode="&#x2082;" horiz-adv-x="324" 
d="M270 -156h-217c-6 0 -10 4 -10 10v6c0 5 2 9 7 14l161 192c24 29 37 56 37 84c0 46 -33 80 -82 80c-46 0 -76 -27 -86 -69c-1 -6 -6 -9 -12 -8l-6 1c-6 1 -10 5 -9 12c10 50 51 90 113 90c71 0 110 -49 110 -106c0 -35 -15 -65 -45 -101l-149 -177v-2h188
c6 0 10 -4 10 -10v-6c0 -6 -4 -10 -10 -10z" />
    <glyph glyph-name="three.inferior" unicode="&#x2083;" horiz-adv-x="324" 
d="M162 -162c-69 0 -106 39 -119 79c-2 6 0 9 6 11l8 3c6 2 9 0 12 -6c13 -32 42 -61 93 -61c54 0 90 38 90 89s-37 90 -92 90h-16c-6 0 -10 4 -10 10v6c0 6 4 10 10 10h15c50 0 84 33 84 82c0 46 -32 79 -84 79c-51 0 -74 -27 -84 -56c-2 -6 -5 -9 -11 -8l-7 1
c-6 1 -9 5 -8 11c9 39 44 78 110 78c68 0 112 -45 112 -105c0 -50 -30 -79 -57 -93v-1c29 -12 66 -45 66 -104c0 -66 -48 -115 -118 -115z" />
    <glyph glyph-name="four.inferior" unicode="&#x2084;" horiz-adv-x="324" 
d="M225 -156h-8c-6 0 -10 4 -10 10v68c0 4 -2 6 -6 6h-161c-6 0 -10 4 -10 10v6c0 6 1 10 4 15l137 281c3 7 7 10 13 10h11c6 0 9 -5 6 -10l-138 -285v-1h138c4 0 6 2 6 6v107c0 6 4 10 10 10h8c6 0 10 -4 10 -10v-107c0 -4 2 -6 6 -6h45c6 0 10 -4 10 -10v-6
c0 -6 -4 -10 -10 -10h-45c-4 0 -6 -2 -6 -6v-68c0 -6 -4 -10 -10 -10z" />
    <glyph glyph-name="five.inferior" unicode="&#x2085;" horiz-adv-x="324" 
d="M170 -162c-72 0 -101 39 -112 80c-2 6 0 11 6 13l7 2c6 2 10 0 12 -5c13 -38 35 -64 87 -64c40 0 68 18 79 53c3 11 5 22 5 58c0 35 -1 47 -5 59c-11 33 -37 51 -78 51c-43 0 -68 -21 -78 -48c-2 -6 -5 -10 -11 -10h-8c-6 0 -10 4 -10 10v203c0 6 4 10 10 10h191
c6 0 10 -4 10 -10v-6c0 -6 -4 -10 -10 -10h-167c-4 0 -6 -2 -6 -6v-145h1c11 20 37 38 81 38c51 0 86 -20 101 -66c5 -14 7 -32 7 -70s-3 -55 -8 -70c-15 -44 -52 -67 -104 -67z" />
    <glyph glyph-name="six.inferior" unicode="&#x2086;" horiz-adv-x="324" 
d="M162 -162c-72 0 -122 49 -122 122c0 32 11 63 27 91l105 191c3 5 6 8 12 8h11c6 0 9 -5 6 -10l-96 -174l1 -1c12 10 33 17 58 17c70 0 120 -49 120 -122s-50 -122 -122 -122zM162 -136c56 0 94 39 94 96c0 58 -37 96 -94 96c-56 0 -94 -39 -94 -96s38 -96 94 -96z" />
    <glyph glyph-name="seven.inferior" unicode="&#x2087;" horiz-adv-x="324" 
d="M112 -156h-10c-6 0 -9 5 -6 11l156 368v1h-164c-4 0 -6 -2 -6 -6v-41c0 -6 -4 -10 -10 -10h-8c-6 0 -10 4 -10 10v63c0 6 4 10 10 10h208c6 0 10 -4 10 -10v-11c0 -6 -1 -9 -3 -14l-155 -363c-3 -6 -6 -8 -12 -8z" />
    <glyph glyph-name="eight.inferior" unicode="&#x2088;" horiz-adv-x="324" 
d="M162 -162c-73 0 -124 45 -124 116c0 55 34 92 69 103v2c-31 13 -58 45 -58 91c0 63 50 106 113 106c62 0 113 -43 113 -106c0 -46 -27 -78 -58 -91v-2c35 -11 69 -48 69 -103c0 -71 -51 -116 -124 -116zM162 70c47 0 85 33 85 80s-38 80 -85 80s-85 -33 -85 -80
s38 -80 85 -80zM162 -136c56 0 96 36 96 90s-40 90 -96 90s-96 -36 -96 -90s40 -90 96 -90z" />
    <glyph glyph-name="nine.inferior" unicode="&#x2089;" horiz-adv-x="324" 
d="M140 -156h-11c-6 0 -9 5 -6 10l96 174l-1 1c-12 -10 -33 -17 -58 -17c-70 0 -120 49 -120 122s50 122 122 122s122 -49 122 -122c0 -32 -11 -63 -27 -91l-105 -191c-3 -5 -6 -8 -12 -8zM162 38c56 0 94 39 94 96s-38 96 -94 96s-94 -39 -94 -96c0 -58 37 -96 94 -96z" />
    <glyph glyph-name="zero.numerator" horiz-adv-x="324" 
d="M162 268c-56 0 -94 27 -110 77c-6 18 -9 44 -9 132s3 114 9 132c16 50 54 77 110 77s94 -27 110 -77c6 -18 9 -44 9 -132s-3 -114 -9 -132c-16 -50 -54 -77 -110 -77zM162 294c40 0 70 19 83 59c5 16 8 40 8 124s-3 108 -8 124c-13 40 -43 59 -83 59s-70 -19 -83 -59
c-5 -16 -8 -40 -8 -124s3 -108 8 -124c13 -40 43 -59 83 -59z" />
    <glyph glyph-name="one.numerator" horiz-adv-x="324" 
d="M194 274h-8c-6 0 -10 4 -10 10v361h-1l-71 -50c-5 -3 -10 -1 -10 5v11c0 7 2 11 7 14l70 49c6 4 9 6 15 6h8c6 0 10 -4 10 -10v-386c0 -6 -4 -10 -10 -10z" />
    <glyph glyph-name="two.numerator" horiz-adv-x="324" 
d="M270 274h-217c-6 0 -10 4 -10 10v6c0 5 2 9 7 14l161 192c24 29 37 56 37 84c0 46 -33 80 -82 80c-46 0 -76 -27 -86 -69c-1 -6 -6 -9 -12 -8l-6 1c-6 1 -10 5 -9 12c10 50 51 90 113 90c71 0 110 -49 110 -106c0 -35 -15 -65 -45 -101l-149 -177v-2h188
c6 0 10 -4 10 -10v-6c0 -6 -4 -10 -10 -10z" />
    <glyph glyph-name="three.numerator" horiz-adv-x="324" 
d="M162 268c-69 0 -106 39 -119 79c-2 6 0 9 6 11l8 3c6 2 9 0 12 -6c13 -32 42 -61 93 -61c54 0 90 38 90 89s-37 90 -92 90h-16c-6 0 -10 4 -10 10v6c0 6 4 10 10 10h15c50 0 84 33 84 82c0 46 -32 79 -84 79c-51 0 -74 -27 -84 -56c-2 -6 -5 -9 -11 -8l-7 1
c-6 1 -9 5 -8 11c9 39 44 78 110 78c68 0 112 -45 112 -105c0 -50 -30 -79 -57 -93v-1c29 -12 66 -45 66 -104c0 -66 -48 -115 -118 -115z" />
    <glyph glyph-name="four.numerator" horiz-adv-x="324" 
d="M225 274h-8c-6 0 -10 4 -10 10v68c0 4 -2 6 -6 6h-161c-6 0 -10 4 -10 10v6c0 6 1 10 4 15l137 281c3 7 7 10 13 10h11c6 0 9 -5 6 -10l-138 -285v-1h138c4 0 6 2 6 6v107c0 6 4 10 10 10h8c6 0 10 -4 10 -10v-107c0 -4 2 -6 6 -6h45c6 0 10 -4 10 -10v-6
c0 -6 -4 -10 -10 -10h-45c-4 0 -6 -2 -6 -6v-68c0 -6 -4 -10 -10 -10z" />
    <glyph glyph-name="five.numerator" horiz-adv-x="324" 
d="M170 268c-72 0 -101 39 -112 80c-2 6 0 11 6 13l7 2c6 2 10 0 12 -5c13 -38 35 -64 87 -64c40 0 68 18 79 53c3 11 5 22 5 58c0 35 -1 47 -5 59c-11 33 -37 51 -78 51c-43 0 -68 -21 -78 -48c-2 -6 -5 -10 -11 -10h-8c-6 0 -10 4 -10 10v203c0 6 4 10 10 10h191
c6 0 10 -4 10 -10v-6c0 -6 -4 -10 -10 -10h-167c-4 0 -6 -2 -6 -6v-145h1c11 20 37 38 81 38c51 0 86 -20 101 -66c5 -14 7 -32 7 -70s-3 -55 -8 -70c-15 -44 -52 -67 -104 -67z" />
    <glyph glyph-name="six.numerator" horiz-adv-x="324" 
d="M162 268c-72 0 -122 49 -122 122c0 32 11 63 27 91l105 191c3 5 6 8 12 8h11c6 0 9 -5 6 -10l-96 -174l1 -1c12 10 33 17 58 17c70 0 120 -49 120 -122s-50 -122 -122 -122zM162 294c56 0 94 39 94 96c0 58 -37 96 -94 96c-56 0 -94 -39 -94 -96s38 -96 94 -96z" />
    <glyph glyph-name="seven.numerator" horiz-adv-x="324" 
d="M112 274h-10c-6 0 -9 5 -6 11l156 368v1h-164c-4 0 -6 -2 -6 -6v-41c0 -6 -4 -10 -10 -10h-8c-6 0 -10 4 -10 10v63c0 6 4 10 10 10h208c6 0 10 -4 10 -10v-11c0 -6 -1 -9 -3 -14l-155 -363c-3 -6 -6 -8 -12 -8z" />
    <glyph glyph-name="eight.numerator" horiz-adv-x="324" 
d="M162 268c-73 0 -124 45 -124 116c0 55 34 92 69 103v2c-31 13 -58 45 -58 91c0 63 50 106 113 106c62 0 113 -43 113 -106c0 -46 -27 -78 -58 -91v-2c35 -11 69 -48 69 -103c0 -71 -51 -116 -124 -116zM162 500c47 0 85 33 85 80s-38 80 -85 80s-85 -33 -85 -80
s38 -80 85 -80zM162 294c56 0 96 36 96 90s-40 90 -96 90s-96 -36 -96 -90s40 -90 96 -90z" />
    <glyph glyph-name="nine.numerator" horiz-adv-x="324" 
d="M140 274h-11c-6 0 -9 5 -6 10l96 174l-1 1c-12 -10 -33 -17 -58 -17c-70 0 -120 49 -120 122s50 122 122 122s122 -49 122 -122c0 -32 -11 -63 -27 -91l-105 -191c-3 -5 -6 -8 -12 -8zM162 468c56 0 94 39 94 96s-38 96 -94 96s-94 -39 -94 -96c0 -58 37 -96 94 -96z" />
    <glyph glyph-name="zero.superior" unicode="&#x2070;" horiz-adv-x="324" 
d="M162 424c-56 0 -94 27 -110 77c-6 18 -9 44 -9 132s3 114 9 132c16 50 54 77 110 77s94 -27 110 -77c6 -18 9 -44 9 -132s-3 -114 -9 -132c-16 -50 -54 -77 -110 -77zM162 450c40 0 70 19 83 59c5 16 8 40 8 124s-3 108 -8 124c-13 40 -43 59 -83 59s-70 -19 -83 -59
c-5 -16 -8 -40 -8 -124s3 -108 8 -124c13 -40 43 -59 83 -59z" />
    <glyph glyph-name="onesuperior" unicode="&#xb9;" horiz-adv-x="324" 
d="M194 430h-8c-6 0 -10 4 -10 10v361h-1l-71 -50c-5 -3 -10 -1 -10 5v11c0 7 2 11 7 14l70 49c6 4 9 6 15 6h8c6 0 10 -4 10 -10v-386c0 -6 -4 -10 -10 -10z" />
    <glyph glyph-name="twosuperior" unicode="&#xb2;" horiz-adv-x="324" 
d="M270 430h-217c-6 0 -10 4 -10 10v6c0 5 2 9 7 14l161 192c24 29 37 56 37 84c0 46 -33 80 -82 80c-46 0 -76 -27 -86 -69c-1 -6 -6 -9 -12 -8l-6 1c-6 1 -10 5 -9 12c10 50 51 90 113 90c71 0 110 -49 110 -106c0 -35 -15 -65 -45 -101l-149 -177v-2h188
c6 0 10 -4 10 -10v-6c0 -6 -4 -10 -10 -10z" />
    <glyph glyph-name="threesuperior" unicode="&#xb3;" horiz-adv-x="324" 
d="M162 424c-69 0 -106 39 -119 79c-2 6 0 9 6 11l8 3c6 2 9 0 12 -6c13 -32 42 -61 93 -61c54 0 90 38 90 89s-37 90 -92 90h-16c-6 0 -10 4 -10 10v6c0 6 4 10 10 10h15c50 0 84 33 84 82c0 46 -32 79 -84 79c-51 0 -74 -27 -84 -56c-2 -6 -5 -9 -11 -8l-7 1
c-6 1 -9 5 -8 11c9 39 44 78 110 78c68 0 112 -45 112 -105c0 -50 -30 -79 -57 -93v-1c29 -12 66 -45 66 -104c0 -66 -48 -115 -118 -115z" />
    <glyph glyph-name="four.superior" unicode="&#x2074;" horiz-adv-x="324" 
d="M225 430h-8c-6 0 -10 4 -10 10v68c0 4 -2 6 -6 6h-161c-6 0 -10 4 -10 10v6c0 6 1 10 4 15l137 281c3 7 7 10 13 10h11c6 0 9 -5 6 -10l-138 -285v-1h138c4 0 6 2 6 6v107c0 6 4 10 10 10h8c6 0 10 -4 10 -10v-107c0 -4 2 -6 6 -6h45c6 0 10 -4 10 -10v-6
c0 -6 -4 -10 -10 -10h-45c-4 0 -6 -2 -6 -6v-68c0 -6 -4 -10 -10 -10z" />
    <glyph glyph-name="five.superior" unicode="&#x2075;" horiz-adv-x="324" 
d="M170 424c-72 0 -101 39 -112 80c-2 6 0 11 6 13l7 2c6 2 10 0 12 -5c13 -38 35 -64 87 -64c40 0 68 18 79 53c3 11 5 22 5 58c0 35 -1 47 -5 59c-11 33 -37 51 -78 51c-43 0 -68 -21 -78 -48c-2 -6 -5 -10 -11 -10h-8c-6 0 -10 4 -10 10v203c0 6 4 10 10 10h191
c6 0 10 -4 10 -10v-6c0 -6 -4 -10 -10 -10h-167c-4 0 -6 -2 -6 -6v-145h1c11 20 37 38 81 38c51 0 86 -20 101 -66c5 -14 7 -32 7 -70s-3 -55 -8 -70c-15 -44 -52 -67 -104 -67z" />
    <glyph glyph-name="six.superior" unicode="&#x2076;" horiz-adv-x="324" 
d="M162 424c-72 0 -122 49 -122 122c0 32 11 63 27 91l105 191c3 5 6 8 12 8h11c6 0 9 -5 6 -10l-96 -174l1 -1c12 10 33 17 58 17c70 0 120 -49 120 -122s-50 -122 -122 -122zM162 450c56 0 94 39 94 96c0 58 -37 96 -94 96c-56 0 -94 -39 -94 -96s38 -96 94 -96z" />
    <glyph glyph-name="seven.superior" unicode="&#x2077;" horiz-adv-x="324" 
d="M112 430h-10c-6 0 -9 5 -6 11l156 368v1h-164c-4 0 -6 -2 -6 -6v-41c0 -6 -4 -10 -10 -10h-8c-6 0 -10 4 -10 10v63c0 6 4 10 10 10h208c6 0 10 -4 10 -10v-11c0 -6 -1 -9 -3 -14l-155 -363c-3 -6 -6 -8 -12 -8z" />
    <glyph glyph-name="eight.superior" unicode="&#x2078;" horiz-adv-x="324" 
d="M162 424c-73 0 -124 45 -124 116c0 55 34 92 69 103v2c-31 13 -58 45 -58 91c0 63 50 106 113 106c62 0 113 -43 113 -106c0 -46 -27 -78 -58 -91v-2c35 -11 69 -48 69 -103c0 -71 -51 -116 -124 -116zM162 656c47 0 85 33 85 80s-38 80 -85 80s-85 -33 -85 -80
s38 -80 85 -80zM162 450c56 0 96 36 96 90s-40 90 -96 90s-96 -36 -96 -90s40 -90 96 -90z" />
    <glyph glyph-name="nine.superior" unicode="&#x2079;" horiz-adv-x="324" 
d="M140 430h-11c-6 0 -9 5 -6 10l96 174l-1 1c-12 -10 -33 -17 -58 -17c-70 0 -120 49 -120 122s50 122 122 122s122 -49 122 -122c0 -32 -11 -63 -27 -91l-105 -191c-3 -5 -6 -8 -12 -8zM162 624c56 0 94 39 94 96s-38 96 -94 96s-94 -39 -94 -96c0 -58 37 -96 94 -96z" />
    <glyph glyph-name="interrobang" unicode="&#x203d;" horiz-adv-x="439" 
d="M203 176v4l-2 320c0 6 4 10 10 10h12c6 0 10 -4 10 -10l-2 -193h1l51 64c60 76 72 109 72 158c0 87 -60 133 -135 133c-74 0 -125 -46 -140 -128c-1 -6 -5 -9 -12 -8l-9 2c-6 1 -9 5 -8 11c13 86 75 151 169 151c100 0 165 -68 165 -161c0 -59 -19 -96 -69 -158l-45 -56
c-33 -41 -38 -59 -38 -101v-38c0 -6 -4 -10 -10 -10h-10c-6 0 -10 4 -10 10zM194 10v50c0 6 4 10 10 10h28c6 0 10 -4 10 -10v-50c0 -6 -4 -10 -10 -10h-28c-6 0 -10 4 -10 10z" />
    <glyph glyph-name="afii61248" unicode="&#x2105;" horiz-adv-x="786" 
d="M180 0l393 680c4 7 7 10 14 10h10c6 0 9 -4 6 -10l-393 -680c-4 -7 -7 -10 -14 -10h-10c-6 0 -9 4 -6 10zM214 330c-68 0 -97 31 -115 87c-6 21 -11 49 -11 91c0 43 5 71 11 92c18 56 55 88 116 88c57 0 87 -28 108 -72c2 -4 1 -8 -3 -10l-14 -9c-3 -1 -7 0 -9 3
c-19 40 -39 62 -84 62s-69 -21 -85 -69c-6 -20 -10 -45 -10 -85c0 -39 4 -64 10 -84c16 -48 41 -68 82 -68c45 0 66 19 86 59c2 3 6 4 9 3l12 -8c4 -2 5 -6 3 -10c-22 -44 -52 -70 -106 -70zM575 -8c-59 0 -103 31 -121 88c-7 23 -11 48 -11 90s4 67 11 89
c18 58 62 91 121 91c60 0 104 -33 122 -91c7 -22 11 -47 11 -89s-4 -67 -11 -90c-18 -57 -62 -88 -122 -88zM575 18c45 0 79 24 92 69c7 20 10 45 10 84c0 38 -3 64 -10 84c-13 45 -47 69 -92 69c-43 0 -77 -24 -90 -69c-7 -20 -10 -46 -10 -84c0 -39 3 -64 10 -84
c13 -45 47 -69 90 -69z" />
    <glyph glyph-name="published" unicode="&#x2117;" horiz-adv-x="832" 
d="M416 -10c-199 0 -350 151 -350 350s151 350 350 350s350 -151 350 -350s-151 -350 -350 -350zM416 16c184 0 322 138 322 324s-138 324 -322 324s-322 -138 -322 -324s138 -324 322 -324zM338 140h-9c-5 0 -9 4 -9 9v368c0 6 4 9 9 9h80c93 0 160 -22 160 -115
c0 -101 -67 -128 -160 -128h-57c-3 0 -5 -2 -5 -5v-129c0 -5 -3 -9 -9 -9zM409 308c79 0 132 16 132 103c0 77 -53 90 -132 90h-57c-3 0 -5 -2 -5 -6v-181c0 -4 2 -6 5 -6h57z" />
    <glyph glyph-name="uni0406" unicode="&#x406;" horiz-adv-x="235" 
d="M112 0c-6 0 -10 4 -10 10v660c0 6 4 10 10 10h11c6 0 10 -4 10 -10v-660c0 -6 -4 -10 -10 -10h-11z" />
    <glyph glyph-name="uni0456" unicode="&#x456;" horiz-adv-x="230" 
d="M110 0c-6 0 -10 4 -10 10v454c0 6 4 10 10 10h10c6 0 10 -4 10 -10v-454c0 -6 -4 -10 -10 -10h-10zM103 620c-6 0 -10 4 -10 10v40c0 6 4 10 10 10h24c6 0 10 -4 10 -10v-40c0 -6 -4 -10 -10 -10h-24z" />
    <glyph glyph-name="uni0408" unicode="&#x408;" horiz-adv-x="460" 
d="M181 -10c-52 0 -101 19 -134 44c-5 3 -7 10 -3 14l8 9c4 4 10 4 15 1c27 -20 69 -39 114 -39c92 0 153 47 153 173v478c0 6 4 10 10 10h11c6 0 10 -4 10 -10v-479c0 -141 -73 -201 -184 -201z" />
    <glyph glyph-name="uni0458" unicode="&#x458;" horiz-adv-x="230" 
d="M23 -180h-4c-6 0 -10 4 -10 10v8c0 6 4 10 10 10h4c60 0 77 14 77 81v535c0 6 4 10 10 10h10c6 0 10 -4 10 -10v-535c0 -84 -26 -109 -107 -109zM103 620c-6 0 -10 4 -10 10v40c0 6 4 10 10 10h24c6 0 10 -4 10 -10v-40c0 -6 -4 -10 -10 -10h-24z" />
    <glyph glyph-name="uni0410" unicode="&#x410;" horiz-adv-x="587" 
d="M44 0c-6 0 -9 4 -7 10l240 660c2 6 5 10 11 10h13c6 0 9 -4 11 -10l238 -660c2 -6 -1 -10 -7 -10h-14c-6 0 -10 2 -13 10l-66 185h-313l-67 -185c-3 -8 -7 -10 -13 -10h-13zM147 224h292l-144 403h-2z" />
    <glyph glyph-name="uni0411" unicode="&#x411;" horiz-adv-x="598" 
d="M112 0c-6 0 -10 5 -10 10v661c0 5 3 9 10 9h376c5 0 10 -3 10 -9v-12c0 -5 -5 -8 -10 -8h-349c-4 0 -6 -2 -6 -6v-271c0 -4 2 -6 6 -6h193c128 0 200 -62 200 -184c0 -121 -72 -184 -200 -184h-220zM139 29h193c108 0 169 53 169 155c0 103 -61 155 -169 155h-193
c-4 0 -6 -2 -6 -6v-298c0 -4 2 -6 6 -6z" />
    <glyph glyph-name="uni0412" unicode="&#x412;" horiz-adv-x="599" 
d="M112 0c-6 0 -10 4 -10 10v660c0 6 4 10 10 10h218c122 0 191 -67 191 -174c0 -85 -45 -139 -116 -156v-4c54 -7 127 -58 127 -166s-71 -180 -198 -180h-222zM139 29h195c111 0 167 59 167 151s-56 152 -167 152h-195c-4 0 -6 -2 -6 -6v-291c0 -4 2 -6 6 -6zM139 361h191
c105 0 160 60 160 145c0 90 -55 145 -160 145h-191c-4 0 -6 -2 -6 -6v-278c0 -4 2 -6 6 -6z" />
    <glyph glyph-name="uni0413" unicode="&#x413;" horiz-adv-x="500" 
d="M112 0c-8 0 -10 5 -10 10v661c0 5 4 9 10 9h357c4 0 9 -2 9 -9v-11c0 -6 -5 -9 -9 -9h-330c-4 0 -6 -2 -6 -6v-635c0 -6 -2 -10 -9 -10h-12z" />
    <glyph glyph-name="uni0414" unicode="&#x414;" horiz-adv-x="657" 
d="M25 -167c-5 0 -10 4 -10 9v177c0 6 6 10 11 10h44c6 0 10 4 12 7c63 103 96 208 96 603v32c0 5 3 9 10 9h348c8 0 9 -4 9 -9v-636c0 -4 2 -6 6 -6h68c5 0 10 -4 10 -10v-177c0 -5 -4 -9 -9 -9h-13c-5 0 -9 4 -9 9v152c0 4 -2 6 -6 6h-540c-4 0 -6 -2 -6 -6v-152
c0 -5 -4 -9 -9 -9h-12zM119 29h389c4 0 6 2 6 6v610c0 4 -2 6 -6 6h-293c-4 0 -6 -2 -6 -6v-5c0 -398 -36 -506 -93 -605c-2 -3 -1 -6 3 -6z" />
    <glyph glyph-name="uni0415" unicode="&#x415;" horiz-adv-x="550" 
d="M112 0c-6 0 -10 4 -10 10v660c0 6 4 10 10 10h374c6 0 10 -4 10 -10v-9c0 -6 -4 -10 -10 -10h-347c-4 0 -6 -2 -6 -6v-279c0 -4 2 -6 6 -6h300c6 0 10 -4 10 -10v-9c0 -6 -4 -10 -10 -10h-300c-4 0 -6 -2 -6 -6v-290c0 -4 2 -6 6 -6h347c6 0 10 -4 10 -10v-9
c0 -6 -4 -10 -10 -10h-374z" />
    <glyph glyph-name="uni0416" unicode="&#x416;" horiz-adv-x="905" 
d="M447 0c-6 0 -10 4 -10 10v315c0 4 -2 6 -6 6h-87c-59 0 -89 -15 -111 -65l-78 -180c-25 -57 -49 -89 -115 -89h-14c-6 0 -10 4 -10 10v9c0 6 4 10 10 10h15c49 0 66 29 87 76l66 153c21 47 44 86 88 93v4c-40 18 -60 57 -82 103l-62 129c-24 49 -33 70 -83 70h-6
c-6 0 -10 4 -10 10v9c0 6 4 10 10 10h7c61 0 83 -28 109 -84l68 -144c19 -40 55 -95 111 -95h87c4 0 6 2 6 6v304c0 6 4 10 10 10h11c6 0 10 -4 10 -10v-304c0 -4 2 -6 6 -6h87c56 0 92 55 111 95l68 144c26 56 48 84 109 84h7c6 0 10 -4 10 -10v-9c0 -6 -4 -10 -10 -10h-6
c-50 0 -59 -21 -83 -70l-62 -129c-22 -46 -42 -85 -82 -103v-4c44 -7 67 -46 88 -93l66 -153c21 -47 38 -76 87 -76h15c6 0 10 -4 10 -10v-9c0 -6 -4 -10 -10 -10h-14c-66 0 -90 32 -115 89l-78 180c-22 50 -52 65 -111 65h-87c-4 0 -6 -2 -6 -6v-315c0 -6 -4 -10 -10 -10
h-11z" />
    <glyph glyph-name="uni0417" unicode="&#x417;" horiz-adv-x="553" 
d="M262 -10c-88 0 -171 41 -211 80c-4 5 -4 10 0 14l8 8c4 5 9 5 14 1c43 -38 103 -74 189 -74c124 0 193 68 193 161c0 103 -62 152 -171 152h-71c-4 0 -10 4 -10 10v10c0 6 6 9 10 9h70c103 0 161 58 161 154c0 89 -70 146 -172 146c-76 0 -126 -25 -175 -64
c-4 -4 -10 -7 -14 -1l-7 8c-3 4 -5 8 1 13c53 42 107 73 192 73c129 0 206 -66 206 -175c0 -83 -34 -139 -107 -164v-4c78 -16 118 -79 118 -169c0 -108 -76 -188 -224 -188z" />
    <glyph glyph-name="uni0418" unicode="&#x418;" horiz-adv-x="668" 
d="M112 0c-7 0 -10 5 -10 10v661c0 5 4 9 10 9h12c5 0 9 -4 9 -9v-619h3l392 623c1 2 4 5 9 5h19c7 0 10 -4 10 -9v-661c0 -5 -4 -10 -10 -10h-11c-6 0 -10 5 -10 10v619h-3l-391 -619c-3 -5 -6 -10 -16 -10h-13z" />
    <glyph glyph-name="uni0419" unicode="&#x419;" horiz-adv-x="668" 
d="M112 0c-7 0 -10 5 -10 10v661c0 5 4 9 10 9h12c5 0 9 -4 9 -9v-619h3l392 623c1 2 4 5 9 5h19c7 0 10 -4 10 -9v-661c0 -5 -4 -10 -10 -10h-11c-6 0 -10 5 -10 10v619h-3l-391 -619c-3 -5 -6 -10 -16 -10h-13zM334 769c-60 0 -99 34 -120 96c-2 5 0 7 4 9l13 5
c3 1 7 0 9 -5c12 -37 44 -77 94 -77s82 40 94 77c2 5 6 6 9 5l13 -5c4 -2 6 -4 4 -9c-21 -62 -60 -96 -120 -96z" />
    <glyph glyph-name="uni041A" unicode="&#x41a;" horiz-adv-x="582" 
d="M112 0c-6 0 -10 4 -10 10v660c0 6 4 10 10 10h11c6 0 10 -4 10 -10v-304c0 -4 2 -6 6 -6h99c56 0 92 55 111 95l68 147c26 56 48 81 109 81h7c6 0 10 -4 10 -10v-9c0 -6 -4 -10 -10 -10h-6c-50 0 -60 -18 -83 -67l-65 -139c-22 -46 -46 -81 -79 -96v-4
c44 -7 68 -46 88 -93l66 -156c20 -47 31 -73 87 -73h15c6 0 10 -4 10 -10v-9c0 -6 -4 -10 -10 -10h-14c-66 0 -91 29 -115 86l-78 183c-21 50 -52 65 -111 65h-99c-4 0 -6 -2 -6 -6v-315c0 -6 -4 -10 -10 -10h-11z" />
    <glyph glyph-name="uni041B" unicode="&#x41b;" horiz-adv-x="660" 
d="M15 -3c-4 0 -9 3 -9 10v8c0 7 5 10 9 10h11c98 0 164 66 164 400v246c0 5 3 9 10 9h348c7 0 10 -4 10 -9v-661c0 -5 -4 -10 -9 -10h-13c-5 0 -9 5 -9 10v635c0 4 -2 6 -6 6h-294c-4 0 -6 -2 -6 -6v-250c0 -293 -67 -398 -193 -398h-13z" />
    <glyph glyph-name="uni041C" unicode="&#x41c;" horiz-adv-x="754" 
d="M112 0c-6 0 -10 4 -10 10v660c0 6 4 10 10 10h14c5 0 10 -3 13 -10l237 -522h3l236 522c3 7 8 10 13 10h14c6 0 10 -4 10 -10v-660c0 -6 -4 -10 -10 -10h-11c-6 0 -10 4 -10 10v590h-3l-222 -486c-4 -8 -7 -10 -17 -10h-4c-10 0 -13 2 -17 10l-222 486h-3v-590
c0 -6 -4 -10 -10 -10h-11z" />
    <glyph glyph-name="uni041D" unicode="&#x41d;" horiz-adv-x="647" 
d="M112 0c-6 0 -10 4 -10 10v660c0 6 4 10 10 10h11c6 0 10 -4 10 -10v-304c0 -4 2 -6 6 -6h369c4 0 6 2 6 6v304c0 6 4 10 10 10h11c6 0 10 -4 10 -10v-660c0 -6 -4 -10 -10 -10h-11c-6 0 -10 4 -10 10v315c0 4 -2 6 -6 6h-369c-4 0 -6 -2 -6 -6v-315c0 -6 -4 -10 -10 -10
h-11z" />
    <glyph glyph-name="uni041E" unicode="&#x41e;" horiz-adv-x="602" 
d="M301 -10c-107 0 -179 50 -211 148c-10 30 -20 78 -20 202s10 172 20 202c32 98 104 148 211 148s179 -50 211 -148c10 -30 20 -78 20 -202s-10 -172 -20 -202c-32 -98 -104 -148 -211 -148zM301 19c92 0 153 43 181 127c9 27 19 73 19 194s-10 167 -19 194
c-28 84 -89 127 -181 127s-153 -43 -181 -127c-9 -27 -19 -73 -19 -194s10 -167 19 -194c28 -84 89 -127 181 -127z" />
    <glyph glyph-name="uni041F" unicode="&#x41f;" horiz-adv-x="640" 
d="M112 0c-6 0 -10 4 -10 10v660c0 6 4 10 10 10h416c6 0 10 -4 10 -10v-660c0 -6 -4 -10 -10 -10h-11c-6 0 -10 4 -10 10v635c0 4 -2 6 -6 6h-362c-4 0 -6 -2 -6 -6v-635c0 -6 -4 -10 -10 -10h-11z" />
    <glyph glyph-name="uni0420" unicode="&#x420;" horiz-adv-x="579" 
d="M112 0c-6 0 -10 4 -10 10v660c0 6 4 10 10 10h215c133 0 203 -66 203 -184s-70 -184 -203 -184h-188c-4 0 -6 -2 -6 -6v-296c0 -6 -4 -10 -10 -10h-11zM139 341h188c113 0 172 56 172 155s-59 155 -172 155h-188c-4 0 -6 -2 -6 -6v-298c0 -4 2 -6 6 -6z" />
    <glyph glyph-name="uni0421" unicode="&#x421;" horiz-adv-x="548" 
d="M293 -10c-103 0 -173 47 -205 145c-10 30 -18 81 -18 205s8 175 18 205c32 98 102 145 205 145c86 0 155 -37 194 -116c3 -5 3 -10 -2 -13l-10 -5c-5 -3 -10 -1 -13 4c-35 64 -88 101 -169 101c-91 0 -147 -40 -175 -124c-9 -27 -17 -76 -17 -197s8 -170 17 -197
c28 -84 84 -124 175 -124c81 0 134 37 169 101c3 5 8 7 13 4l10 -5c5 -3 5 -8 2 -13c-39 -79 -108 -116 -194 -116z" />
    <glyph glyph-name="uni0422" unicode="&#x422;" horiz-adv-x="513" 
d="M251 0c-6 0 -10 4 -10 10v635c0 4 -2 6 -6 6h-203c-6 0 -10 4 -10 10v9c0 6 4 10 10 10h449c6 0 10 -4 10 -10v-9c0 -6 -4 -10 -10 -10h-203c-4 0 -6 -2 -6 -6v-635c0 -6 -4 -10 -10 -10h-11z" />
    <glyph glyph-name="uni0423" unicode="&#x423;" horiz-adv-x="527" 
d="M94 -3c-5 0 -9 3 -9 10v9c0 7 4 10 9 10h26c54 0 78 24 103 85l32 76l-224 485c-2 5 0 8 5 8h21c4 0 6 -3 7 -6l207 -447h3l187 444c2 5 4 9 11 9h18c4 0 8 -2 5 -9l-243 -571c-28 -64 -63 -103 -124 -103h-34z" />
    <glyph glyph-name="uni0424" unicode="&#x424;" horiz-adv-x="722" 
d="M354 -10c-6 0 -9 5 -9 10v77c0 4 -2 6 -6 6c-183 5 -282 98 -282 270c0 176 98 270 282 275c4 0 6 2 6 6v47c0 5 3 8 10 8h11c7 0 10 -3 10 -8v-47c0 -4 2 -6 6 -6c185 -5 283 -99 283 -275c0 -172 -99 -265 -283 -270c-4 0 -6 -2 -6 -6v-77c0 -5 -4 -10 -10 -10h-12z
M339 112c4 0 6 2 6 6v474c0 4 -2 7 -6 7c-183 -3 -251 -102 -251 -245c0 -145 77 -240 251 -242zM382 112c175 2 252 97 252 242c0 143 -68 242 -252 245c-4 0 -6 -3 -6 -7v-474c0 -4 2 -6 6 -6z" />
    <glyph glyph-name="uni0425" unicode="&#x425;" horiz-adv-x="533" 
d="M45 0c-6 0 -8 5 -5 10l209 349l-186 311c-3 5 -1 10 5 10h18c6 0 9 -3 12 -8l168 -284h1l169 284c3 5 6 8 12 8h17c6 0 8 -5 5 -10l-186 -311l209 -349c3 -5 1 -10 -5 -10h-18c-6 0 -9 3 -12 8l-191 322h-1l-192 -322c-3 -5 -6 -8 -12 -8h-17z" />
    <glyph glyph-name="uni0426" unicode="&#x426;" horiz-adv-x="650" 
d="M601 -167c-6 0 -10 4 -10 9v152c0 4 -2 6 -6 6h-473c-6 0 -10 4 -10 10v660c0 6 4 10 10 10h11c6 0 10 -4 10 -10v-635c0 -4 2 -6 6 -6h362c4 0 6 2 6 6v635c0 6 4 10 10 10h11c6 0 10 -4 10 -10v-635c0 -4 2 -6 6 -6h68c5 0 10 -4 10 -10v-177c0 -5 -4 -9 -9 -9h-12z
" />
    <glyph glyph-name="uni0427" unicode="&#x427;" horiz-adv-x="610" 
d="M486 0c-5 0 -9 5 -9 10v287c0 5 -3 5 -7 4c-48 -19 -138 -39 -194 -39c-116 0 -188 44 -188 169v240c0 5 3 9 10 9h11c7 0 10 -4 10 -9v-234c0 -127 79 -147 159 -147c62 0 141 17 195 41c3 2 4 6 4 10v330c0 5 2 9 9 9h12c7 0 10 -4 10 -9v-661c0 -5 -4 -10 -9 -10h-13z
" />
    <glyph glyph-name="uni0428" unicode="&#x428;" horiz-adv-x="925" 
d="M112 0c-6 0 -10 4 -10 10v660c0 6 4 10 10 10h11c6 0 10 -4 10 -10v-635c0 -4 2 -6 6 -6h302c4 0 6 2 6 6v635c0 6 4 10 10 10h11c6 0 10 -4 10 -10v-635c0 -4 2 -6 6 -6h302c4 0 6 2 6 6v635c0 6 4 10 10 10h11c6 0 10 -4 10 -10v-660c0 -6 -4 -10 -10 -10h-701z" />
    <glyph glyph-name="uni0429" unicode="&#x429;" horiz-adv-x="935" 
d="M886 -167c-6 0 -10 4 -10 9v152c0 4 -2 6 -6 6h-758c-6 0 -10 4 -10 10v660c0 6 4 10 10 10h11c6 0 10 -4 10 -10v-635c0 -4 2 -6 6 -6h302c4 0 6 2 6 6v635c0 6 4 10 10 10h11c6 0 10 -4 10 -10v-635c0 -4 2 -6 6 -6h302c4 0 6 2 6 6v635c0 6 4 10 10 10h11
c6 0 10 -4 10 -10v-635c0 -4 2 -6 6 -6h68c5 0 10 -4 10 -10v-177c0 -5 -4 -9 -9 -9h-12z" />
    <glyph glyph-name="uni042A" unicode="&#x42a;" horiz-adv-x="698" 
d="M217 0c-8 0 -10 5 -10 10v635c0 5 -2 6 -6 6h-170c-5 0 -9 4 -9 9v11c0 6 4 9 9 9h198c5 0 9 -4 9 -9v-287c0 -4 2 -6 6 -6h208c123 0 197 -66 197 -188c0 -123 -74 -190 -197 -190h-235zM244 29h204c107 0 170 57 170 161c0 103 -63 159 -170 159h-204c-4 0 -6 -2 -6 -6
v-308c0 -4 2 -6 6 -6z" />
    <glyph glyph-name="uni042B" unicode="&#x42b;" horiz-adv-x="770" 
d="M112 0c-8 0 -10 5 -10 10v661c0 5 4 9 10 9h12c5 0 9 -4 9 -9v-287c0 -4 2 -6 6 -6h198c123 0 197 -66 197 -188c0 -123 -74 -190 -197 -190h-225zM139 29h194c107 0 170 57 170 161c0 103 -63 159 -170 159h-194c-4 0 -6 -2 -6 -6v-308c0 -4 2 -6 6 -6zM647 0
c-6 0 -10 5 -10 10v661c0 5 2 9 10 9h11c7 0 10 -4 10 -9v-661c0 -5 -4 -10 -10 -10h-11z" />
    <glyph glyph-name="uni042C" unicode="&#x42c;" horiz-adv-x="593" 
d="M112 0c-8 0 -10 5 -10 10v661c0 5 4 9 10 9h12c5 0 9 -4 9 -9v-287c0 -4 2 -6 6 -6h208c123 0 197 -66 197 -188c0 -123 -74 -190 -197 -190h-235zM139 29h204c107 0 170 57 170 161c0 103 -63 159 -170 159h-204c-4 0 -6 -2 -6 -6v-308c0 -4 2 -6 6 -6z" />
    <glyph glyph-name="uni042D" unicode="&#x42d;" horiz-adv-x="561" 
d="M256 -10c-87 0 -168 36 -197 120c-2 5 -2 10 3 13l12 6c5 3 11 1 13 -3c33 -66 86 -107 170 -107c71 0 138 24 172 97c22 47 31 109 31 210c0 3 -2 5 -5 5h-266c-4 0 -9 4 -9 9v11c0 6 5 9 9 9h265c4 0 6 2 6 6c1 44 -5 126 -19 168c-26 81 -86 127 -184 127
c-89 0 -137 -44 -171 -106c-3 -5 -8 -7 -13 -4l-11 6c-5 3 -5 8 -3 12c41 81 110 121 197 121c93 0 178 -35 215 -150c14 -43 20 -104 20 -191c0 -110 -4 -196 -43 -262c-40 -69 -105 -97 -192 -97z" />
    <glyph glyph-name="uni042E" unicode="&#x42e;" horiz-adv-x="806" 
d="M519 -10c-100 0 -168 47 -198 139c-9 26 -18 75 -19 196c0 4 -2 6 -6 6h-155c-4 0 -6 -2 -6 -6v-315c0 -5 -4 -10 -9 -10h-12c-6 0 -10 5 -10 10v661c0 5 3 9 10 9h12c6 0 9 -4 9 -9v-305c0 -4 2 -6 6 -6h155c4 0 6 2 6 6c1 115 11 160 19 185c30 92 98 139 198 139
s166 -48 197 -139c9 -27 20 -75 20 -211s-11 -184 -20 -211c-31 -91 -97 -139 -197 -139zM519 19c86 0 142 40 168 117c8 26 18 71 18 204s-10 178 -18 204c-26 77 -82 117 -168 117s-142 -40 -168 -117c-8 -26 -18 -71 -18 -204s10 -178 18 -204c26 -77 82 -117 168 -117z
" />
    <glyph glyph-name="uni042F" unicode="&#x42f;" horiz-adv-x="619" 
d="M27 -3c-7 0 -10 4 -10 10v9c0 6 3 10 10 10h19c47 0 63 23 91 79l58 133c12 27 31 61 57 74v4c-114 7 -171 69 -171 181c0 120 85 183 190 183h236c6 0 10 -4 10 -10v-660c0 -6 -4 -10 -10 -10h-11c-6 0 -10 4 -10 10v296c0 4 -2 6 -6 6h-149c-47 0 -80 -22 -100 -69
l-64 -148c-24 -55 -52 -98 -119 -98h-21zM266 341h214c4 0 6 2 6 6v298c0 4 -2 6 -6 6h-204c-96 0 -164 -51 -164 -154s58 -156 154 -156z" />
    <glyph glyph-name="uni0430" unicode="&#x430;" horiz-adv-x="509" 
d="M231 -10c-99 0 -159 49 -159 138c0 90 62 136 176 136h131c4 0 6 2 6 6v61c0 90 -28 125 -132 125c-64 0 -99 -14 -124 -38c-5 -5 -10 -5 -14 -2l-7 6c-6 5 -5 10 -1 14c29 30 77 48 146 48c114 0 162 -36 162 -153v-321c0 -6 -4 -10 -10 -10h-10c-6 0 -10 4 -10 10v57
h-1c-17 -43 -70 -77 -153 -77zM235 18c88 0 150 51 150 122v90c0 4 -2 6 -6 6h-129c-104 0 -148 -36 -148 -108c0 -70 48 -110 133 -110z" />
    <glyph glyph-name="uni0431" unicode="&#x431;" horiz-adv-x="517" 
d="M263 -10c-56 0 -95 21 -122 46c-55 50 -62 137 -62 234c0 184 -2 259 68 327c52 49 139 55 214 59c27 1 41 10 43 23c1 5 4 10 11 10h12c6 0 9 -5 7 -10c-9 -40 -26 -45 -79 -49c-84 -6 -143 -9 -192 -57c-46 -46 -54 -91 -54 -195h3c27 55 92 90 154 90
c117 0 186 -81 186 -236c0 -163 -67 -242 -189 -242zM264 18c92 0 158 63 158 209c0 155 -66 213 -158 213c-85 0 -155 -54 -155 -212c0 -156 70 -210 155 -210z" />
    <glyph glyph-name="uni0432" unicode="&#x432;" horiz-adv-x="500" 
d="M110 0c-6 0 -10 5 -10 10v455c0 6 5 9 10 9h184c87 0 133 -45 133 -121c0 -54 -27 -90 -76 -106v-4c56 -14 84 -57 84 -114c0 -78 -50 -129 -138 -129h-187zM136 28h158c69 0 111 36 111 101c0 62 -42 101 -111 101h-158c-4 0 -6 -2 -6 -6v-190c0 -4 2 -6 6 -6zM136 258
h157c67 0 104 40 104 99s-39 89 -104 89h-157c-4 0 -6 -2 -6 -5v-178c0 -3 2 -5 6 -5z" />
    <glyph glyph-name="uni0433" unicode="&#x433;" horiz-adv-x="389" 
d="M109 0c-5 0 -9 5 -9 10v455c0 7 5 9 9 9h255c5 0 10 -3 10 -9v-9c0 -7 -5 -10 -10 -10h-228c-4 0 -6 -2 -6 -6v-430c0 -5 -4 -10 -11 -10h-10z" />
    <glyph glyph-name="uni0434" unicode="&#x434;" horiz-adv-x="545" 
d="M19 -145c-5 0 -9 5 -9 10v154c0 5 5 9 10 9h36c8 0 17 2 23 12c31 50 65 120 65 282v143c0 6 3 9 10 9h273c8 0 11 -3 11 -9v-431c0 -4 2 -6 6 -6h57c5 0 10 -4 10 -9v-154c0 -5 -4 -10 -9 -10h-11c-6 0 -10 5 -10 10v129c0 4 -2 6 -6 6h-429c-4 0 -6 -2 -6 -6v-129
c0 -5 -4 -10 -9 -10h-12zM113 28h289c4 0 6 2 6 6v406c0 4 -2 6 -6 6h-222c-4 0 -6 -2 -6 -6v-113c0 -161 -33 -242 -65 -293c-2 -3 1 -6 4 -6z" />
    <glyph glyph-name="uni0435" unicode="&#x435;" horiz-adv-x="494" 
d="M253 -10c-88 0 -148 41 -174 122c-9 28 -14 60 -14 126c0 65 5 99 14 126c26 79 87 120 168 120s142 -40 168 -120c9 -27 14 -58 14 -118c0 -6 -4 -10 -11 -10h-317c-4 0 -6 -3 -6 -7c0 -53 4 -81 12 -107c24 -72 76 -104 146 -104c66 0 114 29 143 69c4 5 9 6 14 2l6 -5
c5 -4 5 -9 1 -14c-33 -47 -89 -80 -164 -80zM101 264h292c4 0 6 2 6 6c0 34 -4 60 -11 83c-22 69 -72 103 -141 103s-119 -34 -141 -103c-7 -23 -11 -49 -11 -83c0 -4 2 -6 6 -6z" />
    <glyph glyph-name="uni0436" unicode="&#x436;" horiz-adv-x="730" 
d="M39 -3c-6 0 -10 4 -10 10v8c0 6 4 10 10 10h8c49 0 65 19 81 64l30 84c15 42 44 70 74 74v4c-22 10 -42 35 -56 68l-30 71c-20 46 -41 59 -79 59h-11c-7 0 -11 5 -11 11v7c0 6 4 10 11 10h13c50 0 79 -19 102 -73l30 -71c17 -40 46 -75 93 -75h50c4 0 6 2 6 6v201
c0 6 6 9 11 9h8c5 0 11 -3 11 -9v-201c0 -4 2 -6 6 -6h50c47 0 76 35 93 75l30 71c23 54 52 73 102 73h13c7 0 11 -4 11 -10v-7c0 -6 -4 -11 -11 -11h-11c-38 0 -59 -13 -79 -59l-30 -71c-14 -33 -34 -58 -56 -68v-4c30 -4 59 -32 74 -74l30 -84c16 -45 32 -64 81 -64h8
c6 0 10 -4 10 -10v-8c0 -6 -4 -10 -10 -10h-15c-61 0 -81 24 -104 87l-30 83c-22 62 -74 62 -102 62h-54c-4 0 -6 -2 -6 -6v-213c0 -5 -4 -10 -11 -10h-8c-7 0 -11 5 -11 10v213c0 4 -2 6 -6 6h-54c-28 0 -80 0 -102 -62l-30 -83c-23 -63 -43 -87 -104 -87h-15z" />
    <glyph glyph-name="uni0437" unicode="&#x437;" horiz-adv-x="460" 
d="M221 -10c-74 0 -122 20 -168 62c-5 4 -5 9 1 15l6 6c4 4 10 4 14 0c45 -43 86 -55 146 -55c91 0 143 43 143 108c0 68 -48 104 -118 104h-63c-5 0 -9 4 -9 12v6c0 6 4 10 9 10h66c62 0 107 36 107 100c0 60 -49 98 -125 98c-59 0 -99 -10 -136 -43c-5 -4 -11 -3 -13 0
l-9 10c-2 3 -4 7 1 11c43 36 93 50 156 50c98 0 156 -44 156 -127c0 -53 -24 -90 -74 -109v-4c49 -10 82 -53 82 -116c0 -87 -69 -138 -172 -138z" />
    <glyph glyph-name="uni0438" unicode="&#x438;" horiz-adv-x="556" 
d="M110 0c-6 0 -10 5 -10 10v455c0 6 4 9 10 9h10c6 0 10 -3 10 -9v-413h3l291 418c2 3 5 4 9 4h12c6 0 11 -3 11 -9v-455c0 -5 -5 -10 -11 -10h-8c-6 0 -11 5 -11 10v411h-3l-290 -416c-3 -4 -6 -5 -10 -5h-13z" />
    <glyph glyph-name="uni0439" unicode="&#x439;" horiz-adv-x="556" 
d="M282 579c-60 0 -99 34 -120 96c-2 5 0 7 4 9l13 5c3 1 7 0 9 -5c12 -37 44 -77 94 -77s82 40 94 77c2 5 6 6 9 5l13 -5c4 -2 6 -4 4 -9c-21 -62 -60 -96 -120 -96zM110 0c-6 0 -10 5 -10 10v455c0 6 4 9 10 9h10c6 0 10 -3 10 -9v-413h3l291 418c2 3 5 4 9 4h12
c6 0 11 -3 11 -9v-455c0 -5 -5 -10 -11 -10h-8c-6 0 -11 5 -11 10v411h-3l-290 -416c-3 -4 -6 -5 -10 -5h-13z" />
    <glyph glyph-name="uni043A" unicode="&#x43a;" horiz-adv-x="495" 
d="M110 0c-6 0 -10 5 -10 10v455c0 6 5 9 10 9h9c5 0 11 -3 11 -9v-201c0 -4 2 -6 6 -6h65c47 0 76 35 93 75l30 71c23 54 52 73 102 73h13c7 0 11 -4 11 -10v-7c0 -6 -4 -11 -11 -11h-11c-38 0 -59 -13 -79 -59l-30 -71c-14 -33 -34 -58 -56 -68v-4c30 -4 59 -32 74 -74
l30 -84c16 -45 32 -64 81 -64h8c6 0 10 -4 10 -10v-8c0 -6 -4 -10 -10 -10h-15c-61 0 -81 24 -104 87l-30 83c-23 62 -74 62 -102 62h-69c-4 0 -6 -2 -6 -6v-213c0 -5 -4 -10 -11 -10h-9z" />
    <glyph glyph-name="uni043B" unicode="&#x43b;" horiz-adv-x="540" 
d="M21 -3c-5 0 -9 3 -9 10v9c0 6 4 9 9 9h17c45 0 115 14 115 246v194c0 6 3 9 10 9h268c6 0 9 -3 9 -9v-455c0 -5 -4 -10 -9 -10h-11c-6 0 -10 5 -10 10v430c0 4 -2 6 -6 6h-215c-4 0 -6 -2 -6 -6v-195c0 -197 -68 -248 -146 -248h-16z" />
    <glyph glyph-name="uni043C" unicode="&#x43c;" horiz-adv-x="615" 
d="M110 0c-6 0 -10 5 -10 10v455c0 6 5 9 10 9h11c5 0 10 -3 12 -7l173 -357h3l173 357c2 4 7 7 13 7h10c6 0 10 -3 10 -9v-455c0 -5 -4 -10 -10 -10h-10c-6 0 -10 5 -10 10v387h-3l-157 -320c-4 -8 -9 -10 -14 -10h-9c-6 0 -10 6 -12 10l-157 320h-3v-387
c0 -5 -4 -10 -10 -10h-10z" />
    <glyph glyph-name="uni043D" unicode="&#x43d;" horiz-adv-x="545" 
d="M110 0c-6 0 -10 5 -10 10v455c0 6 5 9 10 9h9c5 0 11 -3 11 -9v-201c0 -4 2 -6 6 -6h273c4 0 6 2 6 6v201c0 6 4 9 10 9h10c6 0 10 -3 10 -9v-455c0 -5 -4 -10 -10 -10h-10c-6 0 -10 5 -10 10v214c0 4 -2 6 -6 6h-273c-4 0 -6 -2 -6 -6v-214c0 -5 -4 -10 -11 -10h-9z" />
    </font>
</defs>
</svg>
