<?xml version="1.0" standalone="no"?>
<!DOCTYPE svg PUBLIC "-//W3C//DTD SVG 1.1//EN" "http://www.w3.org/Graphics/SVG/1.1/DTD/svg11.dtd" >
<svg xmlns="http://www.w3.org/2000/svg" xmlns:xlink="http://www.w3.org/1999/xlink" version="1.1">
<metadata>
Created by FontForge 20170910 at Fri May 21 11:51:21 2010
 By Jimmy Wärting
Copyright (c) 2010 Linotype GmbH, www.linotype.com. All rights reserved. This font software may not be reproduced, modified, disclosed or transferred without the express written approval of Linotype GmbH.
</metadata>
<defs>
<font id="DINNextW1G-HeavyItalic" horiz-adv-x="544" >
  <font-face 
    font-family="DIN Next W1G Medium"
    font-weight="750"
    font-style="italic"
    font-stretch="normal"
    units-per-em="1000"
    panose-1="2 11 9 3 2 2 3 12 2 3"
    ascent="750"
    descent="-250"
    x-height="487"
    cap-height="680"
    bbox="-220.197 -244 1092 930"
    underline-thickness="50"
    underline-position="-100"
    slope="-10"
    stemh="133"
    stemv="119"
    unicode-range="U+000D-FB04"
  />
<missing-glyph horiz-adv-x="530" 
d="M520 0h-510c-6 0 -10 4 -10 10v660c0 6 4 10 10 10h510c6 0 10 -4 10 -10v-660c0 -6 -4 -10 -10 -10zM445 75c4 0 6 2 6 6v518c0 4 -2 6 -6 6h-360c-4 0 -6 -2 -6 -6v-518c0 -4 2 -6 6 -6h360zM300 249h-81c-6 0 -10 4 -10 10v24c0 24 7 38 20 54l39 47
c20 23 28 35 28 51c0 22 -14 37 -36 37c-23 0 -36 -13 -41 -34c-2 -7 -6 -10 -12 -9l-76 10c-6 1 -9 5 -8 11c10 68 62 113 142 113c84 0 136 -54 136 -120c0 -37 -11 -61 -40 -92l-38 -47c-9 -10 -13 -19 -13 -35v-10c0 -6 -4 -10 -10 -10zM301 113h-83c-6 0 -10 4 -10 10
v75c0 6 4 10 10 10h83c6 0 10 -4 10 -10v-75c0 -6 -4 -10 -10 -10z" />
    <glyph glyph-name="napostrophe" unicode="&#x22;n" horiz-adv-x="540" 
d="M24 476c-8 0 -11 5 -10 12l32 182c1 6 5 10 11 10h105c6 0 10 -4 9 -10l-17 -92c-1 -9 -5 -16 -12 -21l-102 -74c-7 -5 -11 -7 -16 -7zM445 0h-143c-5 0 -9 4 -8 10l49 279c8 48 -5 75 -44 75c-37 0 -63 -27 -71 -74l-49 -280c-1 -6 -5 -10 -11 -10h-143c-5 0 -9 4 -8 10
l82 467c1 6 6 10 11 10h143c6 0 9 -4 8 -10l-6 -37h1c27 33 72 59 130 59c112 0 144 -78 125 -181l-55 -308c-1 -6 -5 -10 -11 -10z" />
    <glyph glyph-name="IJ" unicode="IJ" horiz-adv-x="783" 
d="M19 10l117 660c1 6 5 10 11 10h150c6 0 9 -4 8 -10l-117 -660c-1 -6 -4 -10 -10 -10h-150c-6 0 -10 4 -9 10zM266 84c-1 5 -1 10 4 14l118 80c5 3 10 3 13 -1c16 -22 38 -37 68 -37c55 0 86 31 99 103l76 427c1 6 5 10 11 10h151c6 0 10 -4 9 -10l-74 -414
c-34 -188 -131 -268 -291 -268c-86 0 -159 43 -184 96z" />
    <glyph glyph-name="fi" unicode="fi" horiz-adv-x="604" 
d="M188 0h-142c-6 0 -10 4 -9 10l61 355c1 4 -1 6 -5 6h-27c-6 0 -8 4 -7 10l17 96c1 6 5 10 10 10h28c4 0 6 2 7 6l3 16c22 124 81 171 204 171h63c5 0 9 -4 8 -10l-19 -103c-1 -6 -5 -10 -10 -10h-28c-39 0 -52 -10 -58 -46l-3 -17c-1 -5 1 -7 5 -7h69c6 0 10 -4 9 -10
l-18 -96c-1 -6 -5 -10 -11 -10h-69c-4 0 -6 -2 -7 -6l-61 -355c-1 -6 -5 -10 -10 -10zM604 553h-143c-6 0 -9 4 -8 10l19 107c1 6 5 10 11 10h143c6 0 9 -4 8 -10l-19 -107c-1 -6 -5 -10 -11 -10zM507 0h-143c-5 0 -9 4 -8 10l82 467c1 6 6 10 11 10h143c6 0 9 -4 8 -10
l-82 -467c-1 -6 -5 -10 -11 -10z" />
    <glyph glyph-name="fl" unicode="fl" horiz-adv-x="644" 
d="M188 0h-142c-6 0 -10 4 -9 10l61 355c1 4 -1 6 -5 6h-27c-6 0 -8 4 -7 10l17 96c1 6 5 10 10 10h28c4 0 6 2 7 6l3 16c22 124 81 171 204 171h63c5 0 9 -4 8 -10l-19 -103c-1 -6 -5 -10 -10 -10h-28c-39 0 -52 -10 -58 -46l-3 -17c-1 -5 1 -7 5 -7h69c6 0 10 -4 9 -10
l-18 -96c-1 -6 -5 -10 -11 -10h-69c-4 0 -6 -2 -7 -6l-61 -355c-1 -6 -5 -10 -10 -10zM571 -6h-58c-122 0 -153 51 -133 168l92 508c1 6 5 10 10 10h143c6 0 10 -4 9 -10l-90 -493c-5 -33 3 -47 32 -47h19c5 0 9 -4 8 -10l-20 -116c-1 -6 -6 -10 -12 -10z" />
    <glyph glyph-name="ij" unicode="ij" horiz-adv-x="530" 
d="M265 553h-143c-6 0 -9 4 -8 10l19 107c1 6 5 10 11 10h143c6 0 9 -4 8 -10l-19 -107c-1 -6 -5 -10 -11 -10zM168 0h-143c-5 0 -9 4 -8 10l82 467c1 6 6 10 11 10h143c6 0 9 -4 8 -10l-82 -467c-1 -6 -5 -10 -11 -10zM530 553h-143c-6 0 -9 4 -8 10l20 107c1 6 5 10 11 10
h142c6 0 9 -4 8 -10l-19 -107c-1 -6 -5 -10 -11 -10zM219 -180h-36c-6 0 -9 4 -7 10l20 113c1 6 5 10 11 10h13c38 0 54 10 62 56l82 468c1 6 6 10 11 10h143c6 0 9 -4 8 -10l-82 -468c-26 -150 -87 -189 -225 -189z" />
    <glyph glyph-name="f_f_l" unicode="ffl" horiz-adv-x="983" 
d="M188 0h-142c-6 0 -10 4 -9 10l61 355c1 4 -1 6 -5 6h-27c-6 0 -8 4 -7 10l17 96c1 6 5 10 10 10h28c4 0 6 2 7 6l3 16c22 124 81 171 204 171h63c5 0 9 -4 8 -10l-19 -103c-1 -6 -5 -10 -10 -10h-28c-39 0 -52 -10 -58 -46l-3 -17c-1 -5 1 -7 5 -7h69c6 0 10 -4 9 -10
l-18 -96c-1 -6 -5 -10 -11 -10h-69c-4 0 -6 -2 -7 -6l-61 -355c-1 -6 -5 -10 -10 -10zM527 0h-142c-6 0 -10 4 -9 10l61 355c1 4 -1 6 -5 6h-27c-6 0 -8 4 -7 10l17 96c1 6 5 10 10 10h28c4 0 6 2 7 6l3 16c22 124 81 171 204 171h63c5 0 9 -4 8 -10l-19 -103
c-1 -6 -5 -10 -10 -10h-28c-39 0 -52 -10 -58 -46l-3 -17c-1 -5 1 -7 5 -7h69c6 0 10 -4 9 -10l-18 -96c-1 -6 -5 -10 -11 -10h-69c-4 0 -6 -2 -7 -6l-61 -355c-1 -6 -5 -10 -10 -10zM910 -6h-58c-122 0 -153 51 -133 168l92 508c1 6 5 10 10 10h143c6 0 10 -4 9 -10
l-90 -493c-5 -33 3 -47 32 -47h19c5 0 9 -4 8 -10l-20 -116c-1 -6 -6 -10 -12 -10z" />
    <glyph glyph-name="f_f_i" unicode="ffi" horiz-adv-x="943" 
d="M188 0h-142c-6 0 -10 4 -9 10l61 355c1 4 -1 6 -5 6h-27c-6 0 -8 4 -7 10l17 96c1 6 5 10 10 10h28c4 0 6 2 7 6l3 16c22 124 81 171 204 171h63c5 0 9 -4 8 -10l-19 -103c-1 -6 -5 -10 -10 -10h-28c-39 0 -52 -10 -58 -46l-3 -17c-1 -5 1 -7 5 -7h69c6 0 10 -4 9 -10
l-18 -96c-1 -6 -5 -10 -11 -10h-69c-4 0 -6 -2 -7 -6l-61 -355c-1 -6 -5 -10 -10 -10zM527 0h-142c-6 0 -10 4 -9 10l61 355c1 4 -1 6 -5 6h-27c-6 0 -8 4 -7 10l17 96c1 6 5 10 10 10h28c4 0 6 2 7 6l3 16c22 124 81 171 204 171h63c5 0 9 -4 8 -10l-19 -103
c-1 -6 -5 -10 -10 -10h-28c-39 0 -52 -10 -58 -46l-3 -17c-1 -5 1 -7 5 -7h69c6 0 10 -4 9 -10l-18 -96c-1 -6 -5 -10 -11 -10h-69c-4 0 -6 -2 -7 -6l-61 -355c-1 -6 -5 -10 -10 -10zM943 553h-143c-6 0 -9 4 -8 10l19 107c1 6 5 10 11 10h143c6 0 9 -4 8 -10l-19 -107
c-1 -6 -5 -10 -11 -10zM846 0h-143c-5 0 -9 4 -8 10l82 467c1 6 6 10 11 10h143c6 0 9 -4 8 -10l-82 -467c-1 -6 -5 -10 -11 -10z" />
    <glyph glyph-name="f_f" unicode="ff" horiz-adv-x="678" 
d="M188 0h-142c-6 0 -10 4 -9 10l61 355c1 4 -1 6 -5 6h-27c-6 0 -8 4 -7 10l17 96c1 6 5 10 10 10h28c4 0 6 2 7 6l3 16c22 124 81 171 204 171h63c5 0 9 -4 8 -10l-19 -103c-1 -6 -5 -10 -10 -10h-28c-39 0 -52 -10 -58 -46l-3 -17c-1 -5 1 -7 5 -7h69c6 0 10 -4 9 -10
l-18 -96c-1 -6 -5 -10 -11 -10h-69c-4 0 -6 -2 -7 -6l-61 -355c-1 -6 -5 -10 -10 -10zM527 0h-142c-6 0 -10 4 -9 10l61 355c1 4 -1 6 -5 6h-27c-6 0 -8 4 -7 10l17 96c1 6 5 10 10 10h28c4 0 6 2 7 6l3 16c22 124 81 171 204 171h63c5 0 9 -4 8 -10l-19 -103
c-1 -6 -5 -10 -10 -10h-28c-39 0 -52 -10 -58 -46l-3 -17c-1 -5 1 -7 5 -7h69c6 0 10 -4 9 -10l-18 -96c-1 -6 -5 -10 -11 -10h-69c-4 0 -6 -2 -7 -6l-61 -355c-1 -6 -5 -10 -10 -10z" />
    <glyph glyph-name=".notdef" horiz-adv-x="530" 
d="M520 0h-510c-6 0 -10 4 -10 10v660c0 6 4 10 10 10h510c6 0 10 -4 10 -10v-660c0 -6 -4 -10 -10 -10zM445 75c4 0 6 2 6 6v518c0 4 -2 6 -6 6h-360c-4 0 -6 -2 -6 -6v-518c0 -4 2 -6 6 -6h360zM300 249h-81c-6 0 -10 4 -10 10v24c0 24 7 38 20 54l39 47
c20 23 28 35 28 51c0 22 -14 37 -36 37c-23 0 -36 -13 -41 -34c-2 -7 -6 -10 -12 -9l-76 10c-6 1 -9 5 -8 11c10 68 62 113 142 113c84 0 136 -54 136 -120c0 -37 -11 -61 -40 -92l-38 -47c-9 -10 -13 -19 -13 -35v-10c0 -6 -4 -10 -10 -10zM301 113h-83c-6 0 -10 4 -10 10
v75c0 6 4 10 10 10h83c6 0 10 -4 10 -10v-75c0 -6 -4 -10 -10 -10z" />
    <glyph glyph-name=".null" horiz-adv-x="500" 
 />
    <glyph glyph-name=".null" horiz-adv-x="500" 
 />
    <glyph glyph-name="CR" unicode="&#xd;" horiz-adv-x="0" 
 />
    <glyph glyph-name="space" unicode=" " horiz-adv-x="231" 
 />
    <glyph glyph-name="exclam" unicode="!" horiz-adv-x="305" 
d="M104 208c-6 0 -9 4 -8 10l57 452c1 6 5 10 10 10h148c6 0 9 -4 8 -10l-103 -452c-1 -6 -5 -10 -10 -10h-102zM45 10l21 123c1 6 6 10 12 10h132c6 0 9 -4 8 -10l-21 -123c-1 -6 -5 -10 -11 -10h-133c-6 0 -9 4 -8 10z" />
    <glyph glyph-name="quotedbl" unicode="&#x22;" horiz-adv-x="386" 
d="M277 459c-6 0 -9 4 -8 10l35 201c1 6 5 10 11 10h94c6 0 9 -4 8 -10l-35 -201c-1 -6 -6 -10 -12 -10h-93zM105 459c-6 0 -9 4 -8 10l36 201c1 6 5 10 11 10h93c6 0 10 -4 9 -10l-36 -201c-1 -6 -5 -10 -11 -10h-94z" />
    <glyph glyph-name="numbersign" unicode="#" horiz-adv-x="579" 
d="M56 10l53 171h-58c-6 0 -10 4 -9 10l17 96c1 6 5 10 11 10h75l29 94h-62c-6 0 -10 4 -9 10l17 96c1 6 6 10 12 10h78l50 163c2 6 5 10 12 10h112c7 0 10 -4 8 -10l-50 -163h91l51 163c2 6 5 10 12 10h112c6 0 9 -4 7 -10l-50 -163h61c6 0 9 -4 8 -10l-17 -96
c-1 -6 -5 -10 -11 -10h-77l-29 -94h64c6 0 10 -4 9 -10l-17 -96c-1 -6 -6 -10 -11 -10h-81l-53 -171c-2 -6 -6 -10 -12 -10h-112c-7 0 -10 4 -8 10l53 171h-91l-53 -171c-2 -6 -5 -10 -12 -10h-112c-7 0 -10 4 -8 10zM277 297h91l29 94h-91z" />
    <glyph glyph-name="dollar" unicode="$" 
d="M18 66c-5 4 -4 10 1 15l95 97c5 5 12 4 15 0c25 -25 66 -50 113 -50c57 0 95 38 95 88c0 26 -16 45 -59 52l-19 3c-103 14 -162 79 -162 170c0 134 88 228 213 247l12 67c1 6 6 10 12 10h79c6 0 9 -4 8 -10l-12 -67c59 -8 103 -31 134 -55c4 -4 5 -10 -1 -16l-83 -96
c-5 -5 -10 -6 -14 -3c-30 22 -60 34 -96 34c-50 0 -85 -32 -85 -79c0 -26 15 -46 58 -52l24 -4c107 -14 159 -71 159 -158c0 -152 -88 -243 -218 -265l-12 -69c-1 -6 -6 -10 -12 -10h-79c-6 0 -9 4 -8 10l11 66c-75 9 -132 39 -169 75z" />
    <glyph glyph-name="percent" unicode="%" horiz-adv-x="823" 
d="M124 -2l503 684c5 7 10 10 18 10h98c6 0 6 -5 2 -10l-503 -684c-5 -7 -10 -10 -18 -10h-97c-6 0 -6 5 -3 10zM222 330c-66 0 -117 37 -117 109c0 42 11 123 32 167c26 53 73 82 147 82c66 0 117 -38 117 -110c0 -48 -12 -123 -33 -166c-27 -55 -72 -82 -146 -82zM236 413
c14 0 23 6 31 21c8 17 26 127 26 146c0 15 -8 25 -24 25c-13 0 -23 -6 -30 -21c-9 -17 -27 -127 -27 -146c0 -15 8 -25 24 -25zM469 101c0 41 11 123 33 167c25 52 72 82 146 82c66 0 117 -38 117 -110c0 -48 -11 -123 -32 -166c-28 -55 -73 -82 -147 -82
c-66 0 -117 37 -117 109zM576 100c0 -16 8 -25 24 -25c14 0 23 5 30 21c9 17 27 127 27 145c0 16 -8 26 -24 26c-13 0 -23 -6 -30 -21c-9 -17 -27 -128 -27 -146z" />
    <glyph glyph-name="ampersand" unicode="&#x26;" horiz-adv-x="623" 
d="M25 141c0 76 26 139 155 232c-30 52 -45 89 -45 127c0 112 90 192 216 192c98 0 155 -59 155 -138c0 -72 -34 -124 -150 -206l53 -90l85 81c5 5 10 5 14 1l69 -72c4 -4 3 -10 -1 -14l-104 -104l4 -5c8 -14 19 -21 39 -21h22c6 0 9 -4 8 -10l-18 -104
c-1 -6 -5 -10 -11 -10h-44c-55 0 -80 12 -105 55c-66 -50 -119 -67 -181 -67c-104 0 -161 72 -161 153zM296 452c62 45 72 64 72 91c0 23 -15 37 -37 37c-32 0 -57 -25 -57 -59c0 -19 4 -34 22 -69zM169 169c0 -28 18 -50 51 -50c25 0 46 9 84 42l-64 109
c-54 -40 -71 -66 -71 -101z" />
    <glyph glyph-name="quotesingle" unicode="'" horiz-adv-x="215" 
d="M105 459c-6 0 -9 4 -8 10l36 201c1 6 5 10 11 10h93c6 0 10 -4 9 -10l-36 -201c-1 -6 -6 -10 -12 -10h-93z" />
    <glyph glyph-name="parenleft" unicode="(" horiz-adv-x="319" 
d="M128 -74c-44 85 -64 182 -64 279c0 187 76 376 206 525c5 6 9 10 16 10h93c6 0 9 -4 5 -10c-105 -167 -171 -366 -171 -574c0 -81 9 -160 29 -230c2 -6 -2 -10 -8 -10h-93c-7 0 -10 4 -13 10z" />
    <glyph glyph-name="parenright" unicode=")" horiz-adv-x="319" 
d="M-21 -74c105 167 171 366 171 574c0 81 -9 160 -29 230c-2 6 1 10 7 10h94c6 0 10 -4 13 -10c43 -85 64 -182 64 -279c0 -187 -77 -376 -206 -525c-5 -6 -10 -10 -16 -10h-94c-6 0 -8 4 -4 10z" />
    <glyph glyph-name="asterisk" unicode="*" horiz-adv-x="394" 
d="M193 357c-6 0 -9 4 -8 10l15 79l-71 -39c-6 -3 -11 -2 -13 3l-24 55c-2 5 0 10 6 13l79 42l-63 41c-4 3 -5 8 -1 13l38 51c4 5 10 6 15 3l60 -41l13 83c1 6 5 10 11 10h65c6 0 9 -4 8 -10l-16 -80l74 40c5 3 10 2 12 -3l24 -56c2 -5 0 -10 -6 -13l-79 -41l63 -40
c5 -3 6 -9 2 -14l-39 -52c-3 -5 -10 -6 -14 -2l-61 41l-13 -83c-1 -6 -6 -10 -12 -10h-65z" />
    <glyph glyph-name="plus" unicode="+" 
d="M61 209c-6 0 -10 4 -10 10v114c0 6 4 10 10 10h145c4 0 6 2 6 6v149c0 6 4 10 10 10h119c6 0 10 -4 10 -10v-149c0 -4 2 -6 6 -6h145c6 0 10 -4 10 -10v-114c0 -6 -4 -10 -10 -10h-145c-4 0 -6 -2 -6 -6v-149c0 -6 -4 -10 -10 -10h-119c-6 0 -10 4 -10 10v149
c0 4 -2 6 -6 6h-145z" />
    <glyph glyph-name="comma" unicode="," horiz-adv-x="245" 
d="M2 -91l41 235c1 6 5 10 11 10h125c6 0 10 -4 9 -10l-22 -128c-2 -9 -5 -14 -13 -20l-124 -93c-8 -6 -13 -8 -18 -8c-7 0 -11 5 -9 14z" />
    <glyph glyph-name="hyphen" unicode="-" horiz-adv-x="380" 
d="M44 195c-6 0 -9 4 -8 10l21 120c1 6 5 10 11 10h291c6 0 10 -4 9 -10l-21 -120c-1 -6 -6 -10 -12 -10h-291z" />
    <glyph glyph-name="period" unicode="." horiz-adv-x="245" 
d="M12 10l23 134c1 6 5 10 11 10h133c6 0 10 -4 9 -10l-23 -134c-1 -6 -5 -10 -11 -10h-133c-6 0 -10 4 -9 10z" />
    <glyph glyph-name="slash" unicode="/" horiz-adv-x="423" 
d="M-4 -2l327 684c3 6 7 10 14 10h141c5 0 8 -4 5 -10l-329 -684c-3 -6 -7 -10 -14 -10h-138c-6 0 -9 4 -6 10z" />
    <glyph glyph-name="zero" unicode="0" 
d="M46 162c0 72 41 321 74 390c46 93 126 140 233 140c111 0 190 -61 190 -174c0 -72 -40 -321 -74 -390c-45 -93 -125 -140 -232 -140c-112 0 -191 61 -191 174zM209 171c0 -30 17 -49 48 -49c27 0 47 14 59 39c18 35 65 300 65 348c0 30 -16 49 -48 49
c-27 0 -47 -14 -59 -39c-17 -35 -65 -300 -65 -348z" />
    <glyph glyph-name="one" unicode="1" 
d="M191 10l88 494h-2l-125 -77c-6 -4 -12 -2 -10 6l24 141c1 6 3 10 8 14l135 86c6 4 12 6 18 6h135c6 0 10 -4 9 -10l-117 -660c-1 -6 -5 -10 -11 -10h-143c-6 0 -10 4 -9 10z" />
    <glyph glyph-name="two" unicode="2" 
d="M18 10l20 108c1 7 4 11 9 15l274 271c40 40 55 68 55 103c0 32 -18 51 -50 51c-38 0 -68 -24 -82 -78c-1 -6 -6 -10 -12 -9l-124 20c-6 1 -7 5 -6 11c26 108 114 190 253 190c114 0 184 -68 184 -160c0 -82 -37 -144 -104 -209l-191 -185v-2h218c6 0 10 -4 9 -10
l-21 -116c-1 -6 -5 -10 -11 -10h-413c-6 0 -9 4 -8 10z" />
    <glyph glyph-name="three" unicode="3" 
d="M39 155c0 6 4 11 10 12l131 21c6 1 10 -2 10 -8c3 -34 22 -58 62 -58c49 0 84 44 84 98c0 40 -24 63 -65 63h-27c-6 0 -9 4 -8 10l19 112c2 6 6 10 12 10h25c48 0 82 39 82 91c0 32 -18 52 -50 52c-35 0 -60 -23 -74 -57c-2 -5 -6 -9 -12 -8l-125 20c-5 1 -7 6 -5 12
c33 96 122 167 248 167c119 0 182 -64 182 -151c0 -76 -37 -139 -102 -177v-2c32 -19 61 -57 61 -121c0 -149 -115 -253 -262 -253c-123 0 -198 66 -196 167z" />
    <glyph glyph-name="four" unicode="4" 
d="M23 98c-6 0 -9 4 -8 10l22 122c1 5 2 8 6 14l253 427c3 6 8 9 16 9h150c6 0 9 -4 5 -10l-254 -431l-1 -3h90c4 0 7 2 7 6l22 124c1 6 5 10 12 10h134c6 0 10 -4 9 -10l-22 -124c-1 -4 0 -6 4 -6h37c6 0 10 -4 9 -10l-21 -118c-1 -6 -5 -10 -11 -10h-38c-4 0 -6 -2 -7 -6
l-14 -82c-1 -6 -5 -10 -11 -10h-135c-6 0 -10 4 -9 10l14 82c1 4 -1 6 -5 6h-254z" />
    <glyph glyph-name="five" unicode="5" 
d="M51 150c0 5 3 10 9 11l130 20c6 1 9 -3 10 -9c4 -28 18 -50 55 -50c27 0 50 13 63 40c13 26 23 79 23 106c0 36 -17 55 -51 55c-29 0 -49 -15 -60 -35c-3 -6 -7 -10 -14 -10h-124c-6 0 -9 4 -8 10l67 382c1 6 5 10 11 10h382c6 0 10 -4 9 -10l-21 -116
c-1 -6 -5 -10 -11 -10h-249c-4 0 -6 -2 -7 -6l-22 -121h2c22 20 58 38 109 38c94 0 149 -47 149 -147c0 -55 -15 -138 -42 -193c-43 -87 -121 -127 -226 -127c-124 0 -184 68 -184 162z" />
    <glyph glyph-name="six" unicode="6" 
d="M37 163c0 70 25 135 87 225l196 285c4 5 7 7 13 7h152c8 0 10 -5 5 -11l-175 -256l1 -1c5 3 18 6 34 6c94 0 156 -65 156 -163c0 -149 -112 -267 -272 -267c-120 0 -197 68 -197 175zM193 187c0 -39 24 -65 63 -65c51 0 92 45 92 103c0 39 -23 65 -62 65
c-51 0 -93 -45 -93 -103z" />
    <glyph glyph-name="seven" unicode="7" 
d="M81 11l297 526v3h-114c-4 0 -6 -2 -7 -6l-12 -65c-1 -6 -5 -10 -11 -10h-132c-6 0 -9 4 -8 10l36 201c1 6 5 10 11 10h419c7 0 10 -4 9 -10l-22 -119c-1 -6 -3 -14 -7 -22l-290 -519c-4 -8 -8 -10 -15 -10h-149c-6 0 -9 5 -5 11z" />
    <glyph glyph-name="eight" unicode="8" 
d="M32 158c0 76 36 150 106 195l1 2c-21 20 -40 55 -40 102c0 119 100 235 255 235c122 0 186 -73 186 -164c0 -71 -32 -131 -88 -173l-1 -2c28 -23 53 -61 53 -116c0 -140 -118 -249 -272 -249c-118 0 -200 64 -200 170zM306 418c43 0 79 38 79 85c0 32 -19 55 -53 55
c-43 0 -80 -38 -80 -85c0 -32 20 -55 54 -55zM190 187c0 -39 26 -65 65 -65c52 0 93 44 93 100c0 39 -26 65 -65 65c-52 0 -93 -44 -93 -100z" />
    <glyph glyph-name="nine" unicode="9" 
d="M93 11l176 256l-1 1c-5 -3 -18 -5 -34 -5c-95 0 -157 67 -157 166c0 143 110 263 274 263c119 0 196 -68 196 -175c0 -69 -27 -136 -88 -225l-195 -285c-4 -5 -7 -7 -13 -7h-152c-8 0 -10 5 -6 11zM298 390c53 0 93 46 93 102c0 39 -23 66 -63 66c-52 0 -92 -46 -92 -102
c0 -39 23 -66 62 -66z" />
    <glyph glyph-name="colon" unicode=":" horiz-adv-x="245" 
d="M79 332c-6 0 -10 4 -9 10l23 135c1 6 5 10 11 10h133c6 0 10 -4 9 -10l-23 -135c-1 -6 -5 -10 -11 -10h-133zM12 10l23 134c1 6 5 10 11 10h133c6 0 10 -4 9 -10l-23 -134c-1 -6 -5 -10 -11 -10h-133c-6 0 -10 4 -9 10z" />
    <glyph glyph-name="semicolon" unicode=";" horiz-adv-x="245" 
d="M79 332c-6 0 -10 4 -9 10l23 135c1 6 5 10 11 10h133c6 0 10 -4 9 -10l-23 -135c-1 -6 -5 -10 -11 -10h-133zM-3 -91l41 235c1 6 5 10 11 10h126c6 0 10 -4 9 -10l-22 -128c-2 -9 -6 -14 -13 -20l-124 -93c-8 -6 -13 -8 -18 -8c-7 0 -11 5 -10 14z" />
    <glyph glyph-name="less" unicode="&#x3c;" 
d="M57 213c-6 2 -10 7 -10 14v98c0 7 4 12 10 14l441 167c6 2 10 -1 10 -7v-124c0 -7 -2 -10 -10 -13l-244 -85v-2l244 -85c8 -3 10 -6 10 -13v-124c0 -6 -4 -9 -10 -7z" />
    <glyph glyph-name="equal" unicode="=" 
d="M68 318c-6 0 -10 4 -10 10v115c0 6 4 10 10 10h441c6 0 10 -4 10 -10v-115c0 -6 -4 -10 -10 -10h-441zM68 99c-6 0 -10 4 -10 10v115c0 6 4 10 10 10h441c6 0 10 -4 10 -10v-115c0 -6 -4 -10 -10 -10h-441z" />
    <glyph glyph-name="greater" unicode="&#x3e;" 
d="M55 53v124c0 7 3 10 10 13l243 85v2l-243 85c-7 3 -10 6 -10 13v124c0 6 4 9 10 7l441 -167c6 -2 10 -7 10 -14v-98c0 -7 -4 -12 -10 -14l-441 -167c-6 -2 -10 1 -10 7z" />
    <glyph glyph-name="question" unicode="?" horiz-adv-x="481" 
d="M172 208c-6 0 -10 4 -9 10l8 41c7 36 19 61 45 85l69 70c45 42 60 66 60 96c0 27 -16 46 -45 46c-35 0 -60 -25 -76 -63c-2 -6 -7 -9 -13 -8l-120 17c-6 1 -8 5 -6 11c33 106 123 179 241 179c113 0 179 -68 179 -155c0 -70 -34 -119 -96 -178l-61 -63
c-20 -20 -26 -33 -31 -60l-4 -18c-1 -6 -5 -10 -10 -10h-131zM127 10l21 123c1 6 6 10 11 10h133c6 0 10 -4 9 -10l-22 -123c-1 -6 -5 -10 -11 -10h-133c-5 0 -9 4 -8 10z" />
    <glyph glyph-name="at" unicode="@" horiz-adv-x="903" 
d="M40 185c0 286 194 494 488 494c215 0 350 -136 350 -332c0 -185 -99 -295 -233 -295c-65 0 -108 27 -122 67h-1c-28 -42 -67 -67 -135 -67c-77 0 -130 49 -130 131c0 57 21 158 43 201c30 62 78 94 142 94c50 0 85 -21 96 -50h1l5 30c1 6 5 10 10 10h114c5 0 7 -4 6 -10
l-42 -237c-7 -40 10 -59 37 -59c46 0 84 63 84 173c0 152 -92 234 -244 234c-209 0 -342 -166 -342 -372c0 -144 91 -235 242 -235c78 0 139 21 197 50c6 3 10 3 13 -3l42 -80c2 -5 0 -10 -6 -13c-75 -47 -166 -69 -265 -69c-214 0 -350 137 -350 338zM389 213
c0 -31 15 -50 46 -51c26 0 46 13 58 40c12 24 24 87 24 116c0 31 -16 50 -46 50c-26 0 -46 -13 -58 -39c-11 -24 -24 -89 -24 -116z" />
    <glyph glyph-name="A" unicode="A" horiz-adv-x="656" 
d="M-19 0c-6 0 -8 4 -5 10l344 660c3 6 7 10 14 10h157c7 0 11 -4 11 -10l106 -660c1 -6 -2 -10 -7 -10h-154c-7 0 -11 4 -12 10l-12 108h-212l-51 -108c-3 -6 -7 -10 -14 -10h-165zM277 260h130l-24 220h-2z" />
    <glyph glyph-name="B" unicode="B" horiz-adv-x="587" 
d="M19 10l117 660c1 6 5 10 10 10h268c128 0 186 -55 186 -144c0 -82 -38 -145 -110 -183l-1 -2c39 -16 68 -59 68 -120c0 -142 -104 -231 -265 -231h-265c-5 0 -9 4 -8 10zM263 405h69c54 0 94 34 94 92c0 37 -23 55 -68 55h-68c-4 0 -6 -2 -7 -6l-24 -135c-1 -4 1 -6 4 -6
zM211 135c-1 -4 0 -6 4 -6h77c57 0 97 37 97 101c0 37 -22 59 -69 59h-76c-4 0 -6 -2 -7 -6z" />
    <glyph glyph-name="C" unicode="C" horiz-adv-x="558" 
d="M45 202c0 66 28 252 67 330c53 109 141 160 264 160c115 0 187 -59 209 -157c2 -6 0 -10 -7 -13l-131 -53c-8 -3 -13 -1 -14 6c-10 41 -30 66 -75 66c-42 0 -72 -25 -92 -65c-20 -42 -50 -208 -50 -258c0 -48 26 -79 72 -79c43 0 72 27 96 67c4 7 9 10 15 7l118 -66
c5 -4 6 -8 3 -14c-62 -101 -141 -145 -256 -145c-129 0 -219 75 -219 214z" />
    <glyph glyph-name="D" unicode="D" horiz-adv-x="610" 
d="M19 10l117 660c1 6 5 10 10 10h254c134 0 207 -66 207 -199c0 -81 -28 -255 -66 -333c-54 -111 -144 -148 -260 -148h-254c-5 0 -9 4 -8 10zM219 151h53c60 0 93 16 118 66c21 43 45 180 45 225c0 62 -29 87 -98 87h-51c-4 0 -5 -2 -6 -6l-65 -366c-1 -4 1 -6 4 -6z" />
    <glyph glyph-name="E" unicode="E" horiz-adv-x="538" 
d="M19 10l117 660c1 6 5 10 10 10h430c6 0 9 -4 8 -10l-22 -124c-1 -6 -6 -10 -11 -10h-265c-3 0 -6 -2 -6 -6l-20 -110c-1 -4 1 -6 5 -6h216c6 0 9 -4 8 -10l-21 -122c-1 -6 -6 -10 -12 -10h-217c-3 0 -5 -2 -6 -6l-21 -116c0 -4 1 -6 5 -6h264c6 0 9 -4 8 -10l-22 -124
c-1 -6 -5 -10 -11 -10h-429c-5 0 -9 4 -8 10z" />
    <glyph glyph-name="F" unicode="F" horiz-adv-x="533" 
d="M19 10l117 660c1 6 5 10 10 10h430c5 0 9 -4 8 -10l-22 -124c-1 -6 -6 -10 -11 -10h-265c-4 0 -6 -2 -6 -6l-22 -119c0 -4 1 -6 5 -6h216c6 0 9 -4 8 -10l-21 -122c-1 -6 -6 -10 -12 -10h-216c-4 0 -6 -2 -7 -6l-44 -247c-1 -6 -5 -10 -10 -10h-150c-5 0 -9 4 -8 10z" />
    <glyph glyph-name="G" unicode="G" horiz-adv-x="600" 
d="M45 202c0 66 30 256 67 331c54 111 145 159 272 159c115 0 190 -60 214 -145c2 -7 -1 -13 -7 -16l-131 -52c-7 -2 -12 0 -15 5c-15 37 -37 57 -82 57c-46 0 -78 -25 -97 -65c-19 -39 -50 -207 -50 -258c0 -48 28 -79 78 -79c49 0 82 22 99 58c5 13 10 27 14 48
c0 4 -2 6 -6 6h-70c-5 0 -8 4 -7 10l19 108c1 6 6 10 11 10h235c6 0 8 -4 7 -10l-8 -50c-14 -81 -28 -133 -49 -174c-56 -111 -142 -157 -267 -157c-136 0 -227 73 -227 214z" />
    <glyph glyph-name="H" unicode="H" horiz-adv-x="637" 
d="M19 10l117 660c1 6 5 10 11 10h150c6 0 9 -4 8 -10l-43 -244c-1 -4 1 -6 4 -6h180c4 0 6 2 7 6l43 244c1 6 5 10 11 10h150c6 0 10 -4 9 -10l-117 -660c-1 -6 -5 -10 -11 -10h-150c-6 0 -10 4 -9 10l45 253c1 4 -1 6 -5 6h-180c-3 0 -5 -2 -6 -6l-45 -253
c-1 -6 -4 -10 -10 -10h-150c-6 0 -10 4 -9 10z" />
    <glyph glyph-name="I" unicode="I" horiz-adv-x="276" 
d="M19 10l117 660c1 6 5 10 11 10h150c6 0 9 -4 8 -10l-117 -660c-1 -6 -4 -10 -10 -10h-150c-6 0 -10 4 -9 10z" />
    <glyph glyph-name="J" unicode="J" horiz-adv-x="507" 
d="M-10 84c-1 5 -1 10 4 14l118 80c5 3 10 3 13 -1c16 -22 38 -37 68 -37c55 0 86 31 99 103l76 427c1 6 5 10 11 10h151c6 0 10 -4 9 -10l-74 -414c-34 -188 -131 -268 -291 -268c-86 0 -159 43 -184 96z" />
    <glyph glyph-name="K" unicode="K" horiz-adv-x="628" 
d="M19 10l117 660c1 6 5 10 11 10h150c6 0 9 -4 8 -10l-46 -257l226 258c6 6 10 9 18 9h178c8 0 10 -7 5 -13l-248 -266l135 -390c2 -6 -1 -11 -8 -11h-156c-9 0 -13 3 -15 9l-84 268l-94 -107l-28 -160c-1 -6 -4 -10 -10 -10h-150c-6 0 -10 4 -9 10z" />
    <glyph glyph-name="L" unicode="L" horiz-adv-x="519" 
d="M19 10l117 660c1 6 5 10 11 10h150c6 0 9 -4 8 -10l-90 -513c-1 -4 1 -6 4 -6h258c6 0 9 -4 8 -10l-23 -131c-1 -6 -5 -10 -11 -10h-423c-6 0 -10 4 -9 10z" />
    <glyph glyph-name="M" unicode="M" horiz-adv-x="747" 
d="M19 10l117 660c1 6 5 10 10 10h136c7 0 14 -2 15 -10l89 -362h4l212 362c4 8 11 10 17 10h148c6 0 10 -4 9 -10l-117 -660c-1 -6 -5 -10 -11 -10h-134c-6 0 -10 4 -9 10l63 361h-4l-153 -265c-6 -10 -14 -13 -20 -13h-74c-7 0 -13 4 -17 13l-61 265h-3l-64 -361
c-1 -6 -5 -10 -10 -10h-135c-5 0 -9 4 -8 10z" />
    <glyph glyph-name="N" unicode="N" horiz-adv-x="631" 
d="M19 10l117 660c1 6 5 10 11 10h142c7 0 12 -3 15 -10l128 -394h4l70 394c1 6 5 10 11 10h134c6 0 10 -4 9 -10l-117 -660c-1 -6 -5 -10 -11 -10h-143c-7 0 -12 3 -14 10l-128 394h-5l-70 -394c-1 -6 -5 -10 -10 -10h-134c-6 0 -10 4 -9 10z" />
    <glyph glyph-name="O" unicode="O" horiz-adv-x="604" 
d="M271 -12c-136 0 -226 73 -226 214c0 66 30 256 67 331c54 111 149 159 269 159c136 0 226 -73 226 -214c0 -66 -30 -256 -67 -331c-55 -111 -150 -159 -269 -159zM291 139c45 0 77 25 96 65c19 39 49 207 49 258c0 48 -26 79 -75 79c-45 0 -77 -25 -96 -65
c-19 -39 -49 -207 -49 -258c0 -48 26 -79 75 -79z" />
    <glyph glyph-name="P" unicode="P" horiz-adv-x="590" 
d="M178 0h-151c-5 0 -9 4 -8 10l117 660c1 6 5 10 10 10h263c140 0 208 -69 208 -178c0 -173 -121 -271 -286 -271h-97c-4 0 -7 -2 -7 -6l-39 -215c-1 -6 -5 -10 -10 -10zM346 375c58 0 99 37 99 99c0 39 -25 62 -71 62h-87c-3 0 -6 -2 -6 -6l-27 -149c0 -4 1 -6 4 -6h88z
" />
    <glyph glyph-name="Q" unicode="Q" horiz-adv-x="605" 
d="M572 33l-115 -87c-5 -4 -11 -4 -15 1l-43 64c-38 -15 -81 -23 -128 -23c-136 0 -226 73 -226 214c0 66 30 256 67 331c54 111 149 159 269 159c136 0 226 -73 226 -214c0 -66 -30 -256 -67 -331c-4 -9 -9 -17 -14 -25l50 -73c3 -5 2 -12 -4 -16zM290 139
c45 0 77 25 96 65c19 39 50 207 50 258c0 48 -26 79 -74 79c-45 0 -77 -25 -96 -65c-19 -39 -50 -207 -50 -258c0 -48 26 -79 74 -79z" />
    <glyph glyph-name="R" unicode="R" horiz-adv-x="605" 
d="M534 0h-149c-8 0 -11 3 -13 10l-59 235h-77c-4 0 -6 -2 -7 -6l-41 -229c-1 -6 -5 -10 -11 -10h-150c-5 0 -9 4 -8 10l117 660c1 6 5 10 10 10h267c133 0 204 -72 204 -175c0 -112 -59 -193 -148 -233l73 -260c1 -6 -2 -12 -8 -12zM350 385c52 1 94 34 94 94
c0 36 -25 57 -67 57h-90c-4 0 -6 -2 -7 -6l-25 -139c-1 -4 1 -6 5 -6h90z" />
    <glyph glyph-name="S" unicode="S" horiz-adv-x="584" 
d="M253 -12c-106 0 -212 46 -254 97c-3 4 -4 12 2 17l102 98c5 5 12 5 15 1c32 -35 89 -65 154 -65c66 0 107 34 107 78c0 26 -16 43 -72 52l-34 5c-121 17 -187 76 -187 173c0 148 112 248 280 248c91 0 173 -31 225 -76c5 -4 5 -9 -1 -15l-88 -101c-5 -5 -11 -6 -15 -3
c-40 31 -84 48 -136 48c-51 0 -88 -31 -88 -70c0 -26 17 -44 74 -52l33 -5c121 -18 187 -74 187 -171c0 -162 -123 -259 -304 -259z" />
    <glyph glyph-name="T" unicode="T" horiz-adv-x="549" 
d="M313 0h-150c-5 0 -9 4 -8 10l91 513c1 4 -1 6 -5 6h-161c-6 0 -10 4 -9 10l24 131c1 6 5 10 11 10h504c6 0 10 -4 9 -10l-23 -131c-1 -6 -6 -10 -12 -10h-162c-4 0 -6 -2 -7 -6l-91 -513c-1 -6 -5 -10 -11 -10z" />
    <glyph glyph-name="U" unicode="U" horiz-adv-x="622" 
d="M287 -12c-167 0 -259 95 -227 276l72 406c1 6 5 10 11 10h150c6 0 10 -4 9 -10l-74 -419c-13 -71 16 -112 73 -112s94 30 109 112l74 419c1 6 5 10 11 10h151c5 0 9 -4 8 -10l-73 -412c-35 -198 -134 -270 -294 -270z" />
    <glyph glyph-name="V" unicode="V" horiz-adv-x="599" 
d="M336 0h-144c-8 0 -11 3 -12 10l-95 659c-1 6 3 11 10 11h150c8 0 12 -3 13 -10l44 -421h3l189 421c3 7 7 10 14 10h162c7 0 11 -5 7 -11l-327 -659c-3 -7 -7 -10 -14 -10z" />
    <glyph glyph-name="W" unicode="W" horiz-adv-x="870" 
d="M637 0h-121c-7 0 -10 3 -11 10l-36 389h-2l-173 -389c-3 -7 -7 -10 -14 -10h-121c-7 0 -11 3 -12 10l-62 660c0 6 2 10 8 10h153c8 0 12 -4 12 -10l13 -407h2l174 407c3 7 7 10 14 10h100c7 0 11 -3 12 -10l34 -407h2l155 407c2 6 6 10 13 10h164c6 0 9 -4 6 -10
l-297 -660c-3 -7 -7 -10 -13 -10z" />
    <glyph glyph-name="X" unicode="X" horiz-adv-x="601" 
d="M554 0h-154c-9 0 -13 3 -16 10l-74 189h-2l-139 -189c-5 -7 -9 -10 -18 -10h-172c-6 0 -8 5 -4 11l266 346l-130 312c-3 6 0 11 7 11h157c8 0 12 -3 15 -10l63 -161h3l118 161c5 6 10 10 17 10h164c6 0 8 -5 4 -11l-237 -316l139 -342c3 -6 0 -11 -7 -11z" />
    <glyph glyph-name="Y" unicode="Y" horiz-adv-x="575" 
d="M326 0h-150c-6 0 -10 4 -9 10l45 254l-128 405c-2 6 2 11 9 11h143c7 0 12 -3 14 -10l69 -239h3l153 239c4 7 9 10 16 10h156c7 0 10 -5 6 -11l-271 -405l-45 -254c-1 -6 -5 -10 -11 -10z" />
    <glyph glyph-name="Z" unicode="Z" horiz-adv-x="554" 
d="M469 0h-456c-6 0 -10 4 -9 10l23 129c1 4 3 7 6 11l337 376v3h-254c-5 0 -9 4 -8 10l24 131c1 6 5 10 10 10h446c6 0 10 -4 9 -10l-22 -127c-1 -4 -3 -8 -6 -11l-340 -378v-3h267c6 0 9 -4 8 -10l-24 -131c-1 -6 -5 -10 -11 -10z" />
    <glyph glyph-name="bracketleft" unicode="[" horiz-adv-x="303" 
d="M217 -84h-206c-6 0 -10 4 -9 10l142 804c1 6 6 10 12 10h206c5 0 8 -4 7 -10l-17 -100c-1 -6 -6 -10 -11 -10h-71c-4 0 -6 -2 -7 -6l-101 -572c-1 -4 1 -6 5 -6h70c6 0 9 -4 8 -10l-17 -100c-1 -6 -5 -10 -11 -10z" />
    <glyph glyph-name="backslash" unicode="\" horiz-adv-x="423" 
d="M349 -12h-133c-7 0 -10 4 -11 10l-97 684c0 6 3 10 9 10h132c7 0 10 -4 11 -10l97 -684c1 -6 -2 -10 -8 -10z" />
    <glyph glyph-name="bracketright" unicode="]" horiz-adv-x="303" 
d="M189 -84h-205c-6 0 -10 4 -9 10l18 100c1 6 6 10 11 10h71c4 0 6 2 7 6l101 572c1 4 0 6 -4 6h-71c-6 0 -10 4 -9 10l18 100c1 6 5 10 11 10h206c6 0 10 -4 9 -10l-142 -804c-1 -6 -6 -10 -12 -10z" />
    <glyph glyph-name="asciicircum" unicode="^" 
d="M504 245h-130c-7 0 -11 3 -14 10l-81 230h-2l-81 -230c-3 -7 -7 -10 -14 -10h-129c-6 0 -9 4 -7 10l165 415c3 6 7 10 14 10h107c7 0 11 -4 14 -10l164 -415c3 -6 0 -10 -6 -10z" />
    <glyph glyph-name="underscore" unicode="_" horiz-adv-x="534" 
d="M468 -168h-534l20 109h533z" />
    <glyph glyph-name="grave" unicode="`" horiz-adv-x="478" 
d="M424 546h-100c-8 0 -13 3 -18 10l-74 136c-3 5 1 10 7 10h125c8 0 13 -3 15 -10l53 -136c2 -6 -2 -10 -8 -10z" />
    <glyph glyph-name="a" unicode="a" horiz-adv-x="515" 
d="M420 0h-134c-6 0 -10 4 -9 10l5 30h-1c-29 -31 -73 -52 -135 -52c-71 0 -129 45 -129 122c0 121 84 186 230 186h75c4 0 7 2 8 6l3 17c7 37 -6 53 -82 53c-43 0 -83 -12 -107 -28c-6 -3 -10 -2 -12 4l-35 88c-2 6 0 11 6 15c47 30 119 48 193 48c147 0 215 -45 190 -181
l-55 -308c-1 -6 -5 -10 -11 -10zM221 104c49 0 77 18 83 55l5 32c1 4 -1 6 -5 6h-57c-51 0 -75 -20 -75 -57c0 -22 16 -36 49 -36z" />
    <glyph glyph-name="b" unicode="b" horiz-adv-x="538" 
d="M298 -12c-61 0 -97 26 -111 59h-1l-7 -37c-1 -6 -5 -10 -11 -10h-143c-5 0 -9 4 -8 10l117 660c1 6 5 10 10 10h143c6 0 10 -4 9 -10l-41 -230h1c27 35 72 59 131 59c94 0 137 -60 137 -159c0 -66 -22 -180 -53 -244c-38 -76 -93 -108 -173 -108zM263 121
c30 0 51 14 66 44c13 27 29 110 29 141c0 38 -15 60 -51 60c-30 0 -51 -14 -66 -44c-13 -27 -29 -110 -29 -141c0 -38 15 -60 51 -60z" />
    <glyph glyph-name="c" unicode="c" horiz-adv-x="474" 
d="M215 -12c-111 0 -186 66 -186 178c0 51 12 135 42 198c45 93 127 135 231 135c95 0 155 -49 173 -114c2 -6 0 -10 -6 -13l-114 -53c-6 -3 -13 -2 -15 4c-12 30 -26 43 -54 43c-27 0 -50 -13 -65 -43c-16 -33 -30 -114 -30 -143c0 -39 17 -59 52 -59c26 0 47 13 71 46
c5 6 10 6 15 4l102 -59c5 -3 4 -7 1 -13c-47 -72 -116 -111 -217 -111z" />
    <glyph glyph-name="d" unicode="d" horiz-adv-x="538" 
d="M440 0h-142c-6 0 -9 4 -8 10l6 37h-1c-27 -35 -72 -59 -131 -59c-95 0 -137 60 -137 159c0 66 22 181 53 244c38 77 93 108 172 108c61 0 98 -27 112 -60h1l41 231c1 6 5 10 10 10h143c6 0 10 -4 9 -10l-117 -660c-1 -6 -5 -10 -11 -10zM244 121c30 0 51 14 66 44
c13 27 29 110 29 141c0 38 -15 60 -51 60c-30 0 -51 -14 -66 -44c-13 -27 -29 -110 -29 -141c0 -38 15 -60 51 -60z" />
    <glyph glyph-name="e" unicode="e" horiz-adv-x="513" 
d="M227 -12c-120 0 -198 60 -198 180c0 61 13 140 40 194c44 92 120 137 236 137c110 0 190 -61 190 -173c0 -27 -3 -61 -13 -119c-1 -6 -6 -10 -12 -10h-281c-4 0 -6 -2 -7 -6s-1 -8 -1 -12c0 -48 31 -67 83 -67c39 0 79 17 113 43c7 4 11 3 14 -1l55 -70
c3 -5 3 -12 -2 -16c-56 -50 -122 -80 -217 -80zM207 296h128c4 0 7 2 8 6c2 8 3 17 3 23c0 40 -22 58 -59 58c-34 0 -60 -17 -75 -46c-4 -10 -7 -22 -9 -35c-1 -4 0 -6 4 -6z" />
    <glyph glyph-name="f" unicode="f" horiz-adv-x="339" 
d="M188 0h-142c-6 0 -10 4 -9 10l61 355c1 4 -1 6 -5 6h-27c-6 0 -8 4 -7 10l17 96c1 6 5 10 10 10h28c4 0 6 2 7 6l3 16c22 124 81 171 204 171h63c5 0 9 -4 8 -10l-19 -103c-1 -6 -5 -10 -10 -10h-28c-39 0 -52 -10 -58 -46l-3 -17c-1 -5 1 -7 5 -7h69c6 0 10 -4 9 -10
l-18 -96c-1 -6 -5 -10 -11 -10h-69c-4 0 -6 -2 -7 -6l-61 -355c-1 -6 -5 -10 -10 -10z" />
    <glyph glyph-name="g" unicode="g" horiz-adv-x="530" 
d="M176 -192c-80 0 -150 35 -181 83c-3 5 -2 12 3 16l88 74c6 5 12 5 17 1c25 -26 48 -40 85 -40c58 0 90 29 102 101l8 40h-1c-27 -36 -71 -58 -128 -58c-93 0 -136 59 -136 153c0 60 16 154 43 209c37 77 93 112 172 112c58 0 96 -25 110 -60h1l7 38c1 6 6 10 12 10h140
c6 0 9 -4 8 -10l-70 -411c-33 -190 -122 -258 -280 -258zM246 156c29 0 48 12 63 43c14 26 23 79 23 108c0 37 -15 59 -50 59c-29 0 -48 -13 -63 -43c-13 -26 -23 -79 -23 -109c0 -37 15 -58 50 -58z" />
    <glyph glyph-name="h" unicode="h" horiz-adv-x="540" 
d="M445 0h-143c-5 0 -9 4 -8 10l49 279c8 48 -5 75 -44 75c-37 0 -63 -27 -71 -74l-49 -280c-1 -6 -5 -10 -11 -10h-143c-5 0 -9 4 -8 10l117 660c1 6 6 10 11 10h143c6 0 9 -4 8 -10l-41 -230h1c27 33 72 59 130 59c112 0 144 -79 125 -182l-55 -307c-1 -6 -5 -10 -11 -10z
" />
    <glyph glyph-name="i" unicode="i" horiz-adv-x="265" 
d="M265 553h-143c-6 0 -9 4 -8 10l19 107c1 6 5 10 11 10h143c6 0 9 -4 8 -10l-19 -107c-1 -6 -5 -10 -11 -10zM168 0h-143c-5 0 -9 4 -8 10l82 467c1 6 6 10 11 10h143c6 0 9 -4 8 -10l-82 -467c-1 -6 -5 -10 -11 -10z" />
    <glyph glyph-name="j" unicode="j" horiz-adv-x="265" 
d="M265 553h-143c-6 0 -9 4 -8 10l20 107c1 6 5 10 11 10h142c6 0 9 -4 8 -10l-19 -107c-1 -6 -5 -10 -11 -10zM-46 -180h-36c-6 0 -9 4 -7 10l20 113c1 6 5 10 11 10h13c38 0 54 10 62 56l82 468c1 6 6 10 11 10h143c6 0 9 -4 8 -10l-82 -468c-26 -150 -87 -189 -225 -189z
" />
    <glyph glyph-name="k" unicode="k" horiz-adv-x="524" 
d="M471 0h-148c-7 0 -11 3 -13 10l-60 196l-47 -54l-25 -142c-1 -6 -5 -10 -11 -10h-142c-6 0 -9 4 -8 10l115 660c1 6 5 10 10 10h143c6 0 9 -4 8 -10l-59 -340l133 148c6 7 12 9 20 9h149c6 0 8 -5 4 -10l-166 -174l103 -293c2 -5 0 -10 -6 -10z" />
    <glyph glyph-name="l" unicode="l" horiz-adv-x="305" 
d="M232 -6h-58c-122 0 -153 51 -133 168l92 508c1 6 5 10 10 10h143c6 0 10 -4 9 -10l-90 -493c-5 -33 3 -47 32 -47h19c5 0 9 -4 8 -10l-20 -116c-1 -6 -6 -10 -12 -10z" />
    <glyph glyph-name="m" unicode="m" horiz-adv-x="817" 
d="M722 0h-142c-6 0 -10 4 -9 10l49 279c9 48 -5 75 -43 75c-37 0 -64 -27 -72 -74l-49 -280c-1 -6 -5 -10 -11 -10h-142c-6 0 -10 4 -9 10l49 279c9 48 -5 75 -44 75c-36 0 -63 -27 -71 -74l-49 -280c-1 -6 -5 -10 -11 -10h-143c-5 0 -9 4 -8 10l83 467c1 6 5 10 11 10h142
c6 0 9 -4 8 -10l-6 -37h1c27 33 72 59 131 59s95 -22 114 -62h1c38 37 90 62 157 62c111 0 149 -70 129 -182l-55 -307c-1 -6 -5 -10 -11 -10z" />
    <glyph glyph-name="n" unicode="n" horiz-adv-x="540" 
d="M445 0h-143c-5 0 -9 4 -8 10l49 279c8 48 -5 75 -44 75c-37 0 -63 -27 -71 -74l-49 -280c-1 -6 -5 -10 -11 -10h-143c-5 0 -9 4 -8 10l82 467c1 6 6 10 11 10h143c6 0 9 -4 8 -10l-6 -37h1c27 33 72 59 130 59c112 0 144 -78 125 -181l-55 -308c-1 -6 -5 -10 -11 -10z
" />
    <glyph glyph-name="o" unicode="o" horiz-adv-x="514" 
d="M221 -12c-115 0 -192 63 -192 181c0 56 13 140 40 195c48 97 131 135 236 135c115 0 192 -63 192 -181c0 -56 -13 -140 -40 -195c-48 -97 -131 -135 -236 -135zM241 121c28 0 50 13 66 44c14 30 29 113 29 142c0 38 -15 59 -51 59c-28 0 -50 -13 -66 -44
c-14 -30 -29 -113 -29 -142c0 -38 14 -59 51 -59z" />
    <glyph glyph-name="p" unicode="p" horiz-adv-x="538" 
d="M137 -180h-144c-5 0 -9 4 -8 10l114 647c1 6 5 10 11 10h143c6 0 10 -4 9 -10l-7 -38h1c27 35 72 60 131 60c94 0 137 -60 137 -159c0 -66 -22 -180 -53 -244c-38 -76 -93 -108 -173 -108c-61 0 -97 26 -111 59h-1l-39 -217c-1 -6 -4 -10 -10 -10zM263 121
c30 0 51 14 66 44c13 27 29 110 29 141c0 38 -15 60 -51 60c-30 0 -51 -14 -66 -44c-13 -27 -29 -110 -29 -141c0 -38 15 -60 51 -60z" />
    <glyph glyph-name="q" unicode="q" horiz-adv-x="538" 
d="M409 -180h-142c-6 0 -9 4 -8 10l37 217h-1c-27 -35 -72 -59 -131 -59c-95 0 -137 60 -137 159c0 66 21 180 53 244c38 76 93 108 173 108c61 0 97 -27 111 -60h1l7 38c1 6 5 10 10 10h143c6 0 10 -4 9 -10l-114 -647c-1 -6 -5 -10 -11 -10zM244 121c30 0 51 14 66 44
c13 27 29 110 29 141c0 38 -15 60 -51 60c-30 0 -51 -14 -66 -44c-13 -27 -29 -110 -29 -141c0 -38 15 -60 51 -60z" />
    <glyph glyph-name="r" unicode="r" horiz-adv-x="415" 
d="M168 0h-143c-5 0 -9 4 -8 10l82 467c1 6 6 10 11 10h143c6 0 9 -4 8 -10l-8 -44h1c30 43 78 66 133 66c27 0 47 -7 60 -18c5 -3 7 -8 4 -14l-77 -135c-4 -5 -9 -6 -15 -2c-19 13 -37 21 -59 21c-43 0 -67 -33 -77 -91l-44 -250c-1 -6 -5 -10 -11 -10z" />
    <glyph glyph-name="s" unicode="s" horiz-adv-x="498" 
d="M218 -12c-100 0 -173 36 -216 77c-4 4 -4 10 1 15l80 79c4 4 10 4 15 0c46 -34 92 -51 143 -51c43 0 69 22 69 44c0 17 -12 26 -52 30l-52 6c-87 9 -138 53 -138 123c0 118 92 188 229 188c85 0 155 -29 193 -63c4 -4 3 -10 -1 -15l-72 -75c-5 -5 -10 -5 -14 -2
c-32 21 -73 38 -123 38c-37 0 -59 -18 -59 -39c0 -15 9 -24 47 -28l52 -6c104 -11 146 -58 146 -124c0 -118 -94 -197 -248 -197z" />
    <glyph glyph-name="t" unicode="t" horiz-adv-x="330" 
d="M250 -6h-55c-129 0 -160 58 -137 182l35 189c1 4 -1 6 -5 6h-28c-6 0 -8 4 -7 10l17 96c1 6 5 10 11 10h27c4 0 7 2 8 6l23 127c1 6 6 10 11 10h142c5 0 8 -4 7 -10l-23 -127c-1 -4 1 -6 5 -6h60c6 0 9 -4 8 -10l-17 -96c-1 -6 -6 -10 -12 -10h-61c-3 0 -5 -2 -6 -6
l-34 -182c-8 -40 0 -53 34 -53h21c6 0 9 -4 8 -10l-20 -116c-1 -6 -6 -10 -12 -10z" />
    <glyph glyph-name="u" unicode="u" horiz-adv-x="538" 
d="M107 487h141c6 0 10 -4 9 -10l-49 -280c-8 -45 6 -74 44 -74c37 0 62 27 70 74l49 280c1 6 5 10 11 10h143c6 0 9 -4 8 -10l-82 -467c-1 -6 -5 -10 -11 -10h-143c-5 0 -9 4 -8 10l7 37h-1c-30 -35 -74 -59 -132 -59c-108 0 -141 74 -121 182l54 307c1 6 5 10 11 10z" />
    <glyph glyph-name="v" unicode="v" horiz-adv-x="516" 
d="M289 0h-135c-6 0 -10 4 -11 10l-86 467c-1 6 3 10 9 10h144c7 0 11 -2 12 -10l32 -267h2l124 267c3 8 9 10 16 10h150c7 0 10 -4 7 -10l-252 -467c-3 -6 -6 -10 -12 -10z" />
    <glyph glyph-name="w" unicode="w" horiz-adv-x="748" 
d="M535 0h-112c-5 0 -9 3 -10 10l-26 258h-2l-120 -258c-3 -7 -7 -10 -13 -10h-112c-6 0 -10 3 -10 10l-71 467c0 6 3 10 10 10h137c8 0 12 -2 12 -10l18 -265h2l119 265c3 7 8 10 15 10h93c7 0 10 -3 11 -10l27 -265h2l108 265c3 8 7 10 15 10h149c6 0 8 -4 5 -10
l-235 -467c-3 -7 -6 -10 -12 -10z" />
    <glyph glyph-name="x" unicode="x" horiz-adv-x="518" 
d="M458 0h-147c-6 0 -10 2 -13 9l-52 115h-1l-93 -115c-5 -7 -10 -9 -16 -9h-156c-6 0 -8 5 -5 10l206 245l-107 222c-2 5 1 10 8 10h145c7 0 10 -1 13 -8l44 -99h2l79 99c5 6 10 8 16 8h152c7 0 8 -5 4 -10l-187 -226l115 -241c2 -5 0 -10 -7 -10z" />
    <glyph glyph-name="y" unicode="y" horiz-adv-x="516" 
d="M60 -180h-36c-6 0 -9 4 -8 10l20 113c1 6 6 10 12 10h24c32 0 50 11 67 44l16 32l-98 448c-1 6 2 10 8 10h145c6 0 9 -3 10 -10l40 -253h2l122 253c3 7 7 10 14 10h149c6 0 9 -5 6 -11l-299 -531c-54 -97 -103 -125 -194 -125z" />
    <glyph glyph-name="z" unicode="z" horiz-adv-x="477" 
d="M394 0h-384c-5 0 -8 4 -7 10l18 106c1 5 3 9 6 12l247 229v2h-189c-5 0 -8 4 -7 10l19 108c1 6 5 10 11 10h372c5 0 8 -4 7 -10l-18 -108c-1 -5 -3 -8 -6 -12l-246 -226v-2h199c6 0 9 -4 8 -10l-19 -109c-1 -6 -5 -10 -11 -10z" />
    <glyph glyph-name="braceleft" unicode="{" horiz-adv-x="354" 
d="M256 -84h-71c-86 0 -120 42 -105 125l24 141c10 59 -6 85 -52 86c-6 0 -9 4 -8 10l18 104c1 6 6 10 12 10c46 0 71 26 82 84l24 139c15 83 64 125 150 125h71c6 0 9 -4 8 -10l-17 -100c-1 -6 -6 -10 -12 -10h-22c-28 0 -45 -16 -50 -45l-21 -117
c-13 -75 -37 -108 -90 -128v-1c46 -20 58 -53 45 -128l-21 -120c-5 -29 6 -45 33 -45h22c6 0 10 -4 9 -10l-18 -100c-1 -6 -5 -10 -11 -10z" />
    <glyph glyph-name="bar" unicode="|" horiz-adv-x="330" 
d="M248 -84h-121c-6 0 -10 4 -10 10v804c0 6 4 10 10 10h121c6 0 10 -4 10 -10v-804c0 -6 -4 -10 -10 -10z" />
    <glyph glyph-name="braceright" unicode="}" horiz-adv-x="354" 
d="M66 -84h-71c-6 0 -9 4 -8 10l17 100c1 6 6 10 12 10h23c27 0 44 16 49 45l21 120c13 75 38 108 91 128v1c-47 20 -59 54 -46 129l21 116c5 29 -6 45 -32 45h-23c-6 0 -10 4 -9 10l18 100c1 6 5 10 11 10h71c86 0 120 -42 105 -125l-23 -138c-10 -58 6 -85 51 -85
c6 0 10 -4 9 -10l-19 -104c-1 -6 -5 -10 -11 -10c-46 0 -71 -27 -82 -85l-25 -142c-15 -83 -64 -125 -150 -125z" />
    <glyph glyph-name="asciitilde" unicode="~" 
d="M367 185c-44 0 -73 15 -100 32c-23 14 -41 26 -63 26c-29 0 -48 -21 -64 -47c-3 -5 -8 -7 -14 -3l-78 49c-5 3 -6 8 -4 14c29 63 83 110 148 110c44 0 72 -15 100 -33c23 -14 40 -25 64 -25c28 0 47 20 63 46c3 5 9 7 14 4l78 -50c6 -3 7 -8 4 -14
c-29 -63 -83 -109 -148 -109z" />
    <glyph glyph-name="uni00A0" unicode="&#xa0;" horiz-adv-x="231" 
 />
    <glyph glyph-name="Agrave" unicode="&#xc0;" horiz-adv-x="656" 
d="M-19 0c-6 0 -8 4 -5 10l344 660c3 6 7 10 14 10h157c7 0 11 -4 11 -10l106 -660c1 -6 -2 -10 -7 -10h-154c-7 0 -11 4 -12 10l-12 108h-212l-51 -108c-3 -6 -7 -10 -14 -10h-165zM277 260h130l-24 220h-2zM468 747h-106c-8 0 -12 3 -18 10l-101 122c-4 5 -1 10 5 10h129
c9 0 14 -3 19 -10l78 -122c3 -5 0 -10 -6 -10z" />
    <glyph glyph-name="Aacute" unicode="&#xc1;" horiz-adv-x="656" 
d="M-19 0c-6 0 -8 4 -5 10l344 660c3 6 7 10 14 10h157c7 0 11 -4 11 -10l106 -660c1 -6 -2 -10 -7 -10h-154c-7 0 -11 4 -12 10l-12 108h-212l-51 -108c-3 -6 -7 -10 -14 -10h-165zM277 260h130l-24 220h-2zM473 747h-109c-6 0 -8 5 -4 10l119 122c6 6 13 10 22 10h135
c6 0 9 -5 4 -10l-145 -122c-8 -7 -13 -10 -22 -10z" />
    <glyph glyph-name="Acircumflex" unicode="&#xc2;" horiz-adv-x="656" 
d="M-19 0c-6 0 -8 4 -5 10l344 660c3 6 7 10 14 10h157c7 0 11 -4 11 -10l106 -660c1 -6 -2 -10 -7 -10h-154c-7 0 -11 4 -12 10l-12 108h-212l-51 -108c-3 -6 -7 -10 -14 -10h-165zM277 260h130l-24 220h-2zM581 742h-87c-9 0 -13 2 -19 10l-39 51h-1l-58 -51
c-8 -8 -13 -10 -24 -10h-95c-6 0 -8 5 -3 10l128 136c6 7 12 10 20 10h87c9 0 13 -3 17 -10l80 -136c3 -5 0 -10 -6 -10z" />
    <glyph glyph-name="Atilde" unicode="&#xc3;" horiz-adv-x="656" 
d="M-19 0c-6 0 -8 4 -5 10l344 660c3 6 7 10 14 10h157c7 0 11 -4 11 -10l106 -660c1 -6 -2 -10 -7 -10h-154c-7 0 -11 4 -12 10l-12 108h-212l-51 -108c-3 -6 -7 -10 -14 -10h-165zM277 260h130l-24 220h-2zM487 742c-35 0 -55 10 -78 24c-19 11 -34 17 -54 17
c-28 0 -51 -11 -78 -32c-6 -4 -11 -1 -10 4l14 78c2 11 5 15 13 22c26 22 53 36 84 36c34 0 55 -11 78 -24c19 -12 34 -17 54 -17c28 0 51 11 78 32c6 4 11 1 10 -4l-14 -79c-2 -10 -6 -15 -13 -21c-26 -23 -53 -36 -84 -36z" />
    <glyph glyph-name="Adieresis" unicode="&#xc4;" horiz-adv-x="656" 
d="M-19 0c-6 0 -8 4 -5 10l344 660c3 6 7 10 14 10h157c7 0 11 -4 11 -10l106 -660c1 -6 -2 -10 -7 -10h-154c-7 0 -11 4 -12 10l-12 108h-212l-51 -108c-3 -6 -7 -10 -14 -10h-165zM277 260h130l-24 220h-2zM574 752h-105c-6 0 -9 4 -8 10l19 107c1 6 6 10 12 10h104
c6 0 9 -4 8 -10l-19 -107c-1 -6 -5 -10 -11 -10zM376 752h-105c-6 0 -10 4 -9 10l20 107c1 6 6 10 12 10h104c6 0 9 -4 8 -10l-19 -107c-1 -6 -5 -10 -11 -10z" />
    <glyph glyph-name="Amacron" unicode="&#x100;" horiz-adv-x="656" 
d="M-19 0c-6 0 -8 4 -5 10l344 660c3 6 7 10 14 10h157c7 0 11 -4 11 -10l106 -660c1 -6 -2 -10 -7 -10h-154c-7 0 -11 4 -12 10l-12 108h-212l-51 -108c-3 -6 -7 -10 -14 -10h-165zM277 260h130l-24 220h-2zM571 763h-291c-6 0 -9 4 -8 10l15 87c1 6 5 10 11 10h291
c6 0 9 -4 8 -10l-15 -87c-1 -6 -5 -10 -11 -10z" />
    <glyph glyph-name="Abreve" unicode="&#x102;" horiz-adv-x="656" 
d="M-19 0c-6 0 -8 4 -5 10l344 660c3 6 7 10 14 10h157c7 0 11 -4 11 -10l106 -660c1 -6 -2 -10 -7 -10h-154c-7 0 -11 4 -12 10l-12 108h-212l-51 -108c-3 -6 -7 -10 -14 -10h-165zM277 260h130l-24 220h-2zM422 735c-89 0 -143 59 -132 138c1 7 5 12 13 12h62
c8 0 12 -3 14 -11c5 -27 24 -41 58 -41c35 0 60 14 75 41c4 8 9 11 17 11h62c7 0 11 -5 10 -11c-15 -78 -93 -139 -179 -139z" />
    <glyph glyph-name="Aring" unicode="&#xc5;" horiz-adv-x="656" 
d="M-19 0c-6 0 -8 4 -5 10l344 660c3 6 7 10 14 10h157c7 0 11 -4 11 -10l106 -660c1 -6 -2 -10 -7 -10h-154c-7 0 -11 4 -12 10l-12 108h-212l-51 -108c-3 -6 -7 -10 -14 -10h-165zM277 260h130l-24 220h-2zM415 706c-56 0 -95 37 -95 90c0 73 53 134 132 134
c56 0 95 -37 95 -90c0 -73 -53 -134 -132 -134zM425 772c28 0 51 24 51 57c0 20 -13 35 -34 35c-28 0 -51 -24 -51 -56c0 -21 13 -36 34 -36z" />
    <glyph glyph-name="Aogonek" unicode="&#x104;" horiz-adv-x="656" 
d="M472 -190c-57 0 -92 31 -92 78c0 43 25 80 73 112h-8c-6 1 -9 4 -10 10l-12 108h-212l-51 -108c-3 -6 -7 -10 -14 -10h-165c-6 0 -8 4 -5 10l344 660c3 6 7 10 14 10h157c7 0 11 -4 11 -10l106 -660c1 -6 -2 -9 -6 -11c-76 -31 -98 -52 -98 -70c0 -8 4 -13 13 -13
c8 0 15 3 25 8c5 3 10 2 12 -3l25 -68c2 -5 1 -10 -5 -13c-36 -22 -70 -30 -102 -30zM381 480l-104 -220h130l-24 220h-2z" />
    <glyph glyph-name="AE" unicode="&#xc6;" horiz-adv-x="909" 
d="M827 0h-429c-5 0 -9 4 -8 10l18 102c1 4 -1 6 -5 6h-173l-64 -108c-4 -7 -8 -10 -14 -10h-171c-6 0 -9 4 -5 10l409 660c4 6 8 10 14 10h548c6 0 9 -4 8 -10l-22 -124c-1 -6 -6 -10 -11 -10h-265c-3 0 -6 -2 -6 -6l-20 -110c-1 -4 1 -6 5 -6h216c6 0 9 -4 8 -10l-21 -122
c-1 -6 -6 -10 -12 -10h-216c-4 0 -6 -2 -7 -6l-21 -116c0 -4 1 -6 5 -6h264c6 0 9 -4 8 -10l-22 -124c-1 -6 -5 -10 -11 -10zM480 536l-165 -276h113c4 0 6 2 7 6l48 270h-3z" />
    <glyph glyph-name="Cacute" unicode="&#x106;" horiz-adv-x="548" 
d="M42 202c0 66 28 252 67 330c53 109 141 160 264 160c115 0 187 -59 209 -157c2 -6 0 -10 -7 -13l-131 -53c-8 -3 -13 -1 -14 6c-10 41 -30 66 -75 66c-42 0 -72 -25 -92 -65c-20 -42 -50 -208 -50 -258c0 -48 26 -79 72 -79c43 0 72 27 96 67c4 7 9 10 15 7l118 -66
c5 -4 6 -8 3 -14c-62 -101 -141 -145 -256 -145c-129 0 -219 75 -219 214zM411 747h-109c-6 0 -8 5 -4 10l119 122c6 6 13 10 22 10h135c6 0 9 -5 4 -10l-145 -122c-8 -7 -13 -10 -22 -10z" />
    <glyph glyph-name="Ccircumflex" unicode="&#x108;" horiz-adv-x="548" 
d="M42 202c0 66 28 252 67 330c53 109 141 160 264 160c115 0 187 -59 209 -157c2 -6 0 -10 -7 -13l-131 -53c-8 -3 -13 -1 -14 6c-10 41 -30 66 -75 66c-42 0 -72 -25 -92 -65c-20 -42 -50 -208 -50 -258c0 -48 26 -79 72 -79c43 0 72 27 96 67c4 7 9 10 15 7l118 -66
c5 -4 6 -8 3 -14c-62 -101 -141 -145 -256 -145c-129 0 -219 75 -219 214zM543 742h-87c-9 0 -13 2 -19 10l-39 51h-1l-58 -51c-8 -8 -13 -10 -24 -10h-95c-6 0 -8 5 -3 10l128 136c6 7 12 10 20 10h87c9 0 13 -3 17 -10l80 -136c3 -5 0 -10 -6 -10z" />
    <glyph glyph-name="Ccaron" unicode="&#x10c;" horiz-adv-x="548" 
d="M42 202c0 66 28 252 67 330c53 109 141 160 264 160c115 0 187 -59 209 -157c2 -6 0 -10 -7 -13l-131 -53c-8 -3 -13 -1 -14 6c-10 41 -30 66 -75 66c-42 0 -72 -25 -92 -65c-20 -42 -50 -208 -50 -258c0 -48 26 -79 72 -79c43 0 72 27 96 67c4 7 9 10 15 7l118 -66
c5 -4 6 -8 3 -14c-62 -101 -141 -145 -256 -145c-129 0 -219 75 -219 214zM413 736h-86c-9 0 -14 3 -18 10l-80 136c-3 5 0 10 6 10h87c10 0 14 -2 20 -10l38 -51h2l57 51c8 8 14 10 24 10h95c6 0 8 -5 4 -10l-129 -136c-6 -7 -12 -10 -20 -10z" />
    <glyph glyph-name="Cdotaccent" unicode="&#x10a;" horiz-adv-x="548" 
d="M439 752h-133c-6 0 -9 4 -8 10l19 107c1 6 5 10 11 10h133c6 0 9 -4 8 -10l-19 -107c-1 -6 -5 -10 -11 -10zM42 202c0 66 28 252 67 330c53 109 141 160 264 160c115 0 187 -59 209 -157c2 -6 0 -10 -7 -13l-131 -53c-8 -3 -13 -1 -14 6c-10 41 -30 66 -75 66
c-42 0 -72 -25 -92 -65c-20 -42 -50 -208 -50 -258c0 -48 26 -79 72 -79c43 0 72 27 96 67c4 7 9 10 15 7l118 -66c5 -4 6 -8 3 -14c-62 -101 -141 -145 -256 -145c-129 0 -219 75 -219 214z" />
    <glyph glyph-name="Ccedilla" unicode="&#xc7;" horiz-adv-x="548" 
d="M217 -165h-111c-6 0 -8 4 -5 10l86 153c-88 23 -145 93 -145 204c0 66 28 252 67 330c53 109 141 160 264 160c115 0 187 -59 209 -157c2 -6 0 -10 -7 -13l-131 -53c-8 -3 -13 -1 -14 6c-10 41 -30 66 -75 66c-42 0 -72 -25 -92 -65c-20 -42 -50 -208 -50 -258
c0 -48 26 -79 72 -79c43 0 72 27 96 67c4 7 9 10 15 7l118 -66c5 -4 6 -8 3 -14c-55 -89 -122 -133 -215 -143l-68 -145c-3 -7 -9 -10 -17 -10z" />
    <glyph glyph-name="Dcaron" unicode="&#x10e;" horiz-adv-x="610" 
d="M415 736h-86c-9 0 -14 3 -18 10l-80 136c-3 5 0 10 6 10h87c10 0 14 -2 20 -10l38 -51h2l57 51c8 8 14 10 24 10h95c6 0 8 -5 4 -10l-129 -136c-6 -7 -12 -10 -20 -10zM19 10l117 660c1 6 5 10 10 10h254c134 0 207 -66 207 -199c0 -81 -28 -255 -66 -333
c-54 -111 -144 -148 -260 -148h-254c-5 0 -9 4 -8 10zM219 151h53c60 0 93 16 118 66c21 43 45 180 45 225c0 62 -29 87 -98 87h-51c-4 0 -5 -2 -6 -6l-65 -366c-1 -4 1 -6 4 -6z" />
    <glyph glyph-name="Dcroat" unicode="&#x110;" horiz-adv-x="610" 
d="M281 0h-254c-5 0 -9 4 -8 10l48 269c1 4 -1 6 -5 6h-25c-6 0 -9 4 -8 10l16 96c1 6 6 10 12 10h25c3 0 6 2 7 6l47 263c1 6 5 10 10 10h254c134 0 207 -66 207 -199c0 -81 -28 -255 -66 -333c-54 -111 -144 -148 -260 -148zM272 151c60 0 93 16 118 66
c21 43 45 180 45 225c0 62 -29 87 -98 87h-51c-4 0 -5 -2 -6 -6l-21 -116c-1 -4 1 -6 4 -6h68c6 0 9 -4 8 -10l-16 -96c-1 -6 -6 -10 -11 -10h-68c-4 0 -6 -2 -7 -6l-22 -122c-1 -4 1 -6 4 -6h53z" />
    <glyph glyph-name="Eth" unicode="&#xd0;" horiz-adv-x="610" 
d="M281 0h-254c-5 0 -9 4 -8 10l48 269c1 4 -1 6 -5 6h-25c-6 0 -9 4 -8 10l16 96c1 6 6 10 12 10h25c3 0 6 2 7 6l47 263c1 6 5 10 10 10h254c134 0 207 -66 207 -199c0 -81 -28 -255 -66 -333c-54 -111 -144 -148 -260 -148zM272 151c60 0 93 16 118 66
c21 43 45 180 45 225c0 62 -29 87 -98 87h-51c-4 0 -5 -2 -6 -6l-21 -116c-1 -4 1 -6 4 -6h68c6 0 9 -4 8 -10l-16 -96c-1 -6 -6 -10 -11 -10h-68c-4 0 -6 -2 -7 -6l-22 -122c-1 -4 1 -6 4 -6h53z" />
    <glyph glyph-name="Egrave" unicode="&#xc8;" horiz-adv-x="538" 
d="M421 747h-106c-8 0 -12 3 -18 10l-101 122c-4 5 -1 10 5 10h129c9 0 14 -3 19 -10l78 -122c3 -5 0 -10 -6 -10zM19 10l117 660c1 6 5 10 10 10h430c6 0 9 -4 8 -10l-22 -124c-1 -6 -6 -10 -11 -10h-265c-3 0 -6 -2 -6 -6l-20 -110c-1 -4 1 -6 5 -6h216c6 0 9 -4 8 -10
l-21 -122c-1 -6 -6 -10 -12 -10h-217c-3 0 -5 -2 -6 -6l-21 -116c0 -4 1 -6 5 -6h264c6 0 9 -4 8 -10l-22 -124c-1 -6 -5 -10 -11 -10h-429c-5 0 -9 4 -8 10z" />
    <glyph glyph-name="Eacute" unicode="&#xc9;" horiz-adv-x="538" 
d="M400 747h-109c-6 0 -8 5 -4 10l119 122c6 6 13 10 22 10h135c6 0 9 -5 4 -10l-145 -122c-8 -7 -13 -10 -22 -10zM19 10l117 660c1 6 5 10 10 10h430c6 0 9 -4 8 -10l-22 -124c-1 -6 -6 -10 -11 -10h-265c-3 0 -6 -2 -6 -6l-20 -110c-1 -4 1 -6 5 -6h216c6 0 9 -4 8 -10
l-21 -122c-1 -6 -6 -10 -12 -10h-217c-3 0 -5 -2 -6 -6l-21 -116c0 -4 1 -6 5 -6h264c6 0 9 -4 8 -10l-22 -124c-1 -6 -5 -10 -11 -10h-429c-5 0 -9 4 -8 10z" />
    <glyph glyph-name="Ecircumflex" unicode="&#xca;" horiz-adv-x="538" 
d="M19 10l117 660c1 6 5 10 10 10h430c6 0 9 -4 8 -10l-22 -124c-1 -6 -6 -10 -11 -10h-265c-3 0 -6 -2 -6 -6l-20 -110c-1 -4 1 -6 5 -6h216c6 0 9 -4 8 -10l-21 -122c-1 -6 -6 -10 -12 -10h-217c-3 0 -5 -2 -6 -6l-21 -116c0 -4 1 -6 5 -6h264c6 0 9 -4 8 -10l-22 -124
c-1 -6 -5 -10 -11 -10h-429c-5 0 -9 4 -8 10zM534 742h-87c-9 0 -13 2 -19 10l-39 51h-1l-58 -51c-8 -8 -13 -10 -24 -10h-95c-6 0 -8 5 -3 10l128 136c6 7 12 10 20 10h87c9 0 13 -3 17 -10l80 -136c3 -5 0 -10 -6 -10z" />
    <glyph glyph-name="Ecaron" unicode="&#x11a;" horiz-adv-x="538" 
d="M406 736h-86c-9 0 -14 3 -18 10l-80 136c-3 5 0 10 6 10h87c10 0 14 -2 20 -10l38 -51h2l57 51c8 8 14 10 24 10h95c6 0 8 -5 4 -10l-129 -136c-6 -7 -12 -10 -20 -10zM19 10l117 660c1 6 5 10 10 10h430c6 0 9 -4 8 -10l-22 -124c-1 -6 -6 -10 -11 -10h-265
c-3 0 -6 -2 -6 -6l-20 -110c-1 -4 1 -6 5 -6h216c6 0 9 -4 8 -10l-21 -122c-1 -6 -6 -10 -12 -10h-217c-3 0 -5 -2 -6 -6l-21 -116c0 -4 1 -6 5 -6h264c6 0 9 -4 8 -10l-22 -124c-1 -6 -5 -10 -11 -10h-429c-5 0 -9 4 -8 10z" />
    <glyph glyph-name="Edieresis" unicode="&#xcb;" horiz-adv-x="538" 
d="M528 752h-105c-6 0 -9 4 -8 10l19 107c1 6 6 10 12 10h104c6 0 9 -4 8 -10l-19 -107c-1 -6 -5 -10 -11 -10zM330 752h-105c-6 0 -10 4 -9 10l20 107c1 6 6 10 12 10h104c6 0 9 -4 8 -10l-19 -107c-1 -6 -5 -10 -11 -10zM19 10l117 660c1 6 5 10 10 10h430c6 0 9 -4 8 -10
l-22 -124c-1 -6 -6 -10 -11 -10h-265c-3 0 -6 -2 -6 -6l-20 -110c-1 -4 1 -6 5 -6h216c6 0 9 -4 8 -10l-21 -122c-1 -6 -6 -10 -12 -10h-217c-3 0 -5 -2 -6 -6l-21 -116c0 -4 1 -6 5 -6h264c6 0 9 -4 8 -10l-22 -124c-1 -6 -5 -10 -11 -10h-429c-5 0 -9 4 -8 10z" />
    <glyph glyph-name="Emacron" unicode="&#x112;" horiz-adv-x="538" 
d="M513 763h-291c-6 0 -9 4 -8 10l15 87c1 6 5 10 11 10h291c6 0 9 -4 8 -10l-15 -87c-1 -6 -5 -10 -11 -10zM19 10l117 660c1 6 5 10 10 10h430c6 0 9 -4 8 -10l-22 -124c-1 -6 -6 -10 -11 -10h-265c-3 0 -6 -2 -6 -6l-20 -110c-1 -4 1 -6 5 -6h216c6 0 9 -4 8 -10
l-21 -122c-1 -6 -6 -10 -12 -10h-217c-3 0 -5 -2 -6 -6l-21 -116c0 -4 1 -6 5 -6h264c6 0 9 -4 8 -10l-22 -124c-1 -6 -5 -10 -11 -10h-429c-5 0 -9 4 -8 10z" />
    <glyph glyph-name="Ebreve" unicode="&#x114;" horiz-adv-x="538" 
d="M361 735c-89 0 -143 59 -132 138c1 7 5 12 13 12h62c8 0 12 -3 14 -11c5 -27 24 -41 58 -41c35 0 60 14 75 41c4 8 9 11 17 11h62c7 0 11 -5 10 -11c-15 -78 -93 -139 -179 -139zM19 10l117 660c1 6 5 10 10 10h430c6 0 9 -4 8 -10l-22 -124c-1 -6 -6 -10 -11 -10h-265
c-3 0 -6 -2 -6 -6l-20 -110c-1 -4 1 -6 5 -6h216c6 0 9 -4 8 -10l-21 -122c-1 -6 -6 -10 -12 -10h-217c-3 0 -5 -2 -6 -6l-21 -116c0 -4 1 -6 5 -6h264c6 0 9 -4 8 -10l-22 -124c-1 -6 -5 -10 -11 -10h-429c-5 0 -9 4 -8 10z" />
    <glyph glyph-name="Edotaccent" unicode="&#x116;" horiz-adv-x="538" 
d="M438 752h-133c-6 0 -9 4 -8 10l19 107c1 6 5 10 11 10h133c6 0 9 -4 8 -10l-19 -107c-1 -6 -5 -10 -11 -10zM19 10l117 660c1 6 5 10 10 10h430c6 0 9 -4 8 -10l-22 -124c-1 -6 -6 -10 -11 -10h-265c-3 0 -6 -2 -6 -6l-20 -110c-1 -4 1 -6 5 -6h216c6 0 9 -4 8 -10
l-21 -122c-1 -6 -6 -10 -12 -10h-217c-3 0 -5 -2 -6 -6l-21 -116c0 -4 1 -6 5 -6h264c6 0 9 -4 8 -10l-22 -124c-1 -6 -5 -10 -11 -10h-429c-5 0 -9 4 -8 10z" />
    <glyph glyph-name="Eogonek" unicode="&#x118;" horiz-adv-x="538" 
d="M319 -190c-57 0 -92 31 -92 78s28 81 70 112h-270c-5 0 -9 4 -8 10l117 660c1 6 5 10 10 10h430c6 0 9 -4 8 -10l-22 -124c-1 -6 -6 -10 -11 -10h-265c-3 0 -6 -2 -6 -6l-20 -110c-1 -4 1 -6 5 -6h216c6 0 9 -4 8 -10l-21 -122c-1 -6 -6 -10 -12 -10h-217
c-3 0 -5 -2 -6 -6l-21 -116c0 -4 1 -6 5 -6h264c6 0 9 -4 8 -10l-22 -124c-1 -6 -5 -10 -11 -10h-11c-76 -34 -95 -53 -95 -71c0 -8 5 -13 14 -13c8 0 15 3 25 8c5 3 10 2 12 -3l25 -68c2 -5 1 -10 -5 -13c-36 -22 -70 -30 -102 -30z" />
    <glyph glyph-name="Gcircumflex" unicode="&#x11c;" horiz-adv-x="600" 
d="M45 202c0 66 30 256 67 331c54 111 145 159 272 159c115 0 190 -60 214 -145c2 -7 -1 -13 -7 -16l-131 -52c-7 -2 -12 0 -15 5c-15 37 -37 57 -82 57c-46 0 -78 -25 -97 -65c-19 -39 -50 -207 -50 -258c0 -48 28 -79 78 -79c49 0 82 22 99 58c5 13 10 27 14 48
c0 4 -2 6 -6 6h-70c-5 0 -8 4 -7 10l19 108c1 6 6 10 11 10h235c6 0 8 -4 7 -10l-8 -50c-14 -81 -28 -133 -49 -174c-56 -111 -142 -157 -267 -157c-136 0 -227 73 -227 214zM551 742h-87c-9 0 -13 2 -19 10l-39 51h-1l-58 -51c-8 -8 -13 -10 -24 -10h-95c-6 0 -8 5 -3 10
l128 136c6 7 12 10 20 10h87c9 0 13 -3 17 -10l80 -136c3 -5 0 -10 -6 -10z" />
    <glyph glyph-name="Gbreve" unicode="&#x11e;" horiz-adv-x="600" 
d="M386 735c-89 0 -143 59 -132 138c1 7 5 12 13 12h62c8 0 12 -3 14 -11c5 -27 24 -41 58 -41c35 0 60 14 75 41c4 8 9 11 17 11h62c7 0 11 -5 10 -11c-15 -78 -93 -139 -179 -139zM45 202c0 66 30 256 67 331c54 111 145 159 272 159c115 0 190 -60 214 -145
c2 -7 -1 -13 -7 -16l-131 -52c-7 -2 -12 0 -15 5c-15 37 -37 57 -82 57c-46 0 -78 -25 -97 -65c-19 -39 -50 -207 -50 -258c0 -48 28 -79 78 -79c49 0 82 22 99 58c5 13 10 27 14 48c0 4 -2 6 -6 6h-70c-5 0 -8 4 -7 10l19 108c1 6 6 10 11 10h235c6 0 8 -4 7 -10l-8 -50
c-14 -81 -28 -133 -49 -174c-56 -111 -142 -157 -267 -157c-136 0 -227 73 -227 214z" />
    <glyph glyph-name="Gdotaccent" unicode="&#x120;" horiz-adv-x="600" 
d="M454 752h-133c-6 0 -9 4 -8 10l19 107c1 6 5 10 11 10h133c6 0 9 -4 8 -10l-19 -107c-1 -6 -5 -10 -11 -10zM45 202c0 66 30 256 67 331c54 111 145 159 272 159c115 0 190 -60 214 -145c2 -7 -1 -13 -7 -16l-131 -52c-7 -2 -12 0 -15 5c-15 37 -37 57 -82 57
c-46 0 -78 -25 -97 -65c-19 -39 -50 -207 -50 -258c0 -48 28 -79 78 -79c49 0 82 22 99 58c5 13 10 27 14 48c0 4 -2 6 -6 6h-70c-5 0 -8 4 -7 10l19 108c1 6 6 10 11 10h235c6 0 8 -4 7 -10l-8 -50c-14 -81 -28 -133 -49 -174c-56 -111 -142 -157 -267 -157
c-136 0 -227 73 -227 214z" />
    <glyph glyph-name="Gcommaaccent" unicode="&#x122;" horiz-adv-x="600" 
d="M166 -244c-7 0 -10 4 -9 11l31 177c1 6 5 10 11 10h115c6 0 10 -4 9 -10l-15 -87c-2 -11 -5 -16 -13 -21l-112 -73c-8 -5 -12 -7 -17 -7zM45 202c0 66 30 256 67 331c54 111 145 159 272 159c115 0 190 -60 214 -145c2 -7 -1 -13 -7 -16l-131 -52c-7 -2 -12 0 -15 5
c-15 37 -37 57 -82 57c-46 0 -78 -25 -97 -65c-19 -39 -50 -207 -50 -258c0 -48 28 -79 78 -79c49 0 82 22 99 58c5 13 10 27 14 48c0 4 -2 6 -6 6h-70c-5 0 -8 4 -7 10l19 108c1 6 6 10 11 10h235c6 0 8 -4 7 -10l-8 -50c-14 -81 -28 -133 -49 -174
c-56 -111 -142 -157 -267 -157c-136 0 -227 73 -227 214z" />
    <glyph glyph-name="Hcircumflex" unicode="&#x124;" horiz-adv-x="637" 
d="M19 10l117 660c1 6 5 10 11 10h150c6 0 9 -4 8 -10l-43 -244c-1 -4 1 -6 4 -6h180c4 0 6 2 7 6l43 244c1 6 5 10 11 10h150c6 0 10 -4 9 -10l-117 -660c-1 -6 -5 -10 -11 -10h-150c-6 0 -10 4 -9 10l45 253c1 4 -1 6 -5 6h-180c-3 0 -5 -2 -6 -6l-45 -253
c-1 -6 -4 -10 -10 -10h-150c-6 0 -10 4 -9 10zM575 742h-87c-9 0 -13 2 -19 10l-39 51h-1l-58 -51c-8 -8 -13 -10 -24 -10h-95c-6 0 -8 5 -3 10l128 136c6 7 12 10 20 10h87c9 0 13 -3 17 -10l80 -136c3 -5 0 -10 -6 -10z" />
    <glyph glyph-name="Hbar" unicode="&#x126;" horiz-adv-x="637" 
d="M538 0h-150c-6 0 -10 4 -9 10l44 253c1 4 -1 6 -5 6h-178c-3 0 -5 -2 -6 -6l-46 -253c-1 -6 -4 -10 -10 -10h-150c-6 0 -10 4 -9 10l86 486c1 4 -1 6 -5 6h-28c-6 0 -10 4 -9 10l15 78c1 6 5 10 11 10h28c4 0 7 2 8 6l11 64c1 6 5 10 11 10h150c6 0 9 -4 8 -10l-10 -64
c-1 -4 1 -6 4 -6h179c4 0 6 2 7 6l11 64c1 6 5 10 11 10h150c6 0 10 -4 9 -10l-11 -64c-1 -4 0 -6 4 -6h28c6 0 9 -4 8 -10l-14 -78c-1 -6 -5 -10 -11 -10h-28c-4 0 -6 -2 -7 -6l-86 -486c-1 -6 -5 -10 -11 -10zM445 420c4 0 6 2 7 6l13 70c1 4 -1 6 -5 6h-178
c-4 0 -6 -2 -7 -6l-12 -70c-1 -4 1 -6 4 -6h178z" />
    <glyph glyph-name="Igrave" unicode="&#xcc;" horiz-adv-x="276" 
d="M19 10l117 660c1 6 5 10 11 10h150c6 0 9 -4 8 -10l-117 -660c-1 -6 -4 -10 -10 -10h-150c-6 0 -10 4 -9 10zM282 747h-106c-8 0 -12 3 -18 10l-101 122c-4 5 -1 10 5 10h129c9 0 14 -3 19 -10l78 -122c3 -5 0 -10 -6 -10z" />
    <glyph glyph-name="Iacute" unicode="&#xcd;" horiz-adv-x="276" 
d="M19 10l117 660c1 6 5 10 11 10h150c6 0 9 -4 8 -10l-117 -660c-1 -6 -4 -10 -10 -10h-150c-6 0 -10 4 -9 10zM284 747h-109c-6 0 -8 5 -4 10l119 122c6 6 13 10 22 10h135c6 0 9 -5 4 -10l-145 -122c-8 -7 -13 -10 -22 -10z" />
    <glyph glyph-name="Icircumflex" unicode="&#xce;" horiz-adv-x="276" 
d="M19 10l117 660c1 6 5 10 11 10h150c6 0 9 -4 8 -10l-117 -660c-1 -6 -4 -10 -10 -10h-150c-6 0 -10 4 -9 10zM395 742h-87c-9 0 -13 2 -19 10l-39 51h-1l-58 -51c-8 -8 -13 -10 -24 -10h-95c-6 0 -8 5 -3 10l128 136c6 7 12 10 20 10h87c9 0 13 -3 17 -10l80 -136
c3 -5 0 -10 -6 -10z" />
    <glyph glyph-name="Itilde" unicode="&#x128;" horiz-adv-x="276" 
d="M19 10l117 660c1 6 5 10 11 10h150c6 0 9 -4 8 -10l-117 -660c-1 -6 -4 -10 -10 -10h-150c-6 0 -10 4 -9 10zM305 742c-35 0 -55 10 -78 24c-19 11 -34 17 -54 17c-28 0 -51 -11 -78 -32c-6 -4 -11 -1 -10 4l14 78c2 11 5 15 13 22c26 22 53 36 84 36c34 0 55 -11 78 -24
c19 -12 34 -17 54 -17c28 0 51 11 78 32c6 4 11 1 10 -4l-14 -79c-2 -10 -6 -15 -13 -21c-26 -23 -53 -36 -84 -36z" />
    <glyph glyph-name="Idieresis" unicode="&#xcf;" horiz-adv-x="276" 
d="M19 10l117 660c1 6 5 10 11 10h150c6 0 9 -4 8 -10l-117 -660c-1 -6 -4 -10 -10 -10h-150c-6 0 -10 4 -9 10zM386 752h-105c-6 0 -9 4 -8 10l19 107c1 6 6 10 12 10h104c6 0 9 -4 8 -10l-19 -107c-1 -6 -5 -10 -11 -10zM188 752h-105c-6 0 -10 4 -9 10l20 107
c1 6 6 10 12 10h104c6 0 9 -4 8 -10l-19 -107c-1 -6 -5 -10 -11 -10z" />
    <glyph glyph-name="Imacron" unicode="&#x12a;" horiz-adv-x="276" 
d="M19 10l117 660c1 6 5 10 11 10h150c6 0 9 -4 8 -10l-117 -660c-1 -6 -4 -10 -10 -10h-150c-6 0 -10 4 -9 10zM380 763h-291c-6 0 -9 4 -8 10l15 87c1 6 5 10 11 10h291c6 0 9 -4 8 -10l-15 -87c-1 -6 -5 -10 -11 -10z" />
    <glyph glyph-name="Idotaccent" unicode="&#x130;" horiz-adv-x="276" 
d="M19 10l117 660c1 6 5 10 11 10h150c6 0 9 -4 8 -10l-117 -660c-1 -6 -4 -10 -10 -10h-150c-6 0 -10 4 -9 10zM300 752h-133c-6 0 -9 4 -8 10l19 107c1 6 5 10 11 10h133c6 0 9 -4 8 -10l-19 -107c-1 -6 -5 -10 -11 -10z" />
    <glyph glyph-name="Ibreve" unicode="&#x12c;" horiz-adv-x="276" 
d="M19 10l117 660c1 6 5 10 11 10h150c6 0 9 -4 8 -10l-117 -660c-1 -6 -4 -10 -10 -10h-150c-6 0 -10 4 -9 10zM234 735c-89 0 -143 59 -132 138c1 7 5 12 13 12h62c8 0 12 -3 14 -11c5 -27 24 -41 58 -41c35 0 60 14 75 41c4 8 9 11 17 11h62c7 0 11 -5 10 -11
c-15 -78 -93 -139 -179 -139z" />
    <glyph glyph-name="Iogonek" unicode="&#x12e;" horiz-adv-x="276" 
d="M61 -190c-58 0 -92 31 -92 78c0 43 23 77 67 112h-9c-6 0 -9 4 -8 10l117 660c1 6 5 10 11 10h150c6 0 9 -4 8 -10l-117 -659c-1 -6 -3 -9 -8 -11c-73 -37 -88 -54 -88 -71c0 -8 4 -13 14 -13c7 0 15 3 24 8c5 3 11 2 13 -3l24 -68c2 -5 1 -10 -5 -13
c-36 -22 -70 -30 -101 -30z" />
    <glyph glyph-name="Jcircumflex" unicode="&#x134;" horiz-adv-x="506" 
d="M-10 84c-1 5 -1 10 4 14l118 80c5 3 10 3 13 -1c16 -22 38 -37 68 -37c55 0 86 31 99 103l76 427c1 6 5 10 11 10h151c6 0 10 -4 9 -10l-74 -414c-34 -188 -131 -268 -291 -268c-86 0 -159 43 -184 96zM629 742h-87c-9 0 -13 2 -19 10l-39 51h-1l-58 -51
c-8 -8 -13 -10 -24 -10h-95c-6 0 -8 5 -3 10l128 136c6 7 12 10 20 10h87c9 0 13 -3 17 -10l80 -136c3 -5 0 -10 -6 -10z" />
    <glyph glyph-name="Kcommaaccent" unicode="&#x136;" horiz-adv-x="626" 
d="M192 -244c-7 0 -10 4 -9 11l31 177c1 6 5 10 11 10h115c6 0 10 -4 9 -10l-15 -87c-2 -11 -5 -16 -13 -21l-112 -73c-8 -5 -12 -7 -17 -7zM19 10l117 660c1 6 5 10 11 10h150c6 0 9 -4 8 -10l-46 -257l226 258c6 6 10 9 18 9h178c8 0 10 -7 5 -13l-248 -266l135 -390
c2 -6 -1 -11 -8 -11h-156c-9 0 -13 3 -15 9l-84 268l-94 -107l-28 -160c-1 -6 -4 -10 -10 -10h-150c-6 0 -10 4 -9 10z" />
    <glyph glyph-name="Lacute" unicode="&#x139;" horiz-adv-x="519" 
d="M295 747h-109c-6 0 -8 5 -4 10l119 122c6 6 13 10 22 10h135c6 0 9 -5 4 -10l-145 -122c-8 -7 -13 -10 -22 -10zM19 10l117 660c1 6 5 10 11 10h150c6 0 9 -4 8 -10l-90 -513c-1 -4 1 -6 4 -6h258c6 0 9 -4 8 -10l-23 -131c-1 -6 -5 -10 -11 -10h-423c-6 0 -10 4 -9 10z
" />
    <glyph glyph-name="Lcaron" unicode="&#x13d;" horiz-adv-x="519" 
d="M335 476c-8 0 -11 5 -10 12l32 182c1 6 5 10 11 10h105c6 0 10 -4 9 -10l-17 -92c-1 -9 -5 -16 -12 -21l-102 -74c-7 -5 -11 -7 -16 -7zM19 10l117 660c1 6 5 10 11 10h150c6 0 9 -4 8 -10l-90 -513c-1 -4 1 -6 4 -6h258c6 0 9 -4 8 -10l-23 -131c-1 -6 -5 -10 -11 -10
h-423c-6 0 -10 4 -9 10z" />
    <glyph glyph-name="Lcommaaccent" unicode="&#x13b;" horiz-adv-x="519" 
d="M165 -244c-7 0 -10 4 -9 11l31 177c1 6 5 10 11 10h115c6 0 10 -4 9 -10l-15 -87c-2 -11 -5 -16 -13 -21l-112 -73c-8 -5 -12 -7 -17 -7zM19 10l117 660c1 6 5 10 11 10h150c6 0 9 -4 8 -10l-90 -513c-1 -4 1 -6 4 -6h258c6 0 9 -4 8 -10l-23 -131c-1 -6 -5 -10 -11 -10
h-423c-6 0 -10 4 -9 10z" />
    <glyph glyph-name="Lslash" unicode="&#x141;" horiz-adv-x="519" 
d="M381 390l-136 -65l-30 -168c-1 -4 1 -6 4 -6h258c6 0 9 -4 8 -10l-23 -131c-1 -6 -5 -10 -11 -10h-423c-6 0 -10 4 -9 10l42 233l-44 -21c-5 -3 -9 0 -8 6l19 103c1 6 4 11 11 14l43 21l54 304c1 6 5 10 11 10h150c6 0 9 -4 8 -10l-39 -222l136 65c6 3 10 0 9 -6
l-19 -103c-1 -6 -4 -11 -11 -14z" />
    <glyph glyph-name="Ldot" unicode="&#x13f;" horiz-adv-x="519" 
d="M19 10l117 660c1 6 5 10 11 10h150c6 0 9 -4 8 -10l-90 -513c-1 -4 1 -6 4 -6h258c6 0 9 -4 8 -10l-23 -131c-1 -6 -5 -10 -11 -10h-423c-6 0 -10 4 -9 10zM483 248h-133c-6 0 -10 4 -9 10l23 134c1 6 5 10 11 10h134c6 0 10 -4 9 -10l-24 -134c-1 -6 -5 -10 -11 -10z
" />
    <glyph glyph-name="Nacute" unicode="&#x143;" horiz-adv-x="631" 
d="M440 747h-109c-6 0 -8 5 -4 10l119 122c6 6 13 10 22 10h135c6 0 9 -5 4 -10l-145 -122c-8 -7 -13 -10 -22 -10zM19 10l117 660c1 6 5 10 11 10h142c7 0 12 -3 15 -10l128 -394h4l70 394c1 6 5 10 11 10h134c6 0 10 -4 9 -10l-117 -660c-1 -6 -5 -10 -11 -10h-143
c-7 0 -12 3 -14 10l-128 394h-5l-70 -394c-1 -6 -5 -10 -10 -10h-134c-6 0 -10 4 -9 10z" />
    <glyph glyph-name="Ncaron" unicode="&#x147;" horiz-adv-x="631" 
d="M447 736h-86c-9 0 -14 3 -18 10l-80 136c-3 5 0 10 6 10h87c10 0 14 -2 20 -10l38 -51h2l57 51c8 8 14 10 24 10h95c6 0 8 -5 4 -10l-129 -136c-6 -7 -12 -10 -20 -10zM19 10l117 660c1 6 5 10 11 10h142c7 0 12 -3 15 -10l128 -394h4l70 394c1 6 5 10 11 10h134
c6 0 10 -4 9 -10l-117 -660c-1 -6 -5 -10 -11 -10h-143c-7 0 -12 3 -14 10l-128 394h-5l-70 -394c-1 -6 -5 -10 -10 -10h-134c-6 0 -10 4 -9 10z" />
    <glyph glyph-name="Ntilde" unicode="&#xd1;" horiz-adv-x="631" 
d="M471 742c-35 0 -55 10 -78 24c-19 11 -34 17 -54 17c-28 0 -51 -11 -78 -32c-6 -4 -11 -1 -10 4l14 78c2 11 5 15 13 22c26 22 53 36 84 36c34 0 55 -11 78 -24c19 -12 34 -17 54 -17c28 0 51 11 78 32c6 4 11 1 10 -4l-14 -79c-2 -10 -6 -15 -13 -21
c-26 -23 -53 -36 -84 -36zM19 10l117 660c1 6 5 10 11 10h142c7 0 12 -3 15 -10l128 -394h4l70 394c1 6 5 10 11 10h134c6 0 10 -4 9 -10l-117 -660c-1 -6 -5 -10 -11 -10h-143c-7 0 -12 3 -14 10l-128 394h-5l-70 -394c-1 -6 -5 -10 -10 -10h-134c-6 0 -10 4 -9 10z" />
    <glyph glyph-name="Ncommaaccent" unicode="&#x145;" horiz-adv-x="631" 
d="M205 -244c-7 0 -10 4 -9 11l31 177c1 6 5 10 11 10h115c6 0 10 -4 9 -10l-15 -87c-2 -11 -5 -16 -13 -21l-112 -73c-8 -5 -12 -7 -17 -7zM19 10l117 660c1 6 5 10 11 10h142c7 0 12 -3 15 -10l128 -394h4l70 394c1 6 5 10 11 10h134c6 0 10 -4 9 -10l-117 -660
c-1 -6 -5 -10 -11 -10h-143c-7 0 -12 3 -14 10l-128 394h-5l-70 -394c-1 -6 -5 -10 -10 -10h-134c-6 0 -10 4 -9 10z" />
    <glyph glyph-name="Eng" unicode="&#x14a;" horiz-adv-x="631" 
d="M293 -187h-36c-6 0 -9 4 -8 10l22 121c1 6 6 10 11 10h14c40 0 68 13 80 48l1 4l-130 398h-5l-70 -394c-1 -6 -5 -10 -10 -10h-135c-5 0 -9 4 -8 10l117 660c1 6 5 10 10 10h143c6 0 12 -3 15 -10l128 -394h4l70 394c1 6 5 10 11 10h134c6 0 10 -4 9 -10l-113 -638
c-28 -151 -112 -219 -254 -219z" />
    <glyph glyph-name="Ograve" unicode="&#xd2;" horiz-adv-x="604" 
d="M439 747h-106c-8 0 -12 3 -18 10l-101 122c-4 5 -1 10 5 10h129c9 0 14 -3 19 -10l78 -122c3 -5 0 -10 -6 -10zM271 -12c-136 0 -226 73 -226 214c0 66 30 256 67 331c54 111 149 159 269 159c136 0 226 -73 226 -214c0 -66 -30 -256 -67 -331
c-55 -111 -150 -159 -269 -159zM291 139c45 0 77 25 96 65c19 39 49 207 49 258c0 48 -26 79 -75 79c-45 0 -77 -25 -96 -65c-19 -39 -49 -207 -49 -258c0 -48 26 -79 75 -79z" />
    <glyph glyph-name="Oacute" unicode="&#xd3;" horiz-adv-x="604" 
d="M442 747h-109c-6 0 -8 5 -4 10l119 122c6 6 13 10 22 10h135c6 0 9 -5 4 -10l-145 -122c-8 -7 -13 -10 -22 -10zM271 -12c-136 0 -226 73 -226 214c0 66 30 256 67 331c54 111 149 159 269 159c136 0 226 -73 226 -214c0 -66 -30 -256 -67 -331
c-55 -111 -150 -159 -269 -159zM291 139c45 0 77 25 96 65c19 39 49 207 49 258c0 48 -26 79 -75 79c-45 0 -77 -25 -96 -65c-19 -39 -49 -207 -49 -258c0 -48 26 -79 75 -79z" />
    <glyph glyph-name="Ocircumflex" unicode="&#xd4;" horiz-adv-x="604" 
d="M553 751h-87c-10 0 -14 2 -20 10l-38 52h-2l-57 -52c-8 -7 -14 -10 -24 -10h-95c-6 0 -8 5 -4 10l129 137c6 7 12 9 20 9h87c8 0 13 -2 17 -9l80 -137c3 -5 0 -10 -6 -10zM271 -12c-136 0 -226 73 -226 214c0 66 30 256 67 331c54 111 149 159 269 159
c136 0 226 -73 226 -214c0 -66 -30 -256 -67 -331c-55 -111 -150 -159 -269 -159zM291 139c45 0 77 25 96 65c19 39 49 207 49 258c0 48 -26 79 -75 79c-45 0 -77 -25 -96 -65c-19 -39 -49 -207 -49 -258c0 -48 26 -79 75 -79z" />
    <glyph glyph-name="Otilde" unicode="&#xd5;" horiz-adv-x="604" 
d="M451 742c-35 0 -55 10 -78 24c-19 11 -34 17 -54 17c-28 0 -51 -11 -78 -32c-6 -4 -11 -1 -10 4l14 78c2 11 5 15 13 22c26 22 53 36 84 36c34 0 55 -11 78 -24c19 -12 34 -17 54 -17c28 0 51 11 78 32c6 4 11 1 10 -4l-14 -79c-2 -10 -6 -15 -13 -21
c-26 -23 -53 -36 -84 -36zM271 -12c-136 0 -226 73 -226 214c0 66 30 256 67 331c54 111 149 159 269 159c136 0 226 -73 226 -214c0 -66 -30 -256 -67 -331c-55 -111 -150 -159 -269 -159zM291 139c45 0 77 25 96 65c19 39 49 207 49 258c0 48 -26 79 -75 79
c-45 0 -77 -25 -96 -65c-19 -39 -49 -207 -49 -258c0 -48 26 -79 75 -79z" />
    <glyph glyph-name="Odieresis" unicode="&#xd6;" horiz-adv-x="604" 
d="M541 752h-105c-6 0 -9 4 -8 10l19 107c1 6 6 10 12 10h104c6 0 9 -4 8 -10l-19 -107c-1 -6 -5 -10 -11 -10zM343 752h-105c-6 0 -10 4 -9 10l20 107c1 6 6 10 12 10h104c6 0 9 -4 8 -10l-19 -107c-1 -6 -5 -10 -11 -10zM271 -12c-136 0 -226 73 -226 214
c0 66 30 256 67 331c54 111 149 159 269 159c136 0 226 -73 226 -214c0 -66 -30 -256 -67 -331c-55 -111 -150 -159 -269 -159zM291 139c45 0 77 25 96 65c19 39 49 207 49 258c0 48 -26 79 -75 79c-45 0 -77 -25 -96 -65c-19 -39 -49 -207 -49 -258c0 -48 26 -79 75 -79z
" />
    <glyph glyph-name="Omacron" unicode="&#x14c;" horiz-adv-x="604" 
d="M542 763h-291c-6 0 -9 4 -8 10l15 87c1 6 5 10 11 10h291c6 0 9 -4 8 -10l-15 -87c-1 -6 -5 -10 -11 -10zM271 -12c-136 0 -226 73 -226 214c0 66 30 256 67 331c54 111 149 159 269 159c136 0 226 -73 226 -214c0 -66 -30 -256 -67 -331c-55 -111 -150 -159 -269 -159z
M291 139c45 0 77 25 96 65c19 39 49 207 49 258c0 48 -26 79 -75 79c-45 0 -77 -25 -96 -65c-19 -39 -49 -207 -49 -258c0 -48 26 -79 75 -79z" />
    <glyph glyph-name="Obreve" unicode="&#x14e;" horiz-adv-x="604" 
d="M389 735c-89 0 -143 59 -132 138c1 7 5 12 13 12h62c8 0 12 -3 14 -11c5 -27 24 -41 58 -41c35 0 60 14 75 41c4 8 9 11 17 11h62c7 0 11 -5 10 -11c-15 -78 -93 -139 -179 -139zM271 -12c-136 0 -226 73 -226 214c0 66 30 256 67 331c54 111 149 159 269 159
c136 0 226 -73 226 -214c0 -66 -30 -256 -67 -331c-55 -111 -150 -159 -269 -159zM291 139c45 0 77 25 96 65c19 39 49 207 49 258c0 48 -26 79 -75 79c-45 0 -77 -25 -96 -65c-19 -39 -49 -207 -49 -258c0 -48 26 -79 75 -79z" />
    <glyph glyph-name="Ohungarumlaut" unicode="&#x150;" horiz-adv-x="604" 
d="M271 -12c-136 0 -226 73 -226 214c0 66 30 256 67 331c54 111 149 159 269 159c136 0 226 -73 226 -214c0 -66 -30 -256 -67 -331c-55 -111 -150 -159 -269 -159zM291 139c45 0 77 25 96 65c19 39 49 207 49 258c0 48 -26 79 -75 79c-45 0 -77 -25 -96 -65
c-19 -39 -49 -207 -49 -258c0 -48 26 -79 75 -79zM516 748h-91c-6 0 -9 5 -5 10l94 118c4 7 10 10 18 10h108c6 0 9 -5 5 -10l-108 -118c-6 -7 -12 -10 -21 -10zM338 748h-92c-6 0 -8 5 -4 10l94 118c4 7 10 10 18 10h108c6 0 9 -5 5 -10l-108 -118c-6 -7 -12 -10 -21 -10z
" />
    <glyph glyph-name="Oslash" unicode="&#xd8;" horiz-adv-x="604" 
d="M271 -12c-54 0 -101 12 -138 34l-34 -42c-5 -7 -11 -10 -18 -10h-95c-6 0 -8 5 -4 10l88 108c-16 31 -25 69 -25 114c0 66 30 256 67 331c54 111 149 159 269 159c53 0 100 -11 137 -34l34 42c5 7 11 10 18 10h96c6 0 8 -5 4 -10l-89 -109c17 -31 26 -69 26 -113
c0 -66 -30 -256 -67 -331c-55 -111 -150 -159 -269 -159zM291 139c45 0 77 25 96 65c19 39 49 207 49 258c0 48 -26 79 -75 79c-45 0 -77 -25 -96 -65c-19 -39 -49 -207 -49 -258c0 -48 26 -79 75 -79z" />
    <glyph glyph-name="OE" unicode="&#x152;" horiz-adv-x="881" 
d="M799 0h-429c-5 0 -9 4 -8 10l4 22h-2c-28 -26 -70 -44 -124 -44c-124 0 -195 73 -195 214c0 66 30 256 67 331c55 111 141 159 249 159c48 0 91 -15 112 -44h2l4 22c1 6 5 10 10 10h430c6 0 9 -4 8 -10l-22 -124c-1 -6 -6 -10 -11 -10h-265c-3 0 -6 -2 -6 -6l-20 -110
c-1 -4 1 -6 5 -6h216c6 0 9 -4 8 -10l-21 -122c-1 -6 -6 -10 -12 -10h-216c-4 0 -6 -2 -7 -6l-21 -116c0 -4 1 -6 5 -6h264c6 0 9 -4 8 -10l-22 -124c-1 -6 -5 -10 -11 -10zM291 139c46 0 77 25 96 65c19 39 49 207 49 258c0 48 -26 79 -74 79c-45 0 -77 -25 -96 -65
c-19 -39 -49 -207 -49 -258c0 -48 26 -79 74 -79z" />
    <glyph glyph-name="Racute" unicode="&#x154;" horiz-adv-x="605" 
d="M534 0h-149c-8 0 -11 3 -13 10l-59 235h-77c-4 0 -6 -2 -7 -6l-41 -229c-1 -6 -5 -10 -11 -10h-150c-5 0 -9 4 -8 10l117 660c1 6 5 10 10 10h267c133 0 204 -72 204 -175c0 -112 -59 -193 -148 -233l73 -260c1 -6 -2 -12 -8 -12zM350 385c52 1 94 34 94 94
c0 36 -25 57 -67 57h-90c-4 0 -6 -2 -7 -6l-25 -139c-1 -4 1 -6 5 -6h90zM397 747h-109c-6 0 -8 5 -4 10l119 122c6 6 13 10 22 10h135c6 0 9 -5 4 -10l-145 -122c-8 -7 -13 -10 -22 -10z" />
    <glyph glyph-name="Rcaron" unicode="&#x158;" horiz-adv-x="605" 
d="M402 736h-86c-9 0 -14 3 -18 10l-80 136c-3 5 0 10 6 10h87c10 0 14 -2 20 -10l38 -51h2l57 51c8 8 14 10 24 10h95c6 0 8 -5 4 -10l-129 -136c-6 -7 -12 -10 -20 -10zM534 0h-149c-8 0 -11 3 -13 10l-59 235h-77c-4 0 -6 -2 -7 -6l-41 -229c-1 -6 -5 -10 -11 -10h-150
c-5 0 -9 4 -8 10l117 660c1 6 5 10 10 10h267c133 0 204 -72 204 -175c0 -112 -59 -193 -148 -233l73 -260c1 -6 -2 -12 -8 -12zM350 385c52 1 94 34 94 94c0 36 -25 57 -67 57h-90c-4 0 -6 -2 -7 -6l-25 -139c-1 -4 1 -6 5 -6h90z" />
    <glyph glyph-name="Rcommaaccent" unicode="&#x156;" horiz-adv-x="605" 
d="M180 -244c-7 0 -10 4 -9 11l31 177c1 6 5 10 11 10h115c6 0 10 -4 9 -10l-15 -87c-2 -11 -5 -16 -13 -21l-112 -73c-8 -5 -12 -7 -17 -7zM534 0h-149c-8 0 -11 3 -13 10l-59 235h-77c-4 0 -6 -2 -7 -6l-41 -229c-1 -6 -5 -10 -11 -10h-150c-5 0 -9 4 -8 10l117 660
c1 6 5 10 10 10h267c133 0 204 -72 204 -175c0 -112 -59 -193 -148 -233l73 -260c1 -6 -2 -12 -8 -12zM350 385c52 1 94 34 94 94c0 36 -25 57 -67 57h-90c-4 0 -6 -2 -7 -6l-25 -139c-1 -4 1 -6 5 -6h90z" />
    <glyph glyph-name="Sacute" unicode="&#x15a;" horiz-adv-x="584" 
d="M253 -12c-106 0 -212 46 -254 97c-3 4 -4 12 2 17l102 98c5 5 12 5 15 1c32 -35 89 -65 154 -65c66 0 107 34 107 78c0 26 -16 43 -72 52l-34 5c-121 17 -187 76 -187 173c0 148 112 248 280 248c91 0 173 -31 225 -76c5 -4 5 -9 -1 -15l-88 -101c-5 -5 -11 -6 -15 -3
c-40 31 -84 48 -136 48c-51 0 -88 -31 -88 -70c0 -26 17 -44 74 -52l33 -5c121 -18 187 -74 187 -171c0 -162 -123 -259 -304 -259zM407 747h-109c-6 0 -8 5 -4 10l119 122c6 6 13 10 22 10h135c6 0 9 -5 4 -10l-145 -122c-8 -7 -13 -10 -22 -10z" />
    <glyph glyph-name="Scircumflex" unicode="&#x15c;" horiz-adv-x="584" 
d="M253 -12c-106 0 -212 46 -254 97c-3 4 -4 12 2 17l102 98c5 5 12 5 15 1c32 -35 89 -65 154 -65c66 0 107 34 107 78c0 26 -16 43 -72 52l-34 5c-121 17 -187 76 -187 173c0 148 112 248 280 248c91 0 173 -31 225 -76c5 -4 5 -9 -1 -15l-88 -101c-5 -5 -11 -6 -15 -3
c-40 31 -84 48 -136 48c-51 0 -88 -31 -88 -70c0 -26 17 -44 74 -52l33 -5c121 -18 187 -74 187 -171c0 -162 -123 -259 -304 -259zM531 742h-87c-9 0 -13 2 -19 10l-39 51h-1l-58 -51c-8 -8 -13 -10 -24 -10h-95c-6 0 -8 5 -3 10l128 136c6 7 12 10 20 10h87
c9 0 13 -3 17 -10l80 -136c3 -5 0 -10 -6 -10z" />
    <glyph glyph-name="Scaron" unicode="&#x160;" horiz-adv-x="584" 
d="M253 -12c-106 0 -212 46 -254 97c-3 4 -4 12 2 17l102 98c5 5 12 5 15 1c32 -35 89 -65 154 -65c66 0 107 34 107 78c0 26 -16 43 -72 52l-34 5c-121 17 -187 76 -187 173c0 148 112 248 280 248c91 0 173 -31 225 -76c5 -4 5 -9 -1 -15l-88 -101c-5 -5 -11 -6 -15 -3
c-40 31 -84 48 -136 48c-51 0 -88 -31 -88 -70c0 -26 17 -44 74 -52l33 -5c121 -18 187 -74 187 -171c0 -162 -123 -259 -304 -259zM409 736h-86c-9 0 -14 3 -18 10l-80 136c-3 5 0 10 6 10h87c10 0 14 -2 20 -10l38 -51h2l57 51c8 8 14 10 24 10h95c6 0 8 -5 4 -10
l-129 -136c-6 -7 -12 -10 -20 -10z" />
    <glyph glyph-name="Scedilla" unicode="&#x15e;" horiz-adv-x="584" 
d="M235 -165h-111c-6 0 -8 4 -5 10l83 147c-88 11 -168 50 -203 93c-3 4 -4 12 2 17l102 98c5 5 12 5 15 1c32 -35 89 -65 154 -65c66 0 107 34 107 78c0 26 -16 43 -72 52l-34 5c-121 17 -187 76 -187 173c0 148 112 248 280 248c91 0 173 -31 225 -76c5 -4 5 -9 -1 -15
l-88 -101c-5 -5 -11 -6 -15 -3c-40 31 -84 48 -136 48c-51 0 -88 -31 -88 -70c0 -26 17 -44 74 -52l33 -5c121 -18 187 -74 187 -171c0 -141 -93 -232 -235 -254l-70 -148c-3 -7 -9 -10 -17 -10z" />
    <glyph glyph-name="Scommaaccent" unicode="&#x218;" horiz-adv-x="584" 
d="M166 -244c-7 0 -10 4 -9 11l31 177c1 6 5 10 11 10h115c6 0 10 -4 9 -10l-15 -87c-2 -11 -5 -16 -13 -21l-112 -73c-8 -5 -12 -7 -17 -7zM253 -12c-106 0 -212 46 -254 97c-3 4 -4 12 2 17l102 98c5 5 12 5 15 1c32 -35 89 -65 154 -65c66 0 107 34 107 78
c0 26 -16 43 -72 52l-34 5c-121 17 -187 76 -187 173c0 148 112 248 280 248c91 0 173 -31 225 -76c5 -4 5 -9 -1 -15l-88 -101c-5 -5 -11 -6 -15 -3c-40 31 -84 48 -136 48c-51 0 -88 -31 -88 -70c0 -26 17 -44 74 -52l33 -5c121 -18 187 -74 187 -171
c0 -162 -123 -259 -304 -259z" />
    <glyph glyph-name="Tcaron" unicode="&#x164;" horiz-adv-x="549" 
d="M398 736h-86c-9 0 -14 3 -18 10l-80 136c-3 5 0 10 6 10h87c10 0 14 -2 20 -10l38 -51h2l57 51c8 8 14 10 24 10h95c6 0 8 -5 4 -10l-129 -136c-6 -7 -12 -10 -20 -10zM313 0h-150c-5 0 -9 4 -8 10l91 513c1 4 -1 6 -5 6h-161c-6 0 -10 4 -9 10l24 131c1 6 5 10 11 10
h504c6 0 10 -4 9 -10l-23 -131c-1 -6 -6 -10 -12 -10h-162c-4 0 -6 -2 -7 -6l-91 -513c-1 -6 -5 -10 -11 -10z" />
    <glyph glyph-name="uni0162" unicode="&#x162;" horiz-adv-x="549" 
d="M143 -244c-7 0 -10 4 -9 11l31 177c1 6 5 10 11 10h115c6 0 10 -4 9 -10l-15 -87c-2 -11 -5 -16 -13 -21l-112 -73c-8 -5 -12 -7 -17 -7zM313 0h-150c-5 0 -9 4 -8 10l91 513c1 4 -1 6 -5 6h-161c-6 0 -10 4 -9 10l24 131c1 6 5 10 11 10h504c6 0 10 -4 9 -10l-23 -131
c-1 -6 -6 -10 -12 -10h-162c-4 0 -6 -2 -7 -6l-91 -513c-1 -6 -5 -10 -11 -10z" />
    <glyph glyph-name="uni021A" unicode="&#x21a;" horiz-adv-x="549" 
d="M143 -244c-7 0 -10 4 -9 11l31 177c1 6 5 10 11 10h115c6 0 10 -4 9 -10l-15 -87c-2 -11 -5 -16 -13 -21l-112 -73c-8 -5 -12 -7 -17 -7zM313 0h-150c-5 0 -9 4 -8 10l91 513c1 4 -1 6 -5 6h-161c-6 0 -10 4 -9 10l24 131c1 6 5 10 11 10h504c6 0 10 -4 9 -10l-23 -131
c-1 -6 -6 -10 -12 -10h-162c-4 0 -6 -2 -7 -6l-91 -513c-1 -6 -5 -10 -11 -10z" />
    <glyph glyph-name="Tbar" unicode="&#x166;" horiz-adv-x="549" 
d="M313 0h-150c-5 0 -9 4 -8 10l50 280c1 4 -1 6 -5 6h-74c-6 0 -9 4 -8 10l17 98c1 6 6 10 12 10h74c4 0 6 2 7 6l18 103c1 4 -1 6 -5 6h-161c-6 0 -10 4 -9 10l24 131c1 6 5 10 11 10h504c6 0 10 -4 9 -10l-23 -131c-1 -6 -6 -10 -12 -10h-162c-4 0 -6 -2 -7 -6l-18 -103
c-1 -4 1 -6 5 -6h74c6 0 9 -4 8 -10l-17 -98c-1 -6 -6 -10 -11 -10h-75c-4 0 -6 -2 -7 -6l-50 -280c-1 -6 -5 -10 -11 -10z" />
    <glyph glyph-name="Thorn" unicode="&#xde;" horiz-adv-x="586" 
d="M178 0h-151c-5 0 -9 4 -8 10l117 660c1 6 5 10 11 10h150c6 0 9 -4 8 -10l-16 -89c-1 -4 1 -6 4 -6h97c141 0 209 -70 209 -178c0 -173 -121 -272 -287 -272h-97c-3 0 -6 -2 -7 -6l-20 -109c-1 -6 -5 -10 -10 -10zM327 270c58 0 99 37 99 99c0 38 -24 62 -70 62h-87
c-4 0 -6 -2 -7 -6l-26 -149c-1 -4 1 -6 4 -6h87z" />
    <glyph glyph-name="Ugrave" unicode="&#xd9;" horiz-adv-x="622" 
d="M453 747h-106c-8 0 -12 3 -18 10l-101 122c-4 5 -1 10 5 10h129c9 0 14 -3 19 -10l78 -122c3 -5 0 -10 -6 -10zM287 -12c-167 0 -259 95 -227 276l72 406c1 6 5 10 11 10h150c6 0 10 -4 9 -10l-74 -419c-13 -71 16 -112 73 -112s94 30 109 112l74 419c1 6 5 10 11 10h151
c5 0 9 -4 8 -10l-73 -412c-35 -198 -134 -270 -294 -270z" />
    <glyph glyph-name="Uacute" unicode="&#xda;" horiz-adv-x="622" 
d="M454 747h-109c-6 0 -8 5 -4 10l119 122c6 6 13 10 22 10h135c6 0 9 -5 4 -10l-145 -122c-8 -7 -13 -10 -22 -10zM287 -12c-167 0 -259 95 -227 276l72 406c1 6 5 10 11 10h150c6 0 10 -4 9 -10l-74 -419c-13 -71 16 -112 73 -112s94 30 109 112l74 419c1 6 5 10 11 10
h151c5 0 9 -4 8 -10l-73 -412c-35 -198 -134 -270 -294 -270z" />
    <glyph glyph-name="Ucircumflex" unicode="&#xdb;" horiz-adv-x="622" 
d="M287 -12c-167 0 -259 95 -227 276l72 406c1 6 5 10 11 10h150c6 0 10 -4 9 -10l-74 -419c-13 -71 16 -112 73 -112s94 30 109 112l74 419c1 6 5 10 11 10h151c5 0 9 -4 8 -10l-73 -412c-35 -198 -134 -270 -294 -270zM569 742h-87c-9 0 -13 2 -19 10l-39 51h-1l-58 -51
c-8 -8 -13 -10 -24 -10h-95c-6 0 -8 5 -3 10l128 136c6 7 12 10 20 10h87c9 0 13 -3 17 -10l80 -136c3 -5 0 -10 -6 -10z" />
    <glyph glyph-name="Utilde" unicode="&#x168;" horiz-adv-x="622" 
d="M472 742c-35 0 -55 10 -78 24c-19 11 -34 17 -54 17c-28 0 -51 -11 -78 -32c-6 -4 -11 -1 -10 4l14 78c2 11 5 15 13 22c26 22 53 36 84 36c34 0 55 -11 78 -24c19 -12 34 -17 54 -17c28 0 51 11 78 32c6 4 11 1 10 -4l-14 -79c-2 -10 -6 -15 -13 -21
c-26 -23 -53 -36 -84 -36zM287 -12c-167 0 -259 95 -227 276l72 406c1 6 5 10 11 10h150c6 0 10 -4 9 -10l-74 -419c-13 -71 16 -112 73 -112s94 30 109 112l74 419c1 6 5 10 11 10h151c5 0 9 -4 8 -10l-73 -412c-35 -198 -134 -270 -294 -270z" />
    <glyph glyph-name="Udieresis" unicode="&#xdc;" horiz-adv-x="622" 
d="M560 752h-105c-6 0 -9 4 -8 10l19 107c1 6 6 10 12 10h104c6 0 9 -4 8 -10l-19 -107c-1 -6 -5 -10 -11 -10zM362 752h-105c-6 0 -10 4 -9 10l20 107c1 6 6 10 12 10h104c6 0 9 -4 8 -10l-19 -107c-1 -6 -5 -10 -11 -10zM287 -12c-167 0 -259 95 -227 276l72 406
c1 6 5 10 11 10h150c6 0 10 -4 9 -10l-74 -419c-13 -71 16 -112 73 -112s94 30 109 112l74 419c1 6 5 10 11 10h151c5 0 9 -4 8 -10l-73 -412c-35 -198 -134 -270 -294 -270z" />
    <glyph glyph-name="Umacron" unicode="&#x16a;" horiz-adv-x="622" 
d="M558 763h-291c-6 0 -9 4 -8 10l15 87c1 6 5 10 11 10h291c6 0 9 -4 8 -10l-15 -87c-1 -6 -5 -10 -11 -10zM287 -12c-167 0 -259 95 -227 276l72 406c1 6 5 10 11 10h150c6 0 10 -4 9 -10l-74 -419c-13 -71 16 -112 73 -112s94 30 109 112l74 419c1 6 5 10 11 10h151
c5 0 9 -4 8 -10l-73 -412c-35 -198 -134 -270 -294 -270z" />
    <glyph glyph-name="Ubreve" unicode="&#x16c;" horiz-adv-x="622" 
d="M404 735c-89 0 -143 59 -132 138c1 7 5 12 13 12h62c8 0 12 -3 14 -11c5 -27 24 -41 58 -41c35 0 60 14 75 41c4 8 9 11 17 11h62c7 0 11 -5 10 -11c-15 -78 -93 -139 -179 -139zM287 -12c-167 0 -259 95 -227 276l72 406c1 6 5 10 11 10h150c6 0 10 -4 9 -10l-74 -419
c-13 -71 16 -112 73 -112s94 30 109 112l74 419c1 6 5 10 11 10h151c5 0 9 -4 8 -10l-73 -412c-35 -198 -134 -270 -294 -270z" />
    <glyph glyph-name="Uring" unicode="&#x16e;" horiz-adv-x="622" 
d="M287 -12c-167 0 -259 95 -227 276l72 406c1 6 5 10 11 10h150c6 0 10 -4 9 -10l-74 -419c-13 -71 16 -112 73 -112s94 30 109 112l74 419c1 6 5 10 11 10h151c5 0 9 -4 8 -10l-73 -412c-35 -198 -134 -270 -294 -270zM399 706c-56 0 -95 37 -95 90c0 73 53 134 132 134
c56 0 95 -37 95 -90c0 -73 -53 -134 -132 -134zM409 772c28 0 51 24 51 57c0 20 -13 35 -34 35c-28 0 -51 -24 -51 -56c0 -21 13 -36 34 -36z" />
    <glyph glyph-name="Uhungarumlaut" unicode="&#x170;" horiz-adv-x="622" 
d="M287 -12c-167 0 -259 95 -227 276l72 406c1 6 5 10 11 10h150c6 0 10 -4 9 -10l-74 -419c-13 -71 16 -112 73 -112s94 30 109 112l74 419c1 6 5 10 11 10h151c5 0 9 -4 8 -10l-73 -412c-35 -198 -134 -270 -294 -270zM530 748h-91c-6 0 -9 5 -5 10l94 118
c4 7 10 10 18 10h108c6 0 9 -5 5 -10l-108 -118c-6 -7 -12 -10 -21 -10zM352 748h-92c-6 0 -8 5 -4 10l94 118c4 7 10 10 18 10h108c6 0 9 -5 5 -10l-108 -118c-6 -7 -12 -10 -21 -10z" />
    <glyph glyph-name="Uogonek" unicode="&#x172;" horiz-adv-x="623" 
d="M250 -190c-57 0 -92 31 -92 78c0 39 23 78 59 107c-121 24 -184 116 -156 269l72 406c1 6 5 10 10 10h150c6 0 10 -4 9 -10l-74 -419c-12 -71 17 -112 74 -112s94 30 109 112l74 419c1 6 5 10 11 10h150c6 0 10 -4 9 -10l-73 -412c-31 -173 -111 -249 -237 -265
c-51 -31 -64 -48 -64 -64c0 -8 5 -13 14 -13c7 0 15 3 24 8c6 3 11 2 13 -3l25 -68c2 -5 1 -10 -6 -13c-36 -22 -70 -30 -101 -30z" />
    <glyph glyph-name="Wcircumflex" unicode="&#x174;" horiz-adv-x="870" 
d="M637 0h-121c-7 0 -10 3 -11 10l-36 389h-2l-173 -389c-3 -7 -7 -10 -14 -10h-121c-7 0 -11 3 -12 10l-62 660c0 6 2 10 8 10h153c8 0 12 -4 12 -10l13 -407h2l174 407c3 7 7 10 14 10h100c7 0 11 -3 12 -10l34 -407h2l155 407c2 6 6 10 13 10h164c6 0 9 -4 6 -10
l-297 -660c-3 -7 -7 -10 -13 -10zM689 742h-87c-9 0 -13 2 -19 10l-39 51h-1l-58 -51c-8 -8 -13 -10 -24 -10h-95c-6 0 -8 5 -3 10l128 136c6 7 12 10 20 10h87c9 0 13 -3 17 -10l80 -136c3 -5 0 -10 -6 -10z" />
    <glyph glyph-name="Wacute" unicode="&#x1e82;" horiz-adv-x="870" 
d="M578 747h-109c-6 0 -8 5 -4 10l119 122c6 6 13 10 22 10h135c6 0 9 -5 4 -10l-145 -122c-8 -7 -13 -10 -22 -10zM637 0h-121c-7 0 -10 3 -11 10l-36 389h-2l-173 -389c-3 -7 -7 -10 -14 -10h-121c-7 0 -11 3 -12 10l-62 660c0 6 2 10 8 10h153c8 0 12 -4 12 -10l13 -407
h2l174 407c3 7 7 10 14 10h100c7 0 11 -3 12 -10l34 -407h2l155 407c2 6 6 10 13 10h164c6 0 9 -4 6 -10l-297 -660c-3 -7 -7 -10 -13 -10z" />
    <glyph glyph-name="Wdieresis" unicode="&#x1e84;" horiz-adv-x="870" 
d="M685 752h-105c-6 0 -9 4 -8 10l19 107c1 6 6 10 12 10h104c6 0 9 -4 8 -10l-19 -107c-1 -6 -5 -10 -11 -10zM487 752h-105c-6 0 -10 4 -9 10l20 107c1 6 6 10 12 10h104c6 0 9 -4 8 -10l-19 -107c-1 -6 -5 -10 -11 -10zM637 0h-121c-7 0 -10 3 -11 10l-36 389h-2
l-173 -389c-3 -7 -7 -10 -14 -10h-121c-7 0 -11 3 -12 10l-62 660c0 6 2 10 8 10h153c8 0 12 -4 12 -10l13 -407h2l174 407c3 7 7 10 14 10h100c7 0 11 -3 12 -10l34 -407h2l155 407c2 6 6 10 13 10h164c6 0 9 -4 6 -10l-297 -660c-3 -7 -7 -10 -13 -10z" />
    <glyph glyph-name="Wgrave" unicode="&#x1e80;" horiz-adv-x="870" 
d="M567 747h-106c-8 0 -12 3 -18 10l-101 122c-4 5 -1 10 5 10h129c9 0 14 -3 19 -10l78 -122c3 -5 0 -10 -6 -10zM637 0h-121c-7 0 -10 3 -11 10l-36 389h-2l-173 -389c-3 -7 -7 -10 -14 -10h-121c-7 0 -11 3 -12 10l-62 660c0 6 2 10 8 10h153c8 0 12 -4 12 -10l13 -407h2
l174 407c3 7 7 10 14 10h100c7 0 11 -3 12 -10l34 -407h2l155 407c2 6 6 10 13 10h164c6 0 9 -4 6 -10l-297 -660c-3 -7 -7 -10 -13 -10z" />
    <glyph glyph-name="Yacute" unicode="&#xdd;" horiz-adv-x="574" 
d="M326 0h-150c-6 0 -10 4 -9 10l45 254l-128 405c-2 6 2 11 9 11h143c7 0 12 -3 14 -10l69 -239h3l153 239c4 7 9 10 16 10h156c7 0 10 -5 6 -11l-271 -405l-45 -254c-1 -6 -5 -10 -11 -10zM422 747h-109c-6 0 -8 5 -4 10l119 122c6 6 13 10 22 10h135c6 0 9 -5 4 -10
l-145 -122c-8 -7 -13 -10 -22 -10z" />
    <glyph glyph-name="Ycircumflex" unicode="&#x176;" horiz-adv-x="574" 
d="M326 0h-150c-6 0 -10 4 -9 10l45 254l-128 405c-2 6 2 11 9 11h143c7 0 12 -3 14 -10l69 -239h3l153 239c4 7 9 10 16 10h156c7 0 10 -5 6 -11l-271 -405l-45 -254c-1 -6 -5 -10 -11 -10zM539 742h-87c-9 0 -13 2 -19 10l-39 51h-1l-58 -51c-8 -8 -13 -10 -24 -10h-95
c-6 0 -8 5 -3 10l128 136c6 7 12 10 20 10h87c9 0 13 -3 17 -10l80 -136c3 -5 0 -10 -6 -10z" />
    <glyph glyph-name="Ydieresis" unicode="&#x178;" horiz-adv-x="574" 
d="M326 0h-150c-6 0 -10 4 -9 10l45 254l-128 405c-2 6 2 11 9 11h143c7 0 12 -3 14 -10l69 -239h3l153 239c4 7 9 10 16 10h156c7 0 10 -5 6 -11l-271 -405l-45 -254c-1 -6 -5 -10 -11 -10zM531 752h-105c-6 0 -9 4 -8 10l19 107c1 6 6 10 12 10h104c6 0 9 -4 8 -10
l-19 -107c-1 -6 -5 -10 -11 -10zM333 752h-105c-6 0 -10 4 -9 10l20 107c1 6 6 10 12 10h104c6 0 9 -4 8 -10l-19 -107c-1 -6 -5 -10 -11 -10z" />
    <glyph glyph-name="Ygrave" unicode="&#x1ef2;" horiz-adv-x="574" 
d="M326 0h-150c-6 0 -10 4 -9 10l45 254l-128 405c-2 6 2 11 9 11h143c7 0 12 -3 14 -10l69 -239h3l153 239c4 7 9 10 16 10h156c7 0 10 -5 6 -11l-271 -405l-45 -254c-1 -6 -5 -10 -11 -10zM421 747h-106c-8 0 -12 3 -18 10l-101 122c-4 5 -1 10 5 10h129c9 0 14 -3 19 -10
l78 -122c3 -5 0 -10 -6 -10z" />
    <glyph glyph-name="Zacute" unicode="&#x179;" horiz-adv-x="554" 
d="M469 0h-456c-6 0 -10 4 -9 10l23 129c1 4 3 7 6 11l337 376v3h-254c-5 0 -9 4 -8 10l24 131c1 6 5 10 10 10h446c6 0 10 -4 9 -10l-22 -127c-1 -4 -3 -8 -6 -11l-340 -378v-3h267c6 0 9 -4 8 -10l-24 -131c-1 -6 -5 -10 -11 -10zM397 747h-109c-6 0 -8 5 -4 10l119 122
c6 6 13 10 22 10h135c6 0 9 -5 4 -10l-145 -122c-8 -7 -13 -10 -22 -10z" />
    <glyph glyph-name="Zcaron" unicode="&#x17d;" horiz-adv-x="554" 
d="M405 736h-86c-9 0 -14 3 -18 10l-80 136c-3 5 0 10 6 10h87c10 0 14 -2 20 -10l38 -51h2l57 51c8 8 14 10 24 10h95c6 0 8 -5 4 -10l-129 -136c-6 -7 -12 -10 -20 -10zM469 0h-456c-6 0 -10 4 -9 10l23 129c1 4 3 7 6 11l337 376v3h-254c-5 0 -9 4 -8 10l24 131
c1 6 5 10 10 10h446c6 0 10 -4 9 -10l-22 -127c-1 -4 -3 -8 -6 -11l-340 -378v-3h267c6 0 9 -4 8 -10l-24 -131c-1 -6 -5 -10 -11 -10z" />
    <glyph glyph-name="Zdotaccent" unicode="&#x17b;" horiz-adv-x="554" 
d="M431 752h-133c-6 0 -9 4 -8 10l19 107c1 6 5 10 11 10h133c6 0 9 -4 8 -10l-19 -107c-1 -6 -5 -10 -11 -10zM469 0h-456c-6 0 -10 4 -9 10l23 129c1 4 3 7 6 11l337 376v3h-254c-5 0 -9 4 -8 10l24 131c1 6 5 10 10 10h446c6 0 10 -4 9 -10l-22 -127c-1 -4 -3 -8 -6 -11
l-340 -378v-3h267c6 0 9 -4 8 -10l-24 -131c-1 -6 -5 -10 -11 -10z" />
    <glyph glyph-name="agrave" unicode="&#xe0;" horiz-adv-x="515" 
d="M420 0h-134c-6 0 -10 4 -9 10l5 30h-1c-29 -31 -73 -52 -135 -52c-71 0 -129 45 -129 122c0 121 84 186 230 186h75c4 0 7 2 8 6l3 17c7 37 -6 53 -82 53c-43 0 -83 -12 -107 -28c-6 -3 -10 -2 -12 4l-35 88c-2 6 0 11 6 15c47 30 119 48 193 48c147 0 215 -45 190 -181
l-55 -308c-1 -6 -5 -10 -11 -10zM221 104c49 0 77 18 83 55l5 32c1 4 -1 6 -5 6h-57c-51 0 -75 -20 -75 -57c0 -22 16 -36 49 -36zM376 546h-100c-8 0 -13 3 -18 10l-74 136c-3 5 1 10 7 10h125c8 0 13 -3 15 -10l53 -136c2 -6 -2 -10 -8 -10z" />
    <glyph glyph-name="aacute" unicode="&#xe1;" horiz-adv-x="515" 
d="M420 0h-134c-6 0 -10 4 -9 10l5 30h-1c-29 -31 -73 -52 -135 -52c-71 0 -129 45 -129 122c0 121 84 186 230 186h75c4 0 7 2 8 6l3 17c7 37 -6 53 -82 53c-43 0 -83 -12 -107 -28c-6 -3 -10 -2 -12 4l-35 88c-2 6 0 11 6 15c47 30 119 48 193 48c147 0 215 -45 190 -181
l-55 -308c-1 -6 -5 -10 -11 -10zM221 104c49 0 77 18 83 55l5 32c1 4 -1 6 -5 6h-57c-51 0 -75 -20 -75 -57c0 -22 16 -36 49 -36zM350 546h-110c-6 0 -8 5 -4 10l101 136c5 7 11 10 19 10h134c6 0 8 -5 3 -10l-123 -136c-7 -7 -12 -10 -20 -10z" />
    <glyph glyph-name="acircumflex" unicode="&#xe2;" horiz-adv-x="515" 
d="M420 0h-134c-6 0 -10 4 -9 10l5 30h-1c-29 -31 -73 -52 -135 -52c-71 0 -129 45 -129 122c0 121 84 186 230 186h75c4 0 7 2 8 6l3 17c7 37 -6 53 -82 53c-43 0 -83 -12 -107 -28c-6 -3 -10 -2 -12 4l-35 88c-2 6 0 11 6 15c47 30 119 48 193 48c147 0 215 -45 190 -181
l-55 -308c-1 -6 -5 -10 -11 -10zM221 104c49 0 77 18 83 55l5 32c1 4 -1 6 -5 6h-57c-51 0 -75 -20 -75 -57c0 -22 16 -36 49 -36zM479 545h-87c-10 0 -14 2 -20 10l-38 52h-2l-57 -52c-8 -7 -14 -10 -24 -10h-95c-6 0 -8 5 -4 10l129 137c6 7 12 9 20 9h87c8 0 13 -2 17 -9
l80 -137c3 -5 0 -10 -6 -10z" />
    <glyph glyph-name="atilde" unicode="&#xe3;" horiz-adv-x="515" 
d="M420 0h-134c-6 0 -10 4 -9 10l5 30h-1c-29 -31 -73 -52 -135 -52c-71 0 -129 45 -129 122c0 121 84 186 230 186h75c4 0 7 2 8 6l3 17c7 37 -6 53 -82 53c-43 0 -83 -12 -107 -28c-6 -3 -10 -2 -12 4l-35 88c-2 6 0 11 6 15c47 30 119 48 193 48c147 0 215 -45 190 -181
l-55 -308c-1 -6 -5 -10 -11 -10zM221 104c49 0 77 18 83 55l5 32c1 4 -1 6 -5 6h-57c-51 0 -75 -20 -75 -57c0 -22 16 -36 49 -36zM380 548c-35 0 -55 10 -78 23c-19 12 -34 18 -54 18c-28 0 -51 -12 -78 -33c-6 -4 -11 -1 -10 5l14 78c2 10 5 15 13 21c26 23 53 36 84 36
c34 0 55 -10 78 -23c19 -12 34 -18 54 -18c28 0 51 12 78 33c6 4 11 1 10 -5l-14 -78c-2 -10 -6 -15 -13 -22c-26 -22 -53 -35 -84 -35z" />
    <glyph glyph-name="adieresis" unicode="&#xe4;" horiz-adv-x="515" 
d="M420 0h-134c-6 0 -10 4 -9 10l5 30h-1c-29 -31 -73 -52 -135 -52c-71 0 -129 45 -129 122c0 121 84 186 230 186h75c4 0 7 2 8 6l3 17c7 37 -6 53 -82 53c-43 0 -83 -12 -107 -28c-6 -3 -10 -2 -12 4l-35 88c-2 6 0 11 6 15c47 30 119 48 193 48c147 0 215 -45 190 -181
l-55 -308c-1 -6 -5 -10 -11 -10zM221 104c49 0 77 18 83 55l5 32c1 4 -1 6 -5 6h-57c-51 0 -75 -20 -75 -57c0 -22 16 -36 49 -36zM464 556h-105c-6 0 -10 4 -9 10l20 106c1 6 6 10 12 10h104c6 0 9 -4 8 -10l-19 -106c-1 -6 -5 -10 -11 -10zM265 556h-104c-6 0 -10 4 -9 10
l20 106c1 6 5 10 11 10h105c6 0 9 -4 8 -10l-20 -106c-1 -6 -5 -10 -11 -10z" />
    <glyph glyph-name="amacron" unicode="&#x101;" horiz-adv-x="515" 
d="M420 0h-134c-6 0 -10 4 -9 10l5 30h-1c-29 -31 -73 -52 -135 -52c-71 0 -129 45 -129 122c0 121 84 186 230 186h75c4 0 7 2 8 6l3 17c7 37 -6 53 -82 53c-43 0 -83 -12 -107 -28c-6 -3 -10 -2 -12 4l-35 88c-2 6 0 11 6 15c47 30 119 48 193 48c147 0 215 -45 190 -181
l-55 -308c-1 -6 -5 -10 -11 -10zM221 104c49 0 77 18 83 55l5 32c1 4 -1 6 -5 6h-57c-51 0 -75 -20 -75 -57c0 -22 16 -36 49 -36zM459 566h-291c-6 0 -9 4 -8 10l15 87c1 6 5 10 11 10h291c6 0 9 -4 8 -10l-15 -87c-1 -6 -5 -10 -11 -10z" />
    <glyph glyph-name="abreve" unicode="&#x103;" horiz-adv-x="515" 
d="M420 0h-134c-6 0 -10 4 -9 10l5 30h-1c-29 -31 -73 -52 -135 -52c-71 0 -129 45 -129 122c0 121 84 186 230 186h75c4 0 7 2 8 6l3 17c7 37 -6 53 -82 53c-43 0 -83 -12 -107 -28c-6 -3 -10 -2 -12 4l-35 88c-2 6 0 11 6 15c47 30 119 48 193 48c147 0 215 -45 190 -181
l-55 -308c-1 -6 -5 -10 -11 -10zM221 104c49 0 77 18 83 55l5 32c1 4 -1 6 -5 6h-57c-51 0 -75 -20 -75 -57c0 -22 16 -36 49 -36zM309 540c-89 0 -143 59 -132 138c1 7 5 12 13 12h62c8 0 12 -3 14 -11c5 -27 24 -41 58 -41c35 0 60 14 75 41c4 8 9 11 17 11h62
c7 0 11 -5 10 -11c-15 -78 -93 -139 -179 -139z" />
    <glyph glyph-name="aring" unicode="&#xe5;" horiz-adv-x="515" 
d="M420 0h-134c-6 0 -10 4 -9 10l5 30h-1c-29 -31 -73 -52 -135 -52c-71 0 -129 45 -129 122c0 121 84 186 230 186h75c4 0 7 2 8 6l3 17c7 37 -6 53 -82 53c-43 0 -83 -12 -107 -28c-6 -3 -10 -2 -12 4l-35 88c-2 6 0 11 6 15c47 30 119 48 193 48c147 0 215 -45 190 -181
l-55 -308c-1 -6 -5 -10 -11 -10zM221 104c49 0 77 18 83 55l5 32c1 4 -1 6 -5 6h-57c-51 0 -75 -20 -75 -57c0 -22 16 -36 49 -36zM312 520c-56 0 -95 37 -95 90c0 73 53 134 132 134c56 0 94 -37 94 -90c0 -73 -52 -134 -131 -134zM322 586c28 0 51 24 51 56
c0 21 -13 36 -35 36c-28 0 -51 -24 -51 -56c0 -21 14 -36 35 -36z" />
    <glyph glyph-name="aogonek" unicode="&#x105;" horiz-adv-x="515" 
d="M292 -190c-58 0 -92 31 -92 78c0 46 29 83 84 115h-2c-3 0 -5 2 -5 6l5 31h-1c-29 -31 -73 -52 -135 -52c-71 0 -129 45 -129 122c0 121 84 186 230 186h75c4 0 7 2 8 6l3 17c7 37 -6 53 -82 53c-43 0 -83 -12 -107 -28c-6 -3 -10 -2 -12 4l-35 88c-2 6 0 11 6 15
c47 30 119 48 193 48c147 0 215 -45 190 -181l-55 -307c-1 -6 -5 -9 -10 -11c-83 -35 -98 -54 -98 -71c0 -8 5 -13 14 -13c7 0 15 3 24 8c6 3 11 2 13 -3l25 -68c2 -5 0 -10 -6 -13c-36 -22 -70 -30 -101 -30zM221 104c49 0 77 18 83 55l5 32c1 4 -1 6 -5 6h-57
c-51 0 -75 -20 -75 -57c0 -22 16 -36 49 -36z" />
    <glyph glyph-name="ae" unicode="&#xe6;" horiz-adv-x="792" 
d="M506 -12c-76 0 -127 33 -149 70h-1c-42 -45 -96 -70 -186 -70c-96 0 -153 44 -153 128c0 115 85 180 230 180h75c4 0 7 2 8 6l3 17c7 37 -6 53 -82 53c-43 0 -83 -12 -107 -28c-6 -3 -10 -2 -12 4l-35 88c-2 6 0 11 6 15c47 30 119 48 193 48c67 0 120 -19 149 -46h2
c33 27 85 46 137 46c110 0 190 -61 190 -173c0 -27 -3 -61 -13 -119c-1 -6 -6 -10 -12 -10h-281c-4 0 -6 -2 -7 -6s-1 -8 -1 -12c0 -48 31 -67 83 -67c39 0 78 17 113 43c7 4 11 3 14 -1l55 -70c3 -5 3 -11 -2 -16c-55 -49 -122 -80 -217 -80zM486 296h128c4 0 7 2 8 6
c2 8 3 17 3 23c0 40 -22 58 -59 58c-34 0 -60 -17 -75 -46c-4 -10 -7 -22 -9 -35c-1 -4 0 -6 4 -6zM221 104c49 0 77 18 83 55l5 32c1 4 -1 6 -5 6h-57c-51 0 -75 -20 -75 -57c0 -22 16 -36 49 -36z" />
    <glyph glyph-name="cacute" unicode="&#x107;" horiz-adv-x="474" 
d="M343 546h-110c-6 0 -8 5 -4 10l101 136c5 7 11 10 19 10h134c6 0 8 -5 3 -10l-123 -136c-7 -7 -12 -10 -20 -10zM215 -12c-111 0 -186 66 -186 178c0 51 12 135 42 198c45 93 127 135 231 135c95 0 155 -49 173 -114c2 -6 0 -10 -6 -13l-114 -53c-6 -3 -13 -2 -15 4
c-12 30 -26 43 -54 43c-27 0 -50 -13 -65 -43c-16 -33 -30 -114 -30 -143c0 -39 17 -59 52 -59c26 0 47 13 71 46c5 6 10 6 15 4l102 -59c5 -3 4 -7 1 -13c-47 -72 -116 -111 -217 -111z" />
    <glyph glyph-name="ccircumflex" unicode="&#x109;" horiz-adv-x="474" 
d="M470 545h-87c-10 0 -14 2 -20 10l-38 52h-2l-57 -52c-8 -7 -14 -10 -24 -10h-95c-6 0 -8 5 -4 10l129 137c6 7 12 9 20 9h87c8 0 13 -2 17 -9l80 -137c3 -5 0 -10 -6 -10zM215 -12c-111 0 -186 66 -186 178c0 51 12 135 42 198c45 93 127 135 231 135
c95 0 155 -49 173 -114c2 -6 0 -10 -6 -13l-114 -53c-6 -3 -13 -2 -15 4c-12 30 -26 43 -54 43c-27 0 -50 -13 -65 -43c-16 -33 -30 -114 -30 -143c0 -39 17 -59 52 -59c26 0 47 13 71 46c5 6 10 6 15 4l102 -59c5 -3 4 -7 1 -13c-47 -72 -116 -111 -217 -111z" />
    <glyph glyph-name="ccaron" unicode="&#x10d;" horiz-adv-x="474" 
d="M343 542h-87c-8 0 -13 3 -17 10l-80 136c-3 5 0 10 6 10h87c9 0 14 -2 20 -10l38 -51h2l57 51c8 8 14 10 24 10h95c6 0 8 -5 4 -10l-129 -136c-6 -7 -12 -10 -20 -10zM215 -12c-111 0 -186 66 -186 178c0 51 12 135 42 198c45 93 127 135 231 135c95 0 155 -49 173 -114
c2 -6 0 -10 -6 -13l-114 -53c-6 -3 -13 -2 -15 4c-12 30 -26 43 -54 43c-27 0 -50 -13 -65 -43c-16 -33 -30 -114 -30 -143c0 -39 17 -59 52 -59c26 0 47 13 71 46c5 6 10 6 15 4l102 -59c5 -3 4 -7 1 -13c-47 -72 -116 -111 -217 -111z" />
    <glyph glyph-name="cdotaccent" unicode="&#x10b;" horiz-adv-x="474" 
d="M215 -12c-111 0 -186 66 -186 178c0 51 12 135 42 198c45 93 127 135 231 135c95 0 155 -49 173 -114c2 -6 0 -10 -6 -13l-114 -53c-6 -3 -13 -2 -15 4c-12 30 -26 43 -54 43c-27 0 -50 -13 -65 -43c-16 -33 -30 -114 -30 -143c0 -39 17 -59 52 -59c26 0 47 13 71 46
c5 6 10 6 15 4l102 -59c5 -3 4 -7 1 -13c-47 -72 -116 -111 -217 -111zM366 553h-134c-6 0 -9 4 -8 10l20 107c1 6 5 10 11 10h133c6 0 9 -4 8 -10l-19 -107c-1 -6 -5 -10 -11 -10z" />
    <glyph glyph-name="ccedilla" unicode="&#xe7;" horiz-adv-x="474" 
d="M186 -165h-111c-6 0 -8 4 -5 10l85 151c-77 19 -126 79 -126 170c0 51 12 135 42 198c45 93 127 135 231 135c95 0 155 -49 173 -114c2 -6 0 -10 -6 -13l-114 -53c-6 -3 -13 -2 -15 4c-12 30 -26 43 -54 43c-27 0 -50 -13 -65 -43c-16 -33 -30 -114 -30 -143
c0 -39 17 -59 52 -59c26 0 47 13 71 46c5 6 10 6 15 4l102 -59c5 -3 4 -7 1 -13c-38 -58 -89 -94 -160 -106l-69 -148c-3 -7 -9 -10 -17 -10z" />
    <glyph glyph-name="dcaron" unicode="&#x10f;" horiz-adv-x="538" 
d="M587 476c-8 0 -11 5 -10 12l32 182c1 6 5 10 11 10h105c6 0 10 -4 9 -10l-17 -92c-1 -9 -5 -16 -12 -21l-102 -74c-7 -5 -11 -7 -16 -7zM440 0h-142c-6 0 -9 4 -8 10l6 37h-1c-27 -35 -72 -59 -131 -59c-95 0 -137 60 -137 159c0 66 22 181 53 244c38 77 93 108 172 108
c61 0 98 -27 112 -60h1l41 231c1 6 5 10 10 10h143c6 0 10 -4 9 -10l-117 -660c-1 -6 -5 -10 -11 -10zM244 121c30 0 51 14 66 44c13 27 29 110 29 141c0 38 -15 60 -51 60c-30 0 -51 -14 -66 -44c-13 -27 -29 -110 -29 -141c0 -38 15 -60 51 -60z" />
    <glyph glyph-name="dcroat" unicode="&#x111;" horiz-adv-x="538" 
d="M544 537l-93 -527c-1 -6 -5 -10 -11 -10h-142c-6 0 -9 4 -8 10l6 37h-1c-27 -35 -72 -59 -131 -59c-95 0 -137 60 -137 159c0 66 22 181 53 244c38 77 93 108 172 108c61 0 98 -27 112 -60h1l17 98c1 4 -1 6 -5 6h-93c-5 0 -8 4 -7 10l14 76c1 6 5 10 11 10h92
c4 0 6 2 7 6l5 25c1 6 4 10 10 10h143c6 0 10 -4 9 -10l-5 -25c-1 -4 1 -6 5 -6h16c6 0 9 -4 8 -10l-14 -76c-1 -7 -5 -10 -11 -10h-16c-4 0 -6 -2 -7 -6zM244 121c30 0 51 14 66 44c13 27 29 110 29 141c0 38 -15 60 -51 60c-30 0 -51 -14 -66 -44
c-13 -27 -29 -110 -29 -141c0 -38 15 -60 51 -60z" />
    <glyph glyph-name="eth" unicode="&#xf0;" horiz-adv-x="519" 
d="M470 575l-61 -18l15 -27c53 -102 71 -174 71 -246c0 -50 -7 -106 -34 -162c-44 -91 -128 -134 -238 -134c-121 0 -189 69 -189 184c0 53 6 98 32 151c36 76 101 121 183 121c27 0 48 -7 62 -18h2l-47 90l-99 -28c-5 -2 -10 0 -11 6l-8 71c-1 6 2 11 9 13l67 19l-38 73
c-3 5 -1 10 5 10h142c9 0 14 -3 18 -10l16 -32l93 27c6 2 10 0 11 -6l8 -70c1 -7 -2 -12 -9 -14zM246 121c27 0 50 12 65 43c15 29 22 66 22 96c0 37 -16 58 -52 58c-27 0 -50 -12 -65 -43c-15 -29 -22 -66 -22 -96c0 -37 16 -58 52 -58z" />
    <glyph glyph-name="egrave" unicode="&#xe8;" horiz-adv-x="513" 
d="M227 -12c-120 0 -198 60 -198 180c0 61 13 140 40 194c44 92 120 137 236 137c110 0 190 -61 190 -173c0 -27 -3 -61 -13 -119c-1 -6 -6 -10 -12 -10h-281c-4 0 -6 -2 -7 -6s-1 -8 -1 -12c0 -48 31 -67 83 -67c39 0 79 17 113 43c7 4 11 3 14 -1l55 -70
c3 -5 3 -12 -2 -16c-56 -50 -122 -80 -217 -80zM207 296h128c4 0 7 2 8 6c2 8 3 17 3 23c0 40 -22 58 -59 58c-34 0 -60 -17 -75 -46c-4 -10 -7 -22 -9 -35c-1 -4 0 -6 4 -6zM358 546h-100c-8 0 -13 3 -18 10l-74 136c-3 5 1 10 7 10h125c8 0 13 -3 15 -10l53 -136
c2 -6 -2 -10 -8 -10z" />
    <glyph glyph-name="eacute" unicode="&#xe9;" horiz-adv-x="513" 
d="M351 546h-110c-6 0 -8 5 -4 10l101 136c5 7 11 10 19 10h134c6 0 8 -5 3 -10l-123 -136c-7 -7 -12 -10 -20 -10zM227 -12c-120 0 -198 60 -198 180c0 61 13 140 40 194c44 92 120 137 236 137c110 0 190 -61 190 -173c0 -27 -3 -61 -13 -119c-1 -6 -6 -10 -12 -10h-281
c-4 0 -6 -2 -7 -6s-1 -8 -1 -12c0 -48 31 -67 83 -67c39 0 79 17 113 43c7 4 11 3 14 -1l55 -70c3 -5 3 -12 -2 -16c-56 -50 -122 -80 -217 -80zM207 296h128c4 0 7 2 8 6c2 8 3 17 3 23c0 40 -22 58 -59 58c-34 0 -60 -17 -75 -46c-4 -10 -7 -22 -9 -35c-1 -4 0 -6 4 -6z
" />
    <glyph glyph-name="ecircumflex" unicode="&#xea;" horiz-adv-x="513" 
d="M467 545h-87c-10 0 -14 2 -20 10l-38 52h-2l-57 -52c-8 -7 -14 -10 -24 -10h-95c-6 0 -8 5 -4 10l129 137c6 7 12 9 20 9h87c8 0 13 -2 17 -9l80 -137c3 -5 0 -10 -6 -10zM227 -12c-120 0 -198 60 -198 180c0 61 13 140 40 194c44 92 120 137 236 137
c110 0 190 -61 190 -173c0 -27 -3 -61 -13 -119c-1 -6 -6 -10 -12 -10h-281c-4 0 -6 -2 -7 -6s-1 -8 -1 -12c0 -48 31 -67 83 -67c39 0 79 17 113 43c7 4 11 3 14 -1l55 -70c3 -5 3 -12 -2 -16c-56 -50 -122 -80 -217 -80zM207 296h128c4 0 7 2 8 6c2 8 3 17 3 23
c0 40 -22 58 -59 58c-34 0 -60 -17 -75 -46c-4 -10 -7 -22 -9 -35c-1 -4 0 -6 4 -6z" />
    <glyph glyph-name="ecaron" unicode="&#x11b;" horiz-adv-x="513" 
d="M350 542h-87c-8 0 -13 3 -17 10l-80 136c-3 5 0 10 6 10h87c9 0 14 -2 20 -10l38 -51h2l57 51c8 8 14 10 24 10h95c6 0 8 -5 4 -10l-129 -136c-6 -7 -12 -10 -20 -10zM227 -12c-120 0 -198 60 -198 180c0 61 13 140 40 194c44 92 120 137 236 137c110 0 190 -61 190 -173
c0 -27 -3 -61 -13 -119c-1 -6 -6 -10 -12 -10h-281c-4 0 -6 -2 -7 -6s-1 -8 -1 -12c0 -48 31 -67 83 -67c39 0 79 17 113 43c7 4 11 3 14 -1l55 -70c3 -5 3 -12 -2 -16c-56 -50 -122 -80 -217 -80zM207 296h128c4 0 7 2 8 6c2 8 3 17 3 23c0 40 -22 58 -59 58
c-34 0 -60 -17 -75 -46c-4 -10 -7 -22 -9 -35c-1 -4 0 -6 4 -6z" />
    <glyph glyph-name="edieresis" unicode="&#xeb;" horiz-adv-x="513" 
d="M462 556h-105c-6 0 -10 4 -9 10l20 106c1 6 6 10 12 10h104c6 0 9 -4 8 -10l-19 -106c-1 -6 -5 -10 -11 -10zM263 556h-104c-6 0 -10 4 -9 10l20 106c1 6 5 10 11 10h105c6 0 9 -4 8 -10l-20 -106c-1 -6 -5 -10 -11 -10zM227 -12c-120 0 -198 60 -198 180
c0 61 13 140 40 194c44 92 120 137 236 137c110 0 190 -61 190 -173c0 -27 -3 -61 -13 -119c-1 -6 -6 -10 -12 -10h-281c-4 0 -6 -2 -7 -6s-1 -8 -1 -12c0 -48 31 -67 83 -67c39 0 79 17 113 43c7 4 11 3 14 -1l55 -70c3 -5 3 -12 -2 -16c-56 -50 -122 -80 -217 -80z
M207 296h128c4 0 7 2 8 6c2 8 3 17 3 23c0 40 -22 58 -59 58c-34 0 -60 -17 -75 -46c-4 -10 -7 -22 -9 -35c-1 -4 0 -6 4 -6z" />
    <glyph glyph-name="emacron" unicode="&#x113;" horiz-adv-x="513" 
d="M227 -12c-120 0 -198 60 -198 180c0 61 13 140 40 194c44 92 120 137 236 137c110 0 190 -61 190 -173c0 -27 -3 -61 -13 -119c-1 -6 -6 -10 -12 -10h-281c-4 0 -6 -2 -7 -6s-1 -8 -1 -12c0 -48 31 -67 83 -67c39 0 79 17 113 43c7 4 11 3 14 -1l55 -70
c3 -5 3 -12 -2 -16c-56 -50 -122 -80 -217 -80zM207 296h128c4 0 7 2 8 6c2 8 3 17 3 23c0 40 -22 58 -59 58c-34 0 -60 -17 -75 -46c-4 -10 -7 -22 -9 -35c-1 -4 0 -6 4 -6zM452 566h-291c-6 0 -9 4 -8 10l15 87c1 6 5 10 11 10h291c6 0 9 -4 8 -10l-15 -87
c-1 -6 -5 -10 -11 -10z" />
    <glyph glyph-name="ebreve" unicode="&#x115;" horiz-adv-x="513" 
d="M227 -12c-120 0 -198 60 -198 180c0 61 13 140 40 194c44 92 120 137 236 137c110 0 190 -61 190 -173c0 -27 -3 -61 -13 -119c-1 -6 -6 -10 -12 -10h-281c-4 0 -6 -2 -7 -6s-1 -8 -1 -12c0 -48 31 -67 83 -67c39 0 79 17 113 43c7 4 11 3 14 -1l55 -70
c3 -5 3 -12 -2 -16c-56 -50 -122 -80 -217 -80zM207 296h128c4 0 7 2 8 6c2 8 3 17 3 23c0 40 -22 58 -59 58c-34 0 -60 -17 -75 -46c-4 -10 -7 -22 -9 -35c-1 -4 0 -6 4 -6zM307 540c-89 0 -143 59 -132 138c1 7 5 12 13 12h62c8 0 12 -3 14 -11c5 -27 24 -41 58 -41
c35 0 60 14 75 41c4 8 9 11 17 11h62c7 0 11 -5 10 -11c-15 -78 -93 -139 -179 -139z" />
    <glyph glyph-name="edotaccent" unicode="&#x117;" horiz-adv-x="513" 
d="M227 -12c-120 0 -198 60 -198 180c0 61 13 140 40 194c44 92 120 137 236 137c110 0 190 -61 190 -173c0 -27 -3 -61 -13 -119c-1 -6 -6 -10 -12 -10h-281c-4 0 -6 -2 -7 -6s-1 -8 -1 -12c0 -48 31 -67 83 -67c39 0 79 17 113 43c7 4 11 3 14 -1l55 -70
c3 -5 3 -12 -2 -16c-56 -50 -122 -80 -217 -80zM207 296h128c4 0 7 2 8 6c2 8 3 17 3 23c0 40 -22 58 -59 58c-34 0 -60 -17 -75 -46c-4 -10 -7 -22 -9 -35c-1 -4 0 -6 4 -6zM374 553h-134c-6 0 -9 4 -8 10l20 107c1 6 5 10 11 10h133c6 0 9 -4 8 -10l-19 -107
c-1 -6 -5 -10 -11 -10z" />
    <glyph glyph-name="eogonek" unicode="&#x119;" horiz-adv-x="513" 
d="M263 -190c-57 0 -92 31 -92 78c0 38 21 72 52 101h-6c-115 3 -188 63 -188 179c0 61 13 140 40 194c44 92 120 137 236 137c110 0 190 -61 190 -173c0 -27 -3 -61 -13 -119c-1 -6 -6 -10 -12 -10h-281c-4 0 -6 -2 -7 -6s-1 -8 -1 -12c0 -48 31 -67 83 -67
c39 0 79 17 113 43c7 4 11 3 14 -1l55 -70c3 -5 3 -11 -2 -16c-17 -15 -34 -28 -53 -39c-77 -54 -97 -82 -97 -100c0 -8 5 -13 14 -13c7 0 15 3 24 8c6 3 11 2 13 -3l25 -68c2 -5 0 -10 -6 -13c-36 -22 -70 -30 -101 -30zM207 296h128c4 0 7 2 8 6c2 8 3 17 3 23
c0 40 -22 58 -59 58c-34 0 -60 -17 -75 -46c-4 -10 -7 -22 -9 -35c-1 -4 0 -6 4 -6z" />
    <glyph glyph-name="gcircumflex" unicode="&#x11d;" horiz-adv-x="530" 
d="M484 545h-87c-10 0 -14 2 -20 10l-38 52h-2l-57 -52c-8 -7 -14 -10 -24 -10h-95c-6 0 -8 5 -4 10l129 137c6 7 12 9 20 9h87c8 0 13 -2 17 -9l80 -137c3 -5 0 -10 -6 -10zM176 -192c-80 0 -150 35 -181 83c-3 5 -2 12 3 16l88 74c6 5 12 5 17 1c25 -26 48 -40 85 -40
c58 0 90 29 102 101l8 40h-1c-27 -36 -71 -58 -128 -58c-93 0 -136 59 -136 153c0 60 16 154 43 209c37 77 93 112 172 112c58 0 96 -25 110 -60h1l7 38c1 6 6 10 12 10h140c6 0 9 -4 8 -10l-70 -411c-33 -190 -122 -258 -280 -258zM246 156c29 0 48 12 63 43
c14 26 23 79 23 108c0 37 -15 59 -50 59c-29 0 -48 -13 -63 -43c-13 -26 -23 -79 -23 -109c0 -37 15 -58 50 -58z" />
    <glyph glyph-name="gbreve" unicode="&#x11f;" horiz-adv-x="530" 
d="M176 -192c-80 0 -150 35 -181 83c-3 5 -2 12 3 16l88 74c6 5 12 5 17 1c25 -26 48 -40 85 -40c58 0 90 29 102 101l8 40h-1c-27 -36 -71 -58 -128 -58c-93 0 -136 59 -136 153c0 60 16 154 43 209c37 77 93 112 172 112c58 0 96 -25 110 -60h1l7 38c1 6 6 10 12 10h140
c6 0 9 -4 8 -10l-70 -411c-33 -190 -122 -258 -280 -258zM246 156c29 0 48 12 63 43c14 26 23 79 23 108c0 37 -15 59 -50 59c-29 0 -48 -13 -63 -43c-13 -26 -23 -79 -23 -109c0 -37 15 -58 50 -58zM315 540c-89 0 -143 59 -132 138c1 7 5 12 13 12h62c8 0 12 -3 14 -11
c5 -27 24 -41 58 -41c35 0 60 14 75 41c4 8 9 11 17 11h62c7 0 11 -5 10 -11c-15 -78 -93 -139 -179 -139z" />
    <glyph glyph-name="gdotaccent" unicode="&#x121;" horiz-adv-x="530" 
d="M176 -192c-80 0 -150 35 -181 83c-3 5 -2 12 3 16l88 74c6 5 12 5 17 1c25 -26 48 -40 85 -40c58 0 90 29 102 101l8 40h-1c-27 -36 -71 -58 -128 -58c-93 0 -136 59 -136 153c0 60 16 154 43 209c37 77 93 112 172 112c58 0 96 -25 110 -60h1l7 38c1 6 6 10 12 10h140
c6 0 9 -4 8 -10l-70 -411c-33 -190 -122 -258 -280 -258zM246 156c29 0 48 12 63 43c14 26 23 79 23 108c0 37 -15 59 -50 59c-29 0 -48 -13 -63 -43c-13 -26 -23 -79 -23 -109c0 -37 15 -58 50 -58zM387 553h-134c-6 0 -9 4 -8 10l20 107c1 6 5 10 11 10h133
c6 0 9 -4 8 -10l-19 -107c-1 -6 -5 -10 -11 -10z" />
    <glyph glyph-name="gcommaaccent" unicode="&#x123;" horiz-adv-x="530" 
d="M374 550h-115c-6 0 -9 4 -8 10l14 87c2 9 6 16 14 21l111 73c8 5 12 8 17 8c7 0 10 -5 9 -13l-30 -176c-1 -6 -6 -10 -12 -10zM176 -192c-80 0 -150 35 -181 83c-3 5 -2 12 3 16l88 74c6 5 12 5 17 1c25 -26 48 -40 85 -40c58 0 90 29 102 101l8 40h-1
c-27 -36 -71 -58 -128 -58c-93 0 -136 59 -136 153c0 60 16 154 43 209c37 77 93 112 172 112c58 0 96 -25 110 -60h1l7 38c1 6 6 10 12 10h140c6 0 9 -4 8 -10l-70 -411c-33 -190 -122 -258 -280 -258zM246 156c29 0 48 12 63 43c14 26 23 79 23 108c0 37 -15 59 -50 59
c-29 0 -48 -13 -63 -43c-13 -26 -23 -79 -23 -109c0 -37 15 -58 50 -58z" />
    <glyph glyph-name="hcircumflex" unicode="&#x125;" horiz-adv-x="540" 
d="M445 0h-143c-5 0 -9 4 -8 10l49 279c8 48 -5 75 -44 75c-37 0 -63 -27 -71 -74l-49 -280c-1 -6 -5 -10 -11 -10h-143c-5 0 -9 4 -8 10l117 660c1 6 6 10 11 10h143c6 0 9 -4 8 -10l-41 -230h1c27 33 72 59 130 59c112 0 144 -79 125 -182l-55 -307c-1 -6 -5 -10 -11 -10z
M530 742h-87c-9 0 -13 2 -19 10l-39 51h-1l-58 -51c-8 -8 -13 -10 -24 -10h-95c-6 0 -8 5 -3 10l128 136c6 7 12 10 20 10h87c9 0 13 -3 17 -10l80 -136c3 -5 0 -10 -6 -10z" />
    <glyph glyph-name="hbar" unicode="&#x127;" horiz-adv-x="540" 
d="M445 0h-143c-5 0 -9 4 -8 10l49 279c8 48 -5 75 -44 75c-37 0 -63 -27 -71 -74l-49 -280c-1 -6 -5 -10 -11 -10h-143c-5 0 -9 4 -8 10l93 527c1 4 -1 6 -4 6h-18c-6 0 -8 4 -7 10l14 76c1 7 6 10 12 10h16c4 0 6 2 7 6l4 25c1 6 6 10 11 10h143c6 0 9 -4 8 -10l-4 -25
c-1 -4 1 -6 5 -6h92c5 0 8 -4 7 -10l-14 -76c-1 -6 -5 -10 -11 -10h-92c-4 0 -6 -2 -7 -6l-17 -97h1c27 33 72 59 130 59c112 0 144 -79 125 -182l-55 -307c-1 -6 -5 -10 -11 -10z" />
    <glyph glyph-name="dotlessi" unicode="&#x131;" horiz-adv-x="265" 
d="M168 0h-143c-5 0 -9 4 -8 10l82 467c1 6 6 10 11 10h143c6 0 9 -4 8 -10l-82 -467c-1 -6 -5 -10 -11 -10z" />
    <glyph glyph-name="igrave" unicode="&#xec;" horiz-adv-x="265" 
d="M168 0h-143c-5 0 -9 4 -8 10l82 467c1 6 6 10 11 10h143c6 0 9 -4 8 -10l-82 -467c-1 -6 -5 -10 -11 -10zM240 546h-100c-8 0 -13 3 -18 10l-74 136c-3 5 1 10 7 10h125c8 0 13 -3 15 -10l53 -136c2 -6 -2 -10 -8 -10z" />
    <glyph glyph-name="iacute" unicode="&#xed;" horiz-adv-x="265" 
d="M242 546h-110c-6 0 -8 5 -4 10l101 136c5 7 11 10 19 10h134c6 0 8 -5 3 -10l-123 -136c-7 -7 -12 -10 -20 -10zM168 0h-143c-5 0 -9 4 -8 10l82 467c1 6 6 10 11 10h143c6 0 9 -4 8 -10l-82 -467c-1 -6 -5 -10 -11 -10z" />
    <glyph glyph-name="icircumflex" unicode="&#xee;" horiz-adv-x="265" 
d="M353 545h-87c-10 0 -14 2 -20 10l-38 52h-2l-57 -52c-8 -7 -14 -10 -24 -10h-95c-6 0 -8 5 -4 10l129 137c6 7 12 9 20 9h87c8 0 13 -2 17 -9l80 -137c3 -5 0 -10 -6 -10zM168 0h-143c-5 0 -9 4 -8 10l82 467c1 6 6 10 11 10h143c6 0 9 -4 8 -10l-82 -467
c-1 -6 -5 -10 -11 -10z" />
    <glyph glyph-name="itilde" unicode="&#x129;" horiz-adv-x="265" 
d="M168 0h-143c-5 0 -9 4 -8 10l82 467c1 6 6 10 11 10h143c6 0 9 -4 8 -10l-82 -467c-1 -6 -5 -10 -11 -10zM261 548c-35 0 -55 10 -78 23c-19 12 -34 18 -54 18c-28 0 -51 -12 -78 -33c-6 -4 -11 -1 -10 5l14 78c2 10 5 15 13 21c26 23 53 36 84 36c34 0 55 -10 78 -23
c19 -12 34 -18 54 -18c28 0 51 12 78 33c6 4 11 1 10 -5l-14 -78c-2 -10 -6 -15 -13 -22c-26 -22 -53 -35 -84 -35z" />
    <glyph glyph-name="idieresis" unicode="&#xef;" horiz-adv-x="265" 
d="M346 556h-105c-6 0 -10 4 -9 10l20 106c1 6 6 10 12 10h104c6 0 9 -4 8 -10l-19 -106c-1 -6 -5 -10 -11 -10zM147 556h-104c-6 0 -10 4 -9 10l20 106c1 6 5 10 11 10h105c6 0 9 -4 8 -10l-20 -106c-1 -6 -5 -10 -11 -10zM168 0h-143c-5 0 -9 4 -8 10l82 467
c1 6 6 10 11 10h143c6 0 9 -4 8 -10l-82 -467c-1 -6 -5 -10 -11 -10z" />
    <glyph glyph-name="imacron" unicode="&#x12b;" horiz-adv-x="265" 
d="M168 0h-143c-5 0 -9 4 -8 10l82 467c1 6 6 10 11 10h143c6 0 9 -4 8 -10l-82 -467c-1 -6 -5 -10 -11 -10zM338 566h-291c-6 0 -9 4 -8 10l15 87c1 6 5 10 11 10h291c6 0 9 -4 8 -10l-15 -87c-1 -6 -5 -10 -11 -10z" />
    <glyph glyph-name="ibreve" unicode="&#x12d;" horiz-adv-x="265" 
d="M168 0h-143c-5 0 -9 4 -8 10l82 467c1 6 6 10 11 10h143c6 0 9 -4 8 -10l-82 -467c-1 -6 -5 -10 -11 -10zM189 540c-89 0 -143 59 -132 138c1 7 5 12 13 12h62c8 0 12 -3 14 -11c5 -27 24 -41 58 -41c35 0 60 14 75 41c4 8 9 11 17 11h62c7 0 11 -5 10 -11
c-15 -78 -93 -139 -179 -139z" />
    <glyph glyph-name="iogonek" unicode="&#x12f;" horiz-adv-x="265" 
d="M265 553h-143c-6 0 -9 4 -8 10l19 107c1 6 5 10 11 10h143c6 0 9 -4 8 -10l-19 -107c-1 -6 -5 -10 -11 -10zM54 -190c-57 0 -92 31 -92 78c0 44 28 82 67 112h-6c-4 0 -7 5 -6 10l82 467c1 6 6 10 11 10h143c6 0 9 -4 8 -10l-82 -467c-1 -6 -3 -8 -10 -12
c-66 -33 -83 -52 -83 -69c0 -8 4 -13 13 -13c8 0 15 3 25 8c5 3 10 2 12 -3l25 -68c2 -5 1 -10 -5 -13c-36 -22 -70 -30 -102 -30z" />
    <glyph glyph-name="dotlessj" unicode="&#x237;" horiz-adv-x="265" 
d="M-46 -180h-36c-6 0 -9 4 -7 10l20 113c1 6 5 10 11 10h13c38 0 54 10 62 56l82 468c1 6 6 10 11 10h143c6 0 9 -4 8 -10l-82 -468c-26 -150 -87 -189 -225 -189z" />
    <glyph glyph-name="jcircumflex" unicode="&#x135;" horiz-adv-x="265" 
d="M-46 -180h-36c-6 0 -9 4 -7 10l20 113c1 6 5 10 11 10h13c38 0 54 10 62 56l82 468c1 6 6 10 11 10h143c6 0 9 -4 8 -10l-82 -468c-26 -150 -87 -189 -225 -189zM350 545h-87c-10 0 -14 2 -20 10l-38 52h-2l-57 -52c-8 -7 -14 -10 -24 -10h-95c-6 0 -8 5 -4 10l129 137
c6 7 12 9 20 9h87c8 0 13 -2 17 -9l80 -137c3 -5 0 -10 -6 -10z" />
    <glyph glyph-name="kcommaaccent" unicode="&#x137;" horiz-adv-x="524" 
d="M148 -244c-7 0 -10 4 -9 11l31 177c1 6 5 10 11 10h115c6 0 10 -4 9 -10l-15 -87c-2 -11 -5 -16 -13 -21l-112 -73c-8 -5 -12 -7 -17 -7zM471 0h-148c-7 0 -11 3 -13 10l-60 196l-47 -54l-25 -142c-1 -6 -5 -10 -11 -10h-142c-6 0 -9 4 -8 10l115 660c1 6 5 10 10 10h143
c6 0 9 -4 8 -10l-59 -340l133 148c6 7 12 9 20 9h149c6 0 8 -5 4 -10l-166 -174l103 -293c2 -5 0 -10 -6 -10z" />
    <glyph glyph-name="kgreenlandic" unicode="&#x138;" horiz-adv-x="524" 
d="M471 0h-148c-7 0 -11 3 -13 10l-60 196l-47 -54l-25 -142c-1 -6 -5 -10 -11 -10h-142c-6 0 -9 4 -8 10l81 467c1 6 5 10 10 10h143c6 0 10 -4 9 -10l-26 -147l132 148c7 7 13 9 21 9h149c6 0 8 -5 4 -10l-166 -174l103 -293c2 -5 0 -10 -6 -10z" />
    <glyph glyph-name="lacute" unicode="&#x13a;" horiz-adv-x="305" 
d="M283 747h-109c-6 0 -8 5 -4 10l119 122c6 6 13 10 22 10h135c6 0 9 -5 4 -10l-145 -122c-8 -7 -13 -10 -22 -10zM232 -6h-58c-122 0 -153 51 -133 168l92 508c1 6 5 10 10 10h143c6 0 10 -4 9 -10l-90 -493c-5 -33 3 -47 32 -47h19c5 0 9 -4 8 -10l-20 -116
c-1 -6 -6 -10 -12 -10z" />
    <glyph glyph-name="lcaron" unicode="&#x13e;" horiz-adv-x="305" 
d="M309 476c-8 0 -11 5 -10 12l32 182c1 6 5 10 11 10h105c6 0 10 -4 9 -10l-17 -92c-1 -9 -5 -16 -12 -21l-102 -74c-7 -5 -11 -7 -16 -7zM232 -6h-58c-122 0 -153 51 -133 168l92 508c1 6 5 10 10 10h143c6 0 10 -4 9 -10l-90 -493c-5 -33 3 -47 32 -47h19c5 0 9 -4 8 -10
l-20 -116c-1 -6 -6 -10 -12 -10z" />
    <glyph glyph-name="lcommaaccent" unicode="&#x13c;" horiz-adv-x="305" 
d="M44 -244c-7 0 -10 4 -9 11l31 177c1 6 5 10 11 10h115c6 0 10 -4 9 -10l-15 -87c-2 -11 -5 -16 -13 -21l-112 -73c-8 -5 -12 -7 -17 -7zM232 -6h-58c-122 0 -153 51 -133 168l92 508c1 6 5 10 10 10h143c6 0 10 -4 9 -10l-90 -493c-5 -33 3 -47 32 -47h19c5 0 9 -4 8 -10
l-20 -116c-1 -6 -6 -10 -12 -10z" />
    <glyph glyph-name="lslash" unicode="&#x142;" horiz-adv-x="305" 
d="M232 -6h-58c-122 0 -153 51 -133 168l16 88l-34 -16c-6 -3 -10 1 -9 7l18 99c1 6 4 11 12 14l35 17l54 299c1 6 5 10 10 10h143c6 0 10 -4 9 -10l-40 -220l64 31c6 3 10 -1 9 -7l-18 -99c-1 -6 -4 -11 -12 -14l-65 -31l-28 -153c-5 -33 3 -47 32 -47h19c5 0 9 -4 8 -10
l-20 -116c-1 -6 -6 -10 -12 -10z" />
    <glyph glyph-name="ldot" unicode="&#x140;" horiz-adv-x="402" 
d="M232 -6h-58c-122 0 -153 51 -133 168l92 508c1 6 5 10 10 10h143c6 0 10 -4 9 -10l-90 -493c-5 -33 3 -47 32 -47h19c5 0 9 -4 8 -10l-20 -116c-1 -6 -6 -10 -12 -10zM408 253h-133c-6 0 -10 4 -9 10l23 134c1 6 5 10 11 10h134c6 0 10 -4 9 -10l-24 -134
c-1 -6 -5 -10 -11 -10z" />
    <glyph glyph-name="nacute" unicode="&#x144;" horiz-adv-x="540" 
d="M356 546h-110c-6 0 -8 5 -4 10l101 136c5 7 11 10 19 10h134c6 0 8 -5 3 -10l-123 -136c-7 -7 -12 -10 -20 -10zM445 0h-143c-5 0 -9 4 -8 10l49 279c8 48 -5 75 -44 75c-37 0 -63 -27 -71 -74l-49 -280c-1 -6 -5 -10 -11 -10h-143c-5 0 -9 4 -8 10l82 467
c1 6 6 10 11 10h143c6 0 9 -4 8 -10l-6 -37h1c27 33 72 59 130 59c112 0 144 -78 125 -181l-55 -308c-1 -6 -5 -10 -11 -10z" />
    <glyph glyph-name="ncaron" unicode="&#x148;" horiz-adv-x="540" 
d="M368 542h-87c-8 0 -13 3 -17 10l-80 136c-3 5 0 10 6 10h87c9 0 14 -2 20 -10l38 -51h2l57 51c8 8 14 10 24 10h95c6 0 8 -5 4 -10l-129 -136c-6 -7 -12 -10 -20 -10zM445 0h-143c-5 0 -9 4 -8 10l49 279c8 48 -5 75 -44 75c-37 0 -63 -27 -71 -74l-49 -280
c-1 -6 -5 -10 -11 -10h-143c-5 0 -9 4 -8 10l82 467c1 6 6 10 11 10h143c6 0 9 -4 8 -10l-6 -37h1c27 33 72 59 130 59c112 0 144 -78 125 -181l-55 -308c-1 -6 -5 -10 -11 -10z" />
    <glyph glyph-name="ntilde" unicode="&#xf1;" horiz-adv-x="540" 
d="M445 0h-143c-5 0 -9 4 -8 10l49 279c8 48 -5 75 -44 75c-37 0 -63 -27 -71 -74l-49 -280c-1 -6 -5 -10 -11 -10h-143c-5 0 -9 4 -8 10l82 467c1 6 6 10 11 10h143c6 0 9 -4 8 -10l-6 -37h1c27 33 72 59 130 59c112 0 144 -78 125 -181l-55 -308c-1 -6 -5 -10 -11 -10z
M387 548c-35 0 -55 10 -78 23c-19 12 -34 18 -54 18c-28 0 -51 -12 -78 -33c-6 -4 -11 -1 -10 5l14 78c2 10 5 15 13 21c26 23 53 36 84 36c34 0 55 -10 78 -23c19 -12 34 -18 54 -18c28 0 51 12 78 33c6 4 11 1 10 -5l-14 -78c-2 -10 -6 -15 -13 -22
c-26 -22 -53 -35 -84 -35z" />
    <glyph glyph-name="ncommaaccent" unicode="&#x146;" horiz-adv-x="540" 
d="M138 -244c-7 0 -10 4 -9 11l31 177c1 6 5 10 11 10h115c6 0 10 -4 9 -10l-15 -87c-2 -11 -5 -16 -13 -21l-112 -73c-8 -5 -12 -7 -17 -7zM445 0h-143c-5 0 -9 4 -8 10l49 279c8 48 -5 75 -44 75c-37 0 -63 -27 -71 -74l-49 -280c-1 -6 -5 -10 -11 -10h-143
c-5 0 -9 4 -8 10l82 467c1 6 6 10 11 10h143c6 0 9 -4 8 -10l-6 -37h1c27 33 72 59 130 59c112 0 144 -78 125 -181l-55 -308c-1 -6 -5 -10 -11 -10z" />
    <glyph glyph-name="eng" unicode="&#x14b;" horiz-adv-x="540" 
d="M235 -180h-36c-5 0 -9 4 -8 10l20 113c1 6 5 10 11 10h14c36 0 50 11 57 54l50 282c8 48 -5 75 -44 75c-37 0 -63 -27 -71 -74l-49 -280c-1 -6 -5 -10 -11 -10h-143c-5 0 -9 4 -8 10l82 467c1 6 6 10 11 10h143c6 0 9 -4 8 -10l-6 -37h1c27 33 72 59 130 59
c112 0 143 -78 125 -181l-55 -309c-24 -139 -94 -189 -221 -189z" />
    <glyph glyph-name="ograve" unicode="&#xf2;" horiz-adv-x="514" 
d="M221 -12c-115 0 -192 63 -192 181c0 56 13 140 40 195c48 97 131 135 236 135c115 0 192 -63 192 -181c0 -56 -13 -140 -40 -195c-48 -97 -131 -135 -236 -135zM241 121c28 0 50 13 66 44c14 30 29 113 29 142c0 38 -15 59 -51 59c-28 0 -50 -13 -66 -44
c-14 -30 -29 -113 -29 -142c0 -38 14 -59 51 -59zM357 546h-100c-8 0 -13 3 -18 10l-74 136c-3 5 1 10 7 10h125c8 0 13 -3 15 -10l53 -136c2 -6 -2 -10 -8 -10z" />
    <glyph glyph-name="oacute" unicode="&#xf3;" horiz-adv-x="514" 
d="M360 546h-110c-6 0 -8 5 -4 10l101 136c5 7 11 10 19 10h134c6 0 8 -5 3 -10l-123 -136c-7 -7 -12 -10 -20 -10zM221 -12c-115 0 -192 63 -192 181c0 56 13 140 40 195c48 97 131 135 236 135c115 0 192 -63 192 -181c0 -56 -13 -140 -40 -195
c-48 -97 -131 -135 -236 -135zM241 121c28 0 50 13 66 44c14 30 29 113 29 142c0 38 -15 59 -51 59c-28 0 -50 -13 -66 -44c-14 -30 -29 -113 -29 -142c0 -38 14 -59 51 -59z" />
    <glyph glyph-name="ocircumflex" unicode="&#xf4;" horiz-adv-x="514" 
d="M469 545h-87c-10 0 -14 2 -20 10l-38 52h-2l-57 -52c-8 -7 -14 -10 -24 -10h-95c-6 0 -8 5 -4 10l129 137c6 7 12 9 20 9h87c8 0 13 -2 17 -9l80 -137c3 -5 0 -10 -6 -10zM221 -12c-115 0 -192 63 -192 181c0 56 13 140 40 195c48 97 131 135 236 135
c115 0 192 -63 192 -181c0 -56 -13 -140 -40 -195c-48 -97 -131 -135 -236 -135zM241 121c28 0 50 13 66 44c14 30 29 113 29 142c0 38 -15 59 -51 59c-28 0 -50 -13 -66 -44c-14 -30 -29 -113 -29 -142c0 -38 14 -59 51 -59z" />
    <glyph glyph-name="otilde" unicode="&#xf5;" horiz-adv-x="514" 
d="M221 -12c-115 0 -192 63 -192 181c0 56 13 140 40 195c48 97 131 135 236 135c115 0 192 -63 192 -181c0 -56 -13 -140 -40 -195c-48 -97 -131 -135 -236 -135zM241 121c28 0 50 13 66 44c14 30 29 113 29 142c0 38 -15 59 -51 59c-28 0 -50 -13 -66 -44
c-14 -30 -29 -113 -29 -142c0 -38 14 -59 51 -59zM371 548c-35 0 -55 10 -78 23c-19 12 -34 18 -54 18c-28 0 -51 -12 -78 -33c-6 -4 -11 -1 -10 5l14 78c2 10 5 15 13 21c26 23 53 36 84 36c34 0 55 -10 78 -23c19 -12 34 -18 54 -18c28 0 51 12 78 33c6 4 11 1 10 -5
l-14 -78c-2 -10 -6 -15 -13 -22c-26 -22 -53 -35 -84 -35z" />
    <glyph glyph-name="odieresis" unicode="&#xf6;" horiz-adv-x="514" 
d="M459 556h-105c-6 0 -10 4 -9 10l20 106c1 6 6 10 12 10h104c6 0 9 -4 8 -10l-19 -106c-1 -6 -5 -10 -11 -10zM260 556h-104c-6 0 -10 4 -9 10l20 106c1 6 5 10 11 10h105c6 0 9 -4 8 -10l-20 -106c-1 -6 -5 -10 -11 -10zM221 -12c-115 0 -192 63 -192 181
c0 56 13 140 40 195c48 97 131 135 236 135c115 0 192 -63 192 -181c0 -56 -13 -140 -40 -195c-48 -97 -131 -135 -236 -135zM241 121c28 0 50 13 66 44c14 30 29 113 29 142c0 38 -15 59 -51 59c-28 0 -50 -13 -66 -44c-14 -30 -29 -113 -29 -142c0 -38 14 -59 51 -59z" />
    <glyph glyph-name="omacron" unicode="&#x14d;" horiz-adv-x="514" 
d="M452 566h-291c-6 0 -9 4 -8 10l15 87c1 6 5 10 11 10h291c6 0 9 -4 8 -10l-15 -87c-1 -6 -5 -10 -11 -10zM221 -12c-115 0 -192 63 -192 181c0 56 13 140 40 195c48 97 131 135 236 135c115 0 192 -63 192 -181c0 -56 -13 -140 -40 -195c-48 -97 -131 -135 -236 -135z
M241 121c28 0 50 13 66 44c14 30 29 113 29 142c0 38 -15 59 -51 59c-28 0 -50 -13 -66 -44c-14 -30 -29 -113 -29 -142c0 -38 14 -59 51 -59z" />
    <glyph glyph-name="obreve" unicode="&#x14f;" horiz-adv-x="514" 
d="M221 -12c-115 0 -192 63 -192 181c0 56 13 140 40 195c48 97 131 135 236 135c115 0 192 -63 192 -181c0 -56 -13 -140 -40 -195c-48 -97 -131 -135 -236 -135zM241 121c28 0 50 13 66 44c14 30 29 113 29 142c0 38 -15 59 -51 59c-28 0 -50 -13 -66 -44
c-14 -30 -29 -113 -29 -142c0 -38 14 -59 51 -59zM310 540c-89 0 -143 59 -132 138c1 7 5 12 13 12h62c8 0 12 -3 14 -11c5 -27 24 -41 58 -41c35 0 60 14 75 41c4 8 9 11 17 11h62c7 0 11 -5 10 -11c-15 -78 -93 -139 -179 -139z" />
    <glyph glyph-name="ohungarumlaut" unicode="&#x151;" horiz-adv-x="514" 
d="M438 544h-93c-5 0 -8 4 -4 10l91 136c4 6 10 10 18 10h108c6 0 9 -5 5 -10l-106 -136c-5 -8 -11 -10 -19 -10zM261 544h-93c-5 0 -8 4 -4 10l91 136c4 6 10 10 18 10h108c6 0 9 -5 5 -10l-106 -136c-6 -8 -11 -10 -19 -10zM221 -12c-115 0 -192 63 -192 181
c0 56 13 140 40 195c48 97 131 135 236 135c115 0 192 -63 192 -181c0 -56 -13 -140 -40 -195c-48 -97 -131 -135 -236 -135zM241 121c28 0 50 13 66 44c14 30 29 113 29 142c0 38 -15 59 -51 59c-28 0 -50 -13 -66 -44c-14 -30 -29 -113 -29 -142c0 -38 14 -59 51 -59z" />
    <glyph glyph-name="oslash" unicode="&#xf8;" horiz-adv-x="514" 
d="M221 -12c-44 0 -82 9 -112 26l-30 -33c-7 -7 -12 -10 -20 -10h-75c-6 0 -8 5 -3 10l75 84c-18 27 -27 62 -27 104c0 56 13 140 40 195c48 97 131 135 236 135c43 0 81 -9 112 -27l30 34c7 7 12 10 20 10h75c6 0 8 -5 3 -10l-75 -84c17 -28 27 -63 27 -104
c0 -56 -13 -140 -40 -195c-48 -97 -131 -135 -236 -135zM241 121c28 0 50 13 66 44c14 30 29 113 29 142c0 38 -15 59 -51 59c-28 0 -51 -13 -66 -44c-15 -30 -29 -113 -29 -142c0 -38 14 -59 51 -59z" />
    <glyph glyph-name="oe" unicode="&#x153;" horiz-adv-x="806" 
d="M521 -12c-62 0 -110 16 -145 55h-2c-43 -36 -95 -55 -154 -55c-114 0 -191 63 -191 181c0 56 13 140 40 195c48 97 131 135 236 135c58 0 107 -18 139 -55h2c36 33 92 55 152 55c111 0 191 -61 191 -173c0 -27 -4 -61 -14 -119c-1 -6 -6 -10 -12 -10h-280
c-4 0 -6 -2 -7 -6s-1 -8 -1 -12c0 -48 30 -67 83 -67c38 0 78 17 112 43c7 4 11 3 15 -1l54 -70c4 -5 4 -12 -1 -16c-56 -50 -122 -80 -217 -80zM501 296h128c4 0 6 2 7 6c2 8 3 17 3 23c0 40 -21 58 -59 58c-33 0 -60 -17 -74 -46c-5 -10 -8 -22 -10 -35c0 -4 1 -6 5 -6z
M241 121c28 0 50 13 66 44c14 30 29 113 29 142c0 38 -15 59 -51 59c-28 0 -50 -13 -66 -44c-14 -30 -29 -113 -29 -142c0 -38 14 -59 51 -59z" />
    <glyph glyph-name="racute" unicode="&#x155;" horiz-adv-x="415" 
d="M320 546h-110c-6 0 -8 5 -4 10l101 136c5 7 11 10 19 10h134c6 0 8 -5 3 -10l-123 -136c-7 -7 -12 -10 -20 -10zM168 0h-143c-5 0 -9 4 -8 10l82 467c1 6 6 10 11 10h143c6 0 9 -4 8 -10l-8 -44h1c30 43 78 66 133 66c27 0 47 -7 60 -18c5 -3 7 -8 4 -14l-77 -135
c-4 -5 -9 -6 -15 -2c-19 13 -37 21 -59 21c-43 0 -67 -33 -77 -91l-44 -250c-1 -6 -5 -10 -11 -10z" />
    <glyph glyph-name="rcaron" unicode="&#x159;" horiz-adv-x="415" 
d="M336 542h-87c-8 0 -13 3 -17 10l-80 136c-3 5 0 10 6 10h87c9 0 14 -2 20 -10l38 -51h2l57 51c8 8 14 10 24 10h95c6 0 8 -5 4 -10l-129 -136c-6 -7 -12 -10 -20 -10zM168 0h-143c-5 0 -9 4 -8 10l82 467c1 6 6 10 11 10h143c6 0 9 -4 8 -10l-8 -44h1c30 43 78 66 133 66
c27 0 47 -7 60 -18c5 -3 7 -8 4 -14l-77 -135c-4 -5 -9 -6 -15 -2c-19 13 -37 21 -59 21c-43 0 -67 -33 -77 -91l-44 -250c-1 -6 -5 -10 -11 -10z" />
    <glyph glyph-name="rcommaaccent" unicode="&#x157;" horiz-adv-x="415" 
d="M2 -244c-7 0 -10 4 -9 11l31 177c1 6 5 10 11 10h115c6 0 10 -4 9 -10l-15 -87c-2 -11 -5 -16 -13 -21l-112 -73c-8 -5 -12 -7 -17 -7zM168 0h-143c-5 0 -9 4 -8 10l82 467c1 6 6 10 11 10h143c6 0 9 -4 8 -10l-8 -44h1c30 43 78 66 133 66c27 0 47 -7 60 -18
c5 -3 7 -8 4 -14l-77 -135c-4 -5 -9 -6 -15 -2c-19 13 -37 21 -59 21c-43 0 -67 -33 -77 -91l-44 -250c-1 -6 -5 -10 -11 -10z" />
    <glyph glyph-name="sacute" unicode="&#x15b;" horiz-adv-x="498" 
d="M334 546h-110c-6 0 -8 5 -4 10l101 136c5 7 11 10 19 10h134c6 0 8 -5 3 -10l-123 -136c-7 -7 -12 -10 -20 -10zM218 -12c-100 0 -173 36 -216 77c-4 4 -4 10 1 15l80 79c4 4 10 4 15 0c46 -34 92 -51 143 -51c43 0 69 22 69 44c0 17 -12 26 -52 30l-52 6
c-87 9 -138 53 -138 123c0 118 92 188 229 188c85 0 155 -29 193 -63c4 -4 3 -10 -1 -15l-72 -75c-5 -5 -10 -5 -14 -2c-32 21 -73 38 -123 38c-37 0 -59 -18 -59 -39c0 -15 9 -24 47 -28l52 -6c104 -11 146 -58 146 -124c0 -118 -94 -197 -248 -197z" />
    <glyph glyph-name="scircumflex" unicode="&#x15d;" horiz-adv-x="498" 
d="M460 545h-87c-10 0 -14 2 -20 10l-38 52h-2l-57 -52c-8 -7 -14 -10 -24 -10h-95c-6 0 -8 5 -4 10l129 137c6 7 12 9 20 9h87c8 0 13 -2 17 -9l80 -137c3 -5 0 -10 -6 -10zM218 -12c-100 0 -173 36 -216 77c-4 4 -4 10 1 15l80 79c4 4 10 4 15 0c46 -34 92 -51 143 -51
c43 0 69 22 69 44c0 17 -12 26 -52 30l-52 6c-87 9 -138 53 -138 123c0 118 92 188 229 188c85 0 155 -29 193 -63c4 -4 3 -10 -1 -15l-72 -75c-5 -5 -10 -5 -14 -2c-32 21 -73 38 -123 38c-37 0 -59 -18 -59 -39c0 -15 9 -24 47 -28l52 -6c104 -11 146 -58 146 -124
c0 -118 -94 -197 -248 -197z" />
    <glyph glyph-name="scaron" unicode="&#x161;" horiz-adv-x="498" 
d="M338 542h-87c-8 0 -13 3 -17 10l-80 136c-3 5 0 10 6 10h87c9 0 14 -2 20 -10l38 -51h2l57 51c8 8 14 10 24 10h95c6 0 8 -5 4 -10l-129 -136c-6 -7 -12 -10 -20 -10zM218 -12c-100 0 -173 36 -216 77c-4 4 -4 10 1 15l80 79c4 4 10 4 15 0c46 -34 92 -51 143 -51
c43 0 69 22 69 44c0 17 -12 26 -52 30l-52 6c-87 9 -138 53 -138 123c0 118 92 188 229 188c85 0 155 -29 193 -63c4 -4 3 -10 -1 -15l-72 -75c-5 -5 -10 -5 -14 -2c-32 21 -73 38 -123 38c-37 0 -59 -18 -59 -39c0 -15 9 -24 47 -28l52 -6c104 -11 146 -58 146 -124
c0 -118 -94 -197 -248 -197z" />
    <glyph glyph-name="scedilla" unicode="&#x15f;" horiz-adv-x="498" 
d="M200 -165h-111c-6 0 -8 4 -5 10l83 146c-74 10 -130 40 -165 74c-4 4 -4 10 1 15l80 79c4 4 10 4 15 0c46 -34 92 -51 143 -51c43 0 69 22 69 44c0 17 -12 26 -52 30l-52 6c-87 9 -138 53 -138 123c0 118 92 188 229 188c85 0 155 -29 193 -63c4 -4 3 -10 -1 -15l-72 -75
c-5 -5 -10 -5 -14 -2c-32 21 -73 38 -123 38c-37 0 -59 -18 -59 -39c0 -15 9 -24 47 -28l52 -6c104 -11 146 -58 146 -124c0 -99 -67 -171 -179 -191l-70 -149c-3 -7 -9 -10 -17 -10z" />
    <glyph glyph-name="scommaaccent" unicode="&#x219;" horiz-adv-x="498" 
d="M123 -244c-7 0 -10 4 -9 11l31 177c1 6 5 10 11 10h115c6 0 10 -4 9 -10l-15 -87c-2 -11 -5 -16 -13 -21l-112 -73c-8 -5 -12 -7 -17 -7zM218 -12c-100 0 -173 36 -216 77c-4 4 -4 10 1 15l80 79c4 4 10 4 15 0c46 -34 92 -51 143 -51c43 0 69 22 69 44
c0 17 -12 26 -52 30l-52 6c-87 9 -138 53 -138 123c0 118 92 188 229 188c85 0 155 -29 193 -63c4 -4 3 -10 -1 -15l-72 -75c-5 -5 -10 -5 -14 -2c-32 21 -73 38 -123 38c-37 0 -59 -18 -59 -39c0 -15 9 -24 47 -28l52 -6c104 -11 146 -58 146 -124
c0 -118 -94 -197 -248 -197z" />
    <glyph glyph-name="germandbls" unicode="&#xdf;" horiz-adv-x="573" 
d="M280 -5h-39c-6 0 -9 4 -8 10l19 106c1 6 6 10 12 10h23c33 0 53 9 68 40c10 20 24 106 24 131c0 31 -21 46 -59 46h-16c-6 0 -10 4 -9 10l19 104c1 6 6 10 12 10h23c38 0 63 24 63 62c0 26 -19 39 -60 39c-56 0 -82 -26 -92 -80l-84 -473c-1 -6 -5 -10 -10 -10h-141
c-5 0 -9 4 -8 10l83 471c24 135 106 211 273 211c132 0 201 -55 201 -139c0 -67 -26 -116 -80 -148v-2c31 -19 46 -52 46 -93c0 -59 -15 -155 -44 -212c-37 -75 -107 -103 -216 -103z" />
    <glyph glyph-name="tcaron" unicode="&#x165;" horiz-adv-x="330" 
d="M376 476c-8 0 -11 5 -10 12l32 182c1 6 5 10 11 10h105c6 0 10 -4 9 -10l-17 -92c-1 -9 -5 -16 -12 -21l-102 -74c-7 -5 -11 -7 -16 -7zM250 -6h-55c-129 0 -160 58 -137 182l35 189c1 4 -1 6 -5 6h-28c-6 0 -8 4 -7 10l17 96c1 6 5 10 11 10h27c4 0 7 2 8 6l23 127
c1 6 6 10 11 10h142c5 0 8 -4 7 -10l-23 -127c-1 -4 1 -6 5 -6h60c6 0 9 -4 8 -10l-17 -96c-1 -6 -6 -10 -12 -10h-61c-3 0 -5 -2 -6 -6l-34 -182c-8 -40 0 -53 34 -53h21c6 0 9 -4 8 -10l-20 -116c-1 -6 -6 -10 -12 -10z" />
    <glyph glyph-name="uni0163" unicode="&#x163;" horiz-adv-x="330" 
d="M52 -244c-7 0 -10 4 -9 11l31 177c1 6 5 10 11 10h115c6 0 10 -4 9 -10l-15 -87c-2 -11 -5 -16 -13 -21l-112 -73c-8 -5 -12 -7 -17 -7zM250 -6h-55c-129 0 -160 58 -137 182l35 189c1 4 -1 6 -5 6h-28c-6 0 -8 4 -7 10l17 96c1 6 5 10 11 10h27c4 0 7 2 8 6l23 127
c1 6 6 10 11 10h142c5 0 8 -4 7 -10l-23 -127c-1 -4 1 -6 5 -6h60c6 0 9 -4 8 -10l-17 -96c-1 -6 -6 -10 -12 -10h-61c-3 0 -5 -2 -6 -6l-34 -182c-8 -40 0 -53 34 -53h21c6 0 9 -4 8 -10l-20 -116c-1 -6 -6 -10 -12 -10z" />
    <glyph glyph-name="uni021B" unicode="&#x21b;" horiz-adv-x="330" 
d="M52 -244c-7 0 -10 4 -9 11l31 177c1 6 5 10 11 10h115c6 0 10 -4 9 -10l-15 -87c-2 -11 -5 -16 -13 -21l-112 -73c-8 -5 -12 -7 -17 -7zM250 -6h-55c-129 0 -160 58 -137 182l35 189c1 4 -1 6 -5 6h-28c-6 0 -8 4 -7 10l17 96c1 6 5 10 11 10h27c4 0 7 2 8 6l23 127
c1 6 6 10 11 10h142c5 0 8 -4 7 -10l-23 -127c-1 -4 1 -6 5 -6h60c6 0 9 -4 8 -10l-17 -96c-1 -6 -6 -10 -12 -10h-61c-3 0 -5 -2 -6 -6l-34 -182c-8 -40 0 -53 34 -53h21c6 0 9 -4 8 -10l-20 -116c-1 -6 -6 -10 -12 -10z" />
    <glyph glyph-name="tbar" unicode="&#x167;" horiz-adv-x="330" 
d="M250 -6h-55c-130 0 -159 58 -137 182l9 51c1 4 -1 6 -5 6h-20c-6 0 -8 4 -7 10l12 69c1 6 6 10 12 10h20c4 0 6 2 7 6l7 37c1 4 -1 6 -5 6h-28c-6 0 -8 4 -7 10l17 96c1 6 5 10 11 10h27c4 0 7 2 8 6l23 127c1 6 6 10 11 10h142c5 0 8 -4 7 -10l-23 -127c-1 -4 1 -6 5 -6
h60c6 0 9 -4 8 -10l-17 -96c-1 -6 -6 -10 -12 -10h-61c-3 0 -5 -2 -6 -6l-7 -37c-1 -4 0 -6 4 -6h47c6 0 8 -4 7 -10l-12 -69c-1 -6 -5 -10 -11 -10h-47c-4 0 -6 -2 -7 -6l-8 -45c-8 -39 -1 -52 34 -52h21c6 0 9 -4 8 -10l-20 -116c-1 -6 -6 -10 -12 -10z" />
    <glyph glyph-name="thorn" unicode="&#xfe;" horiz-adv-x="538" 
d="M137 -180h-144c-5 0 -9 4 -8 10l148 840c1 6 5 10 11 10h143c6 0 10 -4 9 -10l-41 -231h1c27 35 72 60 131 60c94 0 137 -60 137 -159c0 -66 -22 -180 -53 -244c-38 -76 -93 -108 -173 -108c-61 0 -98 26 -112 59h-1l-38 -217c-1 -6 -4 -10 -10 -10zM263 121
c30 0 51 14 66 44c13 27 29 110 29 141c0 38 -15 60 -51 60c-30 0 -51 -14 -66 -44c-13 -27 -29 -110 -29 -141c0 -38 15 -60 51 -60z" />
    <glyph glyph-name="ugrave" unicode="&#xf9;" horiz-adv-x="538" 
d="M107 487h141c6 0 10 -4 9 -10l-49 -280c-8 -45 6 -74 44 -74c37 0 62 27 70 74l49 280c1 6 5 10 11 10h143c6 0 9 -4 8 -10l-82 -467c-1 -6 -5 -10 -11 -10h-143c-5 0 -9 4 -8 10l7 37h-1c-30 -35 -74 -59 -132 -59c-108 0 -141 74 -121 182l54 307c1 6 5 10 11 10z
M372 546h-100c-8 0 -13 3 -18 10l-74 136c-3 5 1 10 7 10h125c8 0 13 -3 15 -10l53 -136c2 -6 -2 -10 -8 -10z" />
    <glyph glyph-name="uacute" unicode="&#xfa;" horiz-adv-x="538" 
d="M374 546h-110c-6 0 -8 5 -4 10l101 136c5 7 11 10 19 10h134c6 0 8 -5 3 -10l-123 -136c-7 -7 -12 -10 -20 -10zM107 487h141c6 0 10 -4 9 -10l-49 -280c-8 -45 6 -74 44 -74c37 0 62 27 70 74l49 280c1 6 5 10 11 10h143c6 0 9 -4 8 -10l-82 -467c-1 -6 -5 -10 -11 -10
h-143c-5 0 -9 4 -8 10l7 37h-1c-30 -35 -74 -59 -132 -59c-108 0 -141 74 -121 182l54 307c1 6 5 10 11 10z" />
    <glyph glyph-name="ucircumflex" unicode="&#xfb;" horiz-adv-x="538" 
d="M484 545h-87c-10 0 -14 2 -20 10l-38 52h-2l-57 -52c-8 -7 -14 -10 -24 -10h-95c-6 0 -8 5 -4 10l129 137c6 7 12 9 20 9h87c8 0 13 -2 17 -9l80 -137c3 -5 0 -10 -6 -10zM107 487h141c6 0 10 -4 9 -10l-49 -280c-8 -45 6 -74 44 -74c37 0 62 27 70 74l49 280
c1 6 5 10 11 10h143c6 0 9 -4 8 -10l-82 -467c-1 -6 -5 -10 -11 -10h-143c-5 0 -9 4 -8 10l7 37h-1c-30 -35 -74 -59 -132 -59c-108 0 -141 74 -121 182l54 307c1 6 5 10 11 10z" />
    <glyph glyph-name="utilde" unicode="&#x169;" horiz-adv-x="538" 
d="M107 487h141c6 0 10 -4 9 -10l-49 -280c-8 -45 6 -74 44 -74c37 0 62 27 70 74l49 280c1 6 5 10 11 10h143c6 0 9 -4 8 -10l-82 -467c-1 -6 -5 -10 -11 -10h-143c-5 0 -9 4 -8 10l7 37h-1c-30 -35 -74 -59 -132 -59c-108 0 -141 74 -121 182l54 307c1 6 5 10 11 10z
M394 548c-35 0 -55 10 -78 23c-19 12 -34 18 -54 18c-28 0 -51 -12 -78 -33c-6 -4 -11 -1 -10 5l14 78c2 10 5 15 13 21c26 23 53 36 84 36c34 0 55 -10 78 -23c19 -12 34 -18 54 -18c28 0 51 12 78 33c6 4 11 1 10 -5l-14 -78c-2 -10 -6 -15 -13 -22
c-26 -22 -53 -35 -84 -35z" />
    <glyph glyph-name="udieresis" unicode="&#xfc;" horiz-adv-x="538" 
d="M478 556h-105c-6 0 -10 4 -9 10l20 106c1 6 6 10 12 10h104c6 0 9 -4 8 -10l-19 -106c-1 -6 -5 -10 -11 -10zM279 556h-104c-6 0 -10 4 -9 10l20 106c1 6 5 10 11 10h105c6 0 9 -4 8 -10l-20 -106c-1 -6 -5 -10 -11 -10zM107 487h141c6 0 10 -4 9 -10l-49 -280
c-8 -45 6 -74 44 -74c37 0 62 27 70 74l49 280c1 6 5 10 11 10h143c6 0 9 -4 8 -10l-82 -467c-1 -6 -5 -10 -11 -10h-143c-5 0 -9 4 -8 10l7 37h-1c-30 -35 -74 -59 -132 -59c-108 0 -141 74 -121 182l54 307c1 6 5 10 11 10z" />
    <glyph glyph-name="umacron" unicode="&#x16b;" horiz-adv-x="538" 
d="M107 487h141c6 0 10 -4 9 -10l-49 -280c-8 -45 6 -74 44 -74c37 0 62 27 70 74l49 280c1 6 5 10 11 10h143c6 0 9 -4 8 -10l-82 -467c-1 -6 -5 -10 -11 -10h-143c-5 0 -9 4 -8 10l7 37h-1c-30 -35 -74 -59 -132 -59c-108 0 -141 74 -121 182l54 307c1 6 5 10 11 10z
M471 566h-291c-6 0 -9 4 -8 10l15 87c1 6 5 10 11 10h291c6 0 9 -4 8 -10l-15 -87c-1 -6 -5 -10 -11 -10z" />
    <glyph glyph-name="ubreve" unicode="&#x16d;" horiz-adv-x="538" 
d="M107 487h141c6 0 10 -4 9 -10l-49 -280c-8 -45 6 -74 44 -74c37 0 62 27 70 74l49 280c1 6 5 10 11 10h143c6 0 9 -4 8 -10l-82 -467c-1 -6 -5 -10 -11 -10h-143c-5 0 -9 4 -8 10l7 37h-1c-30 -35 -74 -59 -132 -59c-108 0 -141 74 -121 182l54 307c1 6 5 10 11 10z
M321 540c-89 0 -143 59 -132 138c1 7 5 12 13 12h62c8 0 12 -3 14 -11c5 -27 24 -41 58 -41c35 0 60 14 75 41c4 8 9 11 17 11h62c7 0 11 -5 10 -11c-15 -78 -93 -139 -179 -139z" />
    <glyph glyph-name="uring" unicode="&#x16f;" horiz-adv-x="538" 
d="M319 520c-56 0 -95 37 -95 90c0 73 53 134 132 134c56 0 94 -37 94 -90c0 -73 -52 -134 -131 -134zM329 586c28 0 51 24 51 56c0 21 -13 36 -35 36c-28 0 -51 -24 -51 -56c0 -21 14 -36 35 -36zM107 487h141c6 0 10 -4 9 -10l-49 -280c-8 -45 6 -74 44 -74
c37 0 62 27 70 74l49 280c1 6 5 10 11 10h143c6 0 9 -4 8 -10l-82 -467c-1 -6 -5 -10 -11 -10h-143c-5 0 -9 4 -8 10l7 37h-1c-30 -35 -74 -59 -132 -59c-108 0 -141 74 -121 182l54 307c1 6 5 10 11 10z" />
    <glyph glyph-name="uhungarumlaut" unicode="&#x171;" horiz-adv-x="538" 
d="M107 487h141c6 0 10 -4 9 -10l-49 -280c-8 -45 6 -74 44 -74c37 0 62 27 70 74l49 280c1 6 5 10 11 10h143c6 0 9 -4 8 -10l-82 -467c-1 -6 -5 -10 -11 -10h-143c-5 0 -9 4 -8 10l7 37h-1c-30 -35 -74 -59 -132 -59c-108 0 -141 74 -121 182l54 307c1 6 5 10 11 10z
M456 544h-93c-5 0 -8 4 -4 10l91 136c4 6 10 10 18 10h108c6 0 9 -5 5 -10l-106 -136c-5 -8 -11 -10 -19 -10zM279 544h-93c-5 0 -8 4 -4 10l91 136c4 6 10 10 18 10h108c6 0 9 -5 5 -10l-106 -136c-6 -8 -11 -10 -19 -10z" />
    <glyph glyph-name="uogonek" unicode="&#x173;" horiz-adv-x="538" 
d="M313 -190c-57 0 -92 31 -92 78s31 81 77 112h-3c-4 0 -7 4 -6 10l7 37h-1c-30 -35 -74 -59 -132 -59c-108 0 -141 74 -121 182l54 307c1 6 5 10 11 10h141c6 0 10 -4 9 -10l-49 -280c-8 -45 6 -74 44 -74c37 0 62 27 70 74l49 280c1 6 5 10 11 10h143c6 0 9 -4 8 -10
l-82 -466c-1 -6 -4 -9 -9 -11c-83 -35 -98 -54 -98 -71c0 -8 5 -13 14 -13c7 0 15 3 24 8c6 3 11 2 13 -3l25 -68c2 -5 0 -10 -6 -13c-36 -22 -70 -30 -101 -30z" />
    <glyph glyph-name="wcircumflex" unicode="&#x175;" horiz-adv-x="748" 
d="M589 545h-87c-10 0 -14 2 -20 10l-38 52h-2l-57 -52c-8 -7 -14 -10 -24 -10h-95c-6 0 -8 5 -4 10l129 137c6 7 12 9 20 9h87c8 0 13 -2 17 -9l80 -137c3 -5 0 -10 -6 -10zM535 0h-112c-5 0 -9 3 -10 10l-26 258h-2l-120 -258c-3 -7 -7 -10 -13 -10h-112
c-6 0 -10 3 -10 10l-71 467c0 6 3 10 10 10h137c8 0 12 -2 12 -10l18 -265h2l119 265c3 7 8 10 15 10h93c7 0 10 -3 11 -10l27 -265h2l108 265c3 8 7 10 15 10h149c6 0 8 -4 5 -10l-235 -467c-3 -7 -6 -10 -12 -10z" />
    <glyph glyph-name="wacute" unicode="&#x1e83;" horiz-adv-x="748" 
d="M481 546h-110c-6 0 -8 5 -4 10l101 136c5 7 11 10 19 10h134c6 0 8 -5 3 -10l-123 -136c-7 -7 -12 -10 -20 -10zM535 0h-112c-5 0 -9 3 -10 10l-26 258h-2l-120 -258c-3 -7 -7 -10 -13 -10h-112c-6 0 -10 3 -10 10l-71 467c0 6 3 10 10 10h137c8 0 12 -2 12 -10l18 -265
h2l119 265c3 7 8 10 15 10h93c7 0 10 -3 11 -10l27 -265h2l108 265c3 8 7 10 15 10h149c6 0 8 -4 5 -10l-235 -467c-3 -7 -6 -10 -12 -10z" />
    <glyph glyph-name="wdieresis" unicode="&#x1e85;" horiz-adv-x="748" 
d="M585 556h-105c-6 0 -10 4 -9 10l20 106c1 6 6 10 12 10h104c6 0 9 -4 8 -10l-19 -106c-1 -6 -5 -10 -11 -10zM386 556h-104c-6 0 -10 4 -9 10l20 106c1 6 5 10 11 10h105c6 0 9 -4 8 -10l-20 -106c-1 -6 -5 -10 -11 -10zM535 0h-112c-5 0 -9 3 -10 10l-26 258h-2
l-120 -258c-3 -7 -7 -10 -13 -10h-112c-6 0 -10 3 -10 10l-71 467c0 6 3 10 10 10h137c8 0 12 -2 12 -10l18 -265h2l119 265c3 7 8 10 15 10h93c7 0 10 -3 11 -10l27 -265h2l108 265c3 8 7 10 15 10h149c6 0 8 -4 5 -10l-235 -467c-3 -7 -6 -10 -12 -10z" />
    <glyph glyph-name="wgrave" unicode="&#x1e81;" horiz-adv-x="748" 
d="M535 0h-112c-5 0 -9 3 -10 10l-26 258h-2l-120 -258c-3 -7 -7 -10 -13 -10h-112c-6 0 -10 3 -10 10l-71 467c0 6 3 10 10 10h137c8 0 12 -2 12 -10l18 -265h2l119 265c3 7 8 10 15 10h93c7 0 10 -3 11 -10l27 -265h2l108 265c3 8 7 10 15 10h149c6 0 8 -4 5 -10
l-235 -467c-3 -7 -6 -10 -12 -10zM466 546h-100c-8 0 -13 3 -18 10l-74 136c-3 5 1 10 7 10h125c8 0 13 -3 15 -10l53 -136c2 -6 -2 -10 -8 -10z" />
    <glyph glyph-name="yacute" unicode="&#xfd;" horiz-adv-x="516" 
d="M60 -180h-36c-6 0 -9 4 -8 10l20 113c1 6 6 10 12 10h24c32 0 50 11 67 44l16 32l-98 448c-1 6 2 10 8 10h145c6 0 9 -3 10 -10l40 -253h2l122 253c3 7 7 10 14 10h149c6 0 9 -5 6 -11l-299 -531c-54 -97 -103 -125 -194 -125zM355 546h-110c-6 0 -8 5 -4 10l101 136
c5 7 11 10 19 10h134c6 0 8 -5 3 -10l-123 -136c-7 -7 -12 -10 -20 -10z" />
    <glyph glyph-name="ycircumflex" unicode="&#x177;" horiz-adv-x="516" 
d="M60 -180h-36c-6 0 -9 4 -8 10l20 113c1 6 6 10 12 10h24c32 0 50 11 67 44l16 32l-98 448c-1 6 2 10 8 10h145c6 0 9 -3 10 -10l40 -253h2l122 253c3 7 7 10 14 10h149c6 0 9 -5 6 -11l-299 -531c-54 -97 -103 -125 -194 -125zM483 545h-87c-10 0 -14 2 -20 10l-38 52h-2
l-57 -52c-8 -7 -14 -10 -24 -10h-95c-6 0 -8 5 -4 10l129 137c6 7 12 9 20 9h87c8 0 13 -2 17 -9l80 -137c3 -5 0 -10 -6 -10z" />
    <glyph glyph-name="ydieresis" unicode="&#xff;" horiz-adv-x="516" 
d="M60 -180h-36c-6 0 -9 4 -8 10l20 113c1 6 6 10 12 10h24c32 0 50 11 67 44l16 32l-98 448c-1 6 2 10 8 10h145c6 0 9 -3 10 -10l40 -253h2l122 253c3 7 7 10 14 10h149c6 0 9 -5 6 -11l-299 -531c-54 -97 -103 -125 -194 -125zM472 556h-105c-6 0 -10 4 -9 10l20 106
c1 6 6 10 12 10h104c6 0 9 -4 8 -10l-19 -106c-1 -6 -5 -10 -11 -10zM273 556h-104c-6 0 -10 4 -9 10l20 106c1 6 5 10 11 10h105c6 0 9 -4 8 -10l-20 -106c-1 -6 -5 -10 -11 -10z" />
    <glyph glyph-name="ygrave" unicode="&#x1ef3;" horiz-adv-x="516" 
d="M60 -180h-36c-6 0 -9 4 -8 10l20 113c1 6 6 10 12 10h24c32 0 50 11 67 44l16 32l-98 448c-1 6 2 10 8 10h145c6 0 9 -3 10 -10l40 -253h2l122 253c3 7 7 10 14 10h149c6 0 9 -5 6 -11l-299 -531c-54 -97 -103 -125 -194 -125zM352 546h-100c-8 0 -13 3 -18 10l-74 136
c-3 5 1 10 7 10h125c8 0 13 -3 15 -10l53 -136c2 -6 -2 -10 -8 -10z" />
    <glyph glyph-name="zacute" unicode="&#x17a;" horiz-adv-x="477" 
d="M341 546h-110c-6 0 -8 5 -4 10l101 136c5 7 11 10 19 10h134c6 0 8 -5 3 -10l-123 -136c-7 -7 -12 -10 -20 -10zM394 0h-384c-5 0 -8 4 -7 10l18 106c1 5 3 9 6 12l247 229v2h-189c-5 0 -8 4 -7 10l19 108c1 6 5 10 11 10h372c5 0 8 -4 7 -10l-18 -108
c-1 -5 -3 -8 -6 -12l-246 -226v-2h199c6 0 9 -4 8 -10l-19 -109c-1 -6 -5 -10 -11 -10z" />
    <glyph glyph-name="zcaron" unicode="&#x17e;" horiz-adv-x="477" 
d="M338 542h-87c-8 0 -13 3 -17 10l-80 136c-3 5 0 10 6 10h87c9 0 14 -2 20 -10l38 -51h2l57 51c8 8 14 10 24 10h95c6 0 8 -5 4 -10l-129 -136c-6 -7 -12 -10 -20 -10zM394 0h-384c-5 0 -8 4 -7 10l18 106c1 5 3 9 6 12l247 229v2h-189c-5 0 -8 4 -7 10l19 108
c1 6 5 10 11 10h372c5 0 8 -4 7 -10l-18 -108c-1 -5 -3 -8 -6 -12l-246 -226v-2h199c6 0 9 -4 8 -10l-19 -109c-1 -6 -5 -10 -11 -10z" />
    <glyph glyph-name="zdotaccent" unicode="&#x17c;" horiz-adv-x="477" 
d="M394 0h-384c-5 0 -8 4 -7 10l18 106c1 5 3 9 6 12l247 229v2h-189c-5 0 -8 4 -7 10l19 108c1 6 5 10 11 10h372c5 0 8 -4 7 -10l-18 -108c-1 -5 -3 -8 -6 -12l-246 -226v-2h199c6 0 9 -4 8 -10l-19 -109c-1 -6 -5 -10 -11 -10zM364 553h-134c-6 0 -9 4 -8 10l20 107
c1 6 5 10 11 10h133c6 0 9 -4 8 -10l-19 -107c-1 -6 -5 -10 -11 -10z" />
    <glyph glyph-name="f_i" unicode="&#xf001;" horiz-adv-x="604" 
d="M188 0h-142c-6 0 -10 4 -9 10l61 355c1 4 -1 6 -5 6h-27c-6 0 -8 4 -7 10l17 96c1 6 5 10 10 10h28c4 0 6 2 7 6l3 16c22 124 81 171 204 171h63c5 0 9 -4 8 -10l-19 -103c-1 -6 -5 -10 -10 -10h-28c-39 0 -52 -10 -58 -46l-3 -17c-1 -5 1 -7 5 -7h69c6 0 10 -4 9 -10
l-18 -96c-1 -6 -5 -10 -11 -10h-69c-4 0 -6 -2 -7 -6l-61 -355c-1 -6 -5 -10 -10 -10zM604 553h-143c-6 0 -9 4 -8 10l19 107c1 6 5 10 11 10h143c6 0 9 -4 8 -10l-19 -107c-1 -6 -5 -10 -11 -10zM507 0h-143c-5 0 -9 4 -8 10l82 467c1 6 6 10 11 10h143c6 0 9 -4 8 -10
l-82 -467c-1 -6 -5 -10 -11 -10z" />
    <glyph glyph-name="f_l" unicode="&#xf002;" horiz-adv-x="644" 
d="M188 0h-142c-6 0 -10 4 -9 10l61 355c1 4 -1 6 -5 6h-27c-6 0 -8 4 -7 10l17 96c1 6 5 10 10 10h28c4 0 6 2 7 6l3 16c22 124 81 171 204 171h63c5 0 9 -4 8 -10l-19 -103c-1 -6 -5 -10 -10 -10h-28c-39 0 -52 -10 -58 -46l-3 -17c-1 -5 1 -7 5 -7h69c6 0 10 -4 9 -10
l-18 -96c-1 -6 -5 -10 -11 -10h-69c-4 0 -6 -2 -7 -6l-61 -355c-1 -6 -5 -10 -10 -10zM571 -6h-58c-122 0 -153 51 -133 168l92 508c1 6 5 10 10 10h143c6 0 10 -4 9 -10l-90 -493c-5 -33 3 -47 32 -47h19c5 0 9 -4 8 -10l-20 -116c-1 -6 -6 -10 -12 -10z" />
    <glyph glyph-name="grave.cap" horiz-adv-x="475" 
d="M447 747h-106c-8 0 -12 3 -18 10l-101 122c-4 5 -1 10 5 10h129c9 0 14 -3 19 -10l78 -122c3 -5 0 -10 -6 -10z" />
    <glyph glyph-name="acute" unicode="&#xb4;" horiz-adv-x="475" 
d="M296 546h-110c-6 0 -8 5 -4 10l101 136c5 7 11 10 19 10h134c6 0 8 -5 3 -10l-123 -136c-7 -7 -12 -10 -20 -10z" />
    <glyph glyph-name="acute.cap" horiz-adv-x="475" 
d="M321 747h-109c-6 0 -8 5 -4 10l119 122c6 6 13 10 22 10h135c6 0 9 -5 4 -10l-145 -122c-8 -7 -13 -10 -22 -10z" />
    <glyph glyph-name="circumflex" unicode="&#x2c6;" horiz-adv-x="475" 
d="M457 545h-87c-10 0 -14 2 -20 10l-38 52h-2l-57 -52c-8 -7 -14 -10 -24 -10h-95c-6 0 -8 5 -4 10l129 137c6 7 12 9 20 9h87c8 0 13 -2 17 -9l80 -137c3 -5 0 -10 -6 -10z" />
    <glyph glyph-name="circumflex.cap" horiz-adv-x="475" 
d="M491 742h-87c-9 0 -13 2 -19 10l-39 51h-1l-58 -51c-8 -8 -13 -10 -24 -10h-95c-6 0 -8 5 -3 10l128 136c6 7 12 10 20 10h87c9 0 13 -3 17 -10l80 -136c3 -5 0 -10 -6 -10z" />
    <glyph glyph-name="caron" unicode="&#x2c7;" horiz-adv-x="475" 
d="M338 542h-87c-8 0 -13 3 -17 10l-80 136c-3 5 0 10 6 10h87c9 0 14 -2 20 -10l38 -51h2l57 51c8 8 14 10 24 10h95c6 0 8 -5 4 -10l-129 -136c-6 -7 -12 -10 -20 -10z" />
    <glyph glyph-name="caron.cap" horiz-adv-x="475" 
d="M372 736h-86c-9 0 -14 3 -18 10l-80 136c-3 5 0 10 6 10h87c10 0 14 -2 20 -10l38 -51h2l57 51c8 8 14 10 24 10h95c6 0 8 -5 4 -10l-129 -136c-6 -7 -12 -10 -20 -10z" />
    <glyph glyph-name="caron.alt" horiz-adv-x="475" 
d="M235 476c-8 0 -11 5 -10 12l32 182c1 6 5 10 11 10h105c6 0 10 -4 9 -10l-17 -92c-1 -9 -5 -16 -12 -21l-102 -74c-7 -5 -11 -7 -16 -7z" />
    <glyph glyph-name="tilde" unicode="&#x2dc;" horiz-adv-x="475" 
d="M365 548c-35 0 -55 10 -78 23c-19 12 -34 18 -54 18c-28 0 -51 -12 -78 -33c-6 -4 -11 -1 -10 5l14 78c2 10 5 15 13 21c26 23 53 36 84 36c34 0 55 -10 78 -23c19 -12 34 -18 54 -18c28 0 51 12 78 33c6 4 11 1 10 -5l-14 -78c-2 -10 -6 -15 -13 -22
c-26 -22 -53 -35 -84 -35z" />
    <glyph glyph-name="tilde.cap" horiz-adv-x="475" 
d="M399 742c-35 0 -55 10 -78 24c-19 11 -34 17 -54 17c-28 0 -51 -11 -78 -32c-6 -4 -11 -1 -10 4l14 78c2 11 5 15 13 22c26 22 53 36 84 36c34 0 55 -11 78 -24c19 -12 34 -17 54 -17c28 0 51 11 78 32c6 4 11 1 10 -4l-14 -79c-2 -10 -6 -15 -13 -21
c-26 -23 -53 -36 -84 -36z" />
    <glyph glyph-name="dieresis" unicode="&#xa8;" horiz-adv-x="475" 
d="M451 556h-105c-6 0 -10 4 -9 10l20 106c1 6 6 10 12 10h104c6 0 9 -4 8 -10l-19 -106c-1 -6 -5 -10 -11 -10zM252 556h-104c-6 0 -10 4 -9 10l20 106c1 6 5 10 11 10h105c6 0 9 -4 8 -10l-20 -106c-1 -6 -5 -10 -11 -10z" />
    <glyph glyph-name="dieresis.cap" horiz-adv-x="475" 
d="M485 752h-105c-6 0 -9 4 -8 10l19 107c1 6 6 10 12 10h104c6 0 9 -4 8 -10l-19 -107c-1 -6 -5 -10 -11 -10zM287 752h-105c-6 0 -10 4 -9 10l20 107c1 6 6 10 12 10h104c6 0 9 -4 8 -10l-19 -107c-1 -6 -5 -10 -11 -10z" />
    <glyph glyph-name="macron" unicode="&#xaf;" horiz-adv-x="475" 
d="M447 566h-291c-6 0 -9 4 -8 10l15 87c1 6 5 10 11 10h291c6 0 9 -4 8 -10l-15 -87c-1 -6 -5 -10 -11 -10z" />
    <glyph glyph-name="macron.cap" horiz-adv-x="475" 
d="M481 763h-291c-6 0 -9 4 -8 10l15 87c1 6 5 10 11 10h291c6 0 9 -4 8 -10l-15 -87c-1 -6 -5 -10 -11 -10z" />
    <glyph glyph-name="uni02C9" unicode="&#x2c9;" horiz-adv-x="475" 
d="M481 763h-291c-6 0 -9 4 -8 10l15 87c1 6 5 10 11 10h291c6 0 9 -4 8 -10l-15 -87c-1 -6 -5 -10 -11 -10z" />
    <glyph glyph-name="breve" unicode="&#x2d8;" horiz-adv-x="475" 
d="M297 540c-89 0 -143 59 -132 138c1 7 5 12 13 12h62c8 0 12 -3 14 -11c5 -27 24 -41 58 -41c35 0 60 14 75 41c4 8 9 11 17 11h62c7 0 11 -5 10 -11c-15 -78 -93 -139 -179 -139z" />
    <glyph glyph-name="breve.cap" horiz-adv-x="475" 
d="M332 735c-89 0 -143 59 -132 138c1 7 5 12 13 12h62c8 0 12 -3 14 -11c5 -27 24 -41 58 -41c35 0 60 14 75 41c4 8 9 11 17 11h62c7 0 11 -5 10 -11c-15 -78 -93 -139 -179 -139z" />
    <glyph glyph-name="ring" unicode="&#x2da;" horiz-adv-x="475" 
d="M294 520c-56 0 -95 37 -95 90c0 73 53 134 132 134c56 0 94 -37 94 -90c0 -73 -52 -134 -131 -134zM304 586c28 0 51 24 51 56c0 21 -13 36 -35 36c-28 0 -51 -24 -51 -56c0 -21 14 -36 35 -36z" />
    <glyph glyph-name="ring.cap" horiz-adv-x="475" 
d="M327 706c-56 0 -95 37 -95 90c0 73 53 134 132 134c56 0 95 -37 95 -90c0 -73 -53 -134 -132 -134zM337 772c28 0 51 24 51 57c0 20 -13 35 -34 35c-28 0 -51 -24 -51 -56c0 -21 13 -36 34 -36z" />
    <glyph glyph-name="hungarumlaut" unicode="&#x2dd;" horiz-adv-x="475" 
d="M386 544h-93c-5 0 -8 4 -4 10l91 136c4 6 10 10 18 10h108c6 0 9 -5 5 -10l-106 -136c-5 -8 -11 -10 -19 -10zM209 544h-93c-5 0 -8 4 -4 10l91 136c4 6 10 10 18 10h108c6 0 9 -5 5 -10l-106 -136c-6 -8 -11 -10 -19 -10z" />
    <glyph glyph-name="hungarumlaut.cap" horiz-adv-x="475" 
d="M416 748h-91c-6 0 -9 5 -5 10l94 118c4 7 10 10 18 10h108c6 0 9 -5 5 -10l-108 -118c-6 -7 -12 -10 -21 -10zM238 748h-92c-6 0 -8 5 -4 10l94 118c4 7 10 10 18 10h108c6 0 9 -5 5 -10l-108 -118c-6 -7 -12 -10 -21 -10z" />
    <glyph glyph-name="dotaccent" unicode="&#x2d9;" horiz-adv-x="475" 
d="M366 553h-134c-6 0 -9 4 -8 10l20 107c1 6 5 10 11 10h133c6 0 9 -4 8 -10l-19 -107c-1 -6 -5 -10 -11 -10z" />
    <glyph glyph-name="dotaccent.cap" horiz-adv-x="475" 
d="M400 752h-133c-6 0 -9 4 -8 10l19 107c1 6 5 10 11 10h133c6 0 9 -4 8 -10l-19 -107c-1 -6 -5 -10 -11 -10z" />
    <glyph glyph-name="cedilla" unicode="&#xb8;" horiz-adv-x="475" 
d="M201 -165h-111c-6 0 -8 4 -5 10l88 155c4 7 8 10 16 10h96c6 0 9 -4 6 -10l-73 -155c-3 -7 -9 -10 -17 -10z" />
    <glyph glyph-name="ogonek" unicode="&#x2db;" horiz-adv-x="475" 
d="M165 -190c-57 0 -92 31 -92 78s28 81 71 112c10 7 17 10 27 10h119c7 0 7 -8 1 -10c-75 -34 -94 -53 -94 -71c0 -8 4 -13 14 -13c7 0 15 3 24 8c5 3 11 2 13 -3l24 -68c2 -5 1 -10 -5 -13c-36 -22 -70 -30 -102 -30z" />
    <glyph glyph-name="commaaccent" horiz-adv-x="475" 
d="M102 -244c-7 0 -10 4 -9 11l31 177c1 6 5 10 11 10h115c6 0 10 -4 9 -10l-15 -87c-2 -11 -5 -16 -13 -21l-112 -73c-8 -5 -12 -7 -17 -7z" />
    <glyph glyph-name="commaaccent.alt" horiz-adv-x="475" 
d="M356 550h-115c-6 0 -9 4 -8 10l14 87c2 9 6 16 14 21l111 73c8 5 12 8 17 8c7 0 10 -5 9 -13l-30 -176c-1 -6 -6 -10 -12 -10z" />
    <glyph glyph-name="ellipsis" unicode="&#x2026;" horiz-adv-x="735" 
d="M644 0h-133c-6 0 -10 4 -9 10l23 134c1 6 5 10 11 10h133c6 0 10 -4 9 -10l-23 -134c-1 -6 -5 -10 -11 -10zM399 0h-133c-6 0 -10 4 -9 10l23 134c1 6 5 10 11 10h133c6 0 10 -4 9 -10l-23 -134c-1 -6 -5 -10 -11 -10zM154 0h-133c-6 0 -10 4 -9 10l23 134
c1 6 5 10 11 10h133c6 0 10 -4 9 -10l-23 -134c-1 -6 -5 -10 -11 -10z" />
    <glyph glyph-name="uni00AD" unicode="&#xad;" horiz-adv-x="387" 
d="M337 197h-291c-6 0 -9 4 -8 10l21 121c1 6 6 10 12 10h291c6 0 9 -4 8 -10l-21 -121c-1 -6 -6 -10 -12 -10z" />
    <glyph glyph-name="exclamdown" unicode="&#xa1;" horiz-adv-x="305" 
d="M219 279c6 0 9 -4 8 -10l-57 -452c-1 -6 -5 -10 -10 -10h-148c-6 0 -9 4 -8 10l103 452c1 6 5 10 10 10h102zM278 477l-21 -123c-1 -6 -6 -10 -12 -10h-132c-6 0 -9 4 -8 10l21 123c1 6 5 10 11 10h133c6 0 9 -4 8 -10z" />
    <glyph glyph-name="questiondown" unicode="&#xbf;" horiz-adv-x="481" 
d="M322 279c6 0 10 -4 9 -10l-8 -41c-7 -36 -19 -61 -45 -85l-69 -70c-45 -42 -60 -66 -60 -96c0 -27 16 -46 45 -46c35 0 60 25 76 63c2 6 7 9 13 8l120 -17c6 -1 8 -5 6 -11c-33 -106 -123 -179 -241 -179c-113 0 -179 68 -179 155c0 70 34 119 96 178l61 63
c20 20 26 33 31 60l4 18c1 6 5 10 10 10h131zM367 477l-21 -123c-1 -6 -6 -10 -11 -10h-133c-6 0 -10 4 -9 10l22 123c1 6 5 10 11 10h133c5 0 9 -4 8 -10z" />
    <glyph glyph-name="quoteleft" unicode="&#x2018;" horiz-adv-x="232" 
d="M215 459h-109c-6 0 -10 4 -9 10l20 113c2 11 5 16 13 22l105 70c7 5 13 8 17 8c8 0 11 -5 10 -12l-36 -201c-1 -6 -5 -10 -11 -10z" />
    <glyph glyph-name="quoteright" unicode="&#x2019;" horiz-adv-x="232" 
d="M106 457c-7 0 -10 4 -9 12l36 201c1 6 5 10 11 10h109c6 0 10 -4 9 -10l-20 -113c-2 -11 -6 -17 -14 -22l-104 -71c-8 -5 -13 -7 -18 -7z" />
    <glyph glyph-name="quotedblleft" unicode="&#x201c;" horiz-adv-x="422" 
d="M406 459h-110c-6 0 -9 4 -8 10l20 113c2 11 5 16 13 22l105 70c7 5 13 8 17 8c7 0 10 -5 9 -12l-35 -201c-1 -6 -5 -10 -11 -10zM215 459h-109c-6 0 -10 4 -9 10l20 113c2 11 5 16 13 22l105 70c7 5 13 8 17 8c8 0 11 -5 10 -12l-36 -201c-1 -6 -5 -10 -11 -10z" />
    <glyph glyph-name="quotedblright" unicode="&#x201d;" horiz-adv-x="422" 
d="M297 457c-7 0 -10 4 -9 12l35 201c1 6 5 10 11 10h110c6 0 9 -4 8 -10l-19 -113c-2 -11 -6 -17 -14 -22l-104 -71c-8 -5 -13 -7 -18 -7zM106 457c-7 0 -10 4 -9 12l36 201c1 6 5 10 11 10h109c6 0 10 -4 9 -10l-20 -113c-2 -11 -6 -17 -14 -22l-104 -71
c-8 -5 -13 -7 -18 -7z" />
    <glyph glyph-name="quotesinglbase" unicode="&#x201a;" horiz-adv-x="231" 
d="M10 -89c-7 0 -10 5 -9 12l35 201c1 6 5 10 11 10h110c6 0 9 -4 8 -10l-20 -113c-2 -11 -5 -16 -13 -22l-105 -70c-7 -5 -13 -8 -17 -8z" />
    <glyph glyph-name="quotedblbase" unicode="&#x201e;" horiz-adv-x="422" 
d="M201 -89c-8 0 -11 5 -10 12l36 201c1 6 5 10 11 10h109c6 0 10 -4 9 -10l-20 -113c-2 -11 -5 -16 -13 -22l-105 -70c-7 -5 -13 -8 -17 -8zM10 -89c-7 0 -10 5 -9 12l35 201c1 6 5 10 11 10h110c6 0 9 -4 8 -10l-20 -113c-2 -11 -5 -16 -13 -22l-105 -70
c-7 -5 -13 -8 -17 -8z" />
    <glyph glyph-name="guilsinglleft" unicode="&#x2039;" horiz-adv-x="317" 
d="M219 27l-188 230c-3 4 -3 10 2 14l270 231c5 4 10 1 9 -5l-24 -137c-2 -9 -5 -14 -14 -22l-88 -78c-4 -3 -4 -5 -2 -8l61 -78c6 -8 8 -13 6 -22l-21 -123c-1 -6 -7 -7 -11 -2z" />
    <glyph glyph-name="guilsinglright" unicode="&#x203a;" horiz-adv-x="317" 
d="M32 26c-4 -4 -10 -1 -9 5l25 137c2 9 4 14 13 22l89 78c4 3 4 5 2 8l-61 78c-7 8 -8 13 -6 22l21 123c1 6 7 7 11 2l187 -230c3 -4 3 -10 -2 -14z" />
    <glyph glyph-name="guillemotleft" unicode="&#xab;" horiz-adv-x="569" 
d="M471 27l-187 230c-3 4 -3 10 2 14l270 231c4 4 10 1 9 -5l-25 -137c-2 -9 -5 -14 -14 -22l-88 -78c-4 -3 -4 -5 -2 -8l61 -78c7 -8 8 -13 6 -22l-21 -123c-1 -6 -7 -7 -11 -2zM219 27l-188 230c-3 4 -3 10 2 14l270 231c5 4 10 1 9 -5l-24 -137c-2 -9 -5 -14 -14 -22
l-88 -78c-4 -3 -4 -5 -2 -8l61 -78c6 -8 8 -13 6 -22l-21 -123c-1 -6 -7 -7 -11 -2z" />
    <glyph glyph-name="guillemotright" unicode="&#xbb;" horiz-adv-x="569" 
d="M285 26c-5 -4 -10 -1 -9 5l24 137c2 9 5 14 14 22l88 78c4 3 4 5 2 8l-61 78c-6 8 -8 13 -6 22l21 123c1 6 7 7 11 2l187 -230c3 -4 3 -10 -2 -14zM32 26c-4 -4 -10 -1 -9 5l25 137c2 9 4 14 13 22l89 78c4 3 4 5 2 8l-61 78c-7 8 -8 13 -6 22l21 123c1 6 7 7 11 2
l187 -230c3 -4 3 -10 -2 -14z" />
    <glyph glyph-name="endash" unicode="&#x2013;" horiz-adv-x="533" 
d="M503 197h-475c-6 0 -9 4 -8 10l20 116c1 6 6 10 12 10h475c5 0 8 -4 7 -10l-20 -116c-1 -6 -6 -10 -11 -10z" />
    <glyph glyph-name="emdash" unicode="&#x2014;" horiz-adv-x="890" 
d="M859 197h-831c-6 0 -9 4 -8 10l20 116c1 6 6 10 12 10h832c5 0 8 -4 7 -10l-21 -116c-1 -6 -6 -10 -11 -10z" />
    <glyph glyph-name="bullet" unicode="&#x2022;" horiz-adv-x="430" 
d="M236 148c-92 0 -160 68 -160 161c0 92 68 160 160 160s160 -68 160 -160c0 -93 -68 -161 -160 -161z" />
    <glyph glyph-name="periodcentered" unicode="&#xb7;" horiz-adv-x="245" 
d="M186 188h-133c-6 0 -10 4 -9 10l23 134c1 6 5 10 11 10h134c6 0 10 -4 9 -10l-24 -134c-1 -6 -5 -10 -11 -10z" />
    <glyph glyph-name="uni2219" unicode="&#x2219;" horiz-adv-x="245" 
d="M186 188h-133c-6 0 -10 4 -9 10l23 134c1 6 5 10 11 10h134c6 0 10 -4 9 -10l-24 -134c-1 -6 -5 -10 -11 -10z" />
    <glyph glyph-name="dagger" unicode="&#x2020;" horiz-adv-x="543" 
d="M278 -180h-142c-6 0 -10 4 -8 10l87 489c0 4 -1 6 -5 6h-140c-5 0 -9 4 -8 10l23 123c1 6 5 10 10 10h139c4 0 7 2 8 6l34 196c1 6 5 10 11 10h142c6 0 10 -4 9 -10l-35 -196c-1 -4 0 -6 4 -6h139c6 0 10 -4 9 -10l-23 -123c-1 -6 -5 -10 -11 -10h-138c-4 0 -7 -2 -8 -6
l-85 -489c-2 -6 -6 -10 -12 -10z" />
    <glyph glyph-name="daggerdbl" unicode="&#x2021;" horiz-adv-x="543" 
d="M278 -180h-142c-6 0 -10 4 -8 10l29 160c1 4 -1 6 -5 6h-139c-6 0 -9 4 -8 10l22 123c1 6 6 10 11 10h139c4 0 6 2 7 6l37 210c1 4 -1 6 -5 6h-139c-6 0 -9 4 -8 10l22 123c1 6 6 10 11 10h139c4 0 6 2 7 6l28 160c1 6 5 10 11 10h142c6 0 10 -4 9 -10l-29 -160
c-1 -4 1 -6 5 -6h139c6 0 9 -4 8 -10l-22 -123c-1 -6 -6 -10 -12 -10h-138c-4 0 -6 -2 -7 -6l-37 -210c-1 -4 0 -6 4 -6h140c6 0 9 -4 8 -10l-22 -123c-1 -6 -5 -10 -11 -10h-140c-4 0 -6 -2 -7 -6l-27 -160c-2 -6 -6 -10 -12 -10z" />
    <glyph glyph-name="section" unicode="&#xa7;" horiz-adv-x="510" 
d="M181 -194c-118 0 -167 66 -165 149c0 7 4 12 10 13l121 17c6 1 9 -2 9 -8c-1 -32 10 -51 44 -51c33 0 59 23 59 63c0 29 -19 48 -81 66c-85 26 -126 73 -126 149c0 86 39 152 111 195v2c-28 23 -41 56 -41 91c0 116 98 202 221 202c120 0 170 -74 163 -151
c-1 -8 -5 -11 -12 -12l-117 -17c-5 -1 -9 2 -9 7c1 32 -12 53 -43 53c-34 0 -57 -25 -57 -60c0 -28 21 -48 79 -65c84 -26 127 -74 127 -152c0 -79 -40 -150 -111 -192v-2c28 -22 42 -55 42 -93c0 -122 -97 -204 -224 -204zM250 178c46 0 78 45 78 93c0 34 -19 55 -52 55
c-47 0 -79 -45 -79 -93c0 -34 19 -55 53 -55z" />
    <glyph glyph-name="paragraph" unicode="&#xb6;" horiz-adv-x="654" 
d="M512 -180h-110c-5 0 -8 4 -7 10l129 734c1 4 -1 6 -5 6h-67c-4 0 -6 -2 -7 -6l-129 -734c-1 -6 -5 -10 -11 -10h-110c-5 0 -8 4 -7 10l68 388c-109 7 -177 85 -169 199c8 146 123 263 282 263h294c6 0 9 -4 8 -10l-148 -840c-1 -6 -5 -10 -11 -10z" />
    <glyph glyph-name="brokenbar" unicode="&#xa6;" horiz-adv-x="330" 
d="M248 388h-121c-6 0 -10 4 -10 10v332c0 6 4 10 10 10h121c6 0 10 -4 10 -10v-332c0 -6 -4 -10 -10 -10zM248 -84h-121c-6 0 -10 4 -10 10v336c0 6 4 10 10 10h121c6 0 10 -4 10 -10v-336c0 -6 -4 -10 -10 -10z" />
    <glyph glyph-name="copyright" unicode="&#xa9;" horiz-adv-x="795" 
d="M421 -13c-202 0 -353 151 -353 352c0 202 151 353 353 353c201 0 352 -151 352 -353c0 -201 -151 -352 -352 -352zM421 68c156 0 268 115 268 271c0 157 -112 272 -268 272c-157 0 -269 -115 -269 -272c0 -156 112 -271 269 -271zM428 145c-82 0 -148 37 -172 111
c-7 20 -10 44 -10 85c0 40 3 63 10 84c24 74 90 111 172 111c74 0 132 -36 157 -83c3 -5 2 -11 -4 -13l-82 -42c-6 -4 -11 -1 -14 3c-14 23 -29 33 -53 33c-26 0 -45 -13 -53 -37c-4 -10 -5 -21 -5 -56c0 -36 1 -47 5 -57c8 -24 27 -37 53 -37c24 0 39 9 53 33c3 5 8 7 14 3
l82 -41c6 -3 7 -9 4 -14c-25 -47 -83 -83 -157 -83z" />
    <glyph glyph-name="registered" unicode="&#xae;" horiz-adv-x="439" 
d="M269 301c-110 0 -193 83 -193 192c0 108 83 191 193 191c109 0 193 -83 193 -191c0 -109 -84 -192 -193 -192zM269 341c86 0 149 63 149 152c0 88 -63 151 -149 151s-149 -63 -149 -151c0 -89 63 -152 149 -152zM240 388h-48c-5 0 -7 2 -7 7v198c0 5 2 7 7 7h93
c53 0 81 -27 81 -69c0 -28 -13 -50 -38 -61l38 -75c1 -3 0 -7 -5 -7h-53c-5 0 -7 2 -9 7l-31 66h-17c-3 0 -4 -1 -4 -4v-62c0 -5 -3 -7 -7 -7zM278 509c17 0 26 7 26 21s-9 22 -26 22h-27c-3 0 -4 -1 -4 -4v-34c0 -3 1 -5 4 -5h27z" />
    <glyph glyph-name="trademark" unicode="&#x2122;" horiz-adv-x="840" 
d="M831 286h-76c-6 0 -10 4 -10 10v192h-2l-61 -137c-3 -7 -7 -10 -14 -10h-45c-7 0 -11 3 -14 10l-60 137h-3v-192c0 -6 -4 -10 -10 -10h-75c-6 0 -10 4 -10 10v374c0 6 4 10 10 10h78c6 0 11 -3 14 -10l92 -204h4l90 204c3 7 8 10 15 10h77c6 0 10 -4 10 -10v-374
c0 -6 -4 -10 -10 -10zM286 286h-85c-6 0 -10 4 -10 10v286c0 4 -2 6 -6 6h-93c-6 0 -10 4 -10 10v72c0 6 4 10 10 10h303c6 0 10 -4 10 -10v-72c0 -6 -4 -10 -10 -10h-93c-4 0 -6 -2 -6 -6v-286c0 -6 -4 -10 -10 -10z" />
    <glyph glyph-name="currency" unicode="&#xa4;" 
d="M497 118l-90 -76c-6 -5 -11 -4 -14 0l-46 57c-29 -14 -62 -21 -96 -21c-31 0 -60 7 -84 20l-68 -59c-5 -4 -11 -4 -14 0l-69 83c-3 5 -2 9 3 14l70 61c-4 16 -6 32 -6 50c0 47 15 93 40 132l-48 60c-4 4 -3 9 3 14l90 76c5 5 11 4 14 0l46 -58c29 13 61 21 95 21
c31 0 58 -7 82 -20l71 61c4 4 10 4 14 0l69 -83c3 -4 2 -10 -3 -14l-72 -63c5 -15 7 -32 7 -49c0 -48 -14 -94 -39 -133l48 -59c4 -5 3 -10 -3 -14zM270 193c58 0 102 55 102 112c0 42 -26 73 -68 73c-57 0 -102 -56 -102 -113c0 -42 27 -72 68 -72z" />
    <glyph glyph-name="Euro" unicode="&#x20ac;" 
d="M276 -12c-116 0 -189 57 -189 176c0 20 3 44 7 70c1 4 -1 6 -5 6h-37c-6 0 -9 4 -8 10l11 60c1 6 5 10 11 10h38c3 0 6 2 7 6l5 32c1 4 -1 6 -5 6h-37c-6 0 -9 4 -8 10l11 59c1 6 5 10 11 10h37c4 0 6 2 7 6c7 42 17 74 31 101c46 93 127 142 237 142
c105 0 160 -53 179 -124c2 -7 0 -11 -7 -14l-121 -50c-6 -2 -12 -1 -14 6c-9 30 -25 48 -57 48c-28 0 -51 -15 -67 -47c-6 -12 -14 -40 -18 -62c-1 -4 2 -6 5 -6h146c6 0 10 -4 9 -10l-21 -59c-2 -7 -6 -10 -12 -10h-136c-4 0 -6 -2 -7 -6l-5 -32c-1 -4 1 -6 5 -6h126
c6 0 10 -3 8 -10l-21 -60c-2 -7 -6 -10 -12 -10h-115c-4 0 -6 -2 -7 -6c-5 -26 -7 -42 -7 -52c0 -37 14 -60 51 -60c30 0 55 18 75 49c4 6 10 8 15 5l105 -50c6 -3 7 -8 3 -14c-45 -73 -119 -124 -224 -124z" />
    <glyph glyph-name="cent" unicode="&#xa2;" 
d="M473 96c-41 -61 -98 -96 -177 -105l-13 -78c-1 -6 -6 -10 -12 -10h-76c-6 0 -9 4 -8 10l14 80c-84 17 -138 77 -138 171c0 56 11 135 42 199c37 77 103 120 184 132l14 78c1 6 6 10 12 10h76c6 0 9 -4 8 -10l-14 -78c70 -13 115 -56 130 -110c1 -5 0 -10 -6 -13l-114 -52
c-6 -3 -13 -2 -15 4c-10 30 -27 42 -57 42s-53 -12 -67 -43c-17 -35 -30 -114 -30 -146c0 -35 18 -55 54 -55c27 0 51 13 74 45c4 6 11 6 16 2l101 -60c6 -3 5 -8 2 -13z" />
    <glyph glyph-name="sterling" unicode="&#xa3;" 
d="M452 0h-405c-6 0 -10 4 -9 10l20 112c1 6 4 11 9 14c27 23 40 39 47 81l8 42c1 4 -1 6 -5 6h-32c-6 0 -9 4 -8 10l16 92c1 6 5 10 11 10h32c4 0 7 2 8 6l19 109c23 131 111 200 234 200c107 0 161 -64 158 -148c0 -6 -4 -11 -10 -12l-126 -26c-6 -1 -9 3 -9 8
c-1 29 -12 44 -34 44c-27 0 -45 -19 -50 -55l-21 -120c-1 -4 0 -6 4 -6h121c6 0 10 -4 9 -10l-17 -92c-1 -6 -5 -10 -11 -10h-121c-4 0 -6 -2 -7 -6l-6 -32c-6 -41 -23 -71 -44 -90l-1 -2h243c6 0 10 -4 9 -10l-21 -115c-1 -6 -5 -10 -11 -10z" />
    <glyph glyph-name="florin" unicode="&#x192;" 
d="M452 304h-84l-99 -307c-42 -131 -109 -177 -228 -177h-35c-6 0 -10 4 -9 10l20 113c1 6 5 10 11 10h21c35 0 54 15 65 53l97 298h-57c-6 0 -9 4 -8 10l18 99c1 6 6 10 12 10h74l26 80c43 131 110 177 227 177h36c6 0 10 -4 9 -10l-20 -113c-1 -6 -6 -10 -12 -10h-21
c-34 0 -53 -14 -65 -53l-23 -71h66c6 0 9 -4 8 -10l-18 -99c-1 -6 -6 -10 -11 -10z" />
    <glyph glyph-name="yen" unicode="&#xa5;" 
d="M308 0h-142c-5 0 -9 4 -8 10l20 114c1 4 -1 6 -5 6h-109c-5 0 -8 4 -7 10l11 60c1 6 5 10 11 10h108c4 0 6 2 7 6l6 30c1 4 -1 6 -5 6h-109c-5 0 -8 4 -7 10l10 60c1 6 5 10 11 10h85v2l-81 336c0 5 2 10 9 10h146c8 0 12 -3 13 -10l37 -244h3l123 244c3 7 8 10 16 10
h150c5 0 8 -5 5 -10l-200 -336v-2h85c6 0 9 -4 8 -10l-11 -60c-1 -6 -5 -10 -11 -10h-109c-4 0 -6 -2 -7 -6l-5 -30c-1 -4 1 -6 5 -6h109c5 0 8 -4 7 -10l-11 -60c-1 -6 -5 -10 -11 -10h-109c-3 0 -5 -2 -6 -6l-21 -114c-1 -6 -5 -10 -11 -10z" />
    <glyph glyph-name="ordfeminine" unicode="&#xaa;" horiz-adv-x="355" 
d="M339 392h-84c-6 0 -10 4 -9 10l3 14h-2c-18 -19 -45 -30 -82 -30c-48 0 -86 23 -86 72c0 69 58 112 145 112h45c4 0 6 2 7 6l1 6c4 18 -8 28 -48 28c-25 0 -53 -9 -70 -18c-5 -3 -11 -2 -13 3l-20 51c-2 5 1 11 6 14c32 18 74 29 123 29c103 0 140 -32 127 -107l-32 -180
c-1 -6 -5 -10 -11 -10zM210 459c29 0 47 9 51 31l2 11c1 4 -1 6 -5 6h-37c-24 0 -38 -11 -38 -29c0 -12 9 -19 27 -19z" />
    <glyph glyph-name="ordmasculine" unicode="&#xba;" horiz-adv-x="375" 
d="M219 383c-78 0 -129 40 -129 114c0 30 8 75 23 107c29 57 85 85 159 85c77 0 129 -40 129 -114c0 -30 -8 -75 -24 -107c-28 -57 -84 -85 -158 -85zM233 471c19 0 33 8 42 26c7 14 14 53 14 67c0 21 -9 37 -32 37c-19 0 -33 -8 -42 -26c-6 -14 -13 -53 -13 -67
c0 -21 8 -37 31 -37z" />
    <glyph glyph-name="fraction" unicode="&#x2044;" horiz-adv-x="237" 
d="M-68 -12h-97c-6 0 -7 5 -3 10l502 684c5 7 9 10 17 10h98c6 0 7 -5 3 -10l-502 -684c-5 -7 -10 -10 -18 -10z" />
    <glyph glyph-name="uni2215" unicode="&#x2215;" horiz-adv-x="237" 
d="M-68 -12h-97c-6 0 -7 5 -3 10l502 684c5 7 9 10 17 10h98c6 0 7 -5 3 -10l-502 -684c-5 -7 -10 -10 -18 -10z" />
    <glyph glyph-name="onequarter" unicode="&#xbc;" horiz-adv-x="868" 
d="M245 -12h-97c-6 0 -7 5 -3 10l502 684c5 7 9 10 17 10h98c6 0 7 -5 3 -10l-502 -684c-5 -7 -10 -10 -18 -10zM277 274h-99c-6 0 -9 4 -8 10l48 274h-2l-70 -39c-5 -3 -10 0 -9 6l16 94c1 7 4 11 12 15l67 40c7 4 13 6 21 6h95c6 0 10 -4 9 -10l-68 -386
c-1 -6 -6 -10 -12 -10zM725 0h-89c-5 0 -8 4 -7 10l6 38c1 4 -1 6 -5 6h-161c-6 0 -9 4 -8 10l13 76c1 7 3 13 8 21l146 235c4 7 9 10 16 10h101c6 0 9 -5 5 -10l-149 -243v-2h47c4 0 6 2 7 6l10 59c1 6 6 10 11 10h89c6 0 9 -4 8 -10l-10 -59c-1 -4 1 -6 4 -6h15
c6 0 8 -4 7 -10l-14 -77c-1 -6 -5 -10 -11 -10h-14c-4 0 -6 -2 -7 -6l-6 -38c-1 -6 -6 -10 -12 -10z" />
    <glyph glyph-name="onehalf" unicode="&#xbd;" horiz-adv-x="904" 
d="M246 -12h-97c-6 0 -7 5 -3 10l502 684c5 7 9 10 17 10h98c6 0 7 -5 3 -10l-502 -684c-5 -7 -10 -10 -18 -10zM277 274h-99c-6 0 -9 4 -8 10l48 274h-2l-70 -39c-5 -3 -10 0 -9 6l16 94c1 7 4 11 12 15l67 40c7 4 13 6 21 6h95c6 0 10 -4 9 -10l-68 -386
c-1 -6 -6 -10 -12 -10zM784 0h-268c-6 0 -9 4 -8 10l14 73c1 7 4 12 11 18l166 139c23 20 31 36 31 55c0 16 -9 25 -26 25s-33 -12 -41 -38c-2 -7 -7 -9 -12 -8l-86 12c-5 1 -7 5 -6 11c16 65 76 116 168 116c76 0 120 -41 120 -102c0 -53 -24 -90 -74 -130l-97 -82v-1h125
c6 0 9 -4 8 -10l-13 -78c-1 -6 -6 -10 -12 -10z" />
    <glyph glyph-name="threequarters" unicode="&#xbe;" horiz-adv-x="925" 
d="M302 -12h-97c-6 0 -7 5 -3 10l502 684c5 7 9 10 17 10h98c6 0 7 -5 3 -10l-502 -684c-5 -7 -10 -10 -18 -10zM782 0h-89c-5 0 -8 4 -7 10l6 38c1 4 -1 6 -5 6h-161c-6 0 -9 4 -8 10l13 76c1 7 3 13 8 21l146 235c4 7 9 10 16 10h101c6 0 9 -5 5 -10l-149 -243v-2h47
c4 0 6 2 7 6l10 59c1 6 6 10 11 10h89c6 0 9 -4 8 -10l-10 -59c-1 -4 1 -6 4 -6h15c6 0 8 -4 7 -10l-14 -77c-1 -6 -5 -10 -11 -10h-14c-4 0 -6 -2 -7 -6l-6 -38c-1 -6 -6 -10 -12 -10zM242 267c-80 0 -127 39 -130 102c0 6 4 11 9 12l88 13c6 1 9 -1 11 -7
c5 -15 15 -27 33 -27c23 0 43 19 43 45c0 20 -13 30 -36 30h-13c-6 0 -9 4 -8 10l12 71c1 6 5 10 12 10h12c24 0 43 16 43 43c0 15 -10 25 -27 25c-18 0 -29 -9 -37 -24c-4 -7 -8 -9 -13 -8l-84 14c-6 1 -8 5 -6 11c21 57 79 100 162 100c81 0 124 -39 124 -94
c0 -43 -20 -78 -61 -102v-1c20 -11 36 -34 36 -69c0 -95 -75 -154 -170 -154z" />
    <glyph glyph-name="perthousand" unicode="&#x2030;" horiz-adv-x="1150" 
d="M224 -12h-97c-6 0 -6 5 -3 10l503 684c5 7 9 10 17 10h98c6 0 7 -5 3 -10l-503 -684c-5 -7 -10 -10 -18 -10zM221 330c-66 0 -116 37 -116 109c0 42 10 123 32 167c26 53 73 82 147 82c66 0 116 -38 116 -110c0 -48 -11 -123 -32 -166c-27 -55 -73 -82 -147 -82zM236 413
c13 0 23 6 30 21c9 17 27 127 27 146c0 15 -8 25 -24 25c-13 0 -23 -6 -30 -21c-9 -17 -27 -127 -27 -146c0 -15 8 -25 24 -25zM913 -8c-66 0 -117 37 -117 109c0 41 11 123 33 167c26 52 72 82 146 82c66 0 117 -38 117 -110c0 -48 -11 -123 -32 -166
c-27 -55 -73 -82 -147 -82zM586 -8c-66 0 -117 37 -117 109c0 41 11 123 32 167c26 52 73 82 147 82c66 0 117 -38 117 -110c0 -48 -12 -123 -33 -166c-27 -55 -72 -82 -146 -82zM927 75c14 0 24 5 31 21c8 17 27 127 27 145c0 16 -9 26 -24 26c-14 0 -24 -6 -31 -21
c-8 -17 -27 -128 -27 -146c0 -16 8 -25 24 -25zM600 75c13 0 23 5 30 21c9 17 27 127 27 145c0 16 -8 26 -24 26c-13 0 -23 -6 -30 -21c-9 -17 -27 -128 -27 -146c0 -16 8 -25 24 -25z" />
    <glyph glyph-name="minus" unicode="&#x2212;" 
d="M502 209h-441c-6 0 -10 4 -10 10v114c0 6 4 10 10 10h441c6 0 10 -4 10 -10v-114c0 -6 -4 -10 -10 -10z" />
    <glyph glyph-name="plusminus" unicode="&#xb1;" 
d="M348 180h-119c-6 0 -10 4 -10 10v147c0 4 -2 6 -6 6h-145c-6 0 -10 4 -10 10v115c0 6 4 10 10 10h145c4 0 6 2 6 6v147c0 6 4 10 10 10h119c6 0 10 -4 10 -10v-147c0 -4 2 -6 6 -6h145c6 0 10 -4 10 -10v-115c0 -6 -4 -10 -10 -10h-145c-4 0 -6 -2 -6 -6v-147
c0 -6 -4 -10 -10 -10zM509 0h-441c-6 0 -10 4 -10 10v115c0 6 4 10 10 10h441c6 0 10 -4 10 -10v-115c0 -6 -4 -10 -10 -10z" />
    <glyph glyph-name="multiply" unicode="&#xd7;" 
d="M494 141l-78 -79c-4 -4 -10 -4 -14 0l-119 118c-3 3 -5 3 -8 0l-118 -118c-4 -4 -10 -4 -14 0l-77 78c-4 4 -4 10 0 14l117 117c3 3 3 6 0 9l-117 117c-4 4 -4 10 0 14l79 79c4 4 10 4 14 0l117 -118c3 -2 6 -2 9 0l118 118c4 4 10 4 14 0l77 -77c4 -5 4 -10 0 -14
l-118 -118c-3 -3 -3 -6 0 -8l118 -118c4 -4 4 -10 0 -14z" />
    <glyph glyph-name="divide" unicode="&#xf7;" 
d="M289 388c-47 0 -83 37 -83 83c0 45 36 82 83 82c45 0 82 -37 82 -82c0 -46 -37 -83 -82 -83zM509 209h-441c-6 0 -10 4 -10 10v114c0 6 4 10 10 10h441c6 0 10 -4 10 -10v-114c0 -6 -4 -10 -10 -10zM289 -1c-47 0 -83 37 -83 82c0 46 36 83 83 83c45 0 82 -37 82 -83
c0 -45 -37 -82 -82 -82z" />
    <glyph glyph-name="notequal" unicode="&#x2260;" 
d="M190 -6h-84c-6 0 -9 5 -6 10l47 95h-79c-6 0 -10 4 -10 10v115c0 6 4 10 10 10h147l42 84h-189c-6 0 -10 4 -10 10v115c0 6 4 10 10 10h257l48 95c3 7 8 10 14 10h84c6 0 9 -5 6 -10l-48 -95h80c6 0 10 -4 10 -10v-115c0 -6 -4 -10 -10 -10h-148l-42 -84h190
c6 0 10 -4 10 -10v-115c0 -6 -4 -10 -10 -10h-258l-47 -95c-3 -7 -8 -10 -14 -10z" />
    <glyph glyph-name="approxequal" unicode="&#x2248;" 
d="M369 293c-44 0 -73 15 -100 33c-23 14 -41 26 -63 26c-29 0 -48 -21 -64 -48c-3 -5 -8 -6 -14 -3l-78 49c-5 4 -6 9 -4 14c29 64 83 111 148 111c44 0 72 -16 100 -34c23 -14 40 -25 64 -25c28 0 47 21 63 47c3 5 9 7 14 3l78 -49c6 -4 7 -8 4 -14
c-29 -64 -83 -110 -148 -110zM369 75c-44 0 -73 16 -100 34c-23 14 -41 25 -63 25c-29 0 -48 -20 -64 -46c-3 -5 -8 -7 -14 -4l-78 49c-5 4 -6 9 -4 14c29 64 83 110 148 110c44 0 72 -15 100 -33c23 -14 40 -26 64 -26c28 0 47 21 63 48c3 5 9 6 14 3l78 -49
c6 -4 7 -8 4 -14c-29 -64 -83 -111 -148 -111z" />
    <glyph glyph-name="lessequal" unicode="&#x2264;" 
d="M504 168l-441 166c-6 2 -10 7 -10 14v99c0 7 4 11 10 13l441 167c6 2 10 -1 10 -7v-124c0 -6 -2 -10 -10 -13l-244 -85v-2l244 -84c8 -3 10 -7 10 -13v-124c0 -6 -4 -9 -10 -7zM504 0h-441c-6 0 -10 4 -10 10v115c0 6 4 10 10 10h441c6 0 10 -4 10 -10v-115
c0 -6 -4 -10 -10 -10z" />
    <glyph glyph-name="greaterequal" unicode="&#x2265;" 
d="M504 334l-441 -166c-6 -2 -10 1 -10 7v124c0 6 3 10 10 13l243 84v2l-243 85c-7 3 -10 7 -10 13v124c0 6 4 9 10 7l441 -167c6 -2 10 -6 10 -13v-99c0 -7 -4 -12 -10 -14zM504 0h-441c-6 0 -10 4 -10 10v115c0 6 4 10 10 10h441c6 0 10 -4 10 -10v-115
c0 -6 -4 -10 -10 -10z" />
    <glyph glyph-name="logicalnot" unicode="&#xac;" 
d="M500 78h-119c-6 0 -10 4 -10 10v115c0 4 -2 6 -6 6h-306c-6 0 -10 4 -10 10v114c0 6 4 10 10 10h441c6 0 10 -4 10 -10v-245c0 -6 -4 -10 -10 -10z" />
    <glyph glyph-name="Delta" unicode="&#x2206;" horiz-adv-x="647" 
d="M599 0h-619c-6 0 -9 4 -6 10l345 660c3 6 7 10 14 10h156c7 0 11 -4 12 -10l106 -660c1 -6 -2 -10 -8 -10zM414 144c4 0 6 2 5 6l-38 330h-2l-156 -329c-2 -4 -1 -7 3 -7h188z" />
    <glyph glyph-name="Omega" unicode="&#x2126;" horiz-adv-x="617" 
d="M524 0h-215c-6 0 -10 4 -9 10l20 113c1 7 5 11 12 14c48 24 68 65 92 203c12 70 16 101 16 121c0 49 -26 79 -76 80c-43 0 -76 -22 -97 -63c-9 -19 -17 -43 -35 -138c-10 -56 -15 -94 -15 -122c0 -45 12 -67 37 -81c5 -3 7 -7 6 -14l-20 -113c-1 -6 -5 -10 -10 -10h-215
c-6 0 -10 4 -9 10l22 118c1 6 5 10 11 10h47v1c-21 20 -34 54 -34 109c0 26 3 57 9 92c18 103 31 146 52 186c57 110 154 166 278 166c133 0 221 -71 221 -212c0 -32 -6 -73 -17 -140c-19 -111 -52 -172 -94 -201l-1 -1h47c5 0 9 -4 8 -10l-21 -118c-1 -6 -5 -10 -10 -10z
" />
    <glyph glyph-name="mu" unicode="&#xb5;" horiz-adv-x="571" 
d="M-8 -180c-5 0 -8 3 -7 9l115 649c1 5 5 9 11 9h144c7 0 8 -5 7 -9l-47 -258c-6 -32 -7 -43 -7 -48c0 -29 17 -49 48 -49c32 0 63 23 72 72l49 283c1 5 6 9 12 9h144c4 0 9 -3 7 -9l-51 -290c-4 -24 -5 -31 -5 -37c0 -14 7 -21 26 -21c5 0 8 -5 7 -10l-20 -114
c-1 -8 -4 -12 -12 -12h-14c-96 0 -119 21 -137 58l-6 12h-1c-31 -43 -99 -83 -152 -74l-28 -161c-1 -7 -5 -9 -10 -9h-145z" />
    <glyph glyph-name="degree" unicode="&#xb0;" horiz-adv-x="407" 
d="M253 379c-89 0 -157 68 -157 157c0 90 68 158 157 158c91 0 158 -68 158 -158c0 -89 -67 -157 -158 -157zM253 473c36 0 62 26 62 63c0 38 -25 64 -62 64c-35 0 -61 -26 -61 -64c0 -37 26 -63 61 -63z" />
    <glyph glyph-name="afii61289" unicode="&#x2113;" horiz-adv-x="457" 
d="M72 136c-5 -4 -10 -3 -13 2l-36 69c-3 5 -1 11 4 14l97 66l31 178c25 141 88 227 201 227c74 0 120 -45 120 -121c0 -117 -99 -234 -221 -329l-15 -86c-6 -32 6 -46 28 -46c17 0 36 10 54 23c5 4 10 3 12 -2l38 -72c1 -4 0 -9 -5 -14c-44 -35 -94 -57 -145 -57
c-95 0 -140 58 -121 164v4zM299 492l-18 -99c51 55 83 117 83 165c0 18 -7 28 -19 28c-17 0 -32 -16 -46 -94z" />
    <glyph glyph-name="estimated" unicode="&#x212e;" horiz-adv-x="569" 
d="M290 -12c-145 0 -238 115 -238 256c0 143 93 254 238 254c143 0 238 -104 239 -254h-373v-167c36 -35 81 -53 134 -53c75 0 132 32 177 110l33 -21c-57 -86 -114 -125 -210 -125zM425 278v133c-40 36 -84 56 -135 56c-53 0 -98 -20 -134 -56v-133h269z" />
    <glyph glyph-name="infinity" unicode="&#x221e;" horiz-adv-x="743" 
d="M548 76c-61 0 -117 31 -175 89c-61 -62 -115 -89 -175 -89c-96 0 -168 68 -168 170s72 171 170 171c59 0 108 -27 173 -92c65 66 113 92 174 92c97 0 170 -67 170 -171c0 -101 -71 -170 -169 -170zM543 181c41 0 63 31 63 67c0 35 -22 64 -63 64c-26 0 -49 -12 -98 -66
c43 -47 68 -65 98 -65zM204 181c26 0 50 14 97 65c-45 50 -70 66 -97 66c-41 0 -63 -28 -63 -64c0 -38 23 -67 63 -67z" />
    <glyph glyph-name="partialdiff" unicode="&#x2202;" horiz-adv-x="534" 
d="M208 -12c-110 0 -177 73 -177 177c0 137 99 253 246 253c40 0 77 -12 102 -40h1c5 20 8 41 8 60c0 74 -34 118 -92 118c-35 0 -66 -14 -98 -36c-6 -4 -11 -2 -14 3l-43 86c-2 5 -1 11 4 15c47 39 121 68 188 68c132 0 207 -85 207 -235c0 -79 -21 -193 -63 -279
c-59 -123 -147 -190 -269 -190zM239 122c45 0 84 40 114 136c-22 19 -48 32 -77 32c-57 0 -94 -52 -94 -109c0 -35 21 -59 57 -59z" />
    <glyph glyph-name="integral" unicode="&#x222b;" horiz-adv-x="394" 
d="M29 -180c-19 0 -39 1 -52 4c-6 1 -9 4 -8 11l19 110c1 7 6 11 12 11c10 -1 19 -3 29 -3c30 0 45 17 54 65l91 514c26 150 94 208 217 208c19 0 40 -1 52 -4c6 -1 9 -4 8 -11l-19 -110c-1 -7 -6 -11 -12 -11c-9 1 -18 3 -28 3c-31 0 -46 -17 -55 -65l-91 -514
c-27 -150 -93 -208 -217 -208z" />
    <glyph glyph-name="radical" unicode="&#x221a;" horiz-adv-x="646" 
d="M309 -180h-110c-6 0 -10 3 -11 10l-70 238c-1 4 -4 5 -9 3l-61 -29c-6 -3 -11 -1 -12 4l-26 83c-2 6 0 11 6 13l183 83c6 3 11 2 13 -4l55 -203h3l306 712c3 6 8 10 14 10h127c6 0 9 -4 6 -10l-398 -900c-4 -7 -9 -10 -16 -10z" />
    <glyph glyph-name="summation" unicode="&#x2211;" horiz-adv-x="550" 
d="M513 -180h-475c-6 0 -10 4 -10 10v132c0 4 1 7 2 9l169 345l-164 267c-2 4 -3 7 -3 11v136c0 6 4 10 10 10h461c6 0 10 -4 10 -10v-136c0 -6 -4 -10 -10 -10h-273l152 -251c2 -5 2 -9 0 -14l-165 -343h296c6 0 10 -4 10 -10v-136c0 -6 -4 -10 -10 -10z" />
    <glyph glyph-name="product" unicode="&#x220f;" horiz-adv-x="667" 
d="M599 -180h-156c-6 0 -10 4 -10 10v748c0 4 -2 6 -6 6h-187c-4 0 -6 -2 -6 -6v-748c0 -6 -4 -10 -10 -10h-156c-6 0 -10 4 -10 10v900c0 6 4 10 10 10h531c6 0 10 -4 10 -10v-900c0 -6 -4 -10 -10 -10z" />
    <glyph glyph-name="lozenge" unicode="&#x25ca;" horiz-adv-x="546" 
d="M283 -52h-112c-7 0 -10 3 -11 10l-104 364c-1 5 0 9 3 14l231 364c4 7 9 10 16 10h111c7 0 11 -3 13 -10l104 -364c1 -5 0 -9 -3 -14l-232 -364c-4 -7 -9 -10 -16 -10zM251 98l152 239l-62 223h-2l-152 -239l62 -223h2z" />
    <glyph glyph-name="uniF8FF" unicode="&#xf8ff;" horiz-adv-x="530" 
d="M520 0h-510c-6 0 -10 4 -10 10v660c0 6 4 10 10 10h510c6 0 10 -4 10 -10v-660c0 -6 -4 -10 -10 -10zM445 75c4 0 6 2 6 6v518c0 4 -2 6 -6 6h-360c-4 0 -6 -2 -6 -6v-518c0 -4 2 -6 6 -6h360zM300 249h-81c-6 0 -10 4 -10 10v24c0 24 7 38 20 54l39 47
c20 23 28 35 28 51c0 22 -14 37 -36 37c-23 0 -36 -13 -41 -34c-2 -7 -6 -10 -12 -9l-76 10c-6 1 -9 5 -8 11c10 68 62 113 142 113c84 0 136 -54 136 -120c0 -37 -11 -61 -40 -92l-38 -47c-9 -10 -13 -19 -13 -35v-10c0 -6 -4 -10 -10 -10zM301 113h-83c-6 0 -10 4 -10 10
v75c0 6 4 10 10 10h83c6 0 10 -4 10 -10v-75c0 -6 -4 -10 -10 -10z" />
    <glyph glyph-name="uni03A9" unicode="&#x3a9;" horiz-adv-x="617" 
d="M524 0h-215c-6 0 -10 4 -9 10l20 113c1 7 5 11 12 14c48 24 68 65 92 203c12 70 16 101 16 121c0 49 -26 79 -76 80c-43 0 -76 -22 -97 -63c-9 -19 -17 -43 -35 -138c-10 -56 -15 -94 -15 -122c0 -45 12 -67 37 -81c5 -3 7 -7 6 -14l-20 -113c-1 -6 -5 -10 -10 -10h-215
c-6 0 -10 4 -9 10l22 118c1 6 5 10 11 10h47v1c-21 20 -34 54 -34 109c0 26 3 57 9 92c18 103 31 146 52 186c57 110 154 166 278 166c133 0 221 -71 221 -212c0 -32 -6 -73 -17 -140c-19 -111 -52 -172 -94 -201l-1 -1h47c5 0 9 -4 8 -10l-21 -118c-1 -6 -5 -10 -10 -10z
" />
    <glyph glyph-name="uni03BC" unicode="&#x3bc;" horiz-adv-x="571" 
d="M-8 -180c-5 0 -8 3 -7 9l115 649c1 5 5 9 11 9h144c7 0 8 -5 7 -9l-47 -258c-6 -32 -7 -43 -7 -48c0 -29 17 -49 48 -49c32 0 63 23 72 72l49 283c1 5 6 9 12 9h144c4 0 9 -3 7 -9l-51 -290c-4 -24 -5 -31 -5 -37c0 -14 7 -21 26 -21c5 0 8 -5 7 -10l-20 -114
c-1 -8 -4 -12 -12 -12h-14c-96 0 -119 21 -137 58l-6 12h-1c-31 -43 -99 -83 -152 -74l-28 -161c-1 -7 -5 -9 -10 -9h-145z" />
    <glyph glyph-name="pi" unicode="&#x3c0;" horiz-adv-x="613" 
d="M64 0c-6 0 -10 4 -9 10l58 331c1 4 -1 6 -5 6h-44c-6 0 -8 4 -7 10l21 120c1 6 5 10 11 10h524c6 0 9 -4 8 -9l-21 -121c-1 -7 -7 -10 -13 -10h-40c-4 0 -7 -2 -8 -6l-27 -152c-3 -16 -4 -25 -4 -31c0 -18 9 -28 33 -28h5c6 0 8 -4 7 -10l-20 -116c-1 -6 -6 -10 -12 -10
h-37c-96 0 -142 33 -142 119c0 9 1 29 5 51l31 177c1 4 -2 6 -5 6h-91c-4 0 -7 -2 -8 -6l-58 -331c-1 -6 -5 -10 -10 -10h-142z" />
    <glyph glyph-name="uni0394" unicode="&#x394;" horiz-adv-x="647" 
d="M599 0h-619c-6 0 -9 4 -6 10l345 660c3 6 7 10 14 10h156c7 0 11 -4 12 -10l106 -660c1 -6 -2 -10 -8 -10zM414 144c4 0 6 2 5 6l-38 330h-2l-156 -329c-2 -4 -1 -7 3 -7h188z" />
    <glyph glyph-name="zero.denominator" horiz-adv-x="354" 
d="M139 -7c-77 0 -127 41 -127 120c0 38 21 168 42 210c29 60 84 90 160 90c77 0 127 -41 127 -120c0 -38 -21 -168 -42 -210c-29 -60 -85 -90 -160 -90zM156 86c14 0 25 7 33 22c11 22 33 157 33 185c0 17 -7 27 -25 27c-14 0 -25 -7 -32 -21c-11 -22 -34 -158 -34 -186
c0 -16 7 -27 25 -27z" />
    <glyph glyph-name="one.denominator" horiz-adv-x="354" 
d="M231 0h-99c-6 0 -9 4 -8 10l48 274h-2l-70 -39c-5 -3 -10 0 -9 6l16 94c1 7 4 11 12 15l67 40c7 4 13 6 21 6h95c6 0 10 -4 9 -10l-68 -386c-1 -6 -6 -10 -12 -10z" />
    <glyph glyph-name="two.denominator" horiz-adv-x="354" 
d="M274 0h-268c-6 0 -9 4 -8 10l14 73c1 7 4 12 11 18l166 139c23 20 31 36 31 55c0 16 -9 25 -26 25s-33 -12 -41 -38c-2 -7 -7 -9 -12 -8l-86 12c-5 1 -7 5 -6 11c16 65 76 116 168 116c76 0 120 -41 120 -102c0 -53 -24 -90 -74 -130l-97 -82v-1h125c6 0 9 -4 8 -10
l-13 -78c-1 -6 -6 -10 -12 -10z" />
    <glyph glyph-name="three.denominator" horiz-adv-x="354" 
d="M142 -7c-80 0 -127 39 -130 102c0 6 4 11 9 12l88 13c6 1 9 -1 11 -7c5 -15 15 -27 33 -27c23 0 43 19 43 45c0 20 -13 30 -36 30h-13c-6 0 -9 4 -8 10l12 71c1 6 5 10 12 10h12c24 0 43 16 43 43c0 15 -10 25 -27 25c-18 0 -29 -9 -37 -24c-4 -7 -8 -9 -13 -8l-84 14
c-6 1 -8 5 -6 11c21 57 79 100 162 100c81 0 124 -39 124 -94c0 -43 -20 -78 -61 -102v-1c20 -11 36 -34 36 -69c0 -95 -75 -154 -170 -154z" />
    <glyph glyph-name="four.denominator" horiz-adv-x="354" 
d="M259 0h-89c-5 0 -8 4 -7 10l6 38c1 4 -1 6 -5 6h-161c-6 0 -9 4 -8 10l14 81c1 6 4 12 9 19l144 232c4 7 9 10 16 10h101c6 0 9 -5 5 -10l-149 -243v-2h47c4 0 6 2 7 6l10 59c1 6 6 10 11 10h89c6 0 9 -4 8 -10l-10 -59c-1 -4 1 -6 4 -6h15c6 0 8 -4 7 -10l-14 -77
c-1 -6 -5 -10 -11 -10h-14c-4 0 -6 -2 -7 -6l-6 -38c-1 -6 -6 -10 -12 -10z" />
    <glyph glyph-name="five.denominator" horiz-adv-x="354" 
d="M138 -7c-77 0 -117 34 -121 92c0 7 3 12 9 13l86 16c7 1 11 -1 12 -6c4 -13 14 -21 29 -21c16 0 26 6 33 19c5 10 10 29 10 42c0 18 -9 29 -26 29c-14 0 -21 -6 -28 -12c-5 -5 -8 -6 -13 -6h-88c-6 0 -9 4 -8 10l40 227c1 6 5 10 11 10h248c6 0 10 -4 9 -10l-13 -75
c-1 -6 -6 -11 -11 -11h-150c-4 0 -6 -1 -7 -5l-10 -53h1c14 10 36 18 64 18c61 0 99 -31 99 -93c0 -31 -8 -72 -21 -99c-28 -58 -84 -85 -155 -85z" />
    <glyph glyph-name="six.denominator" horiz-adv-x="354" 
d="M140 -7c-81 0 -131 42 -131 109c0 49 18 87 58 142l111 152c5 6 11 10 18 10h106c5 0 8 -5 4 -10l-99 -139v-1c3 1 7 1 13 1c62 0 100 -41 100 -100c0 -94 -78 -164 -180 -164zM156 85c26 0 48 22 48 49c0 20 -12 34 -33 34c-26 0 -48 -23 -48 -50c0 -20 12 -33 33 -33z
" />
    <glyph glyph-name="seven.denominator" horiz-adv-x="354" 
d="M155 0h-103c-6 0 -8 5 -5 12l174 296l1 2h-58c-4 0 -6 -2 -7 -6l-7 -36c-1 -6 -6 -10 -11 -10h-88c-6 0 -9 4 -8 10l23 128c1 6 5 10 11 10h272c6 0 10 -4 9 -10l-16 -86c-1 -6 -3 -11 -6 -17l-166 -283c-4 -7 -8 -10 -15 -10z" />
    <glyph glyph-name="eight.denominator" horiz-adv-x="354" 
d="M140 -7c-78 0 -133 39 -133 105c0 45 19 83 62 113v1c-14 14 -24 33 -24 59c0 79 77 142 169 142c84 0 125 -46 125 -103c0 -39 -19 -72 -50 -98v-1c16 -16 30 -37 30 -68c0 -90 -83 -150 -179 -150zM185 251c22 0 40 19 40 44c0 15 -10 27 -28 27c-22 0 -40 -19 -40 -44
c0 -15 10 -27 28 -27zM156 84c26 0 48 22 48 50c0 20 -14 33 -34 33c-26 0 -48 -21 -48 -50c0 -19 14 -33 34 -33z" />
    <glyph glyph-name="nine.denominator" horiz-adv-x="354" 
d="M159 0h-107c-5 0 -8 5 -4 10l99 139v1c-3 -1 -7 -1 -13 -1c-61 0 -100 41 -100 100c0 94 78 164 180 164c81 0 131 -42 131 -109c0 -49 -18 -86 -58 -142l-111 -152c-5 -6 -10 -10 -17 -10zM183 238c27 0 48 23 48 50c0 20 -12 33 -33 33c-26 0 -47 -22 -47 -49
c0 -20 11 -34 32 -34z" />
    <glyph glyph-name="zero.inferior" unicode="&#x2080;" horiz-adv-x="354" 
d="M112 -163c-77 0 -127 41 -127 120c0 38 21 168 42 210c29 60 84 90 160 90c77 0 127 -41 127 -120c0 -38 -21 -168 -42 -210c-29 -60 -85 -90 -160 -90zM129 -70c14 0 25 7 33 22c11 22 33 157 33 185c0 17 -7 27 -25 27c-14 0 -25 -7 -32 -21c-11 -22 -34 -158 -34 -186
c0 -16 7 -27 25 -27z" />
    <glyph glyph-name="one.inferior" unicode="&#x2081;" horiz-adv-x="354" 
d="M204 -156h-99c-6 0 -9 4 -8 10l48 274h-2l-70 -39c-5 -3 -10 0 -9 6l16 94c1 7 4 11 12 15l67 40c7 4 13 6 21 6h95c6 0 10 -4 9 -10l-68 -386c-1 -6 -6 -10 -12 -10z" />
    <glyph glyph-name="two.inferior" unicode="&#x2082;" horiz-adv-x="354" 
d="M247 -156h-268c-6 0 -9 4 -8 10l14 73c1 7 4 12 11 18l166 139c23 20 31 36 31 55c0 16 -9 25 -26 25s-33 -12 -41 -38c-2 -7 -7 -9 -12 -8l-86 12c-5 1 -7 5 -6 11c16 65 76 116 168 116c76 0 120 -41 120 -102c0 -53 -24 -90 -74 -130l-97 -82v-1h125c6 0 9 -4 8 -10
l-13 -78c-1 -6 -6 -10 -12 -10z" />
    <glyph glyph-name="three.inferior" unicode="&#x2083;" horiz-adv-x="354" 
d="M115 -163c-80 0 -127 39 -130 102c0 6 4 11 9 12l88 13c6 1 9 -1 11 -7c5 -15 15 -27 33 -27c23 0 43 19 43 45c0 20 -13 30 -36 30h-13c-6 0 -9 4 -8 10l12 71c1 6 5 10 12 10h12c24 0 43 16 43 43c0 15 -10 25 -27 25c-18 0 -29 -9 -37 -24c-4 -7 -8 -9 -13 -8l-84 14
c-6 1 -8 5 -6 11c21 57 79 100 162 100c81 0 124 -39 124 -94c0 -43 -20 -78 -61 -102v-1c20 -11 36 -34 36 -69c0 -95 -75 -154 -170 -154z" />
    <glyph glyph-name="four.inferior" unicode="&#x2084;" horiz-adv-x="354" 
d="M232 -156h-89c-5 0 -8 4 -7 10l6 38c1 4 -1 6 -5 6h-161c-6 0 -9 4 -8 10l14 81c1 6 4 12 9 19l144 232c4 7 9 10 16 10h101c6 0 9 -5 5 -10l-149 -243v-2h47c4 0 6 2 7 6l10 59c1 6 6 10 11 10h89c6 0 9 -4 8 -10l-10 -59c-1 -4 1 -6 4 -6h15c6 0 8 -4 7 -10l-14 -77
c-1 -6 -5 -10 -11 -10h-14c-4 0 -6 -2 -7 -6l-6 -38c-1 -6 -6 -10 -12 -10z" />
    <glyph glyph-name="five.inferior" unicode="&#x2085;" horiz-adv-x="354" 
d="M111 -163c-77 0 -117 34 -121 92c0 7 3 12 9 13l86 16c7 1 11 -1 12 -6c4 -13 14 -21 29 -21c16 0 26 6 33 19c5 10 10 29 10 42c0 18 -9 29 -26 29c-14 0 -21 -6 -28 -12c-5 -5 -8 -6 -13 -6h-88c-6 0 -9 4 -8 10l40 227c1 6 5 10 11 10h248c6 0 10 -4 9 -10l-13 -75
c-1 -6 -6 -11 -11 -11h-150c-4 0 -6 -1 -7 -5l-10 -53h1c14 10 36 18 64 18c61 0 99 -31 99 -93c0 -31 -8 -72 -21 -99c-28 -58 -84 -85 -155 -85z" />
    <glyph glyph-name="six.inferior" unicode="&#x2086;" horiz-adv-x="354" 
d="M113 -163c-81 0 -131 42 -131 109c0 49 18 87 58 142l111 152c5 6 11 10 18 10h106c5 0 8 -5 4 -10l-99 -139v-1c3 1 7 1 13 1c62 0 100 -41 100 -100c0 -94 -78 -164 -180 -164zM129 -71c26 0 48 22 48 49c0 20 -12 34 -33 34c-26 0 -48 -23 -48 -50
c0 -20 12 -33 33 -33z" />
    <glyph glyph-name="seven.inferior" unicode="&#x2087;" horiz-adv-x="354" 
d="M128 -156h-103c-6 0 -8 5 -5 12l174 296l1 2h-58c-4 0 -6 -2 -7 -6l-7 -36c-1 -6 -6 -10 -11 -10h-88c-6 0 -9 4 -8 10l23 128c1 6 5 10 11 10h272c6 0 10 -4 9 -10l-16 -86c-1 -6 -3 -11 -6 -17l-166 -283c-4 -7 -8 -10 -15 -10z" />
    <glyph glyph-name="eight.inferior" unicode="&#x2088;" horiz-adv-x="354" 
d="M113 -163c-78 0 -133 39 -133 105c0 45 19 83 62 113v1c-14 14 -24 33 -24 59c0 79 77 142 169 142c84 0 125 -46 125 -103c0 -39 -19 -72 -50 -98v-1c16 -16 30 -37 30 -68c0 -90 -83 -150 -179 -150zM158 95c22 0 40 19 40 44c0 15 -10 27 -28 27
c-22 0 -40 -19 -40 -44c0 -15 10 -27 28 -27zM129 -72c26 0 48 22 48 50c0 20 -14 33 -34 33c-26 0 -48 -21 -48 -50c0 -19 14 -33 34 -33z" />
    <glyph glyph-name="nine.inferior" unicode="&#x2089;" horiz-adv-x="354" 
d="M132 -156h-107c-5 0 -8 5 -4 10l99 139v1c-3 -1 -7 -1 -13 -1c-61 0 -100 41 -100 100c0 94 78 164 180 164c81 0 131 -42 131 -109c0 -49 -18 -86 -58 -142l-111 -152c-5 -6 -10 -10 -17 -10zM156 82c27 0 48 23 48 50c0 20 -12 33 -33 33c-26 0 -47 -22 -47 -49
c0 -20 11 -34 32 -34z" />
    <glyph glyph-name="zero.numerator" horiz-adv-x="354" 
d="M186 267c-77 0 -127 41 -127 120c0 38 21 168 42 210c29 60 84 90 160 90c77 0 127 -41 127 -120c0 -38 -21 -168 -42 -210c-29 -60 -85 -90 -160 -90zM203 360c14 0 25 7 33 22c11 22 33 157 33 185c0 17 -7 27 -25 27c-14 0 -25 -7 -32 -21c-11 -22 -34 -158 -34 -186
c0 -16 7 -27 25 -27z" />
    <glyph glyph-name="one.numerator" horiz-adv-x="354" 
d="M260 274h-99c-6 0 -9 4 -8 10l48 274h-2l-70 -39c-5 -3 -10 0 -9 6l16 94c1 7 4 11 12 15l67 40c7 4 13 6 21 6h95c6 0 10 -4 9 -10l-68 -386c-1 -6 -6 -10 -12 -10z" />
    <glyph glyph-name="two.numerator" horiz-adv-x="354" 
d="M322 274h-268c-6 0 -9 4 -8 10l14 73c1 7 4 12 11 18l166 139c23 20 31 36 31 55c0 16 -9 25 -26 25s-33 -12 -41 -38c-2 -7 -7 -9 -12 -8l-86 12c-5 1 -7 5 -6 11c16 65 76 116 168 116c76 0 120 -41 120 -102c0 -53 -24 -90 -74 -130l-97 -82v-1h125c6 0 9 -4 8 -10
l-13 -78c-1 -6 -6 -10 -12 -10z" />
    <glyph glyph-name="three.numerator" horiz-adv-x="354" 
d="M189 267c-80 0 -127 39 -130 102c0 6 4 11 9 12l88 13c6 1 9 -1 11 -7c5 -15 15 -27 33 -27c23 0 43 19 43 45c0 20 -13 30 -36 30h-13c-6 0 -9 4 -8 10l12 71c1 6 5 10 12 10h12c24 0 43 16 43 43c0 15 -10 25 -27 25c-18 0 -29 -9 -37 -24c-4 -7 -8 -9 -13 -8l-84 14
c-6 1 -8 5 -6 11c21 57 79 100 162 100c81 0 124 -39 124 -94c0 -43 -20 -78 -61 -102v-1c20 -11 36 -34 36 -69c0 -95 -75 -154 -170 -154z" />
    <glyph glyph-name="four.numerator" horiz-adv-x="354" 
d="M306 274h-89c-5 0 -8 4 -7 10l6 38c1 4 -1 6 -5 6h-161c-6 0 -9 4 -8 10l14 81c1 6 4 12 9 19l144 232c4 7 9 10 16 10h101c6 0 9 -5 5 -10l-149 -243v-2h47c4 0 6 2 7 6l10 59c1 6 6 10 11 10h89c6 0 9 -4 8 -10l-10 -59c-1 -4 1 -6 4 -6h15c6 0 8 -4 7 -10l-14 -77
c-1 -6 -5 -10 -11 -10h-14c-4 0 -6 -2 -7 -6l-6 -38c-1 -6 -6 -10 -12 -10z" />
    <glyph glyph-name="five.numerator" horiz-adv-x="354" 
d="M186 267c-77 0 -117 34 -121 92c0 7 3 12 9 13l86 16c7 1 11 -1 12 -6c4 -13 14 -21 29 -21c16 0 26 6 33 19c5 10 10 29 10 42c0 18 -9 29 -26 29c-14 0 -21 -6 -28 -12c-5 -5 -8 -6 -13 -6h-88c-6 0 -9 4 -8 10l40 227c1 6 5 10 11 10h248c6 0 10 -4 9 -10l-13 -75
c-1 -6 -6 -11 -11 -11h-150c-4 0 -6 -1 -7 -5l-10 -53h1c14 10 36 18 64 18c61 0 99 -31 99 -93c0 -31 -8 -72 -21 -99c-28 -58 -84 -85 -155 -85z" />
    <glyph glyph-name="six.numerator" horiz-adv-x="354" 
d="M187 267c-81 0 -131 42 -131 109c0 49 18 87 58 142l111 152c5 6 11 10 18 10h106c5 0 8 -5 4 -10l-99 -139v-1c3 1 7 1 13 1c62 0 100 -41 100 -100c0 -94 -78 -164 -180 -164zM203 359c26 0 48 22 48 49c0 20 -12 34 -33 34c-26 0 -48 -23 -48 -50c0 -20 12 -33 33 -33
z" />
    <glyph glyph-name="seven.numerator" horiz-adv-x="354" 
d="M203 274h-103c-6 0 -8 5 -5 12l174 296l1 2h-58c-4 0 -6 -2 -7 -6l-7 -36c-1 -6 -6 -10 -11 -10h-88c-6 0 -9 4 -8 10l23 128c1 6 5 10 11 10h272c6 0 10 -4 9 -10l-16 -86c-1 -6 -3 -11 -6 -17l-166 -283c-4 -7 -8 -10 -15 -10z" />
    <glyph glyph-name="eight.numerator" horiz-adv-x="354" 
d="M187 267c-78 0 -133 39 -133 105c0 45 19 83 62 113v1c-14 14 -24 33 -24 59c0 79 77 142 169 142c84 0 125 -46 125 -103c0 -39 -19 -72 -50 -98v-1c16 -16 30 -37 30 -68c0 -90 -83 -150 -179 -150zM232 525c22 0 40 19 40 44c0 15 -10 27 -28 27
c-22 0 -40 -19 -40 -44c0 -15 10 -27 28 -27zM203 358c26 0 48 22 48 50c0 20 -14 33 -34 33c-26 0 -48 -21 -48 -50c0 -19 14 -33 34 -33z" />
    <glyph glyph-name="nine.numerator" horiz-adv-x="354" 
d="M206 274h-107c-5 0 -8 5 -4 10l99 139v1c-3 -1 -7 -1 -13 -1c-61 0 -100 41 -100 100c0 94 78 164 180 164c81 0 131 -42 131 -109c0 -49 -18 -86 -58 -142l-111 -152c-5 -6 -10 -10 -17 -10zM230 512c27 0 48 23 48 50c0 20 -12 33 -33 33c-26 0 -47 -22 -47 -49
c0 -20 11 -34 32 -34z" />
    <glyph glyph-name="zero.superior" unicode="&#x2070;" horiz-adv-x="354" 
d="M213 423c-77 0 -127 41 -127 120c0 38 21 168 42 210c29 60 84 90 160 90c77 0 127 -41 127 -120c0 -38 -21 -168 -42 -210c-29 -60 -85 -90 -160 -90zM230 516c14 0 25 7 33 22c11 22 33 157 33 185c0 17 -7 27 -25 27c-14 0 -25 -7 -32 -21c-11 -22 -34 -158 -34 -186
c0 -16 7 -27 25 -27z" />
    <glyph glyph-name="onesuperior" unicode="&#xb9;" horiz-adv-x="354" 
d="M296 430h-99c-6 0 -9 4 -8 10l48 274h-2l-70 -39c-5 -3 -10 0 -9 6l16 94c1 7 4 11 12 15l67 40c7 4 13 6 21 6h95c6 0 10 -4 9 -10l-68 -386c-1 -6 -6 -10 -12 -10z" />
    <glyph glyph-name="twosuperior" unicode="&#xb2;" horiz-adv-x="354" 
d="M349 430h-268c-6 0 -9 4 -8 10l14 73c1 7 4 12 11 18l166 139c23 20 31 36 31 55c0 16 -9 25 -26 25s-33 -12 -41 -38c-2 -7 -7 -9 -12 -8l-86 12c-5 1 -7 5 -6 11c16 65 76 116 168 116c76 0 120 -41 120 -102c0 -53 -24 -90 -74 -130l-97 -82v-1h125c6 0 9 -4 8 -10
l-13 -78c-1 -6 -6 -10 -12 -10z" />
    <glyph glyph-name="threesuperior" unicode="&#xb3;" horiz-adv-x="354" 
d="M216 423c-80 0 -127 39 -130 102c0 6 4 11 9 12l88 13c6 1 9 -1 11 -7c5 -15 15 -27 33 -27c23 0 43 19 43 45c0 20 -13 30 -36 30h-13c-6 0 -9 4 -8 10l12 71c1 6 5 10 12 10h12c24 0 43 16 43 43c0 15 -10 25 -27 25c-18 0 -29 -9 -37 -24c-4 -7 -8 -9 -13 -8l-84 14
c-6 1 -8 5 -6 11c21 57 79 100 162 100c81 0 124 -39 124 -94c0 -43 -20 -78 -61 -102v-1c20 -11 36 -34 36 -69c0 -95 -75 -154 -170 -154z" />
    <glyph glyph-name="four.superior" unicode="&#x2074;" horiz-adv-x="354" 
d="M333 430h-89c-5 0 -8 4 -7 10l6 38c1 4 -1 6 -5 6h-161c-6 0 -9 4 -8 10l14 81c1 6 4 12 9 19l144 232c4 7 9 10 16 10h101c6 0 9 -5 5 -10l-149 -243v-2h47c4 0 6 2 7 6l10 59c1 6 6 10 11 10h89c6 0 9 -4 8 -10l-10 -59c-1 -4 1 -6 4 -6h15c6 0 8 -4 7 -10l-14 -77
c-1 -6 -5 -10 -11 -10h-14c-4 0 -6 -2 -7 -6l-6 -38c-1 -6 -6 -10 -12 -10z" />
    <glyph glyph-name="five.superior" unicode="&#x2075;" horiz-adv-x="354" 
d="M213 423c-77 0 -117 34 -121 92c0 7 3 12 9 13l86 16c7 1 11 -1 12 -6c4 -13 14 -21 29 -21c16 0 26 6 33 19c5 10 10 29 10 42c0 18 -9 29 -26 29c-14 0 -21 -6 -28 -12c-5 -5 -8 -6 -13 -6h-88c-6 0 -9 4 -8 10l40 227c1 6 5 10 11 10h248c6 0 10 -4 9 -10l-13 -75
c-1 -6 -6 -11 -11 -11h-150c-4 0 -6 -1 -7 -5l-10 -53h1c14 10 36 18 64 18c61 0 99 -31 99 -93c0 -31 -8 -72 -21 -99c-28 -58 -84 -85 -155 -85z" />
    <glyph glyph-name="six.superior" unicode="&#x2076;" horiz-adv-x="354" 
d="M214 423c-81 0 -131 42 -131 109c0 49 18 87 58 142l111 152c5 6 11 10 18 10h106c5 0 8 -5 4 -10l-99 -139v-1c3 1 7 1 13 1c62 0 100 -41 100 -100c0 -94 -78 -164 -180 -164zM230 515c26 0 48 22 48 49c0 20 -12 34 -33 34c-26 0 -48 -23 -48 -50c0 -20 12 -33 33 -33
z" />
    <glyph glyph-name="seven.superior" unicode="&#x2077;" horiz-adv-x="354" 
d="M230 430h-103c-6 0 -8 5 -5 12l174 296l1 2h-58c-4 0 -6 -2 -7 -6l-7 -36c-1 -6 -6 -10 -11 -10h-88c-6 0 -9 4 -8 10l23 128c1 6 5 10 11 10h272c6 0 10 -4 9 -10l-16 -86c-1 -6 -3 -11 -6 -17l-166 -283c-4 -7 -8 -10 -15 -10z" />
    <glyph glyph-name="eight.superior" unicode="&#x2078;" horiz-adv-x="354" 
d="M214 423c-78 0 -133 39 -133 105c0 45 19 83 62 113v1c-14 14 -24 33 -24 59c0 79 77 142 169 142c84 0 125 -46 125 -103c0 -39 -19 -72 -50 -98v-1c16 -16 30 -37 30 -68c0 -90 -83 -150 -179 -150zM259 681c22 0 40 19 40 44c0 15 -10 27 -28 27
c-22 0 -40 -19 -40 -44c0 -15 10 -27 28 -27zM230 514c26 0 48 22 48 50c0 20 -14 33 -34 33c-26 0 -48 -21 -48 -50c0 -19 14 -33 34 -33z" />
    <glyph glyph-name="nine.superior" unicode="&#x2079;" horiz-adv-x="354" 
d="M233 430h-107c-5 0 -8 5 -4 10l99 139v1c-3 -1 -7 -1 -13 -1c-61 0 -100 41 -100 100c0 94 78 164 180 164c81 0 131 -42 131 -109c0 -49 -18 -86 -58 -142l-111 -152c-5 -6 -10 -10 -17 -10zM257 668c27 0 48 23 48 50c0 20 -12 33 -33 33c-26 0 -47 -22 -47 -49
c0 -20 11 -34 32 -34z" />
    <glyph glyph-name="interrobang" unicode="&#x203d;" horiz-adv-x="481" 
d="M172 208c-6 0 -10 4 -9 10l31 235c1 6 5 10 10 10h106c6 0 9 -4 8 -10l-10 -53h2l8 9c26 29 52 62 52 98c0 48 -30 61 -62 61c-35 0 -60 -15 -73 -40c-3 -6 -7 -9 -13 -8l-120 17c-6 1 -8 5 -6 11c34 89 105 144 223 144c123 0 192 -64 192 -158
c0 -70 -37 -125 -104 -187l-62 -61c-20 -20 -26 -33 -31 -60l-1 -8c-1 -6 -5 -10 -10 -10h-131zM127 10l21 123c1 6 6 10 11 10h133c6 0 10 -4 9 -10l-22 -123c-1 -6 -5 -10 -11 -10h-133c-5 0 -9 4 -8 10z" />
    <glyph glyph-name="afii61248" unicode="&#x2105;" horiz-adv-x="823" 
d="M124 -2l503 684c5 7 10 10 18 10h98c6 0 6 -5 2 -10l-503 -684c-5 -7 -10 -10 -18 -10h-97c-6 0 -6 5 -3 10zM221 330c-80 0 -126 38 -126 111c0 55 12 115 34 159c31 62 72 88 149 88c52 0 104 -23 117 -68c1 -4 0 -7 -4 -9l-73 -43c-1 -1 -5 -1 -6 1
c-6 27 -18 35 -36 35c-21 0 -36 -5 -48 -38s-19 -76 -19 -102c0 -31 3 -47 33 -47c18 0 31 10 44 32c1 3 4 4 8 1l65 -46c4 -3 3 -7 0 -11c-30 -43 -78 -63 -138 -63zM592 -10c-78 0 -126 44 -126 114c0 56 19 130 34 162c29 62 88 84 147 84c72 0 128 -39 128 -118
c0 -58 -18 -133 -34 -165c-29 -59 -85 -77 -149 -77zM607 84c24 0 35 13 45 43c5 14 14 62 14 86c0 35 -6 46 -32 46c-23 0 -31 -13 -41 -41c-5 -15 -15 -72 -15 -93c0 -32 6 -41 29 -41z" />
    <glyph glyph-name="published" unicode="&#x2117;" horiz-adv-x="794" 
d="M397 -13c-201 0 -352 151 -352 352c0 202 151 353 352 353s352 -151 352 -353c0 -201 -151 -352 -352 -352zM397 71c155 0 266 113 266 268c0 156 -111 269 -266 269s-266 -113 -266 -269c0 -155 111 -268 266 -268zM375 151h-106c-5 0 -9 4 -9 9v357c0 6 4 9 9 9h155
c93 0 160 -36 160 -131c0 -106 -67 -135 -160 -135h-35c-3 0 -5 -2 -5 -5v-95c0 -5 -3 -9 -9 -9zM403 351c42 0 70 4 70 44c0 34 -29 39 -70 39h-15c-2 0 -4 -2 -4 -3v-77c0 -1 2 -3 4 -3h15z" />
    <glyph glyph-name="uni0406" unicode="&#x406;" horiz-adv-x="276" 
d="M28 0c-6 0 -10 4 -9 10l117 660c1 6 5 10 11 10h150c6 0 9 -4 8 -10l-117 -660c-1 -6 -4 -10 -10 -10h-150z" />
    <glyph glyph-name="uni0456" unicode="&#x456;" horiz-adv-x="265" 
d="M25 0c-5 0 -9 4 -8 10l82 467c1 6 6 10 11 10h143c6 0 9 -4 8 -10l-82 -467c-1 -6 -5 -10 -11 -10h-143zM122 553c-6 0 -9 4 -8 10l19 107c1 6 5 10 11 10h143c6 0 9 -4 8 -10l-19 -107c-1 -6 -5 -10 -11 -10h-143z" />
    <glyph glyph-name="uni0408" unicode="&#x408;" horiz-adv-x="507" 
d="M192 -12c-104 0 -177 43 -202 96c-1 5 -1 10 4 14l118 80c5 3 10 3 13 -1c16 -22 38 -37 68 -37c55 0 86 31 99 103l76 427c1 6 5 10 11 10h151c6 0 10 -4 9 -10l-78 -433c-34 -188 -140 -249 -269 -249z" />
    <glyph glyph-name="uni0458" unicode="&#x458;" horiz-adv-x="265" 
d="M-82 -180c-6 0 -8 4 -7 10l20 113c1 6 5 10 11 10h13c38 0 54 10 62 56l82 468c1 6 6 10 11 10h143c6 0 9 -4 8 -10l-82 -468c-26 -150 -87 -189 -225 -189h-36zM122 553c-6 0 -9 4 -8 10l20 107c1 6 5 10 11 10h142c6 0 9 -4 8 -10l-19 -107c-1 -6 -5 -10 -11 -10h-143z
" />
    <glyph glyph-name="uni0410" unicode="&#x410;" horiz-adv-x="656" 
d="M-19 0c-6 0 -8 4 -5 10l344 660c3 6 7 10 14 10h157c7 0 10 -4 11 -10l106 -660c1 -6 -2 -10 -7 -10h-154c-7 0 -11 4 -12 10l-12 108h-212l-51 -108c-3 -6 -7 -10 -14 -10h-165zM277 260h130l-24 220h-2z" />
    <glyph glyph-name="uni0411" unicode="&#x411;" horiz-adv-x="590" 
d="M27 0c-5 0 -9 5 -8 10l117 661c1 5 4 9 10 9h435c7 0 9 -5 8 -9l-22 -127c-1 -7 -6 -10 -11 -10h-269c-4 0 -6 -2 -7 -6l-17 -94c-1 -4 1 -6 5 -6h94c137 0 206 -70 206 -190c0 -150 -111 -238 -268 -238h-273zM216 140h88c57 0 98 35 98 96c0 37 -24 60 -70 60h-88
c-3 0 -5 -2 -6 -6l-27 -144c-1 -4 1 -6 5 -6z" />
    <glyph glyph-name="uni0412" unicode="&#x412;" horiz-adv-x="587" 
d="M27 0c-5 0 -9 4 -8 10l117 660c1 6 5 10 10 10h267c128 0 186 -55 186 -144c0 -82 -38 -144 -110 -182v-4c39 -16 71 -58 71 -119c0 -142 -104 -231 -265 -231h-268zM215 129h77c57 0 97 37 97 101c0 37 -22 59 -69 59h-76c-4 0 -6 -2 -7 -6l-26 -148c-1 -4 0 -6 4 -6z
M263 405h69c54 0 94 34 94 92c0 37 -23 55 -68 55h-68c-4 0 -6 -2 -7 -6l-24 -135c-1 -4 1 -6 4 -6z" />
    <glyph glyph-name="uni0413" unicode="&#x413;" horiz-adv-x="494" 
d="M28 0c-6 0 -10 4 -9 10l117 660c1 6 5 10 11 10h414c6 0 10 -4 9 -10l-24 -132c-1 -6 -5 -9 -11 -9h-249c-4 0 -6 -2 -7 -6l-91 -513c-1 -6 -5 -10 -11 -10h-149z" />
    <glyph glyph-name="uni0414" unicode="&#x414;" horiz-adv-x="680" 
d="M-53 -123c-5 0 -7 6 -6 11l43 254c1 5 5 9 10 9h35c7 0 15 2 20 9c63 94 105 190 143 401l19 110c1 5 4 9 11 9h460c4 0 9 -5 8 -10l-92 -513c-1 -4 1 -6 5 -6h55c5 0 9 -4 8 -9l-44 -254c-1 -5 -6 -11 -11 -11h-138c-4 0 -7 6 -6 11l18 106c1 4 0 6 -4 6h-361
c-4 0 -7 -2 -8 -6l-17 -106c-1 -5 -6 -11 -11 -11h-137zM228 151h195c4 0 6 2 7 6l66 369c1 4 -1 6 -5 6h-133c-4 0 -6 -2 -7 -6l-3 -16c-30 -159 -75 -282 -124 -351c-2 -4 -2 -8 4 -8z" />
    <glyph glyph-name="uni0415" unicode="&#x415;" horiz-adv-x="538" 
d="M27 0c-5 0 -9 4 -8 10l117 660c1 6 5 10 10 10h430c6 0 9 -4 8 -10l-22 -124c-1 -6 -6 -10 -11 -10h-265c-3 0 -5 -2 -6 -6l-20 -110c-1 -4 1 -6 5 -6h216c6 0 9 -4 8 -10l-21 -122c-1 -6 -6 -10 -12 -10h-217c-3 0 -5 -2 -6 -6l-21 -116c-1 -4 1 -6 5 -6h264
c6 0 9 -4 8 -10l-22 -124c-1 -6 -5 -10 -11 -10h-429z" />
    <glyph glyph-name="uni0416" unicode="&#x416;" horiz-adv-x="940" 
d="M-13 -5c-5 0 -10 3 -9 10l24 128c1 6 5 9 10 9h12c29 0 44 9 64 49l50 100c17 33 54 58 87 64v4c-19 17 -31 41 -37 67l-15 68c-8 35 -33 44 -64 44h-11c-7 0 -11 5 -10 12l23 125c1 7 6 10 11 10h57c62 0 114 -26 129 -96l14 -64c10 -48 24 -107 80 -107h13c4 0 6 2 7 6
l44 246c1 6 5 10 13 10h146c5 0 10 -3 9 -10l-43 -246c0 -2 0 -6 4 -6h14c42 0 65 22 82 54l58 110c49 93 115 103 188 103h42c5 0 10 -3 9 -10l-23 -128c-1 -6 -7 -9 -12 -9h-21c-22 0 -37 -7 -51 -34l-44 -83c-19 -36 -42 -57 -68 -65v-4c27 -9 39 -40 47 -74l23 -96
c6 -25 22 -40 52 -40h10c4 0 10 -2 9 -9l-24 -128c-1 -7 -5 -10 -11 -10h-76c-66 0 -102 41 -119 123l-19 91c-11 54 -47 61 -77 61h-14c-4 0 -6 -2 -7 -6l-46 -254c-1 -7 -5 -10 -11 -10h-148c-5 0 -10 3 -9 10l45 254c1 3 -2 6 -6 6h-16c-34 0 -66 -8 -96 -70l-39 -80
c-55 -113 -100 -125 -198 -125h-52z" />
    <glyph glyph-name="uni0417" unicode="&#x417;" horiz-adv-x="555" 
d="M247 -12c-103 0 -195 34 -251 90c-5 5 -1 9 3 15l78 98c4 5 13 4 16 1c34 -26 83 -60 147 -60c48 0 106 29 106 86c0 38 -26 58 -77 58h-73c-4 0 -9 3 -8 10l21 119c1 7 8 10 12 10h73c47 0 92 28 92 80c0 33 -30 53 -79 53c-45 0 -99 -15 -153 -48c-7 -5 -13 -1 -15 3
l-52 102c-4 8 -2 10 3 13c83 53 174 74 244 74c148 0 225 -65 225 -172c0 -71 -42 -135 -110 -165v-4c43 -17 70 -74 70 -132c0 -141 -126 -231 -272 -231z" />
    <glyph glyph-name="uni0418" unicode="&#x418;" horiz-adv-x="650" 
d="M27 0c-6 0 -9 5 -8 10l117 661c1 5 5 9 10 9h148c5 0 9 -4 8 -9l-63 -355h3l277 355c6 8 14 9 16 9h136c6 0 9 -4 8 -9l-117 -661c-1 -5 -5 -10 -10 -10h-148c-5 0 -9 5 -8 10l63 356h-3l-276 -356c-7 -10 -12 -10 -18 -10h-135z" />
    <glyph glyph-name="uni0419" unicode="&#x419;" horiz-adv-x="650" 
d="M410 732c-86 0 -134 42 -141 123c-1 8 2 13 8 14l76 10c7 1 9 -1 10 -7c5 -24 25 -41 58 -41c34 0 57 17 69 41c3 6 6 8 13 7l78 -10c4 -1 5 -6 2 -14c-29 -84 -83 -123 -173 -123zM27 0c-6 0 -9 5 -8 10l117 661c1 5 5 9 10 9h148c5 0 9 -4 8 -9l-63 -355h3l277 355
c6 8 14 9 16 9h136c6 0 9 -4 8 -9l-117 -661c-1 -5 -5 -10 -10 -10h-148c-5 0 -9 5 -8 10l63 356h-3l-276 -356c-7 -10 -12 -10 -18 -10h-135z" />
    <glyph glyph-name="uni041A" unicode="&#x41a;" horiz-adv-x="624" 
d="M28 0c-6 0 -10 4 -9 10l117 660c1 6 5 10 11 10h149c6 0 10 -4 9 -10l-43 -245c-1 -4 1 -6 4 -6h28c40 0 64 21 81 53l65 121c45 84 99 92 167 92h56c4 0 10 -3 9 -10l-22 -127c-1 -6 -8 -9 -12 -9h-15c-28 0 -43 -3 -59 -34l-45 -87c-17 -33 -37 -52 -64 -61v-4
c25 -9 38 -41 45 -74l20 -87c8 -33 21 -50 55 -50h10c5 0 9 -3 8 -9l-22 -128c-1 -7 -6 -10 -11 -10h-44c-69 0 -130 23 -152 127l-18 88c-11 54 -46 60 -76 60h-30c-4 0 -6 -2 -7 -6l-45 -254c-1 -6 -5 -10 -11 -10h-149z" />
    <glyph glyph-name="uni041B" unicode="&#x41b;" horiz-adv-x="662" 
d="M-26 -5c-5 0 -10 3 -9 10l23 132c1 6 7 9 12 9h14c50 0 106 24 137 200l57 325c1 5 4 9 11 9h464c7 0 9 -4 8 -9l-117 -661c-1 -5 -4 -10 -9 -10h-153c-5 0 -9 5 -8 10l91 513c1 4 -1 6 -5 6h-135c-4 0 -6 -2 -7 -6l-33 -183c-47 -267 -126 -345 -288 -345h-53z" />
    <glyph glyph-name="uni041C" unicode="&#x41c;" horiz-adv-x="747" 
d="M27 0c-5 0 -9 4 -8 10l117 660c1 6 5 10 10 10h136c7 0 13 -2 15 -10l89 -362h4l212 362c4 8 11 10 17 10h148c6 0 10 -4 9 -10l-117 -660c-1 -6 -5 -10 -11 -10h-134c-6 0 -10 4 -9 10l63 361h-4l-153 -265c-6 -10 -14 -13 -20 -13h-74c-7 0 -15 3 -17 13l-61 265h-3
l-64 -361c-1 -6 -5 -10 -10 -10h-135z" />
    <glyph glyph-name="uni041D" unicode="&#x41d;" horiz-adv-x="637" 
d="M28 0c-6 0 -10 4 -9 10l117 660c1 6 5 10 11 10h150c6 0 9 -4 8 -10l-43 -244c-1 -4 1 -6 4 -6h180c4 0 6 2 7 6l43 244c1 6 5 10 11 10h150c6 0 10 -4 9 -10l-117 -660c-1 -6 -5 -10 -11 -10h-150c-6 0 -10 4 -9 10l45 253c1 4 -1 6 -5 6h-180c-3 0 -5 -2 -6 -6
l-45 -253c-1 -6 -4 -10 -10 -10h-150z" />
    <glyph glyph-name="uni041E" unicode="&#x41e;" horiz-adv-x="604" 
d="M271 -12c-136 0 -226 73 -226 214c0 66 30 256 67 331c54 111 149 159 269 159c136 0 226 -73 226 -214c0 -66 -30 -256 -67 -331c-55 -111 -150 -159 -269 -159zM291 139c45 0 77 25 96 65c19 39 49 207 49 258c0 48 -26 79 -75 79c-45 0 -77 -25 -96 -65
c-19 -39 -49 -207 -49 -258c0 -48 26 -79 75 -79z" />
    <glyph glyph-name="uni041F" unicode="&#x41f;" horiz-adv-x="629" 
d="M27 0c-5 0 -9 5 -8 10l117 661c1 5 4 9 10 9h502c7 0 11 -4 10 -9l-117 -661c-1 -5 -6 -10 -11 -10h-151c-5 0 -9 5 -8 10l91 513c1 4 -1 6 -5 6h-171c-4 0 -6 -2 -7 -6l-91 -513c-1 -5 -5 -10 -10 -10h-151z" />
    <glyph glyph-name="uni0420" unicode="&#x420;" horiz-adv-x="590" 
d="M27 0c-5 0 -9 4 -8 10l117 660c1 6 5 10 10 10h263c140 0 208 -69 208 -178c0 -173 -121 -271 -286 -271h-97c-4 0 -6 -2 -7 -6l-39 -215c-1 -6 -5 -10 -10 -10h-151zM258 375h88c58 0 99 37 99 99c0 39 -25 62 -71 62h-87c-3 0 -5 -2 -6 -6l-27 -149c-1 -4 1 -6 4 -6z
" />
    <glyph glyph-name="uni0421" unicode="&#x421;" horiz-adv-x="558" 
d="M264 -12c-129 0 -219 75 -219 214c0 66 28 252 67 330c53 109 141 160 264 160c115 0 182 -56 209 -157c2 -6 0 -10 -7 -13l-131 -53c-8 -3 -13 -1 -14 6c-10 41 -30 66 -75 66c-42 0 -72 -25 -92 -65c-20 -42 -50 -208 -50 -258c0 -48 26 -79 72 -79c43 0 72 27 96 67
c4 7 9 10 15 7l118 -66c6 -3 6 -8 3 -14c-62 -101 -141 -145 -256 -145z" />
    <glyph glyph-name="uni0422" unicode="&#x422;" horiz-adv-x="549" 
d="M163 0c-5 0 -9 4 -8 10l91 513c1 4 -1 6 -5 6h-161c-6 0 -10 4 -9 10l24 131c1 6 5 10 11 10h504c6 0 10 -4 9 -10l-23 -131c-1 -6 -6 -10 -12 -10h-162c-4 0 -6 -2 -7 -6l-91 -513c-1 -6 -5 -10 -11 -10h-150z" />
    <glyph glyph-name="uni0423" unicode="&#x423;" horiz-adv-x="599" 
d="M76 -5c-5 0 -11 3 -10 10l24 132c1 6 7 9 12 9h35c50 0 69 18 80 36l15 24l-140 462c-2 8 3 12 8 12h152c12 0 14 -4 15 -9l74 -273h3l148 273c3 5 5 9 15 9h166c5 0 8 -4 4 -11l-338 -563c-36 -60 -89 -111 -198 -111h-65z" />
    <glyph glyph-name="uni0424" unicode="&#x424;" horiz-adv-x="809" 
d="M289 -12c-5 0 -9 5 -8 10l13 72c1 4 -1 6 -5 6c-160 13 -245 94 -245 233c0 193 129 297 341 310c4 0 6 2 7 6l10 56c1 5 5 11 11 11h151c6 0 8 -6 7 -11l-11 -56c-1 -4 1 -6 5 -6c159 -12 246 -92 246 -233c0 -192 -130 -297 -341 -310c-4 0 -7 -2 -8 -6l-12 -72
c-1 -5 -6 -10 -11 -10h-150zM314 221c4 0 7 2 8 6l42 241c1 4 -2 5 -6 5c-93 -5 -145 -64 -145 -152c0 -67 38 -95 101 -100zM497 221c94 6 145 66 145 154c0 68 -38 94 -101 98c-4 0 -7 -1 -8 -5l-42 -241c-1 -4 2 -6 6 -6z" />
    <glyph glyph-name="uni0425" unicode="&#x425;" horiz-adv-x="601" 
d="M-21 0c-6 0 -8 5 -4 11l266 346l-130 312c-3 6 0 11 7 11h157c8 0 12 -3 15 -10l63 -161h3l118 161c5 6 10 10 17 10h164c6 0 8 -5 4 -11l-237 -316l139 -342c3 -6 0 -11 -7 -11h-154c-9 0 -13 3 -16 10l-74 189h-2l-139 -189c-5 -7 -9 -10 -18 -10h-172z" />
    <glyph glyph-name="uni0426" unicode="&#x426;" horiz-adv-x="647" 
d="M441 -123c-4 0 -7 6 -6 11l18 106c1 4 0 6 -4 6h-422c-6 0 -9 4 -8 9l117 661c1 5 5 10 10 10h151c5 0 9 -5 8 -10l-91 -513c-1 -4 1 -6 5 -6h171c4 0 6 2 7 6l91 513c1 5 6 10 10 10h152c4 0 9 -5 8 -10l-91 -513c-1 -4 1 -6 5 -6h53c5 0 10 -4 9 -9l-44 -254
c-1 -5 -6 -11 -11 -11h-138z" />
    <glyph glyph-name="uni0427" unicode="&#x427;" horiz-adv-x="595" 
d="M347 0c-5 0 -9 5 -8 10l40 228c1 6 -4 8 -9 7c-34 -7 -74 -18 -138 -18c-96 0 -183 51 -148 243l37 201c1 5 4 9 10 9h149c7 0 10 -4 9 -9l-36 -207c-9 -54 5 -86 57 -86c34 0 65 7 87 14c7 2 10 5 11 11l48 268c1 6 4 9 10 9h149c7 0 10 -4 9 -9l-117 -661
c-1 -5 -5 -10 -10 -10h-150z" />
    <glyph glyph-name="uni0428" unicode="&#x428;" horiz-adv-x="932" 
d="M27 0c-6 0 -9 4 -8 9l117 661c1 5 5 10 10 10h151c5 0 9 -5 8 -10l-91 -513c-1 -4 1 -6 5 -6h147c4 0 6 2 7 6l91 513c1 5 5 10 9 10h152c5 0 9 -5 8 -10l-91 -513c-1 -4 1 -6 5 -6h147c4 0 6 2 7 6l91 513c1 5 5 10 9 10h152c5 0 9 -5 8 -10l-117 -661
c-1 -5 -4 -9 -11 -9h-806z" />
    <glyph glyph-name="uni0429" unicode="&#x429;" horiz-adv-x="950" 
d="M745 -123c-5 0 -8 6 -7 11l18 106c1 4 0 6 -4 6h-725c-6 0 -9 4 -8 9l117 661c1 5 5 10 10 10h151c5 0 9 -5 8 -10l-91 -513c-1 -4 1 -6 5 -6h147c4 0 6 2 7 6l91 513c1 5 5 10 9 10h152c5 0 9 -5 8 -10l-91 -513c-1 -4 1 -6 5 -6h147c4 0 6 2 7 6l91 513c1 5 5 10 9 10
h152c5 0 9 -5 8 -10l-91 -513c-1 -4 1 -6 5 -6h54c5 0 9 -4 8 -9l-44 -254c-1 -5 -6 -11 -11 -11h-137z" />
    <glyph glyph-name="uni042A" unicode="&#x42a;" horiz-adv-x="703" 
d="M123 0c-6 0 -10 4 -9 10l91 513c0 3 -1 6 -5 6h-121c-6 0 -9 4 -8 10l23 131c1 6 5 10 11 10h284c7 0 11 -4 10 -10l-39 -217c-1 -4 1 -6 5 -6h106c139 0 203 -82 203 -193c0 -156 -113 -254 -275 -254h-276zM311 145h92c58 0 99 38 99 99c0 38 -24 62 -71 62h-91
c-4 0 -6 -2 -7 -6l-26 -149c-1 -4 1 -6 4 -6z" />
    <glyph glyph-name="uni042B" unicode="&#x42b;" horiz-adv-x="862" 
d="M28 0c-6 0 -10 4 -9 10l117 660c1 6 5 10 11 10h149c6 0 10 -4 9 -10l-38 -217c-1 -4 1 -6 5 -6h106c138 0 203 -82 203 -193c0 -156 -113 -254 -276 -254h-277zM217 145h92c59 0 100 38 100 99c0 38 -25 62 -71 62h-92c-3 0 -5 -2 -6 -6l-27 -149c-1 -4 1 -6 4 -6z
M613 0c-6 0 -10 4 -9 10l117 660c1 6 5 10 11 10h148c6 0 11 -4 10 -10l-117 -660c-1 -6 -6 -10 -12 -10h-148z" />
    <glyph glyph-name="uni042C" unicode="&#x42c;" horiz-adv-x="609" 
d="M28 0c-6 0 -10 4 -9 10l117 660c1 6 5 10 11 10h149c6 0 10 -4 9 -10l-38 -217c-1 -4 1 -6 5 -6h106c138 0 203 -82 203 -193c0 -156 -113 -254 -276 -254h-277zM217 145h92c59 0 100 38 100 99c0 38 -25 62 -71 62h-92c-3 0 -5 -2 -6 -6l-27 -149c-1 -4 1 -6 4 -6z" />
    <glyph glyph-name="uni042D" unicode="&#x42d;" horiz-adv-x="564" 
d="M234 -12c-119 0 -197 60 -225 152c-2 7 0 12 7 15l126 50c7 3 17 1 19 -6c11 -39 29 -66 80 -66c44 0 80 19 103 63c9 17 16 39 22 70c1 5 -2 8 -6 8h-152c-5 0 -10 1 -9 9l22 121c1 7 6 10 11 10h153c5 0 9 3 9 7c2 16 3 31 3 44c0 49 -27 82 -85 82
c-48 0 -77 -22 -102 -63c-5 -7 -10 -10 -16 -6l-112 62c-6 4 -7 7 -2 15c51 86 126 137 258 137s229 -72 229 -216c0 -85 -30 -255 -72 -338c-54 -109 -147 -150 -261 -150z" />
    <glyph glyph-name="uni042E" unicode="&#x42e;" horiz-adv-x="863" 
d="M536 -12c-133 0 -221 73 -221 205c0 19 3 42 7 71c0 4 -1 6 -5 6h-76c-4 0 -7 -2 -8 -6l-45 -254c-1 -6 -5 -10 -10 -10h-150c-6 0 -10 4 -9 10l117 660c1 6 5 10 11 10h150c6 0 9 -4 8 -10l-43 -244c-1 -4 1 -6 5 -6h76c4 0 6 2 7 6c16 62 34 117 73 163
c58 68 130 103 221 103c127 0 222 -70 222 -207c0 -66 -30 -260 -66 -334c-52 -109 -147 -163 -264 -163zM555 136c42 0 71 22 89 59c18 39 53 226 53 274c0 45 -22 75 -69 75c-42 0 -71 -22 -90 -60s-52 -230 -52 -275c0 -43 23 -73 69 -73z" />
    <glyph glyph-name="uni042F" unicode="&#x42f;" horiz-adv-x="608" 
d="M1 -5c-5 0 -10 3 -9 10l23 132c1 6 7 9 12 9h20c28 0 41 16 58 44l33 54c9 16 25 34 47 43v4c-53 16 -104 64 -104 159c0 145 118 230 262 230h286c7 0 9 -4 8 -9l-117 -661c-1 -5 -4 -10 -10 -10h-149c-6 0 -10 5 -9 10l40 226c1 4 -1 6 -5 6h-26c-25 0 -48 -5 -75 -50
l-46 -80c-50 -88 -94 -117 -167 -117h-72zM316 382h95c4 0 6 2 7 6l25 142c1 4 -1 6 -5 6h-96c-50 0 -93 -28 -93 -87c0 -42 28 -67 67 -67z" />
    <glyph glyph-name="uni0430" unicode="&#x430;" horiz-adv-x="515" 
d="M146 -12c-71 0 -129 45 -129 122c0 121 84 186 230 186h75c4 0 7 2 8 6l3 17c7 37 -6 53 -82 53c-43 0 -83 -12 -107 -28c-6 -3 -10 -2 -12 4l-35 88c-2 6 0 11 6 15c47 30 119 48 193 48c147 0 215 -45 190 -181l-55 -308c-1 -6 -5 -10 -11 -10h-134c-6 0 -10 4 -9 10
l5 30h-1c-29 -31 -73 -52 -135 -52zM221 104c49 0 77 18 83 55l5 32c1 4 -1 6 -5 6h-57c-51 0 -75 -20 -75 -57c0 -22 16 -36 49 -36z" />
    <glyph glyph-name="uni0431" unicode="&#x431;" horiz-adv-x="526" 
d="M241 -12c-116 0 -202 59 -202 183c0 46 7 92 18 154c19 110 42 208 124 271c55 43 129 47 184 56c24 4 47 11 54 31c2 6 5 9 10 9h126c6 0 9 -4 8 -9c-18 -94 -49 -142 -130 -157c-56 -10 -145 -5 -195 -43c-26 -19 -35 -48 -38 -69h3c23 33 71 59 140 59
c110 0 165 -66 165 -169c0 -89 -33 -207 -111 -267c-42 -32 -90 -49 -156 -49zM253 121c25 0 47 10 64 41c16 30 29 102 29 132c0 46 -19 59 -52 59c-29 0 -51 -8 -67 -41c-17 -33 -28 -103 -28 -132c0 -47 22 -59 54 -59z" />
    <glyph glyph-name="uni0432" unicode="&#x432;" horiz-adv-x="528" 
d="M25 0c-5 0 -9 5 -8 9l83 469c1 5 3 9 11 9h263c94 0 136 -39 136 -107c0 -53 -24 -99 -77 -125v-4c27 -12 52 -40 52 -83c0 -105 -71 -168 -191 -168h-269zM198 107h74c31 0 56 21 56 52c0 22 -13 37 -39 37h-75c-5 0 -7 -2 -8 -6l-13 -77c-1 -4 1 -6 5 -6zM232 297h70
c28 0 51 17 51 47c0 21 -12 35 -38 35h-68c-5 0 -8 -2 -9 -6l-12 -70c-1 -4 1 -6 6 -6z" />
    <glyph glyph-name="uni0433" unicode="&#x433;" horiz-adv-x="405" 
d="M25 0c-5 0 -9 5 -8 9l83 469c1 6 6 9 10 9h324c5 0 9 -3 8 -9l-20 -116c-1 -7 -7 -9 -12 -9h-166c-4 0 -6 -2 -7 -6l-59 -338c-1 -4 -5 -9 -10 -9h-143z" />
    <glyph glyph-name="uni0434" unicode="&#x434;" horiz-adv-x="569" 
d="M-41 -93c-5 0 -8 4 -7 9l37 210c1 6 5 9 10 9h23c8 0 14 4 18 11c25 37 63 108 92 273l10 59c1 7 6 9 12 9h390c5 0 8 -4 7 -9l-60 -337c-1 -4 1 -6 5 -6h37c5 0 9 -3 8 -9l-38 -210c-1 -5 -4 -9 -9 -9h-124c-4 0 -8 4 -7 9l14 78c1 4 -1 6 -6 6h-257c-4 0 -7 -2 -8 -6
l-14 -78c-1 -5 -6 -9 -11 -9h-122zM199 135h125c4 0 6 2 7 6l37 209c1 4 -1 6 -5 6h-87c-4 0 -6 -2 -7 -6l-4 -22c-18 -89 -44 -148 -68 -186c-4 -6 -1 -7 2 -7z" />
    </font>
</defs>
</svg>
