<?xml version="1.0" standalone="no"?>
<!DOCTYPE svg PUBLIC "-//W3C//DTD SVG 1.1//EN" "http://www.w3.org/Graphics/SVG/1.1/DTD/svg11.dtd" >
<svg xmlns="http://www.w3.org/2000/svg" xmlns:xlink="http://www.w3.org/1999/xlink" version="1.1">
<metadata>
Created by FontForge 20170910 at Fri May 21 11:51:36 2010
 By Jimmy Wärting
Copyright (c) 2010 Linotype GmbH, www.linotype.com. All rights reserved. This font software may not be reproduced, modified, disclosed or transferred without the express written approval of Linotype GmbH.
</metadata>
<defs>
<font id="DINNextW1G-UltraLightIt" horiz-adv-x="503" >
  <font-face 
    font-family="DIN Next W1G UltraLight"
    font-weight="250"
    font-style="italic"
    font-stretch="normal"
    units-per-em="1000"
    panose-1="2 11 2 3 2 2 3 12 2 3"
    ascent="750"
    descent="-250"
    x-height="474"
    cap-height="680"
    bbox="-152.524 -216 942.19 910"
    underline-thickness="50"
    underline-position="-100"
    slope="-10"
    stemh="23"
    stemv="25"
    unicode-range="U+000D-FB04"
  />
<missing-glyph horiz-adv-x="464" 
d="M454 0h-444c-6 0 -10 4 -10 10v660c0 6 4 10 10 10h444c6 0 10 -4 10 -10v-660c0 -6 -4 -10 -10 -10zM428 28c4 0 6 2 6 6v612c0 4 -2 6 -6 6h-392c-4 0 -6 -2 -6 -6v-612c0 -4 2 -6 6 -6h392zM229 217h-8c-6 0 -10 4 -10 10v25c0 32 6 50 24 72l31 37c37 44 43 62 43 94
c0 50 -35 80 -82 80c-43 0 -75 -23 -87 -77c-1 -6 -5 -9 -12 -8l-7 1c-6 1 -9 5 -8 11c10 58 54 99 114 99c68 0 110 -46 110 -106c0 -43 -13 -67 -44 -104l-31 -37c-21 -26 -23 -35 -23 -62v-25c0 -6 -4 -10 -10 -10zM234 113h-19c-6 0 -10 4 -10 10v28c0 6 4 10 10 10h19
c6 0 10 -4 10 -10v-28c0 -6 -4 -10 -10 -10z" />
    <glyph glyph-name="napostrophe" unicode="&#x22;n" horiz-adv-x="516" 
d="M376 0h-9c-5 0 -8 4 -7 10l52 284c20 116 -15 165 -106 165c-71 0 -151 -57 -167 -148l-53 -301c-1 -6 -5 -10 -11 -10h-9c-5 0 -8 4 -7 10l80 454c1 6 5 10 11 10h8c6 0 9 -4 8 -10l-11 -64h1c34 53 91 84 155 84c103 0 151 -61 129 -183l-53 -291c-1 -6 -5 -10 -11 -10
zM109 554c-5 0 -8 3 -7 9l19 107c1 6 5 10 11 10h10c6 0 9 -4 8 -10l-12 -64c-2 -10 -3 -13 -7 -22l-11 -21c-3 -6 -6 -9 -11 -9z" />
    <glyph glyph-name="IJ" unicode="IJ" horiz-adv-x="672" 
d="M61 10l116 660c1 6 5 10 11 10h9c6 0 9 -4 8 -10l-116 -660c-1 -6 -5 -10 -11 -10h-9c-6 0 -9 4 -8 10zM239 35c-4 3 -5 9 0 14l5 5c5 5 10 5 15 1c30 -23 62 -39 103 -39c86 0 156 46 179 175l84 479c1 6 5 10 11 10h9c6 0 9 -4 8 -10l-85 -482
c-26 -146 -105 -198 -209 -198c-45 0 -90 19 -120 45z" />
    <glyph glyph-name="fi" unicode="fi" horiz-adv-x="507" 
d="M90 0h-9c-5 0 -8 4 -7 10l77 433c1 4 -1 6 -5 6h-56c-6 0 -9 4 -8 10l1 5c1 7 6 10 12 10h56c4 0 6 2 7 6l11 65c19 113 51 135 139 135h20c6 0 9 -4 8 -10l-1 -5c-1 -7 -6 -10 -12 -10h-17c-74 0 -93 -15 -109 -103l-13 -72c-1 -4 1 -6 5 -6h103c6 0 9 -4 8 -10l-1 -5
c-1 -7 -6 -10 -12 -10h-103c-3 0 -5 -1 -6 -6l-77 -433c-1 -6 -5 -10 -11 -10zM476 622h-20c-6 0 -9 4 -8 10l7 38c1 6 5 10 11 10h22c5 0 8 -4 7 -10l-7 -38c-1 -7 -5 -10 -12 -10zM361 0h-8c-6 0 -9 4 -8 10l80 454c1 6 5 10 11 10h8c6 0 9 -4 8 -10l-80 -454
c-1 -6 -5 -10 -11 -10z" />
    <glyph glyph-name="fl" unicode="fl" horiz-adv-x="523" 
d="M90 0h-9c-5 0 -8 4 -7 10l77 433c1 4 -1 6 -5 6h-56c-6 0 -9 4 -8 10l1 5c1 7 6 10 12 10h56c4 0 6 2 7 6l11 65c19 113 51 135 139 135h20c6 0 9 -4 8 -10l-1 -5c-1 -7 -6 -10 -12 -10h-17c-74 0 -93 -15 -109 -103l-13 -72c-1 -4 1 -6 5 -6h103c6 0 9 -4 8 -10l-1 -5
c-1 -7 -6 -10 -12 -10h-103c-3 0 -5 -1 -6 -6l-77 -433c-1 -6 -5 -10 -11 -10zM435 -2h-13c-57 0 -75 29 -63 97l105 575c1 6 5 10 11 10h8c6 0 9 -4 8 -10l-105 -575c-10 -55 1 -72 40 -72h14c6 0 9 -4 8 -10l-1 -5c-1 -7 -6 -10 -12 -10z" />
    <glyph glyph-name="ij" unicode="ij" horiz-adv-x="442" 
d="M190 622h-20c-6 0 -9 4 -8 10l7 38c1 6 5 10 11 10h22c5 0 8 -4 7 -10l-7 -38c-1 -7 -5 -10 -12 -10zM75 0h-8c-6 0 -9 4 -8 10l80 454c1 6 5 10 11 10h8c6 0 9 -4 8 -10l-80 -454c-1 -6 -5 -10 -11 -10zM411 622h-20c-6 0 -9 4 -8 10l7 38c1 6 5 10 11 10h22
c5 0 8 -4 7 -10l-7 -38c-1 -7 -5 -10 -12 -10zM172 -180h-4c-6 0 -9 4 -8 10l1 5c1 7 6 10 12 10h3c58 0 78 17 90 84l94 535c1 6 5 10 11 10h8c6 0 9 -4 8 -10l-94 -535c-15 -86 -45 -109 -121 -109z" />
    <glyph glyph-name="f_f_l" unicode="ffl" horiz-adv-x="809" 
d="M90 0h-9c-5 0 -8 4 -7 10l77 433c1 4 -1 6 -5 6h-56c-6 0 -9 4 -8 10l1 5c1 7 6 10 12 10h56c4 0 6 2 7 6l11 65c19 113 51 135 139 135h20c6 0 9 -4 8 -10l-1 -5c-1 -7 -6 -10 -12 -10h-17c-74 0 -93 -15 -109 -103l-13 -72c-1 -4 1 -6 5 -6h103c6 0 9 -4 8 -10l-1 -5
c-1 -7 -6 -10 -12 -10h-103c-3 0 -5 -1 -6 -6l-77 -433c-1 -6 -5 -10 -11 -10zM376 0h-9c-5 0 -8 4 -7 10l77 433c1 4 -1 6 -5 6h-56c-6 0 -9 4 -8 10l1 5c1 7 6 10 12 10h56c4 0 6 2 7 6l11 65c19 113 51 135 139 135h20c6 0 9 -4 8 -10l-1 -5c-1 -7 -6 -10 -12 -10h-17
c-74 0 -93 -15 -109 -103l-13 -72c-1 -4 1 -6 5 -6h103c6 0 9 -4 8 -10l-1 -5c-1 -7 -6 -10 -12 -10h-103c-3 0 -5 -1 -6 -6l-77 -433c-1 -6 -5 -10 -11 -10zM721 -2h-13c-57 0 -75 29 -63 97l105 575c1 6 5 10 11 10h8c6 0 9 -4 8 -10l-105 -575c-10 -55 1 -72 40 -72h14
c6 0 9 -4 8 -10l-1 -5c-1 -7 -6 -10 -12 -10z" />
    <glyph glyph-name="f_f_i" unicode="ffi" horiz-adv-x="793" 
d="M90 0h-9c-5 0 -8 4 -7 10l77 433c1 4 -1 6 -5 6h-56c-6 0 -9 4 -8 10l1 5c1 7 6 10 12 10h56c4 0 6 2 7 6l11 65c19 113 51 135 139 135h20c6 0 9 -4 8 -10l-1 -5c-1 -7 -6 -10 -12 -10h-17c-74 0 -93 -15 -109 -103l-13 -72c-1 -4 1 -6 5 -6h103c6 0 9 -4 8 -10l-1 -5
c-1 -7 -6 -10 -12 -10h-103c-3 0 -5 -1 -6 -6l-77 -433c-1 -6 -5 -10 -11 -10zM376 0h-9c-5 0 -8 4 -7 10l77 433c1 4 -1 6 -5 6h-56c-6 0 -9 4 -8 10l1 5c1 7 6 10 12 10h56c4 0 6 2 7 6l11 65c19 113 51 135 139 135h20c6 0 9 -4 8 -10l-1 -5c-1 -7 -6 -10 -12 -10h-17
c-74 0 -93 -15 -109 -103l-13 -72c-1 -4 1 -6 5 -6h103c6 0 9 -4 8 -10l-1 -5c-1 -7 -6 -10 -12 -10h-103c-3 0 -5 -1 -6 -6l-77 -433c-1 -6 -5 -10 -11 -10zM762 622h-20c-6 0 -9 4 -8 10l7 38c1 6 5 10 11 10h22c5 0 8 -4 7 -10l-7 -38c-1 -7 -5 -10 -12 -10zM647 0h-8
c-6 0 -9 4 -8 10l80 454c1 6 5 10 11 10h8c6 0 9 -4 8 -10l-80 -454c-1 -6 -5 -10 -11 -10z" />
    <glyph glyph-name="f_f" unicode="ff" horiz-adv-x="572" 
d="M90 0h-9c-5 0 -8 4 -7 10l77 433c1 4 -1 6 -5 6h-56c-6 0 -9 4 -8 10l1 5c1 7 6 10 12 10h56c4 0 6 2 7 6l11 65c19 113 51 135 139 135h20c6 0 9 -4 8 -10l-1 -5c-1 -7 -6 -10 -12 -10h-17c-74 0 -93 -15 -109 -103l-13 -72c-1 -4 1 -6 5 -6h103c6 0 9 -4 8 -10l-1 -5
c-1 -7 -6 -10 -12 -10h-103c-3 0 -5 -1 -6 -6l-77 -433c-1 -6 -5 -10 -11 -10zM376 0h-9c-5 0 -8 4 -7 10l77 433c1 4 -1 6 -5 6h-56c-6 0 -9 4 -8 10l1 5c1 7 6 10 12 10h56c4 0 6 2 7 6l11 65c19 113 51 135 139 135h20c6 0 9 -4 8 -10l-1 -5c-1 -7 -6 -10 -12 -10h-17
c-74 0 -93 -15 -109 -103l-13 -72c-1 -4 1 -6 5 -6h103c6 0 9 -4 8 -10l-1 -5c-1 -7 -6 -10 -12 -10h-103c-3 0 -5 -1 -6 -6l-77 -433c-1 -6 -5 -10 -11 -10z" />
    <glyph glyph-name=".notdef" horiz-adv-x="464" 
d="M454 0h-444c-6 0 -10 4 -10 10v660c0 6 4 10 10 10h444c6 0 10 -4 10 -10v-660c0 -6 -4 -10 -10 -10zM428 28c4 0 6 2 6 6v612c0 4 -2 6 -6 6h-392c-4 0 -6 -2 -6 -6v-612c0 -4 2 -6 6 -6h392zM229 217h-8c-6 0 -10 4 -10 10v25c0 32 6 50 24 72l31 37c37 44 43 62 43 94
c0 50 -35 80 -82 80c-43 0 -75 -23 -87 -77c-1 -6 -5 -9 -12 -8l-7 1c-6 1 -9 5 -8 11c10 58 54 99 114 99c68 0 110 -46 110 -106c0 -43 -13 -67 -44 -104l-31 -37c-21 -26 -23 -35 -23 -62v-25c0 -6 -4 -10 -10 -10zM234 113h-19c-6 0 -10 4 -10 10v28c0 6 4 10 10 10h19
c6 0 10 -4 10 -10v-28c0 -6 -4 -10 -10 -10z" />
    <glyph glyph-name=".null" horiz-adv-x="500" 
 />
    <glyph glyph-name=".null" horiz-adv-x="500" 
 />
    <glyph glyph-name="CR" unicode="&#xd;" horiz-adv-x="0" 
 />
    <glyph glyph-name="space" unicode=" " horiz-adv-x="240" 
 />
    <glyph glyph-name="exclam" unicode="!" horiz-adv-x="237" 
d="M107 169c-5 0 -9 4 -8 10l85 491c1 6 5 10 11 10h10c6 0 9 -4 8 -10l-89 -491c-1 -6 -5 -10 -11 -10h-6zM59 10l9 48c1 6 5 10 11 10h25c6 0 9 -4 8 -10l-8 -48c-2 -6 -6 -10 -12 -10h-25c-6 0 -9 4 -8 10z" />
    <glyph glyph-name="quotedbl" unicode="&#x22;" horiz-adv-x="287" 
d="M248 538c-6 0 -9 4 -8 10l21 122c1 6 5 10 11 10h8c6 0 9 -4 8 -10l-21 -122c-1 -6 -5 -10 -11 -10h-8zM143 538c-6 0 -9 4 -8 10l21 122c1 6 5 10 11 10h8c6 0 9 -4 8 -10l-21 -122c-1 -6 -5 -10 -11 -10h-8z" />
    <glyph glyph-name="numbersign" unicode="#" horiz-adv-x="497" 
d="M59 10l66 216h-86c-6 0 -9 4 -8 10l1 4c1 6 5 10 12 10h89l61 199h-92c-6 0 -9 4 -8 10l1 4c1 6 5 10 12 10h94l61 197c2 7 6 10 12 10h7c7 0 9 -4 7 -10l-61 -197h160l60 197c2 7 6 10 12 10h7c7 0 9 -4 7 -10l-61 -197h91c6 0 9 -4 8 -10l-1 -4c-1 -6 -5 -10 -12 -10
h-93l-61 -199h97c6 0 9 -4 8 -10l-1 -4c-1 -6 -5 -10 -12 -10h-99l-66 -216c-2 -6 -5 -10 -12 -10h-7c-7 0 -9 4 -7 10l66 216h-160l-66 -216c-2 -6 -5 -10 -12 -10h-7c-7 0 -9 4 -7 10zM159 250h159l61 199h-159z" />
    <glyph glyph-name="dollar" unicode="$" 
d="M29 44c-3 3 -3 9 1 13l5 5c5 5 9 4 14 1c37 -26 86 -46 152 -47l56 316c-99 16 -139 69 -139 145c0 123 87 207 203 213l9 51c1 6 5 10 11 10h6c6 0 9 -4 8 -10l-9 -52c51 -2 96 -19 129 -41c4 -3 5 -8 1 -14l-3 -4c-4 -6 -10 -5 -15 -2c-41 24 -74 34 -117 36l-54 -309
h1c103 -15 145 -67 145 -143c0 -122 -81 -212 -210 -221l-9 -52c-1 -6 -6 -10 -12 -10h-6c-6 0 -9 4 -8 10l9 51c-63 1 -133 24 -168 54zM262 359l54 305c-99 -5 -171 -85 -171 -185c0 -66 29 -105 117 -120zM227 16c105 8 179 85 179 193c0 65 -31 106 -123 120h-1z" />
    <glyph glyph-name="percent" unicode="%" horiz-adv-x="732" 
d="M123 0l497 680c5 7 8 10 15 10h9c6 0 8 -4 4 -10l-496 -680c-6 -7 -9 -10 -16 -10h-9c-6 0 -9 4 -4 10zM220 330c-54 0 -88 32 -88 90c0 43 22 160 40 197c24 50 60 71 106 71c54 0 88 -32 88 -90c0 -43 -22 -160 -40 -197c-24 -50 -60 -71 -106 -71zM222 353
c35 0 61 17 80 53c20 40 39 145 39 191c0 41 -21 68 -65 68c-35 0 -61 -17 -80 -53c-20 -40 -39 -145 -39 -191c0 -41 21 -68 65 -68zM406 82c0 43 22 160 40 197c24 50 60 71 106 71c54 0 88 -32 88 -90c0 -43 -22 -160 -40 -197c-24 -50 -60 -71 -106 -71
c-54 0 -88 32 -88 90zM431 83c0 -41 21 -68 65 -68c35 0 61 17 80 53c20 40 39 145 39 191c0 41 -21 68 -65 68c-35 0 -61 -17 -80 -53c-20 -40 -39 -145 -39 -191z" />
    <glyph glyph-name="ampersand" unicode="&#x26;" horiz-adv-x="581" 
d="M50 126c0 100 69 172 182 256c-47 87 -65 125 -65 161c0 82 61 147 151 147c65 0 108 -44 108 -106c0 -58 -29 -111 -161 -208l125 -232l90 98c5 5 10 5 14 2l6 -5c4 -4 3 -9 -2 -14l-95 -104l38 -71c12 -21 20 -25 38 -25h15c6 0 9 -4 8 -10l-1 -5c-1 -7 -5 -10 -11 -10
h-10c-31 0 -45 8 -58 32l-38 69c-72 -75 -133 -111 -202 -111c-82 0 -132 55 -132 136zM253 397c120 88 146 138 146 184c0 53 -31 84 -86 84c-70 0 -119 -54 -119 -120c0 -31 14 -64 59 -148zM77 129c0 -72 39 -114 108 -114c61 0 116 37 187 110l-128 235
c-100 -73 -167 -144 -167 -231z" />
    <glyph glyph-name="quotesingle" unicode="'" horiz-adv-x="182" 
d="M143 538c-6 0 -9 4 -8 10l21 122c1 6 5 10 11 10h8c6 0 9 -4 8 -10l-21 -122c-1 -6 -5 -10 -11 -10h-8z" />
    <glyph glyph-name="parenleft" unicode="(" horiz-adv-x="272" 
d="M140 -74c-25 78 -40 167 -40 257c0 191 65 372 181 547c5 7 9 10 15 10h7c6 0 9 -4 5 -10c-110 -168 -181 -346 -181 -545c0 -91 14 -180 39 -259c2 -6 -2 -10 -8 -10h-6c-6 0 -10 4 -12 10z" />
    <glyph glyph-name="parenright" unicode=")" horiz-adv-x="272" 
d="M-2 -74c110 168 181 346 181 545c0 91 -14 180 -39 259c-2 6 2 10 8 10h6c6 0 10 -4 12 -10c25 -78 40 -167 40 -257c0 -191 -65 -372 -181 -547c-5 -7 -9 -10 -15 -10h-7c-6 0 -9 4 -5 10z" />
    <glyph glyph-name="asterisk" unicode="*" horiz-adv-x="343" 
d="M201 408c-6 0 -9 4 -8 10l18 103l-96 -51c-7 -4 -12 -3 -14 3l-1 4c-2 6 0 10 7 14l97 53l-77 53c-5 3 -5 9 -2 13l3 4c3 4 8 5 13 2l77 -52l19 106c1 6 6 10 12 10h4c6 0 9 -4 8 -10l-19 -105l97 52c7 4 12 3 14 -3l1 -4c2 -6 0 -10 -7 -14l-96 -53l78 -52
c5 -3 5 -9 2 -13l-3 -4c-3 -4 -8 -5 -13 -2l-80 51l-18 -105c-1 -6 -6 -10 -12 -10h-4z" />
    <glyph glyph-name="plus" unicode="+" 
d="M243 95v163c0 4 -2 6 -6 6h-161c-6 0 -10 4 -10 10v5c0 6 4 10 10 10h161c4 0 6 2 6 6v163c0 6 4 10 10 10h7c6 0 10 -4 10 -10v-163c0 -4 2 -6 6 -6h161c6 0 10 -4 10 -10v-5c0 -6 -4 -10 -10 -10h-161c-4 0 -6 -2 -6 -6v-163c0 -6 -4 -10 -10 -10h-7c-6 0 -10 4 -10 10
z" />
    <glyph glyph-name="comma" unicode="," horiz-adv-x="195" 
d="M74 -21l-31 -73c-2 -5 -5 -8 -10 -8s-8 4 -7 9l26 151c1 6 5 10 11 10h20c6 0 9 -4 8 -10l-10 -56c-2 -10 -3 -13 -7 -23z" />
    <glyph glyph-name="hyphen" unicode="-" horiz-adv-x="353" 
d="M64 255c-6 0 -9 4 -8 10l1 6c1 6 5 8 11 8h236c6 0 9 -4 8 -10l-1 -6c-1 -6 -5 -8 -11 -8h-236z" />
    <glyph glyph-name="period" unicode="." horiz-adv-x="195" 
d="M39 10l8 48c1 6 5 10 11 10h25c6 0 9 -4 8 -10l-8 -48c-1 -6 -5 -10 -11 -10h-25c-6 0 -9 4 -8 10z" />
    <glyph glyph-name="slash" unicode="/" horiz-adv-x="384" 
d="M32 0l332 680c3 7 8 10 15 10h8c6 0 8 -4 5 -10l-332 -680c-3 -7 -8 -10 -15 -10h-8c-6 0 -8 4 -5 10z" />
    <glyph glyph-name="zero" unicode="0" 
d="M72 132c0 94 53 376 84 441c41 85 103 117 179 117c90 0 140 -57 140 -142c0 -94 -53 -376 -84 -441c-41 -85 -103 -117 -179 -117c-90 0 -140 57 -140 142zM99 136c0 -75 39 -121 117 -121c68 0 117 33 150 101c32 66 82 346 82 428c0 75 -39 121 -117 121
c-68 0 -117 -33 -150 -101c-32 -66 -82 -346 -82 -428z" />
    <glyph glyph-name="one" unicode="1" 
d="M213 10l111 632h-2l-142 -96c-6 -4 -11 -1 -10 6l2 13c1 6 3 9 8 12l145 97c6 4 9 6 15 6h7c6 0 10 -4 9 -10l-116 -660c-1 -6 -5 -10 -11 -10h-8c-6 0 -9 4 -8 10z" />
    <glyph glyph-name="two" unicode="2" 
d="M38 9v2c0 4 2 8 7 13l303 343c61 69 90 120 90 177c0 72 -46 121 -119 121c-79 0 -138 -55 -165 -135c-2 -6 -7 -9 -12 -8l-7 1c-5 1 -7 6 -5 12c26 84 94 155 192 155c87 0 142 -61 142 -144c0 -73 -36 -128 -101 -201l-283 -319v-1h284c6 0 9 -4 8 -10l-1 -5
c-1 -6 -5 -10 -12 -10h-313c-5 0 -8 3 -8 9z" />
    <glyph glyph-name="three" unicode="3" 
d="M53 127c-1 6 1 10 7 12l7 2c6 2 10 -1 11 -7c7 -53 33 -119 131 -119c104 0 181 89 181 199c0 75 -45 130 -124 130h-30c-5 0 -8 4 -7 10l1 6c1 6 5 9 10 9h30c93 0 168 80 168 175c0 72 -43 121 -119 121c-87 0 -138 -58 -158 -113c-2 -6 -7 -9 -12 -8l-7 1
c-5 1 -7 6 -5 12c20 66 86 133 186 133c89 0 141 -59 141 -143c0 -95 -55 -159 -128 -191v-2c48 -20 81 -69 81 -135c0 -127 -84 -229 -211 -229c-111 0 -146 78 -153 137z" />
    <glyph glyph-name="four" unicode="4" 
d="M53 153c-6 0 -9 3 -8 9l1 5c1 4 2 7 4 10l301 495c4 6 7 8 14 8h10c6 0 8 -4 5 -9l-300 -492v-1h226c4 0 6 2 7 6l34 196c1 6 5 10 11 10h8c6 0 9 -4 8 -10l-34 -196c-1 -4 1 -6 5 -6h82c6 0 9 -4 8 -10l-1 -6c-1 -6 -6 -9 -12 -9h-82c-4 0 -6 -2 -7 -6l-24 -137
c-1 -6 -5 -10 -11 -10h-8c-6 0 -9 4 -8 10l25 137c1 4 -1 6 -5 6h-249z" />
    <glyph glyph-name="five" unicode="5" 
d="M72 135c0 6 3 11 9 12l7 1c7 1 10 -3 10 -9c0 -72 36 -124 121 -124c60 0 108 26 140 91c25 51 41 142 41 192c0 79 -32 121 -107 121c-71 0 -126 -47 -149 -101c-3 -6 -6 -10 -12 -10h-7c-6 0 -9 4 -8 10l62 352c1 6 5 10 11 10h288c6 0 10 -4 9 -10l-1 -5
c-1 -6 -6 -10 -12 -10h-266c-4 0 -6 -2 -7 -6l-49 -280h1c23 37 72 75 143 75c83 0 131 -47 131 -140c0 -51 -15 -150 -44 -209c-36 -73 -94 -105 -168 -105c-98 0 -143 63 -143 145z" />
    <glyph glyph-name="six" unicode="6" 
d="M62 152c0 59 19 114 70 191l219 329c4 6 7 8 14 8h11c7 0 8 -5 5 -9l-204 -306l2 -1c23 19 58 31 103 31c95 0 153 -64 153 -159c0 -122 -83 -246 -219 -246c-95 0 -154 61 -154 162zM89 152c0 -82 48 -137 128 -137c112 0 191 106 191 218c0 82 -49 137 -129 137
c-112 0 -190 -106 -190 -218z" />
    <glyph glyph-name="seven" unicode="7" 
d="M108 11l357 642v2h-271c-4 0 -6 -2 -7 -6l-18 -103c-1 -6 -6 -10 -12 -10h-7c-6 0 -9 4 -8 10l22 124c1 6 5 10 11 10h314c6 0 9 -4 8 -10l-2 -11c-1 -4 -3 -9 -5 -12l-354 -638c-4 -7 -7 -9 -14 -9h-10c-5 0 -8 4 -4 11z" />
    <glyph glyph-name="eight" unicode="8" 
d="M59 142c0 97 56 183 149 219v2c-45 22 -70 65 -70 122c0 106 76 205 197 205c85 0 139 -56 139 -138c0 -88 -49 -163 -127 -193v-2c53 -23 86 -72 86 -138c0 -126 -92 -229 -221 -229c-93 0 -153 62 -153 152zM281 371c96 0 167 79 167 177c0 69 -45 117 -117 117
c-96 0 -167 -79 -167 -177c0 -69 45 -117 117 -117zM85 147c0 -77 50 -132 132 -132c103 0 190 87 190 199c0 77 -50 132 -132 132c-103 0 -190 -90 -190 -199z" />
    <glyph glyph-name="nine" unicode="9" 
d="M165 9l204 306l-2 1c-23 -19 -58 -31 -103 -31c-95 0 -153 64 -153 159c0 122 83 246 219 246c95 0 154 -61 154 -162c0 -59 -19 -114 -70 -191l-219 -329c-4 -6 -7 -8 -14 -8h-11c-7 0 -8 5 -5 9zM267 310c112 0 190 106 190 218c0 82 -48 137 -128 137
c-112 0 -191 -106 -191 -218c0 -82 49 -137 129 -137z" />
    <glyph glyph-name="colon" unicode=":" horiz-adv-x="195" 
d="M119 406c-6 0 -9 4 -8 10l8 48c1 6 5 10 11 10h25c6 0 9 -4 8 -10l-8 -48c-1 -6 -5 -10 -11 -10h-25zM39 10l8 48c1 6 5 10 11 10h25c6 0 9 -4 8 -10l-8 -48c-1 -6 -5 -10 -11 -10h-25c-6 0 -9 4 -8 10z" />
    <glyph glyph-name="semicolon" unicode=";" horiz-adv-x="195" 
d="M119 406c-6 0 -9 4 -8 10l8 48c1 6 5 10 11 10h25c6 0 9 -4 8 -10l-8 -48c-1 -6 -5 -10 -11 -10h-25zM72 -21l-31 -73c-2 -5 -5 -8 -10 -8s-8 4 -7 9l26 151c1 6 5 10 11 10h20c6 0 9 -4 8 -10l-10 -56c-2 -10 -3 -13 -7 -23z" />
    <glyph glyph-name="less" unicode="&#x3c;" 
d="M68 262c-8 3 -10 6 -10 12v4c0 6 2 9 10 12l361 146c6 2 10 -1 10 -7v-7c0 -7 -3 -10 -10 -13l-332 -132v-2l332 -132c7 -3 10 -6 10 -13v-7c0 -6 -4 -9 -10 -7z" />
    <glyph glyph-name="equal" unicode="=" 
d="M71 359c-6 0 -10 4 -10 10v5c0 6 4 10 10 10h361c6 0 10 -4 10 -10v-5c0 -6 -4 -10 -10 -10h-361zM71 168c-6 0 -10 4 -10 10v5c0 6 4 10 10 10h361c6 0 10 -4 10 -10v-5c0 -6 -4 -10 -10 -10h-361z" />
    <glyph glyph-name="greater" unicode="&#x3e;" 
d="M74 116c-6 -2 -10 1 -10 7v7c0 7 3 10 10 13l332 132v2l-332 132c-7 3 -10 6 -10 13v7c0 6 4 9 10 7l361 -146c8 -3 10 -6 10 -12v-4c0 -6 -2 -9 -10 -12z" />
    <glyph glyph-name="question" unicode="?" horiz-adv-x="421" 
d="M187 165c-6 0 -9 4 -8 10l8 40c8 42 19 69 52 104l53 56c74 78 100 124 100 180c0 71 -46 110 -110 110c-73 0 -130 -49 -158 -130c-2 -6 -6 -9 -12 -8l-8 2c-5 1 -7 5 -5 11c29 91 96 150 187 150c84 0 132 -55 132 -133c0 -60 -30 -116 -96 -186l-53 -57
c-39 -42 -46 -56 -55 -99l-8 -40c-1 -6 -5 -10 -11 -10h-8zM146 10l8 48c1 6 5 10 11 10h25c6 0 9 -4 8 -10l-8 -48c-1 -6 -5 -10 -11 -10h-25c-6 0 -9 4 -8 10z" />
    <glyph glyph-name="at" unicode="@" horiz-adv-x="887" 
d="M60 191c0 273 176 468 443 468c191 0 324 -120 324 -318c0 -133 -48 -284 -183 -284c-49 0 -90 34 -97 87h-1c-35 -61 -91 -87 -151 -87c-71 1 -118 45 -118 127c0 50 12 126 38 180c34 70 85 101 151 101c69 0 99 -32 112 -68h2l8 49c1 6 6 10 12 10h7c6 0 9 -4 8 -10
l-43 -245c-14 -81 26 -119 75 -119c118 0 153 157 153 255c0 190 -120 297 -302 297c-239 0 -411 -177 -411 -439c0 -185 119 -297 302 -297c98 0 157 24 211 51c4 2 9 1 11 -3l4 -8c2 -5 0 -9 -6 -12c-57 -30 -125 -53 -225 -53c-194 0 -324 121 -324 318zM304 186
c0 -61 27 -104 94 -104c56 0 102 25 129 81c22 45 37 120 37 173c0 61 -29 104 -94 104c-56 0 -102 -25 -129 -81c-22 -45 -37 -120 -37 -173z" />
    <glyph glyph-name="A" unicode="A" horiz-adv-x="567" 
d="M7 0c-6 0 -8 4 -5 10l347 660c3 6 6 10 12 10h10c6 0 8 -4 9 -10l112 -660c1 -6 -3 -10 -9 -10h-8c-5 0 -10 2 -11 10l-31 187h-302l-98 -187c-4 -8 -9 -10 -14 -10h-12zM145 223h283l-68 407h-2z" />
    <glyph glyph-name="B" unicode="B" horiz-adv-x="583" 
d="M61 10l116 660c1 6 5 10 11 10h206c101 0 159 -51 159 -141c0 -101 -58 -172 -143 -192v-2c40 -9 96 -47 96 -133c0 -130 -81 -212 -224 -212h-213c-5 0 -9 4 -8 10zM156 360h186c117 0 184 76 184 175c0 75 -45 119 -132 119h-186c-4 0 -6 -2 -7 -6l-49 -282
c-1 -4 1 -6 4 -6zM93 32c-1 -4 1 -6 5 -6h189c125 0 192 77 192 183c0 75 -45 125 -138 125h-189c-4 0 -6 -2 -7 -6z" />
    <glyph glyph-name="C" unicode="C" horiz-adv-x="531" 
d="M67 178c0 86 33 282 73 364c50 103 117 148 217 148c74 0 140 -38 168 -123c2 -6 0 -9 -5 -11l-8 -3c-5 -2 -10 0 -11 4c-26 73 -77 107 -146 107c-84 0 -145 -39 -188 -128c-40 -82 -72 -271 -72 -353c0 -106 52 -167 154 -167c79 0 133 36 180 105c3 4 7 5 11 3l9 -5
c5 -3 4 -8 1 -13c-52 -82 -122 -116 -205 -116c-112 0 -178 69 -178 188z" />
    <glyph glyph-name="D" unicode="D" horiz-adv-x="605" 
d="M61 10l116 660c1 6 5 10 11 10h193c115 0 183 -54 183 -173c0 -85 -36 -294 -76 -376c-46 -94 -116 -131 -226 -131h-193c-6 0 -9 4 -8 10zM93 32c-1 -4 0 -6 4 -6h167c100 0 161 37 199 114c38 78 73 277 73 364c0 102 -50 150 -160 150h-168c-4 0 -6 -1 -7 -6z" />
    <glyph glyph-name="E" unicode="E" horiz-adv-x="530" 
d="M61 10l116 660c1 6 5 10 11 10h359c6 0 9 -4 8 -10l-1 -6c-1 -7 -5 -10 -12 -10h-334c-4 0 -6 -2 -7 -6l-49 -282c-1 -5 2 -7 6 -7h287c6 0 9 -4 8 -10l-1 -6c-1 -7 -5 -10 -12 -10h-288c-4 0 -6 -2 -7 -6l-52 -295c-1 -4 1 -6 5 -6h334c6 0 9 -4 8 -10l-1 -6
c-1 -7 -5 -10 -12 -10h-358c-6 0 -9 4 -8 10z" />
    <glyph glyph-name="F" unicode="F" horiz-adv-x="524" 
d="M61 10l116 660c1 6 5 10 11 10h359c6 0 9 -4 8 -10l-1 -6c-1 -7 -5 -10 -12 -10h-334c-4 0 -6 -2 -7 -6l-50 -289c-1 -5 2 -7 6 -7h287c6 0 9 -4 8 -10l-1 -6c-1 -7 -5 -10 -12 -10h-288c-4 0 -6 -2 -7 -6l-55 -310c-1 -6 -5 -10 -11 -10h-9c-6 0 -9 4 -8 10z" />
    <glyph glyph-name="G" unicode="G" horiz-adv-x="577" 
d="M68 178c0 86 33 282 73 364c49 101 121 148 229 148c73 0 147 -34 175 -118c2 -6 0 -9 -5 -11l-8 -3c-5 -2 -10 0 -11 4c-26 72 -85 102 -156 102c-90 0 -156 -44 -197 -128c-40 -82 -72 -271 -72 -353c0 -107 53 -167 155 -167c87 0 155 40 199 130c18 36 35 88 45 153
c1 4 -1 6 -5 6h-168c-6 0 -8 4 -7 10l1 7c1 6 4 9 10 9h192c5 0 8 -4 7 -10l-5 -33c-9 -55 -27 -115 -44 -150c-50 -103 -122 -148 -229 -148c-113 0 -179 69 -179 188z" />
    <glyph glyph-name="H" unicode="H" horiz-adv-x="622" 
d="M61 10l116 660c1 6 5 10 11 10h9c6 0 9 -4 8 -10l-54 -305c-1 -4 1 -6 5 -6h357c4 0 6 2 7 6l54 305c1 6 5 10 11 10h9c6 0 9 -4 8 -10l-116 -660c-1 -6 -5 -10 -11 -10h-9c-6 0 -9 4 -8 10l55 317c1 4 0 6 -4 6h-357c-4 0 -6 -2 -7 -6l-56 -317c-1 -6 -5 -10 -11 -10h-9
c-6 0 -9 4 -8 10z" />
    <glyph glyph-name="I" unicode="I" horiz-adv-x="225" 
d="M61 10l116 660c1 6 5 10 11 10h9c6 0 9 -4 8 -10l-116 -660c-1 -6 -5 -10 -11 -10h-9c-6 0 -9 4 -8 10z" />
    <glyph glyph-name="J" unicode="J" horiz-adv-x="447" 
d="M14 35c-4 3 -5 9 0 14l5 5c5 5 10 5 15 1c30 -23 62 -39 103 -39c86 0 156 46 179 175l84 479c1 6 5 10 11 10h9c6 0 9 -4 8 -10l-85 -482c-26 -146 -105 -198 -209 -198c-45 0 -90 19 -120 45z" />
    <glyph glyph-name="K" unicode="K" horiz-adv-x="559" 
d="M61 10l116 660c1 6 5 10 11 10h9c6 0 9 -4 8 -10l-74 -422l414 422c7 7 12 10 19 10h14c5 0 7 -5 3 -10l-256 -260l153 -400c2 -5 -1 -10 -7 -10h-11c-6 0 -9 2 -12 10l-143 379l-182 -185l-34 -194c-1 -6 -5 -10 -11 -10h-9c-6 0 -9 4 -8 10z" />
    <glyph glyph-name="L" unicode="L" horiz-adv-x="500" 
d="M61 10l116 660c1 6 5 10 11 10h9c6 0 9 -4 8 -10l-112 -638c-1 -4 1 -6 4 -6h334c5 0 9 -4 8 -10l-1 -6c-1 -6 -5 -10 -11 -10h-358c-5 0 -9 4 -8 10z" />
    <glyph glyph-name="M" unicode="M" horiz-adv-x="724" 
d="M61 10l116 660c1 6 5 10 11 10h9c6 0 9 -3 11 -10l138 -528h2l322 528c4 7 9 10 14 10h12c6 0 9 -4 8 -10l-116 -660c-1 -6 -5 -10 -11 -10h-9c-6 0 -9 4 -8 10l105 596h-2l-302 -492c-5 -8 -8 -10 -17 -10h-4c-9 0 -13 3 -15 11l-129 494h-2l-105 -599
c-1 -6 -5 -10 -11 -10h-9c-5 0 -9 4 -8 10z" />
    <glyph glyph-name="N" unicode="N" horiz-adv-x="623" 
d="M61 10l116 660c1 6 5 10 11 10h8c6 0 10 -2 13 -10l256 -611h2l108 611c1 6 5 10 11 10h9c6 0 9 -4 8 -10l-116 -660c-1 -6 -5 -10 -11 -10h-7c-6 0 -11 2 -14 10l-256 614h-2l-108 -614c-1 -6 -5 -10 -11 -10h-9c-5 0 -9 4 -8 10z" />
    <glyph glyph-name="O" unicode="O" horiz-adv-x="580" 
d="M247 -10c-114 0 -179 69 -179 188c0 86 33 282 73 364c49 101 121 148 228 148c114 0 179 -69 179 -188c0 -86 -33 -282 -73 -364c-49 -101 -121 -148 -228 -148zM251 16c90 0 156 44 197 128c40 82 72 271 72 353c0 107 -53 167 -155 167c-90 0 -156 -44 -197 -128
c-40 -82 -72 -271 -72 -353c0 -107 53 -167 155 -167z" />
    <glyph glyph-name="P" unicode="P" horiz-adv-x="555" 
d="M78 0h-9c-6 0 -9 4 -8 10l116 660c1 6 5 10 11 10h206c108 0 166 -52 166 -141c0 -142 -95 -225 -230 -225h-182c-4 0 -6 -2 -7 -6l-52 -298c-1 -6 -5 -10 -11 -10zM331 340c123 1 202 71 202 197c0 76 -48 117 -143 117h-182c-4 0 -6 -2 -7 -6l-53 -302c-1 -4 1 -6 5 -6
h178z" />
    <glyph glyph-name="Q" unicode="Q" horiz-adv-x="580" 
d="M456 -38l-4 -2c-5 -3 -10 -3 -13 2l-41 75c-41 -32 -90 -47 -151 -47c-114 0 -179 69 -179 188c0 86 33 282 73 364c49 101 121 148 228 148c114 0 179 -69 179 -188c0 -86 -33 -282 -73 -364c-17 -34 -36 -62 -58 -84l44 -79c3 -5 1 -10 -5 -13zM251 16
c53 0 98 15 134 45l-56 102c-2 5 -1 10 5 13l4 2c5 3 10 3 13 -2l53 -97c17 18 31 39 44 65c40 82 72 271 72 353c0 107 -53 167 -155 167c-90 0 -156 -44 -197 -128c-40 -82 -72 -271 -72 -353c0 -107 53 -167 155 -167z" />
    <glyph glyph-name="R" unicode="R" horiz-adv-x="589" 
d="M468 0h-12c-6 0 -9 2 -11 9l-90 312c-9 -1 -17 -1 -26 -1h-179c-4 0 -6 -2 -7 -6l-54 -304c-1 -6 -5 -10 -11 -10h-9c-6 0 -9 4 -8 10l116 660c1 6 5 10 11 10h205c107 0 165 -52 165 -145c0 -117 -65 -193 -177 -211l93 -314c2 -6 0 -10 -6 -10zM334 346
c129 0 197 75 197 187c0 82 -48 121 -143 121h-180c-4 0 -6 -2 -7 -6l-52 -296c-1 -4 1 -6 5 -6h180z" />
    <glyph glyph-name="S" unicode="S" horiz-adv-x="575" 
d="M237 -10c-78 0 -157 37 -192 74c-3 4 -3 9 1 13l5 5c5 5 10 5 14 1c44 -39 103 -67 183 -67c130 0 218 73 218 187c0 75 -34 111 -144 127l-28 4c-109 16 -157 67 -157 150c0 119 85 206 222 206c67 0 132 -24 170 -54c5 -4 5 -8 1 -14l-4 -5c-3 -4 -9 -5 -15 -1
c-47 32 -99 48 -158 48c-113 0 -188 -77 -188 -176c0 -75 35 -114 147 -130l28 -4c114 -16 153 -67 153 -150c0 -127 -91 -214 -256 -214z" />
    <glyph glyph-name="T" unicode="T" horiz-adv-x="491" 
d="M211 0h-9c-6 0 -9 4 -8 10l112 638c1 4 0 6 -4 6h-196c-5 0 -8 4 -7 10l1 6c1 6 5 10 11 10h431c5 0 8 -4 7 -10l-1 -6c-1 -6 -5 -10 -11 -10h-196c-4 0 -6 -2 -7 -6l-112 -638c-1 -6 -5 -10 -11 -10z" />
    <glyph glyph-name="U" unicode="U" horiz-adv-x="607" 
d="M273 -10c-138 0 -209 78 -180 242l77 438c1 6 5 10 11 10h9c6 0 9 -4 8 -10l-77 -439c-25 -144 28 -215 154 -215c120 0 187 58 215 215l77 439c1 6 5 10 11 10h9c6 0 9 -4 8 -10l-77 -438c-30 -172 -105 -242 -245 -242z" />
    <glyph glyph-name="V" unicode="V" horiz-adv-x="535" 
d="M233 0h-9c-6 0 -8 4 -9 10l-106 654c-2 11 2 16 9 16h6c8 0 11 -3 12 -11l100 -622h1l315 623c4 8 8 10 16 10h7c7 0 11 -5 5 -16l-334 -654c-4 -7 -7 -10 -13 -10z" />
    <glyph glyph-name="W" unicode="W" horiz-adv-x="783" 
d="M539 0h-8c-6 0 -9 3 -10 10l-58 610h-2l-274 -610c-3 -7 -7 -10 -14 -10h-8c-6 0 -9 3 -10 10l-36 659c0 7 3 11 10 11h7c8 0 11 -4 11 -11l33 -609h2l271 610c3 7 7 10 14 10h8c7 0 10 -3 11 -10l57 -610h2l247 610c3 7 6 10 15 10h8c7 0 10 -4 7 -11l-269 -659
c-3 -7 -7 -10 -14 -10z" />
    <glyph glyph-name="X" unicode="X" horiz-adv-x="511" 
d="M428 0h-12c-6 0 -9 3 -11 8l-127 322h-1l-242 -322c-4 -5 -7 -8 -12 -8h-16c-6 0 -8 5 -4 10l263 349l-122 311c-2 5 0 10 6 10h13c5 0 8 -3 10 -8l112 -285h1l212 285c4 5 7 8 13 8h14c6 0 8 -5 4 -10l-232 -312l137 -348c2 -5 0 -10 -6 -10z" />
    <glyph glyph-name="Y" unicode="Y" horiz-adv-x="486" 
d="M208 0h-9c-6 0 -9 4 -8 10l47 270l-128 388c-2 7 1 12 8 12h6c8 0 11 -2 14 -10l118 -356h2l244 356c5 8 9 10 17 10h8c7 0 9 -6 5 -12l-266 -389l-47 -269c-1 -6 -5 -10 -11 -10z" />
    <glyph glyph-name="Z" unicode="Z" horiz-adv-x="520" 
d="M416 0h-390c-6 0 -9 4 -8 10l1 7c1 5 3 9 8 15l480 621v1h-352c-6 0 -9 4 -8 10l1 6c1 6 5 10 11 10h377c6 0 9 -4 8 -10l-1 -7c-1 -5 -3 -9 -7 -14l-480 -622v-1h365c6 0 9 -4 8 -10l-1 -6c-1 -7 -6 -10 -12 -10z" />
    <glyph glyph-name="bracketleft" unicode="[" horiz-adv-x="282" 
d="M170 -84h-92c-6 0 -9 4 -8 10l142 804c1 6 5 10 11 10h92c6 0 9 -4 8 -10l-1 -6c-1 -6 -5 -10 -11 -10h-69c-4 0 -6 -2 -7 -6l-134 -760c-1 -4 1 -6 5 -6h69c6 0 9 -4 8 -10l-1 -6c-1 -7 -6 -10 -12 -10z" />
    <glyph glyph-name="backslash" unicode="\" horiz-adv-x="384" 
d="M263 -10h-7c-7 0 -10 4 -11 10l-92 680c-1 6 3 10 8 10h7c7 0 10 -4 11 -10l92 -680c1 -6 -3 -10 -8 -10z" />
    <glyph glyph-name="bracketright" unicode="]" horiz-adv-x="282" 
d="M95 -84h-92c-6 0 -9 4 -8 10l1 6c1 6 5 10 11 10h69c4 0 6 2 7 6l134 760c1 4 -1 6 -5 6h-69c-6 0 -9 4 -8 10l1 6c1 7 6 10 12 10h92c6 0 9 -4 8 -10l-142 -804c-1 -6 -5 -10 -11 -10z" />
    <glyph glyph-name="asciicircum" unicode="^" 
d="M451 293h-5c-6 0 -10 3 -13 10l-163 346h-2l-162 -346c-3 -7 -7 -10 -13 -10h-5c-6 0 -10 4 -7 10l172 367c3 6 7 10 14 10h5c7 0 11 -4 14 -10l172 -367c3 -6 -1 -10 -7 -10z" />
    <glyph glyph-name="underscore" unicode="_" horiz-adv-x="425" 
d="M366 -115h-425l5 26h425z" />
    <glyph glyph-name="grave" unicode="`" horiz-adv-x="403" 
d="M345 560h-2c-8 0 -10 2 -15 10l-59 120c-3 5 1 10 7 10h9c8 0 10 -3 13 -10l54 -120c3 -6 -1 -10 -7 -10z" />
    <glyph glyph-name="a" unicode="a" horiz-adv-x="488" 
d="M349 0h-8c-6 0 -9 4 -8 10l10 56h-1c-24 -43 -80 -76 -160 -76c-85 0 -131 45 -131 113c0 104 67 159 194 159h126c4 0 6 2 7 6l12 64c16 93 -3 127 -103 127c-58 0 -99 -17 -127 -41c-6 -5 -11 -6 -15 -2l-6 6c-4 4 -3 9 1 13c34 31 85 49 151 49
c106 0 146 -39 126 -152l-57 -322c-1 -6 -5 -10 -11 -10zM189 15c85 0 155 54 167 126l16 90c1 4 -1 6 -4 6h-122c-120 0 -168 -52 -168 -132c0 -55 36 -90 111 -90z" />
    <glyph glyph-name="b" unicode="b" 
d="M230 -10c-73 0 -115 41 -131 92h-1l-12 -72c-1 -6 -5 -10 -11 -10h-8c-6 0 -9 4 -8 10l116 660c1 6 5 10 11 10h8c6 0 9 -4 8 -10l-48 -273h1c31 48 81 87 159 87c92 0 138 -58 138 -153c0 -83 -29 -188 -49 -228c-36 -75 -92 -113 -173 -113zM232 15c68 0 117 36 147 98
c29 58 46 155 46 217c0 75 -30 129 -116 129c-61 0 -117 -31 -154 -106c-14 -28 -41 -157 -41 -215c0 -71 42 -123 118 -123z" />
    <glyph glyph-name="c" unicode="c" horiz-adv-x="450" 
d="M196 -10c-94 0 -141 58 -141 159c0 76 17 153 46 213c38 77 103 122 182 122c71 0 116 -35 133 -96c2 -6 1 -10 -5 -13l-7 -3c-5 -2 -10 -1 -12 5c-17 57 -52 82 -113 82c-57 0 -119 -38 -152 -105c-33 -68 -45 -152 -45 -199c0 -87 33 -140 118 -140c52 0 99 23 144 82
c3 4 9 6 14 2l5 -4c5 -4 4 -10 0 -15c-46 -60 -98 -90 -167 -90z" />
    <glyph glyph-name="d" unicode="d" 
d="M357 0h-8c-6 0 -9 4 -8 10l12 67h-1c-31 -48 -81 -87 -159 -87c-92 0 -138 58 -138 153c0 83 29 188 49 228c36 75 92 113 173 113c73 0 115 -41 131 -92h1l48 278c1 6 5 10 11 10h8c6 0 9 -4 8 -10l-116 -660c-1 -6 -5 -10 -11 -10zM198 15c61 0 117 31 154 106
c14 28 41 157 41 215c0 71 -42 123 -118 123c-68 0 -117 -36 -147 -98c-29 -58 -46 -155 -46 -217c0 -75 30 -129 116 -129z" />
    <glyph glyph-name="e" unicode="e" horiz-adv-x="469" 
d="M201 -10c-95 0 -146 56 -146 152c0 74 15 159 46 223c37 77 102 119 181 119c83 0 140 -51 140 -151c0 -22 -2 -46 -9 -86c-1 -6 -5 -10 -12 -10h-304c-4 0 -7 -2 -8 -6c-7 -36 -7 -59 -7 -89c0 -77 38 -127 121 -127c64 0 114 31 150 71c5 5 10 6 14 3l6 -5
c4 -4 4 -9 -1 -14c-41 -48 -99 -80 -171 -80zM102 262h281c4 0 6 2 7 6c4 22 6 44 6 61c0 86 -41 130 -116 130c-67 0 -122 -36 -155 -104c-11 -23 -22 -57 -28 -87c-1 -4 1 -6 5 -6z" />
    <glyph glyph-name="f" unicode="f" horiz-adv-x="286" 
d="M90 0h-9c-5 0 -8 4 -7 10l77 433c1 4 -1 6 -5 6h-56c-6 0 -9 4 -8 10l1 5c1 7 6 10 12 10h56c4 0 6 2 7 6l11 65c19 113 51 135 139 135h20c6 0 9 -4 8 -10l-1 -5c-1 -7 -6 -10 -12 -10h-17c-74 0 -93 -15 -109 -103l-13 -72c-1 -4 1 -6 5 -6h103c6 0 9 -4 8 -10l-1 -5
c-1 -7 -6 -10 -12 -10h-103c-3 0 -5 -1 -6 -6l-77 -433c-1 -6 -5 -10 -11 -10z" />
    <glyph glyph-name="g" unicode="g" horiz-adv-x="496" 
d="M162 -190c-55 0 -105 22 -132 72c-4 7 -1 12 4 14l7 3c6 2 9 1 13 -5c24 -37 58 -59 112 -59c85 0 147 49 167 169l12 70h-1c-32 -54 -79 -84 -153 -84c-89 0 -136 57 -136 147c0 65 18 169 50 234c37 76 93 113 170 113c72 0 112 -43 126 -92h1l12 72c1 6 6 10 12 10h7
c6 0 9 -4 8 -10l-82 -462c-26 -144 -98 -192 -197 -192zM196 15c54 0 110 26 144 95c24 49 46 178 46 226c0 69 -39 123 -113 123c-64 0 -113 -34 -144 -98c-31 -67 -47 -153 -47 -223c0 -73 34 -123 114 -123z" />
    <glyph glyph-name="h" unicode="h" horiz-adv-x="516" 
d="M376 0h-9c-5 0 -8 4 -7 10l52 284c20 116 -15 165 -106 165c-71 0 -151 -57 -167 -148l-53 -301c-1 -6 -5 -10 -11 -10h-9c-5 0 -8 4 -7 10l116 660c1 6 5 10 11 10h8c6 0 9 -4 8 -10l-47 -270h1c34 53 91 84 155 84c103 0 151 -61 129 -183l-53 -291
c-1 -6 -5 -10 -11 -10z" />
    <glyph glyph-name="i" unicode="i" horiz-adv-x="221" 
d="M190 622h-20c-6 0 -9 4 -8 10l7 38c1 6 5 10 11 10h22c5 0 8 -4 7 -10l-7 -38c-1 -7 -5 -10 -12 -10zM75 0h-8c-6 0 -9 4 -8 10l80 454c1 6 5 10 11 10h8c6 0 9 -4 8 -10l-80 -454c-1 -6 -5 -10 -11 -10z" />
    <glyph glyph-name="j" unicode="j" horiz-adv-x="221" 
d="M190 622h-20c-6 0 -9 4 -8 10l7 38c1 6 5 10 11 10h22c5 0 8 -4 7 -10l-7 -38c-1 -7 -5 -10 -12 -10zM-49 -180h-4c-6 0 -9 4 -8 10l1 5c1 7 6 10 12 10h3c58 0 78 17 90 84l94 535c1 6 5 10 11 10h8c6 0 9 -4 8 -10l-94 -535c-15 -86 -45 -109 -121 -109z" />
    <glyph glyph-name="k" unicode="k" horiz-adv-x="470" 
d="M379 0h-8c-7 0 -9 2 -13 10l-111 271l-138 -140l-23 -131c-1 -6 -5 -10 -11 -10h-9c-5 0 -8 4 -7 10l116 660c1 6 5 10 11 10h8c6 0 9 -4 8 -10l-86 -487l277 282c7 7 10 9 17 9h14c6 0 8 -5 3 -10l-160 -163l120 -291c2 -5 -2 -10 -8 -10z" />
    <glyph glyph-name="l" unicode="l" horiz-adv-x="237" 
d="M149 -2h-13c-57 0 -75 29 -63 97l105 575c1 6 5 10 11 10h8c6 0 9 -4 8 -10l-105 -575c-10 -55 1 -72 40 -72h14c6 0 9 -4 8 -10l-1 -5c-1 -7 -6 -10 -12 -10z" />
    <glyph glyph-name="m" unicode="m" horiz-adv-x="818" 
d="M678 0h-7c-6 0 -10 4 -9 10l52 284c20 116 -15 165 -106 165c-72 0 -151 -55 -167 -149l-53 -300c-1 -6 -5 -10 -11 -10h-8c-5 0 -9 4 -8 10l50 284c20 114 -13 165 -105 165c-71 0 -151 -57 -167 -148l-53 -301c-1 -6 -5 -10 -11 -10h-8c-6 0 -9 4 -8 10l80 454
c1 6 5 10 11 10h8c6 0 9 -4 8 -10l-11 -64h1c34 53 91 84 155 84c79 0 122 -36 131 -100h1c31 58 92 100 170 100c103 0 150 -61 129 -183l-53 -291c-1 -6 -5 -10 -11 -10z" />
    <glyph glyph-name="n" unicode="n" horiz-adv-x="516" 
d="M376 0h-9c-5 0 -8 4 -7 10l52 284c20 116 -15 165 -106 165c-71 0 -151 -57 -167 -148l-53 -301c-1 -6 -5 -10 -11 -10h-9c-5 0 -8 4 -7 10l80 454c1 6 5 10 11 10h8c6 0 9 -4 8 -10l-11 -64h1c34 53 91 84 155 84c103 0 151 -61 129 -183l-53 -291c-1 -6 -5 -10 -11 -10
z" />
    <glyph glyph-name="o" unicode="o" horiz-adv-x="479" 
d="M201 -10c-99 0 -146 60 -146 157c0 76 27 178 48 222c38 79 101 115 181 115c99 0 146 -60 146 -157c0 -76 -27 -178 -48 -222c-38 -79 -101 -115 -181 -115zM205 15c67 0 120 33 155 104c17 35 43 136 43 201c0 89 -36 139 -123 139c-67 0 -120 -33 -155 -104
c-17 -35 -43 -136 -43 -201c0 -89 36 -139 123 -139z" />
    <glyph glyph-name="p" unicode="p" 
d="M43 -180h-8c-6 0 -9 4 -8 10l112 634c1 6 5 10 11 10h8c6 0 9 -4 8 -10l-12 -67h1c31 48 81 87 159 87c92 0 138 -58 138 -153c0 -83 -29 -188 -49 -228c-36 -75 -92 -113 -173 -113c-73 0 -115 41 -131 92h-1l-44 -252c-1 -6 -5 -10 -11 -10zM232 15c68 0 117 36 147 98
c29 58 46 155 46 217c0 75 -30 129 -116 129c-61 0 -117 -31 -154 -106c-14 -28 -41 -157 -41 -215c0 -71 42 -123 118 -123z" />
    <glyph glyph-name="q" unicode="q" 
d="M325 -180h-8c-6 0 -9 4 -8 10l43 244h-1c-31 -47 -80 -84 -158 -84c-92 0 -138 55 -138 153c0 83 30 188 50 228c36 75 91 113 173 113c73 0 115 -37 130 -90h1l12 70c1 6 5 10 11 10h8c6 0 9 -4 8 -10l-112 -634c-1 -6 -5 -10 -11 -10zM198 15c61 0 117 31 154 106
c14 28 41 157 41 215c0 71 -39 123 -118 123c-66 0 -116 -36 -146 -98c-29 -58 -47 -155 -47 -217c0 -75 29 -129 116 -129z" />
    <glyph glyph-name="r" unicode="r" horiz-adv-x="370" 
d="M75 0h-8c-6 0 -9 4 -8 10l80 454c1 6 5 10 11 10h8c6 0 9 -4 8 -10l-12 -70h1c23 53 72 90 139 90c35 0 66 -13 86 -30c3 -3 3 -8 -1 -13l-5 -6c-4 -4 -10 -3 -14 0c-20 14 -42 24 -72 24c-89 0 -139 -93 -155 -183l-47 -266c-1 -6 -5 -10 -11 -10z" />
    <glyph glyph-name="s" unicode="s" horiz-adv-x="455" 
d="M192 -10c-77 0 -134 35 -162 63c-4 4 -3 9 1 13l6 5c4 4 10 3 13 0c33 -28 74 -56 144 -56c98 0 161 54 161 135c0 47 -24 70 -97 78l-44 5c-75 9 -115 42 -115 103c0 84 68 148 176 148c50 0 105 -20 136 -40c4 -3 4 -7 1 -12l-3 -5c-3 -5 -8 -7 -16 -3
c-28 16 -71 35 -121 35c-86 0 -146 -52 -146 -122c0 -47 29 -72 103 -80l44 -5c74 -8 109 -42 109 -99c0 -98 -75 -163 -190 -163z" />
    <glyph glyph-name="t" unicode="t" horiz-adv-x="289" 
d="M198 -2h-16c-79 0 -108 29 -92 122l62 323c1 4 -1 6 -5 6h-56c-6 0 -9 4 -8 10l1 5c1 7 6 10 12 10h56c4 0 6 2 7 6l24 140c1 6 5 10 11 10h8c6 0 9 -4 8 -10l-24 -140c-1 -4 1 -6 5 -6h95c6 0 9 -4 8 -10l-1 -5c-1 -7 -6 -10 -12 -10h-95c-4 0 -6 -2 -7 -6l-61 -319
c-15 -82 3 -101 69 -101h16c6 0 9 -4 8 -10l-1 -5c-1 -7 -6 -10 -12 -10z" />
    <glyph glyph-name="u" unicode="u" horiz-adv-x="510" 
d="M143 474h9c5 0 8 -4 7 -10l-52 -284c-20 -116 14 -165 103 -165c69 0 149 57 165 148l53 301c1 6 5 10 11 10h9c5 0 8 -4 7 -10l-80 -454c-1 -6 -5 -10 -11 -10h-8c-6 0 -9 4 -8 10l11 64h-1c-34 -53 -91 -84 -153 -84c-101 0 -148 61 -126 183l53 291c1 6 5 10 11 10z
" />
    <glyph glyph-name="v" unicode="v" horiz-adv-x="441" 
d="M184 0h-10c-5 0 -7 4 -8 10l-87 454c-1 6 1 10 8 10h8c7 0 10 -2 11 -10l80 -420h1l227 420c4 8 7 10 14 10h10c7 0 8 -4 5 -10l-247 -454c-3 -6 -6 -10 -12 -10z" />
    <glyph glyph-name="w" unicode="w" horiz-adv-x="699" 
d="M460 0h-6c-7 0 -9 3 -10 10l-59 421h-1l-208 -421c-4 -7 -7 -10 -14 -10h-6c-7 0 -9 3 -10 10l-61 454c-1 6 1 10 8 10h7c7 0 10 -2 11 -10l56 -416h1l205 416c3 7 7 10 13 10h7c7 0 10 -3 11 -10l61 -416h1l201 416c4 8 7 10 14 10h8c7 0 9 -4 6 -10l-222 -454
c-4 -8 -7 -10 -13 -10z" />
    <glyph glyph-name="x" unicode="x" horiz-adv-x="427" 
d="M342 0h-10c-6 0 -8 1 -11 7l-103 220h-1l-182 -220c-5 -6 -8 -7 -13 -7h-14c-6 0 -7 5 -3 10l200 240l-101 214c-2 5 1 10 6 10h10c5 0 8 -1 11 -7l92 -195h1l161 195c5 6 8 7 14 7h12c6 0 7 -5 3 -10l-179 -217l114 -237c2 -5 -1 -10 -7 -10z" />
    <glyph glyph-name="y" unicode="y" horiz-adv-x="441" 
d="M19 -180h-15c-6 0 -9 4 -8 10l1 5c1 7 6 10 12 10h16c41 0 66 20 114 109l29 53l-88 457c-1 6 1 10 8 10h8c7 0 10 -2 11 -10l80 -420h1l227 420c4 8 7 10 14 10h10c7 0 8 -4 5 -10l-282 -519c-58 -107 -92 -125 -143 -125z" />
    <glyph glyph-name="z" unicode="z" horiz-adv-x="440" 
d="M336 0h-308c-6 0 -9 4 -8 10l1 6c1 5 3 9 8 15l360 417v1h-270c-6 0 -9 4 -8 10l1 5c1 6 4 10 11 10h296c6 0 9 -4 8 -10l-1 -6c-1 -5 -4 -9 -9 -15l-360 -417v-1h283c6 0 9 -4 8 -10l-1 -5c-1 -6 -4 -10 -11 -10z" />
    <glyph glyph-name="braceleft" unicode="{" horiz-adv-x="293" 
d="M180 -84h-20c-55 0 -73 27 -61 96l38 218c12 66 -6 84 -33 87c-6 1 -9 4 -8 10l1 7c1 6 5 9 11 9c31 2 51 16 64 87l39 218c12 67 38 92 93 92h22c6 0 9 -4 8 -10l-1 -5c-1 -7 -5 -10 -12 -10h-20c-35 0 -56 -19 -64 -68l-36 -207c-14 -79 -30 -98 -61 -111v-2
c25 -15 33 -49 22 -109l-37 -211c-9 -51 2 -66 38 -66h22c6 0 9 -4 8 -10l-1 -5c-1 -7 -5 -10 -12 -10z" />
    <glyph glyph-name="bar" unicode="|" horiz-adv-x="241" 
d="M141 -84h-7c-6 0 -10 4 -10 10v804c0 6 4 10 10 10h7c6 0 10 -4 10 -10v-804c0 -6 -4 -10 -10 -10z" />
    <glyph glyph-name="braceright" unicode="}" horiz-adv-x="293" 
d="M25 -84h-22c-6 0 -9 4 -8 10l1 5c1 7 5 10 12 10h20c35 0 56 19 64 68l37 211c14 79 30 98 61 111v2c-25 15 -33 49 -22 109l36 207c9 51 -2 66 -38 66h-22c-6 0 -9 4 -8 10l1 5c1 7 5 10 12 10h20c55 0 73 -27 61 -96l-37 -214c-12 -66 6 -84 33 -87c6 -1 9 -4 8 -10
l-1 -7c-1 -6 -5 -9 -11 -9c-31 -2 -51 -16 -64 -87l-40 -222c-12 -67 -38 -92 -93 -92z" />
    <glyph glyph-name="asciitilde" unicode="~" 
d="M341 226c-42 0 -69 21 -95 41c-23 17 -46 34 -78 34c-35 0 -59 -16 -86 -59c-3 -5 -8 -6 -13 -3l-4 2c-5 3 -7 7 -3 14c24 44 62 70 108 70c42 0 69 -21 95 -41c23 -17 46 -34 78 -34c35 0 59 16 86 59c3 5 8 6 13 3l4 -2c5 -3 7 -7 3 -14c-24 -44 -62 -70 -108 -70z" />
    <glyph glyph-name="uni00A0" unicode="&#xa0;" horiz-adv-x="240" 
 />
    <glyph glyph-name="Agrave" unicode="&#xc0;" horiz-adv-x="567" 
d="M7 0c-6 0 -8 4 -5 10l347 660c3 6 6 10 12 10h10c6 0 8 -4 9 -10l112 -660c1 -6 -3 -10 -9 -10h-8c-5 0 -10 2 -11 10l-31 187h-302l-98 -187c-4 -8 -9 -10 -14 -10h-12zM145 223h283l-68 407h-2zM373 766h-3c-8 0 -10 1 -16 10l-64 102c-3 5 0 10 5 10h10
c8 0 11 -3 15 -10l58 -102c4 -6 1 -10 -5 -10z" />
    <glyph glyph-name="Aacute" unicode="&#xc1;" horiz-adv-x="567" 
d="M7 0c-6 0 -8 4 -5 10l347 660c3 6 6 10 12 10h10c6 0 8 -4 9 -10l112 -660c1 -6 -3 -10 -9 -10h-8c-5 0 -10 2 -11 10l-31 187h-302l-98 -187c-4 -8 -9 -10 -14 -10h-12zM145 223h283l-68 407h-2zM382 766h-5c-6 0 -7 5 -1 11l91 101c7 8 11 10 19 10h11c6 0 8 -5 3 -10
l-99 -102c-8 -8 -11 -10 -19 -10z" />
    <glyph glyph-name="Acircumflex" unicode="&#xc2;" horiz-adv-x="567" 
d="M7 0c-6 0 -8 4 -5 10l347 660c3 6 6 10 12 10h10c6 0 8 -4 9 -10l112 -660c1 -6 -3 -10 -9 -10h-8c-5 0 -10 2 -11 10l-31 187h-302l-98 -187c-4 -8 -9 -10 -14 -10h-12zM145 223h283l-68 407h-2zM479 756h-4c-7 0 -10 2 -14 9l-56 104h-2l-94 -104c-6 -7 -10 -9 -17 -9
h-5c-5 0 -7 5 -2 10l103 120c6 7 10 9 16 9h5c6 0 9 -3 12 -9l62 -120c3 -5 1 -10 -4 -10z" />
    <glyph glyph-name="Atilde" unicode="&#xc3;" horiz-adv-x="567" 
d="M7 0c-6 0 -8 4 -5 10l347 660c3 6 6 10 12 10h10c6 0 8 -4 9 -10l112 -660c1 -6 -3 -10 -9 -10h-8c-5 0 -10 2 -11 10l-31 187h-302l-98 -187c-4 -8 -9 -10 -14 -10h-12zM145 223h283l-68 407h-2zM439 796c-21 0 -36 9 -51 21c-13 10 -25 18 -41 18
c-19 0 -37 -13 -58 -34c-4 -4 -9 -2 -8 3l2 14c1 5 2 8 9 14c17 16 38 26 60 26c21 0 36 -9 51 -21c13 -10 25 -18 41 -18c19 0 37 13 58 34c4 4 9 2 8 -3l-2 -14c-1 -5 -2 -8 -9 -14c-17 -16 -38 -26 -60 -26z" />
    <glyph glyph-name="Adieresis" unicode="&#xc4;" horiz-adv-x="567" 
d="M7 0c-6 0 -8 4 -5 10l347 660c3 6 6 10 12 10h10c6 0 8 -4 9 -10l112 -660c1 -6 -3 -10 -9 -10h-8c-5 0 -10 2 -11 10l-31 187h-302l-98 -187c-4 -8 -9 -10 -14 -10h-12zM145 223h283l-68 407h-2zM497 796h-22c-6 0 -9 4 -8 10l7 38c1 6 5 10 11 10h22c6 0 9 -4 8 -10
l-7 -38c-1 -6 -5 -10 -11 -10zM304 796h-22c-6 0 -9 4 -8 10l7 38c1 6 5 10 11 10h22c6 0 9 -4 8 -10l-7 -38c-1 -6 -5 -10 -11 -10z" />
    <glyph glyph-name="Amacron" unicode="&#x100;" horiz-adv-x="567" 
d="M7 0c-6 0 -8 4 -5 10l347 660c3 6 6 10 12 10h10c6 0 8 -4 9 -10l112 -660c1 -6 -3 -10 -9 -10h-8c-5 0 -10 2 -11 10l-31 187h-302l-98 -187c-4 -8 -9 -10 -14 -10h-12zM145 223h283l-68 407h-2zM505 812h-225c-6 0 -9 4 -8 10l1 5c1 7 5 10 11 10h225c6 0 9 -4 8 -10
l-1 -5c-1 -7 -5 -10 -11 -10z" />
    <glyph glyph-name="Abreve" unicode="&#x102;" horiz-adv-x="567" 
d="M7 0c-6 0 -8 4 -5 10l347 660c3 6 6 10 12 10h10c6 0 8 -4 9 -10l112 -660c1 -6 -3 -10 -9 -10h-8c-5 0 -10 2 -11 10l-31 187h-302l-98 -187c-4 -8 -9 -10 -14 -10h-12zM145 223h283l-68 407h-2zM388 776c-58 0 -93 37 -95 93c0 6 4 10 10 10h4c7 0 10 -4 10 -10
c3 -44 29 -69 74 -69c44 0 79 28 97 69c3 6 6 10 13 10h5c6 0 9 -4 7 -10c-20 -56 -67 -93 -125 -93z" />
    <glyph glyph-name="Aring" unicode="&#xc5;" horiz-adv-x="567" 
d="M7 0c-6 0 -8 4 -5 10l347 660c3 6 6 10 12 10h10c6 0 8 -4 9 -10l112 -660c1 -6 -3 -10 -9 -10h-8c-5 0 -10 2 -11 10l-31 187h-302l-98 -187c-4 -8 -9 -10 -14 -10h-12zM145 223h283l-68 407h-2zM381 748c-39 0 -66 29 -66 67c0 53 40 95 95 95c39 0 66 -29 66 -67
c0 -53 -40 -95 -95 -95zM386 770c36 0 66 31 66 70c0 28 -17 48 -47 48c-36 0 -66 -31 -66 -70c0 -28 17 -48 47 -48z" />
    <glyph glyph-name="Aogonek" unicode="&#x104;" horiz-adv-x="567" 
d="M409 -161c-28 0 -47 18 -47 46c0 37 25 69 102 123l-31 189h-302l-98 -187c-4 -8 -9 -10 -14 -10h-12c-6 0 -8 4 -5 10l347 660c3 6 6 10 12 10h10c6 0 8 -4 9 -10l112 -660c1 -5 0 -8 -3 -10c-84 -61 -100 -87 -100 -111c0 -16 10 -25 26 -25c12 0 20 4 31 11
c4 3 9 2 11 -2l3 -6c2 -5 0 -8 -6 -13c-9 -7 -25 -15 -45 -15zM358 630l-213 -407h283l-68 407h-2z" />
    <glyph glyph-name="AE" unicode="&#xc6;" horiz-adv-x="917" 
d="M814 0h-358c-6 0 -9 4 -8 10l32 181c1 4 -1 6 -5 6h-286l-151 -187c-6 -8 -10 -10 -16 -10h-15c-6 0 -8 5 -4 10l538 661c5 6 10 9 17 9h376c6 0 9 -4 8 -10l-1 -6c-1 -7 -5 -10 -12 -10h-334c-4 0 -6 -2 -7 -6l-49 -282c-1 -5 2 -7 6 -7h287c6 0 9 -4 8 -10l-1 -6
c-1 -7 -5 -10 -12 -10h-288c-4 0 -6 -2 -7 -6l-52 -295c-1 -4 1 -6 5 -6h334c6 0 9 -4 8 -10l-1 -6c-1 -7 -5 -10 -12 -10zM558 651l-348 -428h269c4 0 6 2 7 6l75 422h-3z" />
    <glyph glyph-name="Cacute" unicode="&#x106;" horiz-adv-x="531" 
d="M67 178c0 86 33 282 73 364c50 103 117 148 217 148c74 0 140 -38 168 -123c2 -6 0 -9 -5 -11l-8 -3c-5 -2 -10 0 -11 4c-26 73 -77 107 -146 107c-84 0 -145 -39 -188 -128c-40 -82 -72 -271 -72 -353c0 -106 52 -167 154 -167c79 0 133 36 180 105c3 4 7 5 11 3l9 -5
c5 -3 4 -8 1 -13c-52 -82 -122 -116 -205 -116c-112 0 -178 69 -178 188zM379 766h-5c-6 0 -7 5 -1 11l91 101c7 8 11 10 19 10h11c6 0 8 -5 3 -10l-99 -102c-8 -8 -11 -10 -19 -10z" />
    <glyph glyph-name="Ccircumflex" unicode="&#x108;" horiz-adv-x="531" 
d="M67 178c0 86 33 282 73 364c50 103 117 148 217 148c74 0 140 -38 168 -123c2 -6 0 -9 -5 -11l-8 -3c-5 -2 -10 0 -11 4c-26 73 -77 107 -146 107c-84 0 -145 -39 -188 -128c-40 -82 -72 -271 -72 -353c0 -106 52 -167 154 -167c79 0 133 36 180 105c3 4 7 5 11 3l9 -5
c5 -3 4 -8 1 -13c-52 -82 -122 -116 -205 -116c-112 0 -178 69 -178 188zM472 756h-4c-7 0 -10 2 -14 9l-56 104h-2l-94 -104c-6 -7 -10 -9 -17 -9h-5c-5 0 -7 5 -2 10l103 120c6 7 10 9 16 9h5c6 0 9 -3 12 -9l62 -120c3 -5 1 -10 -4 -10z" />
    <glyph glyph-name="Ccaron" unicode="&#x10c;" horiz-adv-x="531" 
d="M67 178c0 86 33 282 73 364c50 103 117 148 217 148c74 0 140 -38 168 -123c2 -6 0 -9 -5 -11l-8 -3c-5 -2 -10 0 -11 4c-26 73 -77 107 -146 107c-84 0 -145 -39 -188 -128c-40 -82 -72 -271 -72 -353c0 -106 52 -167 154 -167c79 0 133 36 180 105c3 4 7 5 11 3l9 -5
c5 -3 4 -8 1 -13c-52 -82 -122 -116 -205 -116c-112 0 -178 69 -178 188zM378 756h-5c-6 0 -9 3 -12 9l-62 120c-3 5 -1 10 4 10h4c7 0 10 -2 14 -9l56 -104h2l94 104c6 7 10 9 17 9h5c5 0 7 -5 2 -10l-103 -120c-6 -7 -10 -9 -16 -9z" />
    <glyph glyph-name="Cdotaccent" unicode="&#x10a;" horiz-adv-x="531" 
d="M67 178c0 86 33 282 73 364c50 103 117 148 217 148c74 0 140 -38 168 -123c2 -6 0 -9 -5 -11l-8 -3c-5 -2 -10 0 -11 4c-26 73 -77 107 -146 107c-84 0 -145 -39 -188 -128c-40 -82 -72 -271 -72 -353c0 -106 52 -167 154 -167c79 0 133 36 180 105c3 4 7 5 11 3l9 -5
c5 -3 4 -8 1 -13c-52 -82 -122 -116 -205 -116c-112 0 -178 69 -178 188zM396 796h-22c-6 0 -9 4 -8 10l7 38c1 6 5 10 11 10h22c6 0 9 -4 8 -10l-7 -38c-1 -6 -5 -10 -11 -10z" />
    <glyph glyph-name="Ccedilla" unicode="&#xc7;" horiz-adv-x="531" 
d="M165 -144h-8c-6 0 -9 4 -6 10l69 125c-97 9 -153 77 -153 187c0 86 33 282 73 364c50 103 117 148 217 148c74 0 140 -38 168 -123c2 -6 0 -9 -5 -11l-8 -3c-5 -2 -10 0 -11 4c-26 73 -77 107 -146 107c-84 0 -145 -39 -188 -128c-40 -82 -72 -271 -72 -353
c0 -106 52 -167 154 -167c79 0 133 36 180 105c3 4 7 5 11 3l9 -5c5 -3 4 -8 1 -13c-52 -82 -122 -116 -205 -116l-63 -124c-4 -8 -8 -10 -17 -10z" />
    <glyph glyph-name="Dcaron" unicode="&#x10e;" horiz-adv-x="605" 
d="M61 10l116 660c1 6 5 10 11 10h193c115 0 183 -54 183 -173c0 -85 -36 -294 -76 -376c-46 -94 -116 -131 -226 -131h-193c-6 0 -9 4 -8 10zM93 32c-1 -4 0 -6 4 -6h167c100 0 161 37 199 114c38 78 73 277 73 364c0 102 -50 150 -160 150h-168c-4 0 -6 -1 -7 -6zM381 756
h-5c-6 0 -9 3 -12 9l-62 120c-3 5 -1 10 4 10h4c7 0 10 -2 14 -9l56 -104h2l94 104c6 7 10 9 17 9h5c5 0 7 -5 2 -10l-103 -120c-6 -7 -10 -9 -16 -9z" />
    <glyph glyph-name="Dcroat" unicode="&#x110;" horiz-adv-x="605" 
d="M262 0h-193c-6 0 -9 4 -8 10l56 318c1 4 -1 6 -5 6h-44c-6 0 -9 4 -8 10l1 5c1 7 5 10 12 10h43c4 0 6 2 7 6l54 305c1 6 5 10 11 10h193c115 0 183 -54 183 -173c0 -85 -36 -294 -76 -376c-46 -94 -116 -131 -226 -131zM264 26c100 0 161 37 199 114
c38 78 73 277 73 364c0 102 -50 150 -160 150h-168c-4 0 -6 -1 -7 -6l-50 -283c-1 -4 0 -6 4 -6h140c6 0 9 -4 8 -10l-1 -5c-1 -7 -5 -10 -12 -10h-138c-4 0 -6 -2 -7 -6l-52 -296c-1 -4 0 -6 4 -6h167z" />
    <glyph glyph-name="Eth" unicode="&#xd0;" horiz-adv-x="605" 
d="M262 0h-193c-6 0 -9 4 -8 10l56 318c1 4 -1 6 -5 6h-44c-6 0 -9 4 -8 10l1 5c1 7 5 10 12 10h43c4 0 6 2 7 6l54 305c1 6 5 10 11 10h193c115 0 183 -54 183 -173c0 -85 -36 -294 -76 -376c-46 -94 -116 -131 -226 -131zM264 26c100 0 161 37 199 114
c38 78 73 277 73 364c0 102 -50 150 -160 150h-168c-4 0 -6 -1 -7 -6l-50 -283c-1 -4 0 -6 4 -6h140c6 0 9 -4 8 -10l-1 -5c-1 -7 -5 -10 -12 -10h-138c-4 0 -6 -2 -7 -6l-52 -296c-1 -4 0 -6 4 -6h167z" />
    <glyph glyph-name="Egrave" unicode="&#xc8;" horiz-adv-x="530" 
d="M61 10l116 660c1 6 5 10 11 10h359c6 0 9 -4 8 -10l-1 -6c-1 -7 -5 -10 -12 -10h-334c-4 0 -6 -2 -7 -6l-49 -282c-1 -5 2 -7 6 -7h287c6 0 9 -4 8 -10l-1 -6c-1 -7 -5 -10 -12 -10h-288c-4 0 -6 -2 -7 -6l-52 -295c-1 -4 1 -6 5 -6h334c6 0 9 -4 8 -10l-1 -6
c-1 -7 -5 -10 -12 -10h-358c-6 0 -9 4 -8 10zM387 766h-3c-8 0 -10 1 -16 10l-64 102c-3 5 0 10 5 10h10c8 0 11 -3 15 -10l58 -102c4 -6 1 -10 -5 -10z" />
    <glyph glyph-name="Eacute" unicode="&#xc9;" horiz-adv-x="530" 
d="M61 10l116 660c1 6 5 10 11 10h359c6 0 9 -4 8 -10l-1 -6c-1 -7 -5 -10 -12 -10h-334c-4 0 -6 -2 -7 -6l-49 -282c-1 -5 2 -7 6 -7h287c6 0 9 -4 8 -10l-1 -6c-1 -7 -5 -10 -12 -10h-288c-4 0 -6 -2 -7 -6l-52 -295c-1 -4 1 -6 5 -6h334c6 0 9 -4 8 -10l-1 -6
c-1 -7 -5 -10 -12 -10h-358c-6 0 -9 4 -8 10zM364 766h-5c-6 0 -7 5 -1 11l91 101c7 8 11 10 19 10h11c6 0 8 -5 3 -10l-99 -102c-8 -8 -11 -10 -19 -10z" />
    <glyph glyph-name="Ecircumflex" unicode="&#xca;" horiz-adv-x="530" 
d="M61 10l116 660c1 6 5 10 11 10h359c6 0 9 -4 8 -10l-1 -6c-1 -7 -5 -10 -12 -10h-334c-4 0 -6 -2 -7 -6l-49 -282c-1 -5 2 -7 6 -7h287c6 0 9 -4 8 -10l-1 -6c-1 -7 -5 -10 -12 -10h-288c-4 0 -6 -2 -7 -6l-52 -295c-1 -4 1 -6 5 -6h334c6 0 9 -4 8 -10l-1 -6
c-1 -7 -5 -10 -12 -10h-358c-6 0 -9 4 -8 10zM473 756h-4c-7 0 -10 2 -14 9l-56 104h-2l-94 -104c-6 -7 -10 -9 -17 -9h-5c-5 0 -7 5 -2 10l103 120c6 7 10 9 16 9h5c6 0 9 -3 12 -9l62 -120c3 -5 1 -10 -4 -10z" />
    <glyph glyph-name="Ecaron" unicode="&#x11a;" horiz-adv-x="530" 
d="M61 10l116 660c1 6 5 10 11 10h359c6 0 9 -4 8 -10l-1 -6c-1 -7 -5 -10 -12 -10h-334c-4 0 -6 -2 -7 -6l-49 -282c-1 -5 2 -7 6 -7h287c6 0 9 -4 8 -10l-1 -6c-1 -7 -5 -10 -12 -10h-288c-4 0 -6 -2 -7 -6l-52 -295c-1 -4 1 -6 5 -6h334c6 0 9 -4 8 -10l-1 -6
c-1 -7 -5 -10 -12 -10h-358c-6 0 -9 4 -8 10zM379 756h-5c-6 0 -9 3 -12 9l-62 120c-3 5 -1 10 4 10h4c7 0 10 -2 14 -9l56 -104h2l94 104c6 7 10 9 17 9h5c5 0 7 -5 2 -10l-103 -120c-6 -7 -10 -9 -16 -9z" />
    <glyph glyph-name="Edieresis" unicode="&#xcb;" horiz-adv-x="530" 
d="M61 10l116 660c1 6 5 10 11 10h359c6 0 9 -4 8 -10l-1 -6c-1 -7 -5 -10 -12 -10h-334c-4 0 -6 -2 -7 -6l-49 -282c-1 -5 2 -7 6 -7h287c6 0 9 -4 8 -10l-1 -6c-1 -7 -5 -10 -12 -10h-288c-4 0 -6 -2 -7 -6l-52 -295c-1 -4 1 -6 5 -6h334c6 0 9 -4 8 -10l-1 -6
c-1 -7 -5 -10 -12 -10h-358c-6 0 -9 4 -8 10zM494 796h-22c-6 0 -9 4 -8 10l7 38c1 6 5 10 11 10h22c6 0 9 -4 8 -10l-7 -38c-1 -6 -5 -10 -11 -10zM301 796h-22c-6 0 -9 4 -8 10l7 38c1 6 5 10 11 10h22c6 0 9 -4 8 -10l-7 -38c-1 -6 -5 -10 -11 -10z" />
    <glyph glyph-name="Emacron" unicode="&#x112;" horiz-adv-x="530" 
d="M61 10l116 660c1 6 5 10 11 10h359c6 0 9 -4 8 -10l-1 -6c-1 -7 -5 -10 -12 -10h-334c-4 0 -6 -2 -7 -6l-49 -282c-1 -5 2 -7 6 -7h287c6 0 9 -4 8 -10l-1 -6c-1 -7 -5 -10 -12 -10h-288c-4 0 -6 -2 -7 -6l-52 -295c-1 -4 1 -6 5 -6h334c6 0 9 -4 8 -10l-1 -6
c-1 -7 -5 -10 -12 -10h-358c-6 0 -9 4 -8 10zM502 812h-225c-6 0 -9 4 -8 10l1 5c1 7 5 10 11 10h225c6 0 9 -4 8 -10l-1 -5c-1 -7 -5 -10 -11 -10z" />
    <glyph glyph-name="Ebreve" unicode="&#x114;" horiz-adv-x="530" 
d="M61 10l116 660c1 6 5 10 11 10h359c6 0 9 -4 8 -10l-1 -6c-1 -7 -5 -10 -12 -10h-334c-4 0 -6 -2 -7 -6l-49 -282c-1 -5 2 -7 6 -7h287c6 0 9 -4 8 -10l-1 -6c-1 -7 -5 -10 -12 -10h-288c-4 0 -6 -2 -7 -6l-52 -295c-1 -4 1 -6 5 -6h334c6 0 9 -4 8 -10l-1 -6
c-1 -7 -5 -10 -12 -10h-358c-6 0 -9 4 -8 10zM384 776c-58 0 -93 37 -95 93c0 6 4 10 10 10h4c7 0 10 -4 10 -10c3 -44 29 -69 74 -69c44 0 79 28 97 69c3 6 6 10 13 10h5c6 0 9 -4 7 -10c-20 -56 -67 -93 -125 -93z" />
    <glyph glyph-name="Edotaccent" unicode="&#x116;" horiz-adv-x="530" 
d="M61 10l116 660c1 6 5 10 11 10h359c6 0 9 -4 8 -10l-1 -6c-1 -7 -5 -10 -12 -10h-334c-4 0 -6 -2 -7 -6l-49 -282c-1 -5 2 -7 6 -7h287c6 0 9 -4 8 -10l-1 -6c-1 -7 -5 -10 -12 -10h-288c-4 0 -6 -2 -7 -6l-52 -295c-1 -4 1 -6 5 -6h334c6 0 9 -4 8 -10l-1 -6
c-1 -7 -5 -10 -12 -10h-358c-6 0 -9 4 -8 10zM397 796h-22c-6 0 -9 4 -8 10l7 38c1 6 5 10 11 10h22c6 0 9 -4 8 -10l-7 -38c-1 -6 -5 -10 -11 -10z" />
    <glyph glyph-name="Eogonek" unicode="&#x118;" horiz-adv-x="530" 
d="M340 -161c-28 0 -47 19 -47 47c0 35 22 64 92 114h-316c-6 0 -9 4 -8 10l116 660c1 6 5 10 11 10h359c6 0 9 -4 8 -10l-1 -6c-1 -7 -5 -10 -12 -10h-334c-4 0 -6 -2 -7 -6l-49 -282c-1 -5 2 -7 6 -7h287c6 0 9 -4 8 -10l-1 -6c-1 -7 -5 -10 -12 -10h-288
c-4 0 -6 -2 -7 -6l-52 -295c-1 -4 1 -6 5 -6h334c6 0 9 -4 8 -10l-1 -6c-1 -7 -5 -10 -12 -10h-7c-82 -60 -100 -86 -100 -111c0 -16 10 -25 26 -25c12 0 20 4 31 11c4 3 9 2 11 -2l3 -6c2 -5 0 -8 -6 -13c-9 -7 -25 -15 -45 -15z" />
    <glyph glyph-name="Gcircumflex" unicode="&#x11c;" horiz-adv-x="577" 
d="M68 178c0 86 33 282 73 364c49 101 121 148 229 148c73 0 147 -34 175 -118c2 -6 0 -9 -5 -11l-8 -3c-5 -2 -10 0 -11 4c-26 72 -85 102 -156 102c-90 0 -156 -44 -197 -128c-40 -82 -72 -271 -72 -353c0 -107 53 -167 155 -167c87 0 155 40 199 130c18 36 35 88 45 153
c1 4 -1 6 -5 6h-168c-6 0 -8 4 -7 10l1 7c1 6 4 9 10 9h192c5 0 8 -4 7 -10l-5 -33c-9 -55 -27 -115 -44 -150c-50 -103 -122 -148 -229 -148c-113 0 -179 69 -179 188zM484 756h-4c-7 0 -10 2 -14 9l-56 104h-2l-94 -104c-6 -7 -10 -9 -17 -9h-5c-5 0 -7 5 -2 10l103 120
c6 7 10 9 16 9h5c6 0 9 -3 12 -9l62 -120c3 -5 1 -10 -4 -10z" />
    <glyph glyph-name="Gbreve" unicode="&#x11e;" horiz-adv-x="577" 
d="M68 178c0 86 33 282 73 364c49 101 121 148 229 148c73 0 147 -34 175 -118c2 -6 0 -9 -5 -11l-8 -3c-5 -2 -10 0 -11 4c-26 72 -85 102 -156 102c-90 0 -156 -44 -197 -128c-40 -82 -72 -271 -72 -353c0 -107 53 -167 155 -167c87 0 155 40 199 130c18 36 35 88 45 153
c1 4 -1 6 -5 6h-168c-6 0 -8 4 -7 10l1 7c1 6 4 9 10 9h192c5 0 8 -4 7 -10l-5 -33c-9 -55 -27 -115 -44 -150c-50 -103 -122 -148 -229 -148c-113 0 -179 69 -179 188zM393 776c-58 0 -93 37 -95 93c0 6 4 10 10 10h4c7 0 10 -4 10 -10c3 -44 29 -69 74 -69
c44 0 79 28 97 69c3 6 6 10 13 10h5c6 0 9 -4 7 -10c-20 -56 -67 -93 -125 -93z" />
    <glyph glyph-name="Gdotaccent" unicode="&#x120;" horiz-adv-x="577" 
d="M68 178c0 86 33 282 73 364c49 101 121 148 229 148c73 0 147 -34 175 -118c2 -6 0 -9 -5 -11l-8 -3c-5 -2 -10 0 -11 4c-26 72 -85 102 -156 102c-90 0 -156 -44 -197 -128c-40 -82 -72 -271 -72 -353c0 -107 53 -167 155 -167c87 0 155 40 199 130c18 36 35 88 45 153
c1 4 -1 6 -5 6h-168c-6 0 -8 4 -7 10l1 7c1 6 4 9 10 9h192c5 0 8 -4 7 -10l-5 -33c-9 -55 -27 -115 -44 -150c-50 -103 -122 -148 -229 -148c-113 0 -179 69 -179 188zM405 796h-22c-6 0 -9 4 -8 10l7 38c1 6 5 10 11 10h22c6 0 9 -4 8 -10l-7 -38c-1 -6 -5 -10 -11 -10z
" />
    <glyph glyph-name="Gcommaaccent" unicode="&#x122;" horiz-adv-x="577" 
d="M68 178c0 86 33 282 73 364c49 101 121 148 229 148c73 0 147 -34 175 -118c2 -6 0 -9 -5 -11l-8 -3c-5 -2 -10 0 -11 4c-26 72 -85 102 -156 102c-90 0 -156 -44 -197 -128c-40 -82 -72 -271 -72 -353c0 -107 53 -167 155 -167c87 0 155 40 199 130c18 36 35 88 45 153
c1 4 -1 6 -5 6h-168c-6 0 -8 4 -7 10l1 7c1 6 4 9 10 9h192c5 0 8 -4 7 -10l-5 -33c-9 -55 -27 -115 -44 -150c-50 -103 -122 -148 -229 -148c-113 0 -179 69 -179 188zM217 -182c-5 0 -8 3 -7 9l19 107c1 6 5 10 11 10h10c6 0 9 -4 8 -10l-12 -64c-2 -10 -3 -13 -7 -22
l-11 -21c-3 -6 -6 -9 -11 -9z" />
    <glyph glyph-name="Hcircumflex" unicode="&#x124;" horiz-adv-x="622" 
d="M61 10l116 660c1 6 5 10 11 10h9c6 0 9 -4 8 -10l-54 -305c-1 -4 1 -6 5 -6h357c4 0 6 2 7 6l54 305c1 6 5 10 11 10h9c6 0 9 -4 8 -10l-116 -660c-1 -6 -5 -10 -11 -10h-9c-6 0 -9 4 -8 10l55 317c1 4 0 6 -4 6h-357c-4 0 -6 -2 -7 -6l-56 -317c-1 -6 -5 -10 -11 -10h-9
c-6 0 -9 4 -8 10zM495 756h-4c-7 0 -10 2 -14 9l-56 104h-2l-94 -104c-6 -7 -10 -9 -17 -9h-5c-5 0 -7 5 -2 10l103 120c6 7 10 9 16 9h5c6 0 9 -3 12 -9l62 -120c3 -5 1 -10 -4 -10z" />
    <glyph glyph-name="Hbar" unicode="&#x126;" horiz-adv-x="622" 
d="M475 0h-9c-6 0 -9 4 -8 10l55 317c1 4 0 6 -4 6h-357c-4 0 -6 -2 -7 -6l-56 -317c-1 -6 -5 -10 -11 -10h-9c-6 0 -9 4 -8 10l86 488c1 4 -1 6 -5 6h-40c-6 0 -9 4 -8 10l1 5c1 6 6 10 12 10h39c4 0 6 2 7 6l24 135c1 6 5 10 11 10h9c6 0 9 -4 8 -10l-24 -135
c-1 -4 0 -6 4 -6h358c4 0 6 2 7 6l24 135c1 6 5 10 11 10h9c6 0 9 -4 8 -10l-24 -135c-1 -4 1 -6 4 -6h40c5 0 8 -4 7 -10v-5c-1 -6 -6 -10 -11 -10h-41c-3 0 -5 -2 -6 -6l-85 -488c-1 -6 -5 -10 -11 -10zM513 359c4 0 6 2 7 6l23 133c1 4 -1 6 -5 6h-358c-4 0 -5 -2 -6 -6
l-23 -133c-1 -4 1 -6 5 -6h357z" />
    <glyph glyph-name="Igrave" unicode="&#xcc;" horiz-adv-x="225" 
d="M61 10l116 660c1 6 5 10 11 10h9c6 0 9 -4 8 -10l-116 -660c-1 -6 -5 -10 -11 -10h-9c-6 0 -9 4 -8 10zM206 766h-3c-8 0 -10 1 -16 10l-64 102c-3 5 0 10 5 10h10c8 0 11 -3 15 -10l58 -102c4 -6 1 -10 -5 -10z" />
    <glyph glyph-name="Iacute" unicode="&#xcd;" horiz-adv-x="225" 
d="M61 10l116 660c1 6 5 10 11 10h9c6 0 9 -4 8 -10l-116 -660c-1 -6 -5 -10 -11 -10h-9c-6 0 -9 4 -8 10zM208 766h-5c-6 0 -7 5 -1 11l91 101c7 8 11 10 19 10h11c6 0 8 -5 3 -10l-99 -102c-8 -8 -11 -10 -19 -10z" />
    <glyph glyph-name="Icircumflex" unicode="&#xce;" horiz-adv-x="225" 
d="M61 10l116 660c1 6 5 10 11 10h9c6 0 9 -4 8 -10l-116 -660c-1 -6 -5 -10 -11 -10h-9c-6 0 -9 4 -8 10zM303 756h-4c-7 0 -10 2 -14 9l-56 104h-2l-94 -104c-6 -7 -10 -9 -17 -9h-5c-5 0 -7 5 -2 10l103 120c6 7 10 9 16 9h5c6 0 9 -3 12 -9l62 -120c3 -5 1 -10 -4 -10z
" />
    <glyph glyph-name="Itilde" unicode="&#x128;" horiz-adv-x="225" 
d="M61 10l116 660c1 6 5 10 11 10h9c6 0 9 -4 8 -10l-116 -660c-1 -6 -5 -10 -11 -10h-9c-6 0 -9 4 -8 10zM270 796c-21 0 -36 9 -51 21c-13 10 -25 18 -41 18c-19 0 -37 -13 -58 -34c-4 -4 -9 -2 -8 3l2 14c1 5 2 8 9 14c17 16 38 26 60 26c21 0 36 -9 51 -21
c13 -10 25 -18 41 -18c19 0 37 13 58 34c4 4 9 2 8 -3l-2 -14c-1 -5 -2 -8 -9 -14c-17 -16 -38 -26 -60 -26z" />
    <glyph glyph-name="Idieresis" unicode="&#xcf;" horiz-adv-x="225" 
d="M61 10l116 660c1 6 5 10 11 10h9c6 0 9 -4 8 -10l-116 -660c-1 -6 -5 -10 -11 -10h-9c-6 0 -9 4 -8 10zM328 796h-22c-6 0 -9 4 -8 10l7 38c1 6 5 10 11 10h22c6 0 9 -4 8 -10l-7 -38c-1 -6 -5 -10 -11 -10zM135 796h-22c-6 0 -9 4 -8 10l7 38c1 6 5 10 11 10h22
c6 0 9 -4 8 -10l-7 -38c-1 -6 -5 -10 -11 -10z" />
    <glyph glyph-name="Imacron" unicode="&#x12a;" horiz-adv-x="225" 
d="M61 10l116 660c1 6 5 10 11 10h9c6 0 9 -4 8 -10l-116 -660c-1 -6 -5 -10 -11 -10h-9c-6 0 -9 4 -8 10zM337 812h-225c-6 0 -9 4 -8 10l1 5c1 7 5 10 11 10h225c6 0 9 -4 8 -10l-1 -5c-1 -7 -5 -10 -11 -10z" />
    <glyph glyph-name="Idotaccent" unicode="&#x130;" horiz-adv-x="225" 
d="M61 10l116 660c1 6 5 10 11 10h9c6 0 9 -4 8 -10l-116 -660c-1 -6 -5 -10 -11 -10h-9c-6 0 -9 4 -8 10zM226 796h-22c-6 0 -9 4 -8 10l7 38c1 6 5 10 11 10h22c6 0 9 -4 8 -10l-7 -38c-1 -6 -5 -10 -11 -10z" />
    <glyph glyph-name="Ibreve" unicode="&#x12c;" horiz-adv-x="225" 
d="M61 10l116 660c1 6 5 10 11 10h9c6 0 9 -4 8 -10l-116 -660c-1 -6 -5 -10 -11 -10h-9c-6 0 -9 4 -8 10zM220 776c-58 0 -93 37 -95 93c0 6 4 10 10 10h4c7 0 10 -4 10 -10c3 -44 29 -69 74 -69c44 0 79 28 97 69c3 6 6 10 13 10h5c6 0 9 -4 7 -10
c-20 -56 -67 -93 -125 -93z" />
    <glyph glyph-name="Iogonek" unicode="&#x12e;" horiz-adv-x="225" 
d="M24 -161c-28 0 -47 19 -47 46c0 34 25 70 83 121l117 664c1 6 5 10 11 10h9c6 0 9 -4 8 -10l-116 -660c-1 -4 -2 -5 -6 -9c-55 -55 -79 -87 -79 -112c0 -16 10 -25 26 -25c12 0 20 4 31 11c4 3 9 2 11 -2l3 -6c2 -5 0 -8 -6 -13c-9 -7 -25 -15 -45 -15z" />
    <glyph glyph-name="Jcircumflex" unicode="&#x134;" horiz-adv-x="447" 
d="M14 35c-4 3 -5 9 0 14l5 5c5 5 10 5 15 1c30 -23 62 -39 103 -39c86 0 156 46 179 175l84 479c1 6 5 10 11 10h9c6 0 9 -4 8 -10l-85 -482c-26 -146 -105 -198 -209 -198c-45 0 -90 19 -120 45zM523 756h-4c-7 0 -10 2 -14 9l-56 104h-2l-94 -104c-6 -7 -10 -9 -17 -9h-5
c-5 0 -7 5 -2 10l103 120c6 7 10 9 16 9h5c6 0 9 -3 12 -9l62 -120c3 -5 1 -10 -4 -10z" />
    <glyph glyph-name="Kcommaaccent" unicode="&#x136;" horiz-adv-x="559" 
d="M61 10l116 660c1 6 5 10 11 10h9c6 0 9 -4 8 -10l-74 -422l414 422c7 7 12 10 19 10h14c5 0 7 -5 3 -10l-256 -260l153 -400c2 -5 -1 -10 -7 -10h-11c-6 0 -9 2 -12 10l-143 379l-182 -185l-34 -194c-1 -6 -5 -10 -11 -10h-9c-6 0 -9 4 -8 10zM226 -182c-5 0 -8 3 -7 9
l19 107c1 6 5 10 11 10h10c6 0 9 -4 8 -10l-12 -64c-2 -10 -3 -13 -7 -22l-11 -21c-3 -6 -6 -9 -11 -9z" />
    <glyph glyph-name="Lacute" unicode="&#x139;" horiz-adv-x="500" 
d="M61 10l116 660c1 6 5 10 11 10h9c6 0 9 -4 8 -10l-112 -638c-1 -4 1 -6 4 -6h334c5 0 9 -4 8 -10l-1 -6c-1 -6 -5 -10 -11 -10h-358c-5 0 -9 4 -8 10zM210 766h-5c-6 0 -7 5 -1 11l91 101c7 8 11 10 19 10h11c6 0 8 -5 3 -10l-99 -102c-8 -8 -11 -10 -19 -10z" />
    <glyph glyph-name="Lcaron" unicode="&#x13d;" horiz-adv-x="500" 
d="M61 10l116 660c1 6 5 10 11 10h9c6 0 9 -4 8 -10l-112 -638c-1 -4 1 -6 4 -6h334c5 0 9 -4 8 -10l-1 -6c-1 -6 -5 -10 -11 -10h-358c-5 0 -9 4 -8 10zM305 554c-5 0 -8 3 -7 9l19 107c1 6 5 10 11 10h10c6 0 9 -4 8 -10l-12 -64c-2 -10 -3 -13 -7 -22l-11 -21
c-3 -6 -6 -9 -11 -9z" />
    <glyph glyph-name="Lcommaaccent" unicode="&#x13b;" horiz-adv-x="500" 
d="M61 10l116 660c1 6 5 10 11 10h9c6 0 9 -4 8 -10l-112 -638c-1 -4 1 -6 4 -6h334c5 0 9 -4 8 -10l-1 -6c-1 -6 -5 -10 -11 -10h-358c-5 0 -9 4 -8 10zM223 -182c-5 0 -8 3 -7 9l19 107c1 6 5 10 11 10h10c6 0 9 -4 8 -10l-12 -64c-2 -10 -3 -13 -7 -22l-11 -21
c-3 -6 -6 -9 -11 -9z" />
    <glyph glyph-name="Lslash" unicode="&#x141;" horiz-adv-x="500" 
d="M324 411l-180 -88l-51 -291c-1 -4 1 -6 4 -6h334c5 0 9 -4 8 -10l-1 -6c-1 -6 -5 -10 -11 -10h-358c-5 0 -9 4 -8 10l52 298l-62 -30c-6 -3 -10 0 -9 6l2 10c1 6 3 9 11 13l63 31l59 332c1 6 5 10 11 10h9c6 0 9 -4 8 -10l-56 -317l179 87c6 3 10 0 9 -6l-2 -10
c-1 -6 -3 -9 -11 -13z" />
    <glyph glyph-name="Ldot" unicode="&#x13f;" horiz-adv-x="500" 
d="M61 10l116 660c1 6 5 10 11 10h9c6 0 9 -4 8 -10l-112 -638c-1 -4 1 -6 4 -6h334c5 0 9 -4 8 -10l-1 -6c-1 -6 -5 -10 -11 -10h-358c-5 0 -9 4 -8 10zM374 292h-25c-6 0 -9 4 -8 10l8 48c1 6 5 10 11 10h25c6 0 9 -4 8 -10l-8 -48c-1 -6 -5 -10 -11 -10z" />
    <glyph glyph-name="Nacute" unicode="&#x143;" horiz-adv-x="623" 
d="M61 10l116 660c1 6 5 10 11 10h8c6 0 10 -2 13 -10l256 -611h2l108 611c1 6 5 10 11 10h9c6 0 9 -4 8 -10l-116 -660c-1 -6 -5 -10 -11 -10h-7c-6 0 -11 2 -14 10l-256 614h-2l-108 -614c-1 -6 -5 -10 -11 -10h-9c-5 0 -9 4 -8 10zM385 766h-5c-6 0 -7 5 -1 11l91 101
c7 8 11 10 19 10h11c6 0 8 -5 3 -10l-99 -102c-8 -8 -11 -10 -19 -10z" />
    <glyph glyph-name="Ncaron" unicode="&#x147;" horiz-adv-x="623" 
d="M61 10l116 660c1 6 5 10 11 10h8c6 0 10 -2 13 -10l256 -611h2l108 611c1 6 5 10 11 10h9c6 0 9 -4 8 -10l-116 -660c-1 -6 -5 -10 -11 -10h-7c-6 0 -11 2 -14 10l-256 614h-2l-108 -614c-1 -6 -5 -10 -11 -10h-9c-5 0 -9 4 -8 10zM404 756h-5c-6 0 -9 3 -12 9l-62 120
c-3 5 -1 10 4 10h4c7 0 10 -2 14 -9l56 -104h2l94 104c6 7 10 9 17 9h5c5 0 7 -5 2 -10l-103 -120c-6 -7 -10 -9 -16 -9z" />
    <glyph glyph-name="Ntilde" unicode="&#xd1;" horiz-adv-x="623" 
d="M61 10l116 660c1 6 5 10 11 10h8c6 0 10 -2 13 -10l256 -611h2l108 611c1 6 5 10 11 10h9c6 0 9 -4 8 -10l-116 -660c-1 -6 -5 -10 -11 -10h-7c-6 0 -11 2 -14 10l-256 614h-2l-108 -614c-1 -6 -5 -10 -11 -10h-9c-5 0 -9 4 -8 10zM458 796c-21 0 -36 9 -51 21
c-13 10 -25 18 -41 18c-19 0 -37 -13 -58 -34c-4 -4 -9 -2 -8 3l2 14c1 5 2 8 9 14c17 16 38 26 60 26c21 0 36 -9 51 -21c13 -10 25 -18 41 -18c19 0 37 13 58 34c4 4 9 2 8 -3l-2 -14c-1 -5 -2 -8 -9 -14c-17 -16 -38 -26 -60 -26z" />
    <glyph glyph-name="Ncommaaccent" unicode="&#x145;" horiz-adv-x="623" 
d="M61 10l116 660c1 6 5 10 11 10h8c6 0 10 -2 13 -10l256 -611h2l108 611c1 6 5 10 11 10h9c6 0 9 -4 8 -10l-116 -660c-1 -6 -5 -10 -11 -10h-7c-6 0 -11 2 -14 10l-256 614h-2l-108 -614c-1 -6 -5 -10 -11 -10h-9c-5 0 -9 4 -8 10zM252 -182c-5 0 -8 3 -7 9l19 107
c1 6 5 10 11 10h10c6 0 9 -4 8 -10l-12 -64c-2 -10 -3 -13 -7 -22l-11 -21c-3 -6 -6 -9 -11 -9z" />
    <glyph glyph-name="Eng" unicode="&#x14a;" horiz-adv-x="623" 
d="M329 -180h-6c-6 0 -9 4 -8 10l1 6c1 7 6 10 12 10h7c65 0 102 27 115 107l9 48l-260 623h-2l-108 -614c-1 -6 -5 -10 -11 -10h-9c-6 0 -9 4 -8 10l116 660c1 6 4 10 10 10h7c6 0 11 -1 15 -10l256 -611h2l108 611c1 6 5 10 10 10h9c6 0 10 -4 9 -10l-126 -716
c-17 -95 -61 -134 -148 -134z" />
    <glyph glyph-name="Ograve" unicode="&#xd2;" horiz-adv-x="580" 
d="M247 -10c-114 0 -179 69 -179 188c0 86 33 282 73 364c49 101 121 148 228 148c114 0 179 -69 179 -188c0 -86 -33 -282 -73 -364c-49 -101 -121 -148 -228 -148zM251 16c90 0 156 44 197 128c40 82 72 271 72 353c0 107 -53 167 -155 167c-90 0 -156 -44 -197 -128
c-40 -82 -72 -271 -72 -353c0 -107 53 -167 155 -167zM383 766h-3c-8 0 -10 1 -16 10l-64 102c-3 5 0 10 5 10h10c8 0 11 -3 15 -10l58 -102c4 -6 1 -10 -5 -10z" />
    <glyph glyph-name="Oacute" unicode="&#xd3;" horiz-adv-x="580" 
d="M247 -10c-114 0 -179 69 -179 188c0 86 33 282 73 364c49 101 121 148 228 148c114 0 179 -69 179 -188c0 -86 -33 -282 -73 -364c-49 -101 -121 -148 -228 -148zM251 16c90 0 156 44 197 128c40 82 72 271 72 353c0 107 -53 167 -155 167c-90 0 -156 -44 -197 -128
c-40 -82 -72 -271 -72 -353c0 -107 53 -167 155 -167zM392 766h-5c-6 0 -7 5 -1 11l91 101c7 8 11 10 19 10h11c6 0 8 -5 3 -10l-99 -102c-8 -8 -11 -10 -19 -10z" />
    <glyph glyph-name="Ocircumflex" unicode="&#xd4;" horiz-adv-x="580" 
d="M247 -10c-114 0 -179 69 -179 188c0 86 33 282 73 364c49 101 121 148 228 148c114 0 179 -69 179 -188c0 -86 -33 -282 -73 -364c-49 -101 -121 -148 -228 -148zM251 16c90 0 156 44 197 128c40 82 72 271 72 353c0 107 -53 167 -155 167c-90 0 -156 -44 -197 -128
c-40 -82 -72 -271 -72 -353c0 -107 53 -167 155 -167zM484 767h-4c-7 0 -10 2 -14 9l-56 104h-2l-94 -104c-6 -7 -10 -9 -17 -9h-5c-5 0 -7 5 -2 10l103 120c6 7 10 9 16 9h5c6 0 9 -3 12 -9l62 -120c3 -5 1 -10 -4 -10z" />
    <glyph glyph-name="Otilde" unicode="&#xd5;" horiz-adv-x="580" 
d="M247 -10c-114 0 -179 69 -179 188c0 86 33 282 73 364c49 101 121 148 228 148c114 0 179 -69 179 -188c0 -86 -33 -282 -73 -364c-49 -101 -121 -148 -228 -148zM251 16c90 0 156 44 197 128c40 82 72 271 72 353c0 107 -53 167 -155 167c-90 0 -156 -44 -197 -128
c-40 -82 -72 -271 -72 -353c0 -107 53 -167 155 -167zM442 796c-21 0 -36 9 -51 21c-13 10 -25 18 -41 18c-19 0 -37 -13 -58 -34c-4 -4 -9 -2 -8 3l2 14c1 5 2 8 9 14c17 16 38 26 60 26c21 0 36 -9 51 -21c13 -10 25 -18 41 -18c19 0 37 13 58 34c4 4 9 2 8 -3l-2 -14
c-1 -5 -2 -8 -9 -14c-17 -16 -38 -26 -60 -26z" />
    <glyph glyph-name="Odieresis" unicode="&#xd6;" horiz-adv-x="580" 
d="M247 -10c-114 0 -179 69 -179 188c0 86 33 282 73 364c49 101 121 148 228 148c114 0 179 -69 179 -188c0 -86 -33 -282 -73 -364c-49 -101 -121 -148 -228 -148zM251 16c90 0 156 44 197 128c40 82 72 271 72 353c0 107 -53 167 -155 167c-90 0 -156 -44 -197 -128
c-40 -82 -72 -271 -72 -353c0 -107 53 -167 155 -167zM500 796h-22c-6 0 -9 4 -8 10l7 38c1 6 5 10 11 10h22c6 0 9 -4 8 -10l-7 -38c-1 -6 -5 -10 -11 -10zM307 796h-22c-6 0 -9 4 -8 10l7 38c1 6 5 10 11 10h22c6 0 9 -4 8 -10l-7 -38c-1 -6 -5 -10 -11 -10z" />
    <glyph glyph-name="Omacron" unicode="&#x14c;" horiz-adv-x="580" 
d="M247 -10c-114 0 -179 69 -179 188c0 86 33 282 73 364c49 101 121 148 228 148c114 0 179 -69 179 -188c0 -86 -33 -282 -73 -364c-49 -101 -121 -148 -228 -148zM251 16c90 0 156 44 197 128c40 82 72 271 72 353c0 107 -53 167 -155 167c-90 0 -156 -44 -197 -128
c-40 -82 -72 -271 -72 -353c0 -107 53 -167 155 -167zM508 812h-225c-6 0 -9 4 -8 10l1 5c1 7 5 10 11 10h225c6 0 9 -4 8 -10l-1 -5c-1 -7 -5 -10 -11 -10z" />
    <glyph glyph-name="Obreve" unicode="&#x14e;" horiz-adv-x="580" 
d="M247 -10c-114 0 -179 69 -179 188c0 86 33 282 73 364c49 101 121 148 228 148c114 0 179 -69 179 -188c0 -86 -33 -282 -73 -364c-49 -101 -121 -148 -228 -148zM251 16c90 0 156 44 197 128c40 82 72 271 72 353c0 107 -53 167 -155 167c-90 0 -156 -44 -197 -128
c-40 -82 -72 -271 -72 -353c0 -107 53 -167 155 -167zM391 776c-58 0 -93 37 -95 93c0 6 4 10 10 10h4c7 0 10 -4 10 -10c3 -44 29 -69 74 -69c44 0 79 28 97 69c3 6 6 10 13 10h5c6 0 9 -4 7 -10c-20 -56 -67 -93 -125 -93z" />
    <glyph glyph-name="Ohungarumlaut" unicode="&#x150;" horiz-adv-x="580" 
d="M247 -10c-114 0 -179 69 -179 188c0 86 33 282 73 364c49 101 121 148 228 148c114 0 179 -69 179 -188c0 -86 -33 -282 -73 -364c-49 -101 -121 -148 -228 -148zM251 16c90 0 156 44 197 128c40 82 72 271 72 353c0 107 -53 167 -155 167c-90 0 -156 -44 -197 -128
c-40 -82 -72 -271 -72 -353c0 -107 53 -167 155 -167zM446 766h-6c-5 0 -9 4 -4 10l83 102c6 7 10 10 18 10h9c6 0 8 -5 4 -10l-90 -104c-5 -6 -8 -8 -14 -8zM342 766h-6c-5 0 -9 4 -4 10l83 102c6 7 10 10 18 10h9c6 0 8 -5 4 -10l-90 -104c-5 -6 -8 -8 -14 -8z" />
    <glyph glyph-name="Oslash" unicode="&#xd8;" horiz-adv-x="580" 
d="M50 -30h-8c-6 0 -8 4 -4 10l59 81c-20 30 -29 70 -29 117c0 86 33 282 73 364c49 101 121 148 228 148c59 0 106 -19 136 -54l46 64c4 6 9 10 16 10h8c6 0 8 -4 4 -10l-60 -83c19 -30 29 -69 29 -115c0 -86 -33 -282 -73 -364c-49 -101 -121 -148 -228 -148
c-60 0 -106 19 -136 54l-45 -64c-4 -6 -9 -10 -16 -10zM96 183c0 -38 6 -70 19 -96l373 524c-26 34 -67 53 -123 53c-90 0 -156 -44 -197 -128c-40 -82 -72 -271 -72 -353zM251 16c90 0 156 44 197 128c40 82 72 271 72 353c0 37 -7 69 -20 94l-372 -523
c26 -34 67 -52 123 -52z" />
    <glyph glyph-name="OE" unicode="&#x152;" horiz-adv-x="914" 
d="M811 0h-358c-6 0 -9 4 -8 10l19 108h-1c-48 -88 -117 -128 -216 -128c-114 0 -179 69 -179 188c0 86 33 282 73 364c49 101 121 148 228 148c93 0 155 -46 171 -133h1l20 113c1 6 5 10 11 10h359c6 0 9 -4 8 -10l-1 -6c-1 -7 -5 -10 -12 -10h-334c-4 0 -6 -2 -7 -6
l-49 -282c-1 -5 2 -7 6 -7h287c6 0 9 -4 8 -10l-1 -6c-1 -7 -5 -10 -12 -10h-288c-4 0 -6 -2 -7 -6l-52 -295c-1 -4 1 -6 5 -6h334c6 0 9 -4 8 -10l-1 -6c-1 -7 -5 -10 -12 -10zM251 16c90 0 156 44 197 128c40 82 72 271 72 353c0 107 -53 167 -155 167
c-90 0 -156 -44 -197 -128c-40 -82 -72 -271 -72 -353c0 -107 53 -167 155 -167z" />
    <glyph glyph-name="Racute" unicode="&#x154;" horiz-adv-x="589" 
d="M468 0h-12c-6 0 -9 2 -11 9l-90 312c-9 -1 -17 -1 -26 -1h-179c-4 0 -6 -2 -7 -6l-54 -304c-1 -6 -5 -10 -11 -10h-9c-6 0 -9 4 -8 10l116 660c1 6 5 10 11 10h205c107 0 165 -52 165 -145c0 -117 -65 -193 -177 -211l93 -314c2 -6 0 -10 -6 -10zM334 346
c129 0 197 75 197 187c0 82 -48 121 -143 121h-180c-4 0 -6 -2 -7 -6l-52 -296c-1 -4 1 -6 5 -6h180zM351 766h-5c-6 0 -7 5 -1 11l91 101c7 8 11 10 19 10h11c6 0 8 -5 3 -10l-99 -102c-8 -8 -11 -10 -19 -10z" />
    <glyph glyph-name="Rcaron" unicode="&#x158;" horiz-adv-x="589" 
d="M468 0h-12c-6 0 -9 2 -11 9l-90 312c-9 -1 -17 -1 -26 -1h-179c-4 0 -6 -2 -7 -6l-54 -304c-1 -6 -5 -10 -11 -10h-9c-6 0 -9 4 -8 10l116 660c1 6 5 10 11 10h205c107 0 165 -52 165 -145c0 -117 -65 -193 -177 -211l93 -314c2 -6 0 -10 -6 -10zM334 346
c129 0 197 75 197 187c0 82 -48 121 -143 121h-180c-4 0 -6 -2 -7 -6l-52 -296c-1 -4 1 -6 5 -6h180zM376 756h-5c-6 0 -9 3 -12 9l-62 120c-3 5 -1 10 4 10h4c7 0 10 -2 14 -9l56 -104h2l94 104c6 7 10 9 17 9h5c5 0 7 -5 2 -10l-103 -120c-6 -7 -10 -9 -16 -9z" />
    <glyph glyph-name="Rcommaaccent" unicode="&#x156;" horiz-adv-x="589" 
d="M468 0h-12c-6 0 -9 2 -11 9l-90 312c-9 -1 -17 -1 -26 -1h-179c-4 0 -6 -2 -7 -6l-54 -304c-1 -6 -5 -10 -11 -10h-9c-6 0 -9 4 -8 10l116 660c1 6 5 10 11 10h205c107 0 165 -52 165 -145c0 -117 -65 -193 -177 -211l93 -314c2 -6 0 -10 -6 -10zM334 346
c129 0 197 75 197 187c0 82 -48 121 -143 121h-180c-4 0 -6 -2 -7 -6l-52 -296c-1 -4 1 -6 5 -6h180zM223 -182c-5 0 -8 3 -7 9l19 107c1 6 5 10 11 10h10c6 0 9 -4 8 -10l-12 -64c-2 -10 -3 -13 -7 -22l-11 -21c-3 -6 -6 -9 -11 -9z" />
    <glyph glyph-name="Sacute" unicode="&#x15a;" horiz-adv-x="575" 
d="M237 -10c-78 0 -157 37 -192 74c-3 4 -3 9 1 13l5 5c5 5 10 5 14 1c44 -39 103 -67 183 -67c130 0 218 73 218 187c0 75 -34 111 -144 127l-28 4c-109 16 -157 67 -157 150c0 119 85 206 222 206c67 0 132 -24 170 -54c5 -4 5 -8 1 -14l-4 -5c-3 -4 -9 -5 -15 -1
c-47 32 -99 48 -158 48c-113 0 -188 -77 -188 -176c0 -75 35 -114 147 -130l28 -4c114 -16 153 -67 153 -150c0 -127 -91 -214 -256 -214zM380 766h-5c-6 0 -7 5 -1 11l91 101c7 8 11 10 19 10h11c6 0 8 -5 3 -10l-99 -102c-8 -8 -11 -10 -19 -10z" />
    <glyph glyph-name="Scircumflex" unicode="&#x15c;" horiz-adv-x="575" 
d="M237 -10c-78 0 -157 37 -192 74c-3 4 -3 9 1 13l5 5c5 5 10 5 14 1c44 -39 103 -67 183 -67c130 0 218 73 218 187c0 75 -34 111 -144 127l-28 4c-109 16 -157 67 -157 150c0 119 85 206 222 206c67 0 132 -24 170 -54c5 -4 5 -8 1 -14l-4 -5c-3 -4 -9 -5 -15 -1
c-47 32 -99 48 -158 48c-113 0 -188 -77 -188 -176c0 -75 35 -114 147 -130l28 -4c114 -16 153 -67 153 -150c0 -127 -91 -214 -256 -214zM483 756h-4c-7 0 -10 2 -14 9l-56 104h-2l-94 -104c-6 -7 -10 -9 -17 -9h-5c-5 0 -7 5 -2 10l103 120c6 7 10 9 16 9h5
c6 0 9 -3 12 -9l62 -120c3 -5 1 -10 -4 -10z" />
    <glyph glyph-name="Scaron" unicode="&#x160;" horiz-adv-x="575" 
d="M237 -10c-78 0 -157 37 -192 74c-3 4 -3 9 1 13l5 5c5 5 10 5 14 1c44 -39 103 -67 183 -67c130 0 218 73 218 187c0 75 -34 111 -144 127l-28 4c-109 16 -157 67 -157 150c0 119 85 206 222 206c67 0 132 -24 170 -54c5 -4 5 -8 1 -14l-4 -5c-3 -4 -9 -5 -15 -1
c-47 32 -99 48 -158 48c-113 0 -188 -77 -188 -176c0 -75 35 -114 147 -130l28 -4c114 -16 153 -67 153 -150c0 -127 -91 -214 -256 -214zM379 756h-5c-6 0 -9 3 -12 9l-62 120c-3 5 -1 10 4 10h4c7 0 10 -2 14 -9l56 -104h2l94 104c6 7 10 9 17 9h5c5 0 7 -5 2 -10
l-103 -120c-6 -7 -10 -9 -16 -9z" />
    <glyph glyph-name="Scedilla" unicode="&#x15e;" horiz-adv-x="575" 
d="M241 -10c-82 0 -161 37 -196 74c-3 4 -3 9 1 13l5 5c5 5 10 5 14 1c44 -39 103 -67 183 -67c130 0 218 73 218 187c0 75 -34 111 -144 127l-28 4c-109 16 -157 67 -157 150c0 119 85 206 222 206c67 0 132 -24 170 -54c5 -4 5 -8 1 -14l-4 -5c-3 -4 -9 -5 -15 -1
c-47 32 -99 48 -158 48c-113 0 -188 -77 -188 -176c0 -75 35 -114 147 -130l28 -4c114 -16 153 -67 153 -150c0 -119 -80 -203 -226 -213l-63 -125c-4 -8 -8 -10 -17 -10h-8c-6 0 -9 4 -6 10z" />
    <glyph glyph-name="Scommaaccent" unicode="&#x218;" horiz-adv-x="575" 
d="M237 -10c-78 0 -157 37 -192 74c-3 4 -3 9 1 13l5 5c5 5 10 5 14 1c44 -39 103 -67 183 -67c130 0 218 73 218 187c0 75 -34 111 -144 127l-28 4c-109 16 -157 67 -157 150c0 119 85 206 222 206c67 0 132 -24 170 -54c5 -4 5 -8 1 -14l-4 -5c-3 -4 -9 -5 -15 -1
c-47 32 -99 48 -158 48c-113 0 -188 -77 -188 -176c0 -75 35 -114 147 -130l28 -4c114 -16 153 -67 153 -150c0 -127 -91 -214 -256 -214zM216 -182c-5 0 -8 3 -7 9l19 107c1 6 5 10 11 10h10c6 0 9 -4 8 -10l-12 -64c-2 -10 -3 -13 -7 -22l-11 -21c-3 -6 -6 -9 -11 -9z" />
    <glyph glyph-name="Tcaron" unicode="&#x164;" horiz-adv-x="491" 
d="M211 0h-9c-6 0 -9 4 -8 10l112 638c1 4 0 6 -4 6h-196c-5 0 -8 4 -7 10l1 6c1 6 5 10 11 10h431c5 0 8 -4 7 -10l-1 -6c-1 -6 -5 -10 -11 -10h-196c-4 0 -6 -2 -7 -6l-112 -638c-1 -6 -5 -10 -11 -10zM340 756h-5c-6 0 -9 3 -12 9l-62 120c-3 5 -1 10 4 10h4
c7 0 10 -2 14 -9l56 -104h2l94 104c6 7 10 9 17 9h5c5 0 7 -5 2 -10l-103 -120c-6 -7 -10 -9 -16 -9z" />
    <glyph glyph-name="uni0162" unicode="&#x162;" horiz-adv-x="491" 
d="M211 0h-9c-6 0 -9 4 -8 10l112 638c1 4 0 6 -4 6h-196c-5 0 -8 4 -7 10l1 6c1 6 5 10 11 10h431c5 0 8 -4 7 -10l-1 -6c-1 -6 -5 -10 -11 -10h-196c-4 0 -6 -2 -7 -6l-112 -638c-1 -6 -5 -10 -11 -10zM170 -182c-5 0 -8 3 -7 9l19 107c1 6 5 10 11 10h10c6 0 9 -4 8 -10
l-12 -64c-2 -10 -3 -13 -7 -22l-11 -21c-3 -6 -6 -9 -11 -9z" />
    <glyph glyph-name="uni021A" unicode="&#x21a;" horiz-adv-x="491" 
d="M211 0h-9c-6 0 -9 4 -8 10l112 638c1 4 0 6 -4 6h-196c-5 0 -8 4 -7 10l1 6c1 6 5 10 11 10h431c5 0 8 -4 7 -10l-1 -6c-1 -6 -5 -10 -11 -10h-196c-4 0 -6 -2 -7 -6l-112 -638c-1 -6 -5 -10 -11 -10zM170 -182c-5 0 -8 3 -7 9l19 107c1 6 5 10 11 10h10c6 0 9 -4 8 -10
l-12 -64c-2 -10 -3 -13 -7 -22l-11 -21c-3 -6 -6 -9 -11 -9z" />
    <glyph glyph-name="Tbar" unicode="&#x166;" horiz-adv-x="491" 
d="M211 0h-9c-6 0 -9 4 -8 10l73 419c1 4 -1 6 -5 6h-102c-6 0 -9 4 -8 10l1 5c1 7 5 10 12 10h102c4 0 6 2 7 6l32 182c1 4 0 6 -4 6h-196c-5 0 -8 4 -7 10l1 6c1 6 5 10 11 10h431c5 0 8 -4 7 -10l-1 -6c-1 -6 -5 -10 -11 -10h-196c-4 0 -6 -2 -7 -6l-32 -182
c-1 -4 0 -6 4 -6h104c6 0 9 -4 8 -10l-1 -5c-1 -7 -5 -10 -12 -10h-103c-4 0 -6 -2 -7 -6l-73 -419c-1 -6 -5 -10 -11 -10z" />
    <glyph glyph-name="Thorn" unicode="&#xde;" horiz-adv-x="555" 
d="M78 0h-9c-6 0 -9 4 -8 10l116 660c1 6 5 10 11 10h9c6 0 9 -4 8 -10l-24 -138c-1 -4 1 -6 5 -6h181c108 0 166 -52 166 -141c0 -142 -95 -225 -230 -225h-182c-4 0 -6 -2 -7 -6l-25 -144c-1 -6 -5 -10 -11 -10zM304 186c123 1 202 71 202 197c0 76 -48 117 -143 117h-182
c-4 0 -6 -2 -7 -6l-53 -302c-1 -4 1 -6 5 -6h178z" />
    <glyph glyph-name="Ugrave" unicode="&#xd9;" horiz-adv-x="607" 
d="M273 -10c-138 0 -209 78 -180 242l77 438c1 6 5 10 11 10h9c6 0 9 -4 8 -10l-77 -439c-25 -144 28 -215 154 -215c120 0 187 58 215 215l77 439c1 6 5 10 11 10h9c6 0 9 -4 8 -10l-77 -438c-30 -172 -105 -242 -245 -242zM410 766h-3c-8 0 -10 1 -16 10l-64 102
c-3 5 0 10 5 10h10c8 0 11 -3 15 -10l58 -102c4 -6 1 -10 -5 -10z" />
    <glyph glyph-name="Uacute" unicode="&#xda;" horiz-adv-x="607" 
d="M273 -10c-138 0 -209 78 -180 242l77 438c1 6 5 10 11 10h9c6 0 9 -4 8 -10l-77 -439c-25 -144 28 -215 154 -215c120 0 187 58 215 215l77 439c1 6 5 10 11 10h9c6 0 9 -4 8 -10l-77 -438c-30 -172 -105 -242 -245 -242zM380 766h-5c-6 0 -7 5 -1 11l91 101
c7 8 11 10 19 10h11c6 0 8 -5 3 -10l-99 -102c-8 -8 -11 -10 -19 -10z" />
    <glyph glyph-name="Ucircumflex" unicode="&#xdb;" horiz-adv-x="607" 
d="M273 -10c-138 0 -209 78 -180 242l77 438c1 6 5 10 11 10h9c6 0 9 -4 8 -10l-77 -439c-25 -144 28 -215 154 -215c120 0 187 58 215 215l77 439c1 6 5 10 11 10h9c6 0 9 -4 8 -10l-77 -438c-30 -172 -105 -242 -245 -242zM500 756h-4c-7 0 -10 2 -14 9l-56 104h-2
l-94 -104c-6 -7 -10 -9 -17 -9h-5c-5 0 -7 5 -2 10l103 120c6 7 10 9 16 9h5c6 0 9 -3 12 -9l62 -120c3 -5 1 -10 -4 -10z" />
    <glyph glyph-name="Utilde" unicode="&#x168;" horiz-adv-x="607" 
d="M273 -10c-138 0 -209 78 -180 242l77 438c1 6 5 10 11 10h9c6 0 9 -4 8 -10l-77 -439c-25 -144 28 -215 154 -215c120 0 187 58 215 215l77 439c1 6 5 10 11 10h9c6 0 9 -4 8 -10l-77 -438c-30 -172 -105 -242 -245 -242zM460 796c-21 0 -36 9 -51 21
c-13 10 -25 18 -41 18c-19 0 -37 -13 -58 -34c-4 -4 -9 -2 -8 3l2 14c1 5 2 8 9 14c17 16 38 26 60 26c21 0 36 -9 51 -21c13 -10 25 -18 41 -18c19 0 37 13 58 34c4 4 9 2 8 -3l-2 -14c-1 -5 -2 -8 -9 -14c-17 -16 -38 -26 -60 -26z" />
    <glyph glyph-name="Udieresis" unicode="&#xdc;" horiz-adv-x="607" 
d="M273 -10c-138 0 -209 78 -180 242l77 438c1 6 5 10 11 10h9c6 0 9 -4 8 -10l-77 -439c-25 -144 28 -215 154 -215c120 0 187 58 215 215l77 439c1 6 5 10 11 10h9c6 0 9 -4 8 -10l-77 -438c-30 -172 -105 -242 -245 -242zM518 796h-22c-6 0 -9 4 -8 10l7 38
c1 6 5 10 11 10h22c6 0 9 -4 8 -10l-7 -38c-1 -6 -5 -10 -11 -10zM325 796h-22c-6 0 -9 4 -8 10l7 38c1 6 5 10 11 10h22c6 0 9 -4 8 -10l-7 -38c-1 -6 -5 -10 -11 -10z" />
    <glyph glyph-name="Umacron" unicode="&#x16a;" horiz-adv-x="607" 
d="M273 -10c-138 0 -209 78 -180 242l77 438c1 6 5 10 11 10h9c6 0 9 -4 8 -10l-77 -439c-25 -144 28 -215 154 -215c120 0 187 58 215 215l77 439c1 6 5 10 11 10h9c6 0 9 -4 8 -10l-77 -438c-30 -172 -105 -242 -245 -242zM526 812h-225c-6 0 -9 4 -8 10l1 5
c1 7 5 10 11 10h225c6 0 9 -4 8 -10l-1 -5c-1 -7 -5 -10 -11 -10z" />
    <glyph glyph-name="Ubreve" unicode="&#x16c;" horiz-adv-x="607" 
d="M273 -10c-138 0 -209 78 -180 242l77 438c1 6 5 10 11 10h9c6 0 9 -4 8 -10l-77 -439c-25 -144 28 -215 154 -215c120 0 187 58 215 215l77 439c1 6 5 10 11 10h9c6 0 9 -4 8 -10l-77 -438c-30 -172 -105 -242 -245 -242zM409 776c-58 0 -93 37 -95 93c0 6 4 10 10 10h4
c7 0 10 -4 10 -10c3 -44 29 -69 74 -69c44 0 79 28 97 69c3 6 6 10 13 10h5c6 0 9 -4 7 -10c-20 -56 -67 -93 -125 -93z" />
    <glyph glyph-name="Uring" unicode="&#x16e;" horiz-adv-x="607" 
d="M273 -10c-138 0 -209 78 -180 242l77 438c1 6 5 10 11 10h9c6 0 9 -4 8 -10l-77 -439c-25 -144 28 -215 154 -215c120 0 187 58 215 215l77 439c1 6 5 10 11 10h9c6 0 9 -4 8 -10l-77 -438c-30 -172 -105 -242 -245 -242zM402 748c-39 0 -66 29 -66 67c0 53 40 95 95 95
c39 0 66 -29 66 -67c0 -53 -40 -95 -95 -95zM407 770c36 0 66 31 66 70c0 28 -17 48 -47 48c-36 0 -66 -31 -66 -70c0 -28 17 -48 47 -48z" />
    <glyph glyph-name="Uhungarumlaut" unicode="&#x170;" horiz-adv-x="607" 
d="M273 -10c-138 0 -209 78 -180 242l77 438c1 6 5 10 11 10h9c6 0 9 -4 8 -10l-77 -439c-25 -144 28 -215 154 -215c120 0 187 58 215 215l77 439c1 6 5 10 11 10h9c6 0 9 -4 8 -10l-77 -438c-30 -172 -105 -242 -245 -242zM449 766h-6c-5 0 -9 4 -4 10l83 102
c6 7 10 10 18 10h9c6 0 8 -5 4 -10l-90 -104c-5 -6 -8 -8 -14 -8zM345 766h-6c-5 0 -9 4 -4 10l83 102c6 7 10 10 18 10h9c6 0 8 -5 4 -10l-90 -104c-5 -6 -8 -8 -14 -8z" />
    <glyph glyph-name="Uogonek" unicode="&#x172;" horiz-adv-x="607" 
d="M239 -161c-28 0 -47 18 -47 46c0 33 19 60 65 106c-127 6 -192 83 -164 241l77 438c1 6 5 10 11 10h9c6 0 9 -4 8 -10l-77 -439c-25 -144 28 -215 154 -215c120 0 187 58 215 215l77 439c1 6 5 10 11 10h9c6 0 9 -4 8 -10l-77 -438c-29 -166 -99 -236 -229 -241
c-56 -55 -70 -79 -70 -102c0 -16 10 -25 26 -25c12 0 20 4 31 11c4 3 9 2 11 -2l3 -6c2 -5 0 -8 -6 -13c-9 -7 -25 -15 -45 -15z" />
    <glyph glyph-name="Wcircumflex" unicode="&#x174;" horiz-adv-x="783" 
d="M539 0h-8c-6 0 -9 3 -10 10l-58 610h-2l-274 -610c-3 -7 -7 -10 -14 -10h-8c-6 0 -9 3 -10 10l-36 659c0 7 3 11 10 11h7c8 0 11 -4 11 -11l33 -609h2l271 610c3 7 7 10 14 10h8c7 0 10 -3 11 -10l57 -610h2l247 610c3 7 6 10 15 10h8c7 0 10 -4 7 -11l-269 -659
c-3 -7 -7 -10 -14 -10zM591 756h-4c-7 0 -10 2 -14 9l-56 104h-2l-94 -104c-6 -7 -10 -9 -17 -9h-5c-5 0 -7 5 -2 10l103 120c6 7 10 9 16 9h5c6 0 9 -3 12 -9l62 -120c3 -5 1 -10 -4 -10z" />
    <glyph glyph-name="Wacute" unicode="&#x1e82;" horiz-adv-x="783" 
d="M539 0h-8c-6 0 -9 3 -10 10l-58 610h-2l-274 -610c-3 -7 -7 -10 -14 -10h-8c-6 0 -9 3 -10 10l-36 659c0 7 3 11 10 11h7c8 0 11 -4 11 -11l33 -609h2l271 610c3 7 7 10 14 10h8c7 0 10 -3 11 -10l57 -610h2l247 610c3 7 6 10 15 10h8c7 0 10 -4 7 -11l-269 -659
c-3 -7 -7 -10 -14 -10zM500 766h-5c-6 0 -7 5 -1 11l91 101c7 8 11 10 19 10h11c6 0 8 -5 3 -10l-99 -102c-8 -8 -11 -10 -19 -10z" />
    <glyph glyph-name="Wdieresis" unicode="&#x1e84;" horiz-adv-x="783" 
d="M539 0h-8c-6 0 -9 3 -10 10l-58 610h-2l-274 -610c-3 -7 -7 -10 -14 -10h-8c-6 0 -9 3 -10 10l-36 659c0 7 3 11 10 11h7c8 0 11 -4 11 -11l33 -609h2l271 610c3 7 7 10 14 10h8c7 0 10 -3 11 -10l57 -610h2l247 610c3 7 6 10 15 10h8c7 0 10 -4 7 -11l-269 -659
c-3 -7 -7 -10 -14 -10zM599 796h-22c-6 0 -9 4 -8 10l7 38c1 6 5 10 11 10h22c6 0 9 -4 8 -10l-7 -38c-1 -6 -5 -10 -11 -10zM406 796h-22c-6 0 -9 4 -8 10l7 38c1 6 5 10 11 10h22c6 0 9 -4 8 -10l-7 -38c-1 -6 -5 -10 -11 -10z" />
    <glyph glyph-name="Wgrave" unicode="&#x1e80;" horiz-adv-x="783" 
d="M539 0h-8c-6 0 -9 3 -10 10l-58 610h-2l-274 -610c-3 -7 -7 -10 -14 -10h-8c-6 0 -9 3 -10 10l-36 659c0 7 3 11 10 11h7c8 0 11 -4 11 -11l33 -609h2l271 610c3 7 7 10 14 10h8c7 0 10 -3 11 -10l57 -610h2l247 610c3 7 6 10 15 10h8c7 0 10 -4 7 -11l-269 -659
c-3 -7 -7 -10 -14 -10zM481 766h-3c-8 0 -10 1 -16 10l-64 102c-3 5 0 10 5 10h10c8 0 11 -3 15 -10l58 -102c4 -6 1 -10 -5 -10z" />
    <glyph glyph-name="Yacute" unicode="&#xdd;" horiz-adv-x="486" 
d="M208 0h-9c-6 0 -9 4 -8 10l47 270l-128 388c-2 7 1 12 8 12h6c8 0 11 -2 14 -10l118 -356h2l244 356c5 8 9 10 17 10h8c7 0 9 -6 5 -12l-266 -389l-47 -269c-1 -6 -5 -10 -11 -10zM335 766h-5c-6 0 -7 5 -1 11l91 101c7 8 11 10 19 10h11c6 0 8 -5 3 -10l-99 -102
c-8 -8 -11 -10 -19 -10z" />
    <glyph glyph-name="Ycircumflex" unicode="&#x176;" horiz-adv-x="486" 
d="M208 0h-9c-6 0 -9 4 -8 10l47 270l-128 388c-2 7 1 12 8 12h6c8 0 11 -2 14 -10l118 -356h2l244 356c5 8 9 10 17 10h8c7 0 9 -6 5 -12l-266 -389l-47 -269c-1 -6 -5 -10 -11 -10zM436 756h-4c-7 0 -10 2 -14 9l-56 104h-2l-94 -104c-6 -7 -10 -9 -17 -9h-5
c-5 0 -7 5 -2 10l103 120c6 7 10 9 16 9h5c6 0 9 -3 12 -9l62 -120c3 -5 1 -10 -4 -10z" />
    <glyph glyph-name="Ydieresis" unicode="&#x178;" horiz-adv-x="486" 
d="M208 0h-9c-6 0 -9 4 -8 10l47 270l-128 388c-2 7 1 12 8 12h6c8 0 11 -2 14 -10l118 -356h2l244 356c5 8 9 10 17 10h8c7 0 9 -6 5 -12l-266 -389l-47 -269c-1 -6 -5 -10 -11 -10zM454 796h-22c-6 0 -9 4 -8 10l7 38c1 6 5 10 11 10h22c6 0 9 -4 8 -10l-7 -38
c-1 -6 -5 -10 -11 -10zM261 796h-22c-6 0 -9 4 -8 10l7 38c1 6 5 10 11 10h22c6 0 9 -4 8 -10l-7 -38c-1 -6 -5 -10 -11 -10z" />
    <glyph glyph-name="Ygrave" unicode="&#x1ef2;" horiz-adv-x="486" 
d="M208 0h-9c-6 0 -9 4 -8 10l47 270l-128 388c-2 7 1 12 8 12h6c8 0 11 -2 14 -10l118 -356h2l244 356c5 8 9 10 17 10h8c7 0 9 -6 5 -12l-266 -389l-47 -269c-1 -6 -5 -10 -11 -10zM331 766h-3c-8 0 -10 1 -16 10l-64 102c-3 5 0 10 5 10h10c8 0 11 -3 15 -10l58 -102
c4 -6 1 -10 -5 -10z" />
    <glyph glyph-name="Zacute" unicode="&#x179;" horiz-adv-x="520" 
d="M416 0h-390c-6 0 -9 4 -8 10l1 7c1 5 3 9 8 15l480 621v1h-352c-6 0 -9 4 -8 10l1 6c1 6 5 10 11 10h377c6 0 9 -4 8 -10l-1 -7c-1 -5 -3 -9 -7 -14l-480 -622v-1h365c6 0 9 -4 8 -10l-1 -6c-1 -7 -6 -10 -12 -10zM340 766h-5c-6 0 -7 5 -1 11l91 101c7 8 11 10 19 10h11
c6 0 8 -5 3 -10l-99 -102c-8 -8 -11 -10 -19 -10z" />
    <glyph glyph-name="Zcaron" unicode="&#x17d;" horiz-adv-x="520" 
d="M416 0h-390c-6 0 -9 4 -8 10l1 7c1 5 3 9 8 15l480 621v1h-352c-6 0 -9 4 -8 10l1 6c1 6 5 10 11 10h377c6 0 9 -4 8 -10l-1 -7c-1 -5 -3 -9 -7 -14l-480 -622v-1h365c6 0 9 -4 8 -10l-1 -6c-1 -7 -6 -10 -12 -10zM359 756h-5c-6 0 -9 3 -12 9l-62 120c-3 5 -1 10 4 10h4
c7 0 10 -2 14 -9l56 -104h2l94 104c6 7 10 9 17 9h5c5 0 7 -5 2 -10l-103 -120c-6 -7 -10 -9 -16 -9z" />
    <glyph glyph-name="Zdotaccent" unicode="&#x17b;" horiz-adv-x="520" 
d="M416 0h-390c-6 0 -9 4 -8 10l1 7c1 5 3 9 8 15l480 621v1h-352c-6 0 -9 4 -8 10l1 6c1 6 5 10 11 10h377c6 0 9 -4 8 -10l-1 -7c-1 -5 -3 -9 -7 -14l-480 -622v-1h365c6 0 9 -4 8 -10l-1 -6c-1 -7 -6 -10 -12 -10zM376 796h-22c-6 0 -9 4 -8 10l7 38c1 6 5 10 11 10h22
c6 0 9 -4 8 -10l-7 -38c-1 -6 -5 -10 -11 -10z" />
    <glyph glyph-name="agrave" unicode="&#xe0;" horiz-adv-x="488" 
d="M349 0h-8c-6 0 -9 4 -8 10l10 56h-1c-24 -43 -80 -76 -160 -76c-85 0 -131 45 -131 113c0 104 67 159 194 159h126c4 0 6 2 7 6l12 64c16 93 -3 127 -103 127c-58 0 -99 -17 -127 -41c-6 -5 -11 -6 -15 -2l-6 6c-4 4 -3 9 1 13c34 31 85 49 151 49
c106 0 146 -39 126 -152l-57 -322c-1 -6 -5 -10 -11 -10zM189 15c85 0 155 54 167 126l16 90c1 4 -1 6 -4 6h-122c-120 0 -168 -52 -168 -132c0 -55 36 -90 111 -90zM315 560h-2c-8 0 -10 2 -15 10l-59 120c-3 5 1 10 7 10h9c8 0 10 -3 13 -10l54 -120c3 -6 -1 -10 -7 -10z
" />
    <glyph glyph-name="aacute" unicode="&#xe1;" horiz-adv-x="488" 
d="M349 0h-8c-6 0 -9 4 -8 10l10 56h-1c-24 -43 -80 -76 -160 -76c-85 0 -131 45 -131 113c0 104 67 159 194 159h126c4 0 6 2 7 6l12 64c16 93 -3 127 -103 127c-58 0 -99 -17 -127 -41c-6 -5 -11 -6 -15 -2l-6 6c-4 4 -3 9 1 13c34 31 85 49 151 49
c106 0 146 -39 126 -152l-57 -322c-1 -6 -5 -10 -11 -10zM189 15c85 0 155 54 167 126l16 90c1 4 -1 6 -4 6h-122c-120 0 -168 -52 -168 -132c0 -55 36 -90 111 -90zM300 560h-4c-6 0 -8 4 -3 10l94 120c5 6 10 10 18 10h11c6 0 8 -5 4 -10l-102 -120c-7 -8 -10 -10 -18 -10
z" />
    <glyph glyph-name="acircumflex" unicode="&#xe2;" horiz-adv-x="488" 
d="M349 0h-8c-6 0 -9 4 -8 10l10 56h-1c-24 -43 -80 -76 -160 -76c-85 0 -131 45 -131 113c0 104 67 159 194 159h126c4 0 6 2 7 6l12 64c16 93 -3 127 -103 127c-58 0 -99 -17 -127 -41c-6 -5 -11 -6 -15 -2l-6 6c-4 4 -3 9 1 13c34 31 85 49 151 49
c106 0 146 -39 126 -152l-57 -322c-1 -6 -5 -10 -11 -10zM189 15c85 0 155 54 167 126l16 90c1 4 -1 6 -4 6h-122c-120 0 -168 -52 -168 -132c0 -55 36 -90 111 -90zM414 561h-4c-7 0 -10 2 -14 9l-56 104h-2l-94 -104c-6 -7 -10 -9 -17 -9h-5c-5 0 -7 5 -2 10l103 120
c6 7 10 9 16 9h5c6 0 9 -3 12 -9l62 -120c3 -5 1 -10 -4 -10z" />
    <glyph glyph-name="atilde" unicode="&#xe3;" horiz-adv-x="488" 
d="M349 0h-8c-6 0 -9 4 -8 10l10 56h-1c-24 -43 -80 -76 -160 -76c-85 0 -131 45 -131 113c0 104 67 159 194 159h126c4 0 6 2 7 6l12 64c16 93 -3 127 -103 127c-58 0 -99 -17 -127 -41c-6 -5 -11 -6 -15 -2l-6 6c-4 4 -3 9 1 13c34 31 85 49 151 49
c106 0 146 -39 126 -152l-57 -322c-1 -6 -5 -10 -11 -10zM189 15c85 0 155 54 167 126l16 90c1 4 -1 6 -4 6h-122c-120 0 -168 -52 -168 -132c0 -55 36 -90 111 -90zM376 615c-21 0 -36 9 -51 21c-13 10 -25 18 -41 18c-19 0 -37 -13 -58 -34c-4 -4 -9 -2 -8 3l2 14
c1 5 2 8 9 14c17 16 38 26 60 26c21 0 36 -9 51 -21c13 -10 25 -18 41 -18c19 0 37 13 58 34c4 4 9 2 8 -3l-2 -14c-1 -5 -2 -8 -9 -14c-17 -16 -38 -26 -60 -26z" />
    <glyph glyph-name="adieresis" unicode="&#xe4;" horiz-adv-x="488" 
d="M349 0h-8c-6 0 -9 4 -8 10l10 56h-1c-24 -43 -80 -76 -160 -76c-85 0 -131 45 -131 113c0 104 67 159 194 159h126c4 0 6 2 7 6l12 64c16 93 -3 127 -103 127c-58 0 -99 -17 -127 -41c-6 -5 -11 -6 -15 -2l-6 6c-4 4 -3 9 1 13c34 31 85 49 151 49
c106 0 146 -39 126 -152l-57 -322c-1 -6 -5 -10 -11 -10zM189 15c85 0 155 54 167 126l16 90c1 4 -1 6 -4 6h-122c-120 0 -168 -52 -168 -132c0 -55 36 -90 111 -90zM437 622h-22c-6 0 -9 4 -8 10l7 38c1 6 5 10 11 10h22c6 0 9 -4 8 -10l-7 -38c-1 -6 -5 -10 -11 -10z
M244 622h-22c-6 0 -9 4 -8 10l7 38c1 6 5 10 11 10h22c6 0 9 -4 8 -10l-7 -38c-1 -6 -5 -10 -11 -10z" />
    <glyph glyph-name="amacron" unicode="&#x101;" horiz-adv-x="488" 
d="M349 0h-8c-6 0 -9 4 -8 10l10 56h-1c-24 -43 -80 -76 -160 -76c-85 0 -131 45 -131 113c0 104 67 159 194 159h126c4 0 6 2 7 6l12 64c16 93 -3 127 -103 127c-58 0 -99 -17 -127 -41c-6 -5 -11 -6 -15 -2l-6 6c-4 4 -3 9 1 13c34 31 85 49 151 49
c106 0 146 -39 126 -152l-57 -322c-1 -6 -5 -10 -11 -10zM189 15c85 0 155 54 167 126l16 90c1 4 -1 6 -4 6h-122c-120 0 -168 -52 -168 -132c0 -55 36 -90 111 -90zM444 637h-225c-6 0 -9 4 -8 10l1 5c1 7 5 10 11 10h225c6 0 9 -4 8 -10l-1 -5c-1 -7 -5 -10 -11 -10z" />
    <glyph glyph-name="abreve" unicode="&#x103;" horiz-adv-x="488" 
d="M349 0h-8c-6 0 -9 4 -8 10l10 56h-1c-24 -43 -80 -76 -160 -76c-85 0 -131 45 -131 113c0 104 67 159 194 159h126c4 0 6 2 7 6l12 64c16 93 -3 127 -103 127c-58 0 -99 -17 -127 -41c-6 -5 -11 -6 -15 -2l-6 6c-4 4 -3 9 1 13c34 31 85 49 151 49
c106 0 146 -39 126 -152l-57 -322c-1 -6 -5 -10 -11 -10zM189 15c85 0 155 54 167 126l16 90c1 4 -1 6 -4 6h-122c-120 0 -168 -52 -168 -132c0 -55 36 -90 111 -90zM323 580c-58 0 -93 37 -95 93c0 6 4 10 10 10h4c7 0 10 -4 10 -10c3 -44 29 -69 74 -69c44 0 79 28 97 69
c3 6 6 10 13 10h5c6 0 9 -4 7 -10c-20 -56 -67 -93 -125 -93z" />
    <glyph glyph-name="aring" unicode="&#xe5;" horiz-adv-x="488" 
d="M349 0h-8c-6 0 -9 4 -8 10l10 56h-1c-24 -43 -80 -76 -160 -76c-85 0 -131 45 -131 113c0 104 67 159 194 159h126c4 0 6 2 7 6l12 64c16 93 -3 127 -103 127c-58 0 -99 -17 -127 -41c-6 -5 -11 -6 -15 -2l-6 6c-4 4 -3 9 1 13c34 31 85 49 151 49
c106 0 146 -39 126 -152l-57 -322c-1 -6 -5 -10 -11 -10zM189 15c85 0 155 54 167 126l16 90c1 4 -1 6 -4 6h-122c-120 0 -168 -52 -168 -132c0 -55 36 -90 111 -90zM315 548c-39 0 -66 29 -66 67c0 53 40 95 95 95c39 0 66 -29 66 -67c0 -53 -40 -95 -95 -95zM320 570
c36 0 66 31 66 70c0 28 -17 48 -47 48c-36 0 -66 -31 -66 -70c0 -28 17 -48 47 -48z" />
    <glyph glyph-name="aogonek" unicode="&#x105;" horiz-adv-x="488" 
d="M273 -161c-28 0 -47 18 -47 46c0 35 32 72 107 125l10 56h-1c-24 -43 -80 -76 -160 -76c-85 0 -131 45 -131 113c0 104 67 159 194 159h126c4 0 6 2 7 6l12 64c16 93 -3 127 -103 127c-58 0 -99 -17 -127 -41c-6 -5 -11 -6 -15 -2l-6 6c-4 4 -3 9 1 13
c34 31 85 49 151 49c106 0 146 -39 126 -152l-57 -322c-1 -5 -3 -7 -7 -10c-82 -60 -100 -86 -100 -111c0 -16 10 -25 26 -25c12 0 20 4 31 11c4 3 9 2 11 -2l3 -6c2 -5 0 -8 -6 -13c-9 -7 -25 -15 -45 -15zM189 15c85 0 155 54 167 126l16 90c1 4 -1 6 -4 6h-122
c-120 0 -168 -52 -168 -132c0 -55 36 -90 111 -90z" />
    <glyph glyph-name="ae" unicode="&#xe6;" horiz-adv-x="777" 
d="M509 -10c-86 0 -127 43 -141 102h-1c-39 -72 -103 -102 -185 -102c-85 0 -131 45 -131 113c0 104 67 159 194 159h126c4 0 6 2 7 6l12 64c16 93 -3 127 -103 127c-58 0 -99 -17 -127 -41c-6 -5 -11 -6 -15 -2l-6 6c-4 4 -3 9 1 13c34 31 85 49 151 49
c88 0 129 -27 130 -97h1c39 63 96 97 168 97c83 0 140 -51 140 -151c0 -22 -2 -46 -9 -86c-1 -6 -5 -10 -12 -10h-302c-4 0 -7 -2 -8 -6c-7 -36 -9 -59 -9 -89c0 -77 38 -127 121 -127c64 0 114 31 150 71c5 5 10 6 14 3l6 -5c4 -4 4 -9 -1 -14c-41 -48 -99 -80 -171 -80z
M410 262h281c4 0 6 2 7 6c4 22 6 44 6 61c0 86 -41 130 -116 130c-68 0 -125 -39 -158 -107c-11 -23 -19 -54 -25 -84c-1 -4 1 -6 5 -6zM189 15c85 0 155 54 167 126l16 90c1 4 -1 6 -4 6h-122c-120 0 -168 -52 -168 -132c0 -55 36 -90 111 -90z" />
    <glyph glyph-name="cacute" unicode="&#x107;" horiz-adv-x="450" 
d="M196 -10c-94 0 -141 58 -141 159c0 76 17 153 46 213c38 77 103 122 182 122c71 0 116 -35 133 -96c2 -6 1 -10 -5 -13l-7 -3c-5 -2 -10 -1 -12 5c-17 57 -52 82 -113 82c-57 0 -119 -38 -152 -105c-33 -68 -45 -152 -45 -199c0 -87 33 -140 118 -140c52 0 99 23 144 82
c3 4 9 6 14 2l5 -4c5 -4 4 -10 0 -15c-46 -60 -98 -90 -167 -90zM312 560h-4c-6 0 -8 4 -3 10l94 120c5 6 10 10 18 10h11c6 0 8 -5 4 -10l-102 -120c-7 -8 -10 -10 -18 -10z" />
    <glyph glyph-name="ccircumflex" unicode="&#x109;" horiz-adv-x="450" 
d="M196 -10c-94 0 -141 58 -141 159c0 76 17 153 46 213c38 77 103 122 182 122c71 0 116 -35 133 -96c2 -6 1 -10 -5 -13l-7 -3c-5 -2 -10 -1 -12 5c-17 57 -52 82 -113 82c-57 0 -119 -38 -152 -105c-33 -68 -45 -152 -45 -199c0 -87 33 -140 118 -140c52 0 99 23 144 82
c3 4 9 6 14 2l5 -4c5 -4 4 -10 0 -15c-46 -60 -98 -90 -167 -90zM401 561h-4c-7 0 -10 2 -14 9l-56 104h-2l-94 -104c-6 -7 -10 -9 -17 -9h-5c-5 0 -7 5 -2 10l103 120c6 7 10 9 16 9h5c6 0 9 -3 12 -9l62 -120c3 -5 1 -10 -4 -10z" />
    <glyph glyph-name="ccaron" unicode="&#x10d;" horiz-adv-x="450" 
d="M196 -10c-94 0 -141 58 -141 159c0 76 17 153 46 213c38 77 103 122 182 122c71 0 116 -35 133 -96c2 -6 1 -10 -5 -13l-7 -3c-5 -2 -10 -1 -12 5c-17 57 -52 82 -113 82c-57 0 -119 -38 -152 -105c-33 -68 -45 -152 -45 -199c0 -87 33 -140 118 -140c52 0 99 23 144 82
c3 4 9 6 14 2l5 -4c5 -4 4 -10 0 -15c-46 -60 -98 -90 -167 -90zM306 561h-5c-6 0 -9 3 -12 9l-62 120c-3 5 -1 10 4 10h4c7 0 10 -2 14 -9l56 -104h2l94 104c6 7 10 9 17 9h5c5 0 7 -5 2 -10l-103 -120c-6 -7 -10 -9 -16 -9z" />
    <glyph glyph-name="cdotaccent" unicode="&#x10b;" horiz-adv-x="450" 
d="M196 -10c-94 0 -141 58 -141 159c0 76 17 153 46 213c38 77 103 122 182 122c71 0 116 -35 133 -96c2 -6 1 -10 -5 -13l-7 -3c-5 -2 -10 -1 -12 5c-17 57 -52 82 -113 82c-57 0 -119 -38 -152 -105c-33 -68 -45 -152 -45 -199c0 -87 33 -140 118 -140c52 0 99 23 144 82
c3 4 9 6 14 2l5 -4c5 -4 4 -10 0 -15c-46 -60 -98 -90 -167 -90zM328 622h-22c-6 0 -9 4 -8 10l7 38c1 6 5 10 11 10h22c6 0 9 -4 8 -10l-7 -38c-1 -6 -5 -10 -11 -10z" />
    <glyph glyph-name="ccedilla" unicode="&#xe7;" horiz-adv-x="450" 
d="M120 -144h-8c-6 0 -9 4 -6 10l69 125c-80 8 -120 65 -120 158c0 76 17 153 46 213c38 77 103 122 182 122c71 0 116 -35 133 -96c2 -6 1 -10 -5 -13l-7 -3c-5 -2 -10 -1 -12 5c-17 57 -52 82 -113 82c-57 0 -119 -38 -152 -105c-33 -68 -45 -152 -45 -199
c0 -87 33 -140 118 -140c52 0 99 23 144 82c3 4 9 6 14 2l5 -4c5 -4 4 -10 0 -15c-45 -59 -96 -89 -163 -90l-63 -124c-4 -8 -8 -10 -17 -10z" />
    <glyph glyph-name="dcaron" unicode="&#x10f;" 
d="M357 0h-8c-6 0 -9 4 -8 10l12 67h-1c-31 -48 -81 -87 -159 -87c-92 0 -138 58 -138 153c0 83 29 188 49 228c36 75 92 113 173 113c73 0 115 -41 131 -92h1l48 278c1 6 5 10 11 10h8c6 0 9 -4 8 -10l-116 -660c-1 -6 -5 -10 -11 -10zM198 15c61 0 117 31 154 106
c14 28 41 157 41 215c0 71 -42 123 -118 123c-68 0 -117 -36 -147 -98c-29 -58 -46 -155 -46 -217c0 -75 30 -129 116 -129zM540 554c-5 0 -8 3 -7 9l19 107c1 6 5 10 11 10h10c6 0 9 -4 8 -10l-12 -64c-2 -10 -3 -13 -7 -22l-11 -21c-3 -6 -6 -9 -11 -9z" />
    <glyph glyph-name="dcroat" unicode="&#x111;" 
d="M357 0h-8c-6 0 -9 4 -8 10l12 67h-1c-31 -48 -81 -87 -159 -87c-92 0 -138 58 -138 153c0 83 29 188 49 228c36 75 92 113 173 113c73 0 115 -41 131 -92h1l30 175c1 4 -1 6 -5 6h-134c-6 0 -9 4 -8 10l1 5c1 6 6 9 12 9h133c4 0 6 2 7 6l12 67c1 6 5 10 11 10h8
c6 0 9 -4 8 -10l-12 -67c-1 -4 1 -6 5 -6h35c6 0 9 -4 8 -10l-1 -5c-1 -6 -6 -9 -12 -9h-34c-4 0 -6 -2 -7 -6l-98 -557c-1 -6 -5 -10 -11 -10zM198 15c61 0 117 31 154 106c14 28 41 157 41 215c0 71 -42 123 -118 123c-68 0 -117 -36 -147 -98c-29 -58 -46 -155 -46 -217
c0 -75 30 -129 116 -129z" />
    <glyph glyph-name="eth" unicode="&#xf0;" horiz-adv-x="480" 
d="M267 670l43 -72l96 29c7 2 12 -1 12 -6v-6c0 -6 -2 -10 -9 -12l-86 -26l54 -89c36 -60 53 -107 53 -165c0 -70 -27 -174 -48 -218c-38 -79 -101 -115 -181 -115c-99 0 -146 60 -146 157c0 76 27 178 48 222c38 79 99 115 179 115c39 0 65 -11 84 -27h1l-70 113l-98 -29
c-7 -2 -12 1 -12 6v6c0 6 2 10 9 12l88 26l-48 79c-3 5 -1 10 5 10h10c8 0 12 -4 16 -10zM205 15c67 0 120 33 155 104c17 35 43 136 43 201c0 89 -37 139 -123 139c-67 0 -120 -33 -155 -104c-17 -35 -43 -136 -43 -201c0 -89 36 -139 123 -139z" />
    <glyph glyph-name="egrave" unicode="&#xe8;" horiz-adv-x="469" 
d="M201 -10c-95 0 -146 56 -146 152c0 74 15 159 46 223c37 77 102 119 181 119c83 0 140 -51 140 -151c0 -22 -2 -46 -9 -86c-1 -6 -5 -10 -12 -10h-304c-4 0 -7 -2 -8 -6c-7 -36 -7 -59 -7 -89c0 -77 38 -127 121 -127c64 0 114 31 150 71c5 5 10 6 14 3l6 -5
c4 -4 4 -9 -1 -14c-41 -48 -99 -80 -171 -80zM102 262h281c4 0 6 2 7 6c4 22 6 44 6 61c0 86 -41 130 -116 130c-67 0 -122 -36 -155 -104c-11 -23 -22 -57 -28 -87c-1 -4 1 -6 5 -6zM293 560h-2c-8 0 -10 2 -15 10l-59 120c-3 5 1 10 7 10h9c8 0 10 -3 13 -10l54 -120
c3 -6 -1 -10 -7 -10z" />
    <glyph glyph-name="eacute" unicode="&#xe9;" horiz-adv-x="469" 
d="M201 -10c-95 0 -146 56 -146 152c0 74 15 159 46 223c37 77 102 119 181 119c83 0 140 -51 140 -151c0 -22 -2 -46 -9 -86c-1 -6 -5 -10 -12 -10h-304c-4 0 -7 -2 -8 -6c-7 -36 -7 -59 -7 -89c0 -77 38 -127 121 -127c64 0 114 31 150 71c5 5 10 6 14 3l6 -5
c4 -4 4 -9 -1 -14c-41 -48 -99 -80 -171 -80zM102 262h281c4 0 6 2 7 6c4 22 6 44 6 61c0 86 -41 130 -116 130c-67 0 -122 -36 -155 -104c-11 -23 -22 -57 -28 -87c-1 -4 1 -6 5 -6zM288 560h-4c-6 0 -8 4 -3 10l94 120c5 6 10 10 18 10h11c6 0 8 -5 4 -10l-102 -120
c-7 -8 -10 -10 -18 -10z" />
    <glyph glyph-name="ecircumflex" unicode="&#xea;" horiz-adv-x="469" 
d="M201 -10c-95 0 -146 56 -146 152c0 74 15 159 46 223c37 77 102 119 181 119c83 0 140 -51 140 -151c0 -22 -2 -46 -9 -86c-1 -6 -5 -10 -12 -10h-304c-4 0 -7 -2 -8 -6c-7 -36 -7 -59 -7 -89c0 -77 38 -127 121 -127c64 0 114 31 150 71c5 5 10 6 14 3l6 -5
c4 -4 4 -9 -1 -14c-41 -48 -99 -80 -171 -80zM102 262h281c4 0 6 2 7 6c4 22 6 44 6 61c0 86 -41 130 -116 130c-67 0 -122 -36 -155 -104c-11 -23 -22 -57 -28 -87c-1 -4 1 -6 5 -6zM394 561h-4c-7 0 -10 2 -14 9l-56 104h-2l-94 -104c-6 -7 -10 -9 -17 -9h-5
c-5 0 -7 5 -2 10l103 120c6 7 10 9 16 9h5c6 0 9 -3 12 -9l62 -120c3 -5 1 -10 -4 -10z" />
    <glyph glyph-name="ecaron" unicode="&#x11b;" horiz-adv-x="469" 
d="M201 -10c-95 0 -146 56 -146 152c0 74 15 159 46 223c37 77 102 119 181 119c83 0 140 -51 140 -151c0 -22 -2 -46 -9 -86c-1 -6 -5 -10 -12 -10h-304c-4 0 -7 -2 -8 -6c-7 -36 -7 -59 -7 -89c0 -77 38 -127 121 -127c64 0 114 31 150 71c5 5 10 6 14 3l6 -5
c4 -4 4 -9 -1 -14c-41 -48 -99 -80 -171 -80zM102 262h281c4 0 6 2 7 6c4 22 6 44 6 61c0 86 -41 130 -116 130c-67 0 -122 -36 -155 -104c-11 -23 -22 -57 -28 -87c-1 -4 1 -6 5 -6zM300 561h-5c-6 0 -9 3 -12 9l-62 120c-3 5 -1 10 4 10h4c7 0 10 -2 14 -9l56 -104h2
l94 104c6 7 10 9 17 9h5c5 0 7 -5 2 -10l-103 -120c-6 -7 -10 -9 -16 -9z" />
    <glyph glyph-name="edieresis" unicode="&#xeb;" horiz-adv-x="469" 
d="M201 -10c-95 0 -146 56 -146 152c0 74 15 159 46 223c37 77 102 119 181 119c83 0 140 -51 140 -151c0 -22 -2 -46 -9 -86c-1 -6 -5 -10 -12 -10h-304c-4 0 -7 -2 -8 -6c-7 -36 -7 -59 -7 -89c0 -77 38 -127 121 -127c64 0 114 31 150 71c5 5 10 6 14 3l6 -5
c4 -4 4 -9 -1 -14c-41 -48 -99 -80 -171 -80zM102 262h281c4 0 6 2 7 6c4 22 6 44 6 61c0 86 -41 130 -116 130c-67 0 -122 -36 -155 -104c-11 -23 -22 -57 -28 -87c-1 -4 1 -6 5 -6zM416 622h-22c-6 0 -9 4 -8 10l7 38c1 6 5 10 11 10h22c6 0 9 -4 8 -10l-7 -38
c-1 -6 -5 -10 -11 -10zM223 622h-22c-6 0 -9 4 -8 10l7 38c1 6 5 10 11 10h22c6 0 9 -4 8 -10l-7 -38c-1 -6 -5 -10 -11 -10z" />
    <glyph glyph-name="emacron" unicode="&#x113;" horiz-adv-x="469" 
d="M201 -10c-95 0 -146 56 -146 152c0 74 15 159 46 223c37 77 102 119 181 119c83 0 140 -51 140 -151c0 -22 -2 -46 -9 -86c-1 -6 -5 -10 -12 -10h-304c-4 0 -7 -2 -8 -6c-7 -36 -7 -59 -7 -89c0 -77 38 -127 121 -127c64 0 114 31 150 71c5 5 10 6 14 3l6 -5
c4 -4 4 -9 -1 -14c-41 -48 -99 -80 -171 -80zM102 262h281c4 0 6 2 7 6c4 22 6 44 6 61c0 86 -41 130 -116 130c-67 0 -122 -36 -155 -104c-11 -23 -22 -57 -28 -87c-1 -4 1 -6 5 -6zM423 637h-225c-6 0 -9 4 -8 10l1 5c1 7 5 10 11 10h225c6 0 9 -4 8 -10l-1 -5
c-1 -7 -5 -10 -11 -10z" />
    <glyph glyph-name="ebreve" unicode="&#x115;" horiz-adv-x="469" 
d="M201 -10c-95 0 -146 56 -146 152c0 74 15 159 46 223c37 77 102 119 181 119c83 0 140 -51 140 -151c0 -22 -2 -46 -9 -86c-1 -6 -5 -10 -12 -10h-304c-4 0 -7 -2 -8 -6c-7 -36 -7 -59 -7 -89c0 -77 38 -127 121 -127c64 0 114 31 150 71c5 5 10 6 14 3l6 -5
c4 -4 4 -9 -1 -14c-41 -48 -99 -80 -171 -80zM102 262h281c4 0 6 2 7 6c4 22 6 44 6 61c0 86 -41 130 -116 130c-67 0 -122 -36 -155 -104c-11 -23 -22 -57 -28 -87c-1 -4 1 -6 5 -6zM302 580c-58 0 -93 37 -95 93c0 6 4 10 10 10h4c7 0 10 -4 10 -10c3 -44 29 -69 74 -69
c44 0 79 28 97 69c3 6 6 10 13 10h5c6 0 9 -4 7 -10c-20 -56 -67 -93 -125 -93z" />
    <glyph glyph-name="edotaccent" unicode="&#x117;" horiz-adv-x="469" 
d="M201 -10c-95 0 -146 56 -146 152c0 74 15 159 46 223c37 77 102 119 181 119c83 0 140 -51 140 -151c0 -22 -2 -46 -9 -86c-1 -6 -5 -10 -12 -10h-304c-4 0 -7 -2 -8 -6c-7 -36 -7 -59 -7 -89c0 -77 38 -127 121 -127c64 0 114 31 150 71c5 5 10 6 14 3l6 -5
c4 -4 4 -9 -1 -14c-41 -48 -99 -80 -171 -80zM102 262h281c4 0 6 2 7 6c4 22 6 44 6 61c0 86 -41 130 -116 130c-67 0 -122 -36 -155 -104c-11 -23 -22 -57 -28 -87c-1 -4 1 -6 5 -6zM319 622h-22c-6 0 -9 4 -8 10l7 38c1 6 5 10 11 10h22c6 0 9 -4 8 -10l-7 -38
c-1 -6 -5 -10 -11 -10z" />
    <glyph glyph-name="eogonek" unicode="&#x119;" horiz-adv-x="469" 
d="M245 -161c-28 0 -47 18 -47 46s25 72 73 116c-21 -7 -45 -11 -70 -11c-95 0 -146 56 -146 152c0 74 15 159 46 223c37 77 102 119 181 119c83 0 140 -51 140 -151c0 -22 -2 -46 -9 -86c-1 -6 -5 -10 -12 -10h-304c-4 0 -7 -2 -8 -6c-7 -36 -7 -59 -7 -89
c0 -77 38 -127 121 -127c64 0 114 31 150 71c5 5 10 6 14 3l6 -5c4 -4 3 -9 -1 -14c-15 -17 -28 -29 -45 -41c-78 -73 -102 -116 -102 -140c0 -16 10 -25 26 -25c12 0 20 4 31 11c4 3 9 2 11 -2l3 -6c2 -5 0 -8 -6 -13c-9 -7 -25 -15 -45 -15zM102 262h281c4 0 6 2 7 6
c4 22 6 44 6 61c0 86 -41 130 -116 130c-67 0 -122 -36 -155 -104c-11 -23 -22 -57 -28 -87c-1 -4 1 -6 5 -6z" />
    <glyph glyph-name="gcircumflex" unicode="&#x11d;" horiz-adv-x="496" 
d="M162 -190c-55 0 -105 22 -132 72c-4 7 -1 12 4 14l7 3c6 2 9 1 13 -5c24 -37 58 -59 112 -59c85 0 147 49 167 169l12 70h-1c-32 -54 -79 -84 -153 -84c-89 0 -136 57 -136 147c0 65 18 169 50 234c37 76 93 113 170 113c72 0 112 -43 126 -92h1l12 72c1 6 6 10 12 10h7
c6 0 9 -4 8 -10l-82 -462c-26 -144 -98 -192 -197 -192zM196 15c54 0 110 26 144 95c24 49 46 178 46 226c0 69 -39 123 -113 123c-64 0 -113 -34 -144 -98c-31 -67 -47 -153 -47 -223c0 -73 34 -123 114 -123zM406 561h-4c-7 0 -10 2 -14 9l-56 104h-2l-94 -104
c-6 -7 -10 -9 -17 -9h-5c-5 0 -7 5 -2 10l103 120c6 7 10 9 16 9h5c6 0 9 -3 12 -9l62 -120c3 -5 1 -10 -4 -10z" />
    <glyph glyph-name="gbreve" unicode="&#x11f;" horiz-adv-x="496" 
d="M162 -190c-55 0 -105 22 -132 72c-4 7 -1 12 4 14l7 3c6 2 9 1 13 -5c24 -37 58 -59 112 -59c85 0 147 49 167 169l12 70h-1c-32 -54 -79 -84 -153 -84c-89 0 -136 57 -136 147c0 65 18 169 50 234c37 76 93 113 170 113c72 0 112 -43 126 -92h1l12 72c1 6 6 10 12 10h7
c6 0 9 -4 8 -10l-82 -462c-26 -144 -98 -192 -197 -192zM196 15c54 0 110 26 144 95c24 49 46 178 46 226c0 69 -39 123 -113 123c-64 0 -113 -34 -144 -98c-31 -67 -47 -153 -47 -223c0 -73 34 -123 114 -123zM314 580c-58 0 -93 37 -95 93c0 6 4 10 10 10h4
c7 0 10 -4 10 -10c3 -44 29 -69 74 -69c44 0 79 28 97 69c3 6 6 10 13 10h5c6 0 9 -4 7 -10c-20 -56 -67 -93 -125 -93z" />
    <glyph glyph-name="gdotaccent" unicode="&#x121;" horiz-adv-x="496" 
d="M162 -190c-55 0 -105 22 -132 72c-4 7 -1 12 4 14l7 3c6 2 9 1 13 -5c24 -37 58 -59 112 -59c85 0 147 49 167 169l12 70h-1c-32 -54 -79 -84 -153 -84c-89 0 -136 57 -136 147c0 65 18 169 50 234c37 76 93 113 170 113c72 0 112 -43 126 -92h1l12 72c1 6 6 10 12 10h7
c6 0 9 -4 8 -10l-82 -462c-26 -144 -98 -192 -197 -192zM196 15c54 0 110 26 144 95c24 49 46 178 46 226c0 69 -39 123 -113 123c-64 0 -113 -34 -144 -98c-31 -67 -47 -153 -47 -223c0 -73 34 -123 114 -123zM331 622h-22c-6 0 -9 4 -8 10l7 38c1 6 5 10 11 10h22
c6 0 9 -4 8 -10l-7 -38c-1 -6 -5 -10 -11 -10z" />
    <glyph glyph-name="gcommaaccent" unicode="&#x123;" horiz-adv-x="496" 
d="M162 -190c-55 0 -105 22 -132 72c-4 7 -1 12 4 14l7 3c6 2 9 1 13 -5c24 -37 58 -59 112 -59c85 0 147 49 167 169l12 70h-1c-32 -54 -79 -84 -153 -84c-89 0 -136 57 -136 147c0 65 18 169 50 234c37 76 93 113 170 113c72 0 112 -43 126 -92h1l12 72c1 6 6 10 12 10h7
c6 0 9 -4 8 -10l-82 -462c-26 -144 -98 -192 -197 -192zM196 15c54 0 110 26 144 95c24 49 46 178 46 226c0 69 -39 123 -113 123c-64 0 -113 -34 -144 -98c-31 -67 -47 -153 -47 -223c0 -73 34 -123 114 -123zM339 700c5 0 8 -3 7 -9l-19 -107c-1 -6 -5 -10 -11 -10h-10
c-6 0 -9 4 -8 10l12 64c2 10 3 13 7 22l11 21c3 6 6 9 11 9z" />
    <glyph glyph-name="hcircumflex" unicode="&#x125;" horiz-adv-x="516" 
d="M376 0h-9c-5 0 -8 4 -7 10l52 284c20 116 -15 165 -106 165c-71 0 -151 -57 -167 -148l-53 -301c-1 -6 -5 -10 -11 -10h-9c-5 0 -8 4 -7 10l116 660c1 6 5 10 11 10h8c6 0 9 -4 8 -10l-47 -270h1c34 53 91 84 155 84c103 0 151 -61 129 -183l-53 -291
c-1 -6 -5 -10 -11 -10zM444 756h-4c-7 0 -10 2 -14 9l-56 104h-2l-94 -104c-6 -7 -10 -9 -17 -9h-5c-5 0 -7 5 -2 10l103 120c6 7 10 9 16 9h5c6 0 9 -3 12 -9l62 -120c3 -5 1 -10 -4 -10z" />
    <glyph glyph-name="hbar" unicode="&#x127;" horiz-adv-x="516" 
d="M376 0h-9c-5 0 -8 4 -7 10l52 284c20 116 -15 165 -106 165c-71 0 -151 -57 -167 -148l-53 -301c-1 -6 -5 -10 -11 -10h-9c-5 0 -8 4 -7 10l98 557c1 4 -1 6 -5 6h-35c-6 0 -9 4 -8 10l1 5c1 6 6 9 12 9h34c4 0 6 2 7 6l12 67c1 6 5 10 11 10h8c6 0 9 -4 8 -10l-12 -67
c-1 -4 1 -6 5 -6h134c6 0 9 -4 8 -10l-1 -5c-1 -6 -6 -9 -12 -9h-133c-4 0 -6 -2 -7 -6l-29 -167h1c34 53 91 84 155 84c103 0 151 -61 129 -183l-53 -291c-1 -6 -5 -10 -11 -10z" />
    <glyph glyph-name="dotlessi" unicode="&#x131;" horiz-adv-x="221" 
d="M75 0h-8c-6 0 -9 4 -8 10l80 454c1 6 5 10 11 10h8c6 0 9 -4 8 -10l-80 -454c-1 -6 -5 -10 -11 -10z" />
    <glyph glyph-name="igrave" unicode="&#xec;" horiz-adv-x="221" 
d="M75 0h-8c-6 0 -9 4 -8 10l80 454c1 6 5 10 11 10h8c6 0 9 -4 8 -10l-80 -454c-1 -6 -5 -10 -11 -10zM164 560h-2c-8 0 -10 2 -15 10l-59 120c-3 5 1 10 7 10h9c8 0 10 -3 13 -10l54 -120c3 -6 -1 -10 -7 -10z" />
    <glyph glyph-name="iacute" unicode="&#xed;" horiz-adv-x="221" 
d="M75 0h-8c-6 0 -9 4 -8 10l80 454c1 6 5 10 11 10h8c6 0 9 -4 8 -10l-80 -454c-1 -6 -5 -10 -11 -10zM163 560h-4c-6 0 -8 4 -3 10l94 120c5 6 10 10 18 10h11c6 0 8 -5 4 -10l-102 -120c-7 -8 -10 -10 -18 -10z" />
    <glyph glyph-name="icircumflex" unicode="&#xee;" horiz-adv-x="221" 
d="M75 0h-8c-6 0 -9 4 -8 10l80 454c1 6 5 10 11 10h8c6 0 9 -4 8 -10l-80 -454c-1 -6 -5 -10 -11 -10zM264 561h-4c-7 0 -10 2 -14 9l-56 104h-2l-94 -104c-6 -7 -10 -9 -17 -9h-5c-5 0 -7 5 -2 10l103 120c6 7 10 9 16 9h5c6 0 9 -3 12 -9l62 -120c3 -5 1 -10 -4 -10z" />
    <glyph glyph-name="itilde" unicode="&#x129;" horiz-adv-x="221" 
d="M75 0h-8c-6 0 -9 4 -8 10l80 454c1 6 5 10 11 10h8c6 0 9 -4 8 -10l-80 -454c-1 -6 -5 -10 -11 -10zM213 615c-21 0 -36 9 -51 21c-13 10 -25 18 -41 18c-19 0 -37 -13 -58 -34c-4 -4 -9 -2 -8 3l2 14c1 5 2 8 9 14c17 16 38 26 60 26c21 0 36 -9 51 -21
c13 -10 25 -18 41 -18c19 0 37 13 58 34c4 4 9 2 8 -3l-2 -14c-1 -5 -2 -8 -9 -14c-17 -16 -38 -26 -60 -26z" />
    <glyph glyph-name="idieresis" unicode="&#xef;" horiz-adv-x="221" 
d="M75 0h-8c-6 0 -9 4 -8 10l80 454c1 6 5 10 11 10h8c6 0 9 -4 8 -10l-80 -454c-1 -6 -5 -10 -11 -10zM284 622h-22c-6 0 -9 4 -8 10l7 38c1 6 5 10 11 10h22c6 0 9 -4 8 -10l-7 -38c-1 -6 -5 -10 -11 -10zM91 622h-22c-6 0 -9 4 -8 10l7 38c1 6 5 10 11 10h22
c6 0 9 -4 8 -10l-7 -38c-1 -6 -5 -10 -11 -10z" />
    <glyph glyph-name="imacron" unicode="&#x12b;" horiz-adv-x="221" 
d="M75 0h-8c-6 0 -9 4 -8 10l80 454c1 6 5 10 11 10h8c6 0 9 -4 8 -10l-80 -454c-1 -6 -5 -10 -11 -10zM281 637h-225c-6 0 -9 4 -8 10l1 5c1 7 5 10 11 10h225c6 0 9 -4 8 -10l-1 -5c-1 -7 -5 -10 -11 -10z" />
    <glyph glyph-name="ibreve" unicode="&#x12d;" horiz-adv-x="221" 
d="M75 0h-8c-6 0 -9 4 -8 10l80 454c1 6 5 10 11 10h8c6 0 9 -4 8 -10l-80 -454c-1 -6 -5 -10 -11 -10zM173 580c-58 0 -93 37 -95 93c0 6 4 10 10 10h4c7 0 10 -4 10 -10c3 -44 29 -69 74 -69c44 0 79 28 97 69c3 6 6 10 13 10h5c6 0 9 -4 7 -10c-20 -56 -67 -93 -125 -93z
" />
    <glyph glyph-name="iogonek" unicode="&#x12f;" horiz-adv-x="221" 
d="M190 622h-20c-6 0 -9 4 -8 10l7 38c1 6 5 10 11 10h22c5 0 8 -4 7 -10l-7 -38c-1 -7 -5 -10 -12 -10zM21 -161c-28 0 -47 18 -47 46c0 30 18 59 85 123l80 456c1 6 5 10 11 10h8c6 0 9 -4 8 -10l-80 -454c-1 -4 -2 -6 -5 -9c-65 -65 -80 -90 -80 -112
c0 -16 10 -25 26 -25c12 0 20 4 31 11c4 3 9 2 11 -2l3 -6c2 -5 0 -8 -6 -13c-9 -7 -25 -15 -45 -15z" />
    <glyph glyph-name="dotlessj" unicode="&#x237;" horiz-adv-x="221" 
d="M-49 -180h-4c-6 0 -9 4 -8 10l1 5c1 7 6 10 12 10h3c58 0 78 15 90 84l94 535c1 6 5 10 11 10h8c6 0 9 -4 8 -10l-94 -535c-15 -86 -45 -109 -121 -109z" />
    <glyph glyph-name="jcircumflex" unicode="&#x135;" horiz-adv-x="221" 
d="M-49 -180h-4c-6 0 -9 4 -8 10l1 5c1 7 6 10 12 10h3c58 0 78 15 90 84l94 535c1 6 5 10 11 10h8c6 0 9 -4 8 -10l-94 -535c-15 -86 -45 -109 -121 -109zM264 561h-4c-7 0 -10 2 -14 9l-56 104h-2l-94 -104c-6 -7 -10 -9 -17 -9h-5c-5 0 -7 5 -2 10l103 120c6 7 10 9 16 9
h5c6 0 9 -3 12 -9l62 -120c3 -5 1 -10 -4 -10z" />
    <glyph glyph-name="kcommaaccent" unicode="&#x137;" horiz-adv-x="470" 
d="M379 0h-8c-7 0 -9 2 -13 10l-111 271l-138 -140l-23 -131c-1 -6 -5 -10 -11 -10h-9c-5 0 -8 4 -7 10l116 660c1 6 5 10 11 10h8c6 0 9 -4 8 -10l-86 -487l277 282c7 7 10 9 17 9h14c6 0 8 -5 3 -10l-160 -163l120 -291c2 -5 -2 -10 -8 -10zM187 -182c-5 0 -8 3 -7 9
l19 107c1 6 5 10 11 10h10c6 0 9 -4 8 -10l-12 -64c-2 -10 -3 -13 -7 -22l-11 -21c-3 -6 -6 -9 -11 -9z" />
    <glyph glyph-name="kgreenlandic" unicode="&#x138;" horiz-adv-x="470" 
d="M379 0h-8c-7 0 -9 2 -13 10l-111 271l-138 -140l-23 -131c-1 -6 -5 -10 -11 -10h-9c-5 0 -8 4 -7 10l80 454c1 6 5 10 11 10h8c6 0 9 -4 8 -10l-50 -281l277 282c7 7 10 9 17 9h14c6 0 8 -5 3 -10l-160 -163l120 -291c2 -5 -2 -10 -8 -10z" />
    <glyph glyph-name="lacute" unicode="&#x13a;" horiz-adv-x="237" 
d="M149 -2h-13c-57 0 -75 29 -63 97l105 575c1 6 5 10 11 10h8c6 0 9 -4 8 -10l-105 -575c-10 -55 1 -72 40 -72h14c6 0 9 -4 8 -10l-1 -5c-1 -7 -6 -10 -12 -10zM206 766h-5c-6 0 -7 5 -1 11l91 101c7 8 11 10 19 10h11c6 0 8 -5 3 -10l-99 -102c-8 -8 -11 -10 -19 -10z
" />
    <glyph glyph-name="lcaron" unicode="&#x13e;" horiz-adv-x="237" 
d="M149 -2h-13c-57 0 -75 29 -63 97l105 575c1 6 5 10 11 10h8c6 0 9 -4 8 -10l-105 -575c-10 -55 1 -72 40 -72h14c6 0 9 -4 8 -10l-1 -5c-1 -7 -6 -10 -12 -10zM260 554c-5 0 -8 3 -7 9l19 107c1 6 5 10 11 10h10c6 0 9 -4 8 -10l-12 -64c-2 -10 -3 -13 -7 -22l-11 -21
c-3 -6 -6 -9 -11 -9z" />
    <glyph glyph-name="lcommaaccent" unicode="&#x13c;" horiz-adv-x="237" 
d="M149 -2h-13c-57 0 -75 29 -63 97l105 575c1 6 5 10 11 10h8c6 0 9 -4 8 -10l-105 -575c-10 -55 1 -72 40 -72h14c6 0 9 -4 8 -10l-1 -5c-1 -7 -6 -10 -12 -10zM71 -182c-5 0 -8 3 -7 9l19 107c1 6 5 10 11 10h10c6 0 9 -4 8 -10l-12 -64c-2 -10 -3 -13 -7 -22l-11 -21
c-3 -6 -6 -9 -11 -9z" />
    <glyph glyph-name="lslash" unicode="&#x142;" horiz-adv-x="237" 
d="M149 -2h-13c-57 0 -75 29 -63 97l45 250l-43 -21c-7 -3 -11 0 -10 6l1 8c1 6 4 10 12 14l46 22l54 296c1 6 5 10 11 10h8c6 0 9 -4 8 -10l-52 -282l58 28c7 3 11 0 10 -6l-1 -8c-1 -6 -4 -10 -12 -14l-60 -29l-48 -264c-10 -55 1 -72 40 -72h14c6 0 9 -4 8 -10l-1 -5
c-1 -7 -6 -10 -12 -10z" />
    <glyph glyph-name="ldot" unicode="&#x140;" horiz-adv-x="237" 
d="M149 -2h-13c-57 0 -75 29 -63 97l105 575c1 6 5 10 11 10h8c6 0 9 -4 8 -10l-105 -575c-10 -55 1 -72 40 -72h14c6 0 9 -4 8 -10l-1 -5c-1 -7 -6 -10 -12 -10zM254 292h-25c-6 0 -9 4 -8 10l8 48c1 6 5 10 11 10h25c6 0 9 -4 8 -10l-8 -48c-1 -6 -5 -10 -11 -10z" />
    <glyph glyph-name="nacute" unicode="&#x144;" horiz-adv-x="516" 
d="M376 0h-9c-5 0 -8 4 -7 10l52 284c20 116 -15 165 -106 165c-71 0 -151 -57 -167 -148l-53 -301c-1 -6 -5 -10 -11 -10h-9c-5 0 -8 4 -7 10l80 454c1 6 5 10 11 10h8c6 0 9 -4 8 -10l-11 -64h1c34 53 91 84 155 84c103 0 151 -61 129 -183l-53 -291c-1 -6 -5 -10 -11 -10
zM294 560h-4c-6 0 -8 4 -3 10l94 120c5 6 10 10 18 10h11c6 0 8 -5 4 -10l-102 -120c-7 -8 -10 -10 -18 -10z" />
    <glyph glyph-name="ncaron" unicode="&#x148;" horiz-adv-x="516" 
d="M376 0h-9c-5 0 -8 4 -7 10l52 284c20 116 -15 165 -106 165c-71 0 -151 -57 -167 -148l-53 -301c-1 -6 -5 -10 -11 -10h-9c-5 0 -8 4 -7 10l80 454c1 6 5 10 11 10h8c6 0 9 -4 8 -10l-11 -64h1c34 53 91 84 155 84c103 0 151 -61 129 -183l-53 -291c-1 -6 -5 -10 -11 -10
zM319 561h-5c-6 0 -9 3 -12 9l-62 120c-3 5 -1 10 4 10h4c7 0 10 -2 14 -9l56 -104h2l94 104c6 7 10 9 17 9h5c5 0 7 -5 2 -10l-103 -120c-6 -7 -10 -9 -16 -9z" />
    <glyph glyph-name="ntilde" unicode="&#xf1;" horiz-adv-x="516" 
d="M376 0h-9c-5 0 -8 4 -7 10l52 284c20 116 -15 165 -106 165c-71 0 -151 -57 -167 -148l-53 -301c-1 -6 -5 -10 -11 -10h-9c-5 0 -8 4 -7 10l80 454c1 6 5 10 11 10h8c6 0 9 -4 8 -10l-11 -64h1c34 53 91 84 155 84c103 0 151 -61 129 -183l-53 -291c-1 -6 -5 -10 -11 -10
zM369 615c-21 0 -36 9 -51 21c-13 10 -25 18 -41 18c-19 0 -37 -13 -58 -34c-4 -4 -9 -2 -8 3l2 14c1 5 2 8 9 14c17 16 38 26 60 26c21 0 36 -9 51 -21c13 -10 25 -18 41 -18c19 0 37 13 58 34c4 4 9 2 8 -3l-2 -14c-1 -5 -2 -8 -9 -14c-17 -16 -38 -26 -60 -26z" />
    <glyph glyph-name="ncommaaccent" unicode="&#x146;" horiz-adv-x="516" 
d="M376 0h-9c-5 0 -8 4 -7 10l52 284c20 116 -15 165 -106 165c-71 0 -151 -57 -167 -148l-53 -301c-1 -6 -5 -10 -11 -10h-9c-5 0 -8 4 -7 10l80 454c1 6 5 10 11 10h8c6 0 9 -4 8 -10l-11 -64h1c34 53 91 84 155 84c103 0 151 -61 129 -183l-53 -291c-1 -6 -5 -10 -11 -10
zM195 -182c-5 0 -8 3 -7 9l19 107c1 6 5 10 11 10h10c6 0 9 -4 8 -10l-12 -64c-2 -10 -3 -13 -7 -22l-11 -21c-3 -6 -6 -9 -11 -9z" />
    <glyph glyph-name="eng" unicode="&#x14b;" horiz-adv-x="516" 
d="M253 -180h-3c-6 0 -9 4 -8 10l1 5c1 7 6 10 12 10h3c56 0 77 14 89 82l65 367c21 114 -15 165 -106 165c-76 0 -152 -62 -167 -148l-53 -301c-1 -6 -5 -10 -11 -10h-8c-6 0 -9 4 -8 10l80 454c1 6 5 10 11 10h8c6 0 9 -4 8 -10l-11 -64h1c33 51 87 84 155 84
c102 0 151 -60 129 -183l-67 -374c-15 -83 -43 -107 -120 -107z" />
    <glyph glyph-name="ograve" unicode="&#xf2;" horiz-adv-x="479" 
d="M201 -10c-99 0 -146 60 -146 157c0 76 27 178 48 222c38 79 101 115 181 115c99 0 146 -60 146 -157c0 -76 -27 -178 -48 -222c-38 -79 -101 -115 -181 -115zM205 15c67 0 120 33 155 104c17 35 43 136 43 201c0 89 -36 139 -123 139c-67 0 -120 -33 -155 -104
c-17 -35 -43 -136 -43 -201c0 -89 36 -139 123 -139zM304 560h-2c-8 0 -10 2 -15 10l-59 120c-3 5 1 10 7 10h9c8 0 10 -3 13 -10l54 -120c3 -6 -1 -10 -7 -10z" />
    <glyph glyph-name="oacute" unicode="&#xf3;" horiz-adv-x="479" 
d="M201 -10c-99 0 -146 60 -146 157c0 76 27 178 48 222c38 79 101 115 181 115c99 0 146 -60 146 -157c0 -76 -27 -178 -48 -222c-38 -79 -101 -115 -181 -115zM205 15c67 0 120 33 155 104c17 35 43 136 43 201c0 89 -36 139 -123 139c-67 0 -120 -33 -155 -104
c-17 -35 -43 -136 -43 -201c0 -89 36 -139 123 -139zM290 560h-4c-6 0 -8 4 -3 10l94 120c5 6 10 10 18 10h11c6 0 8 -5 4 -10l-102 -120c-7 -8 -10 -10 -18 -10z" />
    <glyph glyph-name="ocircumflex" unicode="&#xf4;" horiz-adv-x="479" 
d="M201 -10c-99 0 -146 60 -146 157c0 76 27 178 48 222c38 79 101 115 181 115c99 0 146 -60 146 -157c0 -76 -27 -178 -48 -222c-38 -79 -101 -115 -181 -115zM205 15c67 0 120 33 155 104c17 35 43 136 43 201c0 89 -36 139 -123 139c-67 0 -120 -33 -155 -104
c-17 -35 -43 -136 -43 -201c0 -89 36 -139 123 -139zM402 561h-4c-7 0 -10 2 -14 9l-56 104h-2l-94 -104c-6 -7 -10 -9 -17 -9h-5c-5 0 -7 5 -2 10l103 120c6 7 10 9 16 9h5c6 0 9 -3 12 -9l62 -120c3 -5 1 -10 -4 -10z" />
    <glyph glyph-name="otilde" unicode="&#xf5;" horiz-adv-x="479" 
d="M201 -10c-99 0 -146 60 -146 157c0 76 27 178 48 222c38 79 101 115 181 115c99 0 146 -60 146 -157c0 -76 -27 -178 -48 -222c-38 -79 -101 -115 -181 -115zM205 15c67 0 120 33 155 104c17 35 43 136 43 201c0 89 -36 139 -123 139c-67 0 -120 -33 -155 -104
c-17 -35 -43 -136 -43 -201c0 -89 36 -139 123 -139zM363 615c-21 0 -36 9 -51 21c-13 10 -25 18 -41 18c-19 0 -37 -13 -58 -34c-4 -4 -9 -2 -8 3l2 14c1 5 2 8 9 14c17 16 38 26 60 26c21 0 36 -9 51 -21c13 -10 25 -18 41 -18c19 0 37 13 58 34c4 4 9 2 8 -3l-2 -14
c-1 -5 -2 -8 -9 -14c-17 -16 -38 -26 -60 -26z" />
    <glyph glyph-name="odieresis" unicode="&#xf6;" horiz-adv-x="479" 
d="M201 -10c-99 0 -146 60 -146 157c0 76 27 178 48 222c38 79 101 115 181 115c99 0 146 -60 146 -157c0 -76 -27 -178 -48 -222c-38 -79 -101 -115 -181 -115zM205 15c67 0 120 33 155 104c17 35 43 136 43 201c0 89 -36 139 -123 139c-67 0 -120 -33 -155 -104
c-17 -35 -43 -136 -43 -201c0 -89 36 -139 123 -139zM424 622h-22c-6 0 -9 4 -8 10l7 38c1 6 5 10 11 10h22c6 0 9 -4 8 -10l-7 -38c-1 -6 -5 -10 -11 -10zM231 622h-22c-6 0 -9 4 -8 10l7 38c1 6 5 10 11 10h22c6 0 9 -4 8 -10l-7 -38c-1 -6 -5 -10 -11 -10z" />
    <glyph glyph-name="omacron" unicode="&#x14d;" horiz-adv-x="479" 
d="M201 -10c-99 0 -146 60 -146 157c0 76 27 178 48 222c38 79 101 115 181 115c99 0 146 -60 146 -157c0 -76 -27 -178 -48 -222c-38 -79 -101 -115 -181 -115zM205 15c67 0 120 33 155 104c17 35 43 136 43 201c0 89 -36 139 -123 139c-67 0 -120 -33 -155 -104
c-17 -35 -43 -136 -43 -201c0 -89 36 -139 123 -139zM431 637h-225c-6 0 -9 4 -8 10l1 5c1 7 5 10 11 10h225c6 0 9 -4 8 -10l-1 -5c-1 -7 -5 -10 -11 -10z" />
    <glyph glyph-name="obreve" unicode="&#x14f;" horiz-adv-x="479" 
d="M201 -10c-99 0 -146 60 -146 157c0 76 27 178 48 222c38 79 101 115 181 115c99 0 146 -60 146 -157c0 -76 -27 -178 -48 -222c-38 -79 -101 -115 -181 -115zM205 15c67 0 120 33 155 104c17 35 43 136 43 201c0 89 -36 139 -123 139c-67 0 -120 -33 -155 -104
c-17 -35 -43 -136 -43 -201c0 -89 36 -139 123 -139zM320 580c-58 0 -93 37 -95 93c0 6 4 10 10 10h4c7 0 10 -4 10 -10c3 -44 29 -69 74 -69c44 0 79 28 97 69c3 6 6 10 13 10h5c6 0 9 -4 7 -10c-20 -56 -67 -93 -125 -93z" />
    <glyph glyph-name="ohungarumlaut" unicode="&#x151;" horiz-adv-x="479" 
d="M201 -10c-99 0 -146 60 -146 157c0 76 27 178 48 222c38 79 101 115 181 115c99 0 146 -60 146 -157c0 -76 -27 -178 -48 -222c-38 -79 -101 -115 -181 -115zM205 15c67 0 120 33 155 104c17 35 43 136 43 201c0 89 -36 139 -123 139c-67 0 -120 -33 -155 -104
c-17 -35 -43 -136 -43 -201c0 -89 36 -139 123 -139zM361 561h-5c-5 0 -8 4 -4 10l86 119c5 7 9 10 17 10h9c6 0 8 -5 4 -10l-93 -121c-5 -6 -8 -8 -14 -8zM257 561h-5c-5 0 -8 4 -4 10l86 119c5 7 9 10 17 10h9c6 0 8 -5 4 -10l-93 -121c-5 -6 -8 -8 -14 -8z" />
    <glyph glyph-name="oslash" unicode="&#xf8;" horiz-adv-x="479" 
d="M32 -30h-8c-6 0 -7 5 -3 10l57 69c-16 26 -23 59 -23 98c0 76 27 178 48 222c38 79 101 115 181 115c49 0 85 -15 109 -42l42 52c6 8 10 10 16 10h8c6 0 7 -5 4 -10l-56 -70c15 -25 23 -58 23 -97c0 -76 -27 -178 -48 -222c-38 -79 -101 -115 -181 -115
c-50 0 -86 15 -110 42l-43 -52c-6 -8 -9 -10 -16 -10zM82 154c0 -32 4 -58 14 -80l279 347c-20 25 -51 38 -95 38c-67 0 -120 -33 -155 -104c-17 -35 -43 -136 -43 -201zM205 15c67 0 120 33 155 104c17 35 43 136 43 201c0 32 -5 59 -15 81l-279 -348c20 -25 51 -38 96 -38
z" />
    <glyph glyph-name="oe" unicode="&#x153;" horiz-adv-x="800" 
d="M532 -10c-86 0 -135 43 -143 128h-1c-35 -82 -98 -128 -187 -128c-99 0 -146 60 -146 157c0 76 27 178 48 222c38 79 101 115 181 115c85 0 133 -42 144 -128h1c37 88 108 128 184 128c83 0 140 -51 140 -151c0 -22 -2 -46 -9 -86c-1 -6 -5 -10 -12 -10h-302
c-4 0 -7 -2 -8 -6c-7 -36 -9 -59 -9 -89c0 -77 38 -127 121 -127c64 0 114 31 150 71c5 5 10 6 14 3l6 -5c4 -4 4 -9 -1 -14c-41 -48 -99 -80 -171 -80zM433 262h281c4 0 6 2 7 6c4 22 6 44 6 61c0 86 -41 130 -116 130c-67 0 -121 -36 -154 -104c-11 -23 -23 -57 -29 -87
c-1 -4 1 -6 5 -6zM205 15c67 0 120 33 155 104c17 35 43 136 43 201c0 89 -36 139 -123 139c-67 0 -120 -33 -155 -104c-17 -35 -43 -136 -43 -201c0 -89 36 -139 123 -139z" />
    <glyph glyph-name="racute" unicode="&#x155;" horiz-adv-x="370" 
d="M75 0h-8c-6 0 -9 4 -8 10l80 454c1 6 5 10 11 10h8c6 0 9 -4 8 -10l-12 -70h1c23 53 72 90 139 90c35 0 66 -13 86 -30c3 -3 3 -8 -1 -13l-5 -6c-4 -4 -10 -3 -14 0c-20 14 -42 24 -72 24c-89 0 -139 -93 -155 -183l-47 -266c-1 -6 -5 -10 -11 -10zM238 560h-4
c-6 0 -8 4 -3 10l94 120c5 6 10 10 18 10h11c6 0 8 -5 4 -10l-102 -120c-7 -8 -10 -10 -18 -10z" />
    <glyph glyph-name="rcaron" unicode="&#x159;" horiz-adv-x="370" 
d="M75 0h-8c-6 0 -9 4 -8 10l80 454c1 6 5 10 11 10h8c6 0 9 -4 8 -10l-12 -70h1c23 53 72 90 139 90c35 0 66 -13 86 -30c3 -3 3 -8 -1 -13l-5 -6c-4 -4 -10 -3 -14 0c-20 14 -42 24 -72 24c-89 0 -139 -93 -155 -183l-47 -266c-1 -6 -5 -10 -11 -10zM287 561h-5
c-6 0 -9 3 -12 9l-62 120c-3 5 -1 10 4 10h4c7 0 10 -2 14 -9l56 -104h2l94 104c6 7 10 9 17 9h5c5 0 7 -5 2 -10l-103 -120c-6 -7 -10 -9 -16 -9z" />
    <glyph glyph-name="rcommaaccent" unicode="&#x157;" horiz-adv-x="370" 
d="M75 0h-8c-6 0 -9 4 -8 10l80 454c1 6 5 10 11 10h8c6 0 9 -4 8 -10l-12 -70h1c23 53 72 90 139 90c35 0 66 -13 86 -30c3 -3 3 -8 -1 -13l-5 -6c-4 -4 -10 -3 -14 0c-20 14 -42 24 -72 24c-89 0 -139 -93 -155 -183l-47 -266c-1 -6 -5 -10 -11 -10zM33 -182
c-5 0 -8 3 -7 9l19 107c1 6 5 10 11 10h10c6 0 9 -4 8 -10l-12 -64c-2 -10 -3 -13 -7 -22l-11 -21c-3 -6 -6 -9 -11 -9z" />
    <glyph glyph-name="sacute" unicode="&#x15b;" horiz-adv-x="455" 
d="M192 -10c-77 0 -134 35 -162 63c-4 4 -3 9 1 13l6 5c4 4 10 3 13 0c33 -28 74 -56 144 -56c98 0 161 54 161 135c0 47 -24 70 -97 78l-44 5c-75 9 -115 42 -115 103c0 84 68 148 176 148c50 0 105 -20 136 -40c4 -3 4 -7 1 -12l-3 -5c-3 -5 -8 -7 -16 -3
c-28 16 -71 35 -121 35c-86 0 -146 -52 -146 -122c0 -47 29 -72 103 -80l44 -5c74 -8 109 -42 109 -99c0 -98 -75 -163 -190 -163zM288 560h-4c-6 0 -8 4 -3 10l94 120c5 6 10 10 18 10h11c6 0 8 -5 4 -10l-102 -120c-7 -8 -10 -10 -18 -10z" />
    <glyph glyph-name="scircumflex" unicode="&#x15d;" horiz-adv-x="455" 
d="M192 -10c-77 0 -134 35 -162 63c-4 4 -3 9 1 13l6 5c4 4 10 3 13 0c33 -28 74 -56 144 -56c98 0 161 54 161 135c0 47 -24 70 -97 78l-44 5c-75 9 -115 42 -115 103c0 84 68 148 176 148c50 0 105 -20 136 -40c4 -3 4 -7 1 -12l-3 -5c-3 -5 -8 -7 -16 -3
c-28 16 -71 35 -121 35c-86 0 -146 -52 -146 -122c0 -47 29 -72 103 -80l44 -5c74 -8 109 -42 109 -99c0 -98 -75 -163 -190 -163zM381 561h-4c-7 0 -10 2 -14 9l-56 104h-2l-94 -104c-6 -7 -10 -9 -17 -9h-5c-5 0 -7 5 -2 10l103 120c6 7 10 9 16 9h5c6 0 9 -3 12 -9
l62 -120c3 -5 1 -10 -4 -10z" />
    <glyph glyph-name="scaron" unicode="&#x161;" horiz-adv-x="455" 
d="M192 -10c-77 0 -134 35 -162 63c-4 4 -3 9 1 13l6 5c4 4 10 3 13 0c33 -28 74 -56 144 -56c98 0 161 54 161 135c0 47 -24 70 -97 78l-44 5c-75 9 -115 42 -115 103c0 84 68 148 176 148c50 0 105 -20 136 -40c4 -3 4 -7 1 -12l-3 -5c-3 -5 -8 -7 -16 -3
c-28 16 -71 35 -121 35c-86 0 -146 -52 -146 -122c0 -47 29 -72 103 -80l44 -5c74 -8 109 -42 109 -99c0 -98 -75 -163 -190 -163zM297 561h-5c-6 0 -9 3 -12 9l-62 120c-3 5 -1 10 4 10h4c7 0 10 -2 14 -9l56 -104h2l94 104c6 7 10 9 17 9h5c5 0 7 -5 2 -10l-103 -120
c-6 -7 -10 -9 -16 -9z" />
    <glyph glyph-name="scedilla" unicode="&#x15f;" horiz-adv-x="455" 
d="M133 -144h-8c-6 0 -9 4 -6 10l68 124c-74 2 -130 35 -157 63c-4 4 -3 9 1 13l6 5c4 4 10 3 13 0c33 -28 74 -56 144 -56c99 0 161 58 161 135c0 47 -24 70 -97 78l-44 5c-75 9 -115 42 -115 103c0 84 68 148 176 148c50 0 105 -20 136 -40c4 -3 4 -7 1 -12l-3 -5
c-3 -5 -8 -7 -16 -3c-28 16 -71 35 -121 35c-86 0 -146 -52 -146 -122c0 -47 29 -72 103 -80l44 -5c74 -8 109 -42 109 -99c0 -93 -66 -154 -169 -162l-63 -125c-4 -8 -8 -10 -17 -10z" />
    <glyph glyph-name="scommaaccent" unicode="&#x219;" horiz-adv-x="455" 
d="M192 -10c-77 0 -134 35 -162 63c-4 4 -3 9 1 13l6 5c4 4 10 3 13 0c33 -28 74 -56 144 -56c98 0 161 54 161 135c0 47 -24 70 -97 78l-44 5c-75 9 -115 42 -115 103c0 84 68 148 176 148c50 0 105 -20 136 -40c4 -3 4 -7 1 -12l-3 -5c-3 -5 -8 -7 -16 -3
c-28 16 -71 35 -121 35c-86 0 -146 -52 -146 -122c0 -47 29 -72 103 -80l44 -5c74 -8 109 -42 109 -99c0 -98 -75 -163 -190 -163zM157 -182c-5 0 -8 3 -7 9l19 107c1 6 5 10 11 10h10c6 0 9 -4 8 -10l-12 -64c-2 -10 -3 -13 -7 -22l-11 -21c-3 -6 -6 -9 -11 -9z" />
    <glyph glyph-name="germandbls" unicode="&#xdf;" horiz-adv-x="520" 
d="M237 -6h-8c-6 0 -9 4 -8 10l1 5c1 6 5 10 11 10h9c68 0 114 22 141 77c19 39 44 189 44 231c0 65 -36 91 -112 91h-11c-6 0 -9 4 -8 10l1 5c1 6 6 10 12 10h15c91 0 142 52 142 135c0 56 -39 87 -118 87c-104 0 -155 -48 -176 -167l-86 -488c-1 -6 -5 -10 -11 -10h-8
c-6 0 -9 4 -8 10l86 490c22 125 80 190 207 190c94 0 140 -43 140 -110c0 -63 -30 -131 -101 -149v-2c44 -16 62 -50 62 -98s-26 -202 -47 -245c-35 -71 -90 -92 -169 -92z" />
    <glyph glyph-name="tcaron" unicode="&#x165;" horiz-adv-x="289" 
d="M198 -2h-16c-79 0 -108 29 -92 122l62 323c1 4 -1 6 -5 6h-56c-6 0 -9 4 -8 10l1 5c1 7 6 10 12 10h56c4 0 6 2 7 6l24 140c1 6 5 10 11 10h8c6 0 9 -4 8 -10l-24 -140c-1 -4 1 -6 5 -6h95c6 0 9 -4 8 -10l-1 -5c-1 -7 -6 -10 -12 -10h-95c-4 0 -6 -2 -7 -6l-61 -319
c-15 -82 3 -101 69 -101h16c6 0 9 -4 8 -10l-1 -5c-1 -7 -6 -10 -12 -10zM314 554c-5 0 -8 3 -7 9l19 107c1 6 5 10 11 10h10c6 0 9 -4 8 -10l-12 -64c-2 -10 -3 -13 -7 -22l-11 -21c-3 -6 -6 -9 -11 -9z" />
    <glyph glyph-name="uni0163" unicode="&#x163;" horiz-adv-x="289" 
d="M198 -2h-16c-79 0 -108 29 -92 122l62 323c1 4 -1 6 -5 6h-56c-6 0 -9 4 -8 10l1 5c1 7 6 10 12 10h56c4 0 6 2 7 6l24 140c1 6 5 10 11 10h8c6 0 9 -4 8 -10l-24 -140c-1 -4 1 -6 5 -6h95c6 0 9 -4 8 -10l-1 -5c-1 -7 -6 -10 -12 -10h-95c-4 0 -6 -2 -7 -6l-61 -319
c-15 -82 3 -101 69 -101h16c6 0 9 -4 8 -10l-1 -5c-1 -7 -6 -10 -12 -10zM93 -182c-5 0 -8 3 -7 9l19 107c1 6 5 10 11 10h10c6 0 9 -4 8 -10l-12 -64c-2 -10 -3 -13 -7 -22l-11 -21c-3 -6 -6 -9 -11 -9z" />
    <glyph glyph-name="uni021B" unicode="&#x21b;" horiz-adv-x="289" 
d="M198 -2h-16c-79 0 -108 29 -92 122l62 323c1 4 -1 6 -5 6h-56c-6 0 -9 4 -8 10l1 5c1 7 6 10 12 10h56c4 0 6 2 7 6l24 140c1 6 5 10 11 10h8c6 0 9 -4 8 -10l-24 -140c-1 -4 1 -6 5 -6h95c6 0 9 -4 8 -10l-1 -5c-1 -7 -6 -10 -12 -10h-95c-4 0 -6 -2 -7 -6l-61 -319
c-15 -82 3 -101 69 -101h16c6 0 9 -4 8 -10l-1 -5c-1 -7 -6 -10 -12 -10zM93 -182c-5 0 -8 3 -7 9l19 107c1 6 5 10 11 10h10c6 0 9 -4 8 -10l-12 -64c-2 -10 -3 -13 -7 -22l-11 -21c-3 -6 -6 -9 -11 -9z" />
    <glyph glyph-name="tbar" unicode="&#x167;" horiz-adv-x="289" 
d="M198 -2h-16c-79 0 -110 29 -92 122l40 207c1 4 -1 6 -5 6h-45c-6 0 -9 4 -8 10l1 5c1 6 6 9 12 9h45c4 0 6 2 7 6l15 80c1 4 -1 6 -5 6h-56c-6 0 -9 4 -8 10l1 5c1 7 6 10 12 10h56c4 0 6 2 7 6l24 140c1 6 5 10 11 10h8c6 0 9 -4 8 -10l-24 -140c-1 -4 1 -6 5 -6h95
c6 0 9 -4 8 -10l-1 -5c-1 -7 -6 -10 -12 -10h-95c-4 0 -6 -2 -7 -6l-15 -80c-1 -4 1 -6 5 -6h84c6 0 9 -4 8 -10l-1 -5c-1 -6 -6 -9 -12 -9h-84c-4 0 -6 -2 -7 -6l-39 -203c-15 -82 3 -101 69 -101h16c6 0 9 -4 8 -10l-1 -5c-1 -7 -6 -10 -12 -10z" />
    <glyph glyph-name="thorn" unicode="&#xfe;" 
d="M230 -10c-73 0 -115 41 -131 92h-1l-44 -252c-1 -6 -5 -10 -11 -10h-8c-6 0 -9 4 -8 10l148 840c1 6 5 10 11 10h8c6 0 9 -4 8 -10l-48 -273h1c31 48 81 87 159 87c92 0 138 -58 138 -153c0 -83 -29 -188 -49 -228c-36 -75 -92 -113 -173 -113zM232 15
c68 0 117 36 147 98c29 58 46 155 46 217c0 75 -30 129 -116 129c-61 0 -117 -31 -154 -106c-14 -28 -41 -157 -41 -215c0 -71 42 -123 118 -123z" />
    <glyph glyph-name="ugrave" unicode="&#xf9;" horiz-adv-x="510" 
d="M143 474h9c5 0 8 -4 7 -10l-52 -284c-20 -116 14 -165 103 -165c69 0 149 57 165 148l53 301c1 6 5 10 11 10h9c5 0 8 -4 7 -10l-80 -454c-1 -6 -5 -10 -11 -10h-8c-6 0 -9 4 -8 10l11 64h-1c-34 -53 -91 -84 -153 -84c-101 0 -148 61 -126 183l53 291c1 6 5 10 11 10z
M323 560h-2c-8 0 -10 2 -15 10l-59 120c-3 5 1 10 7 10h9c8 0 10 -3 13 -10l54 -120c3 -6 -1 -10 -7 -10z" />
    <glyph glyph-name="uacute" unicode="&#xfa;" horiz-adv-x="510" 
d="M143 474h9c5 0 8 -4 7 -10l-52 -284c-20 -116 14 -165 103 -165c69 0 149 57 165 148l53 301c1 6 5 10 11 10h9c5 0 8 -4 7 -10l-80 -454c-1 -6 -5 -10 -11 -10h-8c-6 0 -9 4 -8 10l11 64h-1c-34 -53 -91 -84 -153 -84c-101 0 -148 61 -126 183l53 291c1 6 5 10 11 10z
M293 560h-4c-6 0 -8 4 -3 10l94 120c5 6 10 10 18 10h11c6 0 8 -5 4 -10l-102 -120c-7 -8 -10 -10 -18 -10z" />
    <glyph glyph-name="ucircumflex" unicode="&#xfb;" horiz-adv-x="510" 
d="M143 474h9c5 0 8 -4 7 -10l-52 -284c-20 -116 14 -165 103 -165c69 0 149 57 165 148l53 301c1 6 5 10 11 10h9c5 0 8 -4 7 -10l-80 -454c-1 -6 -5 -10 -11 -10h-8c-6 0 -9 4 -8 10l11 64h-1c-34 -53 -91 -84 -153 -84c-101 0 -148 61 -126 183l53 291c1 6 5 10 11 10z
M407 561h-4c-7 0 -10 2 -14 9l-56 104h-2l-94 -104c-6 -7 -10 -9 -17 -9h-5c-5 0 -7 5 -2 10l103 120c6 7 10 9 16 9h5c6 0 9 -3 12 -9l62 -120c3 -5 1 -10 -4 -10z" />
    <glyph glyph-name="utilde" unicode="&#x169;" horiz-adv-x="510" 
d="M143 474h9c5 0 8 -4 7 -10l-52 -284c-20 -116 14 -165 103 -165c69 0 149 57 165 148l53 301c1 6 5 10 11 10h9c5 0 8 -4 7 -10l-80 -454c-1 -6 -5 -10 -11 -10h-8c-6 0 -9 4 -8 10l11 64h-1c-34 -53 -91 -84 -153 -84c-101 0 -148 61 -126 183l53 291c1 6 5 10 11 10z
M364 615c-21 0 -36 9 -51 21c-13 10 -25 18 -41 18c-19 0 -37 -13 -58 -34c-4 -4 -9 -2 -8 3l2 14c1 5 2 8 9 14c17 16 38 26 60 26c21 0 36 -9 51 -21c13 -10 25 -18 41 -18c19 0 37 13 58 34c4 4 9 2 8 -3l-2 -14c-1 -5 -2 -8 -9 -14c-17 -16 -38 -26 -60 -26z" />
    <glyph glyph-name="udieresis" unicode="&#xfc;" horiz-adv-x="510" 
d="M143 474h9c5 0 8 -4 7 -10l-52 -284c-20 -116 14 -165 103 -165c69 0 149 57 165 148l53 301c1 6 5 10 11 10h9c5 0 8 -4 7 -10l-80 -454c-1 -6 -5 -10 -11 -10h-8c-6 0 -9 4 -8 10l11 64h-1c-34 -53 -91 -84 -153 -84c-101 0 -148 61 -126 183l53 291c1 6 5 10 11 10z
M427 622h-22c-6 0 -9 4 -8 10l7 38c1 6 5 10 11 10h22c6 0 9 -4 8 -10l-7 -38c-1 -6 -5 -10 -11 -10zM234 622h-22c-6 0 -9 4 -8 10l7 38c1 6 5 10 11 10h22c6 0 9 -4 8 -10l-7 -38c-1 -6 -5 -10 -11 -10z" />
    <glyph glyph-name="umacron" unicode="&#x16b;" horiz-adv-x="510" 
d="M143 474h9c5 0 8 -4 7 -10l-52 -284c-20 -116 14 -165 103 -165c69 0 149 57 165 148l53 301c1 6 5 10 11 10h9c5 0 8 -4 7 -10l-80 -454c-1 -6 -5 -10 -11 -10h-8c-6 0 -9 4 -8 10l11 64h-1c-34 -53 -91 -84 -153 -84c-101 0 -148 61 -126 183l53 291c1 6 5 10 11 10z
M432 637h-225c-6 0 -9 4 -8 10l1 5c1 7 5 10 11 10h225c6 0 9 -4 8 -10l-1 -5c-1 -7 -5 -10 -11 -10z" />
    <glyph glyph-name="ubreve" unicode="&#x16d;" horiz-adv-x="510" 
d="M143 474h9c5 0 8 -4 7 -10l-52 -284c-20 -116 14 -165 103 -165c69 0 149 57 165 148l53 301c1 6 5 10 11 10h9c5 0 8 -4 7 -10l-80 -454c-1 -6 -5 -10 -11 -10h-8c-6 0 -9 4 -8 10l11 64h-1c-34 -53 -91 -84 -153 -84c-101 0 -148 61 -126 183l53 291c1 6 5 10 11 10z
M311 580c-58 0 -93 37 -95 93c0 6 4 10 10 10h4c7 0 10 -4 10 -10c3 -44 29 -69 74 -69c44 0 79 28 97 69c3 6 6 10 13 10h5c6 0 9 -4 7 -10c-20 -56 -67 -93 -125 -93z" />
    <glyph glyph-name="uring" unicode="&#x16f;" horiz-adv-x="510" 
d="M143 474h9c5 0 8 -4 7 -10l-52 -284c-20 -116 14 -165 103 -165c69 0 149 57 165 148l53 301c1 6 5 10 11 10h9c5 0 8 -4 7 -10l-80 -454c-1 -6 -5 -10 -11 -10h-8c-6 0 -9 4 -8 10l11 64h-1c-34 -53 -91 -84 -153 -84c-101 0 -148 61 -126 183l53 291c1 6 5 10 11 10z
M309 548c-39 0 -66 29 -66 67c0 53 40 95 95 95c39 0 66 -29 66 -67c0 -53 -40 -95 -95 -95zM314 570c36 0 66 31 66 70c0 28 -17 48 -47 48c-36 0 -66 -31 -66 -70c0 -28 17 -48 47 -48z" />
    <glyph glyph-name="uhungarumlaut" unicode="&#x171;" horiz-adv-x="510" 
d="M143 474h9c5 0 8 -4 7 -10l-52 -284c-20 -116 14 -165 103 -165c69 0 149 57 165 148l53 301c1 6 5 10 11 10h9c5 0 8 -4 7 -10l-80 -454c-1 -6 -5 -10 -11 -10h-8c-6 0 -9 4 -8 10l11 64h-1c-34 -53 -91 -84 -153 -84c-101 0 -148 61 -126 183l53 291c1 6 5 10 11 10z
M360 561h-5c-5 0 -8 4 -4 10l86 119c5 7 9 10 17 10h9c6 0 8 -5 4 -10l-93 -121c-5 -6 -8 -8 -14 -8zM256 561h-5c-5 0 -8 4 -4 10l86 119c5 7 9 10 17 10h9c6 0 8 -5 4 -10l-93 -121c-5 -6 -8 -8 -14 -8z" />
    <glyph glyph-name="uogonek" unicode="&#x173;" horiz-adv-x="510" 
d="M291 -161c-28 0 -47 18 -47 46c0 39 26 68 104 124l11 65h-1c-34 -53 -91 -84 -153 -84c-101 0 -148 61 -126 183l53 291c1 6 5 10 11 10h9c5 0 8 -4 7 -10l-52 -284c-20 -116 14 -165 103 -165c69 0 149 57 165 148l53 301c1 6 5 10 11 10h9c5 0 8 -4 7 -10l-80 -454
c-1 -5 -3 -8 -7 -11c-82 -61 -97 -85 -97 -110c0 -16 10 -25 26 -25c12 0 20 4 31 11c4 3 9 2 11 -2l3 -6c2 -5 0 -8 -6 -13c-9 -7 -25 -15 -45 -15z" />
    <glyph glyph-name="wcircumflex" unicode="&#x175;" horiz-adv-x="699" 
d="M460 0h-6c-7 0 -9 3 -10 10l-59 421h-1l-208 -421c-4 -7 -7 -10 -14 -10h-6c-7 0 -9 3 -10 10l-61 454c-1 6 1 10 8 10h7c7 0 10 -2 11 -10l56 -416h1l205 416c3 7 7 10 13 10h7c7 0 10 -3 11 -10l61 -416h1l201 416c4 8 7 10 14 10h8c7 0 9 -4 6 -10l-222 -454
c-4 -8 -7 -10 -13 -10zM512 561h-4c-7 0 -10 2 -14 9l-56 104h-2l-94 -104c-6 -7 -10 -9 -17 -9h-5c-5 0 -7 5 -2 10l103 120c6 7 10 9 16 9h5c6 0 9 -3 12 -9l62 -120c3 -5 1 -10 -4 -10z" />
    <glyph glyph-name="wacute" unicode="&#x1e83;" horiz-adv-x="699" 
d="M460 0h-6c-7 0 -9 3 -10 10l-59 421h-1l-208 -421c-4 -7 -7 -10 -14 -10h-6c-7 0 -9 3 -10 10l-61 454c-1 6 1 10 8 10h7c7 0 10 -2 11 -10l56 -416h1l205 416c3 7 7 10 13 10h7c7 0 10 -3 11 -10l61 -416h1l201 416c4 8 7 10 14 10h8c7 0 9 -4 6 -10l-222 -454
c-4 -8 -7 -10 -13 -10zM418 560h-4c-6 0 -8 4 -3 10l94 120c5 6 10 10 18 10h11c6 0 8 -5 4 -10l-102 -120c-7 -8 -10 -10 -18 -10z" />
    <glyph glyph-name="wdieresis" unicode="&#x1e85;" horiz-adv-x="699" 
d="M460 0h-6c-7 0 -9 3 -10 10l-59 421h-1l-208 -421c-4 -7 -7 -10 -14 -10h-6c-7 0 -9 3 -10 10l-61 454c-1 6 1 10 8 10h7c7 0 10 -2 11 -10l56 -416h1l205 416c3 7 7 10 13 10h7c7 0 10 -3 11 -10l61 -416h1l201 416c4 8 7 10 14 10h8c7 0 9 -4 6 -10l-222 -454
c-4 -8 -7 -10 -13 -10zM534 622h-22c-6 0 -9 4 -8 10l7 38c1 6 5 10 11 10h22c6 0 9 -4 8 -10l-7 -38c-1 -6 -5 -10 -11 -10zM341 622h-22c-6 0 -9 4 -8 10l7 38c1 6 5 10 11 10h22c6 0 9 -4 8 -10l-7 -38c-1 -6 -5 -10 -11 -10z" />
    <glyph glyph-name="wgrave" unicode="&#x1e81;" horiz-adv-x="699" 
d="M460 0h-6c-7 0 -9 3 -10 10l-59 421h-1l-208 -421c-4 -7 -7 -10 -14 -10h-6c-7 0 -9 3 -10 10l-61 454c-1 6 1 10 8 10h7c7 0 10 -2 11 -10l56 -416h1l205 416c3 7 7 10 13 10h7c7 0 10 -3 11 -10l61 -416h1l201 416c4 8 7 10 14 10h8c7 0 9 -4 6 -10l-222 -454
c-4 -8 -7 -10 -13 -10zM400 560h-2c-8 0 -10 2 -15 10l-59 120c-3 5 1 10 7 10h9c8 0 10 -3 13 -10l54 -120c3 -6 -1 -10 -7 -10z" />
    <glyph glyph-name="yacute" unicode="&#xfd;" horiz-adv-x="441" 
d="M19 -180h-15c-6 0 -9 4 -8 10l1 5c1 7 6 10 12 10h16c41 0 66 20 114 109l29 53l-88 457c-1 6 1 10 8 10h8c7 0 10 -2 11 -10l80 -420h1l227 420c4 8 7 10 14 10h10c7 0 8 -4 5 -10l-282 -519c-58 -107 -92 -125 -143 -125zM264 560h-4c-6 0 -8 4 -3 10l94 120
c5 6 10 10 18 10h11c6 0 8 -5 4 -10l-102 -120c-7 -8 -10 -10 -18 -10z" />
    <glyph glyph-name="ycircumflex" unicode="&#x177;" horiz-adv-x="441" 
d="M19 -180h-15c-6 0 -9 4 -8 10l1 5c1 7 6 10 12 10h16c41 0 66 20 114 109l29 53l-88 457c-1 6 1 10 8 10h8c7 0 10 -2 11 -10l80 -420h1l227 420c4 8 7 10 14 10h10c7 0 8 -4 5 -10l-282 -519c-58 -107 -92 -125 -143 -125zM378 561h-4c-7 0 -10 2 -14 9l-56 104h-2
l-94 -104c-6 -7 -10 -9 -17 -9h-5c-5 0 -7 5 -2 10l103 120c6 7 10 9 16 9h5c6 0 9 -3 12 -9l62 -120c3 -5 1 -10 -4 -10z" />
    <glyph glyph-name="ydieresis" unicode="&#xff;" horiz-adv-x="441" 
d="M19 -180h-15c-6 0 -9 4 -8 10l1 5c1 7 6 10 12 10h16c41 0 66 20 114 109l29 53l-88 457c-1 6 1 10 8 10h8c7 0 10 -2 11 -10l80 -420h1l227 420c4 8 7 10 14 10h10c7 0 8 -4 5 -10l-282 -519c-58 -107 -92 -125 -143 -125zM400 622h-22c-6 0 -9 4 -8 10l7 38
c1 6 5 10 11 10h22c6 0 9 -4 8 -10l-7 -38c-1 -6 -5 -10 -11 -10zM207 622h-22c-6 0 -9 4 -8 10l7 38c1 6 5 10 11 10h22c6 0 9 -4 8 -10l-7 -38c-1 -6 -5 -10 -11 -10z" />
    <glyph glyph-name="ygrave" unicode="&#x1ef3;" horiz-adv-x="441" 
d="M19 -180h-15c-6 0 -9 4 -8 10l1 5c1 7 6 10 12 10h16c41 0 66 20 114 109l29 53l-88 457c-1 6 1 10 8 10h8c7 0 10 -2 11 -10l80 -420h1l227 420c4 8 7 10 14 10h10c7 0 8 -4 5 -10l-282 -519c-58 -107 -92 -125 -143 -125zM273 560h-2c-8 0 -10 2 -15 10l-59 120
c-3 5 1 10 7 10h9c8 0 10 -3 13 -10l54 -120c3 -6 -1 -10 -7 -10z" />
    <glyph glyph-name="zacute" unicode="&#x17a;" horiz-adv-x="440" 
d="M336 0h-308c-6 0 -9 4 -8 10l1 6c1 5 3 9 8 15l360 417v1h-270c-6 0 -9 4 -8 10l1 5c1 6 4 10 11 10h296c6 0 9 -4 8 -10l-1 -6c-1 -5 -4 -9 -9 -15l-360 -417v-1h283c6 0 9 -4 8 -10l-1 -5c-1 -6 -4 -10 -11 -10zM266 560h-4c-6 0 -8 4 -3 10l94 120c5 6 10 10 18 10h11
c6 0 8 -5 4 -10l-102 -120c-7 -8 -10 -10 -18 -10z" />
    <glyph glyph-name="zcaron" unicode="&#x17e;" horiz-adv-x="440" 
d="M336 0h-308c-6 0 -9 4 -8 10l1 6c1 5 3 9 8 15l360 417v1h-270c-6 0 -9 4 -8 10l1 5c1 6 4 10 11 10h296c6 0 9 -4 8 -10l-1 -6c-1 -5 -4 -9 -9 -15l-360 -417v-1h283c6 0 9 -4 8 -10l-1 -5c-1 -6 -4 -10 -11 -10zM285 561h-5c-6 0 -9 3 -12 9l-62 120c-3 5 -1 10 4 10h4
c7 0 10 -2 14 -9l56 -104h2l94 104c6 7 10 9 17 9h5c5 0 7 -5 2 -10l-103 -120c-6 -7 -10 -9 -16 -9z" />
    <glyph glyph-name="zdotaccent" unicode="&#x17c;" horiz-adv-x="440" 
d="M336 0h-308c-6 0 -9 4 -8 10l1 6c1 5 3 9 8 15l360 417v1h-270c-6 0 -9 4 -8 10l1 5c1 6 4 10 11 10h296c6 0 9 -4 8 -10l-1 -6c-1 -5 -4 -9 -9 -15l-360 -417v-1h283c6 0 9 -4 8 -10l-1 -5c-1 -6 -4 -10 -11 -10zM304 622h-22c-6 0 -9 4 -8 10l7 38c1 6 5 10 11 10h22
c6 0 9 -4 8 -10l-7 -38c-1 -6 -5 -10 -11 -10z" />
    <glyph glyph-name="f_i" unicode="&#xf001;" horiz-adv-x="507" 
d="M90 0h-9c-5 0 -8 4 -7 10l77 433c1 4 -1 6 -5 6h-56c-6 0 -9 4 -8 10l1 5c1 7 6 10 12 10h56c4 0 6 2 7 6l11 65c19 113 51 135 139 135h20c6 0 9 -4 8 -10l-1 -5c-1 -7 -6 -10 -12 -10h-17c-74 0 -93 -15 -109 -103l-13 -72c-1 -4 1 -6 5 -6h103c6 0 9 -4 8 -10l-1 -5
c-1 -7 -6 -10 -12 -10h-103c-3 0 -5 -1 -6 -6l-77 -433c-1 -6 -5 -10 -11 -10zM476 622h-20c-6 0 -9 4 -8 10l7 38c1 6 5 10 11 10h22c5 0 8 -4 7 -10l-7 -38c-1 -7 -5 -10 -12 -10zM361 0h-8c-6 0 -9 4 -8 10l80 454c1 6 5 10 11 10h8c6 0 9 -4 8 -10l-80 -454
c-1 -6 -5 -10 -11 -10z" />
    <glyph glyph-name="f_l" unicode="&#xf002;" horiz-adv-x="523" 
d="M90 0h-9c-5 0 -8 4 -7 10l77 433c1 4 -1 6 -5 6h-56c-6 0 -9 4 -8 10l1 5c1 7 6 10 12 10h56c4 0 6 2 7 6l11 65c19 113 51 135 139 135h20c6 0 9 -4 8 -10l-1 -5c-1 -7 -6 -10 -12 -10h-17c-74 0 -93 -15 -109 -103l-13 -72c-1 -4 1 -6 5 -6h103c6 0 9 -4 8 -10l-1 -5
c-1 -7 -6 -10 -12 -10h-103c-3 0 -5 -1 -6 -6l-77 -433c-1 -6 -5 -10 -11 -10zM435 -2h-13c-57 0 -75 29 -63 97l105 575c1 6 5 10 11 10h8c6 0 9 -4 8 -10l-105 -575c-10 -55 1 -72 40 -72h14c6 0 9 -4 8 -10l-1 -5c-1 -7 -6 -10 -12 -10z" />
    <glyph glyph-name="grave.cap" horiz-adv-x="401" 
d="M342 766h-3c-8 0 -10 1 -16 10l-64 102c-3 5 0 10 5 10h10c8 0 11 -3 15 -10l58 -102c4 -6 1 -10 -5 -10z" />
    <glyph glyph-name="acute" unicode="&#xb4;" horiz-adv-x="401" 
d="M214 560h-4c-6 0 -8 4 -3 10l94 120c5 6 10 10 18 10h11c6 0 8 -5 4 -10l-102 -120c-7 -8 -10 -10 -18 -10z" />
    <glyph glyph-name="acute.cap" horiz-adv-x="401" 
d="M248 766h-5c-6 0 -7 5 -1 11l91 101c7 8 11 10 19 10h11c6 0 8 -5 3 -10l-99 -102c-8 -8 -11 -10 -19 -10z" />
    <glyph glyph-name="circumflex" unicode="&#x2c6;" horiz-adv-x="401" 
d="M354 561h-4c-7 0 -10 2 -14 9l-56 104h-2l-94 -104c-6 -7 -10 -9 -17 -9h-5c-5 0 -7 5 -2 10l103 120c6 7 10 9 16 9h5c6 0 9 -3 12 -9l62 -120c3 -5 1 -10 -4 -10z" />
    <glyph glyph-name="circumflex.cap" horiz-adv-x="401" 
d="M388 756h-4c-7 0 -10 2 -14 9l-56 104h-2l-94 -104c-6 -7 -10 -9 -17 -9h-5c-5 0 -7 5 -2 10l103 120c6 7 10 9 16 9h5c6 0 9 -3 12 -9l62 -120c3 -5 1 -10 -4 -10z" />
    <glyph glyph-name="caron" unicode="&#x2c7;" horiz-adv-x="401" 
d="M260 561h-5c-6 0 -9 3 -12 9l-62 120c-3 5 -1 10 4 10h4c7 0 10 -2 14 -9l56 -104h2l94 104c6 7 10 9 17 9h5c5 0 7 -5 2 -10l-103 -120c-6 -7 -10 -9 -16 -9z" />
    <glyph glyph-name="caron.cap" horiz-adv-x="401" 
d="M294 756h-5c-6 0 -9 3 -12 9l-62 120c-3 5 -1 10 4 10h4c7 0 10 -2 14 -9l56 -104h2l94 104c6 7 10 9 17 9h5c5 0 7 -5 2 -10l-103 -120c-6 -7 -10 -9 -16 -9z" />
    <glyph glyph-name="caron.alt" horiz-adv-x="401" 
d="M253 554c-5 0 -8 3 -7 9l19 107c1 6 5 10 11 10h10c6 0 9 -4 8 -10l-12 -64c-2 -10 -3 -13 -7 -22l-11 -21c-3 -6 -6 -9 -11 -9z" />
    <glyph glyph-name="tilde" unicode="&#x2dc;" horiz-adv-x="401" 
d="M318 615c-21 0 -36 9 -51 21c-13 10 -25 18 -41 18c-19 0 -37 -13 -58 -34c-4 -4 -9 -2 -8 3l2 14c1 5 2 8 9 14c17 16 38 26 60 26c21 0 36 -9 51 -21c13 -10 25 -18 41 -18c19 0 37 13 58 34c4 4 9 2 8 -3l-2 -14c-1 -5 -2 -8 -9 -14c-17 -16 -38 -26 -60 -26z" />
    <glyph glyph-name="tilde.cap" horiz-adv-x="401" 
d="M351 796c-21 0 -36 9 -51 21c-13 10 -25 18 -41 18c-19 0 -37 -13 -58 -34c-4 -4 -9 -2 -8 3l2 14c1 5 2 8 9 14c17 16 38 26 60 26c21 0 36 -9 51 -21c13 -10 25 -18 41 -18c19 0 37 13 58 34c4 4 9 2 8 -3l-2 -14c-1 -5 -2 -8 -9 -14c-17 -16 -38 -26 -60 -26z" />
    <glyph glyph-name="dieresis" unicode="&#xa8;" horiz-adv-x="401" 
d="M379 622h-22c-6 0 -9 4 -8 10l7 38c1 6 5 10 11 10h22c6 0 9 -4 8 -10l-7 -38c-1 -6 -5 -10 -11 -10zM186 622h-22c-6 0 -9 4 -8 10l7 38c1 6 5 10 11 10h22c6 0 9 -4 8 -10l-7 -38c-1 -6 -5 -10 -11 -10z" />
    <glyph glyph-name="dieresis.cap" horiz-adv-x="401" 
d="M409 796h-22c-6 0 -9 4 -8 10l7 38c1 6 5 10 11 10h22c6 0 9 -4 8 -10l-7 -38c-1 -6 -5 -10 -11 -10zM216 796h-22c-6 0 -9 4 -8 10l7 38c1 6 5 10 11 10h22c6 0 9 -4 8 -10l-7 -38c-1 -6 -5 -10 -11 -10z" />
    <glyph glyph-name="macron" unicode="&#xaf;" horiz-adv-x="401" 
d="M386 637h-225c-6 0 -9 4 -8 10l1 5c1 7 5 10 11 10h225c6 0 9 -4 8 -10l-1 -5c-1 -7 -5 -10 -11 -10z" />
    <glyph glyph-name="macron.cap" horiz-adv-x="401" 
d="M417 812h-225c-6 0 -9 4 -8 10l1 5c1 7 5 10 11 10h225c6 0 9 -4 8 -10l-1 -5c-1 -7 -5 -10 -11 -10z" />
    <glyph glyph-name="uni02C9" unicode="&#x2c9;" horiz-adv-x="401" 
d="M417 812h-225c-6 0 -9 4 -8 10l1 5c1 7 5 10 11 10h225c6 0 9 -4 8 -10l-1 -5c-1 -7 -5 -10 -11 -10z" />
    <glyph glyph-name="breve" unicode="&#x2d8;" horiz-adv-x="401" 
d="M264 580c-58 0 -93 37 -95 93c0 6 4 10 10 10h4c7 0 10 -4 10 -10c3 -44 29 -69 74 -69c44 0 79 28 97 69c3 6 6 10 13 10h5c6 0 9 -4 7 -10c-20 -56 -67 -93 -125 -93z" />
    <glyph glyph-name="breve.cap" horiz-adv-x="401" 
d="M299 776c-58 0 -93 37 -95 93c0 6 4 10 10 10h4c7 0 10 -4 10 -10c3 -44 29 -69 74 -69c44 0 79 28 97 69c3 6 6 10 13 10h5c6 0 9 -4 7 -10c-20 -56 -67 -93 -125 -93z" />
    <glyph glyph-name="ring" unicode="&#x2da;" horiz-adv-x="401" 
d="M257 548c-39 0 -66 29 -66 67c0 53 40 95 95 95c39 0 66 -29 66 -67c0 -53 -40 -95 -95 -95zM262 570c36 0 66 31 66 70c0 28 -17 48 -47 48c-36 0 -66 -31 -66 -70c0 -28 17 -48 47 -48z" />
    <glyph glyph-name="ring.cap" horiz-adv-x="401" 
d="M293 748c-39 0 -66 29 -66 67c0 53 40 95 95 95c39 0 66 -29 66 -67c0 -53 -40 -95 -95 -95zM298 770c36 0 66 31 66 70c0 28 -17 48 -47 48c-36 0 -66 -31 -66 -70c0 -28 17 -48 47 -48z" />
    <glyph glyph-name="hungarumlaut" unicode="&#x2dd;" horiz-adv-x="401" 
d="M274 561h-5c-5 0 -8 4 -4 10l86 119c5 7 9 10 17 10h9c6 0 8 -5 4 -10l-93 -121c-5 -6 -8 -8 -14 -8zM170 561h-5c-5 0 -8 4 -4 10l86 119c5 7 9 10 17 10h9c6 0 8 -5 4 -10l-93 -121c-5 -6 -8 -8 -14 -8z" />
    <glyph glyph-name="hungarumlaut.cap" horiz-adv-x="401" 
d="M329 766h-6c-5 0 -9 4 -4 10l83 102c6 7 10 10 18 10h9c6 0 8 -5 4 -10l-90 -104c-5 -6 -8 -8 -14 -8zM225 766h-6c-5 0 -9 4 -4 10l83 102c6 7 10 10 18 10h9c6 0 8 -5 4 -10l-90 -104c-5 -6 -8 -8 -14 -8z" />
    <glyph glyph-name="dotaccent" unicode="&#x2d9;" horiz-adv-x="401" 
d="M282 622h-22c-6 0 -9 4 -8 10l7 38c1 6 5 10 11 10h22c6 0 9 -4 8 -10l-7 -38c-1 -6 -5 -10 -11 -10z" />
    <glyph glyph-name="dotaccent.cap" horiz-adv-x="401" 
d="M312 796h-22c-6 0 -9 4 -8 10l7 38c1 6 5 10 11 10h22c6 0 9 -4 8 -10l-7 -38c-1 -6 -5 -10 -11 -10z" />
    <glyph glyph-name="cedilla" unicode="&#xb8;" horiz-adv-x="401" 
d="M115 -144h-8c-6 0 -9 4 -6 10l74 134c4 7 7 10 14 10h5c6 0 9 -4 6 -10l-68 -134c-4 -8 -8 -10 -17 -10z" />
    <glyph glyph-name="ogonek" unicode="&#x2db;" horiz-adv-x="401" 
d="M134 -161c-28 0 -47 18 -47 46c0 35 22 65 92 115c10 7 16 10 23 10h10c6 0 7 -6 2 -10c-82 -60 -100 -86 -100 -111c0 -16 10 -25 26 -25c12 0 20 4 31 11c4 3 9 2 11 -2l3 -6c2 -5 0 -8 -6 -13c-9 -7 -25 -15 -45 -15z" />
    <glyph glyph-name="commaaccent" horiz-adv-x="401" 
d="M124 -182c-5 0 -8 3 -7 9l19 107c1 6 5 10 11 10h10c6 0 9 -4 8 -10l-12 -64c-2 -10 -3 -13 -7 -22l-11 -21c-3 -6 -6 -9 -11 -9z" />
    <glyph glyph-name="commaaccent.alt" horiz-adv-x="401" 
d="M290 700c5 0 8 -3 7 -9l-19 -107c-1 -6 -5 -10 -11 -10h-10c-6 0 -9 4 -8 10l12 64c2 10 3 13 7 22l11 21c3 6 6 9 11 9z" />
    <glyph glyph-name="ellipsis" unicode="&#x2026;" horiz-adv-x="585" 
d="M462 0h-25c-6 0 -9 4 -8 10l8 48c1 6 5 10 11 10h25c6 0 9 -4 8 -10l-8 -48c-1 -6 -5 -10 -11 -10zM267 0h-25c-6 0 -9 4 -8 10l8 48c1 6 5 10 11 10h25c6 0 9 -4 8 -10l-8 -48c-1 -6 -5 -10 -11 -10zM72 0h-25c-6 0 -9 4 -8 10l8 48c1 6 5 10 11 10h25c6 0 9 -4 8 -10
l-8 -48c-1 -6 -5 -10 -11 -10z" />
    <glyph glyph-name="uni00AD" unicode="&#xad;" horiz-adv-x="353" 
d="M300 255h-236c-6 0 -9 4 -8 10l1 6c1 6 5 8 11 8h236c6 0 9 -4 8 -10l-1 -6c-1 -6 -5 -8 -11 -8z" />
    <glyph glyph-name="exclamdown" unicode="&#xa1;" horiz-adv-x="237" 
d="M137 305c5 0 9 -4 8 -10l-85 -491c-1 -6 -5 -10 -11 -10h-10c-6 0 -9 4 -8 10l89 491c1 6 5 10 11 10h6zM185 464l-9 -48c-1 -6 -5 -10 -11 -10h-25c-6 0 -9 4 -8 10l8 48c2 6 6 10 12 10h25c6 0 9 -4 8 -10z" />
    <glyph glyph-name="questiondown" unicode="&#xbf;" horiz-adv-x="421" 
d="M241 309c6 0 9 -4 8 -10l-8 -40c-8 -42 -19 -69 -52 -104l-53 -56c-74 -78 -100 -124 -100 -180c0 -71 46 -110 110 -110c73 0 130 49 158 130c2 6 6 9 12 8l8 -2c5 -1 7 -5 5 -11c-29 -91 -96 -150 -187 -150c-84 0 -132 55 -132 133c0 60 30 116 96 186l53 57
c39 42 46 56 55 99l8 40c1 6 5 10 11 10h8zM282 464l-8 -48c-1 -6 -5 -10 -11 -10h-25c-6 0 -9 4 -8 10l8 48c1 6 5 10 11 10h25c6 0 9 -4 8 -10z" />
    <glyph glyph-name="quoteleft" unicode="&#x2018;" horiz-adv-x="192" 
d="M161 539h-19c-6 0 -8 4 -7 10l10 55c2 10 4 17 7 23l23 45c3 6 6 9 11 9s8 -3 7 -9l-21 -123c-1 -6 -5 -10 -11 -10z" />
    <glyph glyph-name="quoteright" unicode="&#x2019;" horiz-adv-x="192" 
d="M142 538c-5 0 -8 3 -7 9l21 123c1 6 5 10 11 10h19c6 0 8 -4 7 -10l-10 -55c-2 -10 -4 -17 -7 -23l-23 -45c-3 -6 -6 -9 -11 -9z" />
    <glyph glyph-name="quotedblleft" unicode="&#x201c;" horiz-adv-x="309" 
d="M278 539h-19c-6 0 -8 4 -7 10l10 55c2 10 4 17 7 23l23 45c3 6 6 9 11 9s8 -3 7 -9l-21 -123c-1 -6 -5 -10 -11 -10zM161 539h-19c-6 0 -8 4 -7 10l10 55c2 10 4 17 7 23l23 45c3 6 6 9 11 9s8 -3 7 -9l-21 -123c-1 -6 -5 -10 -11 -10z" />
    <glyph glyph-name="quotedblright" unicode="&#x201d;" horiz-adv-x="309" 
d="M259 538c-5 0 -8 3 -7 9l21 123c1 6 5 10 11 10h19c6 0 8 -4 7 -10l-10 -55c-2 -10 -4 -17 -7 -23l-23 -45c-3 -6 -6 -9 -11 -9zM142 538c-5 0 -8 3 -7 9l21 123c1 6 5 10 11 10h19c6 0 8 -4 7 -10l-10 -55c-2 -10 -4 -17 -7 -23l-23 -45c-3 -6 -6 -9 -11 -9z" />
    <glyph glyph-name="quotesinglbase" unicode="&#x201a;" horiz-adv-x="192" 
d="M33 -80c-5 0 -8 3 -7 9l21 123c1 6 5 10 11 10h19c6 0 8 -4 7 -10l-10 -55c-2 -10 -4 -17 -7 -23l-23 -45c-3 -6 -6 -9 -11 -9z" />
    <glyph glyph-name="quotedblbase" unicode="&#x201e;" horiz-adv-x="309" 
d="M150 -80c-5 0 -8 3 -7 9l21 123c1 6 5 10 11 10h19c6 0 8 -4 7 -10l-10 -55c-2 -10 -4 -17 -7 -23l-23 -45c-3 -6 -6 -9 -11 -9zM33 -80c-5 0 -8 3 -7 9l21 123c1 6 5 10 11 10h19c6 0 8 -4 7 -10l-10 -55c-2 -10 -4 -17 -7 -23l-23 -45c-3 -6 -6 -9 -11 -9z" />
    <glyph glyph-name="guilsinglleft" unicode="&#x2039;" horiz-adv-x="295" 
d="M183 98l-122 159c-4 5 -3 10 2 14l178 158c4 4 10 2 9 -4l-2 -15c-1 -7 -3 -11 -9 -17l-142 -127c-3 -3 -4 -5 -2 -8l96 -127c4 -5 5 -10 4 -17l-2 -13c-1 -6 -7 -7 -10 -3z" />
    <glyph glyph-name="guilsinglright" unicode="&#x203a;" horiz-adv-x="295" 
d="M66 98c-4 -4 -10 -2 -9 4l2 15c1 7 3 11 9 17l142 127c3 3 4 5 2 8l-96 127c-4 5 -5 10 -4 17l2 13c1 6 7 7 10 3l122 -159c4 -5 3 -10 -2 -14z" />
    <glyph glyph-name="guillemotleft" unicode="&#xab;" horiz-adv-x="477" 
d="M365 98l-122 159c-4 5 -3 10 2 14l178 158c4 4 10 2 9 -4l-2 -15c-1 -7 -3 -11 -9 -17l-142 -127c-3 -3 -4 -5 -2 -8l96 -127c4 -5 5 -10 4 -17l-2 -13c-1 -6 -7 -7 -10 -3zM183 98l-122 159c-4 5 -3 10 2 14l178 158c4 4 10 2 9 -4l-2 -15c-1 -7 -3 -11 -9 -17
l-142 -127c-3 -3 -4 -5 -2 -8l96 -127c4 -5 5 -10 4 -17l-2 -13c-1 -6 -7 -7 -10 -3z" />
    <glyph glyph-name="guillemotright" unicode="&#xbb;" horiz-adv-x="477" 
d="M248 98c-4 -4 -10 -2 -9 4l2 15c1 7 3 11 9 17l142 127c3 3 4 5 2 8l-96 127c-4 5 -5 10 -4 17l2 13c1 6 7 7 10 3l122 -159c4 -5 3 -10 -2 -14zM66 98c-4 -4 -10 -2 -9 4l2 15c1 7 3 11 9 17l142 127c3 3 4 5 2 8l-96 127c-4 5 -5 10 -4 17l2 13c1 6 7 7 10 3l122 -159
c4 -5 3 -10 -2 -14z" />
    <glyph glyph-name="endash" unicode="&#x2013;" horiz-adv-x="477" 
d="M443 255h-398c-6 0 -9 4 -8 10l1 6c1 6 5 8 11 8h398c6 0 9 -4 8 -10l-1 -6c-1 -6 -5 -8 -11 -8z" />
    <glyph glyph-name="emdash" unicode="&#x2014;" horiz-adv-x="780" 
d="M746 255h-701c-6 0 -9 4 -8 10l1 6c1 6 5 8 11 8h701c6 0 9 -4 8 -10l-1 -6c-1 -6 -5 -8 -11 -8z" />
    <glyph glyph-name="bullet" unicode="&#x2022;" horiz-adv-x="342" 
d="M188 204c-59 0 -104 45 -104 104s45 104 104 104s104 -45 104 -104s-45 -104 -104 -104z" />
    <glyph glyph-name="periodcentered" unicode="&#xb7;" horiz-adv-x="195" 
d="M112 232h-25c-6 0 -9 4 -8 10l8 48c1 6 5 10 11 10h25c6 0 9 -4 8 -10l-8 -48c-1 -6 -5 -10 -11 -10z" />
    <glyph glyph-name="uni2219" unicode="&#x2219;" horiz-adv-x="195" 
d="M112 232h-25c-6 0 -9 4 -8 10l8 48c1 6 5 10 11 10h25c6 0 9 -4 8 -10l-8 -48c-1 -6 -5 -10 -11 -10z" />
    <glyph glyph-name="dagger" unicode="&#x2020;" horiz-adv-x="390" 
d="M133 -180h-7c-6 0 -9 4 -8 10l98 556c1 4 -1 6 -4 6h-128c-6 0 -9 4 -8 10l1 6c1 6 5 8 11 8h127c4 0 6 2 7 6l44 248c1 7 5 10 11 10h7c6 0 9 -4 8 -10l-44 -248c-1 -4 1 -6 5 -6h127c6 0 9 -4 8 -10l-1 -6c-1 -6 -5 -8 -11 -8h-127c-4 0 -6 -2 -7 -6l-98 -556
c-1 -7 -5 -10 -11 -10z" />
    <glyph glyph-name="daggerdbl" unicode="&#x2021;" horiz-adv-x="390" 
d="M128 -180h-7c-6 0 -10 4 -8 10l39 222c1 4 -1 6 -4 6h-128c-6 0 -9 4 -8 10l1 6c1 6 5 8 11 8h127c4 0 6 2 7 6l58 327c1 4 -1 6 -4 6h-128c-6 0 -9 4 -8 10l1 6c1 6 5 8 11 8h127c4 0 6 2 7 6l39 219c1 7 5 10 11 10h7c6 0 9 -4 8 -10l-39 -219c-1 -4 1 -6 5 -6h127
c6 0 9 -4 8 -10l-1 -6c-1 -6 -5 -8 -11 -8h-127c-4 0 -6 -2 -7 -6l-58 -327c-1 -4 1 -6 5 -6h127c6 0 9 -4 8 -10l-1 -6c-1 -6 -5 -8 -11 -8h-127c-4 0 -6 -2 -7 -6l-39 -222c-2 -6 -5 -10 -11 -10z" />
    <glyph glyph-name="section" unicode="&#xa7;" horiz-adv-x="487" 
d="M171 -192c-93 0 -132 57 -119 150c1 6 3 11 9 12l9 1c7 1 9 -3 8 -8c-12 -76 10 -130 98 -130c80 0 138 58 138 146c0 57 -28 86 -121 104c-73 14 -104 59 -104 125c0 104 52 194 147 212v1c-45 18 -71 56 -71 102c0 92 55 169 164 169c76 0 122 -49 110 -133
c-1 -7 -4 -10 -10 -11l-8 -1c-7 -1 -9 3 -8 8c10 64 -16 112 -89 112c-82 0 -132 -60 -132 -139c0 -52 30 -85 113 -104c70 -15 104 -57 104 -126c0 -101 -49 -189 -141 -211v-1c47 -16 73 -52 73 -103c0 -101 -69 -175 -170 -175zM224 106c98 0 158 84 158 188
c0 68 -44 106 -108 106c-98 0 -158 -84 -158 -188c0 -68 44 -106 108 -106z" />
    <glyph glyph-name="paragraph" unicode="&#xb6;" horiz-adv-x="506" 
d="M328 -180h-8c-6 0 -9 4 -8 10l144 819c1 4 -1 6 -5 6h-105c-3 0 -5 -2 -6 -6l-144 -819c-1 -6 -5 -10 -11 -10h-8c-6 0 -9 4 -8 10l78 442c-99 6 -153 70 -153 160c0 142 104 248 250 248h135c6 0 9 -4 8 -10l-148 -840c-1 -6 -5 -10 -11 -10z" />
    <glyph glyph-name="brokenbar" unicode="&#xa6;" horiz-adv-x="241" 
d="M141 388h-7c-6 0 -10 4 -10 10v332c0 6 4 10 10 10h7c6 0 10 -4 10 -10v-332c0 -6 -4 -10 -10 -10zM141 -84h-7c-6 0 -10 4 -10 10v336c0 6 4 10 10 10h7c6 0 10 -4 10 -10v-336c0 -6 -4 -10 -10 -10z" />
    <glyph glyph-name="copyright" unicode="&#xa9;" horiz-adv-x="833" 
d="M437 -10c-199 0 -350 151 -350 350s151 350 350 350s350 -151 350 -350s-151 -350 -350 -350zM437 15c184 0 323 138 323 325s-139 325 -323 325c-185 0 -324 -138 -324 -325s139 -325 324 -325zM442 144c-66 0 -115 34 -136 99c-7 22 -11 46 -11 97s4 75 11 97
c21 65 70 99 136 99c64 0 108 -35 130 -77c3 -5 1 -10 -4 -12l-4 -2c-5 -2 -10 -1 -13 4c-22 37 -53 63 -109 63s-95 -26 -113 -82c-7 -21 -10 -43 -10 -90s3 -69 10 -90c18 -56 57 -82 113 -82s87 26 109 63c3 5 8 6 13 4l4 -2c5 -2 7 -7 4 -12c-22 -42 -66 -77 -130 -77z
" />
    <glyph glyph-name="registered" unicode="&#xae;" horiz-adv-x="465" 
d="M277 300c-110 0 -192 82 -192 193c0 110 82 192 192 192c111 0 193 -82 193 -192c0 -111 -82 -193 -193 -193zM277 322c97 0 170 73 170 171c0 97 -73 170 -170 170s-169 -73 -169 -170c0 -98 72 -171 169 -171zM223 386h-4c-6 0 -9 3 -9 9v198c0 6 3 9 9 9h75
c41 0 64 -26 64 -60c0 -29 -16 -53 -44 -60l43 -86c3 -7 1 -10 -5 -10h-9c-5 0 -7 2 -10 7l-44 88h-54c-2 0 -3 -1 -3 -2v-84c0 -6 -3 -9 -9 -9zM294 502c29 0 42 16 42 40c0 23 -13 39 -42 39h-59c-2 0 -3 -1 -3 -2v-75c0 -1 1 -2 3 -2h59z" />
    <glyph glyph-name="trademark" unicode="&#x2122;" horiz-adv-x="837" 
d="M780 286h-5c-6 0 -10 4 -10 10v327h-2l-133 -274c-3 -6 -5 -8 -11 -8h-7c-6 0 -8 2 -11 8l-133 274h-2v-327c0 -6 -4 -10 -10 -10h-5c-6 0 -10 4 -10 10v374c0 6 4 10 10 10h9c6 0 9 -2 12 -8l144 -298h2l141 298c3 6 6 8 12 8h9c6 0 10 -4 10 -10v-374
c0 -6 -4 -10 -10 -10zM224 286h-5c-6 0 -10 4 -10 10v355c0 4 -2 6 -6 6h-116c-6 0 -10 4 -10 10v3c0 6 4 10 10 10h268c6 0 10 -4 10 -10v-3c0 -6 -4 -10 -10 -10h-115c-4 0 -6 -2 -6 -6v-355c0 -6 -4 -10 -10 -10z" />
    <glyph glyph-name="currency" unicode="&#xa4;" 
d="M435 121l-5 -4c-6 -5 -10 -4 -13 0l-55 66c-34 -26 -76 -41 -122 -41s-83 16 -108 43l-78 -68c-5 -4 -9 -4 -13 0l-5 6c-3 3 -4 8 2 13l79 68c-15 24 -23 52 -23 84c0 64 25 121 66 161l-52 66c-4 5 -4 9 1 13l5 4c6 5 10 4 13 0l54 -65c34 25 75 40 121 40
c45 0 82 -16 107 -43l79 68c5 4 9 4 13 0l5 -6c3 -3 4 -8 -2 -13l-79 -69c15 -23 23 -51 23 -83c0 -64 -25 -120 -66 -160l54 -67c4 -5 4 -9 -1 -13zM241 167c100 0 181 85 181 191c0 73 -48 124 -121 124c-100 0 -181 -85 -181 -191c0 -73 48 -124 121 -124z" />
    <glyph glyph-name="Euro" unicode="&#x20ac;" 
d="M246 -10c-88 0 -141 49 -141 149c0 29 3 57 15 126c1 4 -1 6 -5 6h-49c-6 0 -9 4 -8 10l1 5c1 6 6 10 12 10h48c4 0 6 2 7 6l15 83c1 3 0 6 -4 6h-50c-6 0 -9 4 -8 10l1 5c1 6 6 10 12 10h48c4 0 6 1 7 5c16 83 26 122 42 155c37 76 100 114 180 114
c88 0 129 -58 141 -116c1 -6 -1 -10 -6 -12l-6 -2c-5 -2 -9 0 -11 6c-17 63 -51 99 -122 99c-65 0 -121 -34 -151 -95c-14 -29 -27 -65 -41 -148c-1 -4 1 -6 5 -6h207c6 0 9 -4 8 -10l-1 -5c-1 -6 -6 -10 -12 -10h-207c-4 0 -6 -2 -7 -6l-14 -83c-1 -4 1 -6 5 -6h177
c6 0 9 -4 8 -10l-1 -5c-1 -6 -7 -10 -12 -10h-177c-4 0 -6 -2 -7 -6c-13 -82 -15 -99 -15 -120c0 -91 41 -130 120 -130c71 0 122 42 157 99c3 6 8 8 13 6l5 -2c5 -2 6 -7 3 -13c-32 -58 -93 -115 -182 -115z" />
    <glyph glyph-name="cent" unicode="&#xa2;" 
d="M205 -103h-6c-6 0 -9 4 -8 10l14 84c-84 6 -125 63 -125 158c0 76 17 153 46 213c35 71 93 115 166 121l15 84c1 6 5 10 11 10h6c6 0 9 -4 8 -10l-15 -83c69 -3 111 -37 128 -96c2 -6 1 -10 -5 -13l-7 -3c-5 -2 -10 -1 -12 5c-17 55 -50 80 -108 82l-78 -444
c50 2 95 26 138 82c3 4 9 6 14 2l5 -4c5 -4 4 -10 0 -15c-45 -58 -95 -88 -162 -90l-14 -83c-1 -6 -5 -10 -11 -10zM107 155c0 -81 29 -133 103 -139l78 442c-54 -7 -107 -44 -136 -104c-33 -68 -45 -152 -45 -199z" />
    <glyph glyph-name="sterling" unicode="&#xa3;" 
d="M377 0h-300c-6 0 -9 4 -8 10l1 7c1 4 3 6 7 9c33 31 50 58 61 118l28 160c1 4 -1 6 -5 6h-48c-6 0 -9 4 -8 10l1 5c1 6 6 10 12 10h48c4 0 6 1 7 6l32 182c20 115 77 167 157 167c68 0 110 -43 116 -117c0 -6 -1 -10 -8 -12l-7 -2c-7 -2 -10 1 -10 7c-4 65 -41 99 -92 99
c-67 0 -114 -48 -130 -141l-32 -183c-1 -4 1 -6 4 -6h138c6 0 9 -4 8 -10l-1 -5c-1 -6 -6 -10 -12 -10h-138c-3 0 -5 -2 -6 -6l-28 -161c-11 -65 -27 -94 -58 -117v-1h274c5 0 9 -4 8 -10l-1 -5c-1 -6 -5 -10 -10 -10z" />
    <glyph glyph-name="florin" unicode="&#x192;" 
d="M405 362h-105l-133 -410c-33 -101 -72 -132 -150 -132h-18c-6 0 -9 4 -8 10l1 5c1 7 6 10 12 10h19c56 0 89 25 115 103l134 414h-90c-6 0 -9 4 -8 10l1 5c1 6 6 10 12 10h93l53 161c33 101 72 132 150 132h18c6 0 9 -4 8 -10l-1 -5c-1 -7 -6 -10 -12 -10h-19
c-56 0 -89 -25 -115 -103l-54 -165h102c6 0 9 -4 8 -10l-1 -5c-1 -6 -6 -10 -12 -10z" />
    <glyph glyph-name="yen" unicode="&#xa5;" 
d="M220 0h-7c-6 0 -9 4 -8 10l28 156c1 5 -1 7 -5 7h-131c-6 0 -9 4 -8 10l1 5c1 6 6 10 12 10h131c4 0 6 2 7 6l12 74c1 4 -1 6 -5 6h-131c-6 0 -9 4 -8 10l1 5c1 6 6 10 12 10h124v1l-97 358c-2 7 1 12 8 12h8c7 0 10 -3 12 -10l95 -354h2l217 354c5 8 7 10 17 10h6
c8 0 10 -6 5 -14l-220 -356v-1h124c6 0 9 -4 8 -10l-1 -5c-1 -6 -6 -10 -12 -10h-132c-3 0 -6 -2 -7 -6l-12 -74c-1 -4 1 -6 4 -6h133c6 0 9 -4 8 -10l-1 -5c-1 -6 -6 -10 -12 -10h-133c-3 0 -5 -2 -6 -6l-28 -157c-1 -6 -5 -10 -11 -10z" />
    <glyph glyph-name="ordfeminine" unicode="&#xaa;" horiz-adv-x="328" 
d="M283 392h-5c-5 0 -9 4 -8 10l4 23h-1c-20 -26 -59 -39 -99 -39c-51 0 -84 28 -84 72c0 70 54 100 128 100h73c4 0 6 2 7 6l5 28c9 49 -5 72 -67 72c-29 0 -58 -11 -79 -25c-6 -4 -12 -4 -14 1l-2 5c-2 4 -2 10 4 14c21 16 58 28 97 28c73 0 96 -32 84 -99l-33 -186
c-1 -6 -4 -10 -10 -10zM182 409c50 0 95 33 101 66l9 54c1 4 -1 6 -5 6h-71c-61 0 -101 -25 -101 -74c0 -32 25 -52 67 -52z" />
    <glyph glyph-name="ordmasculine" unicode="&#xba;" horiz-adv-x="328" 
d="M192 385c-58 0 -94 35 -94 104c0 35 9 85 27 122c25 52 64 76 118 76c58 0 94 -35 94 -104c0 -35 -9 -85 -27 -122c-25 -52 -64 -76 -118 -76zM195 408c43 0 72 22 93 62c16 31 24 81 24 111c0 53 -21 83 -71 83c-44 0 -73 -22 -94 -62c-16 -31 -24 -81 -24 -111
c0 -53 21 -83 72 -83z" />
    <glyph glyph-name="fraction" unicode="&#x2044;" horiz-adv-x="187" 
d="M-137 -10h-9c-6 0 -9 4 -4 10l497 680c5 7 8 10 15 10h9c6 0 8 -4 4 -10l-496 -680c-6 -7 -9 -10 -16 -10z" />
    <glyph glyph-name="uni2215" unicode="&#x2215;" horiz-adv-x="187" 
d="M-137 -10h-9c-6 0 -9 4 -4 10l497 680c5 7 8 10 15 10h9c6 0 8 -4 4 -10l-496 -680c-6 -7 -9 -10 -16 -10z" />
    <glyph glyph-name="onequarter" unicode="&#xbc;" horiz-adv-x="786" 
d="M161 -10h-9c-6 0 -9 4 -4 10l497 680c5 7 8 10 15 10h9c6 0 8 -4 4 -10l-496 -680c-6 -7 -9 -10 -16 -10zM199 274h-5c-6 0 -9 4 -8 10l63 362h-1l-77 -49c-5 -3 -10 -1 -9 5l1 8c1 7 3 10 9 14l77 50c6 4 10 6 16 6h5c6 0 10 -4 9 -10l-68 -386c-1 -6 -6 -10 -12 -10z
M600 0h-7c-5 0 -8 4 -7 10l12 69c1 4 -1 6 -5 6h-155c-5 0 -9 4 -8 10l1 5c1 5 3 8 7 14l182 282c4 7 8 10 13 10h11c5 0 8 -5 4 -10l-185 -286v-1h134c4 0 6 2 7 6l19 108c1 6 5 10 11 10h7c5 0 8 -4 7 -10l-18 -108c-1 -4 1 -6 5 -6h42c6 0 9 -4 8 -10l-1 -5
c-1 -6 -4 -9 -10 -9h-44c-4 0 -6 -2 -7 -6l-12 -69c-1 -6 -5 -10 -11 -10z" />
    <glyph glyph-name="onehalf" unicode="&#xbd;" horiz-adv-x="813" 
d="M161 -10h-9c-6 0 -9 4 -4 10l497 680c5 7 8 10 15 10h9c6 0 8 -4 4 -10l-496 -680c-6 -7 -9 -10 -16 -10zM199 274h-5c-6 0 -9 4 -8 10l63 362h-1l-77 -49c-5 -3 -10 -1 -9 5l1 8c1 7 3 10 9 14l77 50c6 4 10 6 16 6h5c6 0 10 -4 9 -10l-68 -386c-1 -6 -6 -10 -12 -10z
M685 0h-207c-6 0 -9 4 -8 10l1 4c1 5 3 8 8 14l189 193c24 25 53 59 53 102c0 40 -25 65 -67 65c-44 0 -77 -27 -95 -70c-2 -6 -6 -9 -12 -8l-6 1c-5 1 -7 5 -5 12c16 49 61 89 120 89s90 -39 90 -85c0 -47 -23 -84 -60 -122l-178 -180v-1h181c5 0 9 -4 8 -10l-1 -4
c-1 -6 -6 -10 -11 -10z" />
    <glyph glyph-name="threequarters" unicode="&#xbe;" horiz-adv-x="853" 
d="M228 -10h-9c-6 0 -9 4 -4 10l497 680c5 7 8 10 15 10h9c6 0 8 -4 4 -10l-496 -680c-6 -7 -9 -10 -16 -10zM221 268c-62 0 -93 39 -99 78c-1 6 0 10 7 12l6 2c7 2 10 -1 11 -7c6 -33 28 -61 78 -61c60 0 106 48 106 109c0 42 -27 73 -74 73h-16c-5 0 -8 4 -7 10l1 5
c1 6 5 9 11 9h13c51 0 98 44 98 101c0 37 -24 63 -68 63c-46 0 -76 -25 -91 -57c-3 -6 -6 -9 -12 -8l-6 1c-5 1 -7 5 -5 12c16 38 54 76 117 76c57 0 90 -35 90 -84c0 -47 -24 -91 -73 -115v-1c22 -10 47 -37 47 -81c0 -77 -53 -137 -134 -137zM667 0h-7c-5 0 -8 4 -7 10
l12 69c1 4 -1 6 -5 6h-155c-5 0 -9 4 -8 10l1 5c1 5 3 8 7 14l182 282c4 7 8 10 13 10h11c5 0 8 -5 4 -10l-185 -286v-1h134c4 0 6 2 7 6l19 108c1 6 5 10 11 10h7c5 0 8 -4 7 -10l-18 -108c-1 -4 1 -6 5 -6h42c6 0 9 -4 8 -10l-1 -5c-1 -6 -4 -9 -10 -9h-44
c-4 0 -6 -2 -7 -6l-12 -69c-1 -6 -5 -10 -11 -10z" />
    <glyph glyph-name="perthousand" unicode="&#x2030;" horiz-adv-x="1008" 
d="M136 -10h-9c-6 0 -9 4 -4 10l497 680c5 7 8 10 15 10h9c6 0 8 -4 4 -10l-496 -680c-6 -7 -9 -10 -16 -10zM220 330c-54 0 -88 32 -88 90c0 43 22 160 40 197c24 50 60 71 106 71c54 0 88 -32 88 -90c0 -43 -22 -160 -40 -197c-24 -50 -60 -71 -106 -71zM222 353
c35 0 61 17 80 53c20 40 39 145 39 191c0 41 -21 68 -65 68c-35 0 -61 -17 -80 -53c-20 -40 -39 -145 -39 -191c0 -41 21 -68 65 -68zM781 -8c-54 0 -88 32 -88 90c0 43 22 160 40 197c24 50 60 71 106 71c54 0 88 -32 88 -90c0 -43 -22 -160 -40 -197
c-24 -50 -60 -71 -106 -71zM494 -8c-54 0 -88 32 -88 90c0 43 22 160 40 197c24 50 60 71 106 71c54 0 88 -32 88 -90c0 -43 -22 -160 -40 -197c-24 -50 -60 -71 -106 -71zM783 15c35 0 61 17 80 53c20 40 39 145 39 191c0 41 -21 68 -65 68c-35 0 -61 -17 -80 -53
c-20 -40 -39 -145 -39 -191c0 -41 21 -68 65 -68zM496 15c35 0 61 17 80 53c20 40 39 145 39 191c0 41 -21 68 -65 68c-35 0 -61 -17 -80 -53c-20 -40 -39 -145 -39 -191c0 -41 21 -68 65 -68z" />
    <glyph glyph-name="minus" unicode="&#x2212;" 
d="M437 264h-361c-6 0 -10 4 -10 10v5c0 6 4 10 10 10h361c6 0 10 -4 10 -10v-5c0 -6 -4 -10 -10 -10z" />
    <glyph glyph-name="plusminus" unicode="&#xb1;" 
d="M255 85h-7c-6 0 -10 4 -10 10v163c0 4 -2 6 -6 6h-161c-6 0 -10 4 -10 10v5c0 6 4 10 10 10h161c4 0 6 2 6 6v163c0 6 4 10 10 10h7c6 0 10 -4 10 -10v-163c0 -4 2 -6 6 -6h161c6 0 10 -4 10 -10v-5c0 -6 -4 -10 -10 -10h-161c-4 0 -6 -2 -6 -6v-163c0 -6 -4 -10 -10 -10
zM432 0h-361c-6 0 -10 4 -10 10v5c0 6 4 10 10 10h361c6 0 10 -4 10 -10v-5c0 -6 -4 -10 -10 -10z" />
    <glyph glyph-name="multiply" unicode="&#xd7;" 
d="M415 126l-4 -4c-4 -4 -10 -4 -14 0l-133 132c-3 3 -5 3 -8 0l-132 -132c-4 -4 -10 -4 -14 0l-4 4c-4 4 -4 10 0 14l133 132c3 3 3 5 0 8l-133 132c-4 4 -4 10 0 14l4 4c4 4 10 4 14 0l132 -132c3 -3 5 -3 8 0l133 132c4 4 10 4 14 0l4 -4c4 -4 4 -10 0 -14l-133 -132
c-3 -3 -3 -5 0 -8l133 -132c4 -4 4 -10 0 -14z" />
    <glyph glyph-name="divide" unicode="&#xf7;" 
d="M251 374c-18 0 -32 14 -32 32s14 32 32 32s32 -14 32 -32s-14 -32 -32 -32zM432 264h-361c-6 0 -10 4 -10 10v5c0 6 4 10 10 10h361c6 0 10 -4 10 -10v-5c0 -6 -4 -10 -10 -10zM251 113c-18 0 -32 14 -32 32s14 32 32 32s32 -14 32 -32s-14 -32 -32 -32z" />
    <glyph glyph-name="notequal" unicode="&#x2260;" 
d="M133 57h-8c-6 0 -8 6 -5 11l61 100h-100c-6 0 -10 4 -10 10v5c0 6 4 10 10 10h116l102 166h-218c-6 0 -10 4 -10 10v5c0 6 4 10 10 10h233l62 101c4 7 8 10 14 10h8c6 0 8 -6 5 -11l-62 -100h101c6 0 10 -4 10 -10v-5c0 -6 -4 -10 -10 -10h-116l-102 -166h218
c6 0 10 -4 10 -10v-5c0 -6 -4 -10 -10 -10h-233l-62 -101c-4 -7 -8 -10 -14 -10z" />
    <glyph glyph-name="approxequal" unicode="&#x2248;" 
d="M341 320c-42 0 -69 21 -95 41c-23 17 -46 34 -78 34c-35 0 -59 -16 -86 -59c-3 -5 -8 -6 -13 -3l-4 2c-5 3 -7 7 -3 14c24 44 62 70 108 70c42 0 69 -21 95 -41c23 -17 46 -34 78 -34c35 0 59 16 86 59c3 5 8 6 13 3l4 -2c5 -3 7 -7 3 -14c-24 -44 -62 -70 -108 -70z
M341 133c-42 0 -69 21 -95 41c-23 17 -46 34 -78 34c-35 0 -59 -16 -86 -59c-3 -5 -8 -6 -13 -3l-4 2c-5 3 -7 7 -3 14c24 44 62 70 108 70c42 0 69 -21 95 -41c23 -17 46 -34 78 -34c35 0 59 16 86 59c3 5 8 6 13 3l4 -2c5 -3 7 -7 3 -14c-24 -44 -62 -70 -108 -70z" />
    <glyph glyph-name="lessequal" unicode="&#x2264;" 
d="M438 116l-361 146c-8 3 -10 6 -10 12v4c0 6 2 9 10 12l361 146c6 2 10 -1 10 -7v-7c0 -7 -3 -10 -10 -13l-332 -132v-2l332 -132c7 -3 10 -6 10 -13v-7c0 -6 -4 -9 -10 -7zM438 0h-361c-6 0 -10 4 -10 10v5c0 6 4 10 10 10h361c6 0 10 -4 10 -10v-5c0 -6 -4 -10 -10 -10z
" />
    <glyph glyph-name="greaterequal" unicode="&#x2265;" 
d="M438 262l-361 -146c-6 -2 -10 1 -10 7v7c0 7 3 10 10 13l332 132v2l-332 132c-7 3 -10 6 -10 13v7c0 6 4 9 10 7l361 -146c8 -3 10 -6 10 -12v-4c0 -6 -2 -9 -10 -12zM438 0h-361c-6 0 -10 4 -10 10v5c0 6 4 10 10 10h361c6 0 10 -4 10 -10v-5c0 -6 -4 -10 -10 -10z" />
    <glyph glyph-name="logicalnot" unicode="&#xac;" 
d="M432 131h-7c-6 0 -10 4 -10 10v117c0 4 -2 6 -6 6h-338c-6 0 -10 4 -10 10v5c0 6 4 10 10 10h361c6 0 10 -4 10 -10v-138c0 -6 -4 -10 -10 -10z" />
    <glyph glyph-name="Delta" unicode="&#x2206;" horiz-adv-x="567" 
d="M5 0c-6 0 -9 4 -6 10l350 660c3 6 6 10 12 10h10c5 0 8 -4 9 -10l122 -660c1 -6 -2 -10 -8 -10h-489zM46 26h418c5 0 7 2 6 6l-110 599h-2l-316 -599c-2 -4 -1 -6 4 -6z" />
    <glyph glyph-name="Omega" unicode="&#x2126;" horiz-adv-x="605" 
d="M67 0c-6 0 -9 4 -8 10l1 6c1 6 4 9 10 9h102l1 2c-56 30 -86 74 -86 160c0 40 6 92 17 153c22 125 42 173 56 202c49 101 121 148 228 148c114 0 185 -69 185 -188c0 -32 -2 -76 -17 -162c-35 -200 -81 -269 -176 -313v-2h103c6 0 9 -3 8 -9l-1 -6c-1 -6 -4 -10 -10 -10
h-156c-6 0 -9 4 -8 10l1 9c1 6 5 8 11 10c129 48 163 110 200 311c15 83 17 126 17 157c0 107 -59 167 -161 167c-90 0 -156 -44 -197 -128c-13 -28 -34 -74 -56 -196c-11 -61 -16 -109 -16 -147c0 -92 32 -133 112 -164c6 -2 9 -4 8 -10l-2 -9c-1 -6 -5 -10 -11 -10h-155z
" />
    <glyph glyph-name="mu" unicode="&#xb5;" horiz-adv-x="521" 
d="M35 -180c-5 0 -9 4 -8 9l112 636c1 5 6 9 11 9h9c5 0 8 -4 7 -9l-54 -300c-3 -16 -4 -31 -4 -45c0 -69 37 -105 111 -105c63 0 148 47 167 153l52 297c1 5 6 9 11 9h10c4 0 7 -4 6 -9l-64 -365c-3 -19 -5 -35 -5 -46c0 -29 11 -31 27 -31c6 0 9 -4 8 -10l-1 -5
c-1 -7 -6 -10 -12 -10h-3c-31 0 -48 15 -48 54c0 7 1 14 2 22h-1c-33 -52 -91 -84 -154 -84c-58 0 -98 22 -119 72h-1l-40 -233c-1 -5 -5 -9 -10 -9h-9z" />
    <glyph glyph-name="degree" unicode="&#xb0;" horiz-adv-x="419" 
d="M263 404c-81 0 -141 60 -141 140c0 81 60 141 141 141s140 -60 140 -141c0 -80 -59 -140 -140 -140zM263 429c65 0 113 49 113 115s-47 116 -113 116s-114 -50 -114 -116s49 -115 114 -115z" />
    <glyph glyph-name="afii61289" unicode="&#x2113;" horiz-adv-x="324" 
d="M83 244c-5 -4 -10 -4 -13 1l-4 5c-3 5 -2 10 3 14l55 47l39 218c21 120 54 161 105 161c36 0 61 -30 61 -83c0 -110 -75 -210 -179 -306l-39 -223c-8 -42 6 -63 35 -63c21 0 43 12 66 35c5 5 10 4 13 0l3 -3c4 -4 4 -10 0 -14c-26 -27 -55 -43 -85 -43
c-48 0 -69 33 -59 90l34 194zM190 526l-33 -185c78 78 144 160 144 268c0 37 -15 56 -36 56c-29 0 -56 -31 -75 -139z" />
    <glyph glyph-name="estimated" unicode="&#x212e;" horiz-adv-x="664" 
d="M342 -10c-140 0 -230 111 -230 248c0 138 90 246 230 246c139 0 231 -101 232 -246h-361v-163c34 -33 78 -51 129 -51c74 0 128 32 172 107l32 -20c-55 -84 -110 -121 -204 -121zM473 270v130c-38 35 -81 54 -131 54c-51 0 -95 -19 -129 -54v-130h260z" />
    <glyph glyph-name="infinity" unicode="&#x221e;" horiz-adv-x="770" 
d="M573 93c-66 0 -120 43 -188 131c-66 -85 -118 -131 -187 -131c-85 0 -147 62 -147 155c0 91 58 153 147 153c68 0 120 -47 187 -131c71 91 126 131 188 131c88 0 148 -59 148 -153c0 -91 -60 -155 -148 -155zM573 118c75 0 121 63 121 130c0 72 -43 128 -121 128
c-58 0 -100 -38 -170 -129c74 -96 112 -129 170 -129zM198 118c57 0 102 40 170 129c-70 91 -114 129 -170 129c-76 0 -120 -55 -120 -128c0 -74 53 -130 120 -130z" />
    <glyph glyph-name="partialdiff" unicode="&#x2202;" horiz-adv-x="515" 
d="M198 -10c-92 0 -144 67 -144 163c0 130 86 258 225 258c75 0 124 -36 156 -105h1c11 56 17 108 17 154c0 123 -42 205 -140 205c-38 0 -78 -14 -125 -48c-5 -4 -9 -2 -11 3l-3 7c-2 5 -1 9 6 14c40 29 87 49 137 49c120 0 162 -104 162 -229c0 -100 -26 -227 -68 -313
c-51 -105 -123 -158 -213 -158zM205 15c108 0 185 104 221 253c-29 78 -82 118 -146 118c-120 0 -199 -112 -199 -232c0 -84 46 -139 124 -139z" />
    <glyph glyph-name="integral" unicode="&#x222b;" horiz-adv-x="341" 
d="M8 -180c-3 0 -17 0 -23 1c-5 1 -8 4 -7 10l1 5c1 7 6 11 11 10c9 -1 16 -1 22 -1c51 0 85 43 100 128l107 606c21 117 62 159 133 162c3 0 17 0 23 -1c5 -1 8 -4 7 -10l-1 -5c-1 -7 -6 -11 -11 -10c-9 1 -16 1 -22 1c-51 0 -85 -43 -100 -128l-107 -606
c-21 -117 -62 -159 -133 -162z" />
    <glyph glyph-name="radical" unicode="&#x221a;" horiz-adv-x="583" 
d="M227 -180h-6c-6 0 -9 4 -11 10l-92 319c-1 4 -4 5 -8 3l-83 -38c-6 -3 -10 -1 -11 4l-2 7c-2 6 0 11 5 13l106 48c6 3 11 1 12 -4l90 -316h2l383 864c3 7 7 10 13 10h9c6 0 9 -4 6 -10l-400 -900c-3 -7 -7 -10 -13 -10z" />
    <glyph glyph-name="summation" unicode="&#x2211;" horiz-adv-x="528" 
d="M468 -180h-388c-6 0 -10 4 -10 10v5c0 4 1 7 2 9l202 480l-197 386c-2 4 -3 7 -3 11v9c0 6 4 10 10 10h374c6 0 10 -4 10 -10v-9c0 -6 -4 -10 -10 -10h-348l196 -378c2 -5 2 -9 0 -14l-199 -470h361c6 0 10 -4 10 -10v-9c0 -6 -4 -10 -10 -10z" />
    <glyph glyph-name="product" unicode="&#x220f;" horiz-adv-x="623" 
d="M521 -180h-11c-6 0 -10 4 -10 10v875c0 4 -2 6 -6 6h-365c-4 0 -6 -2 -6 -6v-875c0 -6 -4 -10 -10 -10h-11c-6 0 -10 4 -10 10v900c0 6 4 10 10 10h419c6 0 10 -4 10 -10v-900c0 -6 -4 -10 -10 -10z" />
    <glyph glyph-name="lozenge" unicode="&#x25ca;" horiz-adv-x="493" 
d="M200 -52h-7c-6 0 -7 4 -9 10l-110 364c-1 5 0 9 3 14l238 364c4 6 7 10 13 10h7c6 0 7 -4 9 -10l109 -364c1 -5 0 -9 -3 -14l-237 -364c-4 -6 -7 -10 -13 -10zM205 -6l218 338l-97 330h-2l-219 -337l98 -331h2z" />
    <glyph glyph-name="uniF8FF" unicode="&#xf8ff;" horiz-adv-x="464" 
d="M454 0h-444c-6 0 -10 4 -10 10v660c0 6 4 10 10 10h444c6 0 10 -4 10 -10v-660c0 -6 -4 -10 -10 -10zM428 28c4 0 6 2 6 6v612c0 4 -2 6 -6 6h-392c-4 0 -6 -2 -6 -6v-612c0 -4 2 -6 6 -6h392zM229 217h-8c-6 0 -10 4 -10 10v25c0 32 6 50 24 72l31 37c37 44 43 62 43 94
c0 50 -35 80 -82 80c-43 0 -75 -23 -87 -77c-1 -6 -5 -9 -12 -8l-7 1c-6 1 -9 5 -8 11c10 58 54 99 114 99c68 0 110 -46 110 -106c0 -43 -13 -67 -44 -104l-31 -37c-21 -26 -23 -35 -23 -62v-25c0 -6 -4 -10 -10 -10zM234 113h-19c-6 0 -10 4 -10 10v28c0 6 4 10 10 10h19
c6 0 10 -4 10 -10v-28c0 -6 -4 -10 -10 -10z" />
    <glyph glyph-name="uni03A9" unicode="&#x3a9;" horiz-adv-x="605" 
d="M67 0c-6 0 -9 4 -8 10l1 6c1 6 4 9 10 9h102l1 2c-56 30 -86 74 -86 160c0 40 6 92 17 153c22 125 42 173 56 202c49 101 121 148 228 148c114 0 185 -69 185 -188c0 -32 -2 -76 -17 -162c-35 -200 -81 -269 -176 -313v-2h103c6 0 9 -3 8 -9l-1 -6c-1 -6 -4 -10 -10 -10
h-156c-6 0 -9 4 -8 10l1 9c1 6 5 8 11 10c129 48 163 110 200 311c15 83 17 126 17 157c0 107 -59 167 -161 167c-90 0 -156 -44 -197 -128c-13 -28 -34 -74 -56 -196c-11 -61 -16 -109 -16 -147c0 -92 32 -133 112 -164c6 -2 9 -4 8 -10l-2 -9c-1 -6 -5 -10 -11 -10h-155z
" />
    <glyph glyph-name="uni03BC" unicode="&#x3bc;" horiz-adv-x="521" 
d="M35 -180c-5 0 -9 4 -8 9l112 636c1 5 6 9 11 9h9c5 0 8 -4 7 -9l-54 -300c-3 -16 -4 -31 -4 -45c0 -69 37 -105 111 -105c63 0 148 47 167 153l52 297c1 5 6 9 11 9h10c4 0 7 -4 6 -9l-64 -365c-3 -19 -5 -35 -5 -46c0 -29 11 -31 27 -31c6 0 9 -4 8 -10l-1 -5
c-1 -7 -6 -10 -12 -10h-3c-31 0 -48 15 -48 54c0 7 1 14 2 22h-1c-33 -52 -91 -84 -154 -84c-58 0 -98 22 -119 72h-1l-40 -233c-1 -5 -5 -9 -10 -9h-9z" />
    <glyph glyph-name="pi" unicode="&#x3c0;" horiz-adv-x="539" 
d="M80 0c-5 0 -9 3 -8 9l76 430c1 5 -2 7 -5 7h-67c-4 0 -7 2 -6 8l2 11c1 5 5 9 10 9h449c8 0 8 -3 7 -7l-2 -12c-1 -6 -4 -9 -11 -9h-62c-5 0 -7 -2 -8 -7l-63 -353c-1 -8 -2 -18 -2 -29c0 -26 19 -34 46 -34h4c6 0 9 -4 8 -10l-1 -5c-1 -7 -6 -10 -12 -10h-2
c-49 0 -71 25 -71 60c0 7 1 16 2 24l64 357c1 5 -2 7 -6 7h-239c-5 0 -7 -2 -8 -7l-76 -430c-1 -5 -5 -9 -9 -9h-10z" />
    <glyph glyph-name="uni0394" unicode="&#x394;" horiz-adv-x="567" 
d="M5 0c-6 0 -9 4 -6 10l350 660c3 6 6 10 12 10h10c5 0 8 -4 9 -10l122 -660c1 -6 -2 -10 -8 -10h-489zM46 26h418c5 0 7 2 6 6l-110 599h-2l-316 -599c-2 -4 -1 -6 4 -6z" />
    <glyph glyph-name="zero.denominator" horiz-adv-x="310" 
d="M116 -6c-58 0 -93 35 -93 92c0 40 31 216 48 252c25 52 64 74 117 74c58 0 93 -35 93 -92c0 -40 -31 -216 -48 -252c-25 -52 -64 -74 -117 -74zM119 18c39 0 69 16 91 60c18 37 45 197 45 235c0 46 -21 75 -70 75c-39 0 -69 -16 -91 -60c-18 -37 -45 -197 -45 -235
c0 -46 21 -75 70 -75z" />
    <glyph glyph-name="one.denominator" horiz-adv-x="310" 
d="M135 0h-5c-6 0 -9 4 -8 10l63 362h-1l-77 -49c-5 -3 -10 -1 -9 5l1 8c1 7 3 10 9 14l77 50c6 4 10 6 16 6h5c6 0 10 -4 9 -10l-68 -386c-1 -6 -6 -10 -12 -10z" />
    <glyph glyph-name="two.denominator" horiz-adv-x="310" 
d="M219 0h-207c-6 0 -9 4 -8 10l1 4c1 5 3 8 8 14l189 193c24 25 53 59 53 102c0 40 -25 65 -67 65c-44 0 -77 -27 -95 -70c-2 -6 -6 -9 -12 -8l-6 1c-5 1 -7 5 -5 12c16 49 61 89 120 89s90 -39 90 -85c0 -47 -23 -84 -60 -122l-178 -180v-1h181c5 0 9 -4 8 -10l-1 -4
c-1 -6 -6 -10 -11 -10z" />
    <glyph glyph-name="three.denominator" horiz-adv-x="310" 
d="M115 -6c-62 0 -93 39 -99 78c-1 6 0 10 7 12l6 2c7 2 10 -1 11 -7c6 -33 28 -61 78 -61c60 0 106 48 106 109c0 42 -27 73 -74 73h-16c-5 0 -8 4 -7 10l1 5c1 6 5 9 11 9h13c51 0 98 44 98 101c0 37 -24 63 -68 63c-46 0 -76 -25 -91 -57c-3 -6 -6 -9 -12 -8l-6 1
c-5 1 -7 5 -5 12c16 38 54 76 117 76c57 0 90 -35 90 -84c0 -47 -24 -91 -73 -115v-1c22 -10 47 -37 47 -81c0 -77 -53 -137 -134 -137z" />
    <glyph glyph-name="four.denominator" horiz-adv-x="310" 
d="M176 0h-7c-5 0 -8 4 -7 10l12 69c1 4 -1 6 -5 6h-155c-5 0 -9 4 -8 10l1 5c1 5 3 8 7 14l182 282c4 7 8 10 13 10h11c5 0 8 -5 4 -10l-185 -286v-1h134c4 0 6 2 7 6l19 108c1 6 5 10 11 10h7c5 0 8 -4 7 -10l-18 -108c-1 -4 1 -6 5 -6h42c6 0 9 -4 8 -10l-1 -5
c-1 -6 -4 -9 -10 -9h-44c-4 0 -6 -2 -7 -6l-12 -69c-1 -6 -5 -10 -11 -10z" />
    <glyph glyph-name="five.denominator" horiz-adv-x="310" 
d="M123 -6c-63 0 -87 38 -92 80c-1 6 0 12 6 13l8 2c5 1 8 -1 9 -6c6 -38 22 -65 72 -65c40 0 69 19 87 55c11 22 22 82 22 106c0 42 -25 64 -68 64c-42 0 -69 -22 -84 -49c-3 -6 -7 -10 -13 -10h-5c-6 0 -9 4 -8 10l36 202c1 6 5 10 11 10h182c6 0 9 -4 8 -10l-1 -5
c-1 -6 -4 -9 -10 -9h-161c-4 0 -6 -2 -7 -6l-27 -148h1c14 21 42 39 85 39c50 0 86 -29 86 -83c0 -30 -12 -97 -25 -123c-23 -47 -60 -67 -112 -67z" />
    <glyph glyph-name="six.denominator" horiz-adv-x="310" 
d="M115 -6c-60 0 -97 38 -97 96c0 41 17 79 43 116l136 192c4 6 7 8 12 8h11c6 0 8 -5 4 -10l-124 -175l1 -1c13 10 34 17 58 17c58 0 96 -38 96 -95c0 -82 -56 -148 -140 -148zM119 18c63 0 111 52 111 120c0 46 -29 75 -76 75c-63 0 -111 -52 -111 -120
c0 -46 29 -75 76 -75z" />
    <glyph glyph-name="seven.denominator" horiz-adv-x="310" 
d="M66 0h-9c-6 0 -8 5 -4 11l218 370v1h-159c-4 0 -6 -2 -7 -6l-8 -41c-1 -6 -4 -10 -10 -10h-6c-6 0 -9 4 -8 10l11 61c1 6 5 10 11 10h197c5 0 9 -4 8 -10l-1 -8c-1 -6 -3 -10 -6 -15l-214 -365c-4 -6 -7 -8 -13 -8z" />
    <glyph glyph-name="eight.denominator" horiz-adv-x="310" 
d="M115 -6c-60 0 -100 37 -100 94c0 54 30 105 87 126v2c-22 11 -41 36 -41 73c0 65 55 123 127 123c53 0 92 -35 92 -86c0 -47 -30 -92 -74 -112v-2c27 -10 49 -41 49 -79c0 -79 -58 -139 -140 -139zM157 225c48 0 98 42 98 97c0 39 -29 66 -71 66c-48 0 -98 -42 -98 -97
c0 -39 29 -66 71 -66zM119 18c58 0 111 47 111 109c0 45 -30 74 -79 74c-58 0 -111 -47 -111 -109c0 -45 30 -74 79 -74z" />
    <glyph glyph-name="nine.denominator" horiz-adv-x="310" 
d="M95 0h-11c-6 0 -8 5 -4 10l124 175l-1 1c-13 -10 -34 -17 -58 -17c-58 0 -96 38 -96 95c0 82 56 148 140 148c60 0 97 -38 97 -96c0 -41 -17 -79 -43 -116l-136 -192c-4 -6 -7 -8 -12 -8zM150 193c63 0 111 52 111 120c0 46 -29 75 -76 75c-63 0 -111 -52 -111 -120
c0 -46 29 -75 76 -75z" />
    <glyph glyph-name="zero.inferior" unicode="&#x2080;" horiz-adv-x="310" 
d="M89 -162c-58 0 -93 35 -93 92c0 40 31 216 48 252c25 52 64 74 117 74c58 0 93 -35 93 -92c0 -40 -31 -216 -48 -252c-25 -52 -64 -74 -117 -74zM92 -138c39 0 69 16 91 60c18 37 45 197 45 235c0 46 -21 75 -70 75c-39 0 -69 -16 -91 -60c-18 -37 -45 -197 -45 -235
c0 -46 21 -75 70 -75z" />
    <glyph glyph-name="one.inferior" unicode="&#x2081;" horiz-adv-x="310" 
d="M108 -156h-5c-6 0 -9 4 -8 10l63 362h-1l-77 -49c-5 -3 -10 -1 -9 5l1 8c1 7 3 10 9 14l77 50c6 4 10 6 16 6h5c6 0 10 -4 9 -10l-68 -386c-1 -6 -6 -10 -12 -10z" />
    <glyph glyph-name="two.inferior" unicode="&#x2082;" horiz-adv-x="310" 
d="M192 -156h-207c-6 0 -9 4 -8 10l1 4c1 5 3 8 8 14l189 193c24 25 53 59 53 102c0 40 -25 65 -67 65c-44 0 -77 -27 -95 -70c-2 -6 -6 -9 -12 -8l-6 1c-5 1 -7 5 -5 12c16 49 61 89 120 89s90 -39 90 -85c0 -47 -23 -84 -60 -122l-178 -180v-1h181c5 0 9 -4 8 -10l-1 -4
c-1 -6 -6 -10 -11 -10z" />
    <glyph glyph-name="three.inferior" unicode="&#x2083;" horiz-adv-x="310" 
d="M88 -162c-62 0 -93 39 -99 78c-1 6 0 10 7 12l6 2c7 2 10 -1 11 -7c6 -33 28 -61 78 -61c60 0 106 48 106 109c0 42 -27 73 -74 73h-16c-5 0 -8 4 -7 10l1 5c1 6 5 9 11 9h13c51 0 98 44 98 101c0 37 -24 63 -68 63c-46 0 -76 -25 -91 -57c-3 -6 -6 -9 -12 -8l-6 1
c-5 1 -7 5 -5 12c16 38 54 76 117 76c57 0 90 -35 90 -84c0 -47 -24 -91 -73 -115v-1c22 -10 47 -37 47 -81c0 -77 -53 -137 -134 -137z" />
    <glyph glyph-name="four.inferior" unicode="&#x2084;" horiz-adv-x="310" 
d="M149 -156h-7c-5 0 -8 4 -7 10l12 69c1 4 -1 6 -5 6h-155c-5 0 -9 4 -8 10l1 5c1 5 3 8 7 14l182 282c4 7 8 10 13 10h11c5 0 8 -5 4 -10l-185 -286v-1h134c4 0 6 2 7 6l19 108c1 6 5 10 11 10h7c5 0 8 -4 7 -10l-18 -108c-1 -4 1 -6 5 -6h42c6 0 9 -4 8 -10l-1 -5
c-1 -6 -4 -9 -10 -9h-44c-4 0 -6 -2 -7 -6l-12 -69c-1 -6 -5 -10 -11 -10z" />
    <glyph glyph-name="five.inferior" unicode="&#x2085;" horiz-adv-x="310" 
d="M96 -162c-63 0 -87 38 -92 80c-1 6 0 12 6 13l8 2c5 1 8 -1 9 -6c6 -38 22 -65 72 -65c40 0 69 19 87 55c11 22 22 82 22 106c0 42 -25 64 -68 64c-42 0 -69 -22 -84 -49c-3 -6 -7 -10 -13 -10h-5c-6 0 -9 4 -8 10l36 202c1 6 5 10 11 10h182c6 0 9 -4 8 -10l-1 -5
c-1 -6 -4 -9 -10 -9h-161c-4 0 -6 -2 -7 -6l-27 -148h1c14 21 42 39 85 39c50 0 86 -29 86 -83c0 -30 -12 -97 -25 -123c-23 -47 -60 -67 -112 -67z" />
    <glyph glyph-name="six.inferior" unicode="&#x2086;" horiz-adv-x="310" 
d="M88 -162c-60 0 -97 38 -97 96c0 41 17 79 43 116l136 192c4 6 7 8 12 8h11c6 0 8 -5 4 -10l-124 -175l1 -1c13 10 34 17 58 17c58 0 96 -38 96 -95c0 -82 -56 -148 -140 -148zM92 -138c63 0 111 52 111 120c0 46 -29 75 -76 75c-63 0 -111 -52 -111 -120
c0 -46 29 -75 76 -75z" />
    <glyph glyph-name="seven.inferior" unicode="&#x2087;" horiz-adv-x="310" 
d="M39 -156h-9c-6 0 -8 5 -4 11l218 370v1h-159c-4 0 -6 -2 -7 -6l-8 -41c-1 -6 -4 -10 -10 -10h-6c-6 0 -9 4 -8 10l11 61c1 6 5 10 11 10h197c5 0 9 -4 8 -10l-1 -8c-1 -6 -3 -10 -6 -15l-214 -365c-4 -6 -7 -8 -13 -8z" />
    <glyph glyph-name="eight.inferior" unicode="&#x2088;" horiz-adv-x="310" 
d="M88 -162c-60 0 -100 37 -100 94c0 54 30 105 87 126v2c-22 11 -41 36 -41 73c0 65 55 123 127 123c53 0 92 -35 92 -86c0 -47 -30 -92 -74 -112v-2c27 -10 49 -41 49 -79c0 -79 -58 -139 -140 -139zM130 69c48 0 98 42 98 97c0 39 -29 66 -71 66c-48 0 -98 -42 -98 -97
c0 -39 29 -66 71 -66zM92 -138c58 0 111 47 111 109c0 45 -30 74 -79 74c-58 0 -111 -47 -111 -109c0 -45 30 -74 79 -74z" />
    <glyph glyph-name="nine.inferior" unicode="&#x2089;" horiz-adv-x="310" 
d="M68 -156h-11c-6 0 -8 5 -4 10l124 175l-1 1c-13 -10 -34 -17 -58 -17c-58 0 -96 38 -96 95c0 82 56 148 140 148c60 0 97 -38 97 -96c0 -41 -17 -79 -43 -116l-136 -192c-4 -6 -7 -8 -12 -8zM123 37c63 0 111 52 111 120c0 46 -29 75 -76 75c-63 0 -111 -52 -111 -120
c0 -46 29 -75 76 -75z" />
    <glyph glyph-name="zero.numerator" horiz-adv-x="310" 
d="M164 268c-58 0 -93 35 -93 92c0 40 31 216 48 252c25 52 64 74 117 74c58 0 93 -35 93 -92c0 -40 -31 -216 -48 -252c-25 -52 -64 -74 -117 -74zM167 292c39 0 69 16 91 60c18 37 45 197 45 235c0 46 -21 75 -70 75c-39 0 -69 -16 -91 -60c-18 -37 -45 -197 -45 -235
c0 -46 21 -75 70 -75z" />
    <glyph glyph-name="one.numerator" horiz-adv-x="310" 
d="M182 274h-5c-6 0 -9 4 -8 10l63 362h-1l-77 -49c-5 -3 -10 -1 -9 5l1 8c1 7 3 10 9 14l77 50c6 4 10 6 16 6h5c6 0 10 -4 9 -10l-68 -386c-1 -6 -6 -10 -12 -10z" />
    <glyph glyph-name="two.numerator" horiz-adv-x="310" 
d="M267 274h-207c-6 0 -9 4 -8 10l1 4c1 5 3 8 8 14l189 193c24 25 53 59 53 102c0 40 -25 65 -67 65c-44 0 -77 -27 -95 -70c-2 -6 -6 -9 -12 -8l-6 1c-5 1 -7 5 -5 12c16 49 61 89 120 89s90 -39 90 -85c0 -47 -23 -84 -60 -122l-178 -180v-1h181c5 0 9 -4 8 -10l-1 -4
c-1 -6 -6 -10 -11 -10z" />
    <glyph glyph-name="three.numerator" horiz-adv-x="310" 
d="M163 268c-62 0 -93 39 -99 78c-1 6 0 10 7 12l6 2c7 2 10 -1 11 -7c6 -33 28 -61 78 -61c60 0 106 48 106 109c0 42 -27 73 -74 73h-16c-5 0 -8 4 -7 10l1 5c1 6 5 9 11 9h13c51 0 98 44 98 101c0 37 -24 63 -68 63c-46 0 -76 -25 -91 -57c-3 -6 -6 -9 -12 -8l-6 1
c-5 1 -7 5 -5 12c16 38 54 76 117 76c57 0 90 -35 90 -84c0 -47 -24 -91 -73 -115v-1c22 -10 47 -37 47 -81c0 -77 -53 -137 -134 -137z" />
    <glyph glyph-name="four.numerator" horiz-adv-x="310" 
d="M223 274h-7c-5 0 -8 4 -7 10l12 69c1 4 -1 6 -5 6h-155c-5 0 -9 4 -8 10l1 5c1 5 3 8 7 14l182 282c4 7 8 10 13 10h11c5 0 8 -5 4 -10l-185 -286v-1h134c4 0 6 2 7 6l19 108c1 6 5 10 11 10h7c5 0 8 -4 7 -10l-18 -108c-1 -4 1 -6 5 -6h42c6 0 9 -4 8 -10l-1 -5
c-1 -6 -4 -9 -10 -9h-44c-4 0 -6 -2 -7 -6l-12 -69c-1 -6 -5 -10 -11 -10z" />
    <glyph glyph-name="five.numerator" horiz-adv-x="310" 
d="M171 268c-63 0 -87 38 -92 80c-1 6 0 12 6 13l8 2c5 1 8 -1 9 -6c6 -38 22 -65 72 -65c40 0 69 19 87 55c11 22 22 82 22 106c0 42 -25 64 -68 64c-42 0 -69 -22 -84 -49c-3 -6 -7 -10 -13 -10h-5c-6 0 -9 4 -8 10l36 202c1 6 5 10 11 10h182c6 0 9 -4 8 -10l-1 -5
c-1 -6 -4 -9 -10 -9h-161c-4 0 -6 -2 -7 -6l-27 -148h1c14 21 42 39 85 39c50 0 86 -29 86 -83c0 -30 -12 -97 -25 -123c-23 -47 -60 -67 -112 -67z" />
    <glyph glyph-name="six.numerator" horiz-adv-x="310" 
d="M163 268c-60 0 -97 38 -97 96c0 41 17 79 43 116l136 192c4 6 7 8 12 8h11c6 0 8 -5 4 -10l-124 -175l1 -1c13 10 34 17 58 17c58 0 96 -38 96 -95c0 -82 -56 -148 -140 -148zM167 292c63 0 111 52 111 120c0 46 -29 75 -76 75c-63 0 -111 -52 -111 -120
c0 -46 29 -75 76 -75z" />
    <glyph glyph-name="seven.numerator" horiz-adv-x="310" 
d="M114 274h-9c-6 0 -8 5 -4 11l218 370v1h-159c-4 0 -6 -2 -7 -6l-8 -41c-1 -6 -4 -10 -10 -10h-6c-6 0 -9 4 -8 10l11 61c1 6 5 10 11 10h197c5 0 9 -4 8 -10l-1 -8c-1 -6 -3 -10 -6 -15l-214 -365c-4 -6 -7 -8 -13 -8z" />
    <glyph glyph-name="eight.numerator" horiz-adv-x="310" 
d="M163 268c-60 0 -100 37 -100 94c0 54 30 105 87 126v2c-22 11 -41 36 -41 73c0 65 55 123 127 123c53 0 92 -35 92 -86c0 -47 -30 -92 -74 -112v-2c27 -10 49 -41 49 -79c0 -79 -58 -139 -140 -139zM205 499c48 0 98 42 98 97c0 39 -29 66 -71 66c-48 0 -98 -42 -98 -97
c0 -39 29 -66 71 -66zM167 292c58 0 111 47 111 109c0 45 -30 74 -79 74c-58 0 -111 -47 -111 -109c0 -45 30 -74 79 -74z" />
    <glyph glyph-name="nine.numerator" horiz-adv-x="310" 
d="M143 274h-11c-6 0 -8 5 -4 10l124 175l-1 1c-13 -10 -34 -17 -58 -17c-58 0 -96 38 -96 95c0 82 56 148 140 148c60 0 97 -38 97 -96c0 -41 -17 -79 -43 -116l-136 -192c-4 -6 -7 -8 -12 -8zM198 467c63 0 111 52 111 120c0 46 -29 75 -76 75c-63 0 -111 -52 -111 -120
c0 -46 29 -75 76 -75z" />
    <glyph glyph-name="zero.superior" unicode="&#x2070;" horiz-adv-x="310" 
d="M191 424c-58 0 -93 35 -93 92c0 40 31 216 48 252c25 52 64 74 117 74c58 0 93 -35 93 -92c0 -40 -31 -216 -48 -252c-25 -52 -64 -74 -117 -74zM194 448c39 0 69 16 91 60c18 37 45 197 45 235c0 46 -21 75 -70 75c-39 0 -69 -16 -91 -60c-18 -37 -45 -197 -45 -235
c0 -46 21 -75 70 -75z" />
    <glyph glyph-name="onesuperior" unicode="&#xb9;" horiz-adv-x="310" 
d="M210 430h-5c-6 0 -9 4 -8 10l63 362h-1l-77 -49c-5 -3 -10 -1 -9 5l1 8c1 7 3 10 9 14l77 50c6 4 10 6 16 6h5c6 0 10 -4 9 -10l-68 -386c-1 -6 -6 -10 -12 -10z" />
    <glyph glyph-name="twosuperior" unicode="&#xb2;" horiz-adv-x="310" 
d="M294 430h-207c-6 0 -9 4 -8 10l1 4c1 5 3 8 8 14l189 193c24 25 53 59 53 102c0 40 -25 65 -67 65c-44 0 -77 -27 -95 -70c-2 -6 -6 -9 -12 -8l-6 1c-5 1 -7 5 -5 12c16 49 61 89 120 89s90 -39 90 -85c0 -47 -23 -84 -60 -122l-178 -180v-1h181c5 0 9 -4 8 -10l-1 -4
c-1 -6 -6 -10 -11 -10z" />
    <glyph glyph-name="threesuperior" unicode="&#xb3;" horiz-adv-x="310" 
d="M190 424c-62 0 -93 39 -99 78c-1 6 0 10 7 12l6 2c7 2 10 -1 11 -7c6 -33 28 -61 78 -61c60 0 106 48 106 109c0 42 -27 73 -74 73h-16c-5 0 -8 4 -7 10l1 5c1 6 5 9 11 9h13c51 0 98 44 98 101c0 37 -24 63 -68 63c-46 0 -76 -25 -91 -57c-3 -6 -6 -9 -12 -8l-6 1
c-5 1 -7 5 -5 12c16 38 54 76 117 76c57 0 90 -35 90 -84c0 -47 -24 -91 -73 -115v-1c22 -10 47 -37 47 -81c0 -77 -53 -137 -134 -137z" />
    <glyph glyph-name="four.superior" unicode="&#x2074;" horiz-adv-x="310" 
d="M251 430h-7c-5 0 -8 4 -7 10l12 69c1 4 -1 6 -5 6h-155c-5 0 -9 4 -8 10l1 5c1 5 3 8 7 14l182 282c4 7 8 10 13 10h11c5 0 8 -5 4 -10l-185 -286v-1h134c4 0 6 2 7 6l19 108c1 6 5 10 11 10h7c5 0 8 -4 7 -10l-18 -108c-1 -4 1 -6 5 -6h42c6 0 9 -4 8 -10l-1 -5
c-1 -6 -4 -9 -10 -9h-44c-4 0 -6 -2 -7 -6l-12 -69c-1 -6 -5 -10 -11 -10z" />
    <glyph glyph-name="five.superior" unicode="&#x2075;" horiz-adv-x="310" 
d="M198 424c-63 0 -87 38 -92 80c-1 6 0 12 6 13l8 2c5 1 8 -1 9 -6c6 -38 22 -65 72 -65c40 0 69 19 87 55c11 22 22 82 22 106c0 42 -25 64 -68 64c-42 0 -69 -22 -84 -49c-3 -6 -7 -10 -13 -10h-5c-6 0 -9 4 -8 10l36 202c1 6 5 10 11 10h182c6 0 9 -4 8 -10l-1 -5
c-1 -6 -4 -9 -10 -9h-161c-4 0 -6 -2 -7 -6l-27 -148h1c14 21 42 39 85 39c50 0 86 -29 86 -83c0 -30 -12 -97 -25 -123c-23 -47 -60 -67 -112 -67z" />
    <glyph glyph-name="six.superior" unicode="&#x2076;" horiz-adv-x="310" 
d="M190 424c-60 0 -97 38 -97 96c0 41 17 79 43 116l136 192c4 6 7 8 12 8h11c6 0 8 -5 4 -10l-124 -175l1 -1c13 10 34 17 58 17c58 0 96 -38 96 -95c0 -82 -56 -148 -140 -148zM194 448c63 0 111 52 111 120c0 46 -29 75 -76 75c-63 0 -111 -52 -111 -120
c0 -46 29 -75 76 -75z" />
    <glyph glyph-name="seven.superior" unicode="&#x2077;" horiz-adv-x="310" 
d="M141 430h-9c-6 0 -8 5 -4 11l218 370v1h-159c-4 0 -6 -2 -7 -6l-8 -41c-1 -6 -4 -10 -10 -10h-6c-6 0 -9 4 -8 10l11 61c1 6 5 10 11 10h197c5 0 9 -4 8 -10l-1 -8c-1 -6 -3 -10 -6 -15l-214 -365c-4 -6 -7 -8 -13 -8z" />
    <glyph glyph-name="eight.superior" unicode="&#x2078;" horiz-adv-x="310" 
d="M190 424c-60 0 -100 37 -100 94c0 54 30 105 87 126v2c-22 11 -41 36 -41 73c0 65 55 123 127 123c53 0 92 -35 92 -86c0 -47 -30 -92 -74 -112v-2c27 -10 49 -41 49 -79c0 -79 -58 -139 -140 -139zM232 655c48 0 98 42 98 97c0 39 -29 66 -71 66c-48 0 -98 -42 -98 -97
c0 -39 29 -66 71 -66zM194 448c58 0 111 47 111 109c0 45 -30 74 -79 74c-58 0 -111 -47 -111 -109c0 -45 30 -74 79 -74z" />
    <glyph glyph-name="nine.superior" unicode="&#x2079;" horiz-adv-x="310" 
d="M170 430h-11c-6 0 -8 5 -4 10l124 175l-1 1c-13 -10 -34 -17 -58 -17c-58 0 -96 38 -96 95c0 82 56 148 140 148c60 0 97 -38 97 -96c0 -41 -17 -79 -43 -116l-136 -192c-4 -6 -7 -8 -12 -8zM225 623c63 0 111 52 111 120c0 46 -29 75 -76 75c-63 0 -111 -52 -111 -120
c0 -46 29 -75 76 -75z" />
    <glyph glyph-name="interrobang" unicode="&#x203d;" horiz-adv-x="421" 
d="M187 165c-6 0 -9 4 -8 10l54 316c1 6 5 10 11 10h10c6 0 9 -4 8 -10l-38 -194h2l70 77c72 79 96 125 96 181c0 71 -46 110 -110 110c-73 0 -130 -49 -158 -130c-2 -6 -6 -9 -12 -8l-8 2c-5 1 -7 5 -5 11c29 91 96 150 187 150c84 0 132 -55 132 -133
c0 -60 -30 -116 -96 -186l-53 -57c-39 -42 -46 -56 -55 -99l-8 -40c-1 -6 -5 -10 -11 -10h-8zM146 10l8 48c1 6 5 10 11 10h25c6 0 9 -4 8 -10l-8 -48c-1 -6 -5 -10 -11 -10h-25c-6 0 -9 4 -8 10z" />
    <glyph glyph-name="afii61248" unicode="&#x2105;" horiz-adv-x="732" 
d="M123 0l497 680c5 7 8 10 15 10h9c6 0 8 -4 4 -10l-496 -680c-6 -7 -9 -10 -16 -10h-9c-6 0 -9 4 -4 10zM219 330c-65 0 -97 42 -97 115c0 55 12 111 33 155c28 59 71 88 128 88c52 0 80 -25 93 -70c1 -4 0 -7 -4 -9l-10 -7c-4 -2 -7 -1 -9 3c-12 42 -34 60 -78 60
c-41 0 -71 -23 -95 -71c-24 -49 -32 -110 -32 -144c0 -57 17 -97 75 -97c38 0 65 16 94 59c2 3 7 4 11 1l7 -6c4 -3 3 -7 0 -11c-30 -43 -66 -66 -116 -66zM494 -10c-72 0 -95 44 -95 114c0 56 19 130 34 162c28 57 63 84 122 84c72 0 95 -44 95 -115
c0 -55 -19 -129 -34 -161c-28 -58 -63 -84 -122 -84zM495 15c47 0 75 20 99 73c11 25 29 96 29 141c0 63 -13 98 -74 98c-47 0 -71 -22 -93 -72c-12 -26 -30 -96 -30 -142c0 -62 13 -98 69 -98z" />
    <glyph glyph-name="published" unicode="&#x2117;" horiz-adv-x="832" 
d="M416 -10c-199 0 -350 151 -350 350s151 350 350 350s350 -151 350 -350s-151 -350 -350 -350zM416 16c184 0 322 138 322 324s-138 324 -322 324s-322 -138 -322 -324s138 -324 322 -324zM338 140h-9c-5 0 -9 4 -9 9v368c0 6 4 9 9 9h80c93 0 160 -22 160 -115
c0 -101 -67 -128 -160 -128h-57c-3 0 -5 -2 -5 -5v-129c0 -5 -3 -9 -9 -9zM409 308c79 0 132 16 132 103c0 77 -53 90 -132 90h-57c-3 0 -5 -2 -5 -6v-181c0 -4 2 -6 5 -6h57z" />
    <glyph glyph-name="uni0406" unicode="&#x406;" horiz-adv-x="225" 
d="M69 0c-6 0 -9 4 -8 10l116 660c1 6 5 10 11 10h9c6 0 9 -4 8 -10l-116 -660c-1 -6 -5 -10 -11 -10h-9z" />
    <glyph glyph-name="uni0456" unicode="&#x456;" horiz-adv-x="221" 
d="M67 0c-6 0 -9 4 -8 10l80 454c1 6 5 10 11 10h8c6 0 9 -4 8 -10l-80 -454c-1 -6 -5 -10 -11 -10h-8zM170 622c-6 0 -9 4 -8 10l7 38c1 6 5 10 11 10h22c5 0 8 -4 7 -10l-7 -38c-1 -7 -5 -10 -12 -10h-20z" />
    <glyph glyph-name="uni0408" unicode="&#x408;" horiz-adv-x="447" 
d="M134 -10c-45 0 -90 19 -120 45c-4 3 -5 9 0 14l5 5c5 5 10 5 15 1c30 -23 62 -39 103 -39c86 0 156 46 179 175l84 479c1 6 5 10 11 10h9c6 0 9 -4 8 -10l-85 -482c-26 -146 -105 -198 -209 -198z" />
    <glyph glyph-name="uni0458" unicode="&#x458;" horiz-adv-x="221" 
d="M-49 -180h-4c-6 0 -9 4 -8 10l1 5c1 7 6 10 12 10h3c58 0 78 17 90 84l94 535c1 6 5 10 11 10h8c6 0 9 -4 8 -10l-94 -535c-15 -86 -45 -109 -121 -109zM170 622c-6 0 -9 4 -8 10l7 38c1 6 5 10 11 10h22c5 0 8 -4 7 -10l-7 -38c-1 -7 -5 -10 -12 -10h-20z" />
    <glyph glyph-name="uni0410" unicode="&#x410;" horiz-adv-x="567" 
d="M7 0c-6 0 -8 4 -5 10l347 660c3 6 6 10 12 10h10c6 0 8 -4 9 -10l112 -660c1 -6 -3 -10 -9 -10h-8c-5 0 -10 2 -11 10l-31 187h-302l-98 -187c-4 -8 -9 -10 -14 -10h-12zM145 223h283l-68 407h-2z" />
    <glyph glyph-name="uni0411" unicode="&#x411;" horiz-adv-x="583" 
d="M70 0c-6 0 -10 5 -9 10l117 661c1 5 4 9 11 9h348c6 0 9 -4 8 -10l-1 -6c-1 -7 -5 -10 -12 -10h-323c-4 0 -6 -2 -7 -6l-49 -276c-1 -4 1 -6 5 -6h181c108 0 166 -52 166 -141c0 -142 -95 -225 -230 -225h-205zM98 26h178c123 0 202 74 202 197c0 76 -48 117 -143 117
h-182c-4 0 -6 -2 -7 -6l-53 -302c-1 -4 1 -6 5 -6z" />
    <glyph glyph-name="uni0412" unicode="&#x412;" horiz-adv-x="583" 
d="M69 0c-5 0 -9 4 -8 10l116 660c1 6 5 10 11 10h206c101 0 159 -51 159 -141c0 -101 -58 -171 -143 -191v-4c40 -9 96 -46 96 -132c0 -130 -81 -212 -224 -212h-213zM98 26h189c125 0 192 77 192 183c0 75 -45 125 -138 125h-189c-4 0 -6 -2 -7 -6l-52 -296
c-1 -4 1 -6 5 -6zM156 360h186c117 0 184 76 184 175c0 75 -45 119 -132 119h-186c-4 0 -6 -2 -7 -6l-49 -282c-1 -4 1 -6 4 -6z" />
    <glyph glyph-name="uni0413" unicode="&#x413;" horiz-adv-x="474" 
d="M70 0c-8 0 -10 5 -9 10l117 661c1 5 5 9 11 9h336c6 0 9 -4 8 -10l-1 -6c-1 -7 -5 -10 -12 -10h-311c-4 0 -6 -2 -7 -6l-113 -638c-1 -6 -3 -10 -10 -10h-9z" />
    <glyph glyph-name="uni0414" unicode="&#x414;" horiz-adv-x="650" 
d="M-43 -167c-4 0 -8 4 -7 9l29 174c1 6 8 10 13 10h44c6 0 11 4 13 7c81 103 130 211 199 607l6 31c1 5 4 9 11 9h347c8 0 9 -4 8 -9l-113 -639c-1 -4 1 -6 5 -6h68c5 0 9 -4 8 -10l-30 -174c-1 -5 -6 -9 -11 -9h-10c-5 0 -8 4 -7 9l26 152c1 4 0 6 -4 6h-541
c-4 0 -7 -2 -8 -6l-26 -152c-1 -5 -6 -9 -11 -9h-9zM81 26h391c4 0 6 2 7 6l109 616c1 4 -1 6 -5 6h-298c-4 0 -6 -2 -7 -6l-2 -11c-73 -404 -121 -505 -197 -605c-2 -3 -2 -6 2 -6z" />
    <glyph glyph-name="uni0415" unicode="&#x415;" horiz-adv-x="530" 
d="M69 0c-6 0 -9 4 -8 10l116 660c1 6 5 10 11 10h359c6 0 9 -4 8 -10l-1 -6c-1 -7 -5 -10 -12 -10h-334c-4 0 -6 -2 -7 -6l-49 -282c-1 -5 2 -7 6 -7h287c6 0 9 -4 8 -10l-1 -6c-1 -7 -5 -10 -12 -10h-288c-4 0 -6 -2 -7 -6l-52 -295c-1 -4 1 -6 5 -6h334c6 0 9 -4 8 -10
l-1 -6c-1 -7 -5 -10 -12 -10h-358z" />
    <glyph glyph-name="uni0416" unicode="&#x416;" horiz-adv-x="860" 
d="M-21 -3c-6 0 -10 5 -9 11l1 6c1 6 6 9 12 9h15c56 0 72 28 100 74l94 157c29 49 60 89 105 96v4c-31 20 -46 54 -60 100l-42 132c-16 49 -24 71 -73 71h-6c-6 0 -9 5 -8 11l1 6c1 6 5 9 11 9h5c61 0 77 -28 94 -83l45 -145c13 -41 38 -96 95 -96h73c4 0 6 2 7 6l54 305
c1 6 5 10 11 10h8c6 0 9 -4 8 -10l-54 -305c-1 -4 1 -6 5 -6h67c61 0 109 49 134 92l96 162c33 56 55 70 115 70h6c6 0 10 -5 9 -11l-1 -6c-1 -6 -6 -9 -12 -9h-6c-44 0 -56 -10 -87 -60l-94 -155c-29 -47 -61 -79 -102 -91v-4c42 -7 59 -45 72 -93l38 -134
c16 -55 31 -97 79 -97h15c6 0 9 -5 8 -11l-1 -6c-1 -6 -5 -9 -11 -9h-12c-66 0 -87 43 -105 108l-45 162c-14 52 -41 66 -104 66h-63c-4 0 -6 -2 -7 -6l-56 -317c-1 -6 -5 -10 -11 -10h-8c-6 0 -10 4 -9 10l56 317c1 4 0 6 -4 6h-72c-62 0 -90 -14 -122 -66l-112 -185
c-34 -56 -62 -85 -128 -85h-15z" />
    <glyph glyph-name="uni0417" unicode="&#x417;" horiz-adv-x="545" 
d="M222 -10c-86 0 -163 42 -193 79c-4 5 -4 10 1 14l7 7c5 4 10 4 14 0c35 -37 95 -74 171 -74c141 0 214 82 214 196c0 79 -54 122 -131 122h-89c-5 0 -9 5 -8 11l1 7c1 6 6 8 12 8h88c83 0 174 73 174 183c0 74 -53 121 -145 121c-76 0 -127 -26 -183 -68
c-5 -3 -11 -6 -15 -1l-5 7c-3 3 -4 7 4 13c58 44 115 75 200 75c113 0 171 -58 171 -145c0 -89 -48 -163 -137 -195v-4c57 -15 90 -71 90 -132c0 -133 -78 -224 -241 -224z" />
    <glyph glyph-name="uni0418" unicode="&#x418;" horiz-adv-x="640" 
d="M70 0c-7 0 -10 5 -9 10l117 661c1 5 5 9 11 9h9c5 0 9 -4 8 -9l-109 -617h3l485 621c1 2 4 5 10 5h16c7 0 10 -4 9 -9l-117 -661c-1 -5 -5 -10 -11 -10h-8c-6 0 -10 5 -9 10l109 617h-3l-483 -616c-5 -6 -8 -11 -18 -11h-10z" />
    <glyph glyph-name="uni0419" unicode="&#x419;" horiz-adv-x="640" 
d="M70 0c-7 0 -10 5 -9 10l117 661c1 5 5 9 11 9h9c5 0 9 -4 8 -9l-109 -617h3l485 621c1 2 4 5 10 5h16c7 0 10 -4 9 -9l-117 -661c-1 -5 -5 -10 -11 -10h-8c-6 0 -10 5 -9 10l109 617h-3l-483 -616c-5 -6 -8 -11 -18 -11h-10zM411 769c-59 0 -86 40 -96 97c-1 5 1 7 5 8
l11 3c3 1 7 0 8 -5c12 -49 27 -77 77 -77s79 41 97 78c3 5 6 6 10 4l12 -5c4 -2 3 -6 1 -9c-33 -62 -66 -94 -125 -94z" />
    <glyph glyph-name="uni041A" unicode="&#x41a;" horiz-adv-x="569" 
d="M70 0c-6 0 -10 4 -9 10l116 660c1 6 5 10 11 10h9c6 0 9 -4 8 -10l-54 -305c-1 -4 1 -6 5 -6h91c61 0 109 49 134 92l96 161c33 56 55 71 115 71h6c6 0 10 -5 9 -11l-1 -6c-1 -6 -6 -9 -12 -9h-6c-44 0 -56 -11 -87 -61l-94 -154c-29 -47 -61 -79 -102 -91v-4
c42 -7 59 -45 72 -93l37 -132c18 -64 32 -99 80 -99h15c6 0 9 -5 8 -11l-1 -6c-1 -6 -5 -9 -11 -9h-12c-66 0 -87 40 -106 110l-42 154c-14 52 -35 72 -106 72h-87c-4 0 -6 -2 -7 -6l-56 -317c-1 -6 -5 -10 -11 -10h-8z" />
    <glyph glyph-name="uni041B" unicode="&#x41b;" horiz-adv-x="640" 
d="M-32 -3c-4 0 -9 5 -8 12l1 5c1 7 7 9 11 9h11c99 0 175 66 236 404l44 244c1 5 4 9 11 9h337c7 0 10 -4 9 -9l-117 -661c-1 -5 -5 -10 -10 -10h-9c-5 0 -9 5 -8 10l113 638c1 4 -1 6 -5 6h-290c-4 0 -6 -2 -7 -6l-45 -252c-58 -324 -145 -399 -262 -399h-12z" />
    <glyph glyph-name="uni041C" unicode="&#x41c;" horiz-adv-x="724" 
d="M69 0c-5 0 -9 4 -8 10l116 660c1 6 5 10 11 10h9c6 0 9 -3 11 -10l138 -528h2l322 528c4 7 9 10 14 10h12c6 0 9 -4 8 -10l-116 -660c-1 -6 -5 -10 -11 -10h-9c-6 0 -9 4 -8 10l105 596h-2l-302 -492c-5 -8 -8 -10 -17 -10h-4c-9 0 -13 3 -15 11l-129 494h-2l-105 -599
c-1 -6 -5 -10 -11 -10h-9z" />
    <glyph glyph-name="uni041D" unicode="&#x41d;" horiz-adv-x="622" 
d="M69 0c-6 0 -9 4 -8 10l116 660c1 6 5 10 11 10h9c6 0 9 -4 8 -10l-54 -305c-1 -4 1 -6 5 -6h357c4 0 6 2 7 6l54 305c1 6 5 10 11 10h9c6 0 9 -4 8 -10l-116 -660c-1 -6 -5 -10 -11 -10h-9c-6 0 -9 4 -8 10l55 317c1 4 0 6 -4 6h-357c-4 0 -6 -2 -7 -6l-56 -317
c-1 -6 -5 -10 -11 -10h-9z" />
    <glyph glyph-name="uni041E" unicode="&#x41e;" horiz-adv-x="580" 
d="M247 -10c-114 0 -179 69 -179 188c0 86 33 282 73 364c49 101 121 148 228 148c114 0 179 -69 179 -188c0 -86 -33 -282 -73 -364c-49 -101 -121 -148 -228 -148zM251 16c90 0 156 44 197 128c40 82 72 271 72 353c0 107 -53 167 -155 167c-90 0 -156 -44 -197 -128
c-40 -82 -72 -271 -72 -353c0 -107 53 -167 155 -167z" />
    <glyph glyph-name="uni041F" unicode="&#x41f;" horiz-adv-x="615" 
d="M70 0c-6 0 -10 4 -9 10l117 660c1 6 5 10 11 10h397c6 0 10 -4 9 -10l-117 -660c-1 -6 -5 -10 -11 -10h-7c-6 0 -10 4 -9 10l113 638c1 4 -1 6 -5 6h-350c-4 0 -6 -2 -7 -6l-113 -638c-1 -6 -5 -10 -11 -10h-8z" />
    <glyph glyph-name="uni0420" unicode="&#x420;" horiz-adv-x="555" 
d="M69 0c-6 0 -9 4 -8 10l116 660c1 6 5 10 11 10h206c108 0 167 -50 167 -143c0 -142 -90 -223 -231 -223h-182c-4 0 -6 -2 -7 -6l-52 -298c-1 -6 -5 -10 -11 -10h-9zM153 340h178c123 0 202 71 202 197c0 76 -48 117 -143 117h-182c-4 0 -6 -2 -7 -6l-53 -302
c-1 -4 1 -6 5 -6z" />
    <glyph glyph-name="uni0421" unicode="&#x421;" horiz-adv-x="531" 
d="M245 -10c-112 0 -178 69 -178 188c0 86 33 282 73 364c50 103 117 148 217 148c74 0 140 -38 168 -123c2 -6 0 -9 -5 -11l-8 -3c-5 -2 -10 0 -11 4c-26 73 -77 107 -146 107c-84 0 -145 -39 -188 -128c-40 -82 -72 -271 -72 -353c0 -106 52 -167 154 -167
c79 0 133 36 180 105c3 4 7 5 11 3l9 -5c5 -3 4 -8 1 -13c-52 -82 -122 -116 -205 -116z" />
    <glyph glyph-name="uni0422" unicode="&#x422;" horiz-adv-x="491" 
d="M202 0c-6 0 -9 4 -8 10l112 638c1 4 0 6 -4 6h-196c-5 0 -8 4 -7 10l1 6c1 6 5 10 11 10h431c5 0 8 -4 7 -10l-1 -6c-1 -6 -5 -10 -11 -10h-196c-4 0 -6 -2 -7 -6l-112 -638c-1 -6 -5 -10 -11 -10h-9z" />
    <glyph glyph-name="uni0423" unicode="&#x423;" horiz-adv-x="520" 
d="M49 -3c-5 0 -9 4 -8 11l1 6c2 7 6 9 11 9h25c55 0 83 24 119 86l45 78l-137 482c-2 8 2 11 7 11h12c6 0 8 -2 10 -9l129 -448h3l268 448c3 5 6 9 13 9h12c9 0 9 -5 5 -12l-342 -568c-39 -65 -70 -103 -141 -103h-32z" />
    <glyph glyph-name="uni0424" unicode="&#x424;" horiz-adv-x="700" 
d="M304 -10c-6 0 -8 5 -7 10l12 74c1 4 -1 6 -5 6c-156 11 -233 102 -233 244c0 169 138 300 329 300c4 0 6 2 7 6l10 51c0 5 4 8 11 8h8c7 0 9 -3 9 -8l-10 -51c-1 -4 1 -6 5 -6c156 -11 235 -102 235 -236c0 -177 -140 -308 -331 -308c-4 0 -6 -2 -7 -6l-12 -74
c-1 -5 -6 -10 -12 -10h-9zM309 106c4 0 6 2 7 6l84 479c1 4 0 7 -4 7c-167 -2 -297 -114 -297 -273c0 -124 66 -209 210 -219zM349 106c163 4 298 114 298 281c0 116 -68 202 -211 211c-4 0 -7 -3 -8 -7l-84 -479c-1 -4 1 -6 5 -6z" />
    <glyph glyph-name="uni0425" unicode="&#x425;" horiz-adv-x="511" 
d="M7 0c-6 0 -8 5 -4 10l263 349l-122 311c-2 5 0 10 6 10h13c5 0 8 -3 10 -8l112 -285h1l212 285c4 5 7 8 13 8h14c6 0 8 -5 4 -10l-232 -312l137 -348c2 -5 0 -10 -6 -10h-12c-6 0 -9 3 -11 8l-127 322h-1l-242 -322c-4 -5 -7 -8 -12 -8h-16z" />
    <glyph glyph-name="uni0426" unicode="&#x426;" horiz-adv-x="625" 
d="M514 -167c-6 0 -9 4 -8 9l26 152c1 4 0 6 -4 6h-458c-6 0 -10 4 -9 10l117 660c1 6 5 10 11 10h8c6 0 10 -4 9 -10l-113 -638c-1 -4 1 -6 5 -6h350c4 0 6 2 7 6l113 638c1 6 5 10 11 10h7c6 0 10 -4 9 -10l-113 -638c-1 -4 1 -6 5 -6h69c5 0 9 -4 8 -10l-30 -174
c-1 -5 -6 -9 -11 -9h-9z" />
    <glyph glyph-name="uni0427" unicode="&#x427;" horiz-adv-x="586" 
d="M429 0c-5 0 -9 5 -8 10l51 289c1 5 -2 5 -6 4c-52 -20 -137 -40 -193 -40c-116 0 -172 52 -150 177l41 231c1 5 4 9 11 9h8c7 0 10 -4 9 -9l-41 -234c-23 -129 47 -149 128 -149c63 0 136 17 195 42c3 2 5 6 5 9l59 332c1 5 3 9 10 9h9c7 0 10 -4 9 -9l-117 -661
c-1 -5 -5 -10 -10 -10h-10z" />
    <glyph glyph-name="uni0428" unicode="&#x428;" horiz-adv-x="900" 
d="M70 0c-6 0 -10 4 -9 10l117 660c1 6 5 10 11 10h8c6 0 10 -4 9 -10l-113 -638c-1 -4 1 -6 5 -6h297c4 0 6 2 7 6l113 638c1 6 5 10 11 10h8c6 0 10 -4 9 -10l-113 -638c-1 -4 1 -6 5 -6h297c4 0 6 2 7 6l113 638c1 6 5 10 11 10h8c6 0 10 -4 9 -10l-117 -660
c-1 -6 -5 -10 -11 -10h-682z" />
    <glyph glyph-name="uni0429" unicode="&#x429;" horiz-adv-x="910" 
d="M798 -167c-6 0 -9 4 -8 9l26 152c1 4 0 6 -4 6h-742c-6 0 -10 4 -9 10l117 660c1 6 5 10 11 10h8c6 0 10 -4 9 -10l-113 -638c-1 -4 1 -6 5 -6h297c4 0 6 2 7 6l113 638c1 6 5 10 11 10h8c6 0 10 -4 9 -10l-113 -638c-1 -4 1 -6 5 -6h297c4 0 6 2 7 6l113 638
c1 6 5 10 11 10h8c6 0 10 -4 9 -10l-113 -638c-1 -4 1 -6 5 -6h68c5 0 9 -4 8 -10l-30 -174c-1 -5 -6 -9 -11 -9h-9z" />
    <glyph glyph-name="uni042A" unicode="&#x42a;" horiz-adv-x="678" 
d="M178 0c-8 0 -10 5 -9 10l113 638c1 5 -1 6 -5 6h-171c-5 0 -8 5 -7 10l1 8c1 6 5 8 10 8h196c5 0 9 -4 8 -9l-51 -289c-1 -4 1 -6 5 -6h185c115 0 175 -55 175 -150c0 -143 -91 -226 -227 -226h-223zM206 26h195c119 0 199 74 199 200c0 80 -51 124 -147 124h-190
c-4 0 -6 -2 -7 -6l-55 -312c-1 -4 1 -6 5 -6z" />
    <glyph glyph-name="uni042B" unicode="&#x42b;" horiz-adv-x="744" 
d="M70 0c-8 0 -10 5 -9 10l117 661c1 5 5 9 11 9h9c5 0 9 -4 8 -9l-51 -289c-1 -4 1 -6 5 -6h175c115 0 175 -55 175 -150c0 -143 -91 -226 -227 -226h-213zM98 26h185c119 0 199 74 199 200c0 80 -51 124 -147 124h-180c-4 0 -6 -2 -7 -6l-55 -312c-1 -4 1 -6 5 -6zM588 0
c-6 0 -10 5 -9 10l117 661c1 5 3 9 11 9h8c7 0 10 -4 9 -9l-117 -661c-1 -5 -5 -10 -11 -10h-8z" />
    <glyph glyph-name="uni042C" unicode="&#x42c;" horiz-adv-x="570" 
d="M70 0c-8 0 -10 5 -9 10l117 661c1 5 5 9 11 9h9c5 0 9 -4 8 -9l-51 -289c-1 -4 1 -6 5 -6h185c115 0 175 -55 175 -150c0 -143 -91 -226 -227 -226h-223zM98 26h195c119 0 199 74 199 200c0 80 -51 124 -147 124h-190c-4 0 -6 -2 -7 -6l-55 -312c-1 -4 1 -6 5 -6z" />
    <glyph glyph-name="uni042D" unicode="&#x42d;" horiz-adv-x="537" 
d="M207 -10c-87 0 -148 40 -175 119c-2 5 -1 11 5 13l9 3c6 2 10 1 12 -3c23 -68 69 -106 154 -106c71 0 130 24 176 97c31 49 51 112 69 215c1 3 -1 5 -4 5h-253c-4 0 -8 5 -7 10l1 8c1 6 7 8 11 8h252c4 0 6 2 7 6c6 32 13 91 13 136c0 97 -49 163 -160 163
c-91 0 -133 -44 -178 -104c-4 -5 -10 -7 -14 -4l-8 6c-5 3 -4 8 -1 12c56 78 117 116 204 116c116 0 185 -63 185 -190c0 -69 -26 -315 -107 -420c-52 -68 -105 -90 -191 -90z" />
    <glyph glyph-name="uni042E" unicode="&#x42e;" horiz-adv-x="788" 
d="M458 -10c-115 0 -175 66 -175 173c0 32 4 81 18 164c1 4 -1 6 -5 6h-142c-4 0 -6 -2 -7 -6l-56 -317c-1 -5 -5 -10 -10 -10h-9c-6 0 -10 5 -9 10l117 661c1 5 4 9 11 9h9c6 0 9 -4 8 -9l-54 -306c-1 -4 1 -6 5 -6h142c4 0 6 2 7 6c21 117 39 162 52 187
c46 91 121 138 221 138c112 0 175 -65 175 -177c0 -70 -33 -298 -78 -385c-47 -90 -120 -138 -220 -138zM462 16c87 0 150 41 190 119c41 82 76 308 76 379c0 86 -46 150 -151 150c-87 0 -153 -41 -191 -118c-41 -83 -75 -301 -75 -379c0 -90 51 -151 151 -151z" />
    <glyph glyph-name="uni042F" unicode="&#x42f;" horiz-adv-x="590" 
d="M-28 -3c-7 0 -10 5 -9 11l1 6c1 6 5 9 12 9h17c54 0 76 32 106 76l94 143c24 36 44 66 75 74v4c-95 7 -150 56 -150 149c0 130 95 211 219 211h224c6 0 10 -4 9 -10l-117 -660c-1 -6 -5 -10 -11 -10h-8c-6 0 -10 4 -9 10l54 301c1 4 -1 6 -5 6h-131
c-47 0 -83 -26 -114 -72l-109 -167c-35 -53 -61 -81 -128 -81h-20zM288 343h190c4 0 6 2 7 6l53 299c1 4 -1 6 -5 6h-190c-119 0 -197 -71 -197 -185c0 -80 57 -126 142 -126z" />
    <glyph glyph-name="uni0430" unicode="&#x430;" horiz-adv-x="488" 
d="M182 -10c-85 0 -131 45 -131 113c0 104 67 159 194 159h126c4 0 6 2 7 6l12 64c16 93 -3 127 -103 127c-58 0 -99 -17 -127 -41c-6 -5 -11 -6 -15 -2l-6 6c-4 4 -3 9 1 13c34 31 85 49 151 49c106 0 146 -39 126 -152l-57 -322c-1 -6 -5 -10 -11 -10h-8c-6 0 -9 4 -8 10
l10 56h-1c-24 -43 -80 -76 -160 -76zM189 15c85 0 155 54 167 126l16 90c1 4 -1 6 -4 6h-122c-120 0 -168 -52 -168 -132c0 -55 36 -90 111 -90z" />
    <glyph glyph-name="uni0431" unicode="&#x431;" horiz-adv-x="500" 
d="M222 -10c-103 0 -153 64 -153 168c0 79 20 157 38 242c20 95 37 149 96 198c60 49 153 56 230 58c33 1 46 14 50 27c2 5 4 6 11 6h10c6 0 6 -5 4 -10c-17 -39 -33 -44 -87 -48c-87 -6 -150 -9 -207 -57c-50 -42 -60 -88 -85 -198h3c38 56 95 92 169 92
c103 0 148 -55 148 -165c0 -64 -25 -163 -56 -218s-84 -95 -171 -95zM222 15c75 0 120 35 147 82c29 51 53 148 53 205c0 109 -48 141 -127 141c-81 0 -164 -56 -192 -215c-5 -26 -7 -45 -7 -66c0 -104 51 -147 126 -147z" />
    <glyph glyph-name="uni0432" unicode="&#x432;" horiz-adv-x="490" 
d="M68 0c-6 0 -10 5 -9 10l80 455c1 6 7 9 12 9h175c76 0 114 -37 114 -96c0 -62 -30 -110 -91 -132v-4c41 -12 61 -47 61 -90c0 -90 -60 -152 -156 -152h-186zM95 25h160c77 0 127 49 127 125c0 50 -34 82 -96 82h-155c-4 0 -6 -2 -7 -6l-34 -195c-1 -4 1 -6 5 -6zM136 257
h154c66 0 122 50 122 121c0 47 -34 71 -92 71h-151c-4 0 -6 -2 -6 -5l-32 -182c-1 -3 1 -5 5 -5z" />
    <glyph glyph-name="uni0433" unicode="&#x433;" horiz-adv-x="390" 
d="M67 0c-5 0 -9 5 -8 10l80 455c1 7 7 9 11 9h255c5 0 10 -3 8 -9l-1 -7c-1 -7 -7 -9 -12 -9h-231c-4 0 -6 -2 -7 -6l-76 -433c-1 -5 -5 -10 -12 -10h-7z" />
    <glyph glyph-name="uni0434" unicode="&#x434;" horiz-adv-x="548" 
d="M-39 -145c-4 0 -8 5 -7 10l25 151c1 5 7 9 12 9h36c8 0 17 2 25 12c40 50 88 120 116 282l25 146c1 6 5 9 12 9h263c8 0 11 -3 9 -9l-76 -434c-1 -4 1 -6 5 -6h57c5 0 9 -4 8 -9l-26 -151c-1 -5 -5 -10 -10 -10h-8c-6 0 -10 5 -9 10l22 129c1 4 0 6 -4 6h-426
c-4 0 -7 -2 -8 -6l-22 -129c-1 -5 -5 -10 -10 -10h-9zM83 25h284c4 0 6 2 7 6l72 412c1 4 -1 6 -5 6h-217c-4 0 -6 -2 -7 -6l-20 -116c-29 -169 -76 -245 -117 -296c-3 -3 0 -6 3 -6z" />
    <glyph glyph-name="uni0435" unicode="&#x435;" horiz-adv-x="469" 
d="M201 -10c-95 0 -146 56 -146 152c0 74 15 159 46 223c37 77 102 119 181 119c83 0 140 -51 140 -151c0 -22 -2 -46 -9 -86c-1 -6 -5 -10 -12 -10h-304c-4 0 -7 -2 -8 -6c-7 -36 -7 -59 -7 -89c0 -77 38 -127 121 -127c64 0 114 31 150 71c5 5 10 6 14 3l6 -5
c4 -4 4 -9 -1 -14c-41 -48 -99 -80 -171 -80zM102 262h281c4 0 6 2 7 6c4 22 6 44 6 61c0 86 -41 130 -116 130c-67 0 -122 -36 -155 -104c-11 -23 -22 -57 -28 -87c-1 -4 1 -6 5 -6z" />
    <glyph glyph-name="uni0436" unicode="&#x436;" horiz-adv-x="685" 
d="M-22 -3c-6 0 -10 5 -9 11l1 5c1 6 6 9 12 9h9c49 0 68 20 92 65l45 85c23 43 57 73 88 77v4c-20 12 -35 38 -43 67l-19 68c-13 47 -27 64 -70 64h-11c-7 0 -10 5 -9 11l1 5c1 6 6 9 13 9h12c49 0 74 -22 88 -76l19 -68c11 -41 33 -76 80 -76h46c4 0 6 2 7 6l36 202
c1 6 7 9 12 9h5c5 0 11 -3 10 -9l-36 -202c-1 -4 1 -6 5 -6h48c47 0 81 34 106 76l47 79c33 56 60 65 110 65h7c7 0 10 -5 9 -11l-1 -5c-1 -6 -6 -9 -13 -9h-6c-38 0 -56 -9 -84 -55l-48 -79c-21 -34 -46 -61 -69 -68v-4c26 -6 51 -31 59 -74l14 -71c9 -45 22 -79 70 -79h12
c6 0 9 -4 8 -10l-1 -5c-1 -6 -4 -10 -11 -10h-14c-61 0 -80 44 -91 99l-14 72c-12 62 -64 64 -92 64h-50c-4 0 -6 -2 -7 -6l-38 -216c-1 -5 -5 -10 -12 -10h-5c-7 0 -11 5 -10 10l38 216c1 4 -1 6 -5 6h-50c-28 0 -80 -1 -113 -64l-44 -84c-33 -63 -58 -87 -119 -87h-15z
" />
    <glyph glyph-name="uni0437" unicode="&#x437;" horiz-adv-x="445" 
d="M174 -10c-74 0 -117 20 -155 62c-4 5 -4 9 3 15l5 4c5 4 11 4 14 0c37 -44 76 -56 136 -56c101 0 154 55 154 134c0 54 -37 83 -98 83h-63c-5 0 -9 3 -7 11l1 5c1 6 6 9 11 9h66c62 0 122 46 122 118c0 51 -42 83 -112 83c-60 0 -94 -9 -136 -43c-6 -4 -11 -2 -13 0l-7 8
c-2 2 -3 7 3 11c48 36 93 50 156 50c87 0 136 -40 136 -106c0 -61 -31 -111 -94 -132v-4c39 -8 62 -42 62 -91c0 -103 -70 -161 -184 -161z" />
    <glyph glyph-name="uni0438" unicode="&#x438;" horiz-adv-x="536" 
d="M68 0c-6 0 -10 5 -9 10l80 455c1 6 6 9 12 9h7c6 0 9 -3 8 -9l-71 -410h3l349 415c3 3 6 4 9 4h9c6 0 11 -3 10 -9l-80 -455c-1 -5 -7 -10 -13 -10h-5c-6 0 -11 5 -10 10l71 408h-3l-347 -413c-3 -4 -6 -5 -10 -5h-10z" />
    <glyph glyph-name="uni0439" unicode="&#x439;" horiz-adv-x="536" 
d="M68 0c-6 0 -10 5 -9 10l80 455c1 6 6 9 12 9h7c6 0 9 -3 8 -9l-71 -410h3l349 415c3 3 6 4 9 4h9c6 0 11 -3 10 -9l-80 -455c-1 -5 -7 -10 -13 -10h-5c-6 0 -11 5 -10 10l71 408h-3l-347 -413c-3 -4 -6 -5 -10 -5h-10zM316 580c-59 0 -85 36 -94 93c-1 5 0 7 4 8l12 3
c3 1 7 0 8 -5c7 -43 24 -74 74 -74s83 38 101 75c3 5 7 6 11 4l10 -4c4 -2 5 -4 3 -8c-32 -62 -70 -92 -129 -92z" />
    </font>
</defs>
</svg>
