<?xml version="1.0" standalone="no"?>
<!DOCTYPE svg PUBLIC "-//W3C//DTD SVG 1.1//EN" "http://www.w3.org/Graphics/SVG/1.1/DTD/svg11.dtd" >
<svg xmlns="http://www.w3.org/2000/svg" xmlns:xlink="http://www.w3.org/1999/xlink" version="1.1">
<metadata>
Created by FontForge 20170910 at Fri May 21 11:51:19 2010
 By Jimmy Wärting
Copyright (c) 2010 Linotype GmbH, www.linotype.com. All rights reserved. This font software may not be reproduced, modified, disclosed or transferred without the express written approval of Linotype GmbH.
</metadata>
<defs>
<font id="DINNextW1G-Heavy" horiz-adv-x="562" >
  <font-face 
    font-family="DIN Next W1G Medium"
    font-weight="750"
    font-stretch="normal"
    units-per-em="1000"
    panose-1="2 11 9 3 2 2 3 5 2 3"
    ascent="750"
    descent="-250"
    x-height="487"
    cap-height="680"
    bbox="-243.735 -248 1126 931"
    underline-thickness="50"
    underline-position="-100"
    stemh="95"
    stemv="158"
    unicode-range="U+000D-FB04"
  />
<missing-glyph horiz-adv-x="530" 
d="M0 10v660c0 6 4 10 10 10h510c6 0 10 -4 10 -10v-660c0 -6 -4 -10 -10 -10h-510c-6 0 -10 4 -10 10zM79 81c0 -4 2 -6 6 -6h360c4 0 6 2 6 6v518c0 4 -2 6 -6 6h-360c-4 0 -6 -2 -6 -6v-518zM219 249c-6 0 -10 4 -10 10v24c0 24 7 38 20 54l39 47c20 23 28 35 28 51
c0 22 -14 37 -36 37c-23 0 -36 -13 -41 -34c-2 -7 -6 -10 -12 -9l-76 10c-6 1 -9 5 -8 11c10 68 62 113 142 113c84 0 136 -54 136 -120c0 -37 -11 -61 -40 -92l-38 -47c-9 -10 -13 -19 -13 -35v-10c0 -6 -4 -10 -10 -10h-81zM208 123v75c0 6 4 10 10 10h83
c6 0 10 -4 10 -10v-75c0 -6 -4 -10 -10 -10h-83c-6 0 -10 4 -10 10z" />
    <glyph glyph-name="napostrophe" unicode="&#x22;n" horiz-adv-x="558" 
d="M-33 472c-7 0 -11 5 -11 13v185c0 6 4 10 10 10h109c6 0 10 -4 10 -10v-94c0 -10 -2 -15 -9 -21l-92 -75c-7 -6 -12 -8 -17 -8zM498 0h-148c-6 0 -10 4 -10 10v278c0 43 -19 71 -59 71c-38 0 -60 -27 -60 -71v-278c0 -6 -4 -10 -10 -10h-148c-6 0 -10 4 -10 10v467
c0 6 4 10 10 10h148c6 0 10 -4 10 -10v-35h1c22 32 64 57 125 57c111 0 161 -75 161 -182v-307c0 -6 -4 -10 -10 -10z" />
    <glyph glyph-name="IJ" unicode="IJ" horiz-adv-x="820" 
d="M55 10v660c0 6 4 10 10 10h156c6 0 10 -4 10 -10v-660c0 -6 -4 -10 -10 -10h-156c-6 0 -10 4 -10 10zM304 81c-3 5 -3 10 1 14l111 88c5 4 10 3 14 -2c18 -20 42 -36 75 -36c56 0 86 34 86 100v425c0 6 4 10 10 10h156c6 0 10 -4 10 -10v-411c0 -180 -94 -271 -260 -271
c-88 0 -168 39 -203 93z" />
    <glyph glyph-name="fi" unicode="fi" horiz-adv-x="625" 
d="M231 0h-147c-6 0 -10 4 -10 10v351c0 4 -2 6 -6 6h-28c-6 0 -10 4 -10 10v100c0 6 4 10 10 10h28c4 0 6 2 6 6v14c0 124 54 173 180 173h66c6 0 10 -4 10 -10v-108c0 -6 -4 -10 -10 -10h-29c-40 0 -50 -11 -50 -44v-15c0 -4 2 -6 6 -6h71c6 0 10 -4 10 -10v-100
c0 -6 -4 -10 -10 -10h-71c-4 0 -6 -2 -6 -6v-351c0 -6 -4 -10 -10 -10zM562 550h-148c-6 0 -10 4 -10 10v110c0 6 4 10 10 10h148c6 0 10 -4 10 -10v-110c0 -6 -4 -10 -10 -10zM562 0h-148c-6 0 -10 4 -10 10v467c0 6 4 10 10 10h148c6 0 10 -4 10 -10v-467
c0 -6 -4 -10 -10 -10z" />
    <glyph glyph-name="fl" unicode="fl" horiz-adv-x="666" 
d="M231 0h-147c-6 0 -10 4 -10 10v351c0 4 -2 6 -6 6h-28c-6 0 -10 4 -10 10v100c0 6 4 10 10 10h28c4 0 6 2 6 6v14c0 124 54 173 180 173h66c6 0 10 -4 10 -10v-108c0 -6 -4 -10 -10 -10h-29c-40 0 -50 -11 -50 -44v-15c0 -4 2 -6 6 -6h71c6 0 10 -4 10 -10v-100
c0 -6 -4 -10 -10 -10h-71c-4 0 -6 -2 -6 -6v-351c0 -6 -4 -10 -10 -10zM632 -6h-61c-121 0 -169 49 -169 171v505c0 6 4 10 10 10h148c6 0 10 -4 10 -10v-488c0 -33 14 -48 41 -48h21c6 0 10 -4 10 -10v-120c0 -6 -4 -10 -10 -10z" />
    <glyph glyph-name="ij" unicode="ij" horiz-adv-x="548" 
d="M211 550h-148c-6 0 -10 4 -10 10v110c0 6 4 10 10 10h148c6 0 10 -4 10 -10v-110c0 -6 -4 -10 -10 -10zM211 0h-148c-6 0 -10 4 -10 10v467c0 6 4 10 10 10h148c6 0 10 -4 10 -10v-467c0 -6 -4 -10 -10 -10zM485 550h-148c-6 0 -10 4 -10 10v110c0 6 4 10 10 10h148
c6 0 10 -4 10 -10v-110c0 -6 -4 -10 -10 -10zM296 -180h-38c-6 0 -10 4 -10 10v118c0 6 4 10 10 10h15c40 0 54 9 54 55v464c0 6 4 10 10 10h148c6 0 10 -4 10 -10v-464c0 -138 -71 -193 -199 -193z" />
    <glyph glyph-name="f_f_l" unicode="ffl" horiz-adv-x="1017" 
d="M231 0h-147c-6 0 -10 4 -10 10v351c0 4 -2 6 -6 6h-28c-6 0 -10 4 -10 10v100c0 6 4 10 10 10h28c4 0 6 2 6 6v14c0 124 54 173 180 173h66c6 0 10 -4 10 -10v-108c0 -6 -4 -10 -10 -10h-29c-40 0 -50 -11 -50 -44v-15c0 -4 2 -6 6 -6h71c6 0 10 -4 10 -10v-100
c0 -6 -4 -10 -10 -10h-71c-4 0 -6 -2 -6 -6v-351c0 -6 -4 -10 -10 -10zM582 0h-147c-6 0 -10 4 -10 10v351c0 4 -2 6 -6 6h-28c-6 0 -10 4 -10 10v100c0 6 4 10 10 10h28c4 0 6 2 6 6v14c0 124 54 173 180 173h66c6 0 10 -4 10 -10v-108c0 -6 -4 -10 -10 -10h-29
c-40 0 -50 -11 -50 -44v-15c0 -4 2 -6 6 -6h71c6 0 10 -4 10 -10v-100c0 -6 -4 -10 -10 -10h-71c-4 0 -6 -2 -6 -6v-351c0 -6 -4 -10 -10 -10zM983 -6h-61c-121 0 -169 49 -169 171v505c0 6 4 10 10 10h148c6 0 10 -4 10 -10v-488c0 -33 14 -48 41 -48h21c6 0 10 -4 10 -10
v-120c0 -6 -4 -10 -10 -10z" />
    <glyph glyph-name="f_f_i" unicode="ffi" horiz-adv-x="976" 
d="M231 0h-147c-6 0 -10 4 -10 10v351c0 4 -2 6 -6 6h-28c-6 0 -10 4 -10 10v100c0 6 4 10 10 10h28c4 0 6 2 6 6v14c0 124 54 173 180 173h66c6 0 10 -4 10 -10v-108c0 -6 -4 -10 -10 -10h-29c-40 0 -50 -11 -50 -44v-15c0 -4 2 -6 6 -6h71c6 0 10 -4 10 -10v-100
c0 -6 -4 -10 -10 -10h-71c-4 0 -6 -2 -6 -6v-351c0 -6 -4 -10 -10 -10zM582 0h-147c-6 0 -10 4 -10 10v351c0 4 -2 6 -6 6h-28c-6 0 -10 4 -10 10v100c0 6 4 10 10 10h28c4 0 6 2 6 6v14c0 124 54 173 180 173h66c6 0 10 -4 10 -10v-108c0 -6 -4 -10 -10 -10h-29
c-40 0 -50 -11 -50 -44v-15c0 -4 2 -6 6 -6h71c6 0 10 -4 10 -10v-100c0 -6 -4 -10 -10 -10h-71c-4 0 -6 -2 -6 -6v-351c0 -6 -4 -10 -10 -10zM913 550h-148c-6 0 -10 4 -10 10v110c0 6 4 10 10 10h148c6 0 10 -4 10 -10v-110c0 -6 -4 -10 -10 -10zM913 0h-148
c-6 0 -10 4 -10 10v467c0 6 4 10 10 10h148c6 0 10 -4 10 -10v-467c0 -6 -4 -10 -10 -10z" />
    <glyph glyph-name="f_f" unicode="ff" horiz-adv-x="702" 
d="M231 0h-147c-6 0 -10 4 -10 10v351c0 4 -2 6 -6 6h-28c-6 0 -10 4 -10 10v100c0 6 4 10 10 10h28c4 0 6 2 6 6v14c0 124 54 173 180 173h66c6 0 10 -4 10 -10v-108c0 -6 -4 -10 -10 -10h-29c-40 0 -50 -11 -50 -44v-15c0 -4 2 -6 6 -6h71c6 0 10 -4 10 -10v-100
c0 -6 -4 -10 -10 -10h-71c-4 0 -6 -2 -6 -6v-351c0 -6 -4 -10 -10 -10zM582 0h-147c-6 0 -10 4 -10 10v351c0 4 -2 6 -6 6h-28c-6 0 -10 4 -10 10v100c0 6 4 10 10 10h28c4 0 6 2 6 6v14c0 124 54 173 180 173h66c6 0 10 -4 10 -10v-108c0 -6 -4 -10 -10 -10h-29
c-40 0 -50 -11 -50 -44v-15c0 -4 2 -6 6 -6h71c6 0 10 -4 10 -10v-100c0 -6 -4 -10 -10 -10h-71c-4 0 -6 -2 -6 -6v-351c0 -6 -4 -10 -10 -10z" />
    <glyph glyph-name=".notdef" horiz-adv-x="530" 
d="M0 10v660c0 6 4 10 10 10h510c6 0 10 -4 10 -10v-660c0 -6 -4 -10 -10 -10h-510c-6 0 -10 4 -10 10zM79 81c0 -4 2 -6 6 -6h360c4 0 6 2 6 6v518c0 4 -2 6 -6 6h-360c-4 0 -6 -2 -6 -6v-518zM219 249c-6 0 -10 4 -10 10v24c0 24 7 38 20 54l39 47c20 23 28 35 28 51
c0 22 -14 37 -36 37c-23 0 -36 -13 -41 -34c-2 -7 -6 -10 -12 -9l-76 10c-6 1 -9 5 -8 11c10 68 62 113 142 113c84 0 136 -54 136 -120c0 -37 -11 -61 -40 -92l-38 -47c-9 -10 -13 -19 -13 -35v-10c0 -6 -4 -10 -10 -10h-81zM208 123v75c0 6 4 10 10 10h83
c6 0 10 -4 10 -10v-75c0 -6 -4 -10 -10 -10h-83c-6 0 -10 4 -10 10z" />
    <glyph glyph-name=".null" horiz-adv-x="500" 
 />
    <glyph glyph-name=".null" horiz-adv-x="500" 
 />
    <glyph glyph-name="CR" unicode="&#xd;" horiz-adv-x="0" 
 />
    <glyph glyph-name="space" unicode=" " horiz-adv-x="238" 
 />
    <glyph glyph-name="exclam" unicode="!" horiz-adv-x="317" 
d="M106 210c-6 0 -10 4 -10 10l-24 450c0 6 4 10 10 10h153c6 0 10 -4 10 -10l-24 -450c0 -6 -4 -10 -10 -10h-105zM80 10v126c0 6 4 10 10 10h138c6 0 10 -4 10 -10v-126c0 -6 -4 -10 -10 -10h-138c-6 0 -10 4 -10 10z" />
    <glyph glyph-name="quotedbl" unicode="&#x22;" horiz-adv-x="406" 
d="M243 455c-6 0 -10 4 -10 10v205c0 6 4 10 10 10h97c6 0 10 -4 10 -10v-205c0 -6 -4 -10 -10 -10h-97zM66 455c-6 0 -10 4 -10 10v205c0 6 4 10 10 10h97c6 0 10 -4 10 -10v-205c0 -6 -4 -10 -10 -10h-97z" />
    <glyph glyph-name="numbersign" unicode="#" horiz-adv-x="599" 
d="M71 10l23 170h-62c-6 0 -10 4 -10 10v100c0 6 4 10 10 10h79l12 89h-65c-6 0 -10 4 -10 10v100c0 6 4 10 10 10h81l22 161c1 6 4 10 11 10h116c7 0 10 -4 9 -10l-22 -161h93l22 161c1 6 4 10 11 10h116c7 0 10 -4 9 -10l-22 -161h63c6 0 10 -4 10 -10v-100
c0 -6 -4 -10 -10 -10h-80l-12 -89h66c6 0 10 -4 10 -10v-100c0 -6 -4 -10 -10 -10h-82l-23 -170c-1 -6 -4 -10 -11 -10h-116c-7 0 -10 4 -9 10l23 170h-93l-23 -170c-1 -6 -4 -10 -11 -10h-116c-7 0 -10 4 -9 10zM246 300h94l12 89h-94z" />
    <glyph glyph-name="dollar" unicode="$" 
d="M45 65c-5 4 -6 11 -2 16l83 101c4 5 8 5 13 1c32 -26 79 -50 127 -50c53 0 84 26 84 71c0 32 -18 53 -70 60l-21 3c-126 16 -201 90 -201 203c0 109 68 195 177 217v69c0 6 4 10 10 10h83c6 0 10 -4 10 -10v-67c62 -8 113 -31 150 -55c6 -4 7 -10 2 -16l-70 -101
c-4 -5 -9 -6 -14 -3c-35 22 -68 33 -106 33c-44 0 -74 -25 -74 -63c0 -31 17 -51 71 -59l24 -3c133 -18 197 -92 197 -205c0 -115 -67 -199 -180 -222v-71c0 -6 -4 -10 -10 -10h-83c-6 0 -10 4 -10 10v66c-77 7 -143 37 -190 75z" />
    <glyph glyph-name="percent" unicode="%" horiz-adv-x="850" 
d="M167 -2l395 684c4 7 8 10 16 10h101c6 0 8 -5 5 -10l-395 -684c-4 -7 -8 -10 -16 -10h-102c-6 0 -7 5 -4 10zM206 330c-69 0 -118 32 -136 85c-6 19 -10 39 -10 94s4 75 10 94c18 53 67 85 136 85s118 -32 135 -85c7 -19 11 -39 11 -94s-4 -75 -11 -94
c-17 -53 -66 -85 -135 -85zM206 415c13 0 23 7 28 19c2 7 3 15 3 75s-1 68 -3 75c-5 12 -15 19 -28 19s-24 -7 -28 -19c-2 -7 -3 -15 -3 -75s1 -68 3 -75c4 -12 15 -19 28 -19zM508 77c-6 19 -10 38 -10 94c0 55 4 75 10 94c18 53 66 85 136 85c69 0 118 -32 135 -85
c6 -19 11 -39 11 -94c0 -56 -5 -75 -11 -94c-17 -53 -66 -85 -135 -85c-70 0 -118 32 -136 85zM616 96c4 -13 15 -19 28 -19s23 6 27 19c3 7 4 14 4 75c0 60 -1 67 -4 75c-4 12 -14 18 -27 18s-24 -6 -28 -18c-2 -8 -3 -15 -3 -75c0 -61 1 -68 3 -75z" />
    <glyph glyph-name="ampersand" unicode="&#x26;" horiz-adv-x="647" 
d="M45 174c0 73 34 129 123 199c-50 65 -70 104 -70 152c0 97 82 167 190 167c115 0 189 -72 189 -166c0 -61 -30 -105 -112 -170l72 -90l66 74c4 5 10 5 14 1l81 -71c5 -4 6 -9 2 -14l-80 -93l11 -13c11 -14 22 -19 38 -19h15c6 0 10 -4 10 -10v-111c0 -6 -4 -10 -10 -10
h-51c-51 0 -78 12 -114 57c-58 -51 -109 -69 -174 -69c-128 0 -200 75 -200 186zM283 458c39 31 50 49 50 72c0 27 -18 46 -43 46c-26 0 -44 -19 -44 -46c0 -18 8 -34 37 -72zM197 187c0 -36 23 -62 62 -63c27 -1 48 9 78 36l-87 110c-42 -34 -53 -57 -53 -83z" />
    <glyph glyph-name="quotesingle" unicode="'" horiz-adv-x="229" 
d="M66 455c-6 0 -10 4 -10 10v205c0 6 4 10 10 10h97c6 0 10 -4 10 -10v-205c0 -6 -4 -10 -10 -10h-97z" />
    <glyph glyph-name="parenleft" unicode="(" horiz-adv-x="329" 
d="M181 -74c-87 121 -129 265 -129 402s42 282 129 402c5 6 9 10 15 10h96c6 0 10 -4 7 -10c-57 -120 -89 -265 -89 -402s32 -283 89 -402c3 -6 -1 -10 -7 -10h-96c-6 0 -10 4 -15 10z" />
    <glyph glyph-name="parenright" unicode=")" horiz-adv-x="329" 
d="M30 -74c57 119 89 265 89 402s-32 282 -89 402c-3 6 1 10 7 10h96c6 0 10 -4 15 -10c87 -120 129 -265 129 -402s-42 -281 -129 -402c-5 -6 -9 -10 -15 -10h-96c-6 0 -10 4 -7 10z" />
    <glyph glyph-name="asterisk" unicode="*" horiz-adv-x="402" 
d="M167 355c-6 0 -10 4 -10 10l1 78l-67 -40c-5 -3 -11 -1 -14 4l-34 59c-3 5 -1 10 4 13l69 38l-69 39c-5 3 -7 8 -4 13l34 59c3 5 9 7 14 4l67 -41l-1 79c0 6 4 10 10 10h68c6 0 10 -4 10 -10l-2 -79l69 41c5 3 10 1 13 -4l34 -59c3 -5 1 -10 -4 -13l-69 -39l69 -38
c5 -3 7 -8 4 -13l-34 -59c-3 -5 -8 -7 -13 -4l-69 41l2 -79c0 -6 -4 -10 -10 -10h-68z" />
    <glyph glyph-name="plus" unicode="+" 
d="M57 206c-6 0 -10 4 -10 10v120c0 6 4 10 10 10h146c4 0 6 2 6 6v148c0 6 4 10 10 10h124c6 0 10 -4 10 -10v-148c0 -4 2 -6 6 -6h146c6 0 10 -4 10 -10v-120c0 -6 -4 -10 -10 -10h-146c-4 0 -6 -2 -6 -6v-148c0 -6 -4 -10 -10 -10h-124c-6 0 -10 4 -10 10v148
c0 4 -2 6 -6 6h-146z" />
    <glyph glyph-name="comma" unicode="," horiz-adv-x="255" 
d="M52 -94v242c0 6 4 10 10 10h131c6 0 10 -4 10 -10v-131c0 -10 -2 -15 -9 -21l-114 -94c-7 -5 -11 -7 -16 -7c-8 0 -12 4 -12 11z" />
    <glyph glyph-name="hyphen" unicode="-" horiz-adv-x="399" 
d="M49 193c-6 0 -10 4 -10 10v125c0 6 4 10 10 10h301c6 0 10 -4 10 -10v-125c0 -6 -4 -10 -10 -10h-301z" />
    <glyph glyph-name="period" unicode="." horiz-adv-x="263" 
d="M52 10v138c0 6 4 10 10 10h139c6 0 10 -4 10 -10v-138c0 -6 -4 -10 -10 -10h-139c-6 0 -10 4 -10 10z" />
    <glyph glyph-name="slash" unicode="/" horiz-adv-x="446" 
d="M36 -2l212 684c2 6 6 10 13 10h143c6 0 9 -4 7 -10l-212 -684c-2 -6 -6 -10 -13 -10h-143c-6 0 -9 4 -7 10z" />
    <glyph glyph-name="zero" unicode="0" 
d="M64 134c-11 33 -16 62 -16 206s5 173 16 206c30 92 105 146 217 146c113 0 187 -54 218 -146c10 -33 15 -62 15 -206s-5 -173 -15 -206c-31 -92 -105 -146 -218 -146c-112 0 -187 54 -217 146zM226 163c8 -25 26 -37 55 -37s48 12 56 37c5 16 7 31 7 177s-2 161 -7 177
c-8 25 -27 37 -56 37s-47 -12 -55 -37c-6 -16 -8 -31 -8 -177s2 -161 8 -177z" />
    <glyph glyph-name="one" unicode="1" 
d="M238 10v488h-2l-115 -76c-6 -4 -12 -2 -12 6v146c0 6 2 10 7 14l122 86c5 4 11 6 18 6h139c6 0 10 -4 10 -10v-660c0 -6 -4 -10 -10 -10h-147c-6 0 -10 4 -10 10z" />
    <glyph glyph-name="two" unicode="2" 
d="M58 10v112c0 6 1 9 5 14l239 268c25 28 37 53 37 84c0 39 -22 66 -61 66c-38 0 -63 -23 -68 -76c0 -6 -4 -10 -11 -9l-132 20c-6 1 -9 6 -8 12c6 108 94 191 226 191s219 -85 219 -198c0 -71 -28 -123 -74 -172l-162 -180v-2h226c6 0 10 -4 10 -10v-120
c0 -6 -4 -10 -10 -10h-426c-6 0 -10 4 -10 10z" />
    <glyph glyph-name="three" unicode="3" 
d="M49 156c-1 6 2 11 8 12l133 22c6 1 11 -2 12 -8c10 -33 34 -56 75 -56c43 0 70 29 70 75c0 51 -31 80 -81 80h-27c-6 0 -10 4 -10 10v116c0 6 4 10 10 10h25c44 0 71 26 71 70c0 41 -25 67 -64 67c-36 0 -57 -22 -65 -55c-1 -5 -5 -9 -11 -8l-133 21c-6 1 -9 6 -8 12
c18 97 96 168 226 168c140 0 220 -81 220 -188c0 -60 -29 -108 -77 -140v-2c44 -23 89 -74 89 -164c0 -124 -95 -210 -231 -210c-127 0 -215 65 -232 168z" />
    <glyph glyph-name="four" unicode="4" 
d="M44 95c-6 0 -10 4 -10 10v128c0 4 0 7 2 11l187 428c2 5 6 8 14 8h157c7 0 10 -4 7 -10l-189 -429v-2h96c4 0 6 2 6 6v120c0 6 4 10 10 10h140c6 0 10 -4 10 -10v-120c0 -4 1 -6 5 -6h39c6 0 10 -4 10 -10v-124c0 -6 -4 -10 -10 -10h-38c-4 0 -6 -2 -6 -6v-79
c0 -6 -4 -10 -10 -10h-140c-6 0 -10 4 -10 10v79c0 4 -2 6 -6 6h-264z" />
    <glyph glyph-name="five" unicode="5" 
d="M65 149c0 5 3 10 9 12l130 21c7 1 11 -3 13 -9c9 -26 28 -47 66 -47c27 0 48 13 57 39c5 13 7 31 7 57c0 28 -2 45 -7 58c-9 28 -30 39 -58 39c-29 0 -46 -14 -55 -32c-3 -6 -7 -10 -14 -10h-128c-6 0 -10 4 -10 10v383c0 6 4 10 10 10h396c6 0 10 -4 10 -10v-120
c0 -6 -4 -10 -10 -10h-258c-4 0 -6 -2 -6 -6v-114h2c19 18 52 35 105 35c85 0 148 -36 173 -114c9 -28 15 -60 15 -119c0 -41 -6 -75 -15 -102c-28 -88 -108 -132 -213 -132c-127 0 -208 68 -219 161z" />
    <glyph glyph-name="six" unicode="6" 
d="M43 207c0 62 18 114 54 183l151 283c3 5 5 7 12 7h158c8 0 10 -5 7 -11l-136 -254l1 -1c6 2 18 5 34 5c112 0 196 -85 196 -210c0 -135 -100 -221 -239 -221s-238 86 -238 219zM204 206c0 -47 31 -80 77 -80c47 0 78 33 78 80s-31 81 -78 81c-46 0 -77 -34 -77 -81z" />
    <glyph glyph-name="seven" unicode="7" 
d="M127 11l210 521v3h-117c-4 0 -6 -2 -6 -6v-64c0 -6 -4 -10 -10 -10h-136c-6 0 -10 4 -10 10v205c0 6 4 10 10 10h433c6 0 10 -4 10 -10v-132c0 -4 -1 -7 -2 -10l-207 -518c-3 -8 -6 -10 -14 -10h-153c-6 0 -10 5 -8 11z" />
    <glyph glyph-name="eight" unicode="8" 
d="M41 199c0 76 38 126 78 154v2c-31 24 -63 71 -63 135c0 107 82 202 225 202s225 -95 225 -202c0 -64 -31 -111 -62 -135v-2c40 -28 77 -78 77 -154c0 -130 -105 -211 -240 -211s-240 81 -240 211zM281 420c40 0 67 30 67 67s-27 67 -67 67s-66 -30 -66 -67s26 -67 66 -67
zM202 205c0 -46 33 -79 79 -79s79 33 79 79c0 47 -33 80 -79 80s-79 -33 -79 -80z" />
    <glyph glyph-name="nine" unicode="9" 
d="M137 11l136 254l-2 1c-5 -2 -17 -5 -33 -5c-112 0 -196 85 -196 210c0 135 100 221 239 221s238 -86 238 -219c0 -62 -18 -114 -54 -183l-151 -283c-3 -5 -6 -7 -13 -7h-157c-8 0 -10 5 -7 11zM281 393c46 0 77 34 77 81s-31 80 -77 80c-47 0 -78 -33 -78 -80
s31 -81 78 -81z" />
    <glyph glyph-name="colon" unicode=":" horiz-adv-x="278" 
d="M70 329c-6 0 -10 4 -10 10v138c0 6 4 10 10 10h138c6 0 10 -4 10 -10v-138c0 -6 -4 -10 -10 -10h-138zM60 10v138c0 6 4 10 10 10h138c6 0 10 -4 10 -10v-138c0 -6 -4 -10 -10 -10h-138c-6 0 -10 4 -10 10z" />
    <glyph glyph-name="semicolon" unicode=";" horiz-adv-x="278" 
d="M70 329c-6 0 -10 4 -10 10v138c0 6 4 10 10 10h138c6 0 10 -4 10 -10v-138c0 -6 -4 -10 -10 -10h-138zM64 -94v242c0 6 4 10 10 10h131c6 0 10 -4 10 -10v-131c0 -10 -2 -14 -9 -20l-115 -95c-6 -5 -11 -7 -16 -7c-7 0 -11 4 -11 11z" />
    <glyph glyph-name="less" unicode="&#x3c;" 
d="M58 211c-6 2 -10 7 -10 14v102c0 7 4 12 10 14l448 167c6 2 10 0 10 -6v-129c0 -7 -2 -10 -10 -13l-243 -83v-2l243 -83c8 -3 10 -6 10 -13v-129c0 -6 -4 -8 -10 -6z" />
    <glyph glyph-name="equal" unicode="=" 
d="M57 316c-6 0 -10 4 -10 10v120c0 6 4 10 10 10h448c6 0 10 -4 10 -10v-120c0 -6 -4 -10 -10 -10h-448zM57 96c-6 0 -10 4 -10 10v120c0 6 4 10 10 10h448c6 0 10 -4 10 -10v-120c0 -6 -4 -10 -10 -10h-448z" />
    <glyph glyph-name="greater" unicode="&#x3e;" 
d="M47 50v129c0 7 3 10 10 13l244 83v2l-244 83c-7 3 -10 6 -10 13v129c0 6 4 8 10 6l448 -167c6 -2 10 -7 10 -14v-102c0 -7 -4 -12 -10 -14l-448 -167c-6 -2 -10 0 -10 6z" />
    <glyph glyph-name="question" unicode="?" horiz-adv-x="483" 
d="M165 210c-6 0 -10 4 -10 10v41c0 36 9 59 31 84l60 71c33 35 44 55 44 80c0 32 -22 56 -56 56c-36 0 -57 -22 -65 -61c-1 -6 -5 -9 -11 -8l-129 18c-7 1 -9 5 -8 11c14 107 94 180 217 180c129 0 215 -85 215 -188c0 -59 -24 -99 -68 -145l-53 -64
c-17 -19 -21 -32 -21 -58v-17c0 -6 -4 -10 -10 -10h-136zM155 10v126c0 6 4 10 10 10h138c6 0 10 -4 10 -10v-126c0 -6 -4 -10 -10 -10h-138c-6 0 -10 4 -10 10z" />
    <glyph glyph-name="at" unicode="@" horiz-adv-x="931" 
d="M41 262c0 252 172 418 424 418s423 -167 423 -413c0 -145 -91 -215 -192 -215c-67 0 -117 26 -139 66h-1c-22 -41 -58 -66 -136 -66c-74 0 -122 32 -141 94c-10 29 -14 61 -14 119s4 90 14 120c19 61 64 94 130 94c51 0 90 -21 107 -50h1v30c0 6 4 9 9 9h118
c5 0 8 -3 8 -9v-237c0 -39 21 -57 48 -57c36 0 59 32 59 102c0 181 -113 299 -294 299c-182 0 -294 -119 -294 -304c0 -178 112 -297 294 -297c80 0 143 20 198 50c5 3 11 2 14 -4l51 -74c3 -5 2 -10 -3 -14c-71 -47 -159 -72 -260 -72c-252 0 -424 166 -424 411zM405 203
c9 -25 27 -37 54 -37s45 12 53 37c4 12 5 24 5 62c0 39 -1 51 -5 62c-8 25 -26 38 -53 38s-45 -13 -54 -38c-3 -11 -5 -23 -5 -62c0 -38 2 -50 5 -62z" />
    <glyph glyph-name="A" unicode="A" horiz-adv-x="674" 
d="M10 10l235 660c2 6 6 10 13 10h163c7 0 11 -4 13 -10l230 -660c2 -6 -1 -10 -7 -10h-165c-7 0 -11 4 -13 10l-32 105h-221l-32 -105c-2 -6 -6 -10 -13 -10h-164c-6 0 -9 4 -7 10zM271 261h132l-63 212h-3z" />
    <glyph glyph-name="B" unicode="B" horiz-adv-x="614" 
d="M55 10v660c0 6 4 10 10 10h277c152 0 222 -73 222 -181c0 -70 -32 -119 -83 -146v-2c50 -19 95 -76 95 -155c0 -133 -94 -196 -237 -196h-274c-6 0 -10 4 -10 10zM237 407h71c53 0 81 23 81 70c0 48 -27 70 -81 70h-71c-4 0 -6 -2 -6 -6v-128c0 -4 2 -6 6 -6zM231 139
c0 -4 2 -6 6 -6h80c55 0 83 27 83 77c0 47 -28 76 -83 76h-80c-4 0 -6 -2 -6 -6v-141z" />
    <glyph glyph-name="C" unicode="C" horiz-adv-x="574" 
d="M59 156c-15 46 -20 83 -20 184s5 138 20 184c36 111 124 168 247 168c120 0 206 -57 244 -155c3 -7 2 -11 -5 -14l-133 -58c-7 -3 -11 -1 -14 6c-19 40 -43 64 -89 64c-43 0 -70 -21 -82 -59c-7 -21 -10 -42 -10 -136s3 -115 10 -136c12 -38 39 -59 82 -59
c46 0 70 24 89 64c3 7 7 9 14 6l133 -58c7 -3 8 -7 5 -14c-38 -98 -124 -155 -244 -155c-123 0 -211 57 -247 168z" />
    <glyph glyph-name="D" unicode="D" horiz-adv-x="631" 
d="M55 10v660c0 6 4 10 10 10h263c120 0 208 -50 242 -155c14 -44 20 -82 20 -185c0 -102 -6 -141 -20 -185c-34 -105 -122 -155 -242 -155h-263c-6 0 -10 4 -10 10zM231 162c0 -4 2 -6 6 -6h53c62 0 96 17 112 65c6 20 10 43 10 119s-4 99 -10 119c-16 48 -50 65 -112 65
h-53c-4 0 -6 -2 -6 -6v-356z" />
    <glyph glyph-name="E" unicode="E" horiz-adv-x="557" 
d="M55 10v660c0 6 4 10 10 10h445c6 0 10 -4 10 -10v-129c0 -6 -4 -10 -10 -10h-273c-4 0 -6 -2 -6 -6v-103c0 -4 2 -6 6 -6h224c6 0 10 -4 10 -10v-126c0 -6 -4 -10 -10 -10h-224c-4 0 -6 -2 -6 -6v-109c0 -4 2 -6 6 -6h273c6 0 10 -4 10 -10v-129c0 -6 -4 -10 -10 -10
h-445c-6 0 -10 4 -10 10z" />
    <glyph glyph-name="F" unicode="F" horiz-adv-x="552" 
d="M55 10v660c0 6 4 10 10 10h445c6 0 10 -4 10 -10v-129c0 -6 -4 -10 -10 -10h-273c-4 0 -6 -2 -6 -6v-112c0 -4 2 -6 6 -6h224c6 0 10 -4 10 -10v-126c0 -6 -4 -10 -10 -10h-224c-4 0 -6 -2 -6 -6v-245c0 -6 -4 -10 -10 -10h-156c-6 0 -10 4 -10 10z" />
    <glyph glyph-name="G" unicode="G" horiz-adv-x="628" 
d="M59 155c-16 52 -20 92 -20 185s4 133 20 185c36 111 135 167 256 167c125 0 209 -58 247 -145c3 -7 1 -13 -5 -16l-130 -55c-6 -3 -12 -1 -15 4c-23 37 -50 55 -97 55c-46 0 -76 -22 -88 -60c-8 -24 -10 -54 -10 -135s3 -112 10 -135c13 -38 44 -60 93 -60
c44 0 79 19 90 54c4 12 6 26 6 44c0 4 -2 6 -6 6h-74c-6 0 -10 4 -10 10v113c0 6 4 10 10 10h243c6 0 10 -4 10 -10v-52c0 -65 -4 -116 -18 -158c-36 -113 -132 -174 -256 -174c-121 0 -220 56 -256 167z" />
    <glyph glyph-name="H" unicode="H" horiz-adv-x="659" 
d="M55 10v660c0 6 4 10 10 10h156c6 0 10 -4 10 -10v-241c0 -4 2 -6 6 -6h185c4 0 6 2 6 6v241c0 6 4 10 10 10h156c6 0 10 -4 10 -10v-660c0 -6 -4 -10 -10 -10h-156c-6 0 -10 4 -10 10v251c0 4 -2 6 -6 6h-185c-4 0 -6 -2 -6 -6v-251c0 -6 -4 -10 -10 -10h-156
c-6 0 -10 4 -10 10z" />
    <glyph glyph-name="I" unicode="I" horiz-adv-x="286" 
d="M55 10v660c0 6 4 10 10 10h156c6 0 10 -4 10 -10v-660c0 -6 -4 -10 -10 -10h-156c-6 0 -10 4 -10 10z" />
    <glyph glyph-name="J" unicode="J" horiz-adv-x="534" 
d="M18 81c-3 5 -3 10 1 14l111 88c5 4 10 3 14 -2c18 -20 42 -36 75 -36c56 0 86 34 86 100v425c0 6 4 10 10 10h156c6 0 10 -4 10 -10v-411c0 -180 -94 -271 -260 -271c-88 0 -168 39 -203 93z" />
    <glyph glyph-name="K" unicode="K" horiz-adv-x="657" 
d="M55 10v660c0 6 4 10 10 10h156c6 0 10 -4 10 -10v-266l195 267c5 6 9 9 17 9h176c8 0 10 -7 6 -13l-203 -263l215 -393c3 -5 1 -11 -6 -11h-179c-9 0 -13 3 -16 9l-132 256l-73 -97v-158c0 -6 -4 -10 -10 -10h-156c-6 0 -10 4 -10 10z" />
    <glyph glyph-name="L" unicode="L" horiz-adv-x="554" 
d="M55 10v660c0 6 4 10 10 10h156c6 0 10 -4 10 -10v-508c0 -4 2 -6 6 -6h288c6 0 10 -4 10 -10v-136c0 -6 -4 -10 -10 -10h-460c-6 0 -10 4 -10 10z" />
    <glyph glyph-name="M" unicode="M" horiz-adv-x="772" 
d="M55 10v660c0 6 4 10 10 10h148c7 0 14 -2 17 -10l157 -355h4l153 355c3 8 10 10 17 10h146c6 0 10 -4 10 -10v-660c0 -6 -4 -10 -10 -10h-139c-6 0 -10 4 -10 10v350h-5l-109 -254c-5 -10 -13 -13 -19 -13h-78c-6 0 -13 3 -19 13l-109 254h-5v-350c0 -6 -4 -10 -10 -10
h-139c-6 0 -10 4 -10 10z" />
    <glyph glyph-name="N" unicode="N" horiz-adv-x="653" 
d="M55 10v660c0 6 4 10 10 10h147c7 0 14 -3 17 -10l205 -385h4v385c0 6 4 10 10 10h140c6 0 10 -4 10 -10v-660c0 -6 -4 -10 -10 -10h-147c-7 0 -14 3 -17 10l-203 384h-6v-384c0 -6 -4 -10 -10 -10h-140c-6 0 -10 4 -10 10z" />
    <glyph glyph-name="O" unicode="O" horiz-adv-x="628" 
d="M314 -12c-120 0 -219 56 -255 167c-16 52 -20 92 -20 185s4 133 20 185c36 111 135 167 255 167s219 -56 255 -167c17 -52 20 -92 20 -185s-3 -133 -20 -185c-36 -111 -135 -167 -255 -167zM314 145c44 0 75 22 87 60c8 23 10 54 10 135s-2 112 -10 135
c-12 38 -43 60 -87 60s-75 -22 -87 -60c-8 -23 -10 -54 -10 -135s2 -112 10 -135c12 -38 43 -60 87 -60z" />
    <glyph glyph-name="P" unicode="P" horiz-adv-x="612" 
d="M221 0h-156c-6 0 -10 4 -10 10v660c0 6 4 10 10 10h272c166 0 252 -94 252 -226c0 -130 -87 -227 -252 -227h-100c-4 0 -6 -2 -6 -6v-211c0 -6 -4 -10 -10 -10zM327 376c55 0 86 31 86 78s-31 77 -86 77h-90c-4 0 -6 -2 -6 -6v-143c0 -4 2 -6 6 -6h90z" />
    <glyph glyph-name="Q" unicode="Q" horiz-adv-x="628" 
d="M636 46l-105 -99c-5 -4 -10 -5 -15 0l-66 70c-40 -19 -86 -29 -136 -29c-121 0 -219 56 -255 167c-17 52 -20 92 -20 185s3 133 20 185c36 111 134 167 255 167c120 0 219 -56 255 -167c16 -52 20 -92 20 -185s-4 -133 -20 -185c-2 -6 -4 -12 -7 -18l74 -76
c5 -5 4 -11 0 -15zM314 144c44 0 75 23 87 61c8 23 10 54 10 135s-2 112 -10 135c-12 38 -43 61 -87 61s-75 -23 -88 -61c-7 -23 -9 -54 -9 -135s2 -112 9 -135c13 -38 44 -61 88 -61z" />
    <glyph glyph-name="R" unicode="R" horiz-adv-x="629" 
d="M593 0h-173c-9 0 -12 3 -15 10l-103 232h-65c-4 0 -6 -2 -6 -6v-226c0 -6 -4 -10 -10 -10h-156c-6 0 -10 4 -10 10v660c0 6 4 10 10 10h277c156 0 245 -91 245 -219c0 -85 -40 -154 -112 -190l125 -259c3 -6 0 -12 -7 -12zM331 387c50 0 80 28 80 72s-30 72 -80 72h-94
c-4 0 -6 -2 -6 -6v-132c0 -4 2 -6 6 -6h94z" />
    <glyph glyph-name="S" unicode="S" horiz-adv-x="605" 
d="M300 -12c-111 0 -223 47 -274 97c-5 4 -6 11 -1 16l90 106c4 5 10 5 14 1c41 -36 105 -68 173 -68c63 0 96 26 96 64c0 29 -19 48 -86 57l-36 5c-147 21 -227 87 -227 214s99 212 253 212c94 0 182 -29 243 -75c5 -4 6 -9 2 -15l-75 -109c-4 -5 -9 -6 -14 -3
c-48 32 -99 51 -153 51c-50 0 -75 -24 -75 -57c0 -30 22 -49 87 -57l36 -5c149 -21 225 -87 225 -216c0 -126 -96 -218 -278 -218z" />
    <glyph glyph-name="T" unicode="T" horiz-adv-x="566" 
d="M361 0h-156h-3c-2 0 -3 1 -5 3c-1 1 -2 2 -2 4v3v508c0 3 -2 5 -5 6h-1h-167h-3c-2 0 -3 1 -4 2l-1 1s0 1 -1 1c-1 2 -1 4 -1 6v136c0 5 3 9 7 10h3h522c3 0 5 -1 7 -3c0 0 1 -1 1 -2c1 -1 2 -3 2 -5v-136c0 -3 -1 -6 -3 -8c-1 -1 -3 -2 -5 -2h-2h-167c-2 0 -3 0 -4 -1
c-1 0 -1 -1 -2 -2v-3v-508v-3c-1 -3 -2 -4 -5 -6c-1 -1 -3 -1 -5 -1z" />
    <glyph glyph-name="U" unicode="U" horiz-adv-x="647" 
d="M324 -12c-165 0 -271 94 -271 275v407c0 6 4 10 10 10h156c6 0 10 -4 10 -10v-418c0 -68 38 -107 95 -107c59 0 94 39 94 107v418c0 6 4 10 10 10h156c6 0 10 -4 10 -10v-407c0 -181 -108 -275 -270 -275z" />
    <glyph glyph-name="V" unicode="V" horiz-adv-x="629" 
d="M390 0h-151c-7 0 -11 3 -13 10l-217 659c-2 6 2 11 9 11h164c7 0 11 -3 13 -10l121 -410h3l117 410c2 7 6 10 13 10h163c7 0 10 -5 8 -11l-217 -659c-2 -7 -6 -10 -13 -10z" />
    <glyph glyph-name="W" unicode="W" horiz-adv-x="907" 
d="M700 0h-125c-7 0 -11 3 -13 10l-107 380h-2l-108 -380c-2 -7 -6 -10 -13 -10h-125c-7 0 -11 3 -13 10l-185 660c-1 6 1 10 8 10h164c8 0 12 -4 13 -10l88 -396h2l106 396c2 7 6 10 13 10h103c7 0 11 -3 13 -10l109 -396h2l85 396c1 6 5 10 12 10h164c6 0 9 -4 7 -10
l-184 -660c-2 -7 -6 -10 -14 -10z" />
    <glyph glyph-name="X" unicode="X" horiz-adv-x="616" 
d="M600 0h-168c-8 0 -13 3 -17 10l-107 183h-2l-107 -183c-4 -7 -9 -10 -17 -10h-168c-7 0 -9 5 -6 11l204 340l-191 318c-3 6 -1 11 6 11h168c9 0 13 -3 17 -10l94 -161h2l94 161c4 7 9 10 17 10h168c7 0 10 -5 6 -11l-190 -318l203 -340c4 -6 1 -11 -6 -11z" />
    <glyph glyph-name="Y" unicode="Y" horiz-adv-x="602" 
d="M379 0h-156c-6 0 -10 4 -10 10v253l-206 406c-2 6 1 11 8 11h157c7 0 12 -3 16 -10l114 -232h3l112 232c3 7 9 10 16 10h154c8 0 10 -5 8 -11l-206 -406v-253c0 -6 -4 -10 -10 -10z" />
    <glyph glyph-name="Z" unicode="Z" 
d="M516 0h-471c-6 0 -10 4 -10 10v134c0 4 1 7 3 10l282 367v3h-264c-6 0 -10 4 -10 10v136c0 6 4 10 10 10h460c6 0 10 -4 10 -10v-134c0 -4 -1 -7 -3 -10l-282 -367v-3h275c6 0 10 -4 10 -10v-136c0 -6 -4 -10 -10 -10z" />
    <glyph glyph-name="bracketleft" unicode="[" horiz-adv-x="312" 
d="M277 -84h-213c-6 0 -10 4 -10 10v804c0 6 4 10 10 10h213c6 0 10 -4 10 -10v-104c0 -6 -4 -10 -10 -10h-73c-4 0 -6 -2 -6 -6v-564c0 -4 2 -6 6 -6h73c6 0 10 -4 10 -10v-104c0 -6 -4 -10 -10 -10z" />
    <glyph glyph-name="backslash" unicode="\" horiz-adv-x="446" 
d="M404 -12h-143c-7 0 -11 4 -13 10l-212 684c-2 6 1 10 7 10h143c7 0 11 -4 13 -10l212 -684c2 -6 -1 -10 -7 -10z" />
    <glyph glyph-name="bracketright" unicode="]" horiz-adv-x="312" 
d="M248 -84h-213c-6 0 -10 4 -10 10v104c0 6 4 10 10 10h73c4 0 6 2 6 6v564c0 4 -2 6 -6 6h-73c-6 0 -10 4 -10 10v104c0 6 4 10 10 10h213c6 0 10 -4 10 -10v-804c0 -6 -4 -10 -10 -10z" />
    <glyph glyph-name="asciicircum" unicode="^" 
d="M511 243h-135c-7 0 -11 3 -14 10l-80 224h-2l-80 -224c-2 -7 -6 -10 -13 -10h-135c-6 0 -9 4 -7 10l167 417c3 6 7 10 14 10h111c7 0 11 -4 14 -10l166 -417c3 -6 0 -10 -6 -10z" />
    <glyph glyph-name="underscore" unicode="_" horiz-adv-x="550" 
d="M550 -169h-550v111h550v-111z" />
    <glyph glyph-name="grave" unicode="`" horiz-adv-x="489" 
d="M359 546h-116c-7 0 -11 2 -17 10l-103 136c-4 5 -1 10 5 10h139c8 0 13 -3 17 -10l80 -136c3 -6 1 -10 -5 -10z" />
    <glyph glyph-name="a" unicode="a" horiz-adv-x="532" 
d="M472 0h-138c-6 0 -10 4 -10 10v28h-1c-26 -30 -67 -50 -131 -50c-83 0 -158 45 -158 150c0 109 86 160 207 160h77c4 0 6 2 6 6v13c0 36 -19 51 -94 51c-44 0 -82 -12 -105 -28c-5 -3 -10 -3 -13 3l-52 92c-3 7 -2 12 3 16c44 30 109 48 189 48c170 0 230 -57 230 -182
v-307c0 -6 -4 -10 -10 -10zM248 108c52 0 76 17 76 52v30c0 4 -2 6 -6 6h-59c-45 0 -68 -16 -68 -46c0 -27 19 -42 57 -42z" />
    <glyph glyph-name="b" unicode="b" horiz-adv-x="557" 
d="M347 -12c-62 0 -103 24 -125 58h-1v-36c0 -6 -4 -10 -10 -10h-148c-6 0 -10 4 -10 10v660c0 6 4 10 10 10h148c6 0 10 -4 10 -10v-229h1c22 34 63 58 125 58c82 0 136 -41 161 -117c12 -39 17 -78 17 -139c0 -60 -5 -99 -17 -138c-25 -76 -79 -117 -161 -117zM288 126
c30 0 50 13 60 41c5 16 7 34 7 76c0 43 -2 61 -7 77c-10 28 -30 41 -60 41c-29 0 -50 -13 -59 -41c-6 -16 -8 -34 -8 -77c0 -42 2 -60 8 -76c9 -28 30 -41 59 -41z" />
    <glyph glyph-name="c" unicode="c" horiz-adv-x="493" 
d="M263 -12c-105 0 -187 49 -217 143c-10 28 -14 61 -14 112s4 85 14 113c30 94 112 143 217 143c98 0 171 -49 202 -112c2 -5 2 -10 -4 -14l-112 -58c-5 -3 -12 -4 -15 3c-17 30 -35 43 -66 43c-29 0 -49 -14 -59 -42c-5 -15 -7 -34 -7 -76c0 -41 2 -60 7 -75
c10 -28 30 -42 59 -42c31 0 49 12 66 43c3 7 10 6 15 3l112 -58c6 -4 6 -9 4 -14c-31 -63 -104 -112 -202 -112z" />
    <glyph glyph-name="d" unicode="d" horiz-adv-x="557" 
d="M494 0h-148c-6 0 -10 4 -10 10v36h-1c-22 -34 -63 -58 -125 -58c-82 0 -136 41 -161 117c-12 39 -17 78 -17 138c0 61 5 100 17 139c25 76 79 117 161 117c62 0 103 -24 125 -58h1v229c0 6 4 10 10 10h148c6 0 10 -4 10 -10v-660c0 -6 -4 -10 -10 -10zM269 126
c29 0 50 13 59 41c6 16 8 34 8 76c0 43 -2 61 -8 77c-9 28 -30 41 -59 41c-30 0 -50 -13 -60 -41c-5 -16 -7 -34 -7 -77c0 -42 2 -60 7 -76c10 -28 30 -41 60 -41z" />
    <glyph glyph-name="e" unicode="e" horiz-adv-x="533" 
d="M275 -12c-119 0 -198 53 -227 143c-10 29 -16 61 -16 112c0 52 6 85 15 113c30 91 109 143 218 143c116 0 192 -52 220 -141c10 -30 16 -67 16 -152c0 -6 -4 -10 -11 -10h-289c-4 0 -6 -2 -6 -6c1 -7 2 -14 4 -20c11 -34 47 -53 94 -53c42 0 78 14 109 39c6 5 10 5 15 0
l71 -73c5 -4 4 -11 -1 -15c-51 -49 -125 -80 -212 -80zM201 298h132c4 0 6 2 6 6c0 13 -1 22 -4 30c-9 28 -33 44 -68 44c-34 0 -59 -16 -68 -44c-2 -8 -4 -17 -4 -30c0 -4 2 -6 6 -6z" />
    <glyph glyph-name="f" unicode="f" horiz-adv-x="351" 
d="M231 0h-147c-6 0 -10 4 -10 10v351c0 4 -2 6 -6 6h-28c-6 0 -10 4 -10 10v100c0 6 4 10 10 10h28c4 0 6 2 6 6v14c0 124 54 173 180 173h66c6 0 10 -4 10 -10v-108c0 -6 -4 -10 -10 -10h-29c-40 0 -50 -11 -50 -44v-15c0 -4 2 -6 6 -6h71c6 0 10 -4 10 -10v-100
c0 -6 -4 -10 -10 -10h-71c-4 0 -6 -2 -6 -6v-351c0 -6 -4 -10 -10 -10z" />
    <glyph glyph-name="g" unicode="g" horiz-adv-x="552" 
d="M240 -192c-77 0 -157 35 -191 76c-4 5 -3 10 1 15l84 86c5 5 10 5 15 0c29 -24 58 -39 96 -39c60 0 86 31 86 99v37h-1c-21 -35 -64 -57 -124 -57c-80 0 -135 40 -160 117c-11 33 -16 69 -16 120s5 86 16 120c25 76 80 117 160 117c60 0 103 -23 124 -58h1v36
c0 6 4 10 10 10h148c6 0 10 -4 10 -10v-402c0 -188 -90 -267 -259 -267zM265 162c32 0 50 14 59 43c4 14 7 29 7 57c0 27 -3 43 -7 57c-9 28 -27 42 -59 42c-31 0 -49 -14 -58 -42c-5 -14 -7 -30 -7 -57c0 -28 2 -43 7 -57c9 -29 27 -43 58 -43z" />
    <glyph glyph-name="h" unicode="h" horiz-adv-x="558" 
d="M498 0h-148c-6 0 -10 4 -10 10v278c0 43 -19 71 -59 71c-38 0 -60 -27 -60 -71v-278c0 -6 -4 -10 -10 -10h-148c-6 0 -10 4 -10 10v660c0 6 4 10 10 10h148c6 0 10 -4 10 -10v-228h1c22 32 64 57 125 57c111 0 161 -75 161 -182v-307c0 -6 -4 -10 -10 -10z" />
    <glyph glyph-name="i" unicode="i" horiz-adv-x="274" 
d="M211 550h-148c-6 0 -10 4 -10 10v110c0 6 4 10 10 10h148c6 0 10 -4 10 -10v-110c0 -6 -4 -10 -10 -10zM211 0h-148c-6 0 -10 4 -10 10v467c0 6 4 10 10 10h148c6 0 10 -4 10 -10v-467c0 -6 -4 -10 -10 -10z" />
    <glyph glyph-name="j" unicode="j" horiz-adv-x="274" 
d="M211 550h-148c-6 0 -10 4 -10 10v110c0 6 4 10 10 10h148c6 0 10 -4 10 -10v-110c0 -6 -4 -10 -10 -10zM22 -180h-38c-6 0 -10 4 -10 10v118c0 6 4 10 10 10h15c40 0 54 9 54 55v464c0 6 4 10 10 10h148c6 0 10 -4 10 -10v-464c0 -138 -71 -193 -199 -193z" />
    <glyph glyph-name="k" unicode="k" horiz-adv-x="540" 
d="M525 0h-159c-7 0 -12 3 -15 10l-95 188l-36 -48v-140c0 -6 -4 -10 -10 -10h-147c-6 0 -10 4 -10 10v660c0 6 4 10 10 10h147c6 0 10 -4 10 -10v-342l114 149c6 7 11 10 19 10h153c6 0 8 -6 4 -10l-143 -166l163 -301c3 -5 1 -10 -5 -10z" />
    <glyph glyph-name="l" unicode="l" horiz-adv-x="315" 
d="M281 -6h-61c-121 0 -169 49 -169 171v505c0 6 4 10 10 10h148c6 0 10 -4 10 -10v-488c0 -33 14 -48 41 -48h21c6 0 10 -4 10 -10v-120c0 -6 -4 -10 -10 -10z" />
    <glyph glyph-name="m" unicode="m" horiz-adv-x="845" 
d="M785 0h-148c-6 0 -10 4 -10 10v278c0 43 -20 71 -60 71c-37 0 -59 -27 -59 -71v-278c0 -6 -4 -10 -10 -10h-148c-6 0 -10 4 -10 10v278c0 43 -19 71 -59 71c-38 0 -60 -27 -60 -71v-278c0 -6 -4 -10 -10 -10h-148c-6 0 -10 4 -10 10v467c0 6 4 10 10 10h148
c6 0 10 -4 10 -10v-35h1c22 32 64 57 125 57c60 0 102 -22 128 -60h1c33 36 81 60 149 60c115 0 170 -71 170 -182v-307c0 -6 -4 -10 -10 -10z" />
    <glyph glyph-name="n" unicode="n" horiz-adv-x="558" 
d="M498 0h-148c-6 0 -10 4 -10 10v278c0 43 -19 71 -59 71c-38 0 -60 -27 -60 -71v-278c0 -6 -4 -10 -10 -10h-148c-6 0 -10 4 -10 10v467c0 6 4 10 10 10h148c6 0 10 -4 10 -10v-35h1c22 32 64 57 125 57c111 0 161 -75 161 -182v-307c0 -6 -4 -10 -10 -10z" />
    <glyph glyph-name="o" unicode="o" horiz-adv-x="538" 
d="M269 -12c-107 0 -192 48 -222 141c-11 36 -15 71 -15 114c0 44 4 79 15 115c30 93 115 141 222 141s191 -48 222 -141c11 -36 15 -71 15 -115c0 -43 -4 -78 -15 -114c-31 -93 -115 -141 -222 -141zM269 126c29 0 50 13 60 41c5 18 7 35 7 76s-2 59 -7 77
c-10 28 -31 41 -60 41s-50 -13 -60 -41c-5 -18 -7 -36 -7 -77s2 -58 7 -76c10 -28 31 -41 60 -41z" />
    <glyph glyph-name="p" unicode="p" horiz-adv-x="557" 
d="M211 -180h-148c-6 0 -10 4 -10 10v647c0 6 4 10 10 10h148c6 0 10 -4 10 -10v-36h1c22 34 63 58 125 58c82 0 136 -41 161 -117c12 -39 17 -78 17 -139c0 -60 -5 -99 -17 -138c-25 -76 -79 -117 -161 -117c-62 0 -103 24 -125 58h-1v-216c0 -6 -4 -10 -10 -10zM288 126
c30 0 50 13 60 41c5 16 7 34 7 76c0 43 -2 61 -7 77c-10 28 -30 41 -60 41c-29 0 -50 -13 -59 -41c-6 -16 -8 -34 -8 -77c0 -42 2 -60 8 -76c9 -28 30 -41 59 -41z" />
    <glyph glyph-name="q" unicode="q" horiz-adv-x="557" 
d="M494 -180h-148c-6 0 -10 4 -10 10v216h-1c-22 -34 -63 -58 -125 -58c-82 0 -136 41 -161 117c-12 39 -17 78 -17 138c0 61 5 100 17 139c25 76 79 117 161 117c62 0 103 -24 125 -58h1v36c0 6 4 10 10 10h148c6 0 10 -4 10 -10v-647c0 -6 -4 -10 -10 -10zM269 126
c29 0 50 13 59 41c6 16 8 34 8 76c0 43 -2 61 -8 77c-9 28 -30 41 -59 41c-30 0 -50 -13 -60 -41c-5 -16 -7 -34 -7 -77c0 -42 2 -60 7 -76c10 -28 30 -41 60 -41z" />
    <glyph glyph-name="r" unicode="r" horiz-adv-x="429" 
d="M211 0h-148c-6 0 -10 4 -10 10v467c0 6 4 10 10 10h148c6 0 10 -4 10 -10v-43h1c23 43 69 65 126 65c27 0 52 -7 67 -19c6 -3 7 -6 5 -13l-57 -141c-4 -5 -8 -4 -14 -1c-24 15 -48 22 -71 19c-39 -3 -57 -33 -57 -85v-249c0 -6 -4 -10 -10 -10z" />
    <glyph glyph-name="s" unicode="s" horiz-adv-x="512" 
d="M255 -12c-102 0 -181 32 -232 75c-4 4 -5 10 -1 14l71 85c4 4 9 5 14 2c53 -35 106 -52 158 -52c43 0 62 15 62 35c0 17 -10 26 -61 32l-54 5c-107 12 -168 63 -168 155c0 96 77 160 210 160c89 0 163 -26 210 -61c5 -4 5 -10 2 -15l-63 -80c-4 -5 -9 -6 -15 -3
c-36 22 -84 38 -136 38c-35 0 -51 -12 -51 -30c0 -16 9 -26 56 -30l54 -6c127 -13 174 -71 173 -154c-1 -102 -84 -170 -229 -170z" />
    <glyph glyph-name="t" unicode="t" horiz-adv-x="341" 
d="M299 -6h-56c-128 0 -177 53 -177 184v183c0 4 -2 6 -6 6h-28c-6 0 -10 4 -10 10v100c0 6 4 10 10 10h28c4 0 6 2 6 6v127c0 6 4 10 10 10h146c6 0 10 -4 10 -10v-127c0 -4 2 -6 6 -6h61c6 0 10 -4 10 -10v-100c0 -6 -4 -10 -10 -10h-61c-4 0 -6 -2 -6 -6v-176
c0 -39 12 -51 45 -51h22c6 0 10 -4 10 -10v-120c0 -6 -4 -10 -10 -10z" />
    <glyph glyph-name="u" unicode="u" horiz-adv-x="555" 
d="M492 0h-148c-6 0 -10 4 -10 10v35h-1c-24 -33 -64 -57 -124 -57c-111 0 -160 75 -160 182v307c0 6 4 10 10 10h148c6 0 10 -4 10 -10v-278c0 -43 20 -71 59 -71c38 0 58 27 58 71v278c0 6 4 10 10 10h148c6 0 10 -4 10 -10v-467c0 -6 -4 -10 -10 -10z" />
    <glyph glyph-name="v" unicode="v" horiz-adv-x="532" 
d="M335 0h-139c-6 0 -10 4 -12 10l-174 467c-2 6 1 10 8 10h154c7 0 12 -3 14 -10l81 -260h2l78 260c2 7 7 10 14 10h153c7 0 10 -4 8 -10l-174 -467c-2 -6 -6 -10 -13 -10z" />
    <glyph glyph-name="w" unicode="w" horiz-adv-x="772" 
d="M591 0h-116c-6 0 -10 3 -12 10l-75 250h-2l-76 -250c-2 -7 -6 -10 -12 -10h-116c-6 0 -10 3 -12 10l-158 466c-2 6 1 11 8 11h149c8 0 12 -3 14 -10l67 -257h2l75 257c2 7 6 10 13 10h95c7 0 12 -3 14 -10l75 -257h2l63 257c2 7 6 10 15 10h149c6 0 9 -5 7 -11l-157 -466
c-2 -7 -6 -10 -12 -10z" />
    <glyph glyph-name="x" unicode="x" horiz-adv-x="535" 
d="M515 0h-159c-7 0 -11 2 -16 9l-73 115h-1l-73 -115c-5 -7 -9 -9 -16 -9h-158c-7 0 -9 5 -6 10l163 242l-151 225c-3 5 -1 10 7 10h159c7 0 12 -2 16 -9l60 -97h1l61 97c4 6 9 9 16 9h157c8 0 10 -5 7 -10l-151 -225l164 -242c3 -5 0 -10 -7 -10z" />
    <glyph glyph-name="y" unicode="y" horiz-adv-x="531" 
d="M133 -180h-37c-6 0 -10 4 -10 10v118c0 6 4 10 10 10h25c32 0 50 10 60 41l11 31l-183 447c-2 5 1 10 7 10h157c6 0 10 -4 12 -10l84 -244h2l78 244c2 6 6 10 13 10h153c7 0 9 -5 7 -10l-211 -532c-38 -97 -84 -125 -178 -125z" />
    <glyph glyph-name="z" unicode="z" horiz-adv-x="494" 
d="M446 0h-396c-6 0 -10 4 -10 10v108c0 4 1 7 3 10l215 223v3h-197c-6 0 -10 4 -10 10v113c0 6 4 10 10 10h385c6 0 10 -4 10 -10v-113c0 -5 -1 -7 -3 -10l-214 -218v-3h207c6 0 10 -4 10 -10v-113c0 -6 -4 -10 -10 -10z" />
    <glyph glyph-name="braceleft" unicode="{" horiz-adv-x="367" 
d="M330 -84h-74c-89 0 -133 43 -133 126v138c0 58 -21 85 -69 85c-6 0 -10 4 -10 10v109c0 6 4 10 10 10c48 0 69 26 69 84v136c0 83 44 126 133 126h74c6 0 10 -4 10 -10v-104c0 -6 -4 -10 -10 -10h-24c-28 0 -42 -16 -42 -44v-113c0 -75 -20 -109 -72 -129v-1
c52 -20 72 -54 72 -129v-116c0 -28 14 -44 42 -44h24c6 0 10 -4 10 -10v-104c0 -6 -4 -10 -10 -10z" />
    <glyph glyph-name="bar" unicode="|" horiz-adv-x="337" 
d="M231 -84h-125c-6 0 -10 4 -10 10v804c0 6 4 10 10 10h125c6 0 10 -4 10 -10v-804c0 -6 -4 -10 -10 -10z" />
    <glyph glyph-name="braceright" unicode="}" horiz-adv-x="367" 
d="M111 -84h-74c-6 0 -10 4 -10 10v104c0 6 4 10 10 10h24c28 0 42 16 42 44v116c0 75 20 109 72 129v1c-52 20 -72 54 -72 129v113c0 28 -14 44 -42 44h-24c-6 0 -10 4 -10 10v104c0 6 4 10 10 10h74c89 0 133 -43 133 -126v-136c0 -58 21 -84 69 -84c6 0 10 -4 10 -10
v-109c0 -6 -4 -10 -10 -10c-48 0 -69 -27 -69 -85v-138c0 -83 -44 -126 -133 -126z" />
    <glyph glyph-name="asciitilde" unicode="~" 
d="M370 183c-44 0 -74 15 -102 32c-22 14 -41 25 -63 25c-29 0 -48 -20 -63 -46c-3 -5 -9 -7 -14 -3l-81 51c-6 3 -6 8 -4 14c29 64 84 112 149 112c45 0 74 -15 102 -33c23 -14 41 -25 64 -25c29 0 47 20 62 46c3 5 9 7 14 4l82 -52c5 -3 6 -8 3 -14
c-28 -64 -84 -111 -149 -111z" />
    <glyph glyph-name="uni00A0" unicode="&#xa0;" horiz-adv-x="238" 
 />
    <glyph glyph-name="Agrave" unicode="&#xc0;" horiz-adv-x="674" 
d="M10 10l235 660c2 6 6 10 13 10h163c7 0 11 -4 13 -10l230 -660c2 -6 -1 -10 -7 -10h-165c-7 0 -11 4 -13 10l-32 105h-221l-32 -105c-2 -6 -6 -10 -13 -10h-164c-6 0 -9 4 -7 10zM271 261h132l-63 212h-3zM400 747h-115c-9 0 -13 2 -20 9l-128 123c-4 5 -1 10 5 10h142
c8 0 13 -4 18 -10l102 -122c4 -5 2 -10 -4 -10z" />
    <glyph glyph-name="Aacute" unicode="&#xc1;" horiz-adv-x="674" 
d="M10 10l235 660c2 6 6 10 13 10h163c7 0 11 -4 13 -10l230 -660c2 -6 -1 -10 -7 -10h-165c-7 0 -11 4 -13 10l-32 105h-221l-32 -105c-2 -6 -6 -10 -13 -10h-164c-6 0 -9 4 -7 10zM271 261h132l-63 212h-3zM392 747h-115c-6 0 -8 5 -4 10l102 122c5 6 10 10 18 10h142
c6 0 9 -5 5 -10l-128 -123c-7 -7 -11 -9 -20 -9z" />
    <glyph glyph-name="Acircumflex" unicode="&#xc2;" horiz-adv-x="674" 
d="M10 10l235 660c2 6 6 10 13 10h163c7 0 11 -4 13 -10l230 -660c2 -6 -1 -10 -7 -10h-165c-7 0 -11 4 -13 10l-32 105h-221l-32 -105c-2 -6 -6 -10 -13 -10h-164c-6 0 -9 4 -7 10zM271 261h132l-63 212h-3zM504 741h-95c-10 0 -15 2 -23 10l-48 50h-2l-49 -50
c-8 -8 -12 -10 -23 -10h-95c-6 0 -8 5 -4 10l108 137c5 7 11 10 19 10h90c8 0 14 -3 19 -10l108 -137c4 -5 1 -10 -5 -10z" />
    <glyph glyph-name="Atilde" unicode="&#xc3;" horiz-adv-x="674" 
d="M10 10l235 660c2 6 6 10 13 10h163c7 0 11 -4 13 -10l230 -660c2 -6 -1 -10 -7 -10h-165c-7 0 -11 4 -13 10l-32 105h-221l-32 -105c-2 -6 -6 -10 -13 -10h-164c-6 0 -9 4 -7 10zM271 261h132l-63 212h-3zM405 740c-36 0 -59 11 -83 23c-20 10 -37 18 -60 18
c-30 0 -50 -13 -76 -33c-5 -4 -10 -2 -10 4v81c0 10 2 14 9 22c22 22 49 37 81 37c37 0 60 -12 84 -24c20 -9 37 -17 60 -17c29 0 50 13 75 32c6 4 11 2 11 -3v-81c0 -10 -2 -15 -10 -22c-22 -22 -49 -37 -81 -37z" />
    <glyph glyph-name="Adieresis" unicode="&#xc4;" horiz-adv-x="674" 
d="M10 10l235 660c2 6 6 10 13 10h163c7 0 11 -4 13 -10l230 -660c2 -6 -1 -10 -7 -10h-165c-7 0 -11 4 -13 10l-32 105h-221l-32 -105c-2 -6 -6 -10 -13 -10h-164c-6 0 -9 4 -7 10zM271 261h132l-63 212h-3zM493 750h-107c-6 0 -10 4 -10 10v110c0 6 4 10 10 10h107
c6 0 10 -4 10 -10v-110c0 -6 -4 -10 -10 -10zM287 750h-107c-6 0 -10 4 -10 10v110c0 6 4 10 10 10h107c6 0 10 -4 10 -10v-110c0 -6 -4 -10 -10 -10z" />
    <glyph glyph-name="Amacron" unicode="&#x100;" horiz-adv-x="674" 
d="M10 10l235 660c2 6 6 10 13 10h163c7 0 11 -4 13 -10l230 -660c2 -6 -1 -10 -7 -10h-165c-7 0 -11 4 -13 10l-32 105h-221l-32 -105c-2 -6 -6 -10 -13 -10h-164c-6 0 -9 4 -7 10zM271 261h132l-63 212h-3zM487 761h-301c-6 0 -10 4 -10 10v90c0 6 4 10 10 10h301
c6 0 10 -4 10 -10v-90c0 -6 -4 -10 -10 -10z" />
    <glyph glyph-name="Abreve" unicode="&#x102;" horiz-adv-x="674" 
d="M10 10l235 660c2 6 6 10 13 10h163c7 0 11 -4 13 -10l230 -660c2 -6 -1 -10 -7 -10h-165c-7 0 -11 4 -13 10l-32 105h-221l-32 -105c-2 -6 -6 -10 -13 -10h-164c-6 0 -9 4 -7 10zM271 261h132l-63 212h-3zM336 734c-91 0 -158 61 -160 141c0 6 4 10 12 10h65
c8 0 11 -3 14 -10c12 -26 34 -40 69 -40c36 0 58 14 70 40c3 7 6 10 14 10h65c8 0 12 -4 12 -10c-2 -80 -69 -141 -161 -141z" />
    <glyph glyph-name="Aring" unicode="&#xc5;" horiz-adv-x="674" 
d="M10 10l235 660c2 6 6 10 13 10h163c7 0 11 -4 13 -10l230 -660c2 -6 -1 -10 -7 -10h-165c-7 0 -11 4 -13 10l-32 105h-221l-32 -105c-2 -6 -6 -10 -13 -10h-164c-6 0 -9 4 -7 10zM271 261h132l-63 212h-3zM336 704c-65 0 -114 48 -114 114c0 65 49 113 114 113
c66 0 115 -48 115 -113c0 -66 -49 -114 -115 -114zM336 773c25 0 44 19 44 45c0 25 -19 44 -44 44c-24 0 -43 -19 -43 -44c0 -26 19 -45 43 -45z" />
    <glyph glyph-name="Aogonek" unicode="&#x104;" horiz-adv-x="674" 
d="M555 -192c-68 0 -110 39 -110 97c0 43 23 72 54 95h-11c-5 1 -7 4 -9 10l-32 105h-220l-33 -105c-2 -6 -4 -10 -10 -10h-165c-6 0 -11 4 -9 10l235 660c2 6 5 10 11 10h166c6 0 10 -4 12 -10l230 -660c1 -5 -1 -9 -9 -11c-72 -29 -89 -49 -89 -65c0 -9 5 -16 17 -16
c9 0 15 3 25 8c5 3 10 2 13 -3l38 -71c3 -5 1 -10 -4 -13c-33 -22 -67 -31 -100 -31zM337 473l-67 -212h134l-64 212h-3z" />
    <glyph glyph-name="AE" unicode="&#xc6;" horiz-adv-x="931" 
d="M884 0h-445c-6 0 -10 4 -10 10v99c0 4 -2 6 -6 6h-178l-45 -105c-3 -7 -7 -10 -14 -10h-168c-7 0 -10 4 -7 10l303 660c3 6 7 10 14 10h556c6 0 10 -4 10 -10v-129c0 -6 -4 -10 -10 -10h-273c-4 0 -6 -2 -6 -6v-103c0 -4 2 -6 6 -6h224c6 0 10 -4 10 -10v-126
c0 -6 -4 -10 -10 -10h-224c-4 0 -6 -2 -6 -6v-109c0 -4 2 -6 6 -6h273c6 0 10 -4 10 -10v-129c0 -6 -4 -10 -10 -10zM426 531l-117 -270h114c4 0 6 2 6 6v264h-3z" />
    <glyph glyph-name="Cacute" unicode="&#x106;" horiz-adv-x="574" 
d="M59 156c-15 46 -20 83 -20 184s5 138 20 184c36 111 124 168 247 168c120 0 206 -57 244 -155c3 -7 2 -11 -5 -14l-133 -58c-7 -3 -11 -1 -14 6c-19 40 -43 64 -89 64c-43 0 -70 -21 -82 -59c-7 -21 -10 -42 -10 -136s3 -115 10 -136c12 -38 39 -59 82 -59
c46 0 70 24 89 64c3 7 7 9 14 6l133 -58c7 -3 8 -7 5 -14c-38 -98 -124 -155 -244 -155c-123 0 -211 57 -247 168zM340 747h-115c-6 0 -8 5 -4 10l102 122c5 6 10 10 18 10h142c6 0 9 -5 5 -10l-128 -123c-7 -7 -11 -9 -20 -9z" />
    <glyph glyph-name="Ccircumflex" unicode="&#x108;" horiz-adv-x="574" 
d="M59 156c-15 46 -20 83 -20 184s5 138 20 184c36 111 124 168 247 168c120 0 206 -57 244 -155c3 -7 2 -11 -5 -14l-133 -58c-7 -3 -11 -1 -14 6c-19 40 -43 64 -89 64c-43 0 -70 -21 -82 -59c-7 -21 -10 -42 -10 -136s3 -115 10 -136c12 -38 39 -59 82 -59
c46 0 70 24 89 64c3 7 7 9 14 6l133 -58c7 -3 8 -7 5 -14c-38 -98 -124 -155 -244 -155c-123 0 -211 57 -247 168zM471 741h-95c-10 0 -15 2 -23 10l-48 50h-2l-49 -50c-8 -8 -12 -10 -23 -10h-95c-6 0 -8 5 -4 10l108 137c5 7 11 10 19 10h90c8 0 14 -3 19 -10l108 -137
c4 -5 1 -10 -5 -10z" />
    <glyph glyph-name="Ccaron" unicode="&#x10c;" horiz-adv-x="574" 
d="M59 156c-15 46 -20 83 -20 184s5 138 20 184c36 111 124 168 247 168c120 0 206 -57 244 -155c3 -7 2 -11 -5 -14l-133 -58c-7 -3 -11 -1 -14 6c-19 40 -43 64 -89 64c-43 0 -70 -21 -82 -59c-7 -21 -10 -42 -10 -136s3 -115 10 -136c12 -38 39 -59 82 -59
c46 0 70 24 89 64c3 7 7 9 14 6l133 -58c7 -3 8 -7 5 -14c-38 -98 -124 -155 -244 -155c-123 0 -211 57 -247 168zM348 736h-90c-8 0 -14 3 -19 10l-108 136c-4 5 -2 10 4 10h95c11 0 15 -2 23 -10l49 -49h2l48 49c8 8 13 10 23 10h95c6 0 9 -5 5 -10l-108 -136
c-5 -7 -11 -10 -19 -10z" />
    <glyph glyph-name="Cdotaccent" unicode="&#x10a;" horiz-adv-x="574" 
d="M370 750h-138c-6 0 -10 4 -10 10v110c0 6 4 10 10 10h138c6 0 10 -4 10 -10v-110c0 -6 -4 -10 -10 -10zM59 156c-15 46 -20 83 -20 184s5 138 20 184c36 111 124 168 247 168c120 0 206 -57 244 -155c3 -7 2 -11 -5 -14l-133 -58c-7 -3 -11 -1 -14 6
c-19 40 -43 64 -89 64c-43 0 -70 -21 -82 -59c-7 -21 -10 -42 -10 -136s3 -115 10 -136c12 -38 39 -59 82 -59c46 0 70 24 89 64c3 7 7 9 14 6l133 -58c7 -3 8 -7 5 -14c-38 -98 -124 -155 -244 -155c-123 0 -211 57 -247 168z" />
    <glyph glyph-name="Ccedilla" unicode="&#xc7;" horiz-adv-x="574" 
d="M307 -166h-115c-6 0 -9 4 -7 10l59 149c-91 16 -156 71 -185 163c-15 46 -20 83 -20 184s5 138 20 184c36 111 124 168 247 168c120 0 206 -57 244 -155c3 -7 2 -11 -5 -14l-133 -58c-7 -3 -11 -1 -14 6c-19 40 -43 64 -89 64c-43 0 -70 -21 -82 -59
c-7 -21 -10 -42 -10 -136s3 -115 10 -136c12 -38 39 -59 82 -59c46 0 70 24 89 64c3 7 7 9 14 6l133 -58c7 -3 8 -7 5 -14c-31 -81 -95 -134 -183 -150l-44 -149c-2 -7 -8 -10 -16 -10z" />
    <glyph glyph-name="Dcaron" unicode="&#x10e;" horiz-adv-x="631" 
d="M340 736h-90c-8 0 -14 3 -19 10l-108 136c-4 5 -2 10 4 10h95c11 0 15 -2 23 -10l49 -49h2l48 49c8 8 13 10 23 10h95c6 0 9 -5 5 -10l-108 -136c-5 -7 -11 -10 -19 -10zM55 10v660c0 6 4 10 10 10h263c120 0 208 -50 242 -155c14 -44 20 -82 20 -185
c0 -102 -6 -141 -20 -185c-34 -105 -122 -155 -242 -155h-263c-6 0 -10 4 -10 10zM231 162c0 -4 2 -6 6 -6h53c62 0 96 17 112 65c6 20 10 43 10 119s-4 99 -10 119c-16 48 -50 65 -112 65h-53c-4 0 -6 -2 -6 -6v-356z" />
    <glyph glyph-name="Dcroat" unicode="&#x110;" horiz-adv-x="631" 
d="M328 0h-263c-6 0 -10 4 -10 10v266c0 4 -2 6 -6 6h-25c-6 0 -10 4 -10 10v102c0 6 4 10 10 10h25c4 0 6 2 6 6v260c0 6 4 10 10 10h263c120 0 208 -50 242 -155c14 -44 20 -82 20 -185c0 -102 -6 -141 -20 -185c-34 -105 -122 -155 -242 -155zM290 156c62 0 96 17 112 65
c6 20 10 43 10 119s-4 99 -10 119c-16 48 -50 65 -112 65h-53c-4 0 -6 -2 -6 -6v-108c0 -4 2 -6 6 -6h70c6 0 10 -4 10 -10v-102c0 -6 -4 -10 -10 -10h-70c-4 0 -6 -2 -6 -6v-114c0 -4 2 -6 6 -6h53z" />
    <glyph glyph-name="Eth" unicode="&#xd0;" horiz-adv-x="631" 
d="M328 0h-263c-6 0 -10 4 -10 10v266c0 4 -2 6 -6 6h-25c-6 0 -10 4 -10 10v102c0 6 4 10 10 10h25c4 0 6 2 6 6v260c0 6 4 10 10 10h263c120 0 208 -50 242 -155c14 -44 20 -82 20 -185c0 -102 -6 -141 -20 -185c-34 -105 -122 -155 -242 -155zM290 156c62 0 96 17 112 65
c6 20 10 43 10 119s-4 99 -10 119c-16 48 -50 65 -112 65h-53c-4 0 -6 -2 -6 -6v-108c0 -4 2 -6 6 -6h70c6 0 10 -4 10 -10v-102c0 -6 -4 -10 -10 -10h-70c-4 0 -6 -2 -6 -6v-114c0 -4 2 -6 6 -6h53z" />
    <glyph glyph-name="Egrave" unicode="&#xc8;" horiz-adv-x="557" 
d="M367 747h-115c-9 0 -13 2 -20 9l-128 123c-4 5 -1 10 5 10h142c8 0 13 -4 18 -10l102 -122c4 -5 2 -10 -4 -10zM55 10v660c0 6 4 10 10 10h445c6 0 10 -4 10 -10v-129c0 -6 -4 -10 -10 -10h-273c-4 0 -6 -2 -6 -6v-103c0 -4 2 -6 6 -6h224c6 0 10 -4 10 -10v-126
c0 -6 -4 -10 -10 -10h-224c-4 0 -6 -2 -6 -6v-109c0 -4 2 -6 6 -6h273c6 0 10 -4 10 -10v-129c0 -6 -4 -10 -10 -10h-445c-6 0 -10 4 -10 10z" />
    <glyph glyph-name="Eacute" unicode="&#xc9;" horiz-adv-x="557" 
d="M310 747h-115c-6 0 -8 5 -4 10l102 122c5 6 10 10 18 10h142c6 0 9 -5 5 -10l-128 -123c-7 -7 -11 -9 -20 -9zM55 10v660c0 6 4 10 10 10h445c6 0 10 -4 10 -10v-129c0 -6 -4 -10 -10 -10h-273c-4 0 -6 -2 -6 -6v-103c0 -4 2 -6 6 -6h224c6 0 10 -4 10 -10v-126
c0 -6 -4 -10 -10 -10h-224c-4 0 -6 -2 -6 -6v-109c0 -4 2 -6 6 -6h273c6 0 10 -4 10 -10v-129c0 -6 -4 -10 -10 -10h-445c-6 0 -10 4 -10 10z" />
    <glyph glyph-name="Ecircumflex" unicode="&#xca;" horiz-adv-x="557" 
d="M55 10v660c0 6 4 10 10 10h445c6 0 10 -4 10 -10v-129c0 -6 -4 -10 -10 -10h-273c-4 0 -6 -2 -6 -6v-103c0 -4 2 -6 6 -6h224c6 0 10 -4 10 -10v-126c0 -6 -4 -10 -10 -10h-224c-4 0 -6 -2 -6 -6v-109c0 -4 2 -6 6 -6h273c6 0 10 -4 10 -10v-129c0 -6 -4 -10 -10 -10
h-445c-6 0 -10 4 -10 10zM456 741h-95c-10 0 -15 2 -23 10l-48 50h-2l-49 -50c-8 -8 -12 -10 -23 -10h-95c-6 0 -8 5 -4 10l108 137c5 7 11 10 19 10h90c8 0 14 -3 19 -10l108 -137c4 -5 1 -10 -5 -10z" />
    <glyph glyph-name="Ecaron" unicode="&#x11a;" horiz-adv-x="557" 
d="M330 736h-90c-8 0 -14 3 -19 10l-108 136c-4 5 -2 10 4 10h95c11 0 15 -2 23 -10l49 -49h2l48 49c8 8 13 10 23 10h95c6 0 9 -5 5 -10l-108 -136c-5 -7 -11 -10 -19 -10zM55 10v660c0 6 4 10 10 10h445c6 0 10 -4 10 -10v-129c0 -6 -4 -10 -10 -10h-273c-4 0 -6 -2 -6 -6
v-103c0 -4 2 -6 6 -6h224c6 0 10 -4 10 -10v-126c0 -6 -4 -10 -10 -10h-224c-4 0 -6 -2 -6 -6v-109c0 -4 2 -6 6 -6h273c6 0 10 -4 10 -10v-129c0 -6 -4 -10 -10 -10h-445c-6 0 -10 4 -10 10z" />
    <glyph glyph-name="Edieresis" unicode="&#xcb;" horiz-adv-x="557" 
d="M443 750h-107c-6 0 -10 4 -10 10v110c0 6 4 10 10 10h107c6 0 10 -4 10 -10v-110c0 -6 -4 -10 -10 -10zM237 750h-107c-6 0 -10 4 -10 10v110c0 6 4 10 10 10h107c6 0 10 -4 10 -10v-110c0 -6 -4 -10 -10 -10zM55 10v660c0 6 4 10 10 10h445c6 0 10 -4 10 -10v-129
c0 -6 -4 -10 -10 -10h-273c-4 0 -6 -2 -6 -6v-103c0 -4 2 -6 6 -6h224c6 0 10 -4 10 -10v-126c0 -6 -4 -10 -10 -10h-224c-4 0 -6 -2 -6 -6v-109c0 -4 2 -6 6 -6h273c6 0 10 -4 10 -10v-129c0 -6 -4 -10 -10 -10h-445c-6 0 -10 4 -10 10z" />
    <glyph glyph-name="Emacron" unicode="&#x112;" horiz-adv-x="557" 
d="M437 761h-301c-6 0 -10 4 -10 10v90c0 6 4 10 10 10h301c6 0 10 -4 10 -10v-90c0 -6 -4 -10 -10 -10zM55 10v660c0 6 4 10 10 10h445c6 0 10 -4 10 -10v-129c0 -6 -4 -10 -10 -10h-273c-4 0 -6 -2 -6 -6v-103c0 -4 2 -6 6 -6h224c6 0 10 -4 10 -10v-126
c0 -6 -4 -10 -10 -10h-224c-4 0 -6 -2 -6 -6v-109c0 -4 2 -6 6 -6h273c6 0 10 -4 10 -10v-129c0 -6 -4 -10 -10 -10h-445c-6 0 -10 4 -10 10z" />
    <glyph glyph-name="Ebreve" unicode="&#x114;" horiz-adv-x="557" 
d="M282 734c-91 0 -158 61 -160 141c0 6 4 10 12 10h65c8 0 11 -3 14 -10c12 -26 34 -40 69 -40c36 0 58 14 70 40c3 7 6 10 14 10h65c8 0 12 -4 12 -10c-2 -80 -69 -141 -161 -141zM55 10v660c0 6 4 10 10 10h445c6 0 10 -4 10 -10v-129c0 -6 -4 -10 -10 -10h-273
c-4 0 -6 -2 -6 -6v-103c0 -4 2 -6 6 -6h224c6 0 10 -4 10 -10v-126c0 -6 -4 -10 -10 -10h-224c-4 0 -6 -2 -6 -6v-109c0 -4 2 -6 6 -6h273c6 0 10 -4 10 -10v-129c0 -6 -4 -10 -10 -10h-445c-6 0 -10 4 -10 10z" />
    <glyph glyph-name="Edotaccent" unicode="&#x116;" horiz-adv-x="557" 
d="M351 750h-138c-6 0 -10 4 -10 10v110c0 6 4 10 10 10h138c6 0 10 -4 10 -10v-110c0 -6 -4 -10 -10 -10zM55 10v660c0 6 4 10 10 10h445c6 0 10 -4 10 -10v-129c0 -6 -4 -10 -10 -10h-273c-4 0 -6 -2 -6 -6v-103c0 -4 2 -6 6 -6h224c6 0 10 -4 10 -10v-126
c0 -6 -4 -10 -10 -10h-224c-4 0 -6 -2 -6 -6v-109c0 -4 2 -6 6 -6h273c6 0 10 -4 10 -10v-129c0 -6 -4 -10 -10 -10h-445c-6 0 -10 4 -10 10z" />
    <glyph glyph-name="Eogonek" unicode="&#x118;" horiz-adv-x="557" 
d="M403 -192c-68 0 -110 39 -110 97c0 43 22 72 53 95h-281c-6 0 -10 4 -10 10v660c0 6 4 10 10 10h445c6 0 10 -4 10 -10v-129c0 -6 -4 -10 -10 -10h-273c-4 0 -6 -2 -6 -6v-103c0 -4 2 -6 6 -6h224c6 0 10 -4 10 -10v-126c0 -6 -4 -10 -10 -10h-224c-4 0 -6 -2 -6 -6v-109
c0 -4 2 -6 6 -6h273c6 0 10 -4 10 -10v-129c0 -6 -4 -10 -10 -10h-11c-70 -32 -85 -50 -85 -66c0 -9 5 -16 17 -16c8 0 15 3 24 8c6 3 11 2 14 -4l37 -69c3 -6 2 -11 -3 -14c-32 -21 -67 -31 -100 -31z" />
    <glyph glyph-name="Gcircumflex" unicode="&#x11c;" horiz-adv-x="628" 
d="M59 155c-16 52 -20 92 -20 185s4 133 20 185c36 111 135 167 256 167c125 0 209 -58 247 -145c3 -7 1 -13 -5 -16l-130 -55c-6 -3 -12 -1 -15 4c-23 37 -50 55 -97 55c-46 0 -76 -22 -88 -60c-8 -24 -10 -54 -10 -135s3 -112 10 -135c13 -38 44 -60 93 -60
c44 0 79 19 90 54c4 12 6 26 6 44c0 4 -2 6 -6 6h-74c-6 0 -10 4 -10 10v113c0 6 4 10 10 10h243c6 0 10 -4 10 -10v-52c0 -65 -4 -116 -18 -158c-36 -113 -132 -174 -256 -174c-121 0 -220 56 -256 167zM481 741h-95c-10 0 -15 2 -23 10l-48 50h-2l-49 -50
c-8 -8 -12 -10 -23 -10h-95c-6 0 -8 5 -4 10l108 137c5 7 11 10 19 10h90c8 0 14 -3 19 -10l108 -137c4 -5 1 -10 -5 -10z" />
    <glyph glyph-name="Gbreve" unicode="&#x11e;" horiz-adv-x="628" 
d="M313 734c-91 0 -158 61 -160 141c0 6 4 10 12 10h65c8 0 11 -3 14 -10c12 -26 34 -40 69 -40c36 0 58 14 70 40c3 7 6 10 14 10h65c8 0 12 -4 12 -10c-2 -80 -69 -141 -161 -141zM59 155c-16 52 -20 92 -20 185s4 133 20 185c36 111 135 167 256 167
c125 0 209 -58 247 -145c3 -7 1 -13 -5 -16l-130 -55c-6 -3 -12 -1 -15 4c-23 37 -50 55 -97 55c-46 0 -76 -22 -88 -60c-8 -24 -10 -54 -10 -135s3 -112 10 -135c13 -38 44 -60 93 -60c44 0 79 19 90 54c4 12 6 26 6 44c0 4 -2 6 -6 6h-74c-6 0 -10 4 -10 10v113
c0 6 4 10 10 10h243c6 0 10 -4 10 -10v-52c0 -65 -4 -116 -18 -158c-36 -113 -132 -174 -256 -174c-121 0 -220 56 -256 167z" />
    <glyph glyph-name="Gdotaccent" unicode="&#x120;" horiz-adv-x="628" 
d="M382 750h-138c-6 0 -10 4 -10 10v110c0 6 4 10 10 10h138c6 0 10 -4 10 -10v-110c0 -6 -4 -10 -10 -10zM59 155c-16 52 -20 92 -20 185s4 133 20 185c36 111 135 167 256 167c125 0 209 -58 247 -145c3 -7 1 -13 -5 -16l-130 -55c-6 -3 -12 -1 -15 4
c-23 37 -50 55 -97 55c-46 0 -76 -22 -88 -60c-8 -24 -10 -54 -10 -135s3 -112 10 -135c13 -38 44 -60 93 -60c44 0 79 19 90 54c4 12 6 26 6 44c0 4 -2 6 -6 6h-74c-6 0 -10 4 -10 10v113c0 6 4 10 10 10h243c6 0 10 -4 10 -10v-52c0 -65 -4 -116 -18 -158
c-36 -113 -132 -174 -256 -174c-121 0 -220 56 -256 167z" />
    <glyph glyph-name="Gcommaaccent" unicode="&#x122;" horiz-adv-x="628" 
d="M255 -248c-7 0 -11 5 -11 13v179c0 6 4 10 10 10h120c6 0 10 -4 10 -10v-89c0 -9 -2 -15 -9 -20l-103 -75c-7 -5 -12 -8 -17 -8zM59 155c-16 52 -20 92 -20 185s4 133 20 185c36 111 135 167 256 167c125 0 209 -58 247 -145c3 -7 1 -13 -5 -16l-130 -55
c-6 -3 -12 -1 -15 4c-23 37 -50 55 -97 55c-46 0 -76 -22 -88 -60c-8 -24 -10 -54 -10 -135s3 -112 10 -135c13 -38 44 -60 93 -60c44 0 79 19 90 54c4 12 6 26 6 44c0 4 -2 6 -6 6h-74c-6 0 -10 4 -10 10v113c0 6 4 10 10 10h243c6 0 10 -4 10 -10v-52
c0 -65 -4 -116 -18 -158c-36 -113 -132 -174 -256 -174c-121 0 -220 56 -256 167z" />
    <glyph glyph-name="Hcircumflex" unicode="&#x124;" horiz-adv-x="659" 
d="M55 10v660c0 6 4 10 10 10h156c6 0 10 -4 10 -10v-241c0 -4 2 -6 6 -6h185c4 0 6 2 6 6v241c0 6 4 10 10 10h156c6 0 10 -4 10 -10v-660c0 -6 -4 -10 -10 -10h-156c-6 0 -10 4 -10 10v251c0 4 -2 6 -6 6h-185c-4 0 -6 -2 -6 -6v-251c0 -6 -4 -10 -10 -10h-156
c-6 0 -10 4 -10 10zM496 741h-95c-10 0 -15 2 -23 10l-48 50h-2l-49 -50c-8 -8 -12 -10 -23 -10h-95c-6 0 -8 5 -4 10l108 137c5 7 11 10 19 10h90c8 0 14 -3 19 -10l108 -137c4 -5 1 -10 -5 -10z" />
    <glyph glyph-name="Hbar" unicode="&#x126;" horiz-adv-x="659" 
d="M594 0h-156c-6 0 -10 4 -10 10v251c0 4 -2 6 -6 6h-185c-4 0 -6 -2 -6 -6v-251c0 -6 -4 -10 -10 -10h-156c-6 0 -10 4 -10 10v482c0 4 -2 6 -6 6h-29c-6 0 -10 4 -10 10v86c0 6 4 10 10 10h29c4 0 6 2 6 6v60c0 6 4 10 10 10h156c6 0 10 -4 10 -10v-60c0 -4 2 -6 6 -6
h185c4 0 6 2 6 6v60c0 6 4 10 10 10h156c6 0 10 -4 10 -10v-60c0 -4 2 -6 6 -6h29c6 0 10 -4 10 -10v-86c0 -6 -4 -10 -10 -10h-29c-4 0 -6 -2 -6 -6v-482c0 -6 -4 -10 -10 -10zM422 423c4 0 6 2 6 6v63c0 4 -2 6 -6 6h-185c-4 0 -6 -2 -6 -6v-63c0 -4 2 -6 6 -6h185z" />
    <glyph glyph-name="Igrave" unicode="&#xcc;" horiz-adv-x="286" 
d="M55 10v660c0 6 4 10 10 10h156c6 0 10 -4 10 -10v-660c0 -6 -4 -10 -10 -10h-156c-6 0 -10 4 -10 10zM209 747h-115c-9 0 -13 2 -20 9l-128 123c-4 5 -1 10 5 10h142c8 0 13 -4 18 -10l102 -122c4 -5 2 -10 -4 -10z" />
    <glyph glyph-name="Iacute" unicode="&#xcd;" horiz-adv-x="286" 
d="M55 10v660c0 6 4 10 10 10h156c6 0 10 -4 10 -10v-660c0 -6 -4 -10 -10 -10h-156c-6 0 -10 4 -10 10zM194 747h-115c-6 0 -8 5 -4 10l102 122c5 6 10 10 18 10h142c6 0 9 -5 5 -10l-128 -123c-7 -7 -11 -9 -20 -9z" />
    <glyph glyph-name="Icircumflex" unicode="&#xce;" horiz-adv-x="286" 
d="M55 10v660c0 6 4 10 10 10h156c6 0 10 -4 10 -10v-660c0 -6 -4 -10 -10 -10h-156c-6 0 -10 4 -10 10zM311 741h-95c-10 0 -15 2 -23 10l-48 50h-2l-49 -50c-8 -8 -12 -10 -23 -10h-95c-6 0 -8 5 -4 10l108 137c5 7 11 10 19 10h90c8 0 14 -3 19 -10l108 -137
c4 -5 1 -10 -5 -10z" />
    <glyph glyph-name="Itilde" unicode="&#x128;" horiz-adv-x="286" 
d="M55 10v660c0 6 4 10 10 10h156c6 0 10 -4 10 -10v-660c0 -6 -4 -10 -10 -10h-156c-6 0 -10 4 -10 10zM213 740c-36 0 -59 11 -83 23c-20 10 -37 18 -60 18c-30 0 -50 -13 -76 -33c-5 -4 -10 -2 -10 4v81c0 10 2 14 9 22c22 22 49 37 81 37c37 0 60 -12 84 -24
c20 -9 37 -17 60 -17c29 0 50 13 75 32c6 4 11 2 11 -3v-81c0 -10 -2 -15 -10 -22c-22 -22 -49 -37 -81 -37z" />
    <glyph glyph-name="Idieresis" unicode="&#xcf;" horiz-adv-x="286" 
d="M55 10v660c0 6 4 10 10 10h156c6 0 10 -4 10 -10v-660c0 -6 -4 -10 -10 -10h-156c-6 0 -10 4 -10 10zM300 750h-107c-6 0 -10 4 -10 10v110c0 6 4 10 10 10h107c6 0 10 -4 10 -10v-110c0 -6 -4 -10 -10 -10zM94 750h-107c-6 0 -10 4 -10 10v110c0 6 4 10 10 10h107
c6 0 10 -4 10 -10v-110c0 -6 -4 -10 -10 -10z" />
    <glyph glyph-name="Imacron" unicode="&#x12a;" horiz-adv-x="286" 
d="M55 10v660c0 6 4 10 10 10h156c6 0 10 -4 10 -10v-660c0 -6 -4 -10 -10 -10h-156c-6 0 -10 4 -10 10zM295 761h-301c-6 0 -10 4 -10 10v90c0 6 4 10 10 10h301c6 0 10 -4 10 -10v-90c0 -6 -4 -10 -10 -10z" />
    <glyph glyph-name="Idotaccent" unicode="&#x130;" horiz-adv-x="286" 
d="M55 10v660c0 6 4 10 10 10h156c6 0 10 -4 10 -10v-660c0 -6 -4 -10 -10 -10h-156c-6 0 -10 4 -10 10zM213 750h-138c-6 0 -10 4 -10 10v110c0 6 4 10 10 10h138c6 0 10 -4 10 -10v-110c0 -6 -4 -10 -10 -10z" />
    <glyph glyph-name="Ibreve" unicode="&#x12c;" horiz-adv-x="286" 
d="M55 10v660c0 6 4 10 10 10h156c6 0 10 -4 10 -10v-660c0 -6 -4 -10 -10 -10h-156c-6 0 -10 4 -10 10zM144 734c-91 0 -158 61 -160 141c0 6 4 10 12 10h65c8 0 11 -3 14 -10c12 -26 34 -40 69 -40c36 0 58 14 70 40c3 7 6 10 14 10h65c8 0 12 -4 12 -10
c-2 -80 -69 -141 -161 -141z" />
    <glyph glyph-name="Iogonek" unicode="&#x12e;" horiz-adv-x="286" 
d="M134 -192c-68 0 -110 39 -110 97c0 43 23 71 50 95h-9c-6 0 -10 4 -10 10v660c0 6 4 10 10 10h156c6 0 10 -4 10 -10v-659c0 -6 -3 -9 -7 -11c-70 -36 -79 -51 -79 -66c0 -9 5 -16 17 -16c8 0 16 3 25 8c5 3 10 2 13 -3l38 -71c3 -5 1 -10 -4 -13
c-33 -22 -67 -31 -100 -31z" />
    <glyph glyph-name="Jcircumflex" unicode="&#x134;" horiz-adv-x="534" 
d="M18 81c-3 5 -3 10 1 14l111 88c5 4 10 3 14 -2c18 -20 42 -36 75 -36c56 0 86 34 86 100v425c0 6 4 10 10 10h156c6 0 10 -4 10 -10v-411c0 -180 -94 -271 -260 -271c-88 0 -168 39 -203 93zM558 741h-95c-10 0 -15 2 -23 10l-48 50h-2l-49 -50c-8 -8 -12 -10 -23 -10
h-95c-6 0 -8 5 -4 10l108 137c5 7 11 10 19 10h90c8 0 14 -3 19 -10l108 -137c4 -5 1 -10 -5 -10z" />
    <glyph glyph-name="Kcommaaccent" unicode="&#x136;" horiz-adv-x="657" 
d="M270 -248c-7 0 -11 5 -11 13v179c0 6 4 10 10 10h120c6 0 10 -4 10 -10v-89c0 -9 -2 -15 -9 -20l-103 -75c-7 -5 -12 -8 -17 -8zM55 10v660c0 6 4 10 10 10h156c6 0 10 -4 10 -10v-266l195 267c5 6 9 9 17 9h176c8 0 10 -7 6 -13l-203 -263l215 -393c3 -5 1 -11 -6 -11
h-179c-9 0 -13 3 -16 9l-132 256l-73 -97v-158c0 -6 -4 -10 -10 -10h-156c-6 0 -10 4 -10 10z" />
    <glyph glyph-name="Lacute" unicode="&#x139;" horiz-adv-x="554" 
d="M205 747h-115c-6 0 -8 5 -4 10l102 122c5 6 10 10 18 10h142c6 0 9 -5 5 -10l-128 -123c-7 -7 -11 -9 -20 -9zM55 10v660c0 6 4 10 10 10h156c6 0 10 -4 10 -10v-508c0 -4 2 -6 6 -6h288c6 0 10 -4 10 -10v-136c0 -6 -4 -10 -10 -10h-460c-6 0 -10 4 -10 10z" />
    <glyph glyph-name="Lcaron" unicode="&#x13d;" horiz-adv-x="554" 
d="M302 472c-7 0 -11 5 -11 13v185c0 6 4 10 10 10h109c6 0 10 -4 10 -10v-94c0 -10 -2 -15 -9 -21l-92 -75c-7 -6 -12 -8 -17 -8zM55 10v660c0 6 4 10 10 10h156c6 0 10 -4 10 -10v-508c0 -4 2 -6 6 -6h288c6 0 10 -4 10 -10v-136c0 -6 -4 -10 -10 -10h-460
c-6 0 -10 4 -10 10z" />
    <glyph glyph-name="Lcommaaccent" unicode="&#x13b;" horiz-adv-x="554" 
d="M225 -248c-7 0 -11 5 -11 13v179c0 6 4 10 10 10h120c6 0 10 -4 10 -10v-89c0 -9 -2 -15 -9 -20l-103 -75c-7 -5 -12 -8 -17 -8zM55 10v660c0 6 4 10 10 10h156c6 0 10 -4 10 -10v-508c0 -4 2 -6 6 -6h288c6 0 10 -4 10 -10v-136c0 -6 -4 -10 -10 -10h-460
c-6 0 -10 4 -10 10z" />
    <glyph glyph-name="Lslash" unicode="&#x141;" horiz-adv-x="554" 
d="M525 0h-460c-6 0 -10 4 -10 10v231l-40 -20c-6 -3 -10 0 -10 6v107c0 6 2 10 10 14l40 20v302c0 6 4 10 10 10h156c6 0 10 -4 10 -10v-220l128 66c6 3 10 0 10 -6v-108c0 -6 -2 -10 -10 -14l-128 -65v-161c0 -4 2 -6 6 -6h288c6 0 10 -4 10 -10v-136c0 -6 -4 -10 -10 -10
z" />
    <glyph glyph-name="Ldot" unicode="&#x13f;" horiz-adv-x="554" 
d="M55 10v660c0 6 4 10 10 10h156c6 0 10 -4 10 -10v-508c0 -4 2 -6 6 -6h288c6 0 10 -4 10 -10v-136c0 -6 -4 -10 -10 -10h-460c-6 0 -10 4 -10 10zM490 265h-139c-6 0 -10 4 -10 10v138c0 6 4 10 10 10h139c6 0 10 -4 10 -10v-138c0 -6 -4 -10 -10 -10z" />
    <glyph glyph-name="Nacute" unicode="&#x143;" horiz-adv-x="653" 
d="M345 747h-115c-6 0 -8 5 -4 10l102 122c5 6 10 10 18 10h142c6 0 9 -5 5 -10l-128 -123c-7 -7 -11 -9 -20 -9zM55 10v660c0 6 4 10 10 10h147c7 0 14 -3 17 -10l205 -385h4v385c0 6 4 10 10 10h140c6 0 10 -4 10 -10v-660c0 -6 -4 -10 -10 -10h-147c-7 0 -14 3 -17 10
l-203 384h-6v-384c0 -6 -4 -10 -10 -10h-140c-6 0 -10 4 -10 10z" />
    <glyph glyph-name="Ncaron" unicode="&#x147;" horiz-adv-x="653" 
d="M371 736h-90c-8 0 -14 3 -19 10l-108 136c-4 5 -2 10 4 10h95c11 0 15 -2 23 -10l49 -49h2l48 49c8 8 13 10 23 10h95c6 0 9 -5 5 -10l-108 -136c-5 -7 -11 -10 -19 -10zM55 10v660c0 6 4 10 10 10h147c7 0 14 -3 17 -10l205 -385h4v385c0 6 4 10 10 10h140
c6 0 10 -4 10 -10v-660c0 -6 -4 -10 -10 -10h-147c-7 0 -14 3 -17 10l-203 384h-6v-384c0 -6 -4 -10 -10 -10h-140c-6 0 -10 4 -10 10z" />
    <glyph glyph-name="Ntilde" unicode="&#xd1;" horiz-adv-x="653" 
d="M395 740c-36 0 -59 11 -83 23c-20 10 -37 18 -60 18c-30 0 -50 -13 -76 -33c-5 -4 -10 -2 -10 4v81c0 10 2 14 9 22c22 22 49 37 81 37c37 0 60 -12 84 -24c20 -9 37 -17 60 -17c29 0 50 13 75 32c6 4 11 2 11 -3v-81c0 -10 -2 -15 -10 -22c-22 -22 -49 -37 -81 -37z
M55 10v660c0 6 4 10 10 10h147c7 0 14 -3 17 -10l205 -385h4v385c0 6 4 10 10 10h140c6 0 10 -4 10 -10v-660c0 -6 -4 -10 -10 -10h-147c-7 0 -14 3 -17 10l-203 384h-6v-384c0 -6 -4 -10 -10 -10h-140c-6 0 -10 4 -10 10z" />
    <glyph glyph-name="Ncommaaccent" unicode="&#x145;" horiz-adv-x="653" 
d="M267 -248c-7 0 -11 5 -11 13v179c0 6 4 10 10 10h120c6 0 10 -4 10 -10v-89c0 -9 -2 -15 -9 -20l-103 -75c-7 -5 -12 -8 -17 -8zM55 10v660c0 6 4 10 10 10h147c7 0 14 -3 17 -10l205 -385h4v385c0 6 4 10 10 10h140c6 0 10 -4 10 -10v-660c0 -6 -4 -10 -10 -10h-147
c-7 0 -14 3 -17 10l-203 384h-6v-384c0 -6 -4 -10 -10 -10h-140c-6 0 -10 4 -10 10z" />
    <glyph glyph-name="Eng" unicode="&#x14a;" horiz-adv-x="653" 
d="M376 -187h-38c-6 0 -10 4 -10 10v126c0 6 4 10 10 10h15c41 0 67 13 73 45v2l-205 388h-6v-384c0 -6 -4 -10 -10 -10h-140c-6 0 -10 4 -10 10v660c0 6 4 10 10 10h147c6 0 14 -3 17 -10l205 -385h4v385c0 6 4 10 10 10h140c6 0 10 -4 10 -10v-635
c0 -153 -76 -222 -222 -222z" />
    <glyph glyph-name="Ograve" unicode="&#xd2;" horiz-adv-x="628" 
d="M385 747h-115c-9 0 -13 2 -20 9l-128 123c-4 5 -1 10 5 10h142c8 0 13 -4 18 -10l102 -122c4 -5 2 -10 -4 -10zM314 -12c-120 0 -219 56 -255 167c-16 52 -20 92 -20 185s4 133 20 185c36 111 135 167 255 167s219 -56 255 -167c17 -52 20 -92 20 -185s-3 -133 -20 -185
c-36 -111 -135 -167 -255 -167zM314 145c44 0 75 22 87 60c8 23 10 54 10 135s-2 112 -10 135c-12 38 -43 60 -87 60s-75 -22 -87 -60c-8 -23 -10 -54 -10 -135s2 -112 10 -135c12 -38 43 -60 87 -60z" />
    <glyph glyph-name="Oacute" unicode="&#xd3;" horiz-adv-x="628" 
d="M357 747h-115c-6 0 -8 5 -4 10l102 122c5 6 10 10 18 10h142c6 0 9 -5 5 -10l-128 -123c-7 -7 -11 -9 -20 -9zM314 -12c-120 0 -219 56 -255 167c-16 52 -20 92 -20 185s4 133 20 185c36 111 135 167 255 167s219 -56 255 -167c17 -52 20 -92 20 -185s-3 -133 -20 -185
c-36 -111 -135 -167 -255 -167zM314 145c44 0 75 22 87 60c8 23 10 54 10 135s-2 112 -10 135c-12 38 -43 60 -87 60s-75 -22 -87 -60c-8 -23 -10 -54 -10 -135s2 -112 10 -135c12 -38 43 -60 87 -60z" />
    <glyph glyph-name="Ocircumflex" unicode="&#xd4;" horiz-adv-x="628" 
d="M314 -12c-120 0 -219 56 -255 167c-16 52 -20 92 -20 185s4 133 20 185c36 111 135 167 255 167s219 -56 255 -167c17 -52 20 -92 20 -185s-3 -133 -20 -185c-36 -111 -135 -167 -255 -167zM314 145c44 0 75 22 87 60c8 23 10 54 10 135s-2 112 -10 135
c-12 38 -43 60 -87 60s-75 -22 -87 -60c-8 -23 -10 -54 -10 -135s2 -112 10 -135c12 -38 43 -60 87 -60zM481 741h-95c-10 0 -15 2 -23 10l-48 50h-2l-49 -50c-8 -8 -12 -10 -23 -10h-95c-6 0 -8 5 -4 10l108 137c5 7 11 10 19 10h90c8 0 14 -3 19 -10l108 -137
c4 -5 1 -10 -5 -10z" />
    <glyph glyph-name="Otilde" unicode="&#xd5;" horiz-adv-x="628" 
d="M382 740c-36 0 -59 11 -83 23c-20 10 -37 18 -60 18c-30 0 -50 -13 -76 -33c-5 -4 -10 -2 -10 4v81c0 10 2 14 9 22c22 22 49 37 81 37c37 0 60 -12 84 -24c20 -9 37 -17 60 -17c29 0 50 13 75 32c6 4 11 2 11 -3v-81c0 -10 -2 -15 -10 -22c-22 -22 -49 -37 -81 -37z
M314 -12c-120 0 -219 56 -255 167c-16 52 -20 92 -20 185s4 133 20 185c36 111 135 167 255 167s219 -56 255 -167c17 -52 20 -92 20 -185s-3 -133 -20 -185c-36 -111 -135 -167 -255 -167zM314 145c44 0 75 22 87 60c8 23 10 54 10 135s-2 112 -10 135
c-12 38 -43 60 -87 60s-75 -22 -87 -60c-8 -23 -10 -54 -10 -135s2 -112 10 -135c12 -38 43 -60 87 -60z" />
    <glyph glyph-name="Odieresis" unicode="&#xd6;" horiz-adv-x="628" 
d="M470 750h-107c-6 0 -10 4 -10 10v110c0 6 4 10 10 10h107c6 0 10 -4 10 -10v-110c0 -6 -4 -10 -10 -10zM264 750h-107c-6 0 -10 4 -10 10v110c0 6 4 10 10 10h107c6 0 10 -4 10 -10v-110c0 -6 -4 -10 -10 -10zM314 -12c-120 0 -219 56 -255 167c-16 52 -20 92 -20 185
s4 133 20 185c36 111 135 167 255 167s219 -56 255 -167c17 -52 20 -92 20 -185s-3 -133 -20 -185c-36 -111 -135 -167 -255 -167zM314 145c44 0 75 22 87 60c8 23 10 54 10 135s-2 112 -10 135c-12 38 -43 60 -87 60s-75 -22 -87 -60c-8 -23 -10 -54 -10 -135
s2 -112 10 -135c12 -38 43 -60 87 -60z" />
    <glyph glyph-name="Omacron" unicode="&#x14c;" horiz-adv-x="628" 
d="M464 761h-301c-6 0 -10 4 -10 10v90c0 6 4 10 10 10h301c6 0 10 -4 10 -10v-90c0 -6 -4 -10 -10 -10zM314 -12c-120 0 -219 56 -255 167c-16 52 -20 92 -20 185s4 133 20 185c36 111 135 167 255 167s219 -56 255 -167c17 -52 20 -92 20 -185s-3 -133 -20 -185
c-36 -111 -135 -167 -255 -167zM314 145c44 0 75 22 87 60c8 23 10 54 10 135s-2 112 -10 135c-12 38 -43 60 -87 60s-75 -22 -87 -60c-8 -23 -10 -54 -10 -135s2 -112 10 -135c12 -38 43 -60 87 -60z" />
    <glyph glyph-name="Obreve" unicode="&#x14e;" horiz-adv-x="628" 
d="M313 734c-91 0 -158 61 -160 141c0 6 4 10 12 10h65c8 0 11 -3 14 -10c12 -26 34 -40 69 -40c36 0 58 14 70 40c3 7 6 10 14 10h65c8 0 12 -4 12 -10c-2 -80 -69 -141 -161 -141zM314 -12c-120 0 -219 56 -255 167c-16 52 -20 92 -20 185s4 133 20 185
c36 111 135 167 255 167s219 -56 255 -167c17 -52 20 -92 20 -185s-3 -133 -20 -185c-36 -111 -135 -167 -255 -167zM314 145c44 0 75 22 87 60c8 23 10 54 10 135s-2 112 -10 135c-12 38 -43 60 -87 60s-75 -22 -87 -60c-8 -23 -10 -54 -10 -135s2 -112 10 -135
c12 -38 43 -60 87 -60z" />
    <glyph glyph-name="Ohungarumlaut" unicode="&#x150;" horiz-adv-x="628" 
d="M314 -12c-120 0 -219 56 -255 167c-16 52 -20 92 -20 185s4 133 20 185c36 111 135 167 255 167s219 -56 255 -167c17 -52 20 -92 20 -185s-3 -133 -20 -185c-36 -111 -135 -167 -255 -167zM314 145c44 0 75 22 87 60c8 23 10 54 10 135s-2 112 -10 135
c-12 38 -43 60 -87 60s-75 -22 -87 -60c-8 -23 -10 -54 -10 -135s2 -112 10 -135c12 -38 43 -60 87 -60zM447 748h-97c-6 0 -8 5 -5 10l74 118c4 7 9 10 17 10h114c6 0 8 -5 5 -10l-89 -118c-5 -8 -10 -10 -19 -10zM263 748h-98c-6 0 -8 5 -5 10l75 118c4 7 9 10 17 10h114
c6 0 8 -5 5 -10l-89 -118c-6 -8 -11 -10 -19 -10z" />
    <glyph glyph-name="Oslash" unicode="&#xd8;" horiz-adv-x="628" 
d="M129 -30h-102c-6 0 -8 5 -5 10l70 109c-14 19 -25 41 -33 66c-16 52 -20 92 -20 185s4 133 20 185c36 111 135 167 255 167c52 0 101 -11 142 -32l26 40c4 6 9 10 17 10h101c6 0 9 -5 6 -10l-70 -110c13 -19 25 -41 33 -65c17 -52 20 -92 20 -185s-3 -133 -20 -185
c-36 -111 -135 -167 -255 -167c-53 0 -101 11 -142 32l-26 -40c-4 -6 -9 -10 -17 -10zM314 145c44 0 75 22 87 60c8 23 10 54 10 135s-2 112 -10 135c-12 38 -43 60 -87 60s-75 -22 -87 -60c-8 -23 -10 -54 -10 -135s2 -112 10 -135c12 -38 43 -60 87 -60z" />
    <glyph glyph-name="OE" unicode="&#x152;" horiz-adv-x="913" 
d="M866 0h-445c-6 0 -10 4 -10 10v18h-3c-22 -22 -60 -40 -119 -40c-115 0 -194 56 -229 164c-16 48 -21 90 -21 188s5 140 21 188c35 108 114 164 229 164c59 0 97 -18 119 -40h3v18c0 6 4 10 10 10h445c6 0 10 -4 10 -10v-129c0 -6 -4 -10 -10 -10h-273c-4 0 -6 -2 -6 -6
v-103c0 -4 2 -6 6 -6h224c6 0 10 -4 10 -10v-126c0 -6 -4 -10 -10 -10h-224c-4 0 -6 -2 -6 -6v-109c0 -4 2 -6 6 -6h273c6 0 10 -4 10 -10v-129c0 -6 -4 -10 -10 -10zM314 145c44 0 75 22 87 60c8 23 10 54 10 135s-2 112 -10 135c-12 38 -43 60 -87 60s-75 -22 -87 -60
c-8 -23 -10 -54 -10 -135s2 -112 10 -135c12 -38 43 -60 87 -60z" />
    <glyph glyph-name="Racute" unicode="&#x154;" horiz-adv-x="629" 
d="M593 0h-173c-9 0 -12 3 -15 10l-103 232h-65c-4 0 -6 -2 -6 -6v-226c0 -6 -4 -10 -10 -10h-156c-6 0 -10 4 -10 10v660c0 6 4 10 10 10h277c156 0 245 -91 245 -219c0 -85 -40 -154 -112 -190l125 -259c3 -6 0 -12 -7 -12zM331 387c50 0 80 28 80 72s-30 72 -80 72h-94
c-4 0 -6 -2 -6 -6v-132c0 -4 2 -6 6 -6h94zM321 747h-115c-6 0 -8 5 -4 10l102 122c5 6 10 10 18 10h142c6 0 9 -5 5 -10l-128 -123c-7 -7 -11 -9 -20 -9z" />
    <glyph glyph-name="Rcaron" unicode="&#x158;" horiz-adv-x="629" 
d="M335 736h-90c-8 0 -14 3 -19 10l-108 136c-4 5 -2 10 4 10h95c11 0 15 -2 23 -10l49 -49h2l48 49c8 8 13 10 23 10h95c6 0 9 -5 5 -10l-108 -136c-5 -7 -11 -10 -19 -10zM593 0h-173c-9 0 -12 3 -15 10l-103 232h-65c-4 0 -6 -2 -6 -6v-226c0 -6 -4 -10 -10 -10h-156
c-6 0 -10 4 -10 10v660c0 6 4 10 10 10h277c156 0 245 -91 245 -219c0 -85 -40 -154 -112 -190l125 -259c3 -6 0 -12 -7 -12zM331 387c50 0 80 28 80 72s-30 72 -80 72h-94c-4 0 -6 -2 -6 -6v-132c0 -4 2 -6 6 -6h94z" />
    <glyph glyph-name="Rcommaaccent" unicode="&#x156;" horiz-adv-x="629" 
d="M255 -248c-7 0 -11 5 -11 13v179c0 6 4 10 10 10h120c6 0 10 -4 10 -10v-89c0 -9 -2 -15 -9 -20l-103 -75c-7 -5 -12 -8 -17 -8zM593 0h-173c-9 0 -12 3 -15 10l-103 232h-65c-4 0 -6 -2 -6 -6v-226c0 -6 -4 -10 -10 -10h-156c-6 0 -10 4 -10 10v660c0 6 4 10 10 10h277
c156 0 245 -91 245 -219c0 -85 -40 -154 -112 -190l125 -259c3 -6 0 -12 -7 -12zM331 387c50 0 80 28 80 72s-30 72 -80 72h-94c-4 0 -6 -2 -6 -6v-132c0 -4 2 -6 6 -6h94z" />
    <glyph glyph-name="Sacute" unicode="&#x15a;" horiz-adv-x="605" 
d="M300 -12c-111 0 -223 47 -274 97c-5 4 -6 11 -1 16l90 106c4 5 10 5 14 1c41 -36 105 -68 173 -68c63 0 96 26 96 64c0 29 -19 48 -86 57l-36 5c-147 21 -227 87 -227 214s99 212 253 212c94 0 182 -29 243 -75c5 -4 6 -9 2 -15l-75 -109c-4 -5 -9 -6 -14 -3
c-48 32 -99 51 -153 51c-50 0 -75 -24 -75 -57c0 -30 22 -49 87 -57l36 -5c149 -21 225 -87 225 -216c0 -126 -96 -218 -278 -218zM343 747h-115c-6 0 -8 5 -4 10l102 122c5 6 10 10 18 10h142c6 0 9 -5 5 -10l-128 -123c-7 -7 -11 -9 -20 -9z" />
    <glyph glyph-name="Scircumflex" unicode="&#x15c;" horiz-adv-x="605" 
d="M300 -12c-111 0 -223 47 -274 97c-5 4 -6 11 -1 16l90 106c4 5 10 5 14 1c41 -36 105 -68 173 -68c63 0 96 26 96 64c0 29 -19 48 -86 57l-36 5c-147 21 -227 87 -227 214s99 212 253 212c94 0 182 -29 243 -75c5 -4 6 -9 2 -15l-75 -109c-4 -5 -9 -6 -14 -3
c-48 32 -99 51 -153 51c-50 0 -75 -24 -75 -57c0 -30 22 -49 87 -57l36 -5c149 -21 225 -87 225 -216c0 -126 -96 -218 -278 -218zM474 741h-95c-10 0 -15 2 -23 10l-48 50h-2l-49 -50c-8 -8 -12 -10 -23 -10h-95c-6 0 -8 5 -4 10l108 137c5 7 11 10 19 10h90
c8 0 14 -3 19 -10l108 -137c4 -5 1 -10 -5 -10z" />
    <glyph glyph-name="Scaron" unicode="&#x160;" horiz-adv-x="605" 
d="M300 -12c-111 0 -223 47 -274 97c-5 4 -6 11 -1 16l90 106c4 5 10 5 14 1c41 -36 105 -68 173 -68c63 0 96 26 96 64c0 29 -19 48 -86 57l-36 5c-147 21 -227 87 -227 214s99 212 253 212c94 0 182 -29 243 -75c5 -4 6 -9 2 -15l-75 -109c-4 -5 -9 -6 -14 -3
c-48 32 -99 51 -153 51c-50 0 -75 -24 -75 -57c0 -30 22 -49 87 -57l36 -5c149 -21 225 -87 225 -216c0 -126 -96 -218 -278 -218zM348 736h-90c-8 0 -14 3 -19 10l-108 136c-4 5 -2 10 4 10h95c11 0 15 -2 23 -10l49 -49h2l48 49c8 8 13 10 23 10h95c6 0 9 -5 5 -10
l-108 -136c-5 -7 -11 -10 -19 -10z" />
    <glyph glyph-name="Scedilla" unicode="&#x15e;" horiz-adv-x="605" 
d="M314 -166h-115c-6 0 -9 4 -7 10l58 146c-97 13 -180 51 -224 95c-5 4 -6 11 -1 16l90 106c4 5 10 5 14 1c41 -36 105 -68 173 -68c63 0 96 26 96 64c0 29 -19 48 -86 57l-36 5c-147 21 -227 87 -227 214s99 212 253 212c94 0 182 -29 243 -75c5 -4 6 -9 2 -15l-75 -109
c-4 -5 -9 -6 -14 -3c-48 32 -99 51 -153 51c-50 0 -75 -24 -75 -57c0 -30 22 -49 87 -57l36 -5c149 -21 225 -87 225 -216c0 -106 -70 -189 -204 -213l-44 -149c-2 -7 -8 -10 -16 -10z" />
    <glyph glyph-name="Scommaaccent" unicode="&#x218;" horiz-adv-x="605" 
d="M243 -248c-7 0 -11 5 -11 13v179c0 6 4 10 10 10h120c6 0 10 -4 10 -10v-89c0 -9 -2 -15 -9 -20l-103 -75c-7 -5 -12 -8 -17 -8zM300 -12c-111 0 -223 47 -274 97c-5 4 -6 11 -1 16l90 106c4 5 10 5 14 1c41 -36 105 -68 173 -68c63 0 96 26 96 64c0 29 -19 48 -86 57
l-36 5c-147 21 -227 87 -227 214s99 212 253 212c94 0 182 -29 243 -75c5 -4 6 -9 2 -15l-75 -109c-4 -5 -9 -6 -14 -3c-48 32 -99 51 -153 51c-50 0 -75 -24 -75 -57c0 -30 22 -49 87 -57l36 -5c149 -21 225 -87 225 -216c0 -126 -96 -218 -278 -218z" />
    <glyph glyph-name="Tcaron" unicode="&#x164;" horiz-adv-x="566" 
d="M328 736h-90c-8 0 -14 3 -19 10l-108 136c-4 5 -2 10 4 10h95c11 0 15 -2 23 -10l49 -49h2l48 49c8 8 13 10 23 10h95c6 0 9 -5 5 -10l-108 -136c-5 -7 -11 -10 -19 -10zM361 0h-156h-3c-2 0 -3 1 -5 3c-1 1 -2 2 -2 4v3v508c0 3 -2 5 -5 6h-1h-167h-3c-2 0 -3 1 -4 2
l-1 1s0 1 -1 1c-1 2 -1 4 -1 6v136c0 5 3 9 7 10h3h522c3 0 5 -1 7 -3c0 0 1 -1 1 -2c1 -1 2 -3 2 -5v-136c0 -3 -1 -6 -3 -8c-1 -1 -3 -2 -5 -2h-2h-167c-2 0 -3 0 -4 -1c-1 0 -1 -1 -2 -2v-3v-508v-3c-1 -3 -2 -4 -5 -6c-1 -1 -3 -1 -5 -1z" />
    <glyph glyph-name="uni0162" unicode="&#x162;" horiz-adv-x="566" 
d="M224 -248c-7 0 -11 5 -11 13v179c0 6 4 10 10 10h120c6 0 10 -4 10 -10v-89c0 -9 -2 -15 -9 -20l-103 -75c-7 -5 -12 -8 -17 -8zM361 0h-156h-3c-2 0 -3 1 -5 3c-1 1 -2 2 -2 4v3v508c0 3 -2 5 -5 6h-1h-167h-3c-2 0 -3 1 -4 2l-1 1s0 1 -1 1c-1 2 -1 4 -1 6v136
c0 5 3 9 7 10h3h522c3 0 5 -1 7 -3c0 0 1 -1 1 -2c1 -1 2 -3 2 -5v-136c0 -3 -1 -6 -3 -8c-1 -1 -3 -2 -5 -2h-2h-167c-2 0 -3 0 -4 -1c-1 0 -1 -1 -2 -2v-3v-508v-3c-1 -3 -2 -4 -5 -6c-1 -1 -3 -1 -5 -1z" />
    <glyph glyph-name="uni021A" unicode="&#x21a;" horiz-adv-x="566" 
d="M224 -248c-7 0 -11 5 -11 13v179c0 6 4 10 10 10h120c6 0 10 -4 10 -10v-89c0 -9 -2 -15 -9 -20l-103 -75c-7 -5 -12 -8 -17 -8zM361 0h-156h-3c-2 0 -3 1 -5 3c-1 1 -2 2 -2 4v3v508c0 3 -2 5 -5 6h-1h-167h-3c-2 0 -3 1 -4 2l-1 1s0 1 -1 1c-1 2 -1 4 -1 6v136
c0 5 3 9 7 10h3h522c3 0 5 -1 7 -3c0 0 1 -1 1 -2c1 -1 2 -3 2 -5v-136c0 -3 -1 -6 -3 -8c-1 -1 -3 -2 -5 -2h-2h-167c-2 0 -3 0 -4 -1c-1 0 -1 -1 -2 -2v-3v-508v-3c-1 -3 -2 -4 -5 -6c-1 -1 -3 -1 -5 -1z" />
    <glyph glyph-name="Tbar" unicode="&#x166;" horiz-adv-x="566" 
d="M361 0h-156c-6 0 -10 4 -10 10v277c0 4 -2 6 -6 6h-78c-6 0 -10 4 -10 10v104c0 6 4 10 10 10h78c4 0 6 2 6 6v95c0 4 -2 6 -6 6h-167c-6 0 -10 4 -10 10v136c0 6 4 10 10 10h522c6 0 10 -4 10 -10v-136c0 -6 -4 -10 -10 -10h-167c-4 0 -6 -2 -6 -6v-95c0 -4 2 -6 6 -6
h78c6 0 10 -4 10 -10v-104c0 -6 -4 -10 -10 -10h-78c-4 0 -6 -2 -6 -6v-277c0 -6 -4 -10 -10 -10z" />
    <glyph glyph-name="Thorn" unicode="&#xde;" horiz-adv-x="612" 
d="M221 0h-156c-6 0 -10 4 -10 10v660c0 6 4 10 10 10h156c6 0 10 -4 10 -10v-87c0 -4 2 -6 6 -6h100c166 0 252 -94 252 -226c0 -130 -87 -227 -252 -227h-100c-4 0 -6 -2 -6 -6v-108c0 -6 -4 -10 -10 -10zM327 273c55 0 86 31 86 78s-31 77 -86 77h-90c-4 0 -6 -2 -6 -6
v-143c0 -4 2 -6 6 -6h90z" />
    <glyph glyph-name="Ugrave" unicode="&#xd9;" horiz-adv-x="647" 
d="M395 747h-115c-9 0 -13 2 -20 9l-128 123c-4 5 -1 10 5 10h142c8 0 13 -4 18 -10l102 -122c4 -5 2 -10 -4 -10zM324 -12c-165 0 -271 94 -271 275v407c0 6 4 10 10 10h156c6 0 10 -4 10 -10v-418c0 -68 38 -107 95 -107c59 0 94 39 94 107v418c0 6 4 10 10 10h156
c6 0 10 -4 10 -10v-407c0 -181 -108 -275 -270 -275z" />
    <glyph glyph-name="Uacute" unicode="&#xda;" horiz-adv-x="647" 
d="M371 747h-115c-6 0 -8 5 -4 10l102 122c5 6 10 10 18 10h142c6 0 9 -5 5 -10l-128 -123c-7 -7 -11 -9 -20 -9zM324 -12c-165 0 -271 94 -271 275v407c0 6 4 10 10 10h156c6 0 10 -4 10 -10v-418c0 -68 38 -107 95 -107c59 0 94 39 94 107v418c0 6 4 10 10 10h156
c6 0 10 -4 10 -10v-407c0 -181 -108 -275 -270 -275z" />
    <glyph glyph-name="Ucircumflex" unicode="&#xdb;" horiz-adv-x="647" 
d="M324 -12c-165 0 -271 94 -271 275v407c0 6 4 10 10 10h156c6 0 10 -4 10 -10v-418c0 -68 38 -107 95 -107c59 0 94 39 94 107v418c0 6 4 10 10 10h156c6 0 10 -4 10 -10v-407c0 -181 -108 -275 -270 -275zM490 741h-95c-10 0 -15 2 -23 10l-48 50h-2l-49 -50
c-8 -8 -12 -10 -23 -10h-95c-6 0 -8 5 -4 10l108 137c5 7 11 10 19 10h90c8 0 14 -3 19 -10l108 -137c4 -5 1 -10 -5 -10z" />
    <glyph glyph-name="Utilde" unicode="&#x168;" horiz-adv-x="647" 
d="M392 740c-36 0 -59 11 -83 23c-20 10 -37 18 -60 18c-30 0 -50 -13 -76 -33c-5 -4 -10 -2 -10 4v81c0 10 2 14 9 22c22 22 49 37 81 37c37 0 60 -12 84 -24c20 -9 37 -17 60 -17c29 0 50 13 75 32c6 4 11 2 11 -3v-81c0 -10 -2 -15 -10 -22c-22 -22 -49 -37 -81 -37z
M324 -12c-165 0 -271 94 -271 275v407c0 6 4 10 10 10h156c6 0 10 -4 10 -10v-418c0 -68 38 -107 95 -107c59 0 94 39 94 107v418c0 6 4 10 10 10h156c6 0 10 -4 10 -10v-407c0 -181 -108 -275 -270 -275z" />
    <glyph glyph-name="Udieresis" unicode="&#xdc;" horiz-adv-x="647" 
d="M480 750h-107c-6 0 -10 4 -10 10v110c0 6 4 10 10 10h107c6 0 10 -4 10 -10v-110c0 -6 -4 -10 -10 -10zM274 750h-107c-6 0 -10 4 -10 10v110c0 6 4 10 10 10h107c6 0 10 -4 10 -10v-110c0 -6 -4 -10 -10 -10zM324 -12c-165 0 -271 94 -271 275v407c0 6 4 10 10 10h156
c6 0 10 -4 10 -10v-418c0 -68 38 -107 95 -107c59 0 94 39 94 107v418c0 6 4 10 10 10h156c6 0 10 -4 10 -10v-407c0 -181 -108 -275 -270 -275z" />
    <glyph glyph-name="Umacron" unicode="&#x16a;" horiz-adv-x="647" 
d="M474 761h-301c-6 0 -10 4 -10 10v90c0 6 4 10 10 10h301c6 0 10 -4 10 -10v-90c0 -6 -4 -10 -10 -10zM324 -12c-165 0 -271 94 -271 275v407c0 6 4 10 10 10h156c6 0 10 -4 10 -10v-418c0 -68 38 -107 95 -107c59 0 94 39 94 107v418c0 6 4 10 10 10h156
c6 0 10 -4 10 -10v-407c0 -181 -108 -275 -270 -275z" />
    <glyph glyph-name="Ubreve" unicode="&#x16c;" horiz-adv-x="647" 
d="M323 734c-91 0 -158 61 -160 141c0 6 4 10 12 10h65c8 0 11 -3 14 -10c12 -26 34 -40 69 -40c36 0 58 14 70 40c3 7 6 10 14 10h65c8 0 12 -4 12 -10c-2 -80 -69 -141 -161 -141zM324 -12c-165 0 -271 94 -271 275v407c0 6 4 10 10 10h156c6 0 10 -4 10 -10v-418
c0 -68 38 -107 95 -107c59 0 94 39 94 107v418c0 6 4 10 10 10h156c6 0 10 -4 10 -10v-407c0 -181 -108 -275 -270 -275z" />
    <glyph glyph-name="Uring" unicode="&#x16e;" horiz-adv-x="647" 
d="M324 -12c-165 0 -271 94 -271 275v407c0 6 4 10 10 10h156c6 0 10 -4 10 -10v-418c0 -68 38 -107 95 -107c59 0 94 39 94 107v418c0 6 4 10 10 10h156c6 0 10 -4 10 -10v-407c0 -181 -108 -275 -270 -275zM323 704c-65 0 -114 48 -114 114c0 65 49 113 114 113
c66 0 115 -48 115 -113c0 -66 -49 -114 -115 -114zM323 773c25 0 44 19 44 45c0 25 -19 44 -44 44c-24 0 -43 -19 -43 -44c0 -26 19 -45 43 -45z" />
    <glyph glyph-name="Uhungarumlaut" unicode="&#x170;" horiz-adv-x="647" 
d="M324 -12c-165 0 -271 94 -271 275v407c0 6 4 10 10 10h156c6 0 10 -4 10 -10v-418c0 -68 38 -107 95 -107c59 0 94 39 94 107v418c0 6 4 10 10 10h156c6 0 10 -4 10 -10v-407c0 -181 -108 -275 -270 -275zM452 748h-97c-6 0 -8 5 -5 10l74 118c4 7 9 10 17 10h114
c6 0 8 -5 5 -10l-89 -118c-5 -8 -10 -10 -19 -10zM268 748h-98c-6 0 -8 5 -5 10l75 118c4 7 9 10 17 10h114c6 0 8 -5 5 -10l-89 -118c-6 -8 -11 -10 -19 -10z" />
    <glyph glyph-name="Uogonek" unicode="&#x172;" horiz-adv-x="647" 
d="M335 -192c-68 0 -110 39 -110 97c0 38 17 64 41 88c-132 20 -213 112 -213 270v407c0 6 4 10 10 10h156c6 0 10 -4 10 -10v-418c0 -68 38 -107 95 -107c59 0 94 39 94 107v418c0 6 4 10 10 10h156c6 0 10 -4 10 -10v-407c0 -150 -74 -239 -189 -266
c-50 -34 -59 -49 -59 -63c0 -9 5 -16 17 -16c8 0 15 3 24 8c6 3 10 2 13 -3l38 -71c3 -5 2 -10 -4 -13c-32 -22 -67 -31 -99 -31z" />
    <glyph glyph-name="Wcircumflex" unicode="&#x174;" horiz-adv-x="907" 
d="M700 0h-125c-7 0 -11 3 -13 10l-107 380h-2l-108 -380c-2 -7 -6 -10 -13 -10h-125c-7 0 -11 3 -13 10l-185 660c-1 6 1 10 8 10h164c8 0 12 -4 13 -10l88 -396h2l106 396c2 7 6 10 13 10h103c7 0 11 -3 13 -10l109 -396h2l85 396c1 6 5 10 12 10h164c6 0 9 -4 7 -10
l-184 -660c-2 -7 -6 -10 -14 -10zM620 741h-95c-10 0 -15 2 -23 10l-48 50h-2l-49 -50c-8 -8 -12 -10 -23 -10h-95c-6 0 -8 5 -4 10l108 137c5 7 11 10 19 10h90c8 0 14 -3 19 -10l108 -137c4 -5 1 -10 -5 -10z" />
    <glyph glyph-name="Wacute" unicode="&#x1e82;" horiz-adv-x="907" 
d="M515 747h-115c-6 0 -8 5 -4 10l102 122c5 6 10 10 18 10h142c6 0 9 -5 5 -10l-128 -123c-7 -7 -11 -9 -20 -9zM700 0h-125c-7 0 -11 3 -13 10l-107 380h-2l-108 -380c-2 -7 -6 -10 -13 -10h-125c-7 0 -11 3 -13 10l-185 660c-1 6 1 10 8 10h164c8 0 12 -4 13 -10l88 -396
h2l106 396c2 7 6 10 13 10h103c7 0 11 -3 13 -10l109 -396h2l85 396c1 6 5 10 12 10h164c6 0 9 -4 7 -10l-184 -660c-2 -7 -6 -10 -14 -10z" />
    <glyph glyph-name="Wdieresis" unicode="&#x1e84;" horiz-adv-x="907" 
d="M609 750h-107c-6 0 -10 4 -10 10v110c0 6 4 10 10 10h107c6 0 10 -4 10 -10v-110c0 -6 -4 -10 -10 -10zM403 750h-107c-6 0 -10 4 -10 10v110c0 6 4 10 10 10h107c6 0 10 -4 10 -10v-110c0 -6 -4 -10 -10 -10zM700 0h-125c-7 0 -11 3 -13 10l-107 380h-2l-108 -380
c-2 -7 -6 -10 -13 -10h-125c-7 0 -11 3 -13 10l-185 660c-1 6 1 10 8 10h164c8 0 12 -4 13 -10l88 -396h2l106 396c2 7 6 10 13 10h103c7 0 11 -3 13 -10l109 -396h2l85 396c1 6 5 10 12 10h164c6 0 9 -4 7 -10l-184 -660c-2 -7 -6 -10 -14 -10z" />
    <glyph glyph-name="Wgrave" unicode="&#x1e80;" horiz-adv-x="907" 
d="M512 747h-115c-9 0 -13 2 -20 9l-128 123c-4 5 -1 10 5 10h142c8 0 13 -4 18 -10l102 -122c4 -5 2 -10 -4 -10zM700 0h-125c-7 0 -11 3 -13 10l-107 380h-2l-108 -380c-2 -7 -6 -10 -13 -10h-125c-7 0 -11 3 -13 10l-185 660c-1 6 1 10 8 10h164c8 0 12 -4 13 -10
l88 -396h2l106 396c2 7 6 10 13 10h103c7 0 11 -3 13 -10l109 -396h2l85 396c1 6 5 10 12 10h164c6 0 9 -4 7 -10l-184 -660c-2 -7 -6 -10 -14 -10z" />
    <glyph glyph-name="Yacute" unicode="&#xdd;" horiz-adv-x="602" 
d="M379 0h-156c-6 0 -10 4 -10 10v253l-206 406c-2 6 1 11 8 11h157c7 0 12 -3 16 -10l114 -232h3l112 232c3 7 9 10 16 10h154c8 0 10 -5 8 -11l-206 -406v-253c0 -6 -4 -10 -10 -10zM352 747h-115c-6 0 -8 5 -4 10l102 122c5 6 10 10 18 10h142c6 0 9 -5 5 -10l-128 -123
c-7 -7 -11 -9 -20 -9z" />
    <glyph glyph-name="Ycircumflex" unicode="&#x176;" horiz-adv-x="602" 
d="M379 0h-156c-6 0 -10 4 -10 10v253l-206 406c-2 6 1 11 8 11h157c7 0 12 -3 16 -10l114 -232h3l112 232c3 7 9 10 16 10h154c8 0 10 -5 8 -11l-206 -406v-253c0 -6 -4 -10 -10 -10zM467 741h-95c-10 0 -15 2 -23 10l-48 50h-2l-49 -50c-8 -8 -12 -10 -23 -10h-95
c-6 0 -8 5 -4 10l108 137c5 7 11 10 19 10h90c8 0 14 -3 19 -10l108 -137c4 -5 1 -10 -5 -10z" />
    <glyph glyph-name="Ydieresis" unicode="&#x178;" horiz-adv-x="602" 
d="M379 0h-156c-6 0 -10 4 -10 10v253l-206 406c-2 6 1 11 8 11h157c7 0 12 -3 16 -10l114 -232h3l112 232c3 7 9 10 16 10h154c8 0 10 -5 8 -11l-206 -406v-253c0 -6 -4 -10 -10 -10zM456 750h-107c-6 0 -10 4 -10 10v110c0 6 4 10 10 10h107c6 0 10 -4 10 -10v-110
c0 -6 -4 -10 -10 -10zM250 750h-107c-6 0 -10 4 -10 10v110c0 6 4 10 10 10h107c6 0 10 -4 10 -10v-110c0 -6 -4 -10 -10 -10z" />
    <glyph glyph-name="Ygrave" unicode="&#x1ef2;" horiz-adv-x="602" 
d="M379 0h-156c-6 0 -10 4 -10 10v253l-206 406c-2 6 1 11 8 11h157c7 0 12 -3 16 -10l114 -232h3l112 232c3 7 9 10 16 10h154c8 0 10 -5 8 -11l-206 -406v-253c0 -6 -4 -10 -10 -10zM372 747h-115c-9 0 -13 2 -20 9l-128 123c-4 5 -1 10 5 10h142c8 0 13 -4 18 -10
l102 -122c4 -5 2 -10 -4 -10z" />
    <glyph glyph-name="Zacute" unicode="&#x179;" 
d="M516 0h-471c-6 0 -10 4 -10 10v134c0 4 1 7 3 10l282 367v3h-264c-6 0 -10 4 -10 10v136c0 6 4 10 10 10h460c6 0 10 -4 10 -10v-134c0 -4 -1 -7 -3 -10l-282 -367v-3h275c6 0 10 -4 10 -10v-136c0 -6 -4 -10 -10 -10zM315 747h-115c-6 0 -8 5 -4 10l102 122
c5 6 10 10 18 10h142c6 0 9 -5 5 -10l-128 -123c-7 -7 -11 -9 -20 -9z" />
    <glyph glyph-name="Zcaron" unicode="&#x17d;" 
d="M326 736h-90c-8 0 -14 3 -19 10l-108 136c-4 5 -2 10 4 10h95c11 0 15 -2 23 -10l49 -49h2l48 49c8 8 13 10 23 10h95c6 0 9 -5 5 -10l-108 -136c-5 -7 -11 -10 -19 -10zM516 0h-471c-6 0 -10 4 -10 10v134c0 4 1 7 3 10l282 367v3h-264c-6 0 -10 4 -10 10v136
c0 6 4 10 10 10h460c6 0 10 -4 10 -10v-134c0 -4 -1 -7 -3 -10l-282 -367v-3h275c6 0 10 -4 10 -10v-136c0 -6 -4 -10 -10 -10z" />
    <glyph glyph-name="Zdotaccent" unicode="&#x17b;" 
d="M349 750h-138c-6 0 -10 4 -10 10v110c0 6 4 10 10 10h138c6 0 10 -4 10 -10v-110c0 -6 -4 -10 -10 -10zM516 0h-471c-6 0 -10 4 -10 10v134c0 4 1 7 3 10l282 367v3h-264c-6 0 -10 4 -10 10v136c0 6 4 10 10 10h460c6 0 10 -4 10 -10v-134c0 -4 -1 -7 -3 -10l-282 -367
v-3h275c6 0 10 -4 10 -10v-136c0 -6 -4 -10 -10 -10z" />
    <glyph glyph-name="agrave" unicode="&#xe0;" horiz-adv-x="532" 
d="M472 0h-138c-6 0 -10 4 -10 10v28h-1c-26 -30 -67 -50 -131 -50c-83 0 -158 45 -158 150c0 109 86 160 207 160h77c4 0 6 2 6 6v13c0 36 -19 51 -94 51c-44 0 -82 -12 -105 -28c-5 -3 -10 -3 -13 3l-52 92c-3 7 -2 12 3 16c44 30 109 48 189 48c170 0 230 -57 230 -182
v-307c0 -6 -4 -10 -10 -10zM248 108c52 0 76 17 76 52v30c0 4 -2 6 -6 6h-59c-45 0 -68 -16 -68 -46c0 -27 19 -42 57 -42zM360 546h-116c-7 0 -11 2 -17 10l-103 136c-4 5 -1 10 5 10h139c8 0 13 -3 17 -10l80 -136c3 -6 1 -10 -5 -10z" />
    <glyph glyph-name="aacute" unicode="&#xe1;" horiz-adv-x="532" 
d="M472 0h-138c-6 0 -10 4 -10 10v28h-1c-26 -30 -67 -50 -131 -50c-83 0 -158 45 -158 150c0 109 86 160 207 160h77c4 0 6 2 6 6v13c0 36 -19 51 -94 51c-44 0 -82 -12 -105 -28c-5 -3 -10 -3 -13 3l-52 92c-3 7 -2 12 3 16c44 30 109 48 189 48c170 0 230 -57 230 -182
v-307c0 -6 -4 -10 -10 -10zM248 108c52 0 76 17 76 52v30c0 4 -2 6 -6 6h-59c-45 0 -68 -16 -68 -46c0 -27 19 -42 57 -42zM315 546h-116c-6 0 -8 4 -5 10l80 136c4 7 9 10 17 10h139c6 0 9 -5 5 -10l-103 -136c-6 -8 -10 -10 -17 -10z" />
    <glyph glyph-name="acircumflex" unicode="&#xe2;" horiz-adv-x="532" 
d="M472 0h-138c-6 0 -10 4 -10 10v28h-1c-26 -30 -67 -50 -131 -50c-83 0 -158 45 -158 150c0 109 86 160 207 160h77c4 0 6 2 6 6v13c0 36 -19 51 -94 51c-44 0 -82 -12 -105 -28c-5 -3 -10 -3 -13 3l-52 92c-3 7 -2 12 3 16c44 30 109 48 189 48c170 0 230 -57 230 -182
v-307c0 -6 -4 -10 -10 -10zM248 108c52 0 76 17 76 52v30c0 4 -2 6 -6 6h-59c-45 0 -68 -16 -68 -46c0 -27 19 -42 57 -42zM433 544h-95c-10 0 -15 2 -23 10l-49 50h-2l-48 -50c-8 -8 -13 -10 -23 -10h-95c-6 0 -9 5 -5 10l109 137c5 7 10 10 18 10h91c8 0 13 -3 18 -10
l109 -137c4 -5 1 -10 -5 -10z" />
    <glyph glyph-name="atilde" unicode="&#xe3;" horiz-adv-x="532" 
d="M472 0h-138c-6 0 -10 4 -10 10v28h-1c-26 -30 -67 -50 -131 -50c-83 0 -158 45 -158 150c0 109 86 160 207 160h77c4 0 6 2 6 6v13c0 36 -19 51 -94 51c-44 0 -82 -12 -105 -28c-5 -3 -10 -3 -13 3l-52 92c-3 7 -2 12 3 16c44 30 109 48 189 48c170 0 230 -57 230 -182
v-307c0 -6 -4 -10 -10 -10zM248 108c52 0 76 17 76 52v30c0 4 -2 6 -6 6h-59c-45 0 -68 -16 -68 -46c0 -27 19 -42 57 -42zM335 545c-36 0 -59 11 -83 23c-20 10 -37 18 -60 18c-30 0 -50 -13 -76 -32c-5 -4 -10 -2 -10 3v81c0 10 2 15 9 22c22 22 49 37 81 37
c37 0 60 -11 84 -23c20 -10 37 -18 60 -18c29 0 50 13 75 33c6 4 11 2 11 -4v-81c0 -10 -2 -15 -10 -22c-22 -22 -49 -37 -81 -37z" />
    <glyph glyph-name="adieresis" unicode="&#xe4;" horiz-adv-x="532" 
d="M472 0h-138c-6 0 -10 4 -10 10v28h-1c-26 -30 -67 -50 -131 -50c-83 0 -158 45 -158 150c0 109 86 160 207 160h77c4 0 6 2 6 6v13c0 36 -19 51 -94 51c-44 0 -82 -12 -105 -28c-5 -3 -10 -3 -13 3l-52 92c-3 7 -2 12 3 16c44 30 109 48 189 48c170 0 230 -57 230 -182
v-307c0 -6 -4 -10 -10 -10zM248 108c52 0 76 17 76 52v30c0 4 -2 6 -6 6h-59c-45 0 -68 -16 -68 -46c0 -27 19 -42 57 -42zM421 550h-108c-6 0 -10 4 -10 10v110c0 6 4 10 10 10h108c6 0 10 -4 10 -10v-110c0 -6 -4 -10 -10 -10zM216 550h-108c-6 0 -10 4 -10 10v110
c0 6 4 10 10 10h108c6 0 10 -4 10 -10v-110c0 -6 -4 -10 -10 -10z" />
    <glyph glyph-name="amacron" unicode="&#x101;" horiz-adv-x="532" 
d="M472 0h-138c-6 0 -10 4 -10 10v28h-1c-26 -30 -67 -50 -131 -50c-83 0 -158 45 -158 150c0 109 86 160 207 160h77c4 0 6 2 6 6v13c0 36 -19 51 -94 51c-44 0 -82 -12 -105 -28c-5 -3 -10 -3 -13 3l-52 92c-3 7 -2 12 3 16c44 30 109 48 189 48c170 0 230 -57 230 -182
v-307c0 -6 -4 -10 -10 -10zM248 108c52 0 76 17 76 52v30c0 4 -2 6 -6 6h-59c-45 0 -68 -16 -68 -46c0 -27 19 -42 57 -42zM416 562h-301c-6 0 -10 4 -10 10v91c0 6 4 10 10 10h301c6 0 10 -4 10 -10v-91c0 -6 -4 -10 -10 -10z" />
    <glyph glyph-name="abreve" unicode="&#x103;" horiz-adv-x="532" 
d="M472 0h-138c-6 0 -10 4 -10 10v28h-1c-26 -30 -67 -50 -131 -50c-83 0 -158 45 -158 150c0 109 86 160 207 160h77c4 0 6 2 6 6v13c0 36 -19 51 -94 51c-44 0 -82 -12 -105 -28c-5 -3 -10 -3 -13 3l-52 92c-3 7 -2 12 3 16c44 30 109 48 189 48c170 0 230 -57 230 -182
v-307c0 -6 -4 -10 -10 -10zM248 108c52 0 76 17 76 52v30c0 4 -2 6 -6 6h-59c-45 0 -68 -16 -68 -46c0 -27 19 -42 57 -42zM265 538c-91 0 -158 62 -160 141c0 6 4 11 12 11h65c8 0 11 -3 14 -11c12 -26 34 -40 69 -40c36 0 58 14 70 40c3 8 6 11 14 11h65c8 0 12 -5 12 -11
c-2 -79 -69 -141 -161 -141z" />
    <glyph glyph-name="aring" unicode="&#xe5;" horiz-adv-x="532" 
d="M472 0h-138c-6 0 -10 4 -10 10v28h-1c-26 -30 -67 -50 -131 -50c-83 0 -158 45 -158 150c0 109 86 160 207 160h77c4 0 6 2 6 6v13c0 36 -19 51 -94 51c-44 0 -82 -12 -105 -28c-5 -3 -10 -3 -13 3l-52 92c-3 7 -2 12 3 16c44 30 109 48 189 48c170 0 230 -57 230 -182
v-307c0 -6 -4 -10 -10 -10zM248 108c52 0 76 17 76 52v30c0 4 -2 6 -6 6h-59c-45 0 -68 -16 -68 -46c0 -27 19 -42 57 -42zM267 518c-65 0 -114 48 -114 114s49 114 114 114c66 0 115 -48 115 -114s-49 -114 -115 -114zM267 587c25 0 44 19 44 45s-19 45 -44 45
c-24 0 -43 -19 -43 -45s19 -45 43 -45z" />
    <glyph glyph-name="aogonek" unicode="&#x105;" horiz-adv-x="532" 
d="M324 10v28h-1c-26 -30 -67 -50 -131 -50c-83 0 -158 45 -158 150c0 109 86 160 207 160h77c4 0 6 2 6 6v13c0 36 -19 51 -94 51c-44 0 -82 -12 -105 -28c-5 -3 -10 -3 -13 3l-52 92c-3 7 -2 12 3 16c44 30 109 48 189 48c170 0 230 -57 230 -182v-307c0 -6 -3 -8 -7 -10
c-76 -32 -90 -50 -90 -66c0 -9 5 -16 17 -16c8 0 15 3 24 8c6 3 10 2 13 -3l38 -71c3 -5 2 -10 -4 -13c-32 -22 -66 -31 -99 -31c-68 0 -110 39 -110 97c0 41 24 73 66 98c-3 0 -6 3 -6 7zM248 108c52 0 76 17 76 52v30c0 4 -2 6 -6 6h-59c-45 0 -68 -16 -68 -46
c0 -27 19 -42 57 -42z" />
    <glyph glyph-name="ae" unicode="&#xe6;" horiz-adv-x="819" 
d="M562 -12c-69 0 -131 27 -165 69h-1c-37 -48 -95 -69 -183 -69c-111 0 -179 50 -179 150c0 109 86 160 207 160h77c4 0 6 2 6 6v13c0 36 -19 51 -94 51c-44 0 -82 -12 -105 -28c-5 -3 -10 -3 -13 3l-52 92c-3 7 -2 12 3 16c44 30 109 48 189 48c73 0 127 -17 164 -43h2
c29 23 76 43 134 43c116 0 191 -52 220 -141c10 -30 15 -67 15 -152c0 -6 -4 -10 -10 -10h-289c-4 0 -6 -2 -6 -6c0 -7 1 -14 4 -20c11 -34 46 -53 94 -53c42 0 77 14 109 39c5 5 10 5 14 0l72 -73c4 -4 3 -11 -1 -15c-51 -49 -125 -80 -212 -80zM620 298c4 0 6 2 6 6
c0 13 -2 22 -5 30c-8 28 -33 44 -67 44c-35 0 -59 -16 -68 -44c-3 -8 -4 -17 -4 -30c0 -4 2 -6 6 -6h132zM248 108c52 0 76 17 76 52v30c0 4 -2 6 -6 6h-59c-45 0 -68 -16 -68 -46c0 -27 19 -42 57 -42z" />
    <glyph glyph-name="cacute" unicode="&#x107;" horiz-adv-x="493" 
d="M298 546h-116c-6 0 -8 4 -5 10l80 136c4 7 9 10 17 10h139c6 0 9 -5 5 -10l-103 -136c-6 -8 -10 -10 -17 -10zM263 -12c-105 0 -187 49 -217 143c-10 28 -14 61 -14 112s4 85 14 113c30 94 112 143 217 143c98 0 171 -49 202 -112c2 -5 2 -10 -4 -14l-112 -58
c-5 -3 -12 -4 -15 3c-17 30 -35 43 -66 43c-29 0 -49 -14 -59 -42c-5 -15 -7 -34 -7 -76c0 -41 2 -60 7 -75c10 -28 30 -42 59 -42c31 0 49 12 66 43c3 7 10 6 15 3l112 -58c6 -4 6 -9 4 -14c-31 -63 -104 -112 -202 -112z" />
    <glyph glyph-name="ccircumflex" unicode="&#x109;" horiz-adv-x="493" 
d="M430 544h-95c-10 0 -15 2 -23 10l-49 50h-2l-48 -50c-8 -8 -13 -10 -23 -10h-95c-6 0 -9 5 -5 10l109 137c5 7 10 10 18 10h91c8 0 13 -3 18 -10l109 -137c4 -5 1 -10 -5 -10zM263 -12c-105 0 -187 49 -217 143c-10 28 -14 61 -14 112s4 85 14 113c30 94 112 143 217 143
c98 0 171 -49 202 -112c2 -5 2 -10 -4 -14l-112 -58c-5 -3 -12 -4 -15 3c-17 30 -35 43 -66 43c-29 0 -49 -14 -59 -42c-5 -15 -7 -34 -7 -76c0 -41 2 -60 7 -75c10 -28 30 -42 59 -42c31 0 49 12 66 43c3 7 10 6 15 3l112 -58c6 -4 6 -9 4 -14c-31 -63 -104 -112 -202 -112
z" />
    <glyph glyph-name="ccaron" unicode="&#x10d;" horiz-adv-x="493" 
d="M308 541h-91c-8 0 -13 3 -18 10l-109 137c-4 5 -1 10 5 10h95c10 0 15 -2 23 -10l48 -49h2l49 49c8 8 13 10 23 10h95c6 0 9 -5 5 -10l-109 -137c-5 -7 -10 -10 -18 -10zM263 -12c-105 0 -187 49 -217 143c-10 28 -14 61 -14 112s4 85 14 113c30 94 112 143 217 143
c98 0 171 -49 202 -112c2 -5 2 -10 -4 -14l-112 -58c-5 -3 -12 -4 -15 3c-17 30 -35 43 -66 43c-29 0 -49 -14 -59 -42c-5 -15 -7 -34 -7 -76c0 -41 2 -60 7 -75c10 -28 30 -42 59 -42c31 0 49 12 66 43c3 7 10 6 15 3l112 -58c6 -4 6 -9 4 -14c-31 -63 -104 -112 -202 -112
z" />
    <glyph glyph-name="cdotaccent" unicode="&#x10b;" horiz-adv-x="493" 
d="M263 -12c-105 0 -187 49 -217 143c-10 28 -14 61 -14 112s4 85 14 113c30 94 112 143 217 143c98 0 171 -49 202 -112c2 -5 2 -10 -4 -14l-112 -58c-5 -3 -12 -4 -15 3c-17 30 -35 43 -66 43c-29 0 -49 -14 -59 -42c-5 -15 -7 -34 -7 -76c0 -41 2 -60 7 -75
c10 -28 30 -42 59 -42c31 0 49 12 66 43c3 7 10 6 15 3l112 -58c6 -4 6 -9 4 -14c-31 -63 -104 -112 -202 -112zM329 550h-138c-6 0 -10 4 -10 10v110c0 6 4 10 10 10h138c6 0 10 -4 10 -10v-110c0 -6 -4 -10 -10 -10z" />
    <glyph glyph-name="ccedilla" unicode="&#xe7;" horiz-adv-x="493" 
d="M258 -166h-115c-6 0 -9 4 -7 10l60 151c-76 22 -126 60 -150 136c-10 28 -14 61 -14 112s4 85 14 113c30 94 112 143 217 143c98 0 171 -49 202 -112c2 -5 2 -10 -4 -14l-112 -58c-5 -3 -12 -4 -15 3c-17 30 -35 43 -66 43c-29 0 -49 -14 -59 -42c-5 -15 -7 -34 -7 -76
c0 -41 2 -60 7 -75c10 -28 30 -42 59 -42c31 0 49 12 66 43c3 7 10 6 15 3l112 -58c6 -4 6 -9 4 -14c-24 -48 -74 -91 -147 -106l-44 -150c-2 -7 -8 -10 -16 -10z" />
    <glyph glyph-name="dcaron" unicode="&#x10f;" horiz-adv-x="581" 
d="M543 472c-7 0 -11 5 -11 13v185c0 6 4 10 10 10h109c6 0 10 -4 10 -10v-94c0 -10 -2 -15 -9 -21l-92 -75c-7 -6 -12 -8 -17 -8zM493 0h-148c-6 0 -10 4 -10 10v36h-1c-22 -34 -63 -58 -125 -58c-82 0 -136 41 -161 117c-12 39 -17 78 -17 138c0 61 5 100 17 139
c25 76 79 117 161 117c62 0 103 -24 125 -58h1v229c0 6 4 10 10 10h148c6 0 10 -4 10 -10v-660c0 -6 -4 -10 -10 -10zM268 126c29 0 50 13 59 41c6 16 8 34 8 76c0 43 -2 61 -8 77c-9 28 -30 41 -59 41c-30 0 -50 -13 -60 -41c-5 -16 -7 -34 -7 -77c0 -42 2 -60 7 -76
c10 -28 30 -41 60 -41z" />
    <glyph glyph-name="dcroat" unicode="&#x111;" horiz-adv-x="557" 
d="M336 441v92c0 4 -2 6 -6 6h-95c-6 0 -10 4 -10 10v83c0 6 4 10 10 10h95c4 0 6 2 6 6v22c0 6 4 10 10 10h148c6 0 10 -4 10 -10v-22c0 -4 2 -6 6 -6h32c6 0 10 -4 10 -10v-83c0 -6 -4 -10 -10 -10h-32c-4 0 -6 -2 -6 -6v-523c0 -6 -4 -10 -10 -10h-148c-6 0 -10 4 -10 10
v36h-1c-22 -34 -63 -58 -125 -58c-82 0 -136 41 -161 117c-12 39 -17 78 -17 138c0 61 5 100 17 139c25 76 79 117 161 117c62 0 103 -24 125 -58h1zM269 126c29 0 50 13 59 41c6 16 8 34 8 76c0 43 -2 61 -8 77c-9 28 -30 41 -59 41c-30 0 -50 -13 -60 -41
c-5 -16 -7 -34 -7 -77c0 -42 2 -60 7 -76c10 -28 30 -41 60 -41z" />
    <glyph glyph-name="eth" unicode="&#xf0;" horiz-adv-x="538" 
d="M423 566l-55 -17l23 -31c82 -112 116 -186 116 -287c0 -41 -6 -72 -14 -98c-30 -91 -112 -145 -224 -145c-116 0 -194 54 -222 138c-9 29 -15 60 -15 93s5 68 14 97c25 76 86 126 172 126c31 0 53 -9 67 -18h2l-61 83l-98 -29c-6 -1 -11 1 -13 7l-21 73c-2 6 0 11 7 13
l64 19l-58 80c-4 5 -1 10 5 10h148c9 0 14 -3 19 -9l28 -39l88 26c6 1 11 -1 13 -7l22 -72c1 -6 -1 -11 -7 -13zM269 125c30 0 53 15 62 42c4 14 6 31 6 52s-2 38 -6 52c-9 27 -31 42 -61 42s-53 -15 -62 -42c-4 -14 -7 -31 -7 -52s3 -38 7 -52c9 -27 32 -42 61 -42z" />
    <glyph glyph-name="egrave" unicode="&#xe8;" horiz-adv-x="533" 
d="M275 -12c-119 0 -198 53 -227 143c-10 29 -16 61 -16 112c0 52 6 85 15 113c30 91 109 143 218 143c116 0 192 -52 220 -141c10 -30 16 -67 16 -152c0 -6 -4 -10 -11 -10h-289c-4 0 -6 -2 -6 -6c1 -7 2 -14 4 -20c11 -34 47 -53 94 -53c42 0 78 14 109 39c6 5 10 5 15 0
l71 -73c5 -4 4 -11 -1 -15c-51 -49 -125 -80 -212 -80zM201 298h132c4 0 6 2 6 6c0 13 -1 22 -4 30c-9 28 -33 44 -68 44c-34 0 -59 -16 -68 -44c-2 -8 -4 -17 -4 -30c0 -4 2 -6 6 -6zM338 546h-116c-7 0 -11 2 -17 10l-103 136c-4 5 -1 10 5 10h139c8 0 13 -3 17 -10
l80 -136c3 -6 1 -10 -5 -10z" />
    <glyph glyph-name="eacute" unicode="&#xe9;" horiz-adv-x="533" 
d="M309 546h-116c-6 0 -8 4 -5 10l80 136c4 7 9 10 17 10h139c6 0 9 -5 5 -10l-103 -136c-6 -8 -10 -10 -17 -10zM275 -12c-119 0 -198 53 -227 143c-10 29 -16 61 -16 112c0 52 6 85 15 113c30 91 109 143 218 143c116 0 192 -52 220 -141c10 -30 16 -67 16 -152
c0 -6 -4 -10 -11 -10h-289c-4 0 -6 -2 -6 -6c1 -7 2 -14 4 -20c11 -34 47 -53 94 -53c42 0 78 14 109 39c6 5 10 5 15 0l71 -73c5 -4 4 -11 -1 -15c-51 -49 -125 -80 -212 -80zM201 298h132c4 0 6 2 6 6c0 13 -1 22 -4 30c-9 28 -33 44 -68 44c-34 0 -59 -16 -68 -44
c-2 -8 -4 -17 -4 -30c0 -4 2 -6 6 -6z" />
    <glyph glyph-name="ecircumflex" unicode="&#xea;" horiz-adv-x="533" 
d="M433 544h-95c-10 0 -15 2 -23 10l-49 50h-2l-48 -50c-8 -8 -13 -10 -23 -10h-95c-6 0 -9 5 -5 10l109 137c5 7 10 10 18 10h91c8 0 13 -3 18 -10l109 -137c4 -5 1 -10 -5 -10zM275 -12c-119 0 -198 53 -227 143c-10 29 -16 61 -16 112c0 52 6 85 15 113
c30 91 109 143 218 143c116 0 192 -52 220 -141c10 -30 16 -67 16 -152c0 -6 -4 -10 -11 -10h-289c-4 0 -6 -2 -6 -6c1 -7 2 -14 4 -20c11 -34 47 -53 94 -53c42 0 78 14 109 39c6 5 10 5 15 0l71 -73c5 -4 4 -11 -1 -15c-51 -49 -125 -80 -212 -80zM201 298h132
c4 0 6 2 6 6c0 13 -1 22 -4 30c-9 28 -33 44 -68 44c-34 0 -59 -16 -68 -44c-2 -8 -4 -17 -4 -30c0 -4 2 -6 6 -6z" />
    <glyph glyph-name="ecaron" unicode="&#x11b;" horiz-adv-x="533" 
d="M311 541h-91c-8 0 -13 3 -18 10l-109 137c-4 5 -1 10 5 10h95c10 0 15 -2 23 -10l48 -49h2l49 49c8 8 13 10 23 10h95c6 0 9 -5 5 -10l-109 -137c-5 -7 -10 -10 -18 -10zM275 -12c-119 0 -198 53 -227 143c-10 29 -16 61 -16 112c0 52 6 85 15 113c30 91 109 143 218 143
c116 0 192 -52 220 -141c10 -30 16 -67 16 -152c0 -6 -4 -10 -11 -10h-289c-4 0 -6 -2 -6 -6c1 -7 2 -14 4 -20c11 -34 47 -53 94 -53c42 0 78 14 109 39c6 5 10 5 15 0l71 -73c5 -4 4 -11 -1 -15c-51 -49 -125 -80 -212 -80zM201 298h132c4 0 6 2 6 6c0 13 -1 22 -4 30
c-9 28 -33 44 -68 44c-34 0 -59 -16 -68 -44c-2 -8 -4 -17 -4 -30c0 -4 2 -6 6 -6z" />
    <glyph glyph-name="edieresis" unicode="&#xeb;" horiz-adv-x="533" 
d="M422 550h-108c-6 0 -10 4 -10 10v110c0 6 4 10 10 10h108c6 0 10 -4 10 -10v-110c0 -6 -4 -10 -10 -10zM217 550h-108c-6 0 -10 4 -10 10v110c0 6 4 10 10 10h108c6 0 10 -4 10 -10v-110c0 -6 -4 -10 -10 -10zM275 -12c-119 0 -198 53 -227 143c-10 29 -16 61 -16 112
c0 52 6 85 15 113c30 91 109 143 218 143c116 0 192 -52 220 -141c10 -30 16 -67 16 -152c0 -6 -4 -10 -11 -10h-289c-4 0 -6 -2 -6 -6c1 -7 2 -14 4 -20c11 -34 47 -53 94 -53c42 0 78 14 109 39c6 5 10 5 15 0l71 -73c5 -4 4 -11 -1 -15c-51 -49 -125 -80 -212 -80z
M201 298h132c4 0 6 2 6 6c0 13 -1 22 -4 30c-9 28 -33 44 -68 44c-34 0 -59 -16 -68 -44c-2 -8 -4 -17 -4 -30c0 -4 2 -6 6 -6z" />
    <glyph glyph-name="emacron" unicode="&#x113;" horiz-adv-x="533" 
d="M275 -12c-119 0 -198 53 -227 143c-10 29 -16 61 -16 112c0 52 6 85 15 113c30 91 109 143 218 143c116 0 192 -52 220 -141c10 -30 16 -67 16 -152c0 -6 -4 -10 -11 -10h-289c-4 0 -6 -2 -6 -6c1 -7 2 -14 4 -20c11 -34 47 -53 94 -53c42 0 78 14 109 39c6 5 10 5 15 0
l71 -73c5 -4 4 -11 -1 -15c-51 -49 -125 -80 -212 -80zM201 298h132c4 0 6 2 6 6c0 13 -1 22 -4 30c-9 28 -33 44 -68 44c-34 0 -59 -16 -68 -44c-2 -8 -4 -17 -4 -30c0 -4 2 -6 6 -6zM416 562h-301c-6 0 -10 4 -10 10v91c0 6 4 10 10 10h301c6 0 10 -4 10 -10v-91
c0 -6 -4 -10 -10 -10z" />
    <glyph glyph-name="ebreve" unicode="&#x115;" horiz-adv-x="533" 
d="M275 -12c-119 0 -198 53 -227 143c-10 29 -16 61 -16 112c0 52 6 85 15 113c30 91 109 143 218 143c116 0 192 -52 220 -141c10 -30 16 -67 16 -152c0 -6 -4 -10 -11 -10h-289c-4 0 -6 -2 -6 -6c1 -7 2 -14 4 -20c11 -34 47 -53 94 -53c42 0 78 14 109 39c6 5 10 5 15 0
l71 -73c5 -4 4 -11 -1 -15c-51 -49 -125 -80 -212 -80zM201 298h132c4 0 6 2 6 6c0 13 -1 22 -4 30c-9 28 -33 44 -68 44c-34 0 -59 -16 -68 -44c-2 -8 -4 -17 -4 -30c0 -4 2 -6 6 -6zM265 538c-91 0 -158 62 -160 141c0 6 4 11 12 11h65c8 0 11 -3 14 -11
c12 -26 34 -40 69 -40c36 0 58 14 70 40c3 8 6 11 14 11h65c8 0 12 -5 12 -11c-2 -79 -69 -141 -161 -141z" />
    <glyph glyph-name="edotaccent" unicode="&#x117;" horiz-adv-x="533" 
d="M275 -12c-119 0 -198 53 -227 143c-10 29 -16 61 -16 112c0 52 6 85 15 113c30 91 109 143 218 143c116 0 192 -52 220 -141c10 -30 16 -67 16 -152c0 -6 -4 -10 -11 -10h-289c-4 0 -6 -2 -6 -6c1 -7 2 -14 4 -20c11 -34 47 -53 94 -53c42 0 78 14 109 39c6 5 10 5 15 0
l71 -73c5 -4 4 -11 -1 -15c-51 -49 -125 -80 -212 -80zM201 298h132c4 0 6 2 6 6c0 13 -1 22 -4 30c-9 28 -33 44 -68 44c-34 0 -59 -16 -68 -44c-2 -8 -4 -17 -4 -30c0 -4 2 -6 6 -6zM334 550h-138c-6 0 -10 4 -10 10v110c0 6 4 10 10 10h138c6 0 10 -4 10 -10v-110
c0 -6 -4 -10 -10 -10z" />
    <glyph glyph-name="eogonek" unicode="&#x119;" horiz-adv-x="533" 
d="M347 -192c-68 0 -110 39 -110 97c0 31 14 58 36 83h-9c-112 3 -188 55 -216 143c-10 29 -16 61 -16 112c0 52 6 85 15 113c30 91 109 143 218 143c116 0 192 -52 220 -141c10 -30 16 -67 16 -152c0 -6 -4 -10 -11 -10h-289c-4 0 -6 -2 -6 -6c1 -7 2 -14 4 -20
c11 -34 47 -53 94 -53c42 0 78 14 109 39c6 5 10 5 15 0l71 -73c5 -4 4 -11 -1 -15c-12 -12 -26 -24 -41 -33c-81 -66 -88 -87 -88 -101c0 -9 5 -16 17 -16c9 0 15 3 25 8c5 3 10 2 13 -3l38 -71c3 -5 1 -10 -4 -13c-33 -22 -67 -31 -100 -31zM333 298c4 0 6 2 6 6
c0 13 -1 22 -4 30c-9 28 -33 44 -68 44c-34 0 -59 -16 -68 -44c-2 -8 -4 -17 -4 -30c0 -4 2 -6 6 -6h132z" />
    <glyph glyph-name="gcircumflex" unicode="&#x11d;" horiz-adv-x="552" 
d="M438 544h-95c-10 0 -15 2 -23 10l-49 50h-2l-48 -50c-8 -8 -13 -10 -23 -10h-95c-6 0 -9 5 -5 10l109 137c5 7 10 10 18 10h91c8 0 13 -3 18 -10l109 -137c4 -5 1 -10 -5 -10zM240 -192c-77 0 -157 35 -191 76c-4 5 -3 10 1 15l84 86c5 5 10 5 15 0c29 -24 58 -39 96 -39
c60 0 86 31 86 99v37h-1c-21 -35 -64 -57 -124 -57c-80 0 -135 40 -160 117c-11 33 -16 69 -16 120s5 86 16 120c25 76 80 117 160 117c60 0 103 -23 124 -58h1v36c0 6 4 10 10 10h148c6 0 10 -4 10 -10v-402c0 -188 -90 -267 -259 -267zM265 162c32 0 50 14 59 43
c4 14 7 29 7 57c0 27 -3 43 -7 57c-9 28 -27 42 -59 42c-31 0 -49 -14 -58 -42c-5 -14 -7 -30 -7 -57c0 -28 2 -43 7 -57c9 -29 27 -43 58 -43z" />
    <glyph glyph-name="gbreve" unicode="&#x11f;" horiz-adv-x="552" 
d="M240 -192c-77 0 -157 35 -191 76c-4 5 -3 10 1 15l84 86c5 5 10 5 15 0c29 -24 58 -39 96 -39c60 0 86 31 86 99v37h-1c-21 -35 -64 -57 -124 -57c-80 0 -135 40 -160 117c-11 33 -16 69 -16 120s5 86 16 120c25 76 80 117 160 117c60 0 103 -23 124 -58h1v36
c0 6 4 10 10 10h148c6 0 10 -4 10 -10v-402c0 -188 -90 -267 -259 -267zM265 162c32 0 50 14 59 43c4 14 7 29 7 57c0 27 -3 43 -7 57c-9 28 -27 42 -59 42c-31 0 -49 -14 -58 -42c-5 -14 -7 -30 -7 -57c0 -28 2 -43 7 -57c9 -29 27 -43 58 -43zM270 538
c-91 0 -158 62 -160 141c0 6 4 11 12 11h65c8 0 11 -3 14 -11c12 -26 34 -40 69 -40c36 0 58 14 70 40c3 8 6 11 14 11h65c8 0 12 -5 12 -11c-2 -79 -69 -141 -161 -141z" />
    <glyph glyph-name="gdotaccent" unicode="&#x121;" horiz-adv-x="552" 
d="M240 -192c-77 0 -157 35 -191 76c-4 5 -3 10 1 15l84 86c5 5 10 5 15 0c29 -24 58 -39 96 -39c60 0 86 31 86 99v37h-1c-21 -35 -64 -57 -124 -57c-80 0 -135 40 -160 117c-11 33 -16 69 -16 120s5 86 16 120c25 76 80 117 160 117c60 0 103 -23 124 -58h1v36
c0 6 4 10 10 10h148c6 0 10 -4 10 -10v-402c0 -188 -90 -267 -259 -267zM265 162c32 0 50 14 59 43c4 14 7 29 7 57c0 27 -3 43 -7 57c-9 28 -27 42 -59 42c-31 0 -49 -14 -58 -42c-5 -14 -7 -30 -7 -57c0 -28 2 -43 7 -57c9 -29 27 -43 58 -43zM339 550h-138
c-6 0 -10 4 -10 10v110c0 6 4 10 10 10h138c6 0 10 -4 10 -10v-110c0 -6 -4 -10 -10 -10z" />
    <glyph glyph-name="gcommaaccent" unicode="&#x123;" horiz-adv-x="552" 
d="M331 550h-120c-6 0 -10 4 -10 10v88c0 10 1 16 8 21l104 75c7 5 12 7 17 7c7 0 11 -5 11 -12v-179c0 -6 -4 -10 -10 -10zM240 -192c-77 0 -157 35 -191 76c-4 5 -3 10 1 15l84 86c5 5 10 5 15 0c29 -24 58 -39 96 -39c60 0 86 31 86 99v37h-1c-21 -35 -64 -57 -124 -57
c-80 0 -135 40 -160 117c-11 33 -16 69 -16 120s5 86 16 120c25 76 80 117 160 117c60 0 103 -23 124 -58h1v36c0 6 4 10 10 10h148c6 0 10 -4 10 -10v-402c0 -188 -90 -267 -259 -267zM265 162c32 0 50 14 59 43c4 14 7 29 7 57c0 27 -3 43 -7 57c-9 28 -27 42 -59 42
c-31 0 -49 -14 -58 -42c-5 -14 -7 -30 -7 -57c0 -28 2 -43 7 -57c9 -29 27 -43 58 -43z" />
    <glyph glyph-name="hcircumflex" unicode="&#x125;" horiz-adv-x="558" 
d="M498 0h-148c-6 0 -10 4 -10 10v278c0 43 -19 71 -59 71c-38 0 -60 -27 -60 -71v-278c0 -6 -4 -10 -10 -10h-148c-6 0 -10 4 -10 10v660c0 6 4 10 10 10h148c6 0 10 -4 10 -10v-228h1c22 32 64 57 125 57c111 0 161 -75 161 -182v-307c0 -6 -4 -10 -10 -10zM451 741h-95
c-10 0 -15 2 -23 10l-48 50h-2l-49 -50c-8 -8 -12 -10 -23 -10h-95c-6 0 -8 5 -4 10l108 137c5 7 11 10 19 10h90c8 0 14 -3 19 -10l108 -137c4 -5 1 -10 -5 -10z" />
    <glyph glyph-name="hbar" unicode="&#x127;" horiz-adv-x="558" 
d="M498 0h-148c-6 0 -10 4 -10 10v278c0 43 -19 71 -59 71c-38 0 -60 -27 -60 -71v-278c0 -6 -4 -10 -10 -10h-148c-6 0 -10 4 -10 10v523c0 4 -2 6 -6 6h-32c-6 0 -10 4 -10 10v83c0 6 4 10 10 10h32c4 0 6 2 6 6v22c0 6 4 10 10 10h148c6 0 10 -4 10 -10v-22
c0 -4 2 -6 6 -6h95c6 0 10 -4 10 -10v-83c0 -6 -4 -10 -10 -10h-95c-4 0 -6 -2 -6 -6v-91h1c22 32 64 57 125 57c111 0 161 -75 161 -182v-307c0 -6 -4 -10 -10 -10z" />
    <glyph glyph-name="dotlessi" unicode="&#x131;" horiz-adv-x="274" 
d="M211 0h-148c-6 0 -10 4 -10 10v467c0 6 4 10 10 10h148c6 0 10 -4 10 -10v-467c0 -6 -4 -10 -10 -10z" />
    <glyph glyph-name="igrave" unicode="&#xec;" horiz-adv-x="274" 
d="M211 0h-148c-6 0 -10 4 -10 10v467c0 6 4 10 10 10h148c6 0 10 -4 10 -10v-467c0 -6 -4 -10 -10 -10zM199 546h-116c-7 0 -11 2 -17 10l-103 136c-4 5 -1 10 5 10h139c8 0 13 -3 17 -10l80 -136c3 -6 1 -10 -5 -10z" />
    <glyph glyph-name="iacute" unicode="&#xed;" horiz-adv-x="274" 
d="M193 546h-116c-6 0 -8 4 -5 10l80 136c4 7 9 10 17 10h139c6 0 9 -5 5 -10l-103 -136c-6 -8 -10 -10 -17 -10zM211 0h-148c-6 0 -10 4 -10 10v467c0 6 4 10 10 10h148c6 0 10 -4 10 -10v-467c0 -6 -4 -10 -10 -10z" />
    <glyph glyph-name="icircumflex" unicode="&#xee;" horiz-adv-x="274" 
d="M305 544h-95c-10 0 -15 2 -23 10l-49 50h-2l-48 -50c-8 -8 -13 -10 -23 -10h-95c-6 0 -9 5 -5 10l109 137c5 7 10 10 18 10h91c8 0 13 -3 18 -10l109 -137c4 -5 1 -10 -5 -10zM211 0h-148c-6 0 -10 4 -10 10v467c0 6 4 10 10 10h148c6 0 10 -4 10 -10v-467
c0 -6 -4 -10 -10 -10z" />
    <glyph glyph-name="itilde" unicode="&#x129;" horiz-adv-x="274" 
d="M211 0h-148c-6 0 -10 4 -10 10v467c0 6 4 10 10 10h148c6 0 10 -4 10 -10v-467c0 -6 -4 -10 -10 -10zM206 545c-36 0 -59 11 -83 23c-20 10 -37 18 -60 18c-30 0 -50 -13 -76 -32c-5 -4 -10 -2 -10 3v81c0 10 2 15 9 22c22 22 49 37 81 37c37 0 60 -11 84 -23
c20 -10 37 -18 60 -18c29 0 50 13 75 33c6 4 11 2 11 -4v-81c0 -10 -2 -15 -10 -22c-22 -22 -49 -37 -81 -37z" />
    <glyph glyph-name="idieresis" unicode="&#xef;" horiz-adv-x="274" 
d="M294 550h-108c-6 0 -10 4 -10 10v110c0 6 4 10 10 10h108c6 0 10 -4 10 -10v-110c0 -6 -4 -10 -10 -10zM89 550h-108c-6 0 -10 4 -10 10v110c0 6 4 10 10 10h108c6 0 10 -4 10 -10v-110c0 -6 -4 -10 -10 -10zM211 0h-148c-6 0 -10 4 -10 10v467c0 6 4 10 10 10h148
c6 0 10 -4 10 -10v-467c0 -6 -4 -10 -10 -10z" />
    <glyph glyph-name="imacron" unicode="&#x12b;" horiz-adv-x="274" 
d="M211 0h-148c-6 0 -10 4 -10 10v467c0 6 4 10 10 10h148c6 0 10 -4 10 -10v-467c0 -6 -4 -10 -10 -10zM288 562h-301c-6 0 -10 4 -10 10v91c0 6 4 10 10 10h301c6 0 10 -4 10 -10v-91c0 -6 -4 -10 -10 -10z" />
    <glyph glyph-name="ibreve" unicode="&#x12d;" horiz-adv-x="274" 
d="M211 0h-148c-6 0 -10 4 -10 10v467c0 6 4 10 10 10h148c6 0 10 -4 10 -10v-467c0 -6 -4 -10 -10 -10zM137 538c-91 0 -158 62 -160 141c0 6 4 11 12 11h65c8 0 11 -3 14 -11c12 -26 34 -40 69 -40c36 0 58 14 70 40c3 8 6 11 14 11h65c8 0 12 -5 12 -11
c-2 -79 -69 -141 -161 -141z" />
    <glyph glyph-name="iogonek" unicode="&#x12f;" horiz-adv-x="274" 
d="M211 550h-148c-6 0 -10 4 -10 10v110c0 6 4 10 10 10h148c6 0 10 -4 10 -10v-110c0 -6 -4 -10 -10 -10zM129 -192c-68 0 -110 39 -110 97c0 39 18 71 46 95h-3c-6 1 -9 5 -9 10v467c0 6 4 10 10 10h148c6 0 10 -4 10 -10v-467c0 -6 -2 -8 -9 -12c-62 -34 -72 -50 -72 -64
c0 -9 5 -16 17 -16c8 0 15 3 24 8c6 3 10 2 13 -3l38 -71c3 -5 2 -10 -4 -13c-33 -22 -67 -31 -99 -31z" />
    <glyph glyph-name="dotlessj" unicode="&#x237;" horiz-adv-x="274" 
d="M22 -180h-38c-6 0 -10 4 -10 10v118c0 6 4 10 10 10h15c40 0 54 9 54 55v464c0 6 4 10 10 10h148c6 0 10 -4 10 -10v-464c0 -138 -71 -193 -199 -193z" />
    <glyph glyph-name="jcircumflex" unicode="&#x135;" horiz-adv-x="274" 
d="M22 -180h-38c-6 0 -10 4 -10 10v118c0 6 4 10 10 10h15c40 0 54 9 54 55v464c0 6 4 10 10 10h148c6 0 10 -4 10 -10v-464c0 -138 -71 -193 -199 -193zM306 544h-95c-10 0 -15 2 -23 10l-49 50h-2l-48 -50c-8 -8 -13 -10 -23 -10h-95c-6 0 -9 5 -5 10l109 137
c5 7 10 10 18 10h91c8 0 13 -3 18 -10l109 -137c4 -5 1 -10 -5 -10z" />
    <glyph glyph-name="kcommaaccent" unicode="&#x137;" horiz-adv-x="540" 
d="M214 -248c-7 0 -11 5 -11 13v179c0 6 4 10 10 10h120c6 0 10 -4 10 -10v-89c0 -9 -2 -15 -9 -20l-103 -75c-7 -5 -12 -8 -17 -8zM525 0h-159c-7 0 -12 3 -15 10l-95 188l-36 -48v-140c0 -6 -4 -10 -10 -10h-147c-6 0 -10 4 -10 10v660c0 6 4 10 10 10h147
c6 0 10 -4 10 -10v-342l114 149c6 7 11 10 19 10h153c6 0 8 -6 4 -10l-143 -166l163 -301c3 -5 1 -10 -5 -10z" />
    <glyph glyph-name="kgreenlandic" unicode="&#x138;" horiz-adv-x="540" 
d="M525 0h-159c-7 0 -12 3 -15 10l-95 188l-36 -48v-140c0 -6 -4 -10 -10 -10h-147c-6 0 -10 4 -10 10v467c0 6 4 10 10 10h147c6 0 10 -4 10 -10v-149l114 149c6 7 11 10 19 10h153c6 0 8 -6 4 -10l-143 -166l163 -301c3 -5 1 -10 -5 -10z" />
    <glyph glyph-name="lacute" unicode="&#x13a;" horiz-adv-x="315" 
d="M193 747h-115c-6 0 -8 5 -4 10l102 122c5 6 10 10 18 10h142c6 0 9 -5 5 -10l-128 -123c-7 -7 -11 -9 -20 -9zM281 -6h-61c-121 0 -169 49 -169 171v505c0 6 4 10 10 10h148c6 0 10 -4 10 -10v-488c0 -33 14 -48 41 -48h21c6 0 10 -4 10 -10v-120c0 -6 -4 -10 -10 -10z
" />
    <glyph glyph-name="lcaron" unicode="&#x13e;" horiz-adv-x="316" 
d="M263 472c-7 0 -11 5 -11 13v185c0 6 4 10 10 10h109c6 0 10 -4 10 -10v-94c0 -10 -2 -15 -9 -21l-92 -75c-7 -6 -12 -8 -17 -8zM281 -6h-61c-121 0 -169 49 -169 171v505c0 6 4 10 10 10h148c6 0 10 -4 10 -10v-488c0 -33 14 -48 41 -48h21c6 0 10 -4 10 -10v-120
c0 -6 -4 -10 -10 -10z" />
    <glyph glyph-name="lcommaaccent" unicode="&#x13c;" horiz-adv-x="315" 
d="M119 -248c-7 0 -11 5 -11 13v179c0 6 4 10 10 10h120c6 0 10 -4 10 -10v-89c0 -9 -2 -15 -9 -20l-103 -75c-7 -5 -12 -8 -17 -8zM281 -6h-61c-121 0 -169 49 -169 171v505c0 6 4 10 10 10h148c6 0 10 -4 10 -10v-488c0 -33 14 -48 41 -48h21c6 0 10 -4 10 -10v-120
c0 -6 -4 -10 -10 -10z" />
    <glyph glyph-name="lslash" unicode="&#x142;" horiz-adv-x="316" 
d="M281 359l-62 -32v-145c0 -33 14 -48 41 -48h21c6 0 10 -4 10 -10v-120c0 -6 -4 -10 -10 -10h-61c-121 0 -169 49 -169 171v81l-32 -16c-6 -3 -10 0 -10 6v105c0 6 2 10 10 14l32 16v299c0 6 4 10 10 10h148c6 0 10 -4 10 -10v-218l62 32c6 3 10 0 10 -6v-104
c0 -7 -2 -11 -10 -15z" />
    <glyph glyph-name="ldot" unicode="&#x140;" horiz-adv-x="418" 
d="M281 -6h-61c-121 0 -169 49 -169 171v505c0 6 4 10 10 10h148c6 0 10 -4 10 -10v-488c0 -33 14 -48 41 -48h21c6 0 10 -4 10 -10v-120c0 -6 -4 -10 -10 -10zM414 264h-139c-6 0 -10 4 -10 10v138c0 6 4 10 10 10h139c6 0 10 -4 10 -10v-138c0 -6 -4 -10 -10 -10z" />
    <glyph glyph-name="nacute" unicode="&#x144;" horiz-adv-x="558" 
d="M304 546h-116c-6 0 -8 4 -5 10l80 136c4 7 9 10 17 10h139c6 0 9 -5 5 -10l-103 -136c-6 -8 -10 -10 -17 -10zM498 0h-148c-6 0 -10 4 -10 10v278c0 43 -19 71 -59 71c-38 0 -60 -27 -60 -71v-278c0 -6 -4 -10 -10 -10h-148c-6 0 -10 4 -10 10v467c0 6 4 10 10 10h148
c6 0 10 -4 10 -10v-35h1c22 32 64 57 125 57c111 0 161 -75 161 -182v-307c0 -6 -4 -10 -10 -10z" />
    <glyph glyph-name="ncaron" unicode="&#x148;" horiz-adv-x="558" 
d="M324 541h-91c-8 0 -13 3 -18 10l-109 137c-4 5 -1 10 5 10h95c10 0 15 -2 23 -10l48 -49h2l49 49c8 8 13 10 23 10h95c6 0 9 -5 5 -10l-109 -137c-5 -7 -10 -10 -18 -10zM498 0h-148c-6 0 -10 4 -10 10v278c0 43 -19 71 -59 71c-38 0 -60 -27 -60 -71v-278
c0 -6 -4 -10 -10 -10h-148c-6 0 -10 4 -10 10v467c0 6 4 10 10 10h148c6 0 10 -4 10 -10v-35h1c22 32 64 57 125 57c111 0 161 -75 161 -182v-307c0 -6 -4 -10 -10 -10z" />
    <glyph glyph-name="ntilde" unicode="&#xf1;" horiz-adv-x="558" 
d="M498 0h-148c-6 0 -10 4 -10 10v278c0 43 -19 71 -59 71c-38 0 -60 -27 -60 -71v-278c0 -6 -4 -10 -10 -10h-148c-6 0 -10 4 -10 10v467c0 6 4 10 10 10h148c6 0 10 -4 10 -10v-35h1c22 32 64 57 125 57c111 0 161 -75 161 -182v-307c0 -6 -4 -10 -10 -10zM347 545
c-36 0 -59 11 -83 23c-20 10 -37 18 -60 18c-30 0 -50 -13 -76 -32c-5 -4 -10 -2 -10 3v81c0 10 2 15 9 22c22 22 49 37 81 37c37 0 60 -11 84 -23c20 -10 37 -18 60 -18c29 0 50 13 75 33c6 4 11 2 11 -4v-81c0 -10 -2 -15 -10 -22c-22 -22 -49 -37 -81 -37z" />
    <glyph glyph-name="ncommaaccent" unicode="&#x146;" horiz-adv-x="558" 
d="M220 -248c-7 0 -11 5 -11 13v179c0 6 4 10 10 10h120c6 0 10 -4 10 -10v-89c0 -9 -2 -15 -9 -20l-103 -75c-7 -5 -12 -8 -17 -8zM498 0h-148c-6 0 -10 4 -10 10v278c0 43 -19 71 -59 71c-38 0 -60 -27 -60 -71v-278c0 -6 -4 -10 -10 -10h-148c-6 0 -10 4 -10 10v467
c0 6 4 10 10 10h148c6 0 10 -4 10 -10v-35h1c22 32 64 57 125 57c111 0 161 -75 161 -182v-307c0 -6 -4 -10 -10 -10z" />
    <glyph glyph-name="eng" unicode="&#x14b;" horiz-adv-x="558" 
d="M313 -180h-37c-6 0 -10 4 -10 10v118c0 6 4 10 10 10h15c37 0 49 9 49 52v278c0 43 -19 71 -59 71c-38 0 -60 -27 -60 -71v-278c0 -6 -4 -10 -10 -10h-148c-6 0 -10 4 -10 10v467c0 6 4 10 10 10h148c6 0 10 -4 10 -10v-35h1c25 32 66 57 125 57c111 0 161 -75 161 -182
v-304c0 -138 -66 -193 -195 -193z" />
    <glyph glyph-name="ograve" unicode="&#xf2;" horiz-adv-x="538" 
d="M269 -12c-107 0 -192 48 -222 141c-11 36 -15 71 -15 114c0 44 4 79 15 115c30 93 115 141 222 141s191 -48 222 -141c11 -36 15 -71 15 -115c0 -43 -4 -78 -15 -114c-31 -93 -115 -141 -222 -141zM269 126c29 0 50 13 60 41c5 18 7 35 7 76s-2 59 -7 77
c-10 28 -31 41 -60 41s-50 -13 -60 -41c-5 -18 -7 -36 -7 -77s2 -58 7 -76c10 -28 31 -41 60 -41zM338 546h-116c-7 0 -11 2 -17 10l-103 136c-4 5 -1 10 5 10h139c8 0 13 -3 17 -10l80 -136c3 -6 1 -10 -5 -10z" />
    <glyph glyph-name="oacute" unicode="&#xf3;" horiz-adv-x="538" 
d="M317 546h-116c-6 0 -8 4 -5 10l80 136c4 7 9 10 17 10h139c6 0 9 -5 5 -10l-103 -136c-6 -8 -10 -10 -17 -10zM269 -12c-107 0 -192 48 -222 141c-11 36 -15 71 -15 114c0 44 4 79 15 115c30 93 115 141 222 141s191 -48 222 -141c11 -36 15 -71 15 -115
c0 -43 -4 -78 -15 -114c-31 -93 -115 -141 -222 -141zM269 126c29 0 50 13 60 41c5 18 7 35 7 76s-2 59 -7 77c-10 28 -31 41 -60 41s-50 -13 -60 -41c-5 -18 -7 -36 -7 -77s2 -58 7 -76c10 -28 31 -41 60 -41z" />
    <glyph glyph-name="ocircumflex" unicode="&#xf4;" horiz-adv-x="538" 
d="M436 544h-95c-10 0 -15 2 -23 10l-49 50h-2l-48 -50c-8 -8 -13 -10 -23 -10h-95c-6 0 -9 5 -5 10l109 137c5 7 10 10 18 10h91c8 0 13 -3 18 -10l109 -137c4 -5 1 -10 -5 -10zM269 -12c-107 0 -192 48 -222 141c-11 36 -15 71 -15 114c0 44 4 79 15 115
c30 93 115 141 222 141s191 -48 222 -141c11 -36 15 -71 15 -115c0 -43 -4 -78 -15 -114c-31 -93 -115 -141 -222 -141zM269 126c29 0 50 13 60 41c5 18 7 35 7 76s-2 59 -7 77c-10 28 -31 41 -60 41s-50 -13 -60 -41c-5 -18 -7 -36 -7 -77s2 -58 7 -76
c10 -28 31 -41 60 -41z" />
    <glyph glyph-name="otilde" unicode="&#xf5;" horiz-adv-x="538" 
d="M269 -12c-107 0 -192 48 -222 141c-11 36 -15 71 -15 114c0 44 4 79 15 115c30 93 115 141 222 141s191 -48 222 -141c11 -36 15 -71 15 -115c0 -43 -4 -78 -15 -114c-31 -93 -115 -141 -222 -141zM269 126c29 0 50 13 60 41c5 18 7 35 7 76s-2 59 -7 77
c-10 28 -31 41 -60 41s-50 -13 -60 -41c-5 -18 -7 -36 -7 -77s2 -58 7 -76c10 -28 31 -41 60 -41zM337 545c-36 0 -59 11 -83 23c-20 10 -37 18 -60 18c-30 0 -50 -13 -76 -32c-5 -4 -10 -2 -10 3v81c0 10 2 15 9 22c22 22 49 37 81 37c37 0 60 -11 84 -23
c20 -10 37 -18 60 -18c29 0 50 13 75 33c6 4 11 2 11 -4v-81c0 -10 -2 -15 -10 -22c-22 -22 -49 -37 -81 -37z" />
    <glyph glyph-name="odieresis" unicode="&#xf6;" horiz-adv-x="538" 
d="M424 550h-108c-6 0 -10 4 -10 10v110c0 6 4 10 10 10h108c6 0 10 -4 10 -10v-110c0 -6 -4 -10 -10 -10zM219 550h-108c-6 0 -10 4 -10 10v110c0 6 4 10 10 10h108c6 0 10 -4 10 -10v-110c0 -6 -4 -10 -10 -10zM269 -12c-107 0 -192 48 -222 141c-11 36 -15 71 -15 114
c0 44 4 79 15 115c30 93 115 141 222 141s191 -48 222 -141c11 -36 15 -71 15 -115c0 -43 -4 -78 -15 -114c-31 -93 -115 -141 -222 -141zM269 126c29 0 50 13 60 41c5 18 7 35 7 76s-2 59 -7 77c-10 28 -31 41 -60 41s-50 -13 -60 -41c-5 -18 -7 -36 -7 -77s2 -58 7 -76
c10 -28 31 -41 60 -41z" />
    <glyph glyph-name="omacron" unicode="&#x14d;" horiz-adv-x="538" 
d="M419 562h-301c-6 0 -10 4 -10 10v91c0 6 4 10 10 10h301c6 0 10 -4 10 -10v-91c0 -6 -4 -10 -10 -10zM269 -12c-107 0 -192 48 -222 141c-11 36 -15 71 -15 114c0 44 4 79 15 115c30 93 115 141 222 141s191 -48 222 -141c11 -36 15 -71 15 -115c0 -43 -4 -78 -15 -114
c-31 -93 -115 -141 -222 -141zM269 126c29 0 50 13 60 41c5 18 7 35 7 76s-2 59 -7 77c-10 28 -31 41 -60 41s-50 -13 -60 -41c-5 -18 -7 -36 -7 -77s2 -58 7 -76c10 -28 31 -41 60 -41z" />
    <glyph glyph-name="obreve" unicode="&#x14f;" horiz-adv-x="538" 
d="M269 -12c-107 0 -192 48 -222 141c-11 36 -15 71 -15 114c0 44 4 79 15 115c30 93 115 141 222 141s191 -48 222 -141c11 -36 15 -71 15 -115c0 -43 -4 -78 -15 -114c-31 -93 -115 -141 -222 -141zM269 126c29 0 50 13 60 41c5 18 7 35 7 76s-2 59 -7 77
c-10 28 -31 41 -60 41s-50 -13 -60 -41c-5 -18 -7 -36 -7 -77s2 -58 7 -76c10 -28 31 -41 60 -41zM268 538c-91 0 -158 62 -160 141c0 6 4 11 12 11h65c8 0 11 -3 14 -11c12 -26 34 -40 69 -40c36 0 58 14 70 40c3 8 6 11 14 11h65c8 0 12 -5 12 -11
c-2 -79 -69 -141 -161 -141z" />
    <glyph glyph-name="ohungarumlaut" unicode="&#x151;" horiz-adv-x="538" 
d="M404 543h-98c-6 0 -9 4 -6 10l69 137c3 6 8 10 16 10h114c6 0 9 -5 6 -10l-84 -137c-4 -7 -9 -10 -17 -10zM219 543h-98c-6 0 -9 4 -6 10l70 137c3 6 8 10 16 10h114c6 0 9 -5 6 -10l-84 -137c-5 -7 -10 -10 -18 -10zM269 -12c-107 0 -192 48 -222 141
c-11 36 -15 71 -15 114c0 44 4 79 15 115c30 93 115 141 222 141s191 -48 222 -141c11 -36 15 -71 15 -115c0 -43 -4 -78 -15 -114c-31 -93 -115 -141 -222 -141zM269 126c29 0 50 13 60 41c5 18 7 35 7 76s-2 59 -7 77c-10 28 -31 41 -60 41s-50 -13 -60 -41
c-5 -18 -7 -36 -7 -77s2 -58 7 -76c10 -28 31 -41 60 -41z" />
    <glyph glyph-name="oslash" unicode="&#xf8;" horiz-adv-x="538" 
d="M269 -12c-44 0 -84 8 -118 24l-24 -32c-5 -7 -10 -10 -19 -10h-82c-6 0 -8 5 -4 10l62 82c-16 19 -29 41 -37 67c-11 36 -15 71 -15 114c0 44 4 79 15 115c30 93 115 141 222 141c44 0 84 -8 118 -24l24 32c5 7 10 10 19 10h81c6 0 8 -5 5 -10l-62 -83
c16 -18 28 -41 37 -66c11 -36 15 -71 15 -115c0 -43 -4 -78 -15 -114c-31 -93 -115 -141 -222 -141zM269 126c29 0 50 13 60 41c5 18 7 35 7 76s-2 59 -7 77c-10 28 -31 41 -60 41s-50 -13 -60 -41c-5 -18 -7 -36 -7 -77s2 -58 7 -76c10 -28 31 -41 60 -41z" />
    <glyph glyph-name="oe" unicode="&#x153;" horiz-adv-x="836" 
d="M579 -12c-64 0 -117 18 -157 52h-1c-42 -36 -93 -52 -152 -52c-107 0 -192 48 -222 141c-11 36 -15 71 -15 114c0 44 4 79 15 115c30 93 115 141 222 141c58 0 110 -16 151 -51h2c35 32 87 51 147 51c116 0 191 -52 220 -141c10 -30 16 -67 16 -152c0 -6 -4 -10 -11 -10
h-289c-4 0 -6 -2 -6 -6c0 -7 2 -14 4 -20c12 -35 47 -53 94 -53c42 0 78 14 109 39c6 5 10 5 14 0l72 -73c4 -4 4 -11 -1 -15c-51 -49 -125 -80 -212 -80zM637 298c4 0 6 2 6 6c0 13 -2 22 -4 30c-9 28 -34 44 -68 44c-35 0 -59 -16 -68 -44c-3 -8 -4 -17 -4 -30
c0 -4 2 -6 6 -6h132zM269 126c29 0 50 13 60 41c5 18 7 35 7 76s-2 59 -7 77c-10 28 -31 41 -60 41s-50 -13 -60 -41c-5 -18 -7 -36 -7 -77s2 -58 7 -76c10 -28 31 -41 60 -41z" />
    <glyph glyph-name="racute" unicode="&#x155;" horiz-adv-x="429" 
d="M265 546h-116c-6 0 -8 4 -5 10l80 136c4 7 9 10 17 10h139c6 0 9 -5 5 -10l-103 -136c-6 -8 -10 -10 -17 -10zM211 0h-148c-6 0 -10 4 -10 10v467c0 6 4 10 10 10h148c6 0 10 -4 10 -10v-43h1c23 43 69 65 126 65c27 0 52 -7 67 -19c6 -3 7 -6 5 -13l-57 -141
c-4 -5 -8 -4 -14 -1c-24 15 -48 22 -71 19c-39 -3 -57 -33 -57 -85v-249c0 -6 -4 -10 -10 -10z" />
    <glyph glyph-name="rcaron" unicode="&#x159;" horiz-adv-x="429" 
d="M279 541h-91c-8 0 -13 3 -18 10l-109 137c-4 5 -1 10 5 10h95c10 0 15 -2 23 -10l48 -49h2l49 49c8 8 13 10 23 10h95c6 0 9 -5 5 -10l-109 -137c-5 -7 -10 -10 -18 -10zM211 0h-148c-6 0 -10 4 -10 10v467c0 6 4 10 10 10h148c6 0 10 -4 10 -10v-43h1
c23 43 69 65 126 65c27 0 52 -7 67 -19c6 -3 7 -6 5 -13l-57 -141c-4 -5 -8 -4 -14 -1c-24 15 -48 22 -71 19c-39 -3 -57 -33 -57 -85v-249c0 -6 -4 -10 -10 -10z" />
    <glyph glyph-name="rcommaaccent" unicode="&#x157;" horiz-adv-x="429" 
d="M79 -248c-7 0 -11 5 -11 13v179c0 6 4 10 10 10h120c6 0 10 -4 10 -10v-89c0 -9 -2 -15 -9 -20l-103 -75c-7 -5 -12 -8 -17 -8zM211 0h-148c-6 0 -10 4 -10 10v467c0 6 4 10 10 10h148c6 0 10 -4 10 -10v-43h1c23 43 69 65 126 65c27 0 52 -7 67 -19c6 -3 7 -6 5 -13
l-57 -141c-4 -5 -8 -4 -14 -1c-24 15 -48 22 -71 19c-39 -3 -57 -33 -57 -85v-249c0 -6 -4 -10 -10 -10z" />
    <glyph glyph-name="sacute" unicode="&#x15b;" horiz-adv-x="512" 
d="M297 546h-116c-6 0 -8 4 -5 10l80 136c4 7 9 10 17 10h139c6 0 9 -5 5 -10l-103 -136c-6 -8 -10 -10 -17 -10zM255 -12c-102 0 -181 32 -232 75c-4 4 -5 10 -1 14l71 85c4 4 9 5 14 2c53 -35 106 -52 158 -52c43 0 62 15 62 35c0 17 -10 26 -61 32l-54 5
c-107 12 -168 63 -168 155c0 96 77 160 210 160c89 0 163 -26 210 -61c5 -4 5 -10 2 -15l-63 -80c-4 -5 -9 -6 -15 -3c-36 22 -84 38 -136 38c-35 0 -51 -12 -51 -30c0 -16 9 -26 56 -30l54 -6c127 -13 174 -71 173 -154c-1 -102 -84 -170 -229 -170z" />
    <glyph glyph-name="scircumflex" unicode="&#x15d;" horiz-adv-x="512" 
d="M428 544h-95c-10 0 -15 2 -23 10l-49 50h-2l-48 -50c-8 -8 -13 -10 -23 -10h-95c-6 0 -9 5 -5 10l109 137c5 7 10 10 18 10h91c8 0 13 -3 18 -10l109 -137c4 -5 1 -10 -5 -10zM255 -12c-102 0 -181 32 -232 75c-4 4 -5 10 -1 14l71 85c4 4 9 5 14 2
c53 -35 106 -52 158 -52c43 0 62 15 62 35c0 17 -10 26 -61 32l-54 5c-107 12 -168 63 -168 155c0 96 77 160 210 160c89 0 163 -26 210 -61c5 -4 5 -10 2 -15l-63 -80c-4 -5 -9 -6 -15 -3c-36 22 -84 38 -136 38c-35 0 -51 -12 -51 -30c0 -16 9 -26 56 -30l54 -6
c127 -13 174 -71 173 -154c-1 -102 -84 -170 -229 -170z" />
    <glyph glyph-name="scaron" unicode="&#x161;" horiz-adv-x="512" 
d="M298 541h-91c-8 0 -13 3 -18 10l-109 137c-4 5 -1 10 5 10h95c10 0 15 -2 23 -10l48 -49h2l49 49c8 8 13 10 23 10h95c6 0 9 -5 5 -10l-109 -137c-5 -7 -10 -10 -18 -10zM255 -12c-102 0 -181 32 -232 75c-4 4 -5 10 -1 14l71 85c4 4 9 5 14 2c53 -35 106 -52 158 -52
c43 0 62 15 62 35c0 17 -10 26 -61 32l-54 5c-107 12 -168 63 -168 155c0 96 77 160 210 160c89 0 163 -26 210 -61c5 -4 5 -10 2 -15l-63 -80c-4 -5 -9 -6 -15 -3c-36 22 -84 38 -136 38c-35 0 -51 -12 -51 -30c0 -16 9 -26 56 -30l54 -6c127 -13 174 -71 173 -154
c-1 -102 -84 -170 -229 -170z" />
    <glyph glyph-name="scedilla" unicode="&#x15f;" horiz-adv-x="512" 
d="M267 -166h-115c-6 0 -9 4 -7 10l59 147c-79 9 -137 36 -181 72c-4 4 -5 10 -1 14l71 85c4 4 9 5 14 2c53 -35 106 -52 158 -52c43 0 62 15 62 35c0 17 -10 26 -61 32l-54 5c-107 12 -168 63 -168 155c0 96 77 160 210 160c89 0 163 -26 210 -61c5 -4 5 -10 2 -15l-63 -80
c-4 -5 -9 -6 -15 -3c-36 22 -84 38 -136 38c-35 0 -51 -12 -51 -30c0 -16 9 -26 56 -30l54 -6c127 -13 174 -71 173 -154c-1 -82 -55 -143 -156 -164l-45 -150c-2 -7 -8 -10 -16 -10z" />
    <glyph glyph-name="scommaaccent" unicode="&#x219;" horiz-adv-x="512" 
d="M204 -248c-7 0 -11 5 -11 13v179c0 6 4 10 10 10h120c6 0 10 -4 10 -10v-89c0 -9 -2 -15 -9 -20l-103 -75c-7 -5 -12 -8 -17 -8zM255 -12c-102 0 -181 32 -232 75c-4 4 -5 10 -1 14l71 85c4 4 9 5 14 2c53 -35 106 -52 158 -52c43 0 62 15 62 35c0 17 -10 26 -61 32
l-54 5c-107 12 -168 63 -168 155c0 96 77 160 210 160c89 0 163 -26 210 -61c5 -4 5 -10 2 -15l-63 -80c-4 -5 -9 -6 -15 -3c-36 22 -84 38 -136 38c-35 0 -51 -12 -51 -30c0 -16 9 -26 56 -30l54 -6c127 -13 174 -71 173 -154c-1 -102 -84 -170 -229 -170z" />
    <glyph glyph-name="germandbls" unicode="&#xdf;" horiz-adv-x="579" 
d="M328 -5h-40c-6 0 -10 4 -10 10v110c0 6 4 10 10 10h24c34 0 54 12 62 39c3 9 5 21 5 64c0 42 -2 56 -5 66c-9 27 -30 41 -67 41h-17c-6 0 -10 4 -10 10v108c0 6 4 10 10 10h25c37 0 53 16 53 48c0 30 -21 47 -70 47c-56 0 -79 -24 -79 -76v-472c0 -6 -4 -10 -10 -10h-146
c-6 0 -10 4 -10 10v470c0 136 71 212 244 212c151 0 235 -67 235 -171c0 -54 -18 -91 -57 -117v-2c27 -14 47 -36 59 -71c7 -22 10 -48 10 -107c0 -72 -4 -99 -12 -124c-25 -76 -91 -105 -204 -105z" />
    <glyph glyph-name="tcaron" unicode="&#x165;" horiz-adv-x="365" 
d="M330 472c-7 0 -11 5 -11 13v185c0 6 4 10 10 10h109c6 0 10 -4 10 -10v-94c0 -10 -2 -15 -9 -21l-92 -75c-7 -6 -12 -8 -17 -8zM299 -6h-56c-128 0 -177 53 -177 184v183c0 4 -2 6 -6 6h-28c-6 0 -10 4 -10 10v100c0 6 4 10 10 10h28c4 0 6 2 6 6v127c0 6 4 10 10 10h146
c6 0 10 -4 10 -10v-127c0 -4 2 -6 6 -6h61c6 0 10 -4 10 -10v-100c0 -6 -4 -10 -10 -10h-61c-4 0 -6 -2 -6 -6v-176c0 -39 12 -51 45 -51h22c6 0 10 -4 10 -10v-120c0 -6 -4 -10 -10 -10z" />
    <glyph glyph-name="uni0163" unicode="&#x163;" horiz-adv-x="341" 
d="M137 -248c-7 0 -11 5 -11 13v179c0 6 4 10 10 10h120c6 0 10 -4 10 -10v-89c0 -9 -2 -15 -9 -20l-103 -75c-7 -5 -12 -8 -17 -8zM299 -6h-56c-128 0 -177 53 -177 184v183c0 4 -2 6 -6 6h-28c-6 0 -10 4 -10 10v100c0 6 4 10 10 10h28c4 0 6 2 6 6v127c0 6 4 10 10 10
h146c6 0 10 -4 10 -10v-127c0 -4 2 -6 6 -6h61c6 0 10 -4 10 -10v-100c0 -6 -4 -10 -10 -10h-61c-4 0 -6 -2 -6 -6v-176c0 -39 12 -51 45 -51h22c6 0 10 -4 10 -10v-120c0 -6 -4 -10 -10 -10z" />
    <glyph glyph-name="uni021B" unicode="&#x21b;" horiz-adv-x="341" 
d="M137 -248c-7 0 -11 5 -11 13v179c0 6 4 10 10 10h120c6 0 10 -4 10 -10v-89c0 -9 -2 -15 -9 -20l-103 -75c-7 -5 -12 -8 -17 -8zM299 -6h-56c-128 0 -177 53 -177 184v183c0 4 -2 6 -6 6h-28c-6 0 -10 4 -10 10v100c0 6 4 10 10 10h28c4 0 6 2 6 6v127c0 6 4 10 10 10
h146c6 0 10 -4 10 -10v-127c0 -4 2 -6 6 -6h61c6 0 10 -4 10 -10v-100c0 -6 -4 -10 -10 -10h-61c-4 0 -6 -2 -6 -6v-176c0 -39 12 -51 45 -51h22c6 0 10 -4 10 -10v-120c0 -6 -4 -10 -10 -10z" />
    <glyph glyph-name="tbar" unicode="&#x167;" horiz-adv-x="341" 
d="M232 222v-37c0 -39 12 -51 45 -51h22c6 0 10 -4 10 -10v-120c0 -6 -4 -10 -10 -10h-56c-128 0 -177 53 -177 184v44c0 4 -2 6 -6 6h-19c-6 0 -10 4 -10 10v72c0 6 4 10 10 10h19c4 0 6 2 6 6v35c0 4 -2 6 -6 6h-28c-6 0 -10 4 -10 10v100c0 6 4 10 10 10h28c4 0 6 2 6 6
v127c0 6 4 10 10 10h146c6 0 10 -4 10 -10v-127c0 -4 2 -6 6 -6h61c6 0 10 -4 10 -10v-100c0 -6 -4 -10 -10 -10h-61c-4 0 -6 -2 -6 -6v-35c0 -4 2 -6 6 -6h47c6 0 10 -4 10 -10v-72c0 -6 -4 -10 -10 -10h-47c-4 0 -6 -2 -6 -6z" />
    <glyph glyph-name="thorn" unicode="&#xfe;" horiz-adv-x="557" 
d="M211 -180h-148c-6 0 -10 4 -10 10v840c0 6 4 10 10 10h148c6 0 10 -4 10 -10v-229h1c22 34 63 58 125 58c82 0 136 -41 161 -117c12 -39 17 -78 17 -139c0 -60 -5 -99 -17 -138c-25 -76 -79 -117 -161 -117c-62 0 -103 24 -125 58h-1v-216c0 -6 -4 -10 -10 -10zM288 126
c30 0 50 13 60 41c5 16 7 34 7 76c0 43 -2 61 -7 77c-10 28 -30 41 -60 41c-29 0 -50 -13 -59 -41c-6 -16 -8 -34 -8 -77c0 -42 2 -60 8 -76c9 -28 30 -41 59 -41z" />
    <glyph glyph-name="ugrave" unicode="&#xf9;" horiz-adv-x="555" 
d="M492 0h-148c-6 0 -10 4 -10 10v35h-1c-24 -33 -64 -57 -124 -57c-111 0 -160 75 -160 182v307c0 6 4 10 10 10h148c6 0 10 -4 10 -10v-278c0 -43 20 -71 59 -71c38 0 58 27 58 71v278c0 6 4 10 10 10h148c6 0 10 -4 10 -10v-467c0 -6 -4 -10 -10 -10zM347 546h-116
c-7 0 -11 2 -17 10l-103 136c-4 5 -1 10 5 10h139c8 0 13 -3 17 -10l80 -136c3 -6 1 -10 -5 -10z" />
    <glyph glyph-name="uacute" unicode="&#xfa;" horiz-adv-x="555" 
d="M324 546h-116c-6 0 -8 4 -5 10l80 136c4 7 9 10 17 10h139c6 0 9 -5 5 -10l-103 -136c-6 -8 -10 -10 -17 -10zM492 0h-148c-6 0 -10 4 -10 10v35h-1c-24 -33 -64 -57 -124 -57c-111 0 -160 75 -160 182v307c0 6 4 10 10 10h148c6 0 10 -4 10 -10v-278
c0 -43 20 -71 59 -71c38 0 58 27 58 71v278c0 6 4 10 10 10h148c6 0 10 -4 10 -10v-467c0 -6 -4 -10 -10 -10z" />
    <glyph glyph-name="ucircumflex" unicode="&#xfb;" horiz-adv-x="555" 
d="M445 544h-95c-10 0 -15 2 -23 10l-49 50h-2l-48 -50c-8 -8 -13 -10 -23 -10h-95c-6 0 -9 5 -5 10l109 137c5 7 10 10 18 10h91c8 0 13 -3 18 -10l109 -137c4 -5 1 -10 -5 -10zM492 0h-148c-6 0 -10 4 -10 10v35h-1c-24 -33 -64 -57 -124 -57c-111 0 -160 75 -160 182v307
c0 6 4 10 10 10h148c6 0 10 -4 10 -10v-278c0 -43 20 -71 59 -71c38 0 58 27 58 71v278c0 6 4 10 10 10h148c6 0 10 -4 10 -10v-467c0 -6 -4 -10 -10 -10z" />
    <glyph glyph-name="utilde" unicode="&#x169;" horiz-adv-x="555" 
d="M492 0h-148c-6 0 -10 4 -10 10v35h-1c-24 -33 -64 -57 -124 -57c-111 0 -160 75 -160 182v307c0 6 4 10 10 10h148c6 0 10 -4 10 -10v-278c0 -43 20 -71 59 -71c38 0 58 27 58 71v278c0 6 4 10 10 10h148c6 0 10 -4 10 -10v-467c0 -6 -4 -10 -10 -10zM346 545
c-36 0 -59 11 -83 23c-20 10 -37 18 -60 18c-30 0 -50 -13 -76 -32c-5 -4 -10 -2 -10 3v81c0 10 2 15 9 22c22 22 49 37 81 37c37 0 60 -11 84 -23c20 -10 37 -18 60 -18c29 0 50 13 75 33c6 4 11 2 11 -4v-81c0 -10 -2 -15 -10 -22c-22 -22 -49 -37 -81 -37z" />
    <glyph glyph-name="udieresis" unicode="&#xfc;" horiz-adv-x="555" 
d="M433 550h-108c-6 0 -10 4 -10 10v110c0 6 4 10 10 10h108c6 0 10 -4 10 -10v-110c0 -6 -4 -10 -10 -10zM228 550h-108c-6 0 -10 4 -10 10v110c0 6 4 10 10 10h108c6 0 10 -4 10 -10v-110c0 -6 -4 -10 -10 -10zM492 0h-148c-6 0 -10 4 -10 10v35h-1
c-24 -33 -64 -57 -124 -57c-111 0 -160 75 -160 182v307c0 6 4 10 10 10h148c6 0 10 -4 10 -10v-278c0 -43 20 -71 59 -71c38 0 58 27 58 71v278c0 6 4 10 10 10h148c6 0 10 -4 10 -10v-467c0 -6 -4 -10 -10 -10z" />
    <glyph glyph-name="umacron" unicode="&#x16b;" horiz-adv-x="555" 
d="M492 0h-148c-6 0 -10 4 -10 10v35h-1c-24 -33 -64 -57 -124 -57c-111 0 -160 75 -160 182v307c0 6 4 10 10 10h148c6 0 10 -4 10 -10v-278c0 -43 20 -71 59 -71c38 0 58 27 58 71v278c0 6 4 10 10 10h148c6 0 10 -4 10 -10v-467c0 -6 -4 -10 -10 -10zM428 562h-301
c-6 0 -10 4 -10 10v91c0 6 4 10 10 10h301c6 0 10 -4 10 -10v-91c0 -6 -4 -10 -10 -10z" />
    <glyph glyph-name="ubreve" unicode="&#x16d;" horiz-adv-x="555" 
d="M492 0h-148c-6 0 -10 4 -10 10v35h-1c-24 -33 -64 -57 -124 -57c-111 0 -160 75 -160 182v307c0 6 4 10 10 10h148c6 0 10 -4 10 -10v-278c0 -43 20 -71 59 -71c38 0 58 27 58 71v278c0 6 4 10 10 10h148c6 0 10 -4 10 -10v-467c0 -6 -4 -10 -10 -10zM277 538
c-91 0 -158 62 -160 141c0 6 4 11 12 11h65c8 0 11 -3 14 -11c12 -26 34 -40 69 -40c36 0 58 14 70 40c3 8 6 11 14 11h65c8 0 12 -5 12 -11c-2 -79 -69 -141 -161 -141z" />
    <glyph glyph-name="uring" unicode="&#x16f;" horiz-adv-x="555" 
d="M277 518c-65 0 -114 48 -114 114s49 114 114 114c66 0 115 -48 115 -114s-49 -114 -115 -114zM277 587c25 0 44 19 44 45s-19 45 -44 45c-24 0 -43 -19 -43 -45s19 -45 43 -45zM492 0h-148c-6 0 -10 4 -10 10v35h-1c-24 -33 -64 -57 -124 -57c-111 0 -160 75 -160 182
v307c0 6 4 10 10 10h148c6 0 10 -4 10 -10v-278c0 -43 20 -71 59 -71c38 0 58 27 58 71v278c0 6 4 10 10 10h148c6 0 10 -4 10 -10v-467c0 -6 -4 -10 -10 -10z" />
    <glyph glyph-name="uhungarumlaut" unicode="&#x171;" horiz-adv-x="555" 
d="M492 0h-148c-6 0 -10 4 -10 10v35h-1c-24 -33 -64 -57 -124 -57c-111 0 -160 75 -160 182v307c0 6 4 10 10 10h148c6 0 10 -4 10 -10v-278c0 -43 20 -71 59 -71c38 0 58 27 58 71v278c0 6 4 10 10 10h148c6 0 10 -4 10 -10v-467c0 -6 -4 -10 -10 -10zM416 543h-98
c-6 0 -9 4 -6 10l69 137c3 6 8 10 16 10h114c6 0 9 -5 6 -10l-84 -137c-4 -7 -9 -10 -17 -10zM231 543h-98c-6 0 -9 4 -6 10l70 137c3 6 8 10 16 10h114c6 0 9 -5 6 -10l-84 -137c-5 -7 -10 -10 -18 -10z" />
    <glyph glyph-name="uogonek" unicode="&#x173;" horiz-adv-x="556" 
d="M395 -192c-68 0 -110 39 -110 97c0 41 21 69 62 95h-4c-6 0 -9 4 -9 10v35h-1c-24 -33 -64 -57 -124 -57c-111 0 -160 75 -160 182v307c0 6 4 10 10 10h148c6 0 10 -4 10 -10v-278c0 -43 20 -71 59 -71c38 0 58 27 58 71v278c0 6 4 10 10 10h148c6 0 10 -4 10 -10v-467
c0 -6 -3 -8 -7 -10c-74 -31 -89 -50 -89 -66c0 -9 5 -16 17 -16c9 0 15 3 24 8c6 3 10 2 13 -3l38 -71c3 -5 2 -10 -4 -13c-32 -22 -67 -31 -99 -31z" />
    <glyph glyph-name="wcircumflex" unicode="&#x175;" horiz-adv-x="773" 
d="M553 544h-95c-10 0 -15 2 -23 10l-49 50h-2l-48 -50c-8 -8 -13 -10 -23 -10h-95c-6 0 -9 5 -5 10l109 137c5 7 10 10 18 10h91c8 0 13 -3 18 -10l109 -137c4 -5 1 -10 -5 -10zM591 0h-116c-6 0 -10 3 -12 10l-75 250h-2l-76 -250c-2 -7 -6 -10 -12 -10h-116
c-6 0 -10 3 -12 10l-158 466c-2 6 1 11 8 11h149c8 0 12 -3 14 -10l67 -257h2l75 257c2 7 6 10 13 10h95c7 0 12 -3 14 -10l75 -257h2l63 257c2 7 6 10 15 10h149c6 0 9 -5 7 -11l-157 -466c-2 -7 -6 -10 -12 -10z" />
    <glyph glyph-name="wacute" unicode="&#x1e83;" horiz-adv-x="773" 
d="M446 546h-116c-6 0 -8 4 -5 10l80 136c4 7 9 10 17 10h139c6 0 9 -5 5 -10l-103 -136c-6 -8 -10 -10 -17 -10zM591 0h-116c-6 0 -10 3 -12 10l-75 250h-2l-76 -250c-2 -7 -6 -10 -12 -10h-116c-6 0 -10 3 -12 10l-158 466c-2 6 1 11 8 11h149c8 0 12 -3 14 -10l67 -257h2
l75 257c2 7 6 10 13 10h95c7 0 12 -3 14 -10l75 -257h2l63 257c2 7 6 10 15 10h149c6 0 9 -5 7 -11l-157 -466c-2 -7 -6 -10 -12 -10z" />
    <glyph glyph-name="wdieresis" unicode="&#x1e85;" horiz-adv-x="773" 
d="M542 550h-108c-6 0 -10 4 -10 10v110c0 6 4 10 10 10h108c6 0 10 -4 10 -10v-110c0 -6 -4 -10 -10 -10zM337 550h-108c-6 0 -10 4 -10 10v110c0 6 4 10 10 10h108c6 0 10 -4 10 -10v-110c0 -6 -4 -10 -10 -10zM591 0h-116c-6 0 -10 3 -12 10l-75 250h-2l-76 -250
c-2 -7 -6 -10 -12 -10h-116c-6 0 -10 3 -12 10l-158 466c-2 6 1 11 8 11h149c8 0 12 -3 14 -10l67 -257h2l75 257c2 7 6 10 13 10h95c7 0 12 -3 14 -10l75 -257h2l63 257c2 7 6 10 15 10h149c6 0 9 -5 7 -11l-157 -466c-2 -7 -6 -10 -12 -10z" />
    <glyph glyph-name="wgrave" unicode="&#x1e81;" horiz-adv-x="773" 
d="M591 0h-116c-6 0 -10 3 -12 10l-75 250h-2l-76 -250c-2 -7 -6 -10 -12 -10h-116c-6 0 -10 3 -12 10l-158 466c-2 6 1 11 8 11h149c8 0 12 -3 14 -10l67 -257h2l75 257c2 7 6 10 13 10h95c7 0 12 -3 14 -10l75 -257h2l63 257c2 7 6 10 15 10h149c6 0 9 -5 7 -11l-157 -466
c-2 -7 -6 -10 -12 -10zM444 546h-116c-7 0 -11 2 -17 10l-103 136c-4 5 -1 10 5 10h139c8 0 13 -3 17 -10l80 -136c3 -6 1 -10 -5 -10z" />
    <glyph glyph-name="yacute" unicode="&#xfd;" horiz-adv-x="531" 
d="M133 -180h-37c-6 0 -10 4 -10 10v118c0 6 4 10 10 10h25c32 0 50 10 60 41l11 31l-183 447c-2 5 1 10 7 10h157c6 0 10 -4 12 -10l84 -244h2l78 244c2 6 6 10 13 10h153c7 0 9 -5 7 -10l-211 -532c-38 -97 -84 -125 -178 -125zM318 546h-116c-6 0 -8 4 -5 10l80 136
c4 7 9 10 17 10h139c6 0 9 -5 5 -10l-103 -136c-6 -8 -10 -10 -17 -10z" />
    <glyph glyph-name="ycircumflex" unicode="&#x177;" horiz-adv-x="531" 
d="M133 -180h-37c-6 0 -10 4 -10 10v118c0 6 4 10 10 10h25c32 0 50 10 60 41l11 31l-183 447c-2 5 1 10 7 10h157c6 0 10 -4 12 -10l84 -244h2l78 244c2 6 6 10 13 10h153c7 0 9 -5 7 -10l-211 -532c-38 -97 -84 -125 -178 -125zM432 544h-95c-10 0 -15 2 -23 10l-49 50h-2
l-48 -50c-8 -8 -13 -10 -23 -10h-95c-6 0 -9 5 -5 10l109 137c5 7 10 10 18 10h91c8 0 13 -3 18 -10l109 -137c4 -5 1 -10 -5 -10z" />
    <glyph glyph-name="ydieresis" unicode="&#xff;" horiz-adv-x="531" 
d="M133 -180h-37c-6 0 -10 4 -10 10v118c0 6 4 10 10 10h25c32 0 50 10 60 41l11 31l-183 447c-2 5 1 10 7 10h157c6 0 10 -4 12 -10l84 -244h2l78 244c2 6 6 10 13 10h153c7 0 9 -5 7 -10l-211 -532c-38 -97 -84 -125 -178 -125zM421 550h-108c-6 0 -10 4 -10 10v110
c0 6 4 10 10 10h108c6 0 10 -4 10 -10v-110c0 -6 -4 -10 -10 -10zM216 550h-108c-6 0 -10 4 -10 10v110c0 6 4 10 10 10h108c6 0 10 -4 10 -10v-110c0 -6 -4 -10 -10 -10z" />
    <glyph glyph-name="ygrave" unicode="&#x1ef3;" horiz-adv-x="531" 
d="M133 -180h-37c-6 0 -10 4 -10 10v118c0 6 4 10 10 10h25c32 0 50 10 60 41l11 31l-183 447c-2 5 1 10 7 10h157c6 0 10 -4 12 -10l84 -244h2l78 244c2 6 6 10 13 10h153c7 0 9 -5 7 -10l-211 -532c-38 -97 -84 -125 -178 -125zM335 546h-116c-7 0 -11 2 -17 10l-103 136
c-4 5 -1 10 5 10h139c8 0 13 -3 17 -10l80 -136c3 -6 1 -10 -5 -10z" />
    <glyph glyph-name="zacute" unicode="&#x17a;" horiz-adv-x="494" 
d="M290 546h-116c-6 0 -8 4 -5 10l80 136c4 7 9 10 17 10h139c6 0 9 -5 5 -10l-103 -136c-6 -8 -10 -10 -17 -10zM446 0h-396c-6 0 -10 4 -10 10v108c0 4 1 7 3 10l215 223v3h-197c-6 0 -10 4 -10 10v113c0 6 4 10 10 10h385c6 0 10 -4 10 -10v-113c0 -5 -1 -7 -3 -10
l-214 -218v-3h207c6 0 10 -4 10 -10v-113c0 -6 -4 -10 -10 -10z" />
    <glyph glyph-name="zcaron" unicode="&#x17e;" horiz-adv-x="494" 
d="M296 541h-91c-8 0 -13 3 -18 10l-109 137c-4 5 -1 10 5 10h95c10 0 15 -2 23 -10l48 -49h2l49 49c8 8 13 10 23 10h95c6 0 9 -5 5 -10l-109 -137c-5 -7 -10 -10 -18 -10zM446 0h-396c-6 0 -10 4 -10 10v108c0 4 1 7 3 10l215 223v3h-197c-6 0 -10 4 -10 10v113
c0 6 4 10 10 10h385c6 0 10 -4 10 -10v-113c0 -5 -1 -7 -3 -10l-214 -218v-3h207c6 0 10 -4 10 -10v-113c0 -6 -4 -10 -10 -10z" />
    <glyph glyph-name="zdotaccent" unicode="&#x17c;" horiz-adv-x="494" 
d="M446 0h-396c-6 0 -10 4 -10 10v108c0 4 1 7 3 10l215 223v3h-197c-6 0 -10 4 -10 10v113c0 6 4 10 10 10h385c6 0 10 -4 10 -10v-113c0 -5 -1 -7 -3 -10l-214 -218v-3h207c6 0 10 -4 10 -10v-113c0 -6 -4 -10 -10 -10zM318 550h-138c-6 0 -10 4 -10 10v110
c0 6 4 10 10 10h138c6 0 10 -4 10 -10v-110c0 -6 -4 -10 -10 -10z" />
    <glyph glyph-name="f_i" unicode="&#xf001;" horiz-adv-x="625" 
d="M231 0h-147c-6 0 -10 4 -10 10v351c0 4 -2 6 -6 6h-28c-6 0 -10 4 -10 10v100c0 6 4 10 10 10h28c4 0 6 2 6 6v14c0 124 54 173 180 173h66c6 0 10 -4 10 -10v-108c0 -6 -4 -10 -10 -10h-29c-40 0 -50 -11 -50 -44v-15c0 -4 2 -6 6 -6h71c6 0 10 -4 10 -10v-100
c0 -6 -4 -10 -10 -10h-71c-4 0 -6 -2 -6 -6v-351c0 -6 -4 -10 -10 -10zM562 550h-148c-6 0 -10 4 -10 10v110c0 6 4 10 10 10h148c6 0 10 -4 10 -10v-110c0 -6 -4 -10 -10 -10zM562 0h-148c-6 0 -10 4 -10 10v467c0 6 4 10 10 10h148c6 0 10 -4 10 -10v-467
c0 -6 -4 -10 -10 -10z" />
    <glyph glyph-name="f_l" unicode="&#xf002;" horiz-adv-x="666" 
d="M231 0h-147c-6 0 -10 4 -10 10v351c0 4 -2 6 -6 6h-28c-6 0 -10 4 -10 10v100c0 6 4 10 10 10h28c4 0 6 2 6 6v14c0 124 54 173 180 173h66c6 0 10 -4 10 -10v-108c0 -6 -4 -10 -10 -10h-29c-40 0 -50 -11 -50 -44v-15c0 -4 2 -6 6 -6h71c6 0 10 -4 10 -10v-100
c0 -6 -4 -10 -10 -10h-71c-4 0 -6 -2 -6 -6v-351c0 -6 -4 -10 -10 -10zM632 -6h-61c-121 0 -169 49 -169 171v505c0 6 4 10 10 10h148c6 0 10 -4 10 -10v-488c0 -33 14 -48 41 -48h21c6 0 10 -4 10 -10v-120c0 -6 -4 -10 -10 -10z" />
    <glyph glyph-name="grave.cap" horiz-adv-x="489" 
d="M369 747h-115c-9 0 -13 2 -20 9l-128 123c-4 5 -1 10 5 10h142c8 0 13 -4 18 -10l102 -122c4 -5 2 -10 -4 -10z" />
    <glyph glyph-name="acute" unicode="&#xb4;" horiz-adv-x="489" 
d="M246 546h-116c-6 0 -8 4 -5 10l80 136c4 7 9 10 17 10h139c6 0 9 -5 5 -10l-103 -136c-6 -8 -10 -10 -17 -10z" />
    <glyph glyph-name="acute.cap" horiz-adv-x="489" 
d="M236 747h-115c-6 0 -8 5 -4 10l102 122c5 6 10 10 18 10h142c6 0 9 -5 5 -10l-128 -123c-7 -7 -11 -9 -20 -9z" />
    <glyph glyph-name="circumflex" unicode="&#x2c6;" horiz-adv-x="489" 
d="M412 544h-95c-10 0 -15 2 -23 10l-49 50h-2l-48 -50c-8 -8 -13 -10 -23 -10h-95c-6 0 -9 5 -5 10l109 137c5 7 10 10 18 10h91c8 0 13 -3 18 -10l109 -137c4 -5 1 -10 -5 -10z" />
    <glyph glyph-name="circumflex.cap" horiz-adv-x="489" 
d="M411 741h-95c-10 0 -15 2 -23 10l-48 50h-2l-49 -50c-8 -8 -12 -10 -23 -10h-95c-6 0 -8 5 -4 10l108 137c5 7 11 10 19 10h90c8 0 14 -3 19 -10l108 -137c4 -5 1 -10 -5 -10z" />
    <glyph glyph-name="caron" unicode="&#x2c7;" horiz-adv-x="489" 
d="M290 541h-91c-8 0 -13 3 -18 10l-109 137c-4 5 -1 10 5 10h95c10 0 15 -2 23 -10l48 -49h2l49 49c8 8 13 10 23 10h95c6 0 9 -5 5 -10l-109 -137c-5 -7 -10 -10 -18 -10z" />
    <glyph glyph-name="caron.cap" horiz-adv-x="489" 
d="M289 736h-90c-8 0 -14 3 -19 10l-108 136c-4 5 -2 10 4 10h95c11 0 15 -2 23 -10l49 -49h2l48 49c8 8 13 10 23 10h95c6 0 9 -5 5 -10l-108 -136c-5 -7 -11 -10 -19 -10z" />
    <glyph glyph-name="caron.alt" horiz-adv-x="489" 
d="M191 472c-7 0 -11 5 -11 13v185c0 6 4 10 10 10h109c6 0 10 -4 10 -10v-94c0 -10 -2 -15 -9 -21l-92 -75c-7 -6 -12 -8 -17 -8z" />
    <glyph glyph-name="tilde" unicode="&#x2dc;" horiz-adv-x="489" 
d="M313 545c-36 0 -59 11 -83 23c-20 10 -37 18 -60 18c-30 0 -50 -13 -76 -32c-5 -4 -10 -2 -10 3v81c0 10 2 15 9 22c22 22 49 37 81 37c37 0 60 -11 84 -23c20 -10 37 -18 60 -18c29 0 50 13 75 33c6 4 11 2 11 -4v-81c0 -10 -2 -15 -10 -22c-22 -22 -49 -37 -81 -37z
" />
    <glyph glyph-name="tilde.cap" horiz-adv-x="489" 
d="M313 740c-36 0 -59 11 -83 23c-20 10 -37 18 -60 18c-30 0 -50 -13 -76 -33c-5 -4 -10 -2 -10 4v81c0 10 2 14 9 22c22 22 49 37 81 37c37 0 60 -12 84 -24c20 -9 37 -17 60 -17c29 0 50 13 75 32c6 4 11 2 11 -3v-81c0 -10 -2 -15 -10 -22c-22 -22 -49 -37 -81 -37z" />
    <glyph glyph-name="dieresis" unicode="&#xa8;" horiz-adv-x="489" 
d="M401 550h-108c-6 0 -10 4 -10 10v110c0 6 4 10 10 10h108c6 0 10 -4 10 -10v-110c0 -6 -4 -10 -10 -10zM196 550h-108c-6 0 -10 4 -10 10v110c0 6 4 10 10 10h108c6 0 10 -4 10 -10v-110c0 -6 -4 -10 -10 -10z" />
    <glyph glyph-name="dieresis.cap" horiz-adv-x="489" 
d="M401 750h-107c-6 0 -10 4 -10 10v110c0 6 4 10 10 10h107c6 0 10 -4 10 -10v-110c0 -6 -4 -10 -10 -10zM195 750h-107c-6 0 -10 4 -10 10v110c0 6 4 10 10 10h107c6 0 10 -4 10 -10v-110c0 -6 -4 -10 -10 -10z" />
    <glyph glyph-name="macron" unicode="&#xaf;" horiz-adv-x="489" 
d="M395 562h-301c-6 0 -10 4 -10 10v91c0 6 4 10 10 10h301c6 0 10 -4 10 -10v-91c0 -6 -4 -10 -10 -10z" />
    <glyph glyph-name="macron.cap" horiz-adv-x="489" 
d="M395 761h-301c-6 0 -10 4 -10 10v90c0 6 4 10 10 10h301c6 0 10 -4 10 -10v-90c0 -6 -4 -10 -10 -10z" />
    <glyph glyph-name="uni02C9" unicode="&#x2c9;" horiz-adv-x="489" 
d="M395 761h-301c-6 0 -10 4 -10 10v90c0 6 4 10 10 10h301c6 0 10 -4 10 -10v-90c0 -6 -4 -10 -10 -10z" />
    <glyph glyph-name="breve" unicode="&#x2d8;" horiz-adv-x="489" 
d="M244 538c-91 0 -158 62 -160 141c0 6 4 11 12 11h65c8 0 11 -3 14 -11c12 -26 34 -40 69 -40c36 0 58 14 70 40c3 8 6 11 14 11h65c8 0 12 -5 12 -11c-2 -79 -69 -141 -161 -141z" />
    <glyph glyph-name="breve.cap" horiz-adv-x="489" 
d="M244 734c-91 0 -158 61 -160 141c0 6 4 10 12 10h65c8 0 11 -3 14 -10c12 -26 34 -40 69 -40c36 0 58 14 70 40c3 7 6 10 14 10h65c8 0 12 -4 12 -10c-2 -80 -69 -141 -161 -141z" />
    <glyph glyph-name="ring" unicode="&#x2da;" horiz-adv-x="489" 
d="M244 518c-65 0 -114 48 -114 114s49 114 114 114c66 0 115 -48 115 -114s-49 -114 -115 -114zM244 587c25 0 44 19 44 45s-19 45 -44 45c-24 0 -43 -19 -43 -45s19 -45 43 -45z" />
    <glyph glyph-name="ring.cap" horiz-adv-x="489" 
d="M244 704c-65 0 -114 48 -114 114c0 65 49 113 114 113c66 0 115 -48 115 -113c0 -66 -49 -114 -115 -114zM244 773c25 0 44 19 44 45c0 25 -19 44 -44 44c-24 0 -43 -19 -43 -44c0 -26 19 -45 43 -45z" />
    <glyph glyph-name="hungarumlaut" unicode="&#x2dd;" horiz-adv-x="489" 
d="M341 543h-98c-6 0 -9 4 -6 10l69 137c3 6 8 10 16 10h114c6 0 9 -5 6 -10l-84 -137c-4 -7 -9 -10 -17 -10zM156 543h-98c-6 0 -9 4 -6 10l70 137c3 6 8 10 16 10h114c6 0 9 -5 6 -10l-84 -137c-5 -7 -10 -10 -18 -10z" />
    <glyph glyph-name="hungarumlaut.cap" horiz-adv-x="489" 
d="M334 748h-97c-6 0 -8 5 -5 10l74 118c4 7 9 10 17 10h114c6 0 8 -5 5 -10l-89 -118c-5 -8 -10 -10 -19 -10zM150 748h-98c-6 0 -8 5 -5 10l75 118c4 7 9 10 17 10h114c6 0 8 -5 5 -10l-89 -118c-6 -8 -11 -10 -19 -10z" />
    <glyph glyph-name="dotaccent" unicode="&#x2d9;" horiz-adv-x="489" 
d="M313 550h-138c-6 0 -10 4 -10 10v110c0 6 4 10 10 10h138c6 0 10 -4 10 -10v-110c0 -6 -4 -10 -10 -10z" />
    <glyph glyph-name="dotaccent.cap" horiz-adv-x="489" 
d="M313 750h-138c-6 0 -10 4 -10 10v110c0 6 4 10 10 10h138c6 0 10 -4 10 -10v-110c0 -6 -4 -10 -10 -10z" />
    <glyph glyph-name="cedilla" unicode="&#xb8;" horiz-adv-x="489" 
d="M276 -166h-115c-6 0 -9 4 -7 10l62 156c3 7 7 10 14 10h101c6 0 9 -4 7 -10l-46 -156c-2 -7 -8 -10 -16 -10z" />
    <glyph glyph-name="ogonek" unicode="&#x2db;" horiz-adv-x="489" 
d="M240 -192c-68 0 -110 39 -110 97c0 43 22 72 53 95c10 7 15 10 25 10h127c6 0 7 -8 1 -10c-70 -32 -85 -50 -85 -66c0 -9 5 -16 17 -16c8 0 15 3 24 8c6 3 10 2 13 -3l38 -71c3 -5 2 -10 -4 -13c-32 -22 -66 -31 -99 -31z" />
    <glyph glyph-name="commaaccent" horiz-adv-x="489" 
d="M186 -248c-7 0 -11 5 -11 13v179c0 6 4 10 10 10h120c6 0 10 -4 10 -10v-89c0 -9 -2 -15 -9 -20l-103 -75c-7 -5 -12 -8 -17 -8z" />
    <glyph glyph-name="commaaccent.alt" horiz-adv-x="489" 
d="M305 550h-120c-6 0 -10 4 -10 10v88c0 10 1 16 8 21l104 75c7 5 12 7 17 7c7 0 11 -5 11 -12v-179c0 -6 -4 -10 -10 -10z" />
    <glyph glyph-name="ellipsis" unicode="&#x2026;" horiz-adv-x="789" 
d="M727 0h-139c-6 0 -10 4 -10 10v138c0 6 4 10 10 10h139c6 0 10 -4 10 -10v-138c0 -6 -4 -10 -10 -10zM464 0h-139c-6 0 -10 4 -10 10v138c0 6 4 10 10 10h139c6 0 10 -4 10 -10v-138c0 -6 -4 -10 -10 -10zM201 0h-139c-6 0 -10 4 -10 10v138c0 6 4 10 10 10h139
c6 0 10 -4 10 -10v-138c0 -6 -4 -10 -10 -10z" />
    <glyph glyph-name="uni00AD" unicode="&#xad;" horiz-adv-x="400" 
d="M350 193h-301c-6 0 -10 4 -10 10v125c0 6 4 10 10 10h301c6 0 10 -4 10 -10v-125c0 -6 -4 -10 -10 -10z" />
    <glyph glyph-name="exclamdown" unicode="&#xa1;" horiz-adv-x="317" 
d="M211 277c6 0 10 -4 10 -10l24 -450c0 -6 -4 -10 -10 -10h-153c-6 0 -10 4 -10 10l24 450c0 6 4 10 10 10h105zM237 477v-126c0 -6 -4 -10 -10 -10h-138c-6 0 -10 4 -10 10v126c0 6 4 10 10 10h138c6 0 10 -4 10 -10z" />
    <glyph glyph-name="questiondown" unicode="&#xbf;" horiz-adv-x="483" 
d="M318 277c6 0 10 -4 10 -10v-41c0 -36 -9 -59 -31 -84l-60 -71c-33 -35 -44 -55 -44 -80c0 -32 22 -56 56 -56c36 0 57 22 65 61c1 6 5 9 11 8l129 -18c7 -1 9 -5 8 -11c-14 -107 -94 -180 -217 -180c-129 0 -215 85 -215 188c0 59 24 99 68 145l53 64c17 19 21 32 21 58
v17c0 6 4 10 10 10h136zM328 477v-126c0 -6 -4 -10 -10 -10h-138c-6 0 -10 4 -10 10v126c0 6 4 10 10 10h138c6 0 10 -4 10 -10z" />
    <glyph glyph-name="quoteleft" unicode="&#x2018;" horiz-adv-x="239" 
d="M176 455h-113c-6 0 -10 4 -10 10v116c0 10 2 16 9 21l96 72c7 6 12 8 17 8c7 0 11 -5 11 -12v-205c0 -6 -4 -10 -10 -10z" />
    <glyph glyph-name="quoteright" unicode="&#x2019;" horiz-adv-x="239" 
d="M64 453c-7 0 -11 5 -11 12v205c0 6 4 10 10 10h113c6 0 10 -4 10 -10v-115c0 -10 -2 -17 -9 -22l-96 -72c-7 -6 -12 -8 -17 -8z" />
    <glyph glyph-name="quotedblleft" unicode="&#x201c;" horiz-adv-x="437" 
d="M374 455h-113c-6 0 -10 4 -10 10v116c0 10 2 16 9 21l96 72c7 6 12 8 17 8c7 0 11 -5 11 -12v-205c0 -6 -4 -10 -10 -10zM176 455h-113c-6 0 -10 4 -10 10v116c0 10 2 16 9 21l96 72c7 6 12 8 17 8c7 0 11 -5 11 -12v-205c0 -6 -4 -10 -10 -10z" />
    <glyph glyph-name="quotedblright" unicode="&#x201d;" horiz-adv-x="437" 
d="M262 453c-7 0 -11 5 -11 12v205c0 6 4 10 10 10h113c6 0 10 -4 10 -10v-115c0 -10 -2 -17 -9 -22l-96 -72c-7 -6 -12 -8 -17 -8zM64 453c-7 0 -11 5 -11 12v205c0 6 4 10 10 10h113c6 0 10 -4 10 -10v-115c0 -10 -2 -17 -9 -22l-96 -72c-7 -6 -12 -8 -17 -8z" />
    <glyph glyph-name="quotesinglbase" unicode="&#x201a;" horiz-adv-x="239" 
d="M64 -89c-7 0 -11 4 -11 11v205c0 6 4 10 10 10h113c6 0 10 -4 10 -10v-115c0 -10 -2 -16 -9 -22l-96 -72c-7 -5 -12 -7 -17 -7z" />
    <glyph glyph-name="quotedblbase" unicode="&#x201e;" horiz-adv-x="437" 
d="M262 -89c-7 0 -11 4 -11 11v205c0 6 4 10 10 10h113c6 0 10 -4 10 -10v-115c0 -10 -2 -16 -9 -22l-96 -72c-7 -5 -12 -7 -17 -7zM64 -89c-7 0 -11 4 -11 11v205c0 6 4 10 10 10h113c6 0 10 -4 10 -10v-115c0 -10 -2 -16 -9 -22l-96 -72c-7 -5 -12 -7 -17 -7z" />
    <glyph glyph-name="guilsinglleft" unicode="&#x2039;" horiz-adv-x="325" 
d="M258 23l-236 234c-4 4 -4 10 0 14l236 234c4 4 10 2 10 -4v-138c0 -8 -2 -12 -10 -19l-76 -76c-3 -3 -3 -5 0 -8l76 -76c8 -7 10 -11 10 -19v-138c0 -6 -6 -8 -10 -4z" />
    <glyph glyph-name="guilsinglright" unicode="&#x203a;" horiz-adv-x="325" 
d="M67 23c-4 -4 -10 -2 -10 4v138c0 8 3 12 10 19l77 76c3 3 3 5 0 8l-77 76c-7 7 -10 11 -10 19v138c0 6 6 8 10 4l236 -234c4 -4 4 -10 0 -14z" />
    <glyph glyph-name="guillemotleft" unicode="&#xab;" horiz-adv-x="586" 
d="M519 23l-237 234c-4 4 -4 10 0 14l237 234c4 4 10 2 10 -4v-138c0 -8 -3 -12 -10 -19l-77 -76c-3 -3 -3 -5 0 -8l77 -76c7 -7 10 -11 10 -19v-138c0 -6 -6 -8 -10 -4zM258 23l-236 234c-4 4 -4 10 0 14l236 234c4 4 10 2 10 -4v-138c0 -8 -2 -12 -10 -19l-76 -76
c-3 -3 -3 -5 0 -8l76 -76c8 -7 10 -11 10 -19v-138c0 -6 -6 -8 -10 -4z" />
    <glyph glyph-name="guillemotright" unicode="&#xbb;" horiz-adv-x="586" 
d="M328 23c-4 -4 -10 -2 -10 4v138c0 8 2 12 10 19l76 76c3 3 3 5 0 8l-76 76c-8 7 -10 11 -10 19v138c0 6 6 8 10 4l236 -234c4 -4 4 -10 0 -14zM67 23c-4 -4 -10 -2 -10 4v138c0 8 3 12 10 19l77 76c3 3 3 5 0 8l-77 76c-7 7 -10 11 -10 19v138c0 6 6 8 10 4l236 -234
c4 -4 4 -10 0 -14z" />
    <glyph glyph-name="endash" unicode="&#x2013;" horiz-adv-x="551" 
d="M521 195h-491c-6 0 -10 4 -10 10v120c0 6 4 10 10 10h491c6 0 10 -4 10 -10v-120c0 -6 -4 -10 -10 -10z" />
    <glyph glyph-name="emdash" unicode="&#x2014;" horiz-adv-x="921" 
d="M891 195h-861c-6 0 -10 4 -10 10v120c0 6 4 10 10 10h861c6 0 10 -4 10 -10v-120c0 -6 -4 -10 -10 -10z" />
    <glyph glyph-name="bullet" unicode="&#x2022;" horiz-adv-x="491" 
d="M246 147c-94 0 -162 68 -162 162c0 93 68 161 162 161c93 0 161 -68 161 -161c0 -94 -68 -162 -161 -162z" />
    <glyph glyph-name="periodcentered" unicode="&#xb7;" horiz-adv-x="263" 
d="M201 186h-139c-6 0 -10 4 -10 10v138c0 6 4 10 10 10h139c6 0 10 -4 10 -10v-138c0 -6 -4 -10 -10 -10z" />
    <glyph glyph-name="uni2219" unicode="&#x2219;" horiz-adv-x="263" 
d="M201 186h-139c-6 0 -10 4 -10 10v138c0 6 4 10 10 10h139c6 0 10 -4 10 -10v-138c0 -6 -4 -10 -10 -10z" />
    <glyph glyph-name="dagger" unicode="&#x2020;" horiz-adv-x="566" 
d="M356 -180h-146c-6 0 -10 4 -10 10v486c0 4 -2 6 -6 6h-144c-6 0 -10 4 -10 10v129c0 6 4 10 10 10h144c4 0 6 2 6 6v193c0 6 4 10 10 10h146c6 0 10 -4 10 -10v-193c0 -4 2 -6 6 -6h144c6 0 10 -4 10 -10v-129c0 -6 -4 -10 -10 -10h-144c-4 0 -6 -2 -6 -6v-486
c0 -6 -4 -10 -10 -10z" />
    <glyph glyph-name="daggerdbl" unicode="&#x2021;" horiz-adv-x="566" 
d="M356 -180h-146c-6 0 -10 4 -10 10v157c0 4 -2 6 -6 6h-144c-6 0 -10 4 -10 10v129c0 6 4 10 10 10h144c4 0 6 2 6 6v204c0 4 -2 6 -6 6h-144c-6 0 -10 4 -10 10v129c0 6 4 10 10 10h144c4 0 6 2 6 6v157c0 6 4 10 10 10h146c6 0 10 -4 10 -10v-157c0 -4 2 -6 6 -6h144
c6 0 10 -4 10 -10v-129c0 -6 -4 -10 -10 -10h-144c-4 0 -6 -2 -6 -6v-204c0 -4 2 -6 6 -6h144c6 0 10 -4 10 -10v-129c0 -6 -4 -10 -10 -10h-144c-4 0 -6 -2 -6 -6v-157c0 -6 -4 -10 -10 -10z" />
    <glyph glyph-name="section" unicode="&#xa7;" horiz-adv-x="531" 
d="M262 -194c-123 0 -190 68 -198 150c-1 5 1 10 7 11l124 19c6 1 10 -1 11 -8c3 -27 18 -48 53 -48c34 0 52 18 52 46c0 35 -19 57 -97 78c-110 30 -163 92 -163 196c0 65 33 116 83 148v2c-42 30 -61 73 -61 127c0 91 76 167 196 167c123 0 188 -74 195 -152
c1 -6 -1 -10 -7 -11l-122 -18c-6 -1 -10 2 -11 7c-4 30 -21 50 -52 50s-50 -18 -50 -45c0 -34 24 -55 96 -75c106 -31 162 -91 162 -196c0 -67 -38 -120 -83 -148v-2c44 -30 63 -73 63 -133c0 -93 -76 -165 -198 -165zM266 181c40 0 65 28 65 71s-25 71 -65 71
c-41 0 -66 -28 -66 -71s25 -71 66 -71z" />
    <glyph glyph-name="paragraph" unicode="&#xb6;" horiz-adv-x="678" 
d="M600 -180h-114c-6 0 -10 4 -10 10v730c0 4 -2 6 -6 6h-68c-4 0 -6 -2 -6 -6v-730c0 -6 -4 -10 -10 -10h-113c-6 0 -10 4 -10 10v386c-123 8 -213 99 -213 232c0 135 93 232 246 232h304c6 0 10 -4 10 -10v-840c0 -6 -4 -10 -10 -10z" />
    <glyph glyph-name="brokenbar" unicode="&#xa6;" horiz-adv-x="337" 
d="M231 388h-125c-6 0 -10 4 -10 10v332c0 6 4 10 10 10h125c6 0 10 -4 10 -10v-332c0 -6 -4 -10 -10 -10zM231 -84h-125c-6 0 -10 4 -10 10v336c0 6 4 10 10 10h125c6 0 10 -4 10 -10v-336c0 -6 -4 -10 -10 -10z" />
    <glyph glyph-name="copyright" unicode="&#xa9;" horiz-adv-x="794" 
d="M397 -13c-201 0 -352 151 -352 352c0 202 151 353 352 353s352 -151 352 -353c0 -201 -151 -352 -352 -352zM397 71c155 0 266 113 266 268c0 156 -111 269 -266 269s-266 -113 -266 -269c0 -155 111 -268 266 -268zM404 145c-82 0 -149 37 -173 112c-7 20 -10 43 -10 84
c0 40 3 63 10 83c24 75 91 112 173 112c75 0 134 -35 158 -83c3 -5 2 -11 -4 -13l-85 -44c-6 -3 -11 -1 -14 4c-13 22 -28 30 -51 30c-24 0 -43 -12 -50 -34c-3 -10 -5 -20 -5 -55s2 -46 5 -56c7 -22 26 -34 50 -34c23 0 38 8 51 31c3 4 8 6 14 3l85 -43c6 -3 7 -9 4 -14
c-24 -47 -83 -83 -158 -83z" />
    <glyph glyph-name="registered" unicode="&#xae;" horiz-adv-x="437" 
d="M218 301c-110 0 -193 83 -193 192c0 108 83 191 193 191s194 -83 194 -191c0 -109 -84 -192 -194 -192zM218 342c86 0 149 62 149 151c0 88 -63 150 -149 150c-85 0 -148 -62 -148 -150c0 -89 63 -151 148 -151zM190 388h-50c-4 0 -7 2 -7 7v198c0 5 3 7 7 7h93
c54 0 83 -27 83 -70c0 -28 -14 -49 -37 -61l37 -74c1 -3 0 -7 -5 -7h-55c-5 0 -8 2 -10 7l-30 65h-15c-3 0 -4 -1 -4 -4v-61c0 -5 -3 -7 -7 -7zM227 509c17 0 25 7 25 21c0 13 -8 20 -25 20h-26c-3 0 -4 -1 -4 -4v-32c0 -3 1 -5 4 -5h26z" />
    <glyph glyph-name="trademark" unicode="&#x2122;" horiz-adv-x="841" 
d="M782 286h-78c-6 0 -10 4 -10 10v185h-3l-57 -130c-3 -7 -7 -10 -14 -10h-47c-6 0 -10 3 -13 10l-58 130h-2v-185c0 -6 -4 -10 -10 -10h-79c-6 0 -10 4 -10 10v374c0 6 4 10 10 10h81c7 0 12 -3 15 -10l89 -199h4l88 199c3 7 8 10 14 10h80c6 0 10 -4 10 -10v-374
c0 -6 -4 -10 -10 -10zM239 286h-89c-6 0 -10 4 -10 10v282c0 4 -2 6 -6 6h-92c-6 0 -10 4 -10 10v76c0 6 4 10 10 10h305c6 0 10 -4 10 -10v-76c0 -6 -4 -10 -10 -10h-92c-4 0 -6 -2 -6 -6v-282c0 -6 -4 -10 -10 -10z" />
    <glyph glyph-name="currency" unicode="&#xa4;" 
d="M531 121l-83 -85c-5 -4 -10 -4 -14 0l-61 61c-28 -14 -59 -21 -92 -21s-64 7 -91 21l-60 -60c-4 -4 -10 -4 -14 0l-84 85c-4 4 -4 9 0 14l60 59c-13 27 -19 57 -19 89s7 62 19 89l-60 61c-5 4 -5 9 0 14l83 84c5 4 10 4 14 0l61 -61c27 13 58 21 91 21s64 -8 91 -21
l61 61c4 4 10 4 14 0l84 -84c4 -4 4 -10 0 -14l-62 -62c13 -27 20 -57 20 -88c0 -32 -7 -62 -19 -89l61 -60c5 -5 5 -10 0 -14zM281 195c50 0 87 39 87 89s-37 89 -87 89s-86 -39 -86 -89s36 -89 86 -89z" />
    <glyph glyph-name="Euro" unicode="&#x20ac;" 
d="M322 -12c-114 0 -189 51 -220 145c-8 27 -13 58 -13 100c0 4 -2 6 -6 6h-38c-6 0 -10 4 -10 10v62c0 6 4 10 10 10h38c4 0 6 2 6 6v29c0 4 -2 6 -6 6h-38c-6 0 -10 4 -10 10v63c0 6 4 10 10 10h38c4 0 6 2 6 6c0 38 5 69 13 96c31 94 106 145 220 145
c109 0 175 -52 208 -124c3 -7 2 -11 -5 -14l-115 -52c-6 -2 -13 -2 -17 5c-14 30 -35 47 -68 47c-29 0 -51 -14 -61 -46c-4 -11 -6 -25 -6 -57c0 -4 2 -6 6 -6h151c6 0 10 -4 10 -10l-10 -63c-1 -7 -4 -10 -10 -10h-141c-4 0 -6 -2 -6 -6v-29c0 -4 2 -6 6 -6h131
c6 0 10 -4 10 -10l-10 -62c-1 -7 -4 -10 -10 -10h-121c-4 0 -6 -2 -6 -6c0 -36 2 -50 6 -61c10 -32 32 -46 61 -46c33 0 54 17 68 47c4 7 11 7 17 5l115 -52c7 -3 8 -7 5 -14c-33 -72 -99 -124 -208 -124z" />
    <glyph glyph-name="cent" unicode="&#xa2;" 
d="M230 243c0 -41 3 -60 8 -75c9 -28 30 -42 64 -42c33 0 52 12 68 43c3 7 10 6 16 3l112 -58c6 -4 6 -9 4 -14c-26 -54 -84 -97 -161 -109v-78c0 -6 -4 -10 -10 -10h-79c-6 0 -10 4 -10 10v80c-81 13 -142 60 -167 138c-9 28 -14 61 -14 112s5 85 14 113
c25 77 86 124 167 138v79c0 6 4 10 10 10h79c6 0 10 -4 10 -10v-77c77 -12 135 -56 161 -109c2 -5 2 -10 -4 -14l-112 -58c-6 -3 -13 -4 -16 3c-16 30 -35 43 -68 43c-34 0 -55 -14 -64 -42c-5 -15 -8 -34 -8 -76z" />
    <glyph glyph-name="sterling" unicode="&#xa3;" 
d="M497 0h-419c-6 0 -10 4 -10 10v116c0 5 1 9 5 13c22 20 35 38 35 80v38c0 4 -2 6 -6 6h-34c-6 0 -10 4 -10 10v96c0 6 4 10 10 10h34c4 0 6 2 6 6v105c0 129 78 202 205 202c112 0 181 -65 193 -149c1 -6 -2 -11 -8 -12l-129 -27c-6 -1 -11 3 -12 8c-5 27 -18 42 -42 42
c-26 0 -40 -19 -40 -52v-117c0 -4 2 -6 6 -6h125c6 0 10 -4 10 -10v-96c0 -6 -4 -10 -10 -10h-125c-4 0 -6 -2 -6 -6v-27c0 -41 -9 -69 -29 -89v-2h251c6 0 10 -4 10 -10v-119c0 -6 -4 -10 -10 -10z" />
    <glyph glyph-name="florin" unicode="&#x192;" 
d="M457 302h-87l-47 -302c-21 -136 -81 -180 -204 -180h-36c-6 0 -10 4 -10 10v118c0 6 4 10 10 10h20c37 0 52 12 59 50l45 294h-58c-6 0 -10 4 -10 10v103c0 6 4 10 10 10h77l12 76c20 133 81 179 203 179h37c6 0 10 -4 10 -10v-118c0 -6 -4 -10 -10 -10h-21
c-35 0 -52 -14 -57 -50l-11 -67h68c6 0 10 -4 10 -10v-103c0 -6 -4 -10 -10 -10z" />
    <glyph glyph-name="yen" unicode="&#xa5;" 
d="M355 0h-147c-6 0 -10 4 -10 10v112c0 4 -2 6 -6 6h-112c-6 0 -10 4 -10 10v62c0 6 4 10 10 10h112c4 0 6 2 6 6v29c0 4 -2 6 -6 6h-112c-6 0 -10 4 -10 10v62c0 6 4 10 10 10h87v2l-145 335c-2 5 1 10 7 10h156c7 0 12 -3 15 -10l82 -237h3l81 237c2 7 7 10 15 10h153
c6 0 9 -5 7 -10l-145 -335v-2h87c6 0 10 -4 10 -10v-62c0 -6 -4 -10 -10 -10h-112c-4 0 -6 -2 -6 -6v-29c0 -4 2 -6 6 -6h112c6 0 10 -4 10 -10v-62c0 -6 -4 -10 -10 -10h-112c-4 0 -6 -2 -6 -6v-112c0 -6 -4 -10 -10 -10z" />
    <glyph glyph-name="ordfeminine" unicode="&#xaa;" horiz-adv-x="367" 
d="M316 392h-87c-6 0 -10 4 -10 10v14h-2c-15 -19 -41 -30 -80 -30c-54 0 -102 27 -102 88c0 62 49 97 131 97h46c4 0 6 2 6 6v5c0 16 -14 25 -56 25c-25 0 -52 -8 -67 -18c-5 -3 -11 -2 -14 4l-31 53c-3 5 -2 11 3 14c31 18 72 29 122 29c107 0 151 -33 151 -108v-179
c0 -6 -4 -10 -10 -10zM171 461c31 0 47 10 47 29v10c0 4 -2 6 -6 6h-38c-24 0 -34 -10 -34 -23c0 -14 11 -22 31 -22z" />
    <glyph glyph-name="ordmasculine" unicode="&#xba;" horiz-adv-x="387" 
d="M194 383c-78 0 -130 32 -149 90c-5 16 -8 35 -8 63s3 47 8 63c19 58 71 90 149 90c77 0 129 -32 148 -90c5 -16 8 -35 8 -63s-3 -47 -8 -63c-19 -58 -71 -90 -148 -90zM194 473c19 0 31 10 37 26c2 7 3 17 3 37s-1 30 -3 37c-6 16 -18 26 -37 26c-20 0 -32 -10 -38 -26
c-2 -7 -3 -17 -3 -37s1 -30 3 -37c6 -16 18 -26 38 -26z" />
    <glyph glyph-name="fraction" unicode="&#x2044;" horiz-adv-x="173" 
d="M-66 -12h-102c-6 0 -7 5 -4 10l395 684c4 7 8 10 16 10h102c6 0 7 -5 4 -10l-395 -684c-4 -7 -8 -10 -16 -10z" />
    <glyph glyph-name="uni2215" unicode="&#x2215;" horiz-adv-x="173" 
d="M-66 -12h-102c-6 0 -7 5 -4 10l395 684c4 7 8 10 16 10h102c6 0 7 -5 4 -10l-395 -684c-4 -7 -8 -10 -16 -10z" />
    <glyph glyph-name="onequarter" unicode="&#xbc;" horiz-adv-x="908" 
d="M274 274h-102c-6 0 -10 4 -10 10v270h-2l-66 -38c-5 -3 -10 0 -10 6v97c0 7 2 11 9 15l62 40c7 4 11 6 17 6h102c6 0 10 -4 10 -10v-386c0 -6 -4 -10 -10 -10zM784 0h-93c-6 0 -10 4 -10 10v36c0 4 -2 6 -6 6h-166c-6 0 -10 4 -10 10v85c0 7 1 12 4 18l107 231
c3 7 8 10 15 10h107c6 0 9 -5 7 -10l-111 -241v-2h47c4 0 6 2 6 6v57c0 6 4 10 10 10h93c6 0 10 -4 10 -10v-57c0 -4 1 -6 5 -6h14c6 0 10 -4 10 -10v-81c0 -6 -4 -10 -10 -10h-13c-4 0 -6 -2 -6 -6v-36c0 -6 -4 -10 -10 -10zM287 -12h-102c-6 0 -7 5 -4 10l395 684
c4 7 8 10 16 10h102c6 0 7 -5 4 -10l-395 -684c-4 -7 -8 -10 -16 -10z" />
    <glyph glyph-name="onehalf" unicode="&#xbd;" horiz-adv-x="934" 
d="M274 274h-102c-6 0 -10 4 -10 10v270h-2l-66 -38c-5 -3 -10 0 -10 6v97c0 7 2 11 9 15l62 40c7 4 11 6 17 6h102c6 0 10 -4 10 -10v-386c0 -6 -4 -10 -10 -10zM840 0h-277c-6 0 -10 4 -10 10v76c0 7 2 13 8 18l146 137c14 14 23 28 23 45c0 18 -11 31 -31 31
c-19 0 -33 -11 -35 -36c-1 -7 -5 -10 -11 -9l-91 13c-6 1 -9 5 -9 11c3 62 56 117 153 117c80 0 144 -45 144 -126c0 -44 -18 -74 -54 -107l-84 -78v-1h128c6 0 10 -4 10 -10v-81c0 -6 -4 -10 -10 -10zM287 -12h-102c-6 0 -7 5 -4 10l395 684c4 7 8 10 16 10h102
c6 0 7 -5 4 -10l-395 -684c-4 -7 -8 -10 -16 -10z" />
    <glyph glyph-name="threequarters" unicode="&#xbe;" horiz-adv-x="970" 
d="M846 0h-93c-6 0 -10 4 -10 10v36c0 4 -2 6 -6 6h-166c-6 0 -10 4 -10 10v85c0 7 1 12 4 18l107 231c3 7 8 10 15 10h107c6 0 9 -5 7 -10l-111 -241v-2h47c4 0 6 2 6 6v57c0 6 4 10 10 10h93c6 0 10 -4 10 -10v-57c0 -4 1 -6 5 -6h14c6 0 10 -4 10 -10v-81
c0 -6 -4 -10 -10 -10h-13c-4 0 -6 -2 -6 -6v-36c0 -6 -4 -10 -10 -10zM237 267c-82 0 -141 36 -153 102c-1 6 2 11 8 12l90 14c6 1 10 -1 13 -7c7 -14 20 -25 38 -25c22 0 36 13 36 35s-15 35 -43 35h-13c-6 0 -10 4 -10 10v74c0 6 4 10 10 10h13c21 0 36 12 36 32
s-12 32 -32 32c-19 0 -28 -9 -34 -23c-2 -6 -6 -8 -12 -7l-90 14c-6 1 -9 5 -8 11c12 58 63 101 149 101c94 0 147 -48 147 -114c0 -31 -15 -61 -45 -82v-1c26 -12 52 -42 52 -94c0 -78 -59 -129 -152 -129zM350 -12h-102c-6 0 -7 5 -4 10l395 684c4 7 8 10 16 10h102
c6 0 7 -5 4 -10l-395 -684c-4 -7 -8 -10 -16 -10z" />
    <glyph glyph-name="perthousand" unicode="&#x2030;" horiz-adv-x="1186" 
d="M273 -12h-102c-6 0 -7 5 -4 10l395 684c4 7 8 10 16 10h101c6 0 8 -5 5 -10l-395 -684c-4 -7 -8 -10 -16 -10zM206 330c-69 0 -118 32 -135 85c-7 19 -11 39 -11 94s4 75 11 94c17 53 66 85 135 85s118 -32 135 -85c7 -19 11 -39 11 -94s-4 -75 -11 -94
c-17 -53 -66 -85 -135 -85zM206 415c13 0 24 7 28 19c2 7 3 15 3 75s-1 68 -3 75c-4 12 -15 19 -28 19s-24 -7 -28 -19c-2 -7 -3 -15 -3 -75s1 -68 3 -75c4 -12 15 -19 28 -19zM980 -8c-69 0 -118 32 -135 85c-6 19 -10 38 -10 94c0 55 4 75 10 94c17 53 66 85 135 85
c70 0 119 -32 136 -85c6 -19 10 -39 10 -94c0 -56 -4 -75 -10 -94c-17 -53 -66 -85 -136 -85zM644 -8c-69 0 -118 32 -135 85c-7 19 -11 38 -11 94c0 55 4 75 11 94c17 53 66 85 135 85s118 -32 135 -85c7 -19 11 -39 11 -94c0 -56 -4 -75 -11 -94c-17 -53 -66 -85 -135 -85
zM980 77c14 0 24 6 28 19c3 7 4 14 4 75c0 60 -1 67 -4 75c-4 12 -14 18 -28 18c-13 0 -23 -6 -27 -18c-3 -8 -4 -15 -4 -75c0 -61 1 -68 4 -75c4 -13 14 -19 27 -19zM644 77c13 0 24 6 28 19c2 7 3 14 3 75c0 60 -1 67 -3 75c-4 12 -15 18 -28 18s-24 -6 -28 -18
c-2 -8 -3 -15 -3 -75c0 -61 1 -68 3 -75c4 -13 15 -19 28 -19z" />
    <glyph glyph-name="minus" unicode="&#x2212;" 
d="M505 206h-448c-6 0 -10 4 -10 10v120c0 6 4 10 10 10h448c6 0 10 -4 10 -10v-120c0 -6 -4 -10 -10 -10z" />
    <glyph glyph-name="plusminus" unicode="&#xb1;" 
d="M343 184h-124c-6 0 -10 4 -10 10v147c0 4 -2 6 -6 6h-146c-6 0 -10 4 -10 10v119c0 6 4 10 10 10h146c4 0 6 2 6 6v147c0 6 4 10 10 10h124c6 0 10 -4 10 -10v-147c0 -4 2 -6 6 -6h146c6 0 10 -4 10 -10v-119c0 -6 -4 -10 -10 -10h-146c-4 0 -6 -2 -6 -6v-147
c0 -6 -4 -10 -10 -10zM505 0h-448c-6 0 -10 4 -10 10v120c0 6 4 10 10 10h448c6 0 10 -4 10 -10v-120c0 -6 -4 -10 -10 -10z" />
    <glyph glyph-name="multiply" unicode="&#xd7;" 
d="M497 141l-81 -81c-4 -5 -10 -5 -14 0l-117 117c-3 3 -5 3 -8 0l-118 -117c-4 -5 -10 -5 -14 0l-80 80c-4 4 -4 10 0 14l116 117c3 3 3 6 0 9l-116 117c-4 4 -4 10 0 14l81 82c4 4 10 4 14 0l117 -118c3 -2 6 -2 9 0l117 118c4 4 10 4 14 0l80 -81c5 -4 5 -10 0 -14
l-116 -117c-3 -3 -3 -6 0 -8l116 -118c5 -4 5 -10 0 -14z" />
    <glyph glyph-name="divide" unicode="&#xf7;" 
d="M281 389c-47 0 -85 37 -85 84c0 48 38 85 85 85c48 0 85 -37 85 -85c0 -47 -37 -84 -85 -84zM505 206h-448c-6 0 -10 4 -10 10v120c0 6 4 10 10 10h448c6 0 10 -4 10 -10v-120c0 -6 -4 -10 -10 -10zM281 -6c-47 0 -85 37 -85 85c0 47 38 84 85 84c48 0 85 -37 85 -84
c0 -48 -37 -85 -85 -85z" />
    <glyph glyph-name="notequal" unicode="&#x2260;" 
d="M184 -9h-88c-6 0 -8 5 -5 10l47 95h-81c-6 0 -10 4 -10 10v120c0 6 4 10 10 10h150l40 80h-190c-6 0 -10 4 -10 10v120c0 6 4 10 10 10h259l48 95c3 6 8 10 14 10h88c6 0 9 -5 6 -10l-48 -95h81c6 0 10 -4 10 -10v-120c0 -6 -4 -10 -10 -10h-150l-40 -80h190
c6 0 10 -4 10 -10v-120c0 -6 -4 -10 -10 -10h-259l-47 -95c-3 -6 -8 -10 -15 -10z" />
    <glyph glyph-name="approxequal" unicode="&#x2248;" 
d="M370 292c-44 0 -74 15 -102 32c-22 14 -41 25 -63 25c-29 0 -48 -20 -63 -46c-3 -5 -9 -7 -14 -3l-81 51c-6 3 -6 8 -4 14c29 64 84 112 149 112c45 0 74 -15 102 -33c23 -14 41 -25 64 -25c29 0 47 21 62 46c3 5 9 7 14 4l82 -52c5 -3 6 -8 3 -14
c-28 -64 -84 -111 -149 -111zM370 73c-44 0 -74 15 -102 33c-22 14 -41 25 -63 25c-29 0 -48 -20 -63 -46c-3 -5 -9 -7 -14 -4l-81 52c-6 3 -6 8 -4 14c29 64 84 111 149 111c45 0 74 -15 102 -32c23 -14 41 -25 64 -25c29 0 47 20 62 46c3 5 9 7 14 3l82 -51
c5 -3 6 -8 3 -14c-28 -64 -84 -112 -149 -112z" />
    <glyph glyph-name="lessequal" unicode="&#x2264;" 
d="M505 171l-448 167c-6 2 -10 7 -10 14v102c0 7 4 12 10 14l448 167c6 2 10 0 10 -6v-129c0 -7 -2 -10 -10 -13l-243 -83v-2l243 -83c8 -3 10 -6 10 -13v-129c0 -6 -4 -8 -10 -6zM505 0h-448c-6 0 -10 4 -10 10v120c0 6 4 10 10 10h448c6 0 10 -4 10 -10v-120
c0 -6 -4 -10 -10 -10z" />
    <glyph glyph-name="greaterequal" unicode="&#x2265;" 
d="M505 338l-448 -167c-6 -2 -10 0 -10 6v129c0 7 3 10 10 13l244 83v2l-244 83c-7 3 -10 6 -10 13v129c0 6 4 8 10 6l448 -167c6 -2 10 -7 10 -14v-102c0 -7 -4 -12 -10 -14zM505 0h-448c-6 0 -10 4 -10 10v120c0 6 4 10 10 10h448c6 0 10 -4 10 -10v-120
c0 -6 -4 -10 -10 -10z" />
    <glyph glyph-name="logicalnot" unicode="&#xac;" 
d="M505 76h-123c-6 0 -10 4 -10 10v114c0 4 -2 6 -6 6h-309c-6 0 -10 4 -10 10v120c0 6 4 10 10 10h448c6 0 10 -4 10 -10v-250c0 -6 -4 -10 -10 -10z" />
    <glyph glyph-name="Delta" unicode="&#x2206;" horiz-adv-x="678" 
d="M658 0h-638c-7 0 -10 4 -8 10l235 660c2 6 6 10 13 10h163c7 0 11 -4 13 -10l230 -660c2 -6 -1 -10 -8 -10zM434 149c5 0 6 2 5 6l-97 318h-3l-100 -318c-1 -4 1 -6 5 -6h190z" />
    <glyph glyph-name="Omega" unicode="&#x2126;" horiz-adv-x="639" 
d="M584 0h-223c-6 0 -10 4 -10 10v117c0 7 3 12 9 15c45 23 58 63 58 198c0 94 -4 116 -10 135c-14 39 -44 60 -89 60c-44 0 -75 -21 -88 -60c-7 -19 -10 -41 -10 -135c0 -135 13 -175 58 -198c6 -3 9 -8 9 -15v-117c0 -6 -4 -10 -10 -10h-223c-6 0 -10 4 -10 10v123
c0 6 4 10 10 10h49v1c-39 29 -62 89 -62 196c0 102 7 143 21 183c38 111 131 169 256 169c126 0 218 -58 257 -169c14 -40 21 -81 21 -183c0 -107 -24 -167 -62 -196v-1h49c6 0 10 -4 10 -10v-123c0 -6 -4 -10 -10 -10z" />
    <glyph glyph-name="mu" unicode="&#xb5;" horiz-adv-x="604" 
d="M369 51h-1c-21 -35 -60 -55 -103 -55c-15 0 -29 2 -43 8h-1v-174c0 -6 -4 -10 -10 -10h-148c-6 0 -10 4 -10 10v647c0 6 4 10 10 10h148c6 0 10 -4 10 -10v-286c0 -40 20 -63 59 -63c38 0 63 27 63 71v278c0 6 4 10 10 10h148c6 0 10 -4 10 -10v-298c0 -33 3 -45 25 -45
h3c6 0 10 -4 10 -10v-120c0 -6 -4 -10 -10 -10h-29c-102 0 -118 26 -141 57z" />
    <glyph glyph-name="degree" unicode="&#xb0;" horiz-adv-x="407" 
d="M203 378c-90 0 -158 68 -158 158s68 158 158 158s159 -68 159 -158s-69 -158 -159 -158zM203 475c35 0 60 25 60 61s-25 62 -60 62s-59 -26 -59 -62s24 -61 59 -61z" />
    <glyph glyph-name="afii61289" unicode="&#x2113;" horiz-adv-x="474" 
d="M95 131c-5 -3 -10 -3 -14 2l-50 73c-3 5 -2 11 2 14l89 66v176c0 141 53 230 170 230c88 0 148 -58 148 -156c0 -102 -66 -202 -173 -296v-80c0 -32 15 -45 37 -45c18 0 36 10 52 21c5 4 10 3 14 -2l50 -73c3 -4 3 -10 -2 -14c-37 -34 -93 -59 -145 -59
c-98 0 -150 57 -151 163zM267 491v-93c34 42 57 90 57 140c0 29 -11 44 -27 44c-19 0 -30 -15 -30 -91z" />
    <glyph glyph-name="estimated" unicode="&#x212e;" horiz-adv-x="578" 
d="M288 -12c-145 0 -238 115 -238 256c0 143 93 255 238 255c144 0 239 -105 240 -255h-374v-167c35 -35 81 -53 134 -53c76 0 133 32 177 110l33 -21c-56 -86 -113 -125 -210 -125zM424 278v133c-40 37 -85 57 -136 57c-53 0 -99 -20 -134 -57v-133h270z" />
    <glyph glyph-name="infinity" unicode="&#x221e;" horiz-adv-x="742" 
d="M545 75c-61 0 -117 30 -174 87c-61 -60 -115 -87 -175 -87c-96 0 -169 69 -169 171s73 172 171 172c58 0 108 -25 173 -90c64 64 113 90 173 90c97 0 171 -68 171 -172c0 -101 -72 -171 -170 -171zM540 184c39 0 60 29 60 64c0 34 -21 61 -60 61c-24 0 -47 -11 -94 -63
c42 -45 65 -62 94 -62zM202 184c25 0 48 14 94 62c-44 49 -68 63 -94 63c-40 0 -61 -27 -61 -61c0 -36 22 -64 61 -64z" />
    <glyph glyph-name="partialdiff" unicode="&#x2202;" horiz-adv-x="552" 
d="M249 -12c-133 0 -216 91 -216 211c0 124 82 219 212 219c42 0 82 -11 113 -36h2c-2 106 -44 170 -119 170c-37 0 -67 -15 -96 -37c-5 -4 -10 -2 -14 3l-60 89c-3 5 -3 10 2 15c40 39 110 70 181 70c163 0 265 -120 265 -335c0 -216 -91 -369 -270 -369zM259 126
c47 0 81 39 94 131c-26 17 -56 29 -86 29c-47 0 -78 -31 -78 -86c0 -44 26 -74 70 -74z" />
    <glyph glyph-name="integral" unicode="&#x222b;" horiz-adv-x="411" 
d="M101 -180c-19 0 -40 1 -55 4c-6 1 -10 4 -10 11v115c0 7 4 11 10 11c10 -2 21 -3 31 -3c32 0 45 16 45 62v510c0 152 60 210 188 210c20 0 40 -1 55 -4c6 -1 10 -4 10 -11v-115c0 -7 -4 -11 -10 -11c-10 2 -20 3 -30 3c-32 0 -45 -16 -45 -62v-510
c0 -152 -60 -210 -189 -210z" />
    <glyph glyph-name="radical" unicode="&#x221a;" horiz-adv-x="658" 
d="M387 -180h-115c-6 0 -10 3 -13 10l-115 235c-2 4 -5 5 -9 3l-58 -29c-6 -3 -11 -1 -13 4l-43 86c-3 6 -1 11 4 13l176 86c6 3 11 2 14 -4l94 -198h3l185 704c2 6 6 10 12 10h133c6 0 10 -4 8 -10l-249 -900c-2 -7 -6 -10 -14 -10z" />
    <glyph glyph-name="summation" unicode="&#x2211;" horiz-adv-x="550" 
d="M513 -180h-475c-6 0 -10 4 -10 10v132c0 4 1 7 2 9l169 345l-164 267c-2 4 -3 7 -3 11v136c0 6 4 10 10 10h461c6 0 10 -4 10 -10v-136c0 -6 -4 -10 -10 -10h-273l152 -251c2 -5 2 -9 0 -14l-165 -343h296c6 0 10 -4 10 -10v-136c0 -6 -4 -10 -10 -10z" />
    <glyph glyph-name="product" unicode="&#x220f;" horiz-adv-x="667" 
d="M599 -180h-156c-6 0 -10 4 -10 10v748c0 4 -2 6 -6 6h-187c-4 0 -6 -2 -6 -6v-748c0 -6 -4 -10 -10 -10h-156c-6 0 -10 4 -10 10v900c0 6 4 10 10 10h531c6 0 10 -4 10 -10v-900c0 -6 -4 -10 -10 -10z" />
    <glyph glyph-name="lozenge" unicode="&#x25ca;" horiz-adv-x="557" 
d="M337 -52h-116c-7 0 -12 3 -15 10l-174 364c-2 5 -2 9 0 14l174 364c3 7 8 10 15 10h116c7 0 11 -3 14 -10l174 -364c2 -5 2 -9 0 -14l-174 -364c-3 -7 -7 -10 -14 -10zM282 105l94 224l-97 224h-2l-96 -224l99 -224h2z" />
    <glyph glyph-name="uniF8FF" unicode="&#xf8ff;" horiz-adv-x="530" 
d="M520 0h-510c-6 0 -10 4 -10 10v660c0 6 4 10 10 10h510c6 0 10 -4 10 -10v-660c0 -6 -4 -10 -10 -10zM445 75c4 0 6 2 6 6v518c0 4 -2 6 -6 6h-360c-4 0 -6 -2 -6 -6v-518c0 -4 2 -6 6 -6h360zM300 249h-81c-6 0 -10 4 -10 10v24c0 24 7 38 20 54l39 47
c20 23 28 35 28 51c0 22 -14 37 -36 37c-23 0 -36 -13 -41 -34c-2 -7 -6 -10 -12 -9l-76 10c-6 1 -9 5 -8 11c10 68 62 113 142 113c84 0 136 -54 136 -120c0 -37 -11 -61 -40 -92l-38 -47c-9 -10 -13 -19 -13 -35v-10c0 -6 -4 -10 -10 -10zM301 113h-83c-6 0 -10 4 -10 10
v75c0 6 4 10 10 10h83c6 0 10 -4 10 -10v-75c0 -6 -4 -10 -10 -10z" />
    <glyph glyph-name="uni03A9" unicode="&#x3a9;" horiz-adv-x="639" 
d="M584 0h-223c-6 0 -10 4 -10 10v117c0 7 3 12 9 15c45 23 58 63 58 198c0 94 -4 116 -10 135c-14 39 -44 60 -89 60c-44 0 -75 -21 -88 -60c-7 -19 -10 -41 -10 -135c0 -135 13 -175 58 -198c6 -3 9 -8 9 -15v-117c0 -6 -4 -10 -10 -10h-223c-6 0 -10 4 -10 10v123
c0 6 4 10 10 10h49v1c-39 29 -62 89 -62 196c0 102 7 143 21 183c38 111 131 169 256 169c126 0 218 -58 257 -169c14 -40 21 -81 21 -183c0 -107 -24 -167 -62 -196v-1h49c6 0 10 -4 10 -10v-123c0 -6 -4 -10 -10 -10z" />
    <glyph glyph-name="uni03BC" unicode="&#x3bc;" horiz-adv-x="604" 
d="M369 51h-1c-21 -35 -60 -55 -103 -55c-15 0 -29 2 -43 8h-1v-174c0 -6 -4 -10 -10 -10h-148c-6 0 -10 4 -10 10v647c0 6 4 10 10 10h148c6 0 10 -4 10 -10v-286c0 -40 20 -63 59 -63c38 0 63 27 63 71v278c0 6 4 10 10 10h148c6 0 10 -4 10 -10v-298c0 -33 3 -45 25 -45
h3c6 0 10 -4 10 -10v-120c0 -6 -4 -10 -10 -10h-29c-102 0 -118 26 -141 57z" />
    <glyph glyph-name="pi" unicode="&#x3c0;" horiz-adv-x="638" 
d="M574 -6h-41c-113 0 -164 48 -164 168v175c0 4 -2 6 -6 6h-98c-4 0 -6 -2 -6 -6v-327c0 -6 -4 -10 -10 -10h-148c-6 0 -10 4 -10 10v327c0 4 -2 6 -6 6h-45c-6 0 -10 4 -10 10v124c0 6 4 10 10 10h548c6 0 10 -4 10 -10v-124c0 -6 -4 -10 -10 -10h-45c-4 0 -6 -2 -6 -6
v-162c0 -31 6 -41 30 -41h7c6 0 10 -4 10 -10v-120c0 -6 -4 -10 -10 -10z" />
    <glyph glyph-name="uni0394" unicode="&#x394;" horiz-adv-x="678" 
d="M658 0h-638c-7 0 -10 4 -8 10l235 660c2 6 6 10 13 10h163c7 0 11 -4 13 -10l230 -660c2 -6 -1 -10 -8 -10zM434 149c5 0 6 2 5 6l-97 318h-3l-100 -318c-1 -4 1 -6 5 -6h190z" />
    <glyph glyph-name="zero.denominator" horiz-adv-x="366" 
d="M183 -7c-77 0 -128 34 -147 94c-7 21 -11 42 -11 116s4 95 11 116c19 60 70 94 147 94s128 -34 148 -94c6 -21 10 -42 10 -116s-4 -95 -10 -116c-20 -60 -71 -94 -148 -94zM183 89c15 0 26 8 30 20c2 7 3 15 3 94s-1 87 -3 94c-4 13 -15 20 -30 20c-14 0 -26 -7 -30 -20
c-2 -7 -3 -15 -3 -94s1 -87 3 -94c4 -12 16 -20 30 -20z" />
    <glyph glyph-name="one.denominator" horiz-adv-x="366" 
d="M268 0h-102c-6 0 -10 4 -10 10v270h-2l-66 -38c-5 -3 -10 0 -10 6v97c0 7 2 11 9 15l62 40c7 4 11 6 17 6h102c6 0 10 -4 10 -10v-386c0 -6 -4 -10 -10 -10z" />
    <glyph glyph-name="two.denominator" horiz-adv-x="366" 
d="M322 0h-277c-6 0 -10 4 -10 10v76c0 7 2 13 8 18l146 137c14 14 23 28 23 45c0 18 -11 31 -31 31c-19 0 -33 -11 -35 -36c-1 -7 -5 -10 -11 -9l-91 13c-6 1 -9 5 -9 11c3 62 56 117 153 117c80 0 144 -45 144 -126c0 -44 -18 -74 -54 -107l-84 -78v-1h128
c6 0 10 -4 10 -10v-81c0 -6 -4 -10 -10 -10z" />
    <glyph glyph-name="three.denominator" horiz-adv-x="366" 
d="M184 -7c-82 0 -141 36 -153 102c-1 6 2 11 8 12l90 14c6 1 10 -1 13 -7c7 -14 20 -25 38 -25c22 0 36 13 36 35s-15 35 -43 35h-13c-6 0 -10 4 -10 10v74c0 6 4 10 10 10h13c21 0 36 12 36 32s-12 32 -32 32c-19 0 -28 -9 -34 -23c-2 -6 -6 -8 -12 -7l-90 14
c-6 1 -9 5 -8 11c12 58 63 101 149 101c94 0 147 -48 147 -114c0 -31 -15 -61 -45 -82v-1c26 -12 52 -42 52 -94c0 -78 -59 -129 -152 -129z" />
    <glyph glyph-name="four.denominator" horiz-adv-x="366" 
d="M306 0h-93c-6 0 -10 4 -10 10v36c0 4 -2 6 -6 6h-166c-6 0 -10 4 -10 10v85c0 7 1 12 4 18l107 231c3 7 8 10 15 10h107c6 0 9 -5 7 -10l-111 -241v-2h47c4 0 6 2 6 6v57c0 6 4 10 10 10h93c6 0 10 -4 10 -10v-57c0 -4 1 -6 5 -6h14c6 0 10 -4 10 -10v-81
c0 -6 -4 -10 -10 -10h-13c-4 0 -6 -2 -6 -6v-36c0 -6 -4 -10 -10 -10z" />
    <glyph glyph-name="five.denominator" horiz-adv-x="366" 
d="M181 -7c-79 0 -132 35 -144 94c-1 6 2 10 8 12l90 16c5 1 10 -1 13 -6c6 -12 17 -19 33 -19s26 7 30 19c2 7 3 16 3 23s-1 16 -3 22c-4 13 -14 20 -30 20c-12 0 -20 -5 -25 -10c-4 -5 -7 -6 -12 -6h-93c-6 0 -10 4 -10 10v228c0 6 4 10 10 10h258c6 0 10 -4 10 -10v-78
c0 -6 -4 -11 -10 -11h-155c-4 0 -6 -3 -6 -7v-47h1c13 10 34 17 62 17c56 0 98 -21 115 -73c6 -16 8 -34 8 -60c0 -25 -2 -42 -7 -58c-19 -57 -71 -86 -146 -86z" />
    <glyph glyph-name="six.denominator" horiz-adv-x="366" 
d="M183 -7c-93 0 -158 54 -158 136c0 40 13 73 38 116l85 151c4 6 9 10 16 10h113c6 0 8 -5 5 -10l-77 -137l1 -1c2 0 8 1 9 1c74 0 127 -50 127 -130c0 -82 -65 -136 -159 -136zM183 88c25 0 40 17 40 39s-15 38 -40 38c-24 0 -40 -16 -40 -38s16 -39 40 -39z" />
    <glyph glyph-name="seven.denominator" horiz-adv-x="366" 
d="M199 0h-108c-6 0 -8 5 -6 12l126 293v2h-59c-4 0 -6 -2 -6 -6v-36c0 -6 -4 -10 -10 -10h-92c-6 0 -10 4 -10 10v131c0 6 4 10 10 10h282c6 0 10 -4 10 -10v-89c0 -6 -1 -11 -4 -15l-120 -282c-2 -7 -7 -10 -13 -10z" />
    <glyph glyph-name="eight.denominator" horiz-adv-x="366" 
d="M183 -7c-90 0 -159 49 -159 129c0 43 20 70 44 89v1c-18 16 -35 41 -35 76c0 65 53 125 150 125c98 0 151 -60 151 -125c0 -35 -18 -60 -36 -76v-1c24 -19 44 -46 44 -89c0 -80 -69 -129 -159 -129zM183 252c20 0 34 15 34 33c0 19 -14 33 -34 33s-34 -14 -34 -33
c0 -18 14 -33 34 -33zM183 88c23 0 41 17 41 39c0 23 -18 39 -41 39s-41 -16 -41 -39c0 -22 18 -39 41 -39z" />
    <glyph glyph-name="nine.denominator" horiz-adv-x="366" 
d="M202 0h-113c-6 0 -8 5 -5 10l77 137l-1 1c-2 0 -8 -1 -9 -1c-74 0 -126 50 -126 130c0 82 65 136 158 136c94 0 159 -54 159 -136c0 -40 -14 -73 -38 -116l-86 -151c-4 -6 -9 -10 -16 -10zM183 241c25 0 40 16 40 38s-15 39 -40 39c-24 0 -40 -17 -40 -39s16 -38 40 -38z
" />
    <glyph glyph-name="zero.inferior" unicode="&#x2080;" horiz-adv-x="366" 
d="M183 -163c-77 0 -128 34 -147 94c-7 21 -11 42 -11 116s4 95 11 116c19 60 70 94 147 94s128 -34 148 -94c6 -21 10 -42 10 -116s-4 -95 -10 -116c-20 -60 -71 -94 -148 -94zM183 -67c15 0 26 8 30 20c2 7 3 15 3 94s-1 87 -3 94c-4 13 -15 20 -30 20
c-14 0 -26 -7 -30 -20c-2 -7 -3 -15 -3 -94s1 -87 3 -94c4 -12 16 -20 30 -20z" />
    <glyph glyph-name="one.inferior" unicode="&#x2081;" horiz-adv-x="366" 
d="M268 -156h-102c-6 0 -10 4 -10 10v270h-2l-66 -38c-5 -3 -10 0 -10 6v97c0 7 2 11 9 15l62 40c7 4 11 6 17 6h102c6 0 10 -4 10 -10v-386c0 -6 -4 -10 -10 -10z" />
    <glyph glyph-name="two.inferior" unicode="&#x2082;" horiz-adv-x="366" 
d="M322 -156h-277c-6 0 -10 4 -10 10v76c0 7 2 13 8 18l146 137c14 14 23 28 23 45c0 18 -11 31 -31 31c-19 0 -33 -11 -35 -36c-1 -7 -5 -10 -11 -9l-91 13c-6 1 -9 5 -9 11c3 62 56 117 153 117c80 0 144 -45 144 -126c0 -44 -18 -74 -54 -107l-84 -78v-1h128
c6 0 10 -4 10 -10v-81c0 -6 -4 -10 -10 -10z" />
    <glyph glyph-name="three.inferior" unicode="&#x2083;" horiz-adv-x="366" 
d="M184 -163c-82 0 -141 36 -153 102c-1 6 2 11 8 12l90 14c6 1 10 -1 13 -7c7 -14 20 -25 38 -25c22 0 36 13 36 35s-15 35 -43 35h-13c-6 0 -10 4 -10 10v74c0 6 4 10 10 10h13c21 0 36 12 36 32s-12 32 -32 32c-19 0 -28 -9 -34 -23c-2 -6 -6 -8 -12 -7l-90 14
c-6 1 -9 5 -8 11c12 58 63 101 149 101c94 0 147 -48 147 -114c0 -31 -15 -61 -45 -82v-1c26 -12 52 -42 52 -94c0 -78 -59 -129 -152 -129z" />
    <glyph glyph-name="four.inferior" unicode="&#x2084;" horiz-adv-x="366" 
d="M306 -156h-93c-6 0 -10 4 -10 10v36c0 4 -2 6 -6 6h-166c-6 0 -10 4 -10 10v85c0 7 1 12 4 18l107 231c3 7 8 10 15 10h107c6 0 9 -5 7 -10l-111 -241v-2h47c4 0 6 2 6 6v57c0 6 4 10 10 10h93c6 0 10 -4 10 -10v-57c0 -4 1 -6 5 -6h14c6 0 10 -4 10 -10v-81
c0 -6 -4 -10 -10 -10h-13c-4 0 -6 -2 -6 -6v-36c0 -6 -4 -10 -10 -10z" />
    <glyph glyph-name="five.inferior" unicode="&#x2085;" horiz-adv-x="366" 
d="M181 -163c-79 0 -132 35 -144 94c-1 6 2 10 8 12l90 16c5 1 10 -1 13 -6c6 -12 17 -19 33 -19s26 7 30 19c2 7 3 16 3 23s-1 16 -3 22c-4 13 -14 20 -30 20c-12 0 -20 -5 -25 -10c-4 -5 -7 -6 -12 -6h-93c-6 0 -10 4 -10 10v228c0 6 4 10 10 10h258c6 0 10 -4 10 -10v-78
c0 -6 -4 -11 -10 -11h-155c-4 0 -6 -3 -6 -7v-47h1c13 10 34 17 62 17c56 0 98 -21 115 -73c6 -16 8 -34 8 -60c0 -25 -2 -42 -7 -58c-19 -57 -71 -86 -146 -86z" />
    <glyph glyph-name="six.inferior" unicode="&#x2086;" horiz-adv-x="366" 
d="M183 -163c-93 0 -158 54 -158 136c0 40 13 73 38 116l85 151c4 6 9 10 16 10h113c6 0 8 -5 5 -10l-77 -137l1 -1c2 0 8 1 9 1c74 0 127 -50 127 -130c0 -82 -65 -136 -159 -136zM183 -68c25 0 40 17 40 39s-15 38 -40 38c-24 0 -40 -16 -40 -38s16 -39 40 -39z" />
    <glyph glyph-name="seven.inferior" unicode="&#x2087;" horiz-adv-x="366" 
d="M199 -156h-108c-6 0 -8 5 -6 12l126 293v2h-59c-4 0 -6 -2 -6 -6v-36c0 -6 -4 -10 -10 -10h-92c-6 0 -10 4 -10 10v131c0 6 4 10 10 10h282c6 0 10 -4 10 -10v-89c0 -6 -1 -11 -4 -15l-120 -282c-2 -7 -7 -10 -13 -10z" />
    <glyph glyph-name="eight.inferior" unicode="&#x2088;" horiz-adv-x="366" 
d="M183 -163c-90 0 -159 49 -159 129c0 43 20 70 44 89v1c-18 16 -35 41 -35 76c0 65 53 125 150 125c98 0 151 -60 151 -125c0 -35 -18 -60 -36 -76v-1c24 -19 44 -46 44 -89c0 -80 -69 -129 -159 -129zM183 96c20 0 34 15 34 33c0 19 -14 33 -34 33s-34 -14 -34 -33
c0 -18 14 -33 34 -33zM183 -68c23 0 41 17 41 39c0 23 -18 39 -41 39s-41 -16 -41 -39c0 -22 18 -39 41 -39z" />
    <glyph glyph-name="nine.inferior" unicode="&#x2089;" horiz-adv-x="366" 
d="M202 -156h-113c-6 0 -8 5 -5 10l77 137l-1 1c-2 0 -8 -1 -9 -1c-74 0 -126 50 -126 130c0 82 65 136 158 136c94 0 159 -54 159 -136c0 -40 -14 -73 -38 -116l-86 -151c-4 -6 -9 -10 -16 -10zM183 85c25 0 40 16 40 38s-15 39 -40 39c-24 0 -40 -17 -40 -39
s16 -38 40 -38z" />
    <glyph glyph-name="zero.numerator" horiz-adv-x="366" 
d="M183 267c-77 0 -128 34 -147 94c-7 21 -11 42 -11 116s4 95 11 116c19 60 70 94 147 94s128 -34 148 -94c6 -21 10 -42 10 -116s-4 -95 -10 -116c-20 -60 -71 -94 -148 -94zM183 363c15 0 26 8 30 20c2 7 3 15 3 94s-1 87 -3 94c-4 13 -15 20 -30 20
c-14 0 -26 -7 -30 -20c-2 -7 -3 -15 -3 -94s1 -87 3 -94c4 -12 16 -20 30 -20z" />
    <glyph glyph-name="one.numerator" horiz-adv-x="366" 
d="M268 274h-102c-6 0 -10 4 -10 10v270h-2l-66 -38c-5 -3 -10 0 -10 6v97c0 7 2 11 9 15l62 40c7 4 11 6 17 6h102c6 0 10 -4 10 -10v-386c0 -6 -4 -10 -10 -10z" />
    <glyph glyph-name="two.numerator" horiz-adv-x="366" 
d="M322 274h-277c-6 0 -10 4 -10 10v76c0 7 2 13 8 18l146 137c14 14 23 28 23 45c0 18 -11 31 -31 31c-19 0 -33 -11 -35 -36c-1 -7 -5 -10 -11 -9l-91 13c-6 1 -9 5 -9 11c3 62 56 117 153 117c80 0 144 -45 144 -126c0 -44 -18 -74 -54 -107l-84 -78v-1h128
c6 0 10 -4 10 -10v-81c0 -6 -4 -10 -10 -10z" />
    <glyph glyph-name="three.numerator" horiz-adv-x="366" 
d="M184 267c-82 0 -141 36 -153 102c-1 6 2 11 8 12l90 14c6 1 10 -1 13 -7c7 -14 20 -25 38 -25c22 0 36 13 36 35s-15 35 -43 35h-13c-6 0 -10 4 -10 10v74c0 6 4 10 10 10h13c21 0 36 12 36 32s-12 32 -32 32c-19 0 -28 -9 -34 -23c-2 -6 -6 -8 -12 -7l-90 14
c-6 1 -9 5 -8 11c12 58 63 101 149 101c94 0 147 -48 147 -114c0 -31 -15 -61 -45 -82v-1c26 -12 52 -42 52 -94c0 -78 -59 -129 -152 -129z" />
    <glyph glyph-name="four.numerator" horiz-adv-x="366" 
d="M306 274h-93c-6 0 -10 4 -10 10v36c0 4 -2 6 -6 6h-166c-6 0 -10 4 -10 10v85c0 7 1 12 4 18l107 231c3 7 8 10 15 10h107c6 0 9 -5 7 -10l-111 -241v-2h47c4 0 6 2 6 6v57c0 6 4 10 10 10h93c6 0 10 -4 10 -10v-57c0 -4 1 -6 5 -6h14c6 0 10 -4 10 -10v-81
c0 -6 -4 -10 -10 -10h-13c-4 0 -6 -2 -6 -6v-36c0 -6 -4 -10 -10 -10z" />
    <glyph glyph-name="five.numerator" horiz-adv-x="366" 
d="M181 267c-79 0 -132 35 -144 94c-1 6 2 10 8 12l90 16c5 1 10 -1 13 -6c6 -12 17 -19 33 -19s26 7 30 19c2 7 3 16 3 23s-1 16 -3 22c-4 13 -14 20 -30 20c-12 0 -20 -5 -25 -10c-4 -5 -7 -6 -12 -6h-93c-6 0 -10 4 -10 10v228c0 6 4 10 10 10h258c6 0 10 -4 10 -10v-78
c0 -6 -4 -11 -10 -11h-155c-4 0 -6 -3 -6 -7v-47h1c13 10 34 17 62 17c56 0 98 -21 115 -73c6 -16 8 -34 8 -60c0 -25 -2 -42 -7 -58c-19 -57 -71 -86 -146 -86z" />
    <glyph glyph-name="six.numerator" horiz-adv-x="366" 
d="M183 267c-93 0 -158 54 -158 136c0 40 13 73 38 116l85 151c4 6 9 10 16 10h113c6 0 8 -5 5 -10l-77 -137l1 -1c2 0 8 1 9 1c74 0 127 -50 127 -130c0 -82 -65 -136 -159 -136zM183 362c25 0 40 17 40 39s-15 38 -40 38c-24 0 -40 -16 -40 -38s16 -39 40 -39z" />
    <glyph glyph-name="seven.numerator" horiz-adv-x="366" 
d="M199 274h-108c-6 0 -8 5 -6 12l126 293v2h-59c-4 0 -6 -2 -6 -6v-36c0 -6 -4 -10 -10 -10h-92c-6 0 -10 4 -10 10v131c0 6 4 10 10 10h282c6 0 10 -4 10 -10v-89c0 -6 -1 -11 -4 -15l-120 -282c-2 -7 -7 -10 -13 -10z" />
    <glyph glyph-name="eight.numerator" horiz-adv-x="366" 
d="M183 267c-90 0 -159 49 -159 129c0 43 20 70 44 89v1c-18 16 -35 41 -35 76c0 65 53 125 150 125c98 0 151 -60 151 -125c0 -35 -18 -60 -36 -76v-1c24 -19 44 -46 44 -89c0 -80 -69 -129 -159 -129zM183 526c20 0 34 15 34 33c0 19 -14 33 -34 33s-34 -14 -34 -33
c0 -18 14 -33 34 -33zM183 362c23 0 41 17 41 39c0 23 -18 39 -41 39s-41 -16 -41 -39c0 -22 18 -39 41 -39z" />
    <glyph glyph-name="nine.numerator" horiz-adv-x="366" 
d="M202 274h-113c-6 0 -8 5 -5 10l77 137l-1 1c-2 0 -8 -1 -9 -1c-74 0 -126 50 -126 130c0 82 65 136 158 136c94 0 159 -54 159 -136c0 -40 -14 -73 -38 -116l-86 -151c-4 -6 -9 -10 -16 -10zM183 515c25 0 40 16 40 38s-15 39 -40 39c-24 0 -40 -17 -40 -39
s16 -38 40 -38z" />
    <glyph glyph-name="zero.superior" unicode="&#x2070;" horiz-adv-x="366" 
d="M183 423c-77 0 -128 34 -147 94c-7 21 -11 42 -11 116s4 95 11 116c19 60 70 94 147 94s128 -34 148 -94c6 -21 10 -42 10 -116s-4 -95 -10 -116c-20 -60 -71 -94 -148 -94zM183 519c15 0 26 8 30 20c2 7 3 15 3 94s-1 87 -3 94c-4 13 -15 20 -30 20
c-14 0 -26 -7 -30 -20c-2 -7 -3 -15 -3 -94s1 -87 3 -94c4 -12 16 -20 30 -20z" />
    <glyph glyph-name="onesuperior" unicode="&#xb9;" horiz-adv-x="366" 
d="M268 430h-102c-6 0 -10 4 -10 10v270h-2l-66 -38c-5 -3 -10 0 -10 6v97c0 7 2 11 9 15l62 40c7 4 11 6 17 6h102c6 0 10 -4 10 -10v-386c0 -6 -4 -10 -10 -10z" />
    <glyph glyph-name="twosuperior" unicode="&#xb2;" horiz-adv-x="366" 
d="M322 430h-277c-6 0 -10 4 -10 10v76c0 7 2 13 8 18l146 137c14 14 23 28 23 45c0 18 -11 31 -31 31c-19 0 -33 -11 -35 -36c-1 -7 -5 -10 -11 -9l-91 13c-6 1 -9 5 -9 11c3 62 56 117 153 117c80 0 144 -45 144 -126c0 -44 -18 -74 -54 -107l-84 -78v-1h128
c6 0 10 -4 10 -10v-81c0 -6 -4 -10 -10 -10z" />
    <glyph glyph-name="threesuperior" unicode="&#xb3;" horiz-adv-x="366" 
d="M184 423c-82 0 -141 36 -153 102c-1 6 2 11 8 12l90 14c6 1 10 -1 13 -7c7 -14 20 -25 38 -25c22 0 36 13 36 35s-15 35 -43 35h-13c-6 0 -10 4 -10 10v74c0 6 4 10 10 10h13c21 0 36 12 36 32s-12 32 -32 32c-19 0 -28 -9 -34 -23c-2 -6 -6 -8 -12 -7l-90 14
c-6 1 -9 5 -8 11c12 58 63 101 149 101c94 0 147 -48 147 -114c0 -31 -15 -61 -45 -82v-1c26 -12 52 -42 52 -94c0 -78 -59 -129 -152 -129z" />
    <glyph glyph-name="four.superior" unicode="&#x2074;" horiz-adv-x="366" 
d="M306 430h-93c-6 0 -10 4 -10 10v36c0 4 -2 6 -6 6h-166c-6 0 -10 4 -10 10v85c0 7 1 12 4 18l107 231c3 7 8 10 15 10h107c6 0 9 -5 7 -10l-111 -241v-2h47c4 0 6 2 6 6v57c0 6 4 10 10 10h93c6 0 10 -4 10 -10v-57c0 -4 1 -6 5 -6h14c6 0 10 -4 10 -10v-81
c0 -6 -4 -10 -10 -10h-13c-4 0 -6 -2 -6 -6v-36c0 -6 -4 -10 -10 -10z" />
    <glyph glyph-name="five.superior" unicode="&#x2075;" horiz-adv-x="366" 
d="M181 423c-79 0 -132 35 -144 94c-1 6 2 10 8 12l90 16c5 1 10 -1 13 -6c6 -12 17 -19 33 -19s26 7 30 19c2 7 3 16 3 23s-1 16 -3 22c-4 13 -14 20 -30 20c-12 0 -20 -5 -25 -10c-4 -5 -7 -6 -12 -6h-93c-6 0 -10 4 -10 10v228c0 6 4 10 10 10h258c6 0 10 -4 10 -10v-78
c0 -6 -4 -11 -10 -11h-155c-4 0 -6 -3 -6 -7v-47h1c13 10 34 17 62 17c56 0 98 -21 115 -73c6 -16 8 -34 8 -60c0 -25 -2 -42 -7 -58c-19 -57 -71 -86 -146 -86z" />
    <glyph glyph-name="six.superior" unicode="&#x2076;" horiz-adv-x="366" 
d="M183 423c-93 0 -158 54 -158 136c0 40 13 73 38 116l85 151c4 6 9 10 16 10h113c6 0 8 -5 5 -10l-77 -137l1 -1c2 0 8 1 9 1c74 0 127 -50 127 -130c0 -82 -65 -136 -159 -136zM183 518c25 0 40 17 40 39s-15 38 -40 38c-24 0 -40 -16 -40 -38s16 -39 40 -39z" />
    <glyph glyph-name="seven.superior" unicode="&#x2077;" horiz-adv-x="366" 
d="M199 430h-108c-6 0 -8 5 -6 12l126 293v2h-59c-4 0 -6 -2 -6 -6v-36c0 -6 -4 -10 -10 -10h-92c-6 0 -10 4 -10 10v131c0 6 4 10 10 10h282c6 0 10 -4 10 -10v-89c0 -6 -1 -11 -4 -15l-120 -282c-2 -7 -7 -10 -13 -10z" />
    <glyph glyph-name="eight.superior" unicode="&#x2078;" horiz-adv-x="366" 
d="M183 423c-90 0 -159 49 -159 129c0 43 20 70 44 89v1c-18 16 -35 41 -35 76c0 65 53 125 150 125c98 0 151 -60 151 -125c0 -35 -18 -60 -36 -76v-1c24 -19 44 -46 44 -89c0 -80 -69 -129 -159 -129zM183 682c20 0 34 15 34 33c0 19 -14 33 -34 33s-34 -14 -34 -33
c0 -18 14 -33 34 -33zM183 518c23 0 41 17 41 39c0 23 -18 39 -41 39s-41 -16 -41 -39c0 -22 18 -39 41 -39z" />
    <glyph glyph-name="nine.superior" unicode="&#x2079;" horiz-adv-x="366" 
d="M202 430h-113c-6 0 -8 5 -5 10l77 137l-1 1c-2 0 -8 -1 -9 -1c-74 0 -126 50 -126 130c0 82 65 136 158 136c94 0 159 -54 159 -136c0 -40 -14 -73 -38 -116l-86 -151c-4 -6 -9 -10 -16 -10zM183 671c25 0 40 16 40 38s-15 39 -40 39c-24 0 -40 -17 -40 -39
s16 -38 40 -38z" />
    <glyph glyph-name="interrobang" unicode="&#x203d;" horiz-adv-x="483" 
d="M169 210c-6 0 -10 4 -10 10l-24 233c0 6 4 10 10 10h111c6 0 10 -4 10 -10l-5 -78h2l10 17c25 42 36 69 36 104c0 52 -28 72 -72 72c-36 0 -60 -16 -68 -46c-2 -6 -5 -9 -11 -8l-129 18c-7 1 -9 5 -8 11c21 97 96 149 217 149c129 0 215 -69 215 -188
c0 -59 -27 -113 -68 -162l-53 -64c-17 -19 -21 -28 -21 -51v-7c0 -6 -4 -10 -10 -10h-132zM155 10v126c0 6 4 10 10 10h138c6 0 10 -4 10 -10v-126c0 -6 -4 -10 -10 -10h-138c-6 0 -10 4 -10 10z" />
    <glyph glyph-name="afii61248" unicode="&#x2105;" horiz-adv-x="850" 
d="M167 -2l395 684c4 7 8 10 16 10h101c6 0 8 -5 5 -10l-395 -684c-4 -7 -8 -10 -16 -10h-102c-6 0 -7 5 -4 10zM651 -12c-72 0 -129 34 -149 100c-7 25 -10 50 -10 81s3 56 10 81c20 66 77 100 149 100c70 0 126 -34 147 -100c8 -25 10 -50 10 -81s-2 -56 -10 -81
c-21 -66 -77 -100 -147 -100zM651 86c18 0 31 9 38 29c3 13 4 25 4 54s-1 42 -4 54c-7 20 -20 29 -38 29c-19 0 -32 -9 -38 -29c-3 -12 -5 -25 -5 -54s2 -41 5 -54c6 -20 19 -29 38 -29zM206 328c-74 0 -132 35 -153 101c-7 20 -10 43 -10 78c0 36 3 60 10 79
c21 67 79 104 153 104c69 0 120 -34 142 -79c1 -3 1 -7 -3 -10l-79 -40c-4 -3 -8 -3 -10 2c-13 21 -25 30 -47 30c-21 0 -34 -10 -42 -30c-3 -10 -5 -25 -5 -54c0 -28 2 -42 5 -52c8 -20 21 -30 42 -30c22 0 34 9 47 31c2 5 6 4 10 2l79 -41c4 -3 4 -7 3 -10
c-22 -44 -73 -81 -142 -81z" />
    <glyph glyph-name="published" unicode="&#x2117;" horiz-adv-x="794" 
d="M397 -13c-201 0 -352 151 -352 352c0 202 151 353 352 353s352 -151 352 -353c0 -201 -151 -352 -352 -352zM397 71c155 0 266 113 266 268c0 156 -111 269 -266 269s-266 -113 -266 -269c0 -155 111 -268 266 -268zM375 151h-106c-5 0 -9 4 -9 9v357c0 6 4 9 9 9h155
c93 0 160 -36 160 -131c0 -106 -67 -135 -160 -135h-35c-3 0 -5 -2 -5 -5v-95c0 -5 -3 -9 -9 -9zM403 351c42 0 70 4 70 44c0 34 -29 39 -70 39h-15c-2 0 -4 -2 -4 -3v-77c0 -1 2 -3 4 -3h15z" />
    <glyph glyph-name="uni0406" unicode="&#x406;" horiz-adv-x="286" 
d="M65 0c-6 0 -10 4 -10 10v660c0 6 4 10 10 10h156c6 0 10 -4 10 -10v-660c0 -6 -4 -10 -10 -10h-156z" />
    <glyph glyph-name="uni0456" unicode="&#x456;" horiz-adv-x="274" 
d="M63 0c-6 0 -10 4 -10 10v467c0 6 4 10 10 10h148c6 0 10 -4 10 -10v-467c0 -6 -4 -10 -10 -10h-148zM63 550c-6 0 -10 4 -10 10v110c0 6 4 10 10 10h148c6 0 10 -4 10 -10v-110c0 -6 -4 -10 -10 -10h-148z" />
    <glyph glyph-name="uni0408" unicode="&#x408;" horiz-adv-x="534" 
d="M221 -12c-88 0 -168 39 -203 93c-3 5 -3 10 1 14l111 88c5 4 10 3 14 -2c18 -20 42 -36 75 -36c56 0 86 34 86 100v425c0 6 4 10 10 10h156c6 0 10 -4 10 -10v-411c0 -180 -94 -271 -260 -271z" />
    <glyph glyph-name="uni0458" unicode="&#x458;" horiz-adv-x="274" 
d="M-16 -180c-6 0 -10 4 -10 10v118c0 6 4 10 10 10h15c40 0 54 9 54 55v464c0 6 4 10 10 10h148c6 0 10 -4 10 -10v-464c0 -138 -71 -193 -199 -193h-38zM63 550c-6 0 -10 4 -10 10v110c0 6 4 10 10 10h148c6 0 10 -4 10 -10v-110c0 -6 -4 -10 -10 -10h-148z" />
    <glyph glyph-name="uni0410" unicode="&#x410;" horiz-adv-x="674" 
d="M17 0c-6 0 -9 4 -7 10l235 660c2 6 6 10 13 10h163c7 0 11 -4 13 -10l230 -660c2 -6 -1 -10 -7 -10h-165c-7 0 -11 4 -13 10l-32 105h-221l-32 -105c-2 -6 -6 -10 -13 -10h-164zM271 261h132l-63 212h-3z" />
    <glyph glyph-name="uni0411" unicode="&#x411;" horiz-adv-x="614" 
d="M64 0c-5 0 -9 5 -9 10v661c0 5 3 9 9 9h464c7 0 9 -5 9 -9v-130c0 -7 -4 -10 -9 -10h-291c-4 0 -6 -2 -6 -6v-85c0 -4 2 -6 6 -6h117c141 0 227 -88 227 -215c0 -126 -84 -219 -227 -219h-290zM237 149h100c42 0 68 31 68 70c0 38 -26 70 -68 70h-100c-4 0 -6 -2 -6 -6
v-128c0 -4 2 -6 6 -6z" />
    <glyph glyph-name="uni0412" unicode="&#x412;" horiz-adv-x="614" 
d="M65 0c-6 0 -10 4 -10 10v660c0 6 4 10 10 10h277c152 0 222 -73 222 -181c0 -70 -32 -118 -83 -145v-4c50 -19 95 -75 95 -154c0 -133 -94 -196 -237 -196h-274zM237 133h80c55 0 83 27 83 77c0 47 -28 76 -83 76h-80c-4 0 -6 -2 -6 -6v-141c0 -4 2 -6 6 -6zM237 407h71
c53 0 81 23 81 70c0 48 -27 70 -81 70h-71c-4 0 -6 -2 -6 -6v-128c0 -4 2 -6 6 -6z" />
    <glyph glyph-name="uni0413" unicode="&#x413;" horiz-adv-x="512" 
d="M65 0c-6 0 -10 4 -10 10v660c0 6 4 10 10 10h430c6 0 10 -4 10 -10v-136c0 -6 -4 -10 -10 -10h-258c-4 0 -6 -2 -6 -6v-508c0 -6 -4 -10 -10 -10h-156z" />
    <glyph glyph-name="uni0414" unicode="&#x414;" horiz-adv-x="695" 
d="M8 -123c-5 0 -8 5 -8 10v260c0 5 4 9 9 9h36c7 0 15 2 18 9c45 99 69 196 69 391v115c0 5 3 9 10 9h470c5 0 9 -5 9 -10v-508c0 -4 2 -6 6 -6h53c5 0 10 -4 10 -9v-260c0 -5 -4 -10 -9 -10h-144c-4 0 -8 5 -8 10v107c0 4 -2 6 -6 6h-356c-4 0 -6 -2 -6 -6v-107
c0 -5 -4 -10 -9 -10h-144zM248 156h191c4 0 6 2 6 6v356c0 4 -2 6 -6 6h-129c-4 0 -6 -2 -6 -6v-11c0 -129 -27 -268 -62 -343c-2 -4 -1 -8 6 -8z" />
    <glyph glyph-name="uni0415" unicode="&#x415;" horiz-adv-x="557" 
d="M65 0c-6 0 -10 4 -10 10v660c0 6 4 10 10 10h445c6 0 10 -4 10 -10v-129c0 -6 -4 -10 -10 -10h-273c-4 0 -6 -2 -6 -6v-103c0 -4 2 -6 6 -6h224c6 0 10 -4 10 -10v-126c0 -6 -4 -10 -10 -10h-224c-4 0 -6 -2 -6 -6v-109c0 -4 2 -6 6 -6h273c6 0 10 -4 10 -10v-129
c0 -6 -4 -10 -10 -10h-445z" />
    <glyph glyph-name="uni0416" unicode="&#x416;" horiz-adv-x="984" 
d="M43 -5c-5 0 -10 3 -10 10v137c0 6 5 9 10 9h4c28 0 52 8 63 39l34 99c11 33 28 54 60 64v4c-25 11 -39 34 -49 59l-30 78c-12 30 -28 40 -65 40h-7c-5 0 -10 3 -10 9v132c0 7 5 10 10 10h43c89 0 142 -31 176 -115l39 -97c13 -31 33 -52 73 -52h14c4 0 6 2 6 6v243
c0 6 4 10 10 10h156c6 0 10 -4 10 -10v-243c0 -4 2 -6 6 -6h14c40 0 60 21 73 52l39 97c34 84 87 115 176 115h43c5 0 10 -3 10 -10v-132c0 -6 -5 -9 -10 -9h-7c-37 0 -53 -10 -65 -40l-30 -78c-10 -25 -24 -48 -49 -59v-4c32 -10 49 -31 60 -64l34 -99
c11 -31 35 -39 63 -39h4c5 0 10 -3 10 -9v-137c0 -7 -5 -10 -10 -10h-49c-90 0 -145 31 -175 116l-34 96c-20 55 -52 63 -91 63h-6c-4 0 -6 -2 -6 -6v-254c0 -6 -4 -10 -10 -10h-156c-6 0 -10 4 -10 10v254c0 4 -2 6 -6 6h-6c-39 0 -71 -8 -91 -63l-34 -96
c-30 -85 -85 -116 -175 -116h-49z" />
    <glyph glyph-name="uni0417" unicode="&#x417;" horiz-adv-x="575" 
d="M287 -12c-103 0 -205 21 -267 81c-5 4 -4 10 0 15l74 107c2 2 8 4 12 1c36 -25 93 -54 163 -54c43 0 88 25 88 65c0 46 -38 72 -84 72h-72c-4 0 -9 3 -9 10v122c0 7 5 10 9 10h72c46 0 74 25 74 67c0 38 -31 59 -83 59c-44 0 -99 -14 -146 -46c-7 -5 -12 -4 -14 0
l-71 106c-4 5 -4 10 1 13c74 53 165 76 259 76c139 0 234 -76 234 -196c0 -60 -33 -114 -85 -141v-4c55 -23 95 -81 95 -150c0 -130 -111 -213 -250 -213z" />
    <glyph glyph-name="uni0418" unicode="&#x418;" horiz-adv-x="667" 
d="M64 0c-6 0 -9 5 -9 10v661c0 5 4 9 9 9h158c5 0 9 -4 9 -9v-369h3l212 369c5 9 13 9 16 9h141c6 0 9 -4 9 -9v-661c0 -5 -4 -10 -9 -10h-158c-5 0 -9 5 -9 10v370h-3l-211 -370c-6 -10 -11 -10 -17 -10h-141z" />
    <glyph glyph-name="uni0419" unicode="&#x419;" horiz-adv-x="667" 
d="M64 0c-6 0 -9 5 -9 10v661c0 5 4 9 9 9h158c5 0 9 -4 9 -9v-369h3l212 369c5 9 13 9 16 9h141c6 0 9 -4 9 -9v-661c0 -5 -4 -10 -9 -10h-158c-5 0 -9 5 -9 10v370h-3l-211 -370c-6 -10 -11 -10 -17 -10h-141zM333 725c-92 0 -143 40 -159 127c-2 8 0 13 5 14l80 10
c7 1 10 -1 12 -7c8 -24 30 -40 62 -40s54 16 62 40c2 6 5 8 12 7l80 -10c5 -1 7 -6 5 -14c-16 -87 -67 -127 -159 -127z" />
    <glyph glyph-name="uni041A" unicode="&#x41a;" horiz-adv-x="650" 
d="M65 0c-6 0 -10 4 -10 10v660c0 6 4 10 10 10h156c6 0 10 -4 10 -10v-241c0 -4 2 -6 6 -6h29c40 0 60 19 73 50l39 97c37 93 87 115 176 115h43c5 0 10 -3 10 -10v-132c0 -6 -5 -9 -10 -9h-6c-34 0 -54 -10 -66 -40l-30 -78c-10 -25 -24 -48 -49 -59v-4
c32 -10 49 -31 60 -64l34 -99c11 -31 32 -39 60 -39h7c5 0 10 -3 10 -9v-137c0 -7 -5 -10 -10 -10h-47c-92 0 -145 26 -177 116l-34 96c-20 55 -52 60 -91 60h-21c-4 0 -6 -2 -6 -6v-251c0 -6 -4 -10 -10 -10h-156z" />
    <glyph glyph-name="uni041B" unicode="&#x41b;" horiz-adv-x="678" 
d="M17 -5c-5 0 -10 3 -10 10v137c0 6 5 9 10 9h15c48 0 99 28 99 191v329c0 5 2 9 9 9h474c7 0 9 -4 9 -9v-661c0 -5 -3 -10 -8 -10h-159c-5 0 -9 5 -9 10v508c0 4 -2 6 -6 6h-132c-4 0 -6 -2 -6 -6v-180c0 -259 -80 -343 -235 -343h-51z" />
    <glyph glyph-name="uni041C" unicode="&#x41c;" horiz-adv-x="772" 
d="M65 0c-6 0 -10 4 -10 10v660c0 6 4 10 10 10h148c7 0 14 -2 17 -10l157 -355h4l153 355c3 8 10 10 17 10h146c6 0 10 -4 10 -10v-660c0 -6 -4 -10 -10 -10h-139c-6 0 -10 4 -10 10v350h-5l-109 -254c-5 -10 -13 -13 -19 -13h-78c-6 0 -14 2 -19 13l-109 254h-5v-350
c0 -6 -4 -10 -10 -10h-139z" />
    <glyph glyph-name="uni041D" unicode="&#x41d;" horiz-adv-x="659" 
d="M65 0c-6 0 -10 4 -10 10v660c0 6 4 10 10 10h156c6 0 10 -4 10 -10v-241c0 -4 2 -6 6 -6h185c4 0 6 2 6 6v241c0 6 4 10 10 10h156c6 0 10 -4 10 -10v-660c0 -6 -4 -10 -10 -10h-156c-6 0 -10 4 -10 10v251c0 4 -2 6 -6 6h-185c-4 0 -6 -2 -6 -6v-251
c0 -6 -4 -10 -10 -10h-156z" />
    <glyph glyph-name="uni041E" unicode="&#x41e;" horiz-adv-x="628" 
d="M314 -12c-120 0 -219 56 -255 167c-16 52 -20 92 -20 185s4 133 20 185c36 111 135 167 255 167s219 -56 255 -167c17 -52 20 -92 20 -185s-3 -133 -20 -185c-36 -111 -135 -167 -255 -167zM314 145c44 0 75 22 87 60c8 23 10 54 10 135s-2 112 -10 135
c-12 38 -43 60 -87 60s-75 -22 -87 -60c-8 -23 -10 -54 -10 -135s2 -112 10 -135c12 -38 43 -60 87 -60z" />
    <glyph glyph-name="uni041F" unicode="&#x41f;" horiz-adv-x="651" 
d="M64 0c-5 0 -9 5 -9 10v661c0 5 3 9 9 9h522c7 0 10 -4 10 -9v-661c0 -5 -4 -10 -9 -10h-159c-4 0 -8 5 -8 10v508c0 4 -2 6 -6 6h-177c-4 0 -6 -2 -6 -6v-508c0 -5 -4 -10 -9 -10h-158z" />
    <glyph glyph-name="uni0420" unicode="&#x420;" horiz-adv-x="612" 
d="M65 0c-6 0 -10 4 -10 10v660c0 6 4 10 10 10h272c166 0 252 -94 252 -226c0 -130 -87 -227 -252 -227h-100c-4 0 -6 -2 -6 -6v-211c0 -6 -4 -10 -10 -10h-156zM237 376h90c55 0 86 31 86 78s-31 77 -86 77h-90c-4 0 -6 -2 -6 -6v-143c0 -4 2 -6 6 -6z" />
    <glyph glyph-name="uni0421" unicode="&#x421;" horiz-adv-x="574" 
d="M306 -12c-123 0 -211 57 -247 168c-15 46 -20 83 -20 184s5 138 20 184c36 111 124 168 247 168c120 0 206 -57 244 -155c3 -7 2 -11 -5 -14l-133 -58c-7 -3 -11 -1 -14 6c-19 40 -43 64 -89 64c-43 0 -70 -21 -82 -59c-7 -21 -10 -42 -10 -136s3 -115 10 -136
c12 -38 39 -59 82 -59c46 0 70 24 89 64c3 7 7 9 14 6l133 -58c7 -3 8 -7 5 -14c-38 -98 -124 -155 -244 -155z" />
    <glyph glyph-name="uni0422" unicode="&#x422;" horiz-adv-x="566" 
d="M205 0c-6 0 -10 4 -10 10v508c0 3 -2 6 -5 6h-168c-6 0 -10 4 -10 10v136c0 6 4 10 10 10h522c6 0 10 -4 10 -10v-136c0 -6 -4 -10 -10 -10h-167c-4 0 -6 -3 -6 -6v-508c0 -6 -4 -10 -10 -10h-156z" />
    <glyph glyph-name="uni0423" unicode="&#x423;" horiz-adv-x="621" 
d="M111 -5c-5 0 -10 3 -10 10v137c0 6 5 9 10 9h42c45 0 63 18 70 34l9 19l-224 464c-4 8 1 12 6 12h167c12 0 14 -4 16 -9l121 -274h3l111 274c2 5 4 9 16 9h160c6 0 9 -4 6 -11l-248 -550c-27 -59 -64 -124 -195 -124h-60z" />
    <glyph glyph-name="uni0424" unicode="&#x424;" horiz-adv-x="820" 
d="M331 -12c-5 0 -9 5 -9 10v72c0 4 -2 6 -6 6c-208 13 -291 109 -291 280c0 169 103 252 291 262c4 0 6 2 6 6v58c0 5 3 10 9 10h158c6 0 9 -5 9 -10v-58c0 -4 2 -6 6 -6c188 -10 291 -93 291 -262c0 -171 -83 -267 -291 -280c-4 0 -6 -2 -6 -6v-72c0 -5 -4 -10 -9 -10
h-158zM315 224c4 0 7 2 7 6v234c0 4 -3 5 -7 5c-74 -4 -114 -29 -114 -121c0 -85 37 -116 114 -124zM505 224c77 8 114 39 114 124c0 92 -40 117 -114 121c-4 0 -7 -1 -7 -5v-234c0 -4 3 -6 7 -6z" />
    <glyph glyph-name="uni0425" unicode="&#x425;" horiz-adv-x="616" 
d="M14 0c-7 0 -9 5 -6 11l204 340l-191 318c-3 6 -1 11 6 11h168c9 0 13 -3 17 -10l94 -161h2l94 161c4 7 9 10 17 10h168c7 0 10 -5 6 -11l-190 -318l203 -340c4 -6 1 -11 -6 -11h-168c-8 0 -13 3 -17 10l-107 183h-2l-107 -183c-4 -7 -9 -10 -17 -10h-168z" />
    <glyph glyph-name="uni0426" unicode="&#x426;" horiz-adv-x="670" 
d="M512 -123c-4 0 -8 5 -8 10v107c0 4 -2 6 -6 6h-434c-6 0 -9 4 -9 9v661c0 5 4 10 9 10h158c5 0 9 -5 9 -10v-508c0 -4 2 -6 6 -6h177c4 0 6 2 6 6v508c0 5 4 10 8 10h159c5 0 9 -5 9 -10v-508c0 -4 2 -6 6 -6h53c5 0 10 -4 10 -9v-260c0 -5 -4 -10 -9 -10h-144z" />
    <glyph glyph-name="uni0427" unicode="&#x427;" horiz-adv-x="611" 
d="M389 0c-5 0 -9 5 -9 10v223c0 6 -6 8 -10 7c-32 -7 -87 -17 -151 -17c-84 0 -179 27 -179 181v267c0 5 3 9 9 9h157c7 0 10 -4 10 -9v-229c0 -38 23 -60 61 -60c28 0 63 3 86 7c13 2 17 7 17 15v267c0 5 2 9 9 9h157c7 0 10 -4 10 -9v-661c0 -5 -4 -10 -9 -10h-158z" />
    <glyph glyph-name="uni0428" unicode="&#x428;" horiz-adv-x="956" 
d="M64 0c-6 0 -9 4 -9 9v661c0 5 4 10 9 10h158c5 0 9 -5 9 -10v-508c0 -4 2 -6 6 -6h147c4 0 6 2 6 6v508c0 5 4 10 8 10h159c5 0 9 -5 9 -10v-508c0 -4 2 -6 6 -6h147c4 0 6 2 6 6v508c0 5 4 10 8 10h159c5 0 9 -5 9 -10v-661c0 -5 -3 -9 -10 -9h-827z" />
    <glyph glyph-name="uni0429" unicode="&#x429;" horiz-adv-x="975" 
d="M817 -123c-4 0 -8 5 -8 10v107c0 4 -2 6 -6 6h-739c-6 0 -9 4 -9 9v661c0 5 4 10 9 10h158c5 0 9 -5 9 -10v-508c0 -4 2 -6 6 -6h147c4 0 6 2 6 6v508c0 5 4 10 8 10h159c5 0 9 -5 9 -10v-508c0 -4 2 -6 6 -6h147c4 0 6 2 6 6v508c0 5 4 10 8 10h159c5 0 9 -5 9 -10v-508
c0 -4 2 -6 6 -6h53c5 0 10 -4 10 -9v-260c0 -5 -4 -10 -9 -10h-144z" />
    <glyph glyph-name="uni042A" unicode="&#x42a;" horiz-adv-x="705" 
d="M155 0c-6 0 -10 4 -10 10v508c0 3 -2 6 -5 6h-118c-6 0 -10 4 -10 10v136c0 6 4 10 10 10h289c6 0 10 -4 10 -10v-214c0 -4 2 -6 6 -6h100c165 0 252 -94 252 -224c0 -132 -86 -226 -252 -226h-272zM327 149h90c55 0 86 30 86 77s-31 78 -86 78h-90c-4 0 -6 -2 -6 -6
v-143c0 -4 2 -6 6 -6z" />
    <glyph glyph-name="uni042B" unicode="&#x42b;" horiz-adv-x="886" 
d="M65 0c-6 0 -10 4 -10 10v660c0 6 4 10 10 10h156c6 0 10 -4 10 -10v-214c0 -4 2 -6 6 -6h100c165 0 252 -94 252 -224c0 -132 -86 -226 -252 -226h-272zM237 149h90c55 0 86 30 86 77s-31 78 -86 78h-90c-4 0 -6 -2 -6 -6v-143c0 -4 2 -6 6 -6zM665 0c-6 0 -10 4 -10 10
v660c0 6 4 10 10 10h156c6 0 10 -4 10 -10v-660c0 -6 -4 -10 -10 -10h-156z" />
    <glyph glyph-name="uni042C" unicode="&#x42c;" horiz-adv-x="615" 
d="M65 0c-6 0 -10 4 -10 10v660c0 6 4 10 10 10h156c6 0 10 -4 10 -10v-214c0 -4 2 -6 6 -6h100c165 0 252 -94 252 -224c0 -132 -86 -226 -252 -226h-272zM237 149h90c55 0 86 30 86 77s-31 78 -86 78h-90c-4 0 -6 -2 -6 -6v-143c0 -4 2 -6 6 -6z" />
    <glyph glyph-name="uni042D" unicode="&#x42d;" horiz-adv-x="581" 
d="M265 -12c-120 0 -203 52 -241 150c-3 7 -2 11 5 14l127 56c7 3 11 1 14 -6c19 -40 46 -65 92 -65c43 0 80 24 92 62c4 13 8 33 9 66c0 5 -3 8 -8 8h-155c-5 0 -10 1 -10 9v124c0 7 5 10 10 10h156c5 0 7 3 7 7c-2 29 -5 45 -9 58c-12 38 -49 62 -92 62
c-46 0 -72 -24 -91 -64c-3 -7 -7 -9 -14 -6l-128 55c-7 3 -8 7 -5 14c38 98 121 150 241 150c123 0 221 -57 257 -168c15 -46 20 -83 20 -184s-5 -138 -20 -184c-36 -111 -134 -168 -257 -168z" />
    <glyph glyph-name="uni042E" unicode="&#x42e;" horiz-adv-x="885" 
d="M581 -12c-116 0 -213 55 -246 167c-11 36 -15 60 -17 106c0 4 -2 6 -6 6h-75c-4 0 -6 -2 -6 -6v-251c0 -6 -4 -10 -10 -10h-156c-6 0 -10 4 -10 10v660c0 6 4 10 10 10h156c6 0 10 -4 10 -10v-241c0 -4 2 -6 6 -6h75c4 0 6 2 6 6c4 40 7 63 17 96c35 111 130 167 246 167
s211 -56 246 -167c16 -52 19 -92 19 -185s-3 -133 -19 -185c-35 -111 -130 -167 -246 -167zM581 145c40 0 67 22 78 60c7 23 9 54 9 135s-2 112 -9 135c-11 38 -38 60 -78 60c-39 0 -67 -22 -78 -60c-7 -23 -9 -54 -9 -135s2 -112 9 -135c11 -38 39 -60 78 -60z" />
    <glyph glyph-name="uni042F" unicode="&#x42f;" horiz-adv-x="620" 
d="M34 -5c-5 0 -10 3 -10 10v137c0 6 5 9 10 9h14c28 0 45 10 53 29l20 51c8 22 21 44 46 58v4c-61 18 -133 62 -133 177c0 112 81 210 232 210h290c7 0 9 -4 9 -9v-661c0 -5 -3 -10 -9 -10h-157c-6 0 -10 5 -10 10v227c0 4 -2 6 -6 6h-26c-29 0 -53 -2 -72 -52l-31 -80
c-34 -89 -87 -116 -156 -116h-64zM289 387h94c4 0 6 2 6 6v132c0 4 -2 6 -6 6h-94c-50 0 -80 -28 -80 -72s30 -72 80 -72z" />
    <glyph glyph-name="uni0430" unicode="&#x430;" horiz-adv-x="532" 
d="M192 -12c-83 0 -158 45 -158 150c0 109 86 160 207 160h77c4 0 6 2 6 6v13c0 36 -19 51 -94 51c-44 0 -82 -12 -105 -28c-5 -3 -10 -3 -13 3l-52 92c-4 7 -2 12 3 16c44 30 109 48 189 48c170 0 230 -57 230 -182v-307c0 -6 -4 -10 -10 -10h-138c-6 0 -10 4 -10 10v28h-1
c-26 -30 -67 -50 -131 -50zM248 108c52 0 76 17 76 52v30c0 4 -2 6 -6 6h-59c-45 0 -68 -16 -68 -46c0 -27 19 -42 57 -42z" />
    <glyph glyph-name="uni0431" unicode="&#x431;" horiz-adv-x="541" 
d="M279 -12c-69 0 -135 21 -176 62c-60 60 -61 152 -61 278c0 106 5 205 76 268c48 43 125 48 178 56c23 4 47 8 48 31c0 4 4 9 10 9h131c5 0 9 -5 9 -9c0 -109 -41 -157 -148 -167c-52 -5 -112 -1 -149 -33c-21 -18 -24 -40 -24 -60h3c16 30 60 57 129 57
c161 0 204 -94 204 -238c0 -165 -74 -254 -230 -254zM277 126c41 0 65 14 65 117c0 94 -25 108 -65 108c-41 0 -66 -14 -66 -108c0 -103 24 -117 66 -117z" />
    <glyph glyph-name="uni0432" unicode="&#x432;" horiz-adv-x="538" 
d="M62 0c-5 0 -9 5 -9 9v469c0 4 2 9 9 9h272c108 0 159 -52 159 -130c0 -50 -23 -84 -60 -103v-4c36 -13 68 -53 68 -110c0 -95 -67 -140 -170 -140h-269zM226 107h64c28 0 45 17 45 43c0 28 -17 42 -45 42h-64c-4 0 -6 -2 -6 -6v-73c0 -4 2 -6 6 -6zM226 300h58
c29 0 43 15 43 40s-14 39 -43 39h-58c-4 0 -6 -2 -6 -6v-67c0 -4 2 -6 6 -6z" />
    <glyph glyph-name="uni0433" unicode="&#x433;" horiz-adv-x="420" 
d="M62 0c-5 0 -9 5 -9 9v469c0 5 5 9 9 9h341c5 0 10 -3 10 -9v-120c0 -7 -5 -9 -10 -9h-176c-4 0 -6 -2 -6 -6v-334c0 -4 -4 -9 -9 -9h-150z" />
    <glyph glyph-name="uni0434" unicode="&#x434;" horiz-adv-x="578" 
d="M10 -93c-5 0 -8 4 -8 9v213c0 6 4 9 9 9h26c8 0 13 6 15 13c25 82 40 132 40 296v31c0 4 3 9 9 9h405c5 0 9 -5 9 -9v-334c0 -4 2 -6 6 -6h40c5 0 9 -3 9 -9v-213c0 -5 -3 -9 -8 -9h-134c-4 0 -8 4 -8 9v78c0 4 -2 6 -6 6h-256c-4 0 -6 -2 -6 -6v-78c0 -5 -4 -9 -8 -9
h-134zM219 138h122c4 0 6 2 6 6v203c0 4 -2 6 -6 6h-87c-4 0 -6 -2 -6 -6v-5c0 -92 -16 -151 -33 -197c-2 -5 1 -7 4 -7z" />
    <glyph glyph-name="uni0435" unicode="&#x435;" horiz-adv-x="533" 
d="M275 -12c-119 0 -198 53 -227 143c-10 29 -16 61 -16 112c0 52 6 85 15 113c30 91 109 143 218 143c116 0 192 -52 220 -141c10 -30 16 -67 16 -152c0 -6 -4 -10 -11 -10h-289c-4 0 -6 -2 -6 -6c1 -7 2 -14 4 -20c11 -34 47 -53 94 -53c42 0 78 14 109 39c6 5 10 5 15 0
l71 -73c5 -4 4 -11 -1 -15c-51 -49 -125 -80 -212 -80zM201 298h132c4 0 6 2 6 6c0 13 -1 22 -4 30c-9 28 -33 44 -68 44c-34 0 -59 -16 -68 -44c-2 -8 -4 -17 -4 -30c0 -4 2 -6 6 -6z" />
    <glyph glyph-name="uni0436" unicode="&#x436;" horiz-adv-x="778" 
d="M37 -5c-5 0 -9 2 -9 9v120c0 6 4 9 9 9h5c18 0 26 10 35 34l16 43c10 26 19 37 38 43v4c-13 7 -22 20 -29 39l-13 35c-7 20 -19 28 -37 28h-7c-5 0 -9 2 -9 9v115c0 6 4 9 9 9h48c83 0 105 -22 125 -76l24 -63c14 -37 34 -40 52 -40h5c4 0 6 2 6 6v159c0 4 2 9 9 9h150
c7 0 9 -5 9 -9v-159c0 -4 2 -6 6 -6h5c18 0 38 3 52 40l24 63c20 54 42 76 125 76h48c5 0 9 -3 9 -9v-115c0 -7 -4 -9 -9 -9h-7c-18 0 -30 -8 -37 -28l-13 -35c-7 -19 -16 -32 -29 -39v-4c20 -5 28 -17 38 -43l16 -43c9 -24 17 -34 35 -34h5c5 0 9 -3 9 -9v-120
c0 -7 -4 -9 -9 -9h-57c-77 0 -106 26 -125 80l-24 67c-11 32 -30 39 -50 39h-6c-4 0 -6 -2 -6 -6v-166c0 -4 -4 -9 -9 -9h-150c-5 0 -9 5 -9 9v166c0 4 -2 6 -6 6h-6c-20 0 -39 -7 -50 -39l-24 -67c-19 -54 -48 -80 -125 -80h-57z" />
    </font>
</defs>
</svg>
