<svg id="Layer_1" data-name="Layer 1" xmlns="http://www.w3.org/2000/svg" viewBox="0 0 140 140"><defs><style>.cls-1{fill:#2c2c2c;}.cls-2{fill:none;stroke:#2c2c2c;stroke-miterlimit:10;stroke-width:4px;}</style></defs><title>hands</title><path class="cls-1" d="M83.29,109.3,65.91,121.46l-.08,0-.07,0-9.32,3.8a2.49,2.49,0,0,1-3-.77L39.87,105.18v-.09l-.49-13.34a.39.39,0,0,1,.11-.29h0a50.8,50.8,0,0,0,1.41-6.08l.4-7.57v0l-.15-1.89a.17.17,0,0,1,.16-.19c1.09,0,6.76.14,7.41,8.87h0l.08,7.25a.19.19,0,0,1,0,.07v.23a.42.42,0,0,0,.65.33L64.3,82.14l17.23-12c1.25-.87,3.22-.28,4.38,1.32S87,75,85.85,75.9l-.1.06L67,89a.42.42,0,0,0-.15.5,2.08,2.08,0,0,0,.22.38,1.81,1.81,0,0,0,.25.3.44.44,0,0,0,.51,0L86.84,77c1.25-.88,3.22-.28,4.38,1.32s1.1,3.51-.07,4.42l-.09.06L71.78,96.21a.4.4,0,0,0-.17.45,2,2,0,0,0,.27.52l.15.19a.41.41,0,0,0,.54.06L91,84.59c1.25-.87,3.23-.27,4.39,1.33s1.09,3.51-.07,4.41l-.09.07L76.92,103.15a.41.41,0,0,0-.16.43,2,2,0,0,0,.3.65l.06.08a.42.42,0,0,0,.56.08l18.65-13c1.25-.87,3.22-.27,4.39,1.33s1.09,3.51-.07,4.41l-.1.07-17.29,12Z"/><path class="cls-2" d="M75.31,65.92,93,54.19l.08,0,.06-.06,6.94-7.28a2.47,2.47,0,0,0,.39-3.08L87.37,24l-.09,0L75.06,18.62a.44.44,0,0,0-.32,0h0a50.16,50.16,0,0,1-6.17-.91l-7.19-2.4h0l-1.71-.83a.18.18,0,0,0-.23.08c-.44,1-2.35,6.34,5.54,10.14h0l6.72,2.72h.07l.21.09a.42.42,0,0,1,.07.73L57,38.3,39.53,50c-1.27.84-1.44,2.9-.38,4.56s2.87,2.31,4.14,1.56l.1-.07,19-12.68a.41.41,0,0,1,.52.05,1.81,1.81,0,0,1,.28.33,2.31,2.31,0,0,1,.18.35.41.41,0,0,1-.17.48L43.94,57.39c-1.27.85-1.43,2.91-.37,4.57s2.87,2.3,4.13,1.55l.1-.06,19.54-13a.42.42,0,0,1,.48,0,1.79,1.79,0,0,1,.39.43l.12.22a.41.41,0,0,1-.14.52L49.49,64.07c-1.27.85-1.44,2.9-.38,4.57S52,71,53.25,70.19a.47.47,0,0,0,.09-.06L71.92,57.74a.41.41,0,0,1,.46,0,2,2,0,0,1,.49.52.56.56,0,0,0,0,.08.42.42,0,0,1-.13.56L53.9,71.51c-1.27.85-1.43,2.9-.37,4.57s2.86,2.3,4.13,1.55l.1-.06,17.52-11.7Z"/></svg>