<svg id="Layer_1" data-name="Layer 1" xmlns="http://www.w3.org/2000/svg" viewBox="0 0 140 140"><defs><style>.cls-1,.cls-2,.cls-4{fill:#2c2c2c;}.cls-1,.cls-3,.cls-4{stroke:#2c2c2c;stroke-miterlimit:10;}.cls-3{fill:none;stroke-width:5px;}.cls-4{stroke-width:2px;}</style></defs><title>heads</title><path class="cls-1" d="M60.48,64.07s-.36,4.67-.71,6.46a20.54,20.54,0,0,0,2.87,4.31l3.58,4.3s1.44,2.87-2.87,3.59l-2.87.72s2.87,5,0,5l-1.19.08a.77.77,0,0,0,0,1.28l1.19.79s1.44,2.16-2.87,3.59c0,0,.72,10.05-10,5.74l-2.16-.72L44,115H24.6l.72-24.4S11.69,72,14.56,64.07Z"/><path class="cls-1" d="M51.94,36.54c.24.4-8.18,6.09-18.43,14s-18.36,15-18.69,14.71C4.67,55.09,8.77,40.28,19,32.35S43.84,23.16,51.94,36.54Z"/><path class="cls-2" d="M76.52,64.07q.14,1.82.33,3.63c.1.91.34,1.92.36,2.83,0-1.56.47-1.11-.48.12-1.61,2.09-3.64,4.17-5.08,6.37-3.69,5.63,2.52,8.18,7.07,9.32l-1.79-4.41c-2.53,4.6-2.17,9.23,3.78,9.62l-2.59-1.49.34.64v-3c.37-.68-1.18.88-1.53,1.44a4.76,4.76,0,0,0-.64,2.27c0,3.19,2.75,4.66,5.3,5.72l-2.2-2.89A10,10,0,0,0,82.22,102c3.81,3.49,8.91,1.54,13.16.13l-3.79-2.9L93,115a3.07,3.07,0,0,0,3,3H115.4a3,3,0,0,0,3-3l-.36-12.2-.24-8.19a20,20,0,0,0-.08-2.79c-.3-1.62.68-.93-.42.25,3-3.19,5.24-7.9,7.2-11.74,2.57-5,5.53-11.33,3.84-17.08a3.09,3.09,0,0,0-2.9-2.2H79.52c-3.86,0-3.87,6,0,6h45.92l-2.89-2.2c1.57,5.35-3,12.32-5.58,16.72-1.63,2.77-4.81,5.93-5.29,9.16-.57,4,.26,8.59.37,12.57l.35,11.7,3-3H96l3,3L97.59,99.23c-.17-1.82-1.8-3.56-3.8-2.89-3.47,1.16-8.71,3.42-8.4-2.13a3.08,3.08,0,0,0-2.21-2.89c-.37-.16-2.93,2.3-1.27,1.3a3.62,3.62,0,0,0,.92-.67,3.92,3.92,0,0,0,1-3.92,3.64,3.64,0,0,0-2.68-2.43c-2.07-.71.13.9.35.74s.49-1.1.65-1.38a3,3,0,0,0-1.8-4.41,8.36,8.36,0,0,0-2.57-.64c-1,.18-1.74,1.57-1.39.81.7-1.54,2.49-2.92,3.56-4.26,1.35-1.7,3.07-3.7,3.32-5.93.23-2-.56-4.46-.71-6.46C82.21,60.25,76.21,60.21,76.52,64.07Z"/><path class="cls-2" d="M85.17,35.9c.89,3.15,6.41,5.79,8.82,7.57q10.86,8,21.29,16.48c2.18,1.77,6.68,7,9.9,6.89,4.9-.14,8-9.69,8.59-13.47,1.88-12.46-6.83-24.08-17.85-28.94-11.68-5.15-23.56-1.52-30.45,9.16-2.1,3.26,3.09,6.27,5.18,3,5.68-8.8,15.4-10.73,24.51-5.91,8.59,4.53,15.42,14.75,12,24.63a16.5,16.5,0,0,1-1.77,3.57l-1.28,1.7c2.23.78,2.94.92,2.11.41,0-.37-2.84-2.2-3.11-2.42C119,55.32,115,52,110.88,48.77q-6.55-5.13-13.27-10.05c-1.66-1.22-3.35-2.43-5-3.68A8.35,8.35,0,0,0,91,33.83c-.83-.32-.65-1.58-.07.48C89.91,30.6,84.12,32.17,85.17,35.9Z"/><path class="cls-3" d="M44.24,55.58s13.72-17,35.31-6.74"/><polygon class="cls-4" points="84.94 55.04 80.01 53.08 75.07 51.12 79.24 47.83 83.4 44.53 84.17 49.78 84.94 55.04"/></svg>